<svg class="h-6 w-auto fill-current text-blue-500 " viewBox="0 0 194 116"
                 xmlns="http://www.w3.org/2000/svg">
                <g fill-rule="evenodd">
                  <path d="M13.9,65.9c-1,0-1.8,0-2.5,0c-1.7-0.1-2.9-1.2-2.9-2.8c-0.1-3.3-0.1-6.7,0-10c0-1.6,1.2-2.8,2.9-2.9c0.8-0.1,1.6,0,2.6,0
                      c0-0.8,0-1.6,0-2.3c0.6-11.9,4.2-22.6,12.2-31.6c3.7-4.1,8.2-6.9,13.5-8.7c0.1,0,0.3-0.1,0.4-0.1c0.1,0,0.2,0.1,0.4,0.1
                      c-0.9,1.2-1.9,2.4-2.7,3.6c-7.2,10.5-7.6,21.4-2.2,32.7c0.5,1.1,1.4,1.6,2.6,1.5c0.8,0,1.6,0,2.5,0c0,8.4,0,16.7,0,25.1
                      c-3.6,0.9-5.1,2.9-5.3,7.6c-0.2,4.9-0.1,9.8-0.1,14.7c0,1.6,1.2,2.7,3,3c2,0.4,2.5,1,2.5,3c0,2.4,0,4.8,0,7.2
                      c0,2.1-0.8,2.9-2.9,2.9c-7.1,0-14.1,0-21.2,0c-1.9,0-2.7-0.8-2.7-2.6c0-2.7,0-5.4,0-8c0-1.4,0.8-2.2,2.2-2.4c2.3-0.4,3.3-1.6,3.2-4
                      c-0.2-4.9-1.4-9.6-3.6-13.9c-1.5-3.1-1.8-6.4-1.8-9.7C13.9,67.4,13.9,66.7,13.9,65.9z"/>
                  <path d="M71.3,50.1c0-1.3,0-2.4,0-3.5c0-7.4,0-14.9,0-22.3c0-2.7-0.6-3.5-3.3-4c-1.5-0.3-2.2-1.1-2.2-2.7c0-2.6,0-5.3,0-7.9
                      c0-1.8,0.9-2.6,2.6-2.6c7.1,0,14.3,0,21.4,0c1.8,0,2.7,0.8,2.7,2.7c0,2.6,0,5.2,0,7.8c0,1.7-0.7,2.5-2.4,2.8
                      c-2.2,0.4-3.1,1.4-3.1,3.6c0,8.3,0,16.6,0,25c0,0.3,0,0.6,0.1,1.2c1.4,0,2.7,0,4.1,0c2.3,0,3.5,1.1,3.5,3.4c0,3.1,0,6.1,0,9.2
                      c0,2-1.1,3.2-3.1,3.2c-15.6,0-31.1,0-46.7,0c-0.2,0-0.5,0-0.8-0.1c0-5.2,0-10.4,0-15.7C53.1,50.1,62.1,50.1,71.3,50.1z"/>
                  <path d="M71.3,69.3c5.3,0,10.4,0,15.8,0c0,0.5,0,1,0,1.5c0,7,0,14,0,21c0,2.7,0.7,3.5,3.3,3.9c1.3,0.2,2,1,2,2.3
                      c0,2.8,0.1,5.6,0,8.5c0,1.6-1,2.3-2.9,2.3c-6.3,0-12.7,0-19,0c-0.8,0-1.7,0-2.5,0c-1.4-0.1-2.3-0.9-2.3-2.3c-0.1-2.8-0.1-5.6,0-8.5
                      c0-1.3,0.8-2.1,2.2-2.3c2.3-0.3,3.4-1.4,3.4-3.9c0-7,0-14,0-21C71.3,70.4,71.3,69.9,71.3,69.3z"/>
                </g>
            </svg> 