<?xml version="1.0" encoding="utf-8"?>
<!-- Generator: Adobe Illustrator 25.2.1, SVG Export Plug-In . SVG Version: 6.00 Build 0)  -->
<svg version="1.1" id="Layer_1" xmlns="http://www.w3.org/2000/svg" xmlns:xlink="http://www.w3.org/1999/xlink" x="0px" y="0px"
	 viewBox="0 0 610 470" style="enable-background:new 0 0 610 470;" xml:space="preserve">
<style type="text/css">
	.st0{fill:#2C80D8;}
	.st1{fill:none;}
	.st2{enable-background:new    ;}
	.st3{fill:#FFFFFF;}
	.st4{fill:#52A6FF;}
</style>
<path class="st0" d="M306.1,158.1c0,6.2,0,12.3,0,18.5c0.1,42.7,0.1,85.3,0.2,128c0,2.6,0.9,4.6,2.4,6c1.4,1.7,3.5,2.8,6.4,2.8
	c28.3-0.1,66.9-0.2,95.2-0.3c8.1,0,32.4,0,40.5-0.1c23.1-0.3,45.6-10,61-27.5c31.6-35.9,25.7-92-12.6-120.5
	c-25.3-18.8-71.3-16-100.9-15.9c-24.4,0.1-59,0.2-83.4,0.2C310.1,149.4,306.1,153.4,306.1,158.1z"/>
<rect x="341.4" y="205.2" class="st1" width="219.2" height="92"/>
<g class="st2">
	<path class="st3" d="M355.4,232.9h-17.7v12h20.7v7.4h-29.9v-44.7h29.9v7.5h-20.7v10.6h17.7V232.9z"/>
	<path class="st3" d="M365.2,252.3v-26.7h-4.9v-6.5h4.9v-2.8c0-3.7,1.1-6.6,3.2-8.7s5.1-3.1,9-3.1c1.2,0,2.7,0.2,4.5,0.6l-0.1,6.9
		c-0.7-0.2-1.6-0.3-2.7-0.3c-3.3,0-5,1.6-5,4.7v2.7h6.6v6.5h-6.6v26.7H365.2z"/>
	<path class="st3" d="M387.7,252.3v-26.7h-4.9v-6.5h4.9v-2.8c0-3.7,1.1-6.6,3.2-8.7s5.1-3.1,9-3.1c1.2,0,2.7,0.2,4.5,0.6l-0.1,6.9
		c-0.7-0.2-1.6-0.3-2.7-0.3c-3.3,0-5,1.6-5,4.7v2.7h6.6v6.5h-6.6v26.7H387.7z"/>
	<path class="st3" d="M422.3,252.9c-4.9,0-8.8-1.5-11.9-4.5c-3.1-3-4.6-7-4.6-11.9v-0.9c0-3.3,0.6-6.3,1.9-8.9
		c1.3-2.6,3.1-4.7,5.5-6.1c2.4-1.4,5.1-2.1,8.1-2.1c4.5,0,8.1,1.4,10.7,4.3s3.9,6.9,3.9,12.2v3.6h-21.1c0.3,2.2,1.2,3.9,2.6,5.2
		s3.3,2,5.5,2c3.4,0,6.1-1.2,8-3.7l4.4,4.9c-1.3,1.9-3.1,3.3-5.4,4.4C427.6,252.4,425.1,252.9,422.3,252.9z M421.3,225.6
		c-1.8,0-3.2,0.6-4.3,1.8c-1.1,1.2-1.8,2.9-2.1,5.1h12.3v-0.7c0-2-0.6-3.5-1.6-4.6S423.2,225.6,421.3,225.6z"/>
	<path class="st3" d="M454.8,245.7c1.6,0,3-0.4,4-1.3c1-0.9,1.6-2.1,1.6-3.6h8.3c0,2.2-0.6,4.3-1.8,6.2c-1.2,1.9-2.9,3.3-5,4.4
		c-2.1,1-4.4,1.5-6.9,1.5c-4.7,0-8.5-1.5-11.2-4.5c-2.7-3-4.1-7.2-4.1-12.5v-0.6c0-5.1,1.4-9.2,4.1-12.2c2.7-3,6.5-4.6,11.2-4.6
		c4.2,0,7.5,1.2,10,3.5c2.5,2.4,3.8,5.5,3.8,9.4h-8.3c0-1.7-0.6-3.1-1.6-4.2c-1-1.1-2.4-1.6-4-1.6c-2.1,0-3.6,0.8-4.7,2.3
		c-1.1,1.5-1.6,3.9-1.6,7.3v0.9c0,3.4,0.5,5.9,1.6,7.4S452.7,245.7,454.8,245.7z"/>
	<path class="st3" d="M484.4,210.9v8.2h5.7v6.5h-5.7v16.6c0,1.2,0.2,2.1,0.7,2.6c0.5,0.5,1.4,0.8,2.7,0.8c1,0,1.9-0.1,2.6-0.2v6.7
		c-1.7,0.5-3.5,0.8-5.4,0.8c-6.2,0-9.4-3.1-9.5-9.4v-17.9h-4.8v-6.5h4.8v-8.2H484.4z"/>
</g>
<path class="st0" d="M281.1,149.3c-24.4-0.1-50-0.2-74.4-0.2c-29.6-0.1-75.6-2.9-100.9,15.9c-38.3,28.6-44.2,84.6-12.6,120.5
	c15.4,17.5,37.9,27.1,61,27.5c8.1,0.1,32.4,0.1,40.5,0.1c28.3,0.1,57.9,0.2,86.2,0.3c2.8,0,5-1.1,6.4-2.8c1.4-1.4,2.4-3.4,2.4-6
	c0.1-42.7,0.1-85.3,0.2-128c0-6.2,0-12.3,0-18.5C289.9,153.4,285.8,149.4,281.1,149.3z M122.5,287C85,265.4,79.3,212.6,111,183.4
	c12.4-11.4,28.4-16.8,45.1-16.9c9.9,0,35.8,0.1,45.6,0.1c23.1,0.1,47.5,0.2,70.6,0.2c-0.1,39.8-0.1,79.5-0.2,119.3
	c0,3.2,0,6.5,0,9.7c-19.6-0.1-39.1-0.1-58.7-0.2C189.6,295.5,143.9,299.3,122.5,287z"/>
<g class="st2">
	<path class="st4" d="M135.6,242.5c0-1.7-0.6-3.1-1.8-4c-1.2-0.9-3.4-1.9-6.6-2.9s-5.7-2-7.6-3.1c-5.1-2.7-7.6-6.4-7.6-11.1
		c0-2.4,0.7-4.6,2-6.5c1.4-1.9,3.3-3.4,5.9-4.4s5.4-1.6,8.6-1.6c3.2,0,6,0.6,8.5,1.7c2.5,1.2,4.4,2.8,5.8,4.9
		c1.4,2.1,2.1,4.5,2.1,7.2h-9.2c0-2-0.6-3.6-1.9-4.8c-1.3-1.1-3.1-1.7-5.4-1.7c-2.2,0-4,0.5-5.2,1.4c-1.2,1-1.9,2.2-1.9,3.8
		c0,1.5,0.7,2.7,2.2,3.7c1.5,1,3.6,1.9,6.5,2.8c5.2,1.6,9,3.5,11.4,5.9s3.6,5.2,3.6,8.7c0,3.9-1.5,6.9-4.4,9.1
		c-2.9,2.2-6.9,3.3-11.8,3.3c-3.4,0-6.6-0.6-9.4-1.9c-2.8-1.3-5-3-6.5-5.2c-1.5-2.2-2.2-4.7-2.2-7.6h9.2c0,4.9,2.9,7.4,8.8,7.4
		c2.2,0,3.9-0.4,5.1-1.3C135,245.4,135.6,244.1,135.6,242.5z"/>
	<path class="st4" d="M160.8,254.2h-9.2v-44.7h9.2V254.2z"/>
	<path class="st4" d="M169.4,254.2v-44.7h13.7c3.9,0,7.4,0.9,10.5,2.7c3.1,1.8,5.5,4.3,7.3,7.5c1.7,3.3,2.6,7,2.6,11.1v2.1
		c0,4.2-0.9,7.8-2.6,11.1c-1.7,3.2-4.1,5.7-7.2,7.5c-3.1,1.8-6.6,2.7-10.5,2.7H169.4z M178.6,217v29.8h4.4c3.6,0,6.3-1.2,8.3-3.5
		c1.9-2.4,2.9-5.7,2.9-10.1v-2.4c0-4.5-0.9-8-2.8-10.3c-1.9-2.3-4.6-3.5-8.3-3.5H178.6z"/>
</g>
<path class="st4" d="M256,226.8c-4.9,0-9.8,0-14.7-0.1c-0.5,0-0.9,0-1.4,0c0-3.6,0-7.1,0-10.7c0-1.8,0-3.6,0-5.4
	c0-0.6-0.5-1.1-1.1-1.1c-3,0-4.8,0-7.9,0c-0.6,0-1.1,0.5-1.1,1.1c0,4.9,0,9.8-0.1,14.7c0,0.5,0,0.9,0,1.4c-3.6,0-7.1,0-10.7,0
	c-1.8,0-3.6,0-5.4,0c-0.6,0-1.1,0.5-1.1,1.1c0,3,0,4.8,0,7.9c0,0.3,0.1,0.6,0.3,0.8s0.4,0.3,0.8,0.3c4.9,0,9.8,0,14.7,0.1
	c0.5,0,0.9,0,1.4,0c0,3.6,0,8.4,0,11.9c0,1.8,0,3.6,0,5.4c0,0.6,0.5,1.1,1.1,1.1c3,0,4.8,0,7.9,0c0.3,0,0.6-0.1,0.8-0.3
	s0.3-0.4,0.3-0.8c0-4.9,0-11,0.1-15.9c0-0.5,0-0.9,0-1.4c3.6,0,7.1,0,10.7,0c1.8,0,3.6,0,5.4,0c0.6,0,1.1-0.5,1.1-1.1
	c0-3,0-4.8,0-7.9C257.1,227.4,256.6,226.9,256,226.8z"/>
</svg>
