<?xml version="1.0" encoding="utf-8"?>
<!-- Generator: Adobe Illustrator 22.1.0, SVG Export Plug-In . SVG Version: 6.00 Build 0)  -->
<svg version="1.1" id="Layer_1" xmlns="http://www.w3.org/2000/svg" xmlns:xlink="http://www.w3.org/1999/xlink" x="0px" y="0px"
	 viewBox="0 0 720 540" style="enable-background:new 0 0 720 540;" xml:space="preserve">
<style type="text/css">
	.st0{fill:#FFDA00;}
	.st1{enable-background:new    ;}
	.st2{fill:#FFFFFF;}
</style>
<rect y="0" class="st0" width="720" height="540"/>
<g class="st1">
	<path class="st2" d="M78.7,195.6c0-1.6-0.3-3-1-4.1c-0.7-1.1-1.6-2.1-2.7-2.8c-1.1-0.7-2.4-1.3-3.9-1.6c-1.5-0.3-3-0.5-4.6-0.5
		h-1.7v-3.3h1.7c3,0,5.7,0.5,8.2,1.4s4.4,2.4,5.7,4.5c1.3-2,3.2-3.5,5.7-4.5c2.5-1,5.2-1.4,8.2-1.4h1.8v3.3h-1.8
		c-1.6,0-3.2,0.2-4.6,0.5c-1.5,0.3-2.7,0.9-3.9,1.6c-1.1,0.7-2,1.7-2.7,2.8s-1,2.5-1,4.1v34h-3.6V195.6z"/>
</g>
<g class="st1">
	<path class="st2" d="M97.4,213.6c0-1.6,0.3-3.2,1-5s1.6-3.4,3-4.9c1.3-1.5,2.9-2.7,4.9-3.7c2-1,4.3-1.5,6.9-1.5v3.3
		c-1.6,0-3.1,0.3-4.5,0.9c-1.4,0.6-2.7,1.5-3.8,2.5c-1.1,1.1-2,2.3-2.7,3.7c-0.7,1.4-1.1,2.9-1.1,4.5v15.9h-3.6V213.6z"/>
</g>
<g class="st1">
	<path class="st2" d="M115.9,214.1c0-2.1,0.4-4.2,1.3-6.1c0.8-1.9,2-3.6,3.4-5c1.4-1.4,3.1-2.5,5-3.4c1.9-0.8,3.9-1.2,6.1-1.2
		c2.1,0,4.2,0.4,6.1,1.2c1.9,0.8,3.6,1.9,5,3.4c1.4,1.4,2.6,3.1,3.4,5c0.8,1.9,1.3,3.9,1.3,6.1c0,2.1-0.4,4.2-1.3,6.1s-2,3.6-3.4,5
		c-1.4,1.4-3.1,2.6-5,3.4c-1.9,0.8-3.9,1.2-6.1,1.2c-2.1,0-4.2-0.4-6.1-1.2c-1.9-0.8-3.6-1.9-5-3.4c-1.4-1.4-2.6-3.1-3.4-5
		S115.9,216.2,115.9,214.1z M119.5,214.1c0,1.6,0.3,3.2,1,4.6c0.7,1.5,1.6,2.7,2.7,3.9c1.1,1.1,2.4,2,3.9,2.7c1.5,0.7,3,1,4.6,1
		c1.6,0,3.2-0.3,4.6-1c1.5-0.7,2.7-1.6,3.9-2.7c1.1-1.1,2-2.4,2.7-3.9c0.7-1.5,1-3,1-4.6c0-1.6-0.3-3.2-1-4.6
		c-0.7-1.5-1.6-2.7-2.7-3.9c-1.1-1.1-2.4-2-3.9-2.7c-1.5-0.7-3-1-4.6-1c-1.6,0-3.2,0.3-4.6,1c-1.5,0.7-2.7,1.6-3.9,2.7
		c-1.1,1.1-2,2.4-2.7,3.9C119.9,210.9,119.5,212.5,119.5,214.1z M127.9,214.1c0-1,0.4-1.9,1.1-2.6c0.7-0.7,1.6-1.1,2.6-1.1
		c1,0,1.9,0.4,2.6,1.1c0.7,0.7,1.1,1.6,1.1,2.6c0,1-0.4,1.9-1.1,2.6c-0.7,0.7-1.6,1.1-2.6,1.1c-1,0-1.9-0.4-2.6-1.1
		C128.2,216,127.9,215.2,127.9,214.1z M130.1,214.1c0,0.4,0.2,0.8,0.5,1.1s0.7,0.5,1.1,0.5c0.4,0,0.8-0.2,1.1-0.5
		c0.3-0.3,0.5-0.7,0.5-1.1c0-0.4-0.2-0.8-0.5-1.1c-0.3-0.3-0.7-0.5-1.1-0.5c-0.4,0-0.8,0.2-1.1,0.5S130.1,213.7,130.1,214.1z"/>
	<path class="st2" d="M154.6,214.1c0,1.6,0.1,3.2,0.4,4.6c0.2,1.5,0.7,2.7,1.3,3.9c0.6,1.1,1.4,2,2.5,2.7c1,0.7,2.4,1,4,1
		c1.6,0,2.9-0.3,4-1c1-0.7,1.9-1.6,2.5-2.7c0.6-1.1,1.1-2.4,1.3-3.9c0.2-1.5,0.4-3,0.4-4.6v-15.4h3.6v30.9h-3.6v-3.3
		c-0.9,1-2.1,1.9-3.4,2.5c-1.3,0.7-2.9,1-4.7,1c-2.1,0-4-0.4-5.4-1.2c-1.5-0.8-2.7-1.9-3.6-3.4c-0.9-1.4-1.6-3.1-2.1-5
		c-0.4-1.9-0.6-3.9-0.6-6.1v-15.4h3.6V214.1z M159.4,214.1c0-1,0.4-1.9,1.1-2.6c0.7-0.7,1.6-1.1,2.6-1.1c1,0,1.9,0.4,2.6,1.1
		c0.7,0.7,1.1,1.6,1.1,2.6c0,1-0.4,1.9-1.1,2.6c-0.7,0.7-1.6,1.1-2.6,1.1c-1,0-1.9-0.4-2.6-1.1C159.8,216,159.4,215.2,159.4,214.1z
		 M161.6,214.1c0,0.4,0.2,0.8,0.5,1.1s0.7,0.5,1.1,0.5c0.4,0,0.8-0.2,1.1-0.5c0.3-0.3,0.5-0.7,0.5-1.1c0-0.4-0.2-0.8-0.5-1.1
		c-0.3-0.3-0.7-0.5-1.1-0.5c-0.4,0-0.8,0.2-1.1,0.5S161.6,213.7,161.6,214.1z"/>
	<path class="st2" d="M178.1,181h3.5v23.3c1.5-1.7,3.3-3.2,5.4-4.3c2.1-1.1,4.4-1.7,6.8-1.7c2.1,0,4.2,0.4,6.1,1.2
		c1.9,0.8,3.6,1.9,5,3.4c1.4,1.4,2.6,3.1,3.4,5c0.8,1.9,1.3,3.9,1.3,6.1c0,2.1-0.4,4.2-1.3,6.1s-2,3.6-3.4,5c-1.4,1.4-3.1,2.6-5,3.4
		c-1.9,0.8-3.9,1.2-6.1,1.2c-2.4,0-4.7-0.5-6.8-1.6c-2.1-1.1-3.9-2.5-5.4-4.3v5.7h-3.5V181z M181.6,214.1c0,1.6,0.3,3.1,1,4.6
		c0.7,1.4,1.6,2.7,2.7,3.8c1.1,1.1,2.4,1.9,3.9,2.6c1.5,0.6,3,0.9,4.6,0.9c1.6,0,3.2-0.3,4.6-0.9c1.5-0.6,2.8-1.5,3.9-2.6
		c1.1-1.1,2-2.4,2.7-3.8c0.7-1.4,1-3,1-4.6c0-1.6-0.3-3.1-1-4.6c-0.7-1.4-1.6-2.7-2.7-3.8c-1.1-1.1-2.4-1.9-3.9-2.6
		c-1.5-0.6-3-0.9-4.6-0.9c-1.6,0-3.2,0.3-4.6,0.9c-1.5,0.6-2.8,1.5-3.9,2.6c-1.1,1.1-2,2.4-2.7,3.8
		C182,210.9,181.6,212.5,181.6,214.1z M190.1,214.1c0-1,0.4-1.9,1.1-2.6c0.7-0.7,1.6-1.1,2.6-1.1c1,0,1.9,0.4,2.6,1.1
		c0.7,0.7,1.1,1.6,1.1,2.6c0,1-0.4,1.9-1.1,2.6c-0.7,0.7-1.6,1.1-2.6,1.1c-1,0-1.9-0.4-2.6-1.1C190.5,216,190.1,215.2,190.1,214.1z
		 M192.3,214.1c0,0.4,0.2,0.8,0.5,1.1s0.7,0.5,1.1,0.5c0.4,0,0.8-0.2,1.1-0.5c0.3-0.3,0.5-0.7,0.5-1.1c0-0.4-0.2-0.8-0.5-1.1
		c-0.3-0.3-0.7-0.5-1.1-0.5c-0.4,0-0.8,0.2-1.1,0.5S192.3,213.7,192.3,214.1z"/>
	<path class="st2" d="M214.1,181h3.6v48.5h-3.6V181z"/>
	<path class="st2" d="M235.4,214.1c0-0.4,0.1-0.8,0.4-1.1s0.6-0.5,1-0.5l11.6-2c-0.4-1.2-1-2.3-1.7-3.4c-0.8-1-1.6-1.9-2.6-2.7
		c-1-0.8-2.1-1.3-3.3-1.8c-1.2-0.4-2.4-0.6-3.8-0.6c-1.6,0-3.2,0.3-4.6,1c-1.5,0.7-2.8,1.6-3.9,2.7c-1.1,1.1-2,2.4-2.7,3.9
		c-0.7,1.5-1,3-1,4.6c0,1.6,0.3,3.2,1,4.6c0.7,1.5,1.6,2.7,2.7,3.9c1.1,1.1,2.4,2,3.9,2.7c1.5,0.7,3,1,4.6,1c1.5,0,2.8-0.2,4-0.7
		c1.2-0.5,2.2-1.1,3-1.7c0.9-0.6,1.6-1.3,2.1-1.9c0.6-0.6,1-1.1,1.2-1.4h4c-0.2,0.4-0.6,1.2-1.3,2.2c-0.7,1-1.6,2.1-2.7,3.1
		c-1.2,1.1-2.6,2-4.3,2.8c-1.7,0.8-3.7,1.2-6,1.2c-2.1,0-4.2-0.4-6.1-1.2c-1.9-0.8-3.6-1.9-5-3.4c-1.4-1.4-2.6-3.1-3.4-5
		s-1.3-3.9-1.3-6.1c0-2.1,0.4-4.2,1.3-6.1c0.8-1.9,2-3.6,3.4-5c1.4-1.4,3.1-2.5,5-3.4c1.9-0.8,3.9-1.2,6.1-1.2c2,0,4,0.4,5.8,1.1
		c1.8,0.8,3.4,1.8,4.8,3.1c1.4,1.3,2.5,2.8,3.4,4.6c0.9,1.8,1.4,3.6,1.6,5.6c-2.6,0.5-4.7,0.9-6.5,1.2s-3.2,0.6-4.4,0.8
		c-1.1,0.2-2,0.4-2.7,0.5c-0.6,0.1-1.1,0.2-1.4,0.2c-0.3,0-0.5,0.1-0.6,0.1c-0.1,0-0.1,0-0.2,0c-0.4,0-0.8-0.2-1.1-0.5
		S235.4,214.5,235.4,214.1z"/>
	<path class="st2" d="M278.4,193c0-0.6,0.2-1.1,0.7-1.6c0.4-0.4,1-0.7,1.6-0.7c0.6,0,1.1,0.2,1.6,0.7c0.4,0.4,0.7,1,0.7,1.6
		s-0.2,1.1-0.7,1.6c-0.4,0.4-1,0.7-1.6,0.7c-0.6,0-1.1-0.2-1.6-0.7C278.7,194.2,278.4,193.7,278.4,193z M279,198.6h3.6v30.9H279
		V198.6z"/>
	<path class="st2" d="M306.3,214.1c0-1.6-0.1-3.2-0.4-4.6c-0.3-1.5-0.7-2.7-1.3-3.9c-0.6-1.1-1.4-2-2.5-2.7c-1-0.7-2.4-1-4-1
		c-1.6,0-2.9,0.3-3.9,0.9c-1,0.6-1.9,1.5-2.5,2.5c-0.6,1.1-1.1,2.3-1.3,3.7s-0.4,2.9-0.4,4.5v15.9h-3.6v-13.7v-1.7
		c0-2.4,0.2-4.4,0.6-6.1c0.4-1.7,1-3.1,1.6-4.3s1.4-2.1,2.3-2.8c0.9-0.7,1.7-1.2,2.6-1.6c0.9-0.4,1.7-0.6,2.5-0.7
		c0.8-0.1,1.5-0.2,2.1-0.2c2.1,0,4,0.4,5.4,1.2c1.5,0.8,2.7,1.9,3.6,3.4c0.9,1.4,1.6,3.1,2.1,5c0.4,1.9,0.6,3.9,0.6,6.1v15.4h-3.6
		V214.1z M294.4,212.5c0-1,0.4-1.9,1.1-2.6c0.7-0.7,1.6-1.1,2.6-1.1c1,0,1.9,0.4,2.6,1.1c0.7,0.7,1.1,1.6,1.1,2.6
		c0,1-0.4,1.9-1.1,2.6c-0.7,0.7-1.6,1.1-2.6,1.1c-1,0-1.9-0.4-2.6-1.1C294.7,214.4,294.4,213.5,294.4,212.5z M296.6,212.4
		c0,0.4,0.2,0.8,0.5,1.1s0.7,0.5,1.1,0.5c0.4,0,0.8-0.2,1.1-0.5c0.3-0.3,0.5-0.7,0.5-1.1c0-0.4-0.2-0.8-0.5-1.1
		c-0.3-0.3-0.7-0.5-1.1-0.5c-0.4,0-0.8,0.2-1.1,0.5S296.6,212,296.6,212.4z"/>
	<path class="st2" d="M335.1,204.8v-3.6c0.7-0.1,1.3-0.2,2-0.4c0.6-0.1,1.3-0.2,2-0.4v-14.2h3.6v13.5c1.2-0.2,2.3-0.4,3.5-0.6
		c1.2-0.2,2.3-0.4,3.5-0.6v3.6l-7,1.3v16.3c0,0.9,0.1,1.6,0.3,2.3c0.2,0.6,0.5,1.2,0.8,1.7c0.3,0.5,0.7,0.8,1.1,1.1
		c0.4,0.3,0.8,0.5,1.3,0.7c1,0.4,2.2,0.5,3.5,0.4v3.6c-2.6,0-4.7-0.3-6.1-1c-1.4-0.7-2.5-1.5-3.2-2.5c-0.7-1-1-2.1-1.1-3.2
		c-0.1-1.1-0.2-2.1-0.2-3v-15.7L335.1,204.8z"/>
	<path class="st2" d="M373.2,214.1c0-1.6-0.1-3.2-0.4-4.6c-0.3-1.5-0.7-2.7-1.3-3.9c-0.6-1.1-1.4-2-2.5-2.7c-1-0.7-2.4-1-4-1
		c-1.6,0-2.9,0.3-3.9,0.9c-1,0.6-1.9,1.5-2.5,2.5c-0.6,1.1-1.1,2.3-1.3,3.7s-0.4,2.9-0.4,4.5v15.9h-3.6V181h3.6v20.9
		c0.9-1,2.1-1.9,3.4-2.5c1.3-0.7,2.9-1,4.7-1c2.1,0,4,0.4,5.4,1.2c1.5,0.8,2.7,1.9,3.6,3.4c0.9,1.4,1.6,3.1,2.1,5
		c0.4,1.9,0.6,3.9,0.6,6.1v15.4h-3.6V214.1z M361.3,214.1c0-1,0.4-1.9,1.1-2.6c0.7-0.7,1.6-1.1,2.6-1.1s1.9,0.4,2.6,1.1
		c0.7,0.7,1.1,1.6,1.1,2.6c0,1-0.4,1.9-1.1,2.6s-1.6,1.1-2.6,1.1s-1.9-0.4-2.6-1.1C361.7,216,361.3,215.2,361.3,214.1z M363.6,214.1
		c0,0.4,0.2,0.8,0.5,1.1s0.7,0.5,1.1,0.5c0.4,0,0.8-0.2,1.1-0.5s0.5-0.7,0.5-1.1c0-0.4-0.2-0.8-0.5-1.1s-0.7-0.5-1.1-0.5
		c-0.4,0-0.8,0.2-1.1,0.5S363.6,213.7,363.6,214.1z"/>
	<path class="st2" d="M394.6,214.1c0-0.4,0.1-0.8,0.4-1.1s0.6-0.5,1-0.5l11.6-2c-0.4-1.2-1-2.3-1.7-3.4c-0.8-1-1.6-1.9-2.6-2.7
		c-1-0.8-2.1-1.3-3.3-1.8c-1.2-0.4-2.4-0.6-3.8-0.6c-1.6,0-3.2,0.3-4.6,1c-1.5,0.7-2.8,1.6-3.9,2.7c-1.1,1.1-2,2.4-2.7,3.9
		c-0.7,1.5-1,3-1,4.6c0,1.6,0.3,3.2,1,4.6c0.7,1.5,1.6,2.7,2.7,3.9c1.1,1.1,2.4,2,3.9,2.7c1.5,0.7,3,1,4.6,1c1.5,0,2.8-0.2,4-0.7
		c1.2-0.5,2.2-1.1,3-1.7c0.9-0.6,1.6-1.3,2.1-1.9c0.6-0.6,1-1.1,1.2-1.4h4c-0.2,0.4-0.6,1.2-1.3,2.2c-0.7,1-1.6,2.1-2.7,3.1
		c-1.2,1.1-2.6,2-4.3,2.8c-1.7,0.8-3.7,1.2-6,1.2c-2.1,0-4.2-0.4-6.1-1.2c-1.9-0.8-3.6-1.9-5-3.4c-1.4-1.4-2.6-3.1-3.4-5
		s-1.3-3.9-1.3-6.1c0-2.1,0.4-4.2,1.3-6.1c0.8-1.9,2-3.6,3.4-5c1.4-1.4,3.1-2.5,5-3.4c1.9-0.8,3.9-1.2,6.1-1.2c2,0,4,0.4,5.8,1.1
		s3.4,1.8,4.8,3.1c1.4,1.3,2.5,2.8,3.4,4.6c0.9,1.8,1.4,3.6,1.6,5.6c-2.6,0.5-4.7,0.9-6.5,1.2c-1.8,0.3-3.2,0.6-4.4,0.8
		c-1.1,0.2-2,0.4-2.7,0.5c-0.6,0.1-1.1,0.2-1.4,0.2c-0.3,0-0.5,0.1-0.6,0.1s-0.1,0-0.2,0c-0.4,0-0.8-0.2-1.1-0.5
		S394.6,214.5,394.6,214.1z"/>
	<path class="st2" d="M437.4,198.6c0-2.1,0.4-4.2,1.3-6.1s2-3.6,3.4-5c1.4-1.4,3.1-2.5,5-3.4s3.9-1.2,6.1-1.2c2.1,0,4.2,0.4,6.1,1.2
		s3.6,1.9,5,3.4c1.4,1.4,2.6,3.1,3.4,5s1.3,3.9,1.3,6.1h-3.6c0-1.6-0.3-3.2-1-4.6s-1.6-2.7-2.7-3.9c-1.1-1.1-2.4-2-3.9-2.7
		c-1.5-0.7-3-1-4.6-1c-1.6,0-3.2,0.3-4.6,1c-1.5,0.7-2.7,1.6-3.9,2.7c-1.1,1.1-2,2.4-2.7,3.9c-0.7,1.5-1,3-1,4.6v15.5
		c0,1.6,0.3,3.2,1,4.6c0.7,1.5,1.6,2.7,2.7,3.8s2.4,2,3.9,2.6c1.5,0.7,3,1,4.6,1c1.6,0,3.2-0.3,4.6-1c1.5-0.7,2.7-1.5,3.9-2.6
		c1.1-1.1,2-2.4,2.7-3.8s1-3,1-4.6h3.6c0,2.1-0.4,4.2-1.3,6.1s-2,3.6-3.4,5s-3.1,2.5-5,3.4c-1.9,0.8-3.9,1.2-6.1,1.2
		c-2.1,0-4.2-0.4-6.1-1.2c-1.9-0.8-3.6-1.9-5-3.4s-2.6-3.1-3.4-5s-1.3-3.9-1.3-6.1V198.6z M449.4,206.4c0,1,0.4,1.9,1.1,2.6
		c0.7,0.7,1.6,1.1,2.6,1.1s1.9-0.4,2.6-1.1c0.7-0.7,1.1-1.6,1.1-2.6s-0.4-1.9-1.1-2.6c-0.7-0.7-1.6-1.1-2.6-1.1s-1.9,0.4-2.6,1.1
		S449.4,205.3,449.4,206.4z M451.7,206.3c0-0.4,0.2-0.8,0.5-1.1s0.7-0.5,1.1-0.5c0.4,0,0.8,0.2,1.1,0.5s0.5,0.7,0.5,1.1
		s-0.2,0.8-0.5,1.1s-0.7,0.5-1.1,0.5c-0.4,0-0.8-0.2-1.1-0.5S451.7,206.7,451.7,206.3z"/>
	<path class="st2" d="M472.5,214.1c0-2.1,0.4-4.2,1.3-6.1c0.8-1.9,2-3.6,3.4-5c1.4-1.4,3.1-2.5,5-3.4c1.9-0.8,3.9-1.2,6.1-1.2
		s4.2,0.4,6.1,1.2c1.9,0.8,3.6,1.9,5,3.4c1.4,1.4,2.6,3.1,3.4,5c0.8,1.9,1.3,3.9,1.3,6.1c0,2.1-0.4,4.2-1.3,6.1s-2,3.6-3.4,5
		c-1.4,1.4-3.1,2.6-5,3.4c-1.9,0.8-3.9,1.2-6.1,1.2s-4.2-0.4-6.1-1.2c-1.9-0.8-3.6-1.9-5-3.4c-1.4-1.4-2.6-3.1-3.4-5
		S472.5,216.2,472.5,214.1z M476.1,214.1c0,1.6,0.3,3.2,1,4.6c0.7,1.5,1.5,2.7,2.7,3.9c1.1,1.1,2.4,2,3.9,2.7c1.5,0.7,3,1,4.6,1
		s3.2-0.3,4.6-1c1.5-0.7,2.7-1.6,3.9-2.7c1.1-1.1,2-2.4,2.7-3.9c0.7-1.5,1-3,1-4.6c0-1.6-0.3-3.2-1-4.6c-0.7-1.5-1.6-2.7-2.7-3.9
		c-1.1-1.1-2.4-2-3.9-2.7c-1.5-0.7-3-1-4.6-1s-3.2,0.3-4.6,1c-1.5,0.7-2.7,1.6-3.9,2.7c-1.1,1.1-2,2.4-2.7,3.9
		C476.4,210.9,476.1,212.5,476.1,214.1z M484.4,214.1c0-1,0.4-1.9,1.1-2.6c0.7-0.7,1.6-1.1,2.6-1.1c1,0,1.9,0.4,2.6,1.1
		c0.7,0.7,1.1,1.6,1.1,2.6c0,1-0.4,1.9-1.1,2.6c-0.7,0.7-1.6,1.1-2.6,1.1c-1,0-1.9-0.4-2.6-1.1C484.8,216,484.4,215.2,484.4,214.1z
		 M486.7,214.1c0,0.4,0.2,0.8,0.5,1.1s0.7,0.5,1.1,0.5c0.4,0,0.8-0.2,1.1-0.5c0.3-0.3,0.5-0.7,0.5-1.1c0-0.4-0.2-0.8-0.5-1.1
		c-0.3-0.3-0.7-0.5-1.1-0.5c-0.4,0-0.8,0.2-1.1,0.5S486.7,213.7,486.7,214.1z"/>
	<path class="st2" d="M527.9,214.1c0-1.6-0.1-3.2-0.4-4.6c-0.3-1.5-0.7-2.7-1.3-3.9c-0.6-1.1-1.4-2-2.5-2.7c-1-0.7-2.4-1-4-1
		c-1.6,0-2.9,0.3-3.9,0.9c-1,0.6-1.9,1.5-2.5,2.5c-0.6,1.1-1.1,2.3-1.3,3.7s-0.4,2.9-0.4,4.5v15.9h-3.6v-13.7v-1.7
		c0-2.4,0.2-4.4,0.6-6.1c0.4-1.7,1-3.1,1.6-4.3c0.7-1.2,1.4-2.1,2.3-2.8s1.7-1.2,2.6-1.6c0.9-0.4,1.7-0.6,2.5-0.7
		c0.8-0.1,1.5-0.2,2.1-0.2c2.1,0,4,0.4,5.4,1.2c1.5,0.8,2.7,1.9,3.6,3.4c0.9,1.4,1.6,3.1,2.1,5c0.4,1.9,0.6,3.9,0.6,6.1v15.4h-3.6
		V214.1z M516,212.5c0-1,0.4-1.9,1.1-2.6c0.7-0.7,1.6-1.1,2.6-1.1c1,0,1.9,0.4,2.6,1.1c0.7,0.7,1.1,1.6,1.1,2.6c0,1-0.4,1.9-1.1,2.6
		c-0.7,0.7-1.6,1.1-2.6,1.1c-1,0-1.9-0.4-2.6-1.1C516.3,214.4,516,213.5,516,212.5z M518.2,212.4c0,0.4,0.2,0.8,0.5,1.1
		s0.7,0.5,1.1,0.5c0.4,0,0.8-0.2,1.1-0.5c0.3-0.3,0.5-0.7,0.5-1.1c0-0.4-0.2-0.8-0.5-1.1c-0.3-0.3-0.7-0.5-1.1-0.5
		c-0.4,0-0.8,0.2-1.1,0.5S518.2,212,518.2,212.4z"/>
	<path class="st2" d="M534.7,204.8v-3.6c0.7-0.1,1.3-0.2,2-0.4c0.6-0.1,1.3-0.2,2-0.4v-14.2h3.6v13.5c1.2-0.2,2.3-0.4,3.5-0.6
		c1.2-0.2,2.3-0.4,3.5-0.6v3.6l-7,1.3v16.3c0,0.9,0.1,1.6,0.3,2.3s0.5,1.2,0.8,1.7c0.3,0.5,0.7,0.8,1.1,1.1c0.4,0.3,0.8,0.5,1.3,0.7
		c1,0.4,2.2,0.5,3.5,0.4v3.6c-2.6,0-4.7-0.3-6.1-1c-1.4-0.7-2.5-1.5-3.2-2.5c-0.7-1-1-2.1-1.1-3.2c-0.1-1.1-0.2-2.1-0.2-3v-15.7
		L534.7,204.8z"/>
	<path class="st2" d="M580.7,223.8c-1.5,1.8-3.3,3.2-5.4,4.3s-4.4,1.7-6.8,1.7c-2.1,0-4.2-0.4-6.1-1.3s-3.6-2-5-3.4
		c-1.4-1.4-2.6-3.1-3.4-5s-1.3-3.9-1.3-6.1c0-2.1,0.4-4.2,1.3-6.1s2-3.5,3.4-5c1.4-1.4,3.1-2.5,5-3.4c1.9-0.8,3.9-1.2,6.1-1.2
		c2.1,0,4.2,0.4,6.1,1.2c1.9,0.8,3.6,1.9,5,3.4c1.4,1.4,2.6,3.1,3.4,5s1.3,3.9,1.3,6.1v15.4h-3.5L580.7,223.8z M556.3,214
		c0,1.6,0.3,3.1,1,4.6c0.7,1.4,1.6,2.7,2.7,3.8s2.4,2,3.9,2.6c1.5,0.6,3,1,4.6,1c1.6,0,3.2-0.3,4.6-1c1.5-0.6,2.8-1.5,3.9-2.6
		s2-2.4,2.7-3.8c0.7-1.4,1-3,1-4.6c0-1.6-0.3-3.1-1-4.6c-0.7-1.4-1.6-2.7-2.7-3.8c-1.1-1.1-2.4-1.9-3.9-2.6c-1.5-0.6-3-0.9-4.6-0.9
		c-1.6,0-3.2,0.3-4.6,0.9c-1.5,0.6-2.8,1.5-3.9,2.6c-1.1,1.1-2,2.3-2.7,3.8C556.7,210.9,556.3,212.4,556.3,214z M564.7,214.1
		c0-1,0.4-1.9,1.1-2.6c0.7-0.7,1.6-1.1,2.6-1.1c1,0,1.9,0.4,2.6,1.1c0.7,0.7,1.1,1.6,1.1,2.6c0,1-0.4,1.9-1.1,2.6
		c-0.7,0.7-1.6,1.1-2.6,1.1c-1,0-1.9-0.4-2.6-1.1C565.1,216,564.7,215.1,564.7,214.1z M567,214c0,0.4,0.2,0.8,0.5,1.1
		c0.3,0.3,0.7,0.5,1.1,0.5c0.4,0,0.8-0.2,1.1-0.5c0.3-0.3,0.5-0.7,0.5-1.1c0-0.4-0.2-0.8-0.5-1.1s-0.7-0.5-1.1-0.5
		c-0.4,0-0.8,0.2-1.1,0.5C567.2,213.3,567,213.6,567,214z"/>
	<path class="st2" d="M618.3,222.9c-0.7,1-1.5,1.9-2.5,2.8c-0.9,0.8-2,1.6-3.1,2.2c-1.1,0.6-2.3,1.1-3.5,1.4
		c-1.3,0.3-2.5,0.5-3.9,0.5c-2.1,0-4.2-0.4-6.1-1.2c-1.9-0.8-3.6-1.9-5.1-3.4c-1.5-1.4-2.6-3.1-3.5-5s-1.3-3.9-1.3-6.1
		c0-2.1,0.4-4.2,1.3-6.1c0.9-1.9,2-3.6,3.5-5c1.5-1.4,3.1-2.5,5.1-3.4c1.9-0.8,4-1.2,6.1-1.2c1.3,0,2.6,0.1,3.9,0.4s2.6,0.7,3.8,1.3
		c1.2,0.6,2.4,1.4,3.5,2.5s2.1,2.4,3,3.9h-4.1c-0.6-0.7-1.2-1.3-2-1.9c-0.8-0.5-1.6-1-2.5-1.4c-0.9-0.4-1.8-0.7-2.8-0.9
		s-1.9-0.3-2.8-0.3c-1.6,0-3.2,0.3-4.7,0.9c-1.5,0.6-2.8,1.5-4,2.6c-1.1,1.1-2.1,2.4-2.8,3.8c-0.7,1.4-1,3-1,4.6
		c0,1.6,0.3,3.1,1,4.6c0.7,1.4,1.6,2.7,2.8,3.8c1.1,1.1,2.5,1.9,4,2.6c1.5,0.6,3.1,0.9,4.7,0.9c2.1,0,4-0.5,5.8-1.5
		c1.8-1,3.2-2.3,4.3-4v0l4.2,0c-0.2,0.4-0.4,0.8-0.7,1.2C618.8,222.1,618.6,222.5,618.3,222.9z M601.6,214.1c0-1,0.4-1.9,1.1-2.6
		c0.7-0.7,1.6-1.1,2.6-1.1s1.9,0.4,2.6,1.1c0.7,0.7,1.1,1.6,1.1,2.6c0,1-0.4,1.9-1.1,2.6s-1.6,1.1-2.6,1.1s-1.9-0.4-2.6-1.1
		S601.6,215.2,601.6,214.1z M603.8,214.1c0,0.4,0.2,0.8,0.5,1.1s0.7,0.5,1.1,0.5c0.4,0,0.8-0.2,1.1-0.5s0.5-0.7,0.5-1.1
		c0-0.4-0.2-0.8-0.5-1.1s-0.7-0.5-1.1-0.5c-0.4,0-0.8,0.2-1.1,0.5S603.8,213.7,603.8,214.1z"/>
	<path class="st2" d="M620,204.8v-3.6c0.7-0.1,1.3-0.2,2-0.4s1.3-0.2,2-0.4v-14.2h3.6v13.5c1.2-0.2,2.3-0.4,3.5-0.6
		c1.2-0.2,2.3-0.4,3.5-0.6v3.6l-7,1.3v16.3c0,0.9,0.1,1.6,0.3,2.3s0.5,1.2,0.8,1.7c0.3,0.5,0.7,0.8,1.1,1.1c0.4,0.3,0.8,0.5,1.3,0.7
		c1,0.4,2.2,0.5,3.5,0.4v3.6c-2.6,0-4.7-0.3-6.1-1c-1.4-0.7-2.5-1.5-3.2-2.5c-0.7-1-1-2.1-1.1-3.2c-0.1-1.1-0.2-2.1-0.2-3v-15.7
		L620,204.8z"/>
</g>
<g class="st1">
	<path class="st2" d="M67.2,281.6l17.6-42.7H67.2v-3.6h23.5l-17.6,42.7h17.6v3.6H67.2z"/>
	<path class="st2" d="M91.8,266.1c0-2.1,0.4-4.2,1.3-6.1c0.8-1.9,2-3.6,3.4-5c1.4-1.4,3.1-2.5,5-3.4c1.9-0.8,3.9-1.2,6.1-1.2
		c2.1,0,4.2,0.4,6.1,1.2c1.9,0.8,3.6,1.9,5,3.4c1.4,1.4,2.6,3.1,3.4,5c0.8,1.9,1.3,3.9,1.3,6.1c0,2.1-0.4,4.2-1.3,6.1s-2,3.6-3.4,5
		c-1.4,1.4-3.1,2.6-5,3.4c-1.9,0.8-3.9,1.2-6.1,1.2c-2.1,0-4.2-0.4-6.1-1.2c-1.9-0.8-3.6-1.9-5-3.4c-1.4-1.4-2.6-3.1-3.4-5
		S91.8,268.3,91.8,266.1z M95.4,266.1c0,1.6,0.3,3.2,1,4.6c0.7,1.5,1.6,2.7,2.7,3.9c1.1,1.1,2.4,2,3.9,2.7c1.5,0.7,3,1,4.6,1
		c1.6,0,3.2-0.3,4.6-1c1.5-0.7,2.7-1.6,3.9-2.7c1.1-1.1,2-2.4,2.7-3.9c0.7-1.5,1-3,1-4.6c0-1.6-0.3-3.2-1-4.6
		c-0.7-1.5-1.6-2.7-2.7-3.9c-1.1-1.1-2.4-2-3.9-2.7c-1.5-0.7-3-1-4.6-1c-1.6,0-3.2,0.3-4.6,1c-1.5,0.7-2.7,1.6-3.9,2.7
		c-1.1,1.1-2,2.4-2.7,3.9C95.8,263,95.4,264.5,95.4,266.1z M103.8,266.2c0-1,0.4-1.9,1.1-2.6c0.7-0.7,1.6-1.1,2.6-1.1
		c1,0,1.9,0.4,2.6,1.1c0.7,0.7,1.1,1.6,1.1,2.6c0,1-0.4,1.9-1.1,2.6c-0.7,0.7-1.6,1.1-2.6,1.1c-1,0-1.9-0.4-2.6-1.1
		C104.1,268.1,103.8,267.2,103.8,266.2z M106,266.1c0,0.4,0.2,0.8,0.5,1.1s0.7,0.5,1.1,0.5c0.4,0,0.8-0.2,1.1-0.5
		c0.3-0.3,0.5-0.7,0.5-1.1c0-0.4-0.2-0.8-0.5-1.1c-0.3-0.3-0.7-0.5-1.1-0.5c-0.4,0-0.8,0.2-1.1,0.5S106,265.7,106,266.1z"/>
	<path class="st2" d="M147.2,266.1c0-1.6-0.1-3.2-0.4-4.6c-0.3-1.5-0.7-2.7-1.3-3.9c-0.6-1.1-1.4-2-2.5-2.7c-1-0.7-2.4-1-4-1
		c-1.6,0-2.9,0.3-3.9,0.9c-1,0.6-1.9,1.5-2.5,2.5c-0.6,1.1-1.1,2.3-1.3,3.7s-0.4,2.9-0.4,4.5v15.9h-3.6v-13.7v-1.7
		c0-2.4,0.2-4.4,0.6-6.1c0.4-1.7,1-3.1,1.6-4.3c0.7-1.2,1.4-2.1,2.3-2.8c0.9-0.7,1.7-1.2,2.6-1.6c0.9-0.4,1.7-0.6,2.5-0.7
		c0.8-0.1,1.5-0.2,2.1-0.2c2.1,0,4,0.4,5.4,1.2c1.5,0.8,2.7,1.9,3.6,3.4c0.9,1.4,1.6,3.1,2.1,5c0.4,1.9,0.6,3.9,0.6,6.1v15.4h-3.6
		V266.1z M135.3,264.5c0-1,0.4-1.9,1.1-2.6c0.7-0.7,1.6-1.1,2.6-1.1c1,0,1.9,0.4,2.6,1.1c0.7,0.7,1.1,1.6,1.1,2.6
		c0,1-0.4,1.9-1.1,2.6c-0.7,0.7-1.6,1.1-2.6,1.1c-1,0-1.9-0.4-2.6-1.1C135.6,266.4,135.3,265.6,135.3,264.5z M137.5,264.5
		c0,0.4,0.2,0.8,0.5,1.1s0.7,0.5,1.1,0.5c0.4,0,0.8-0.2,1.1-0.5c0.3-0.3,0.5-0.7,0.5-1.1c0-0.4-0.2-0.8-0.5-1.1
		c-0.3-0.3-0.7-0.5-1.1-0.5c-0.4,0-0.8,0.2-1.1,0.5S137.5,264.1,137.5,264.5z"/>
	<path class="st2" d="M168.2,266.1c0-0.4,0.1-0.8,0.4-1.1s0.6-0.5,1-0.5l11.6-2c-0.4-1.2-1-2.3-1.7-3.4c-0.8-1-1.6-1.9-2.6-2.7
		c-1-0.8-2.1-1.3-3.3-1.8c-1.2-0.4-2.4-0.6-3.8-0.6c-1.6,0-3.2,0.3-4.6,1c-1.5,0.7-2.8,1.6-3.9,2.7c-1.1,1.1-2,2.4-2.7,3.9
		c-0.7,1.5-1,3-1,4.6c0,1.6,0.3,3.2,1,4.6c0.7,1.5,1.6,2.7,2.7,3.9c1.1,1.1,2.4,2,3.9,2.7c1.5,0.7,3,1,4.6,1c1.5,0,2.8-0.2,4-0.7
		c1.2-0.5,2.2-1.1,3-1.7c0.9-0.6,1.6-1.3,2.1-1.9c0.6-0.6,1-1.1,1.2-1.4h4c-0.2,0.4-0.6,1.2-1.3,2.2c-0.7,1-1.6,2.1-2.7,3.1
		c-1.2,1.1-2.6,2-4.3,2.8c-1.7,0.8-3.7,1.2-6,1.2c-2.1,0-4.2-0.4-6.1-1.2c-1.9-0.8-3.6-1.9-5-3.4c-1.4-1.4-2.6-3.1-3.4-5
		s-1.3-3.9-1.3-6.1c0-2.1,0.4-4.2,1.3-6.1c0.8-1.9,2-3.6,3.4-5c1.4-1.4,3.1-2.5,5-3.4c1.9-0.8,3.9-1.2,6.1-1.2c2,0,4,0.4,5.8,1.1
		c1.8,0.8,3.4,1.8,4.8,3.1c1.4,1.3,2.5,2.8,3.4,4.6c0.9,1.8,1.4,3.6,1.6,5.6c-2.6,0.5-4.7,0.9-6.5,1.2s-3.2,0.6-4.4,0.8
		c-1.1,0.2-2,0.4-2.7,0.5c-0.6,0.1-1.1,0.2-1.4,0.2c-0.3,0-0.5,0.1-0.6,0.1c-0.1,0-0.1,0-0.2,0c-0.4,0-0.8-0.2-1.1-0.5
		S168.2,266.5,168.2,266.1z"/>
	<path class="st2" d="M211.1,250.7c0-2.1,0.4-4.2,1.3-6.1s2-3.6,3.4-5c1.4-1.4,3.1-2.5,5-3.4c1.9-0.8,3.9-1.2,6.1-1.2
		c2.1,0,4.2,0.4,6.1,1.2s3.6,1.9,5,3.4c1.4,1.4,2.6,3.1,3.4,5s1.3,3.9,1.3,6.1h-3.6c0-1.6-0.3-3.2-1-4.6c-0.7-1.5-1.6-2.7-2.7-3.9
		c-1.1-1.1-2.4-2-3.9-2.7c-1.5-0.7-3-1-4.6-1c-1.6,0-3.2,0.3-4.6,1c-1.5,0.7-2.7,1.6-3.9,2.7c-1.1,1.1-2,2.4-2.7,3.9s-1,3-1,4.6
		v15.5c0,1.6,0.3,3.2,1,4.6s1.6,2.7,2.7,3.8c1.1,1.1,2.4,2,3.9,2.6c1.5,0.7,3,1,4.6,1c1.6,0,3.2-0.3,4.6-1c1.5-0.7,2.7-1.5,3.9-2.6
		c1.1-1.1,2-2.4,2.7-3.8c0.7-1.5,1-3,1-4.6h3.6c0,2.1-0.4,4.2-1.3,6.1s-2,3.6-3.4,5c-1.4,1.4-3.1,2.5-5,3.4
		c-1.9,0.8-3.9,1.2-6.1,1.2c-2.1,0-4.2-0.4-6.1-1.2c-1.9-0.8-3.6-1.9-5-3.4c-1.4-1.4-2.6-3.1-3.4-5s-1.3-3.9-1.3-6.1V250.7z
		 M223.1,258.4c0,1,0.4,1.9,1.1,2.6c0.7,0.7,1.6,1.1,2.6,1.1c1,0,1.9-0.4,2.6-1.1c0.7-0.7,1.1-1.6,1.1-2.6s-0.4-1.9-1.1-2.6
		c-0.7-0.7-1.6-1.1-2.6-1.1c-1,0-1.9,0.4-2.6,1.1C223.4,256.5,223.1,257.4,223.1,258.4z M225.3,258.4c0-0.4,0.2-0.8,0.5-1.1
		s0.7-0.5,1.1-0.5c0.4,0,0.8,0.2,1.1,0.5s0.5,0.7,0.5,1.1s-0.2,0.8-0.5,1.1s-0.7,0.5-1.1,0.5c-0.4,0-0.8-0.2-1.1-0.5
		S225.3,258.8,225.3,258.4z"/>
	<path class="st2" d="M249.7,266.1c0,1.6,0.1,3.2,0.4,4.6c0.2,1.5,0.7,2.7,1.3,3.9c0.6,1.1,1.4,2,2.5,2.7c1,0.7,2.4,1,4,1
		c1.6,0,2.9-0.3,4-1c1-0.7,1.9-1.6,2.5-2.7c0.6-1.1,1.1-2.4,1.3-3.9c0.2-1.5,0.4-3,0.4-4.6v-15.4h3.6v30.9h-3.6v-3.3
		c-0.9,1-2.1,1.9-3.4,2.5c-1.3,0.7-2.9,1-4.7,1c-2.1,0-4-0.4-5.4-1.2c-1.5-0.8-2.7-1.9-3.6-3.4c-0.9-1.4-1.6-3.1-2.1-5
		c-0.4-1.9-0.6-3.9-0.6-6.1v-15.4h3.6V266.1z M254.5,266.2c0-1,0.4-1.9,1.1-2.6c0.7-0.7,1.6-1.1,2.6-1.1c1,0,1.9,0.4,2.6,1.1
		c0.7,0.7,1.1,1.6,1.1,2.6c0,1-0.4,1.9-1.1,2.6c-0.7,0.7-1.6,1.1-2.6,1.1c-1,0-1.9-0.4-2.6-1.1C254.9,268.1,254.5,267.2,254.5,266.2
		z M256.8,266.1c0,0.4,0.2,0.8,0.5,1.1s0.7,0.5,1.1,0.5c0.4,0,0.8-0.2,1.1-0.5c0.3-0.3,0.5-0.7,0.5-1.1c0-0.4-0.2-0.8-0.5-1.1
		c-0.3-0.3-0.7-0.5-1.1-0.5c-0.4,0-0.8,0.2-1.1,0.5S256.8,265.7,256.8,266.1z"/>
	<path class="st2" d="M274.2,233.1h3.6v48.5h-3.6V233.1z"/>
	<path class="st2" d="M281.3,256.9v-3.6c0.7-0.1,1.3-0.2,2-0.4c0.6-0.1,1.3-0.2,2-0.4v-14.2h3.6V252c1.2-0.2,2.3-0.4,3.5-0.6
		c1.2-0.2,2.3-0.4,3.5-0.6v3.6l-7,1.3v16.3c0,0.9,0.1,1.6,0.3,2.3c0.2,0.6,0.5,1.2,0.8,1.7c0.3,0.5,0.7,0.8,1.1,1.1
		c0.4,0.3,0.8,0.5,1.3,0.7c1,0.4,2.2,0.5,3.5,0.4v3.6c-2.6,0-4.7-0.3-6.1-1c-1.4-0.7-2.5-1.5-3.2-2.5c-0.7-1-1-2.1-1.1-3.2
		c-0.1-1.1-0.2-2.1-0.2-3v-15.7L281.3,256.9z"/>
	<path class="st2" d="M303.1,266.1c0,1.6,0.1,3.2,0.4,4.6c0.2,1.5,0.7,2.7,1.3,3.9c0.6,1.1,1.4,2,2.5,2.7c1,0.7,2.4,1,4,1
		c1.6,0,2.9-0.3,4-1c1-0.7,1.9-1.6,2.5-2.7c0.6-1.1,1.1-2.4,1.3-3.9c0.2-1.5,0.4-3,0.4-4.6v-15.4h3.6v30.9h-3.6v-3.3
		c-0.9,1-2.1,1.9-3.4,2.5c-1.3,0.7-2.9,1-4.7,1c-2.1,0-4-0.4-5.4-1.2c-1.5-0.8-2.7-1.9-3.6-3.4c-0.9-1.4-1.6-3.1-2.1-5
		c-0.4-1.9-0.6-3.9-0.6-6.1v-15.4h3.6V266.1z M307.9,266.2c0-1,0.4-1.9,1.1-2.6c0.7-0.7,1.6-1.1,2.6-1.1c1,0,1.9,0.4,2.6,1.1
		c0.7,0.7,1.1,1.6,1.1,2.6c0,1-0.4,1.9-1.1,2.6c-0.7,0.7-1.6,1.1-2.6,1.1c-1,0-1.9-0.4-2.6-1.1C308.2,268.1,307.9,267.2,307.9,266.2
		z M310.1,266.1c0,0.4,0.2,0.8,0.5,1.1s0.7,0.5,1.1,0.5c0.4,0,0.8-0.2,1.1-0.5c0.3-0.3,0.5-0.7,0.5-1.1c0-0.4-0.2-0.8-0.5-1.1
		c-0.3-0.3-0.7-0.5-1.1-0.5c-0.4,0-0.8,0.2-1.1,0.5S310.1,265.7,310.1,266.1z"/>
	<path class="st2" d="M326.6,265.6c0-1.6,0.3-3.2,1-5s1.6-3.4,3-4.9c1.3-1.5,2.9-2.7,4.9-3.7c2-1,4.3-1.5,6.9-1.5v3.3
		c-1.6,0-3.1,0.3-4.5,0.9c-1.4,0.6-2.7,1.5-3.8,2.5c-1.1,1.1-2,2.3-2.7,3.7c-0.7,1.4-1.1,2.9-1.1,4.5v15.9h-3.6V265.6z"/>
	<path class="st2" d="M356.4,266.1c0-0.4,0.1-0.8,0.4-1.1s0.6-0.5,1-0.5l11.6-2c-0.4-1.2-1-2.3-1.7-3.4c-0.8-1-1.6-1.9-2.6-2.7
		c-1-0.8-2.1-1.3-3.3-1.8c-1.2-0.4-2.4-0.6-3.8-0.6c-1.6,0-3.2,0.3-4.6,1c-1.5,0.7-2.8,1.6-3.9,2.7c-1.1,1.1-2,2.4-2.7,3.9
		c-0.7,1.5-1,3-1,4.6c0,1.6,0.3,3.2,1,4.6c0.7,1.5,1.6,2.7,2.7,3.9c1.1,1.1,2.4,2,3.9,2.7c1.5,0.7,3,1,4.6,1c1.5,0,2.8-0.2,4-0.7
		c1.2-0.5,2.2-1.1,3-1.7c0.9-0.6,1.6-1.3,2.1-1.9c0.6-0.6,1-1.1,1.2-1.4h4c-0.2,0.4-0.6,1.2-1.3,2.2c-0.7,1-1.6,2.1-2.7,3.1
		c-1.2,1.1-2.6,2-4.3,2.8c-1.7,0.8-3.7,1.2-6,1.2c-2.1,0-4.2-0.4-6.1-1.2c-1.9-0.8-3.6-1.9-5-3.4c-1.4-1.4-2.6-3.1-3.4-5
		s-1.3-3.9-1.3-6.1c0-2.1,0.4-4.2,1.3-6.1c0.8-1.9,2-3.6,3.4-5c1.4-1.4,3.1-2.5,5-3.4c1.9-0.8,3.9-1.2,6.1-1.2c2,0,4,0.4,5.8,1.1
		c1.8,0.8,3.4,1.8,4.8,3.1c1.4,1.3,2.5,2.8,3.4,4.6c0.9,1.8,1.4,3.6,1.6,5.6c-2.6,0.5-4.7,0.9-6.5,1.2c-1.8,0.3-3.2,0.6-4.4,0.8
		c-1.1,0.2-2,0.4-2.7,0.5c-0.6,0.1-1.1,0.2-1.4,0.2c-0.3,0-0.5,0.1-0.6,0.1c-0.1,0-0.1,0-0.2,0c-0.4,0-0.8-0.2-1.1-0.5
		S356.4,266.5,356.4,266.1z"/>
	<path class="st2" d="M427.2,275.8c-1.5,1.8-3.3,3.2-5.4,4.3c-2.1,1.1-4.4,1.7-6.8,1.7c-2.1,0-4.2-0.4-6.1-1.3c-1.9-0.8-3.6-2-5-3.4
		c-1.4-1.4-2.6-3.1-3.4-5s-1.3-3.9-1.3-6.1c0-2.1,0.4-4.2,1.3-6.1s2-3.5,3.4-5c1.4-1.4,3.1-2.5,5-3.4c1.9-0.8,3.9-1.2,6.1-1.2
		s4.2,0.4,6.1,1.2c1.9,0.8,3.6,1.9,5,3.4c1.4,1.4,2.6,3.1,3.4,5s1.3,3.9,1.3,6.1v15.4h-3.5L427.2,275.8z M402.8,266.1
		c0,1.6,0.3,3.1,1,4.6c0.7,1.4,1.6,2.7,2.7,3.8s2.4,2,3.9,2.6c1.5,0.6,3,1,4.6,1s3.2-0.3,4.6-1c1.5-0.6,2.8-1.5,3.9-2.6
		s2-2.4,2.7-3.8s1-3,1-4.6c0-1.6-0.3-3.1-1-4.6c-0.7-1.4-1.6-2.7-2.7-3.8c-1.1-1.1-2.4-1.9-3.9-2.6c-1.5-0.6-3-0.9-4.6-0.9
		s-3.2,0.3-4.6,0.9c-1.5,0.6-2.8,1.5-3.9,2.6c-1.1,1.1-2,2.3-2.7,3.8C403.1,262.9,402.8,264.5,402.8,266.1z M411.2,266.1
		c0-1,0.4-1.9,1.1-2.6c0.7-0.7,1.6-1.1,2.6-1.1c1,0,1.9,0.4,2.6,1.1c0.7,0.7,1.1,1.6,1.1,2.6c0,1-0.4,1.9-1.1,2.6
		c-0.7,0.7-1.6,1.1-2.6,1.1c-1,0-1.9-0.4-2.6-1.1C411.6,268,411.2,267.1,411.2,266.1z M413.5,266.1c0,0.4,0.2,0.8,0.5,1.1
		c0.3,0.3,0.7,0.5,1.1,0.5c0.4,0,0.8-0.2,1.1-0.5c0.3-0.3,0.5-0.7,0.5-1.1c0-0.4-0.2-0.8-0.5-1.1c-0.3-0.3-0.7-0.5-1.1-0.5
		c-0.4,0-0.8,0.2-1.1,0.5S413.5,265.7,413.5,266.1z"/>
	<path class="st2" d="M456.2,266.1c0-1.6-0.1-3.2-0.4-4.6c-0.3-1.5-0.7-2.7-1.3-3.9c-0.6-1.1-1.4-2-2.5-2.7c-1-0.7-2.4-1-4-1
		c-1.6,0-2.9,0.3-3.9,0.9c-1,0.6-1.9,1.5-2.5,2.5c-0.6,1.1-1.1,2.3-1.3,3.7s-0.4,2.9-0.4,4.5v15.9h-3.6v-13.7v-1.7
		c0-2.4,0.2-4.4,0.6-6.1c0.4-1.7,1-3.1,1.6-4.3c0.7-1.2,1.4-2.1,2.3-2.8s1.7-1.2,2.6-1.6c0.9-0.4,1.7-0.6,2.5-0.7
		c0.8-0.1,1.5-0.2,2.1-0.2c2.1,0,4,0.4,5.4,1.2c1.5,0.8,2.7,1.9,3.6,3.4c0.9,1.4,1.6,3.1,2.1,5c0.4,1.9,0.6,3.9,0.6,6.1v15.4h-3.6
		V266.1z M444.3,264.5c0-1,0.4-1.9,1.1-2.6c0.7-0.7,1.6-1.1,2.6-1.1c1,0,1.9,0.4,2.6,1.1c0.7,0.7,1.1,1.6,1.1,2.6
		c0,1-0.4,1.9-1.1,2.6c-0.7,0.7-1.6,1.1-2.6,1.1c-1,0-1.9-0.4-2.6-1.1C444.7,266.4,444.3,265.6,444.3,264.5z M446.6,264.5
		c0,0.4,0.2,0.8,0.5,1.1s0.7,0.5,1.1,0.5c0.4,0,0.8-0.2,1.1-0.5c0.3-0.3,0.5-0.7,0.5-1.1c0-0.4-0.2-0.8-0.5-1.1
		c-0.3-0.3-0.7-0.5-1.1-0.5c-0.4,0-0.8,0.2-1.1,0.5S446.6,264.1,446.6,264.5z"/>
	<path class="st2" d="M490.9,275.9c-1.5,1.7-3.3,3.1-5.4,4.2c-2.1,1.1-4.4,1.6-6.8,1.6c-2.1,0-4.2-0.4-6.1-1.2
		c-1.9-0.8-3.6-1.9-5-3.4c-1.4-1.4-2.6-3.1-3.4-5s-1.3-3.9-1.3-6.1c0-2.1,0.4-4.2,1.3-6.1c0.8-1.9,2-3.6,3.4-5
		c1.4-1.4,3.1-2.5,5-3.4c1.9-0.8,3.9-1.2,6.1-1.2c1.2,0,2.4,0.2,3.5,0.5s2.2,0.7,3.3,1.3s2,1.2,2.9,1.9c0.9,0.8,1.7,1.6,2.4,2.4V233
		h3.6v48.5h-3.6V275.9z M466.5,266.1c0,1.6,0.3,3.1,1,4.6c0.7,1.4,1.6,2.7,2.7,3.8c1.1,1.1,2.4,1.9,3.9,2.6c1.5,0.6,3,0.9,4.6,0.9
		s3.2-0.3,4.6-1c1.5-0.6,2.7-1.5,3.9-2.6s2-2.4,2.7-3.9c0.7-1.5,1-3.1,1-4.9c-0.1-1.6-0.4-3-1.1-4.4c-0.7-1.4-1.6-2.6-2.7-3.6
		c-1.1-1-2.4-1.9-3.8-2.5c-1.4-0.6-2.9-0.9-4.5-0.9c-1.6,0-3.2,0.3-4.6,0.9c-1.5,0.6-2.8,1.5-3.9,2.6c-1.1,1.1-2,2.4-2.7,3.8
		C466.9,263,466.5,264.5,466.5,266.1z M475,266.2c0-1,0.4-1.9,1.1-2.6c0.7-0.7,1.6-1.1,2.6-1.1c1,0,1.9,0.4,2.6,1.1
		c0.7,0.7,1.1,1.6,1.1,2.6c0,1-0.4,1.9-1.1,2.6c-0.7,0.7-1.6,1.1-2.6,1.1c-1,0-1.9-0.4-2.6-1.1C475.3,268.1,475,267.2,475,266.2z
		 M477.2,266.1c0,0.4,0.2,0.8,0.5,1.1s0.7,0.5,1.1,0.5c0.4,0,0.8-0.2,1.1-0.5c0.3-0.3,0.5-0.7,0.5-1.1c0-0.4-0.2-0.8-0.5-1.1
		c-0.3-0.3-0.7-0.5-1.1-0.5c-0.4,0-0.8,0.2-1.1,0.5S477.2,265.7,477.2,266.1z"/>
	<path class="st2" d="M540.3,235.2l12.1,46.3h-3.7l-11.2-42.8c-1.6-0.2-3,0-4.2,0.5c-1.3,0.5-2.4,1.3-3.4,2.2c-1,1-1.9,2.1-2.6,3.5
		c-0.7,1.4-1.4,2.8-1.9,4.3c-0.5,1.5-0.9,3-1.1,4.6c-0.3,1.6-0.4,3.1-0.4,4.5l0,23.1h-3.6v-23.1c0-1.4,0.1-3,0.4-4.7
		c0.2-1.7,0.6-3.4,1.2-5.1c0.5-1.7,1.2-3.4,2-5s1.8-3,3-4.3c1.2-1.2,2.5-2.2,4-3s3.2-1.1,5.1-1.1H540.3z M545.7,262.7
		c-1.4,1.1-2.9,1.9-4.6,2.5c-1.7,0.6-3.4,0.9-5.3,0.9c-1.5,0-3-0.2-4.4-0.6c-1.4-0.4-2.7-1-3.9-1.8c-1.2-0.8-2.3-1.7-3.3-2.7
		c-1-1.1-1.8-2.2-2.4-3.5l2-5.8c0.1,1.5,0.6,2.9,1.3,4.3c0.7,1.4,1.6,2.5,2.7,3.6c1.1,1,2.3,1.8,3.7,2.4c1.4,0.6,2.9,0.9,4.4,0.9
		c1.7,0,3.3-0.4,4.8-1.1c1.5-0.7,2.8-1.7,3.9-2.9L545.7,262.7z M529.7,250.8c0,1,0.4,1.9,1.1,2.6c0.7,0.7,1.6,1.1,2.6,1.1
		c1,0,1.9-0.4,2.6-1.1c0.7-0.7,1.1-1.6,1.1-2.6s-0.4-1.9-1.1-2.6s-1.6-1.1-2.6-1.1c-1,0-1.9,0.4-2.6,1.1
		C530.1,248.9,529.7,249.7,529.7,250.8z M532,250.7c0-0.4,0.2-0.8,0.5-1.1s0.7-0.5,1.1-0.5s0.8,0.2,1.1,0.5s0.5,0.7,0.5,1.1
		s-0.2,0.8-0.5,1.1s-0.7,0.5-1.1,0.5s-0.8-0.2-1.1-0.5S532,251.1,532,250.7z"/>
</g>
<g class="st1">
	<path class="st2" d="M561.2,265.6c0-1.6,0.3-3.2,1-5c0.7-1.7,1.6-3.4,3-4.9c1.3-1.5,2.9-2.7,4.9-3.7c2-1,4.3-1.5,6.9-1.5v3.3
		c-1.6,0-3.1,0.3-4.5,0.9c-1.4,0.6-2.7,1.5-3.8,2.5c-1.1,1.1-2,2.3-2.7,3.7c-0.7,1.4-1.1,2.9-1.1,4.5v15.9h-3.6V265.6z"/>
</g>
<g class="st1">
	<path class="st2" d="M581.2,256.9v-3.6c0.7-0.1,1.3-0.2,2-0.4c0.6-0.1,1.3-0.2,2-0.4v-14.2h3.6V252c1.2-0.2,2.3-0.4,3.5-0.6
		c1.2-0.2,2.3-0.4,3.5-0.6v3.6l-7,1.3v16.3c0,0.9,0.1,1.6,0.3,2.3c0.2,0.6,0.5,1.2,0.8,1.7c0.3,0.5,0.7,0.8,1.1,1.1
		c0.4,0.3,0.8,0.5,1.3,0.7c1,0.4,2.2,0.5,3.5,0.4v3.6c-2.6,0-4.7-0.3-6.1-1s-2.5-1.5-3.2-2.5c-0.7-1-1-2.1-1.1-3.2
		c-0.1-1.1-0.2-2.1-0.2-3v-15.7L581.2,256.9z"/>
	<path class="st2" d="M621.5,245.1c0-0.6,0.2-1.1,0.7-1.6c0.4-0.4,1-0.7,1.6-0.7c0.6,0,1.1,0.2,1.6,0.7c0.4,0.4,0.7,1,0.7,1.6
		s-0.2,1.1-0.7,1.6c-0.4,0.4-1,0.7-1.6,0.7c-0.6,0-1.1-0.2-1.6-0.7C621.7,246.2,621.5,245.7,621.5,245.1z M622,250.7h3.6v30.9H622
		V250.7z"/>
	<path class="st2" d="M649.3,266.1c0-1.6-0.1-3.2-0.4-4.6c-0.3-1.5-0.7-2.7-1.3-3.9c-0.6-1.1-1.4-2-2.5-2.7c-1-0.7-2.4-1-4-1
		c-1.6,0-2.9,0.3-3.9,0.9c-1,0.6-1.9,1.5-2.5,2.5c-0.6,1.1-1.1,2.3-1.3,3.7s-0.4,2.9-0.4,4.5v15.9h-3.6v-13.7v-1.7
		c0-2.4,0.2-4.4,0.6-6.1c0.4-1.7,1-3.1,1.6-4.3c0.7-1.2,1.4-2.1,2.3-2.8s1.7-1.2,2.6-1.6c0.9-0.4,1.7-0.6,2.5-0.7
		c0.8-0.1,1.5-0.2,2.1-0.2c2.1,0,4,0.4,5.4,1.2c1.5,0.8,2.7,1.9,3.6,3.4c0.9,1.4,1.6,3.1,2.1,5c0.4,1.9,0.6,3.9,0.6,6.1v15.4h-3.6
		V266.1z M637.4,264.5c0-1,0.4-1.9,1.1-2.6c0.7-0.7,1.6-1.1,2.6-1.1c1,0,1.9,0.4,2.6,1.1c0.7,0.7,1.1,1.6,1.1,2.6
		c0,1-0.4,1.9-1.1,2.6c-0.7,0.7-1.6,1.1-2.6,1.1c-1,0-1.9-0.4-2.6-1.1C637.8,266.4,637.4,265.6,637.4,264.5z M639.7,264.5
		c0,0.4,0.2,0.8,0.5,1.1s0.7,0.5,1.1,0.5c0.4,0,0.8-0.2,1.1-0.5c0.3-0.3,0.5-0.7,0.5-1.1c0-0.4-0.2-0.8-0.5-1.1
		c-0.3-0.3-0.7-0.5-1.1-0.5c-0.4,0-0.8,0.2-1.1,0.5S639.7,264.1,639.7,264.5z"/>
</g>
<g class="st1">
	<path class="st2" d="M122.1,309.8v-3.6c0.7-0.1,1.3-0.2,2-0.4c0.6-0.1,1.3-0.2,2-0.4v-14.2h3.6v13.5c1.2-0.2,2.3-0.4,3.5-0.6
		c1.2-0.2,2.3-0.4,3.5-0.6v3.6l-7,1.3v16.3c0,0.9,0.1,1.6,0.3,2.3c0.2,0.6,0.5,1.2,0.8,1.7c0.3,0.5,0.7,0.8,1.1,1.1
		c0.4,0.3,0.8,0.5,1.3,0.7c1,0.4,2.2,0.5,3.5,0.4v3.6c-2.6,0-4.7-0.3-6.1-1c-1.4-0.7-2.5-1.5-3.2-2.5c-0.7-1-1-2.1-1.1-3.2
		c-0.1-1.1-0.2-2.1-0.2-3v-15.7L122.1,309.8z"/>
	<path class="st2" d="M160.2,319c0-1.6-0.1-3.2-0.4-4.6c-0.3-1.5-0.7-2.7-1.3-3.9c-0.6-1.1-1.4-2-2.5-2.7c-1-0.7-2.4-1-4-1
		c-1.6,0-2.9,0.3-3.9,0.9c-1,0.6-1.9,1.5-2.5,2.5c-0.6,1.1-1.1,2.3-1.3,3.7s-0.4,2.9-0.4,4.5v15.9h-3.6V286h3.6v20.9
		c0.9-1,2.1-1.9,3.4-2.5c1.3-0.7,2.9-1,4.7-1c2.1,0,4,0.4,5.4,1.2c1.5,0.8,2.7,1.9,3.6,3.4c0.9,1.4,1.6,3.1,2.1,5
		c0.4,1.9,0.6,3.9,0.6,6.1v15.4h-3.6V319z M148.4,319.1c0-1,0.4-1.9,1.1-2.6c0.7-0.7,1.6-1.1,2.6-1.1c1,0,1.9,0.4,2.6,1.1
		c0.7,0.7,1.1,1.6,1.1,2.6c0,1-0.4,1.9-1.1,2.6c-0.7,0.7-1.6,1.1-2.6,1.1c-1,0-1.9-0.4-2.6-1.1C148.7,321,148.4,320.1,148.4,319.1z
		 M150.6,319c0,0.4,0.2,0.8,0.5,1.1c0.3,0.3,0.7,0.5,1.1,0.5c0.4,0,0.8-0.2,1.1-0.5c0.3-0.3,0.5-0.7,0.5-1.1c0-0.4-0.2-0.8-0.5-1.1
		c-0.3-0.3-0.7-0.5-1.1-0.5c-0.4,0-0.8,0.2-1.1,0.5C150.8,318.3,150.6,318.6,150.6,319z"/>
	<path class="st2" d="M181.6,319c0-0.4,0.1-0.8,0.4-1.1s0.6-0.5,1-0.5l11.6-2c-0.4-1.2-1-2.3-1.7-3.4c-0.8-1-1.6-1.9-2.6-2.7
		c-1-0.8-2.1-1.3-3.3-1.8c-1.2-0.4-2.4-0.6-3.8-0.6c-1.6,0-3.2,0.3-4.6,1c-1.5,0.7-2.8,1.6-3.9,2.7c-1.1,1.1-2,2.4-2.7,3.9
		c-0.7,1.5-1,3-1,4.6c0,1.6,0.3,3.2,1,4.6c0.7,1.5,1.6,2.7,2.7,3.9c1.1,1.1,2.4,2,3.9,2.7c1.5,0.7,3,1,4.6,1c1.5,0,2.8-0.2,4-0.7
		c1.2-0.5,2.2-1.1,3-1.7c0.9-0.6,1.6-1.3,2.1-1.9c0.6-0.6,1-1.1,1.2-1.4h4c-0.2,0.4-0.6,1.2-1.3,2.2c-0.7,1-1.6,2.1-2.7,3.1
		c-1.2,1.1-2.6,2-4.3,2.8c-1.7,0.8-3.7,1.2-6,1.2c-2.1,0-4.2-0.4-6.1-1.2c-1.9-0.8-3.6-1.9-5-3.4c-1.4-1.4-2.6-3.1-3.4-5
		s-1.3-3.9-1.3-6.1c0-2.1,0.4-4.2,1.3-6.1c0.8-1.9,2-3.6,3.4-5c1.4-1.4,3.1-2.5,5-3.4c1.9-0.8,3.9-1.2,6.1-1.2c2,0,4,0.4,5.8,1.1
		c1.8,0.8,3.4,1.8,4.8,3.1c1.4,1.3,2.5,2.8,3.4,4.6c0.9,1.8,1.4,3.6,1.6,5.6c-2.6,0.5-4.7,0.9-6.5,1.2s-3.2,0.6-4.4,0.8
		c-1.1,0.2-2,0.4-2.7,0.5c-0.6,0.1-1.1,0.2-1.4,0.2c-0.3,0-0.5,0.1-0.6,0.1c-0.1,0-0.1,0-0.2,0c-0.4,0-0.8-0.2-1.1-0.5
		S181.6,319.5,181.6,319z"/>
	<path class="st2" d="M244.6,288.2l12.1,46.3H253l-11.2-42.8c-1.6-0.2-3,0-4.2,0.5c-1.3,0.5-2.4,1.3-3.4,2.2c-1,1-1.9,2.1-2.6,3.5
		c-0.7,1.4-1.4,2.8-1.9,4.3c-0.5,1.5-0.9,3-1.1,4.6c-0.3,1.6-0.4,3.1-0.4,4.5l0,23.1h-3.6v-23.1c0-1.4,0.1-3,0.4-4.7
		c0.2-1.7,0.6-3.4,1.2-5.1c0.5-1.7,1.2-3.4,2-5c0.8-1.6,1.8-3,3-4.3c1.2-1.2,2.5-2.2,4-3c1.5-0.8,3.2-1.1,5.1-1.1H244.6z M250,315.6
		c-1.4,1.1-2.9,1.9-4.6,2.5c-1.7,0.6-3.4,0.9-5.3,0.9c-1.5,0-3-0.2-4.4-0.6c-1.4-0.4-2.7-1-3.9-1.8c-1.2-0.8-2.3-1.7-3.3-2.7
		c-1-1.1-1.8-2.2-2.4-3.5l2-5.8c0.1,1.5,0.6,2.9,1.3,4.3s1.6,2.5,2.7,3.6c1.1,1,2.3,1.8,3.7,2.4c1.4,0.6,2.9,0.9,4.4,0.9
		c1.7,0,3.3-0.4,4.8-1.1c1.5-0.7,2.8-1.7,3.9-2.9L250,315.6z M234.1,303.7c0,1,0.4,1.9,1.1,2.6c0.7,0.7,1.6,1.1,2.6,1.1
		c1,0,1.9-0.4,2.6-1.1c0.7-0.7,1.1-1.6,1.1-2.6s-0.4-1.9-1.1-2.6c-0.7-0.7-1.6-1.1-2.6-1.1c-1,0-1.9,0.4-2.6,1.1
		C234.4,301.8,234.1,302.7,234.1,303.7z M236.3,303.7c0-0.4,0.2-0.8,0.5-1.1c0.3-0.3,0.7-0.5,1.1-0.5c0.4,0,0.8,0.2,1.1,0.5
		c0.3,0.3,0.5,0.7,0.5,1.1s-0.2,0.8-0.5,1.1c-0.3,0.3-0.7,0.5-1.1,0.5c-0.4,0-0.8-0.2-1.1-0.5C236.5,304.4,236.3,304.1,236.3,303.7z
		"/>
	<path class="st2" d="M260.8,338.8c2,1.1,4,1.9,6,2.4c2,0.5,3.9,0.9,5.7,0.9c1.8,0.1,3.4,0,5-0.4c1.5-0.3,2.8-0.9,3.9-1.5
		c1.1-0.7,2-1.5,2.6-2.5c0.6-1,0.9-2.1,0.9-3.3v-5.6c-1.5,1.7-3.3,3.1-5.4,4.2s-4.4,1.6-6.8,1.6c-2.1,0-4.2-0.4-6.1-1.2
		c-1.9-0.8-3.6-1.9-5-3.4c-1.4-1.4-2.6-3.1-3.4-5s-1.3-3.9-1.3-6.1c0-2.1,0.4-4.2,1.3-6.1c0.8-1.9,2-3.6,3.4-5
		c1.4-1.4,3.1-2.5,5-3.4c1.9-0.8,3.9-1.2,6.1-1.2c2.1,0,4.2,0.4,6.1,1.2c1.9,0.8,3.6,1.9,5,3.4c1.4,1.4,2.6,3.1,3.4,5
		c0.8,1.9,1.3,3.9,1.3,6.1v0v7.7v7.9c-0.2,2.4-0.9,4.4-2.1,5.8c-1.1,1.5-2.5,2.6-4.2,3.4c-1.6,0.8-3.5,1.2-5.5,1.4
		c-2,0.2-4,0.2-6-0.1s-3.8-0.6-5.6-1.1c-1.8-0.5-3.3-1-4.5-1.5V338.8z M284.9,319c0-1.6-0.3-3.2-1-4.6c-0.7-1.5-1.6-2.7-2.7-3.9
		c-1.1-1.1-2.4-2-3.9-2.7c-1.5-0.7-3-1-4.6-1c-1.6,0-3.2,0.3-4.6,1c-1.5,0.7-2.7,1.6-3.9,2.7c-1.1,1.1-2,2.4-2.7,3.9
		c-0.7,1.5-1,3-1,4.6c0,1.6,0.3,3.2,1,4.6c0.7,1.5,1.6,2.7,2.7,3.9c1.1,1.1,2.4,2,3.9,2.7c1.5,0.7,3,1,4.6,1c1.6,0,3.1-0.3,4.5-0.9
		c1.4-0.6,2.7-1.5,3.8-2.5s2-2.3,2.7-3.7c0.7-1.4,1.1-2.9,1.1-4.5v-0.4V319z M269,319.1c0-1,0.4-1.9,1.1-2.6
		c0.7-0.7,1.6-1.1,2.6-1.1c1,0,1.9,0.4,2.6,1.1c0.7,0.7,1.1,1.6,1.1,2.6c0,1-0.4,1.9-1.1,2.6c-0.7,0.7-1.6,1.1-2.6,1.1
		c-1,0-1.9-0.4-2.6-1.1C269.4,321,269,320.1,269,319.1z M271.3,319c0,0.4,0.2,0.8,0.5,1.1s0.7,0.5,1.1,0.5c0.4,0,0.8-0.2,1.1-0.5
		c0.3-0.3,0.5-0.7,0.5-1.1c0-0.4-0.2-0.8-0.5-1.1c-0.3-0.3-0.7-0.5-1.1-0.5c-0.4,0-0.8,0.2-1.1,0.5S271.3,318.6,271.3,319z"/>
	<path class="st2" d="M306.4,319c0-0.4,0.1-0.8,0.4-1.1s0.6-0.5,1-0.5l11.6-2c-0.4-1.2-1-2.3-1.7-3.4c-0.8-1-1.6-1.9-2.6-2.7
		c-1-0.8-2.1-1.3-3.3-1.8c-1.2-0.4-2.4-0.6-3.8-0.6c-1.6,0-3.2,0.3-4.6,1c-1.5,0.7-2.8,1.6-3.9,2.7c-1.1,1.1-2,2.4-2.7,3.9
		c-0.7,1.5-1,3-1,4.6c0,1.6,0.3,3.2,1,4.6c0.7,1.5,1.6,2.7,2.7,3.9c1.1,1.1,2.4,2,3.9,2.7c1.5,0.7,3,1,4.6,1c1.5,0,2.8-0.2,4-0.7
		c1.2-0.5,2.2-1.1,3-1.7c0.9-0.6,1.6-1.3,2.1-1.9c0.6-0.6,1-1.1,1.2-1.4h4c-0.2,0.4-0.6,1.2-1.3,2.2c-0.7,1-1.6,2.1-2.7,3.1
		c-1.2,1.1-2.6,2-4.3,2.8c-1.7,0.8-3.7,1.2-6,1.2c-2.1,0-4.2-0.4-6.1-1.2c-1.9-0.8-3.6-1.9-5-3.4c-1.4-1.4-2.6-3.1-3.4-5
		s-1.3-3.9-1.3-6.1c0-2.1,0.4-4.2,1.3-6.1c0.8-1.9,2-3.6,3.4-5c1.4-1.4,3.1-2.5,5-3.4c1.9-0.8,3.9-1.2,6.1-1.2c2,0,4,0.4,5.8,1.1
		c1.8,0.8,3.4,1.8,4.8,3.1c1.4,1.3,2.5,2.8,3.4,4.6c0.9,1.8,1.4,3.6,1.6,5.6c-2.6,0.5-4.7,0.9-6.5,1.2s-3.2,0.6-4.4,0.8
		c-1.1,0.2-2,0.4-2.7,0.5c-0.6,0.1-1.1,0.2-1.4,0.2c-0.3,0-0.5,0.1-0.6,0.1c-0.1,0-0.1,0-0.2,0c-0.4,0-0.8-0.2-1.1-0.5
		S306.4,319.5,306.4,319z"/>
	<path class="st2" d="M349.2,319c0-2.1,0.4-4.2,1.3-6.1c0.8-1.9,2-3.6,3.4-5c1.4-1.4,3.1-2.5,5-3.4c1.9-0.8,3.9-1.2,6.1-1.2
		s4.2,0.4,6.1,1.2c1.9,0.8,3.6,1.9,5,3.4c1.4,1.4,2.6,3.1,3.4,5c0.8,1.9,1.3,3.9,1.3,6.1c0,2.1-0.4,4.2-1.3,6.1s-2,3.6-3.4,5
		c-1.4,1.4-3.1,2.6-5,3.4c-1.9,0.8-3.9,1.2-6.1,1.2s-4.2-0.4-6.1-1.2c-1.9-0.8-3.6-1.9-5-3.4c-1.4-1.4-2.6-3.1-3.4-5
		S349.2,321.2,349.2,319z M352.9,319c0,1.6,0.3,3.2,1,4.6c0.7,1.5,1.6,2.7,2.7,3.9c1.1,1.1,2.4,2,3.9,2.7c1.5,0.7,3,1,4.6,1
		s3.2-0.3,4.6-1c1.5-0.7,2.7-1.6,3.9-2.7c1.1-1.1,2-2.4,2.7-3.9c0.7-1.5,1-3,1-4.6c0-1.6-0.3-3.2-1-4.6c-0.7-1.5-1.6-2.7-2.7-3.9
		c-1.1-1.1-2.4-2-3.9-2.7c-1.5-0.7-3-1-4.6-1s-3.2,0.3-4.6,1c-1.5,0.7-2.7,1.6-3.9,2.7c-1.1,1.1-2,2.4-2.7,3.9
		C353.2,315.9,352.9,317.4,352.9,319z M361.2,319.1c0-1,0.4-1.9,1.1-2.6c0.7-0.7,1.6-1.1,2.6-1.1c1,0,1.9,0.4,2.6,1.1
		c0.7,0.7,1.1,1.6,1.1,2.6c0,1-0.4,1.9-1.1,2.6s-1.6,1.1-2.6,1.1c-1,0-1.9-0.4-2.6-1.1S361.2,320.1,361.2,319.1z M363.4,319
		c0,0.4,0.2,0.8,0.5,1.1s0.7,0.5,1.1,0.5c0.4,0,0.8-0.2,1.1-0.5s0.5-0.7,0.5-1.1c0-0.4-0.2-0.8-0.5-1.1s-0.7-0.5-1.1-0.5
		c-0.4,0-0.8,0.2-1.1,0.5S363.4,318.6,363.4,319z"/>
	<path class="st2" d="M382.4,309.8v-3.5l4-0.7v-9.9c0-0.9,0.1-1.8,0.2-3s0.5-2.2,1.1-3.2c0.7-1,1.7-1.8,3.2-2.5c1.4-0.7,3.5-1,6.1-1
		v3.6c-1.3-0.1-2.5,0.1-3.5,0.4c-0.4,0.2-0.9,0.4-1.3,0.7c-0.4,0.3-0.8,0.6-1.1,1.1c-0.3,0.4-0.6,1-0.8,1.6
		c-0.2,0.6-0.3,1.4-0.3,2.3v9.2c1.2-0.2,2.3-0.4,3.5-0.6c1.2-0.2,2.3-0.4,3.5-0.6v3.5l-7,1.3l0,26.1h-3.5v-25.4L382.4,309.8z"/>
	<path class="st2" d="M422.6,288.2h4v46.3h-4V288.2z"/>
	<path class="st2" d="M457.6,328.8c-1.5,1.7-3.3,3.1-5.4,4.2c-2.1,1.1-4.4,1.6-6.8,1.6c-2.1,0-4.2-0.4-6.1-1.2
		c-1.9-0.8-3.6-1.9-5-3.4c-1.4-1.4-2.6-3.1-3.4-5s-1.3-3.9-1.3-6.1c0-2.1,0.4-4.2,1.3-6.1c0.8-1.9,2-3.6,3.4-5
		c1.4-1.4,3.1-2.5,5-3.4c1.9-0.8,3.9-1.2,6.1-1.2c1.2,0,2.4,0.2,3.5,0.5c1.1,0.3,2.2,0.7,3.3,1.3c1,0.5,2,1.2,2.9,1.9
		s1.7,1.6,2.4,2.4V286h3.6v48.5h-3.6V328.8z M433.3,319c0,1.6,0.3,3.1,1,4.6c0.7,1.4,1.6,2.7,2.7,3.8c1.1,1.1,2.4,1.9,3.9,2.6
		c1.5,0.6,3,0.9,4.6,0.9c1.6,0,3.2-0.3,4.6-1c1.5-0.6,2.7-1.5,3.9-2.6s2-2.4,2.7-3.9c0.7-1.5,1-3.1,1-4.9c-0.1-1.6-0.4-3-1.1-4.4
		c-0.7-1.4-1.6-2.6-2.7-3.6c-1.1-1-2.4-1.9-3.8-2.5c-1.4-0.6-2.9-0.9-4.5-0.9c-1.6,0-3.2,0.3-4.6,0.9c-1.5,0.6-2.8,1.5-3.9,2.6
		c-1.1,1.1-2,2.4-2.7,3.8C433.6,315.9,433.3,317.4,433.3,319z M441.7,319.1c0-1,0.4-1.9,1.1-2.6c0.7-0.7,1.6-1.1,2.6-1.1
		c1,0,1.9,0.4,2.6,1.1c0.7,0.7,1.1,1.6,1.1,2.6c0,1-0.4,1.9-1.1,2.6s-1.6,1.1-2.6,1.1c-1,0-1.9-0.4-2.6-1.1S441.7,320.1,441.7,319.1
		z M444,319c0,0.4,0.2,0.8,0.5,1.1s0.7,0.5,1.1,0.5c0.4,0,0.8-0.2,1.1-0.5s0.5-0.7,0.5-1.1c0-0.4-0.2-0.8-0.5-1.1s-0.7-0.5-1.1-0.5
		c-0.4,0-0.8,0.2-1.1,0.5S444,318.6,444,319z"/>
	<path class="st2" d="M479,319c0-0.4,0.1-0.8,0.4-1.1s0.6-0.5,1-0.5l11.6-2c-0.4-1.2-1-2.3-1.7-3.4c-0.8-1-1.6-1.9-2.6-2.7
		c-1-0.8-2.1-1.3-3.3-1.8c-1.2-0.4-2.4-0.6-3.8-0.6c-1.6,0-3.2,0.3-4.6,1c-1.5,0.7-2.8,1.6-3.9,2.7c-1.1,1.1-2,2.4-2.7,3.9
		c-0.7,1.5-1,3-1,4.6c0,1.6,0.3,3.2,1,4.6c0.7,1.5,1.6,2.7,2.7,3.9c1.1,1.1,2.4,2,3.9,2.7c1.5,0.7,3,1,4.6,1c1.5,0,2.8-0.2,4-0.7
		c1.2-0.5,2.2-1.1,3-1.7c0.9-0.6,1.6-1.3,2.1-1.9c0.6-0.6,1-1.1,1.2-1.4h4c-0.2,0.4-0.6,1.2-1.3,2.2c-0.7,1-1.6,2.1-2.7,3.1
		c-1.2,1.1-2.6,2-4.3,2.8c-1.7,0.8-3.7,1.2-6,1.2c-2.1,0-4.2-0.4-6.1-1.2c-1.9-0.8-3.6-1.9-5-3.4c-1.4-1.4-2.6-3.1-3.4-5
		s-1.3-3.9-1.3-6.1c0-2.1,0.4-4.2,1.3-6.1c0.8-1.9,2-3.6,3.4-5c1.4-1.4,3.1-2.5,5-3.4c1.9-0.8,3.9-1.2,6.1-1.2c2,0,4,0.4,5.8,1.1
		c1.8,0.8,3.4,1.8,4.8,3.1c1.4,1.3,2.5,2.8,3.4,4.6c0.9,1.8,1.4,3.6,1.6,5.6c-2.6,0.5-4.7,0.9-6.5,1.2s-3.2,0.6-4.4,0.8
		c-1.1,0.2-2,0.4-2.7,0.5c-0.6,0.1-1.1,0.2-1.4,0.2c-0.3,0-0.5,0.1-0.6,0.1c-0.1,0-0.1,0-0.2,0c-0.4,0-0.8-0.2-1.1-0.5
		S479,319.5,479,319z"/>
	<path class="st2" d="M520.2,319c0-1.6-0.1-3.2-0.4-4.6c-0.3-1.5-0.7-2.7-1.3-3.9c-0.6-1.1-1.4-2-2.5-2.7c-1-0.7-2.4-1-4-1
		c-1.6,0-2.9,0.3-3.9,0.9s-1.9,1.5-2.5,2.5c-0.6,1.1-1.1,2.3-1.3,3.7s-0.4,2.9-0.4,4.5v15.9h-3.6v-13.7V319c0-2.4,0.2-4.4,0.6-6.1
		c0.4-1.7,1-3.1,1.6-4.3s1.4-2.1,2.3-2.8c0.9-0.7,1.7-1.2,2.6-1.6c0.9-0.4,1.7-0.6,2.5-0.7c0.8-0.1,1.5-0.2,2.1-0.2
		c2.1,0,4,0.4,5.4,1.2c1.5,0.8,2.7,1.9,3.6,3.4c0.9,1.4,1.6,3.1,2.1,5c0.4,1.9,0.6,3.9,0.6,6.1v15.4h-3.6V319z M508.3,317.5
		c0-1,0.4-1.9,1.1-2.6c0.7-0.7,1.6-1.1,2.6-1.1s1.9,0.4,2.6,1.1c0.7,0.7,1.1,1.6,1.1,2.6c0,1-0.4,1.9-1.1,2.6
		c-0.7,0.7-1.6,1.1-2.6,1.1s-1.9-0.4-2.6-1.1C508.6,319.4,508.3,318.5,508.3,317.5z M510.5,317.4c0,0.4,0.2,0.8,0.5,1.1
		s0.7,0.5,1.1,0.5s0.8-0.2,1.1-0.5c0.3-0.3,0.5-0.7,0.5-1.1c0-0.4-0.2-0.8-0.5-1.1c-0.3-0.3-0.7-0.5-1.1-0.5s-0.8,0.2-1.1,0.5
		S510.5,317,510.5,317.4z"/>
	<path class="st2" d="M527,309.8v-3.6c0.7-0.1,1.3-0.2,2-0.4c0.6-0.1,1.3-0.2,2-0.4v-14.2h3.6v13.5c1.2-0.2,2.3-0.4,3.5-0.6
		c1.2-0.2,2.3-0.4,3.5-0.6v3.6l-7,1.3v16.3c0,0.9,0.1,1.6,0.3,2.3c0.2,0.6,0.5,1.2,0.8,1.7c0.3,0.5,0.7,0.8,1.1,1.1
		c0.4,0.3,0.8,0.5,1.3,0.7c1,0.4,2.2,0.5,3.5,0.4v3.6c-2.6,0-4.7-0.3-6.1-1s-2.5-1.5-3.2-2.5c-0.7-1-1-2.1-1.1-3.2
		c-0.1-1.1-0.2-2.1-0.2-3v-15.7L527,309.8z"/>
	<path class="st2" d="M545.2,298c0-0.6,0.2-1.1,0.7-1.6c0.4-0.4,1-0.7,1.6-0.7c0.6,0,1.1,0.2,1.6,0.7c0.4,0.4,0.7,1,0.7,1.6
		s-0.2,1.1-0.7,1.6c-0.4,0.4-1,0.7-1.6,0.7c-0.6,0-1.1-0.2-1.6-0.7C545.4,299.2,545.2,298.6,545.2,298z M545.8,303.6h3.6v30.9h-3.6
		V303.6z"/>
	<path class="st2" d="M552.7,309.8v-3.6c0.7-0.1,1.3-0.2,2-0.4s1.3-0.2,2-0.4v-14.2h3.6v13.5c1.2-0.2,2.3-0.4,3.5-0.6
		c1.2-0.2,2.3-0.4,3.5-0.6v3.6l-7,1.3v16.3c0,0.9,0.1,1.6,0.3,2.3s0.5,1.2,0.8,1.7c0.3,0.5,0.7,0.8,1.1,1.1c0.4,0.3,0.8,0.5,1.3,0.7
		c1,0.4,2.2,0.5,3.5,0.4v3.6c-2.6,0-4.7-0.3-6.1-1s-2.5-1.5-3.2-2.5c-0.7-1-1-2.1-1.1-3.2c-0.1-1.1-0.2-2.1-0.2-3v-15.7L552.7,309.8
		z"/>
	<path class="st2" d="M594.4,303.6v15.2v15.7c0,2.1-0.4,3.9-1.2,5.3c-0.8,1.4-1.8,2.5-3.1,3.4s-2.8,1.4-4.4,1.8
		c-1.6,0.4-3.3,0.6-5.1,0.6s-3.5-0.1-5.2-0.4s-3.2-0.6-4.6-1v-3.4c2.6,0.9,5,1.4,7.4,1.4s4.5-0.2,6.4-0.9c1.9-0.6,3.3-1.5,4.5-2.7
		c1.1-1.2,1.7-2.6,1.7-4.2v-3.4c-0.9,1.1-2.1,1.9-3.4,2.6c-1.3,0.7-2.9,1-4.8,1c-2.1,0-4-0.4-5.4-1.3c-1.5-0.8-2.7-2-3.6-3.4
		c-0.9-1.4-1.6-3.1-2.1-5c-0.4-1.9-0.6-3.9-0.6-6.1v-15.4h3.6V319c0,1.6,0.1,3.2,0.4,4.6c0.3,1.5,0.7,2.8,1.3,3.9
		c0.6,1.1,1.4,2,2.5,2.7c1,0.7,2.4,1,4,1s2.9-0.3,4-1c1-0.7,1.9-1.6,2.5-2.7c0.6-1.1,1.1-2.4,1.3-3.9c0.3-1.5,0.4-3,0.4-4.6v-15.4
		H594.4z M578.9,319.1c0,1,0.4,1.9,1.1,2.6s1.6,1.1,2.6,1.1s1.9-0.4,2.6-1.1s1.1-1.6,1.1-2.6c0-1-0.4-1.9-1.1-2.6
		c-0.7-0.7-1.6-1.1-2.6-1.1s-1.9,0.4-2.6,1.1C579.3,317.2,578.9,318.1,578.9,319.1z M581.2,319c0-0.4,0.2-0.8,0.5-1.1
		s0.7-0.5,1.1-0.5c0.4,0,0.8,0.2,1.1,0.5s0.5,0.7,0.5,1.1c0,0.4-0.2,0.8-0.5,1.1s-0.7,0.5-1.1,0.5c-0.4,0-0.8-0.2-1.1-0.5
		S581.2,319.5,581.2,319z"/>
</g>
</svg>
