<?xml version="1.0" encoding="utf-8"?>
<!-- Generator: Adobe Illustrator 22.1.0, SVG Export Plug-In . SVG Version: 6.00 Build 0)  -->
<svg version="1.1" id="Layer_1" xmlns="http://www.w3.org/2000/svg" xmlns:xlink="http://www.w3.org/1999/xlink" x="0px" y="0px"
	 viewBox="0 0 720 540" style="enable-background:new 0 0 720 540;" xml:space="preserve">
<style type="text/css">
	.st0{fill:none;stroke:#2E3092;stroke-width:0.508;stroke-miterlimit:10;}
	.st1{clip-path:url(#SVGID_2_);}
	.st2{clip-path:url(#SVGID_4_);}
</style>
<line class="st0" x1="31.5" y1="427.1" x2="689.2" y2="427.1"/>
<line class="st0" x1="32.2" y1="152" x2="689.2" y2="152"/>
<line class="st0" x1="31.8" y1="528" x2="689.2" y2="528"/>
<line class="st0" x1="32.1" y1="10.5" x2="689.3" y2="10.5"/>
<g>
	<g>
		<defs>
			<rect id="SVGID_1_" x="21" y="0" width="678.8" height="538.5"/>
		</defs>
		<clipPath id="SVGID_2_">
			<use xlink:href="#SVGID_1_"  style="overflow:visible;"/>
		</clipPath>
		<path class="st1" d="M193.3,218.1c0,18.4,15.2,33.5,33.5,33.5c18.4,0,33.5-15.2,33.5-33.5s-15.2-33.5-33.5-33.5
			C208.4,184.5,193.3,199.7,193.3,218.1 M213.6,217.7c0-7.6,6.4-14,14-14s14,6.4,14,14s-6.4,14-14,14
			C220,231.6,213.6,225.2,213.6,217.7 M84.8,288.3c0,77.4,65,143.6,142.4,143.6s142.4-66.2,142.4-143.6V148.6
			C369.6,71.2,304.6,5,227.2,5S84.8,71.2,84.8,148.6V288.3z M117.5,148.6c0-58.2,51.5-113.7,109.7-113.7s109.7,55.5,109.7,113.7
			v139.6c0,58.2-51.5,111.7-109.7,111.7s-109.7-53.5-109.7-111.7V148.6z"/>
	</g>
	<g>
		<defs>
			<rect id="SVGID_3_" x="21" y="0" width="678.8" height="538.5"/>
		</defs>
		<clipPath id="SVGID_4_">
			<use xlink:href="#SVGID_3_"  style="overflow:visible;"/>
		</clipPath>
		<path class="st2" d="M626.5,236.1v-32.5h-61.8c-57.9,0-109-24.2-109-82.1s51.2-79.3,109-79.3h69.8V10.5h-69.8
			c-76.9,0-141.5,34.1-141.5,111c0,48.8,25.8,80.5,64.2,97.5c-38.8,16.6-64.6,48.4-64.6,97.1c0,76.9,64.6,111,141.5,111h70.2V397
			h-70.2c-57.9,0-109-23-109-80.9s51.1-80.5,109-80.5L626.5,236.1z"/>
	</g>
</g>
</svg>
