<?xml version="1.0" encoding="utf-8"?>
<!-- Generator: Adobe Illustrator 22.1.0, SVG Export Plug-In . SVG Version: 6.00 Build 0)  -->
<svg version="1.1" id="Layer_1" xmlns="http://www.w3.org/2000/svg" xmlns:xlink="http://www.w3.org/1999/xlink" x="0px" y="0px"
	 viewBox="0 0 813 1170.2" style="enable-background:new 0 0 813 1170.2;" xml:space="preserve">
<style type="text/css">
	.st0{fill:#ED1C24;}
	.st1{clip-path:url(#SVGID_2_);}
</style>
<rect class="st0" width="813.5" height="1169.6"/>
<g>
	<path d="M49.6,102.8c0-1,0.3-1.9,1-2.6s1.6-1.1,2.6-1.1s1.9,0.4,2.6,1.1c0.7,0.7,1.1,1.6,1.1,2.6s-0.4,1.9-1.1,2.6
		c-0.7,0.7-1.6,1-2.6,1s-1.9-0.3-2.6-1C50,104.7,49.6,103.8,49.6,102.8z M56.5,41.5c0.1,13.3,0.2,23.3,0.2,30s0,10.1,0,10.4
		c0,1-0.3,1.9-0.9,2.6c-0.6,0.7-1.4,1.1-2.4,1.1s-1.9-0.4-2.5-1.1S50,82.9,50,81.9c0-0.2,0-3.6,0-10.2c0-6.7,0-16.7,0-30.1h6.5V41.5
		z"/>
	<path d="M137.2,117.6l2-15.2h-6.4v-4.6h7.1l1.5-11.3h-6.7v-4.6h7.4l2-14.8h4.5l-1.9,14.8h8.1l2-14.8h4.6l-1.9,14.8h6.4v4.6h-7.1
		l-1.4,11.3h6.7v4.6h-7.4l-2,15.2H150l2-15.2h-8.1l-2,15.2H137.2z M152.6,97.8l1.5-11.3H146l-1.5,11.3H152.6z"/>
	<path d="M218.6,124.2v-7.8c-4.5-0.1-9.2-1.5-11.9-3.4l1.9-5.2c2.8,1.9,6.8,3.3,11.2,3.3c5.5,0,9.2-3.2,9.2-7.6c0-4.3-3-6.9-8.8-9.2
		c-7.9-3.1-12.8-6.7-12.8-13.4c0-6.4,4.6-11.3,11.7-12.5v-7.8h4.8v7.5c4.7,0.2,7.8,1.4,10.1,2.7l-1.9,5.1c-1.6-0.9-4.8-2.6-9.8-2.6
		c-6,0-8.2,3.6-8.2,6.7c0,4,2.9,6.1,9.6,8.8c8,3.3,12,7.3,12,14.2c0,6.1-4.3,11.9-12.3,13.2v8.1L218.6,124.2L218.6,124.2z"/>
	<path d="M313.2,117.6c-1.5-1.5-2.9-2.9-4.9-5.1c-4.5,4.2-9.5,6-15.3,6c-10.2,0-16.1-6.8-16.1-14.7c0-7.1,4.3-12,10.2-15.3v-0.2
		c-2.7-3.4-4.3-7.2-4.3-10.9c0-6.4,4.6-12.9,13.3-12.9c6.5,0,11.6,4.3,11.6,11.1c0,5.5-3.2,9.9-11.5,14v0.2
		c4.4,5.1,9.4,10.9,12.7,14.6c2.4-3.6,4-8.7,5-15.3h6.2c-1.4,8.2-3.6,14.7-7.5,19.3c2.8,2.9,5.5,5.9,8.6,9.2
		C321.2,117.6,313.2,117.6,313.2,117.6z M305,108.6c-3.1-3.4-8.9-9.8-14.7-16.4c-2.8,1.8-6.8,5.1-6.8,10.6c0,6,4.4,10.6,10.7,10.6
		C298.7,113.3,302.5,111.3,305,108.6z M289.1,76.7c0,3.7,1.7,6.6,4,9.4c5.3-3,8.7-5.8,8.7-10.2c0-3.2-1.8-6.7-6.1-6.7
		C291.4,69.1,289.1,72.6,289.1,76.7z"/>
	<path d="M400,117.6c-3.8,0-7.3-0.7-10.7-2.1c-3.4-1.4-6.3-3.4-8.8-5.8c-2.5-2.5-4.5-5.3-6-8.6c-1.5-3.3-2.2-6.9-2.2-10.6V63.3
		c0-3.8,0.7-7.3,2.2-10.6c1.5-3.3,3.5-6.2,6-8.6c2.5-2.5,5.4-4.4,8.8-5.8c3.4-1.4,6.9-2.1,10.7-2.1c-2.8,1.5-5.5,3.2-8.1,5.2
		c-2.6,1.9-4.8,4.1-6.8,6.4c-2,2.3-3.5,4.8-4.7,7.4c-1.2,2.6-1.7,5.3-1.7,8.2v27.1c0,2.8,0.6,5.6,1.7,8.2c1.2,2.6,2.7,5.1,4.7,7.4
		s4.2,4.5,6.8,6.4C394.5,114.4,397.2,116.1,400,117.6z"/>
	<path d="M470.9,117.6c2.8-1.4,5.5-3.2,8.1-5.1c2.6-2,4.8-4.1,6.8-6.4s3.5-4.8,4.7-7.4s1.7-5.4,1.7-8.2V63.3c0-2.8-0.6-5.6-1.7-8.2
		c-1.2-2.6-2.7-5.1-4.7-7.4s-4.2-4.5-6.8-6.4c-2.6-1.9-5.3-3.7-8.1-5.2c3.8,0,7.3,0.7,10.7,2.1c3.3,1.4,6.3,3.4,8.8,5.8
		c2.5,2.5,4.5,5.3,6,8.6s2.2,6.8,2.2,10.6v27.1c0,3.8-0.7,7.3-2.2,10.6c-1.5,3.3-3.5,6.2-6,8.6c-2.5,2.5-5.5,4.4-8.8,5.8
		C478.2,116.8,474.7,117.6,470.9,117.6z"/>
	<path d="M567.1,81.6v-5.8H598v5.8H567.1z M579.5,63.3h5.8v30.9h-5.8V63.3z"/>
	<path d="M648.6,113.7c0-1,0.3-1.9,1-2.6s1.6-1.1,2.6-1.1s1.9,0.4,2.6,1.1c0.7,0.7,1.1,1.6,1.1,2.6c0,2.9-0.7,5.5-2.2,7.7
		s-3.2,4-5.3,5.4c0.3-0.8,0.4-1.7,0.5-2.7s0.1-2.1,0-3.2c0-1.1-0.1-2.3-0.2-3.5C648.7,116.1,648.6,114.9,648.6,113.7L648.6,113.7z"
		/>
</g>
<g>
	<path d="M32.5,228.7c0-1,0.3-1.9,1-2.6c0.7-0.7,1.6-1.1,2.6-1.1s1.9,0.4,2.6,1.1c0.7,0.7,1.1,1.6,1.1,2.6s-0.4,1.9-1.1,2.6
		c-0.7,0.7-1.6,1-2.6,1s-1.9-0.3-2.6-1C32.9,230.6,32.5,229.7,32.5,228.7z"/>
	<path d="M151.9,229.5l19.8-75.2h6.5l-19.6,75.4L151.9,229.5z"/>
	<path d="M247.1,235.7L226,179.4h5.3l21.1,56.2h-5.3V235.7z"/>
	<path d="M297.2,229.5c0-1.3,0.4-2.1,1.3-2.4c0.9-0.3,1.9-0.5,3.1-0.5h29.5c1.1,0,2.1,0.2,3.1,0.5s1.4,1.1,1.4,2.4
		c0,1.1-0.4,1.9-1.1,2.3c-0.7,0.4-1.7,0.6-2.9,0.6H301c-1.1,0-2-0.2-2.7-0.7C297.5,231.3,297.2,230.6,297.2,229.5z"/>
	<path d="M381.7,182.2c0-1,0.3-1.9,1-2.6c0.7-0.7,1.6-1.1,2.6-1.1s1.9,0.4,2.6,1.1c0.7,0.7,1.1,1.6,1.1,2.6s-0.4,1.9-1.1,2.6
		c-0.7,0.7-1.6,1-2.6,1s-1.9-0.3-2.6-1C382.1,184.1,381.7,183.2,381.7,182.2z M381.7,208.5c0-1,0.3-1.9,1-2.6
		c0.7-0.7,1.6-1.1,2.6-1.1s1.9,0.4,2.6,1.1c0.7,0.7,1.1,1.6,1.1,2.6s-0.4,1.9-1.1,2.6c-0.7,0.7-1.6,1-2.6,1s-1.9-0.3-2.6-1
		C382.1,210.4,381.7,209.6,381.7,208.5z"/>
	<path d="M478.5,208.5c0-1,0.3-1.9,1-2.6c0.7-0.7,1.6-1.1,2.6-1.1s1.9,0.4,2.6,1.1c0.7,0.7,1.1,1.6,1.1,2.6c0,2.9-0.7,5.5-2.2,7.7
		s-3.2,4-5.3,5.4c0.3-0.8,0.4-1.7,0.5-2.7s0.1-2.1,0-3.2c0-1.1-0.1-2.3-0.2-3.5C478.6,211,478.6,209.8,478.5,208.5L478.5,208.5z
		 M478.5,182.2c0-1,0.3-1.9,1-2.6c0.7-0.7,1.6-1.1,2.6-1.1s1.9,0.4,2.6,1.1c0.7,0.7,1.1,1.6,1.1,2.6s-0.4,1.9-1.1,2.6
		c-0.7,0.7-1.6,1-2.6,1s-1.9-0.3-2.6-1C478.9,184.1,478.5,183.2,478.5,182.2z"/>
	<path d="M587.5,193.7c0-1.3,0.4-2.1,1.3-2.4c0.9-0.3,1.9-0.5,3.1-0.5h29.5c1.1,0,2.1,0.2,3.1,0.5s1.4,1.1,1.4,2.4
		c0,1.1-0.4,1.9-1.1,2.3c-0.7,0.4-1.7,0.6-2.9,0.6h-30.6c-1.1,0-2-0.2-2.7-0.7C587.8,195.5,587.5,194.8,587.5,193.7z M587.5,206.9
		c0-1.3,0.4-2.1,1.3-2.4c0.9-0.3,1.9-0.5,3.1-0.5h29.5c1.1,0,2.1,0.2,3.1,0.5s1.4,1.1,1.4,2.4c0,1.1-0.4,1.9-1.1,2.3
		c-0.7,0.4-1.7,0.6-2.9,0.6h-30.6c-1.1,0-2-0.2-2.7-0.7C587.8,208.7,587.5,207.9,587.5,206.9z"/>
	<path d="M702.9,193.5c0-1.2,0.4-2.4,1.2-3.3c0.8-1,1.8-1.9,2.9-2.8c1.2-0.9,2.5-1.8,3.8-2.6c1.4-0.9,2.6-1.9,3.8-2.9
		c1.2-1.1,2.2-2.3,2.9-3.7c0.8-1.4,1.2-3,1.2-4.9c0-5.6-1.2-9.6-3.7-12s-6.5-3.6-12.2-3.6c-2.8,0-5.3,0.3-7.3,0.9
		c-2,0.6-3.7,1.5-4.9,2.7c-1.3,1.2-2.2,2.8-2.8,4.8s-0.9,4.4-0.9,7.2H681c0-7.5,1.7-13.1,5.2-16.6s9-5.3,16.6-5.3s13.1,1.8,16.5,5.3
		c3.5,3.5,5.2,9.1,5.2,16.6c0,2.5-0.4,4.6-1.1,6.5c-0.7,1.8-1.7,3.4-2.8,4.7s-2.4,2.5-3.6,3.4c-1.3,1-2.5,1.8-3.6,2.6
		c-1.1,0.7-2.1,1.5-2.8,2.1c-0.7,0.7-1.1,1.4-1.1,2.1c0,1.8,0,3.5,0,5.2s0,3.2,0,4.5s0,2.5,0,3.4s0,1.6,0,1.9
		c-0.1,0.9-0.5,1.6-1,2.2c-0.6,0.6-1.3,0.9-2.2,0.9s-1.7-0.3-2.3-0.9c-0.6-0.6-1-1.3-1.1-2.2c0-0.2,0-0.8,0-2s0-2.6,0-4.2
		c0-1.6,0-3.3,0-5.1S702.9,194.9,702.9,193.5z M702.7,221.8c0-1,0.3-1.9,1-2.6c0.7-0.7,1.6-1.1,2.6-1.1s1.9,0.4,2.6,1.1
		c0.7,0.7,1.1,1.6,1.1,2.6s-0.4,1.9-1.1,2.6c-0.7,0.7-1.6,1-2.6,1s-1.9-0.3-2.6-1S702.7,222.8,702.7,221.8z M709.6,209.2
		c0,0.1,0,0.2,0,0.4s0,0.3,0,0.4s0,0.1,0,0.1c0-0.1,0-0.3,0-0.6c0-0.1,0-0.1,0-0.1C709.5,209.4,709.6,209.3,709.6,209.2z"/>
</g>
<g>
	<path d="M59.3,257.9c3.8,0,7.3,0.4,10.6,1.3s6.2,2.2,8.6,4c2.5,1.8,4.4,4.1,5.8,6.8c1.4,2.7,2.1,6,2.1,9.8v37.5
		c0,3.8-0.7,7-2.1,9.8c-1.4,2.7-3.4,5-5.8,6.8c-2.5,1.8-5.3,3.2-8.6,4c-3.3,0.9-6.8,1.3-10.6,1.3s-7.3-0.4-10.6-1.3s-6.2-2.2-8.6-4
		c-2.5-1.8-4.4-4.1-5.8-6.8c-1.4-2.7-2.1-6-2.1-9.8v-37.5c0-3.8,0.7-7,2.1-9.8c1.4-2.7,3.4-5,5.8-6.8c2.5-1.8,5.3-3.2,8.6-4
		C52,258.4,55.5,257.9,59.3,257.9z M80.6,279.9c0-2.8-0.6-5.2-1.7-7.2c-1.2-2-2.7-3.6-4.7-4.8c-2-1.2-4.2-2.1-6.8-2.7
		c-2.6-0.6-5.3-0.9-8.1-0.9s-5.5,0.3-8.1,0.9s-4.8,1.5-6.8,2.7s-3.5,2.8-4.7,4.8s-1.7,4.4-1.7,7.2v37.5c0,2.8,0.6,5.2,1.7,7.2
		c1.2,2,2.7,3.6,4.7,4.8c2,1.2,4.2,2.1,6.8,2.7s5.3,0.9,8.1,0.9s5.5-0.3,8.1-0.9s4.8-1.5,6.8-2.7s3.5-2.8,4.7-4.8s1.7-4.4,1.7-7.2
		V279.9z"/>
	<path d="M155.6,279.9c0-2.8-0.6-5.2-1.7-7.2c-1.2-2-2.7-3.6-4.7-4.8c-2-1.2-4.2-2.1-6.8-2.7s-5.3-0.9-8.1-0.9h-27.1v-6.4h27.1
		c3.8,0,7.3,0.4,10.6,1.3s6.2,2.2,8.6,4c2.5,1.8,4.4,4.1,5.8,6.8c1.4,2.7,2.1,6,2.1,9.8v59.5h-5.8L155.6,279.9L155.6,279.9z"/>
	<path d="M236.4,279.9c0,2.8-0.7,5.2-2.1,7.2c-1.4,2-3.2,3.7-5.5,5.2s-4.9,2.8-7.8,3.8c-2.9,1.1-5.9,2.1-8.9,3.1s-6,2-8.9,3.1
		c-2.9,1-5.5,2.2-7.8,3.6s-4.1,3-5.5,4.8c-1.4,1.9-2.1,4.1-2.1,6.7c0,2.8,0.6,5.2,1.7,7.2c1.2,2,2.7,3.6,4.7,4.8
		c2,1.2,4.2,2.1,6.8,2.7s5.3,0.9,8.1,0.9h27.1v6.4h-27.1c-3.8,0-7.3-0.4-10.6-1.3s-6.2-2.2-8.6-4c-2.5-1.8-4.4-4.1-5.8-6.8
		c-1.4-2.7-2.1-6-2.1-9.8c0-3.4,0.7-6.3,2.1-8.8c1.4-2.4,3.2-4.5,5.5-6.2c2.2-1.7,4.8-3.2,7.7-4.4c2.9-1.2,5.9-2.3,8.9-3.3
		s6-1.9,8.9-2.8s5.5-1.9,7.8-2.9c2.2-1.1,4.1-2.3,5.5-3.8c1.4-1.4,2.1-3.2,2.1-5.3c0-2.8-0.6-5.2-1.8-7.1c-1.2-2-2.8-3.6-4.7-4.8
		c-1.9-1.2-4.2-2.1-6.8-2.7s-5.3-0.9-8.1-0.9H182V258h27.1c3.7,0,7.2,0.4,10.5,1.3s6.2,2.2,8.6,4c2.4,1.8,4.4,4.1,5.8,6.8
		C235.7,272.9,236.4,276.2,236.4,279.9z"/>
	<path d="M305.6,280c0-2.8-0.6-5.2-1.7-7.2c-1.2-2-2.7-3.6-4.7-4.8c-2-1.2-4.2-2.1-6.8-2.7c-2.6-0.6-5.3-0.9-8.1-0.9h-27.1V258h27.1
		c3.8,0,7.3,0.4,10.6,1.3c3.3,0.9,6.2,2.2,8.6,4c2.5,1.8,4.4,4.1,5.8,6.8c1.4,2.7,2.1,6,2.1,9.8c-0.1,4.7-1.1,8.5-3.2,11.6
		s-4.8,5.4-8.3,7.1c3.5,1.7,6.2,4.1,8.3,7.2c2.1,3.1,3.1,6.9,3.1,11.5c0,3.8-0.7,7-2.1,9.8c-1.4,2.7-3.4,5-5.8,6.8
		c-2.5,1.8-5.3,3.2-8.6,4c-3.3,0.9-6.8,1.3-10.6,1.3h-27.1v-6.4h27.1c2.8,0,5.5-0.3,8.1-0.9s4.8-1.5,6.8-2.7s3.5-2.8,4.7-4.8
		s1.7-4.4,1.7-7.2c0-2.7-0.6-5.1-1.7-7s-2.6-3.5-4.5-4.8c-1.9-1.2-4-2.2-6.5-2.8c-2.5-0.6-5.1-0.9-7.8-1h-28v-6.4h28
		c2.7-0.1,5.3-0.4,7.8-0.9c2.5-0.6,4.7-1.5,6.5-2.7c1.9-1.2,3.4-2.8,4.5-4.8C305.1,285.1,305.6,282.7,305.6,280z"/>
	<path d="M359.3,295.4h21.3v-37.5h5.8v37.5h10.2v6.4h-10.2v37.5h-5.8v-37.5h-21.3c-3.8,0-7.3-0.4-10.6-1.3c-3.3-0.9-6.2-2.2-8.6-4
		c-2.5-1.8-4.4-4.1-5.8-6.8c-1.4-2.7-2.1-6-2.1-9.8V258h5.8v21.9c0,2.8,0.6,5.2,1.7,7.2c1.2,2,2.7,3.6,4.7,4.8
		c2,1.2,4.2,2.1,6.8,2.7C353.8,295.1,356.5,295.4,359.3,295.4z"/>
	<path d="M417.5,258h54.4v5.8h-48.6v31.7h21.3c3.7,0,7.2,0.4,10.5,1.3s6.2,2.2,8.6,4s4.4,4.1,5.8,6.8c1.4,2.7,2.1,6,2.1,9.7
		c0,3.8-0.7,7-2.1,9.8c-1.4,2.7-3.4,5-5.8,6.8c-2.5,1.8-5.3,3.2-8.6,4c-3.3,0.9-6.8,1.3-10.6,1.3c-3.8,0-7.3-0.4-10.6-1.3
		c-3.3-0.9-6.2-2.2-8.6-4c-2.5-1.8-4.4-4.1-5.8-6.8c-1.4-2.7-2.1-6-2.1-9.8h5.8c0,2.8,0.6,5.2,1.7,7.2c1.2,2,2.7,3.6,4.7,4.8
		c2,1.2,4.2,2.1,6.8,2.7c2.6,0.6,5.3,0.9,8.1,0.9c2.8,0,5.5-0.3,8.1-0.9s4.8-1.5,6.8-2.7s3.5-2.8,4.7-4.8s1.7-4.4,1.7-7.2
		c0-2.8-0.6-5.2-1.7-7.2c-1.2-2-2.7-3.6-4.7-4.8c-2-1.2-4.2-2.1-6.8-2.7c-2.6-0.5-5.3-0.8-8.1-0.8h-27.1V258H417.5z"/>
	<path d="M546.8,317.4c0,3.8-0.7,7-2.1,9.8c-1.4,2.7-3.4,5-5.8,6.8c-2.5,1.8-5.3,3.2-8.6,4c-3.3,0.9-6.8,1.3-10.6,1.3
		s-7.3-0.4-10.6-1.3c-3.3-0.9-6.2-2.2-8.6-4c-2.5-1.8-4.4-4.1-5.8-6.8c-1.4-2.7-2.1-6-2.1-9.8v-37.5c0-3.8,0.7-7,2.1-9.8
		c1.4-2.7,3.4-5,5.8-6.8c2.5-1.8,5.3-3.2,8.6-4c3.3-0.9,6.8-1.3,10.6-1.3s7.3,0.4,10.6,1.3s6.2,2.2,8.6,4c2.5,1.8,4.4,4.1,5.8,6.8
		c1.4,2.7,2.1,6,2.1,9.8H541c0-2.8-0.6-5.2-1.7-7.2c-1.2-2-2.7-3.6-4.7-4.8c-2-1.2-4.2-2.1-6.8-2.7s-5.3-0.9-8.1-0.9
		s-5.5,0.3-8.1,0.9s-4.8,1.5-6.8,2.7s-3.5,2.8-4.7,4.8s-1.7,4.4-1.7,7.2v22.7c2.5-2.4,5.6-4.2,9.2-5.4c3.7-1.1,7.7-1.7,12.1-1.7
		c3.8,0,7.3,0.4,10.6,1.3s6.2,2.2,8.6,4c2.5,1.8,4.4,4,5.8,6.8C546.1,310.4,546.8,313.7,546.8,317.4z M498.4,317.4
		c0,2.8,0.6,5.2,1.7,7.2c1.2,2,2.7,3.6,4.7,4.8c2,1.2,4.2,2.1,6.8,2.7c2.6,0.6,5.3,0.9,8.1,0.9s5.5-0.3,8.1-0.9s4.8-1.5,6.8-2.7
		s3.5-2.8,4.7-4.8s1.7-4.4,1.7-7.2c0-2.8-0.6-5.2-1.7-7.2c-1.2-2-2.7-3.6-4.7-4.8c-2-1.2-4.2-2.1-6.8-2.7c-2.6-0.5-5.3-0.8-8.1-0.8
		s-5.5,0.3-8.1,0.8s-4.8,1.4-6.8,2.7c-2,1.2-3.5,2.8-4.7,4.8C498.9,312.2,498.4,314.6,498.4,317.4z"/>
	<path d="M616,279.9c0-2.8-0.6-5.2-1.8-7.1c-1.2-2-2.8-3.6-4.7-4.8c-1.9-1.2-4.2-2.1-6.8-2.7s-5.3-0.9-8.1-0.9h-27.1V258h27.1
		c3.7,0,7.2,0.4,10.5,1.3s6.2,2.2,8.6,4c2.4,1.8,4.4,4.1,5.8,6.8c1.4,2.8,2.2,6,2.2,9.7c0,2.8-0.7,5.5-2.1,8.1
		c-1.4,2.6-3.2,5.2-5.5,7.7s-4.9,4.9-7.8,7.3c-2.9,2.4-5.9,4.8-8.9,7.1c-3,2.4-6,4.7-8.9,7.1s-5.5,4.7-7.8,7.1s-4.1,4.8-5.5,7.3
		s-2.1,5-2.1,7.6h-5.8c0-3.4,0.7-6.6,2.1-9.7c1.4-3,3.2-6,5.5-8.7c2.2-2.8,4.8-5.4,7.7-8c2.9-2.5,5.9-5,8.9-7.3s6-4.6,8.9-6.8
		c2.9-2.2,5.5-4.4,7.8-6.5c2.2-2.1,4.1-4.2,5.5-6.2C615.3,284.1,616,282,616,279.9z"/>
	<path d="M696.8,317.3c0,3.8-0.7,7-2.1,9.8c-1.4,2.7-3.4,5-5.8,6.8c-2.5,1.8-5.3,3.2-8.6,4c-3.3,0.9-6.8,1.3-10.6,1.3
		s-7.3-0.4-10.6-1.3s-6.2-2.2-8.6-4c-2.5-1.8-4.4-4.1-5.8-6.8c-1.4-2.7-2.1-6-2.1-9.8c0-4.6,1-8.4,3.1-11.5s4.9-5.5,8.4-7.2
		c-3.5-1.7-6.3-4.1-8.4-7.2c-2.1-3.1-3.1-6.9-3.1-11.6c0-3.8,0.7-7,2.1-9.8c1.4-2.7,3.4-5,5.8-6.8c2.5-1.8,5.3-3.2,8.6-4
		c3.3-0.9,6.8-1.3,10.6-1.3s7.3,0.4,10.6,1.3s6.2,2.2,8.6,4c2.5,1.8,4.4,4.1,5.8,6.8c1.4,2.7,2.1,6,2.1,9.8c0,4.7-1,8.5-3.1,11.6
		s-4.9,5.5-8.3,7.2c3.5,1.7,6.2,4.1,8.3,7.2S696.8,312.7,696.8,317.3z M648.4,279.9c0,2.8,0.6,5.2,1.7,7.1c1.1,1.9,2.6,3.5,4.5,4.8
		c1.9,1.2,4.2,2.2,6.8,2.8c2.6,0.6,5.4,0.9,8.3,1c2.9-0.1,5.7-0.4,8.3-1s4.8-1.5,6.8-2.8c1.9-1.2,3.5-2.8,4.6-4.8
		c1.1-1.9,1.7-4.3,1.7-7.1c0-2.8-0.6-5.2-1.7-7.2c-1.2-2-2.7-3.6-4.7-4.8c-2-1.2-4.2-2.1-6.8-2.7s-5.3-0.9-8.1-0.9s-5.5,0.3-8.1,0.9
		s-4.8,1.5-6.8,2.7s-3.5,2.8-4.7,4.8C648.9,274.6,648.4,277,648.4,279.9z M648.4,317.3c0,2.8,0.6,5.2,1.7,7.2c1.2,2,2.7,3.6,4.7,4.8
		c2,1.2,4.2,2.1,6.8,2.7s5.3,0.9,8.1,0.9s5.5-0.3,8.1-0.9s4.8-1.5,6.8-2.7s3.5-2.8,4.7-4.8s1.7-4.4,1.7-7.2c0-2.8-0.6-5.2-1.7-7.2
		s-2.7-3.6-4.7-4.8c-2-1.2-4.2-2.1-6.8-2.7c-2.6-0.5-5.3-0.8-8.1-0.8s-5.5,0.3-8.1,0.8s-4.8,1.4-6.8,2.7c-2,1.2-3.5,2.8-4.7,4.8
		C648.9,312.1,648.4,314.5,648.4,317.3z"/>
	<path d="M717.5,280c0-3.8,0.7-7,2.1-9.8c1.4-2.7,3.4-5,5.8-6.8c2.5-1.8,5.3-3.2,8.6-4c3.3-0.9,6.8-1.3,10.6-1.3s7.3,0.4,10.6,1.3
		s6.2,2.2,8.6,4c2.5,1.8,4.4,4.1,5.8,6.8c1.4,2.7,2.1,6,2.1,9.8v37.4c0,3.8-0.7,7-2.1,9.8c-1.4,2.7-3.4,5-5.8,6.8
		c-2.5,1.8-5.3,3.2-8.6,4c-3.3,0.9-6.8,1.3-10.6,1.3h-27.1v-6.4h27.1c2.8,0,5.5-0.3,8.1-0.9s4.8-1.5,6.7-2.7s3.5-2.8,4.7-4.8
		s1.7-4.4,1.7-7.2v-22.6c-2.5,2.4-5.6,4.2-9.2,5.4c-3.7,1.1-7.7,1.7-12.1,1.7c-3.8,0-7.3-0.4-10.6-1.3s-6.2-2.2-8.6-4
		c-2.5-1.8-4.4-4-5.8-6.8C718.3,287,717.5,283.7,717.5,280z M766,280c0-2.8-0.6-5.2-1.7-7.2c-1.2-2-2.7-3.6-4.7-4.8
		c-2-1.2-4.2-2.1-6.8-2.7s-5.3-0.9-8.1-0.9s-5.5,0.3-8.1,0.9s-4.8,1.5-6.8,2.7s-3.5,2.8-4.7,4.8s-1.7,4.4-1.7,7.2s0.6,5.2,1.7,7.2
		c1.2,2,2.7,3.6,4.7,4.8c2,1.2,4.2,2.1,6.8,2.7c2.6,0.5,5.3,0.8,8.1,0.8c2.7,0,5.4-0.3,7.9-0.8s4.8-1.4,6.7-2.5
		c1.9-1.2,3.5-2.7,4.7-4.5c1.2-1.9,1.9-4.1,2-6.8L766,280L766,280z"/>
</g>
<g>
	<g>
		<defs>
			<rect id="SVGID_1_" x="21.5" y="1.9" width="792" height="1133.3"/>
		</defs>
		<clipPath id="SVGID_2_">
			<use xlink:href="#SVGID_1_"  style="overflow:visible;"/>
		</clipPath>
		<g class="st1">
			<path d="M67.6,364.8l21.3,81.4h-6.5L62.6,371c-2.7-0.3-5.2,0-7.4,0.9s-4.2,2.2-6,3.9c-1.8,1.7-3.3,3.8-4.6,6.2
				c-1.3,2.4-2.4,4.9-3.3,7.6c-0.9,2.6-1.5,5.3-2,8.1c-0.4,2.8-0.7,5.4-0.7,7.9l-0.1,40.6h-6.3v-40.6c0-2.5,0.2-5.2,0.7-8.2
				c0.4-3,1.1-6,2.1-9c0.9-3,2.1-5.9,3.6-8.8c1.4-2.8,3.2-5.4,5.2-7.5c2-2.2,4.4-3.9,7.1-5.3c2.7-1.3,5.6-2,9-2L67.6,364.8
				L67.6,364.8z M77.1,413c-2.4,1.9-5.1,3.4-8,4.5s-6,1.6-9.3,1.6c-2.7,0-5.3-0.4-7.8-1.1s-4.8-1.8-6.9-3.1c-2.1-1.3-4-2.9-5.8-4.8
				c-1.7-1.9-3.2-3.9-4.3-6.2l3.6-10.2c0.3,2.6,1,5.1,2.2,7.5s2.8,4.5,4.7,6.2c1.9,1.8,4.1,3.2,6.6,4.2s5,1.6,7.7,1.6
				c2.9,0,5.8-0.6,8.4-1.9c2.7-1.2,5-2.9,6.9-5L77.1,413z M49.1,392.1c0,1.8,0.6,3.3,1.9,4.6c1.3,1.3,2.8,1.9,4.6,1.9
				s3.3-0.6,4.6-1.9s1.9-2.8,1.9-4.6s-0.6-3.3-1.9-4.6c-1.3-1.3-2.8-1.9-4.6-1.9s-3.3,0.6-4.6,1.9S49.1,390.3,49.1,392.1z M53,392
				c0-0.7,0.3-1.4,0.8-1.9s1.2-0.8,1.9-0.8s1.4,0.3,1.9,0.8s0.8,1.2,0.8,1.9c0,0.7-0.3,1.4-0.8,1.9s-1.2,0.8-1.9,0.8
				s-1.4-0.3-1.9-0.8S53,392.7,53,392z"/>
			<path d="M135,364.8h55.4v5.8c0,2.6-0.4,5.2-1.1,7.6c-0.7,2.4-1.8,4.7-3.1,6.8c-1.3,2.1-3,4-4.8,5.6c-1.9,1.7-3.9,3.1-6.2,4.2
				c2.2,1.1,4.3,2.5,6.2,4.1c1.9,1.7,3.5,3.6,4.8,5.6c1.3,2.1,2.4,4.3,3.1,6.8c0.7,2.5,1.1,5,1.1,7.6c0,3.8-0.7,7.3-2.2,10.6
				c-1.5,3.3-3.5,6.2-6,8.6c-2.5,2.5-5.5,4.4-8.8,5.8s-6.9,2.1-10.7,2.1H135V364.8z M141.4,370.6v31.2c2.6-3,5.7-5.5,9.4-7.3
				s7.7-2.7,11.9-2.7c2.8,0,5.5-0.6,8.1-1.7c2.6-1.2,4.8-2.7,6.8-4.7c2-1.9,3.5-4.2,4.7-6.7c1.2-2.6,1.7-5.3,1.7-8.1L141.4,370.6
				L141.4,370.6z M162.7,397.7c-2.8,0-5.5,0.6-8.1,1.7c-2.6,1.2-4.8,2.7-6.8,4.7s-3.5,4.2-4.7,6.8c-1.2,2.6-1.7,5.3-1.7,8.1v21.4
				h21.3c2.8,0,5.5-0.6,8.1-1.7c2.6-1.2,4.8-2.7,6.8-4.7s3.5-4.2,4.7-6.8c1.2-2.6,1.7-5.3,1.7-8.1s-0.6-5.5-1.7-8.1
				c-1.2-2.6-2.7-4.8-4.7-6.8s-4.2-3.5-6.8-4.7S165.5,397.7,162.7,397.7z M156,419.2c0-1.8,0.6-3.3,1.9-4.6c1.3-1.3,2.8-1.9,4.6-1.9
				s3.3,0.6,4.6,1.9s1.9,2.8,1.9,4.6c0,1.8-0.6,3.3-1.9,4.6c-1.3,1.3-2.8,1.9-4.6,1.9s-3.3-0.6-4.6-1.9
				C156.7,422.5,156,421,156,419.2z M160,419.1c0,0.7,0.3,1.4,0.8,1.9s1.2,0.8,1.9,0.8s1.4-0.3,1.9-0.8s0.8-1.2,0.8-1.9
				c0-0.7-0.3-1.4-0.8-1.9s-1.2-0.8-1.9-0.8s-1.4,0.3-1.9,0.8C160.2,417.7,160,418.4,160,419.1z"/>
			<path d="M236.6,391.9c0-3.8,0.7-7.3,2.2-10.7c1.5-3.3,3.5-6.3,6-8.8s5.4-4.5,8.8-5.9c3.4-1.4,6.9-2.2,10.7-2.2s7.3,0.7,10.7,2.2
				c3.3,1.4,6.3,3.4,8.8,5.9s4.5,5.4,6,8.8c1.5,3.3,2.2,6.9,2.2,10.7h-6.4c0-2.8-0.6-5.5-1.7-8.1c-1.2-2.6-2.7-4.8-4.7-6.8
				s-4.2-3.5-6.8-4.7c-2.6-1.2-5.3-1.7-8.1-1.7c-2.8,0-5.5,0.6-8.1,1.7c-2.6,1.2-4.8,2.7-6.8,4.7s-3.5,4.2-4.7,6.8
				c-1.2,2.6-1.7,5.3-1.7,8.1v27.2c0,2.8,0.6,5.5,1.7,8.1c1.2,2.6,2.7,4.8,4.7,6.7c2,1.9,4.2,3.5,6.8,4.7s5.3,1.7,8.1,1.7
				c2.8,0,5.5-0.6,8.1-1.7c2.6-1.2,4.8-2.7,6.8-4.7c2-1.9,3.5-4.2,4.7-6.7c1.2-2.6,1.7-5.3,1.7-8.1h6.4c0,3.8-0.7,7.3-2.2,10.7
				c-1.5,3.3-3.5,6.2-6,8.7s-5.5,4.4-8.8,5.9c-3.3,1.4-6.9,2.2-10.7,2.2s-7.3-0.7-10.7-2.2c-3.4-1.4-6.3-3.4-8.8-5.9s-4.5-5.4-6-8.7
				c-1.5-3.3-2.2-6.9-2.2-10.7L236.6,391.9L236.6,391.9z M257.7,405.5c0,1.8,0.6,3.3,1.9,4.6c1.3,1.3,2.8,1.9,4.6,1.9
				c1.8,0,3.3-0.6,4.6-1.9c1.3-1.3,1.9-2.8,1.9-4.6c0-1.8-0.6-3.3-1.9-4.6c-1.3-1.3-2.8-1.9-4.6-1.9c-1.8,0-3.3,0.6-4.6,1.9
				C258.3,402.2,257.7,403.7,257.7,405.5z M261.7,405.4c0-0.7,0.3-1.4,0.8-1.9s1.2-0.8,1.9-0.8c0.7,0,1.4,0.3,1.9,0.8
				s0.8,1.2,0.8,1.9c0,0.7-0.3,1.4-0.8,1.9s-1.2,0.8-1.9,0.8c-0.7,0-1.4-0.3-1.9-0.8C261.9,406.8,261.7,406.2,261.7,405.4z"/>
			<path d="M338.4,446.2L338.4,446.2l-0.2-0.1v-81.4H366c3.8,0,7.3,0.7,10.7,2.1c3.3,1.4,6.3,3.4,8.8,5.8c2.5,2.5,4.5,5.3,6,8.6
				c1.5,3.3,2.2,6.8,2.2,10.6V419c0,3.8-0.7,7.3-2.2,10.6c-1.5,3.3-3.5,6.2-6,8.6c-2.5,2.5-5.5,4.4-8.8,5.8s-6.9,2.1-10.7,2.1h-27.6
				V446.2z M387.2,419v-27.1c0-2.8-0.6-5.5-1.7-8.1c-1.2-2.6-2.7-4.8-4.7-6.7c-2-1.9-4.2-3.5-6.8-4.7c-2.6-1.2-5.3-1.7-8.1-1.7
				h-21.3v69.6h21.3c2.8,0,5.5-0.6,8.1-1.7c2.6-1.2,4.8-2.7,6.8-4.7s3.5-4.2,4.7-6.8C386.6,424.6,387.2,421.9,387.2,419z
				 M358.4,405.5c0,1.8,0.6,3.3,1.9,4.6c1.3,1.3,2.8,1.9,4.6,1.9c1.8,0,3.3-0.6,4.6-1.9c1.3-1.3,1.9-2.8,1.9-4.6
				c0-1.8-0.6-3.3-1.9-4.6c-1.3-1.3-2.8-1.9-4.6-1.9c-1.8,0-3.3,0.6-4.6,1.9C359,402.2,358.4,403.7,358.4,405.5z M362.3,405.4
				c0-0.7,0.3-1.4,0.8-1.9s1.2-0.8,1.9-0.8c0.7,0,1.4,0.3,1.9,0.8s0.8,1.2,0.8,1.9c0,0.7-0.3,1.4-0.8,1.9s-1.2,0.8-1.9,0.8
				c-0.7,0-1.4-0.3-1.9-0.8C362.6,406.8,362.3,406.2,362.3,405.4z"/>
			<path d="M467.5,408.8c-2.8,0-5.5,0.3-8.1,0.9s-4.8,1.5-6.8,2.8s-3.5,2.9-4.7,4.9s-1.7,4.4-1.7,7.3c0,2.8,0.6,5.3,1.7,7.3
				c1.2,2,2.7,3.6,4.7,4.9s4.2,2.2,6.8,2.8c2.6,0.6,5.3,0.9,8.1,0.9h13.7v5.9h-13.7c-3.8,0-7.3-0.4-10.7-1.3c-3.4-0.9-6.3-2.2-8.8-4
				s-4.5-4-6-6.7s-2.2-6-2.2-9.7c0-4.8,1.2-8.8,3.5-11.9s5.4-5.5,9.2-7.1c-3.8-1.7-6.8-4-9.1-7.2c-2.3-3.1-3.5-7.1-3.5-11.9
				c0-3.8,0.7-7,2.2-9.7s3.5-5,6-6.7c2.5-1.8,5.4-3.1,8.8-4s6.9-1.3,10.7-1.3h13.7v6.2h-13.7c-2.8,0-5.5,0.3-8.1,0.8
				s-4.8,1.4-6.8,2.7c-2,1.2-3.5,2.8-4.7,4.8s-1.7,4.4-1.7,7.2c0,2.8,0.6,5.3,1.7,7.3c1.2,2,2.7,3.7,4.7,5s4.2,2.2,6.8,2.9
				c2.6,0.6,5.3,0.9,8.1,0.9h12.1v6.4L467.5,408.8z"/>
			<path d="M555.1,371.2c-2.8,0-5.5,0.3-8.1,0.8s-4.8,1.4-6.8,2.6s-3.5,2.8-4.7,4.7c-1.2,1.9-1.7,4.3-1.7,7.2c0,2.8,0.6,5.3,1.7,7.3
				c1.2,2,2.7,3.7,4.7,5s4.2,2.2,6.8,2.9c2.6,0.6,5.3,0.9,8.1,0.9h13.7v6.3h-13.7c-2.8,0-5.3-0.2-7.4-0.5c-2.1-0.3-4-0.8-5.6-1.4
				c-1.7-0.6-3.1-1.4-4.5-2.3c-1.3-0.9-2.6-2-3.9-3.1v44.8h-6.3v-59.8c0-4.2,0.9-7.7,2.7-10.5s4.1-5,6.9-6.6c2.8-1.7,5.8-2.8,9-3.5
				s6.3-1,9.1-1h13.7v6.3L555.1,371.2L555.1,371.2z"/>
			<path d="M639.4,402.5c2.2-0.2,4.4-0.3,6.8-0.2c2.4,0.1,4.7,0.3,7.1,0.7c2.3,0.4,4.5,1,6.6,1.7c2.1,0.8,3.9,1.8,5.5,3
				s2.9,2.7,3.8,4.5c0.9,1.8,1.4,3.8,1.4,6.2v27.8h-27.8c-3.8,0-7.3-0.7-10.7-2.1s-6.3-3.4-8.8-5.8c-2.5-2.5-4.5-5.3-6-8.6
				c-1.5-3.3-2.2-6.8-2.2-10.6V392c0-3.8,0.4-7.3,1.1-10.6c0.7-3.3,2.1-6.1,4.2-8.6c2-2.4,4.9-4.4,8.5-5.8s8.2-2.1,13.9-2.1
				c5.6,0,10.3,0.7,13.8,2.1c3.6,1.4,6.4,3.3,8.5,5.8c2,2.4,3.5,5.3,4.2,8.6c0.8,3.3,1.2,6.8,1.2,10.6h-6.4c0-2.8-0.3-5.5-0.8-8
				s-1.6-4.7-3.1-6.6c-1.6-1.9-3.7-3.4-6.5-4.5s-6.4-1.7-10.9-1.7c-4.8,0-8.6,0.6-11.5,1.7c-2.8,1.1-5,2.6-6.5,4.5s-2.4,4.1-2.8,6.6
				s-0.6,5.2-0.6,8v27.1c0,2.8,0.6,5.5,1.7,8.1c1.2,2.5,2.7,4.7,4.7,6.6s4.2,3.4,6.8,4.5s5.3,1.7,8.1,1.7h21.4v-21.6
				c0-1.8-0.7-3.4-2.1-4.7c-1.4-1.3-3.2-2.4-5.5-3.2c-2.3-0.8-4.9-1.4-7.9-1.7c-3-0.3-6.1-0.3-9.4-0.1v-6.2H639.4z"/>
			<path d="M716.9,364.8h6.4v37c1.3-1.5,2.6-2.9,4-4.1s2.9-2.3,4.7-3.1c1.7-0.9,3.6-1.5,5.7-2c2.1-0.5,4.4-0.7,7-0.7s4.9,0.2,7,0.7
				s4,1.1,5.7,2s3.3,1.9,4.7,3.1s2.7,2.6,4,4.1v-37h6.4v81.4h-6.4V419c0-2.8-0.6-5.5-1.9-8c-1.3-2.5-2.9-4.7-4.9-6.5
				c-2-1.9-4.3-3.3-6.8-4.4s-5.1-1.6-7.7-1.6s-5.1,0.5-7.7,1.6c-2.5,1.1-4.8,2.6-6.8,4.4c-2,1.9-3.7,4-4.9,6.5
				c-1.3,2.5-1.9,5.1-1.9,8v27.2h-6.4v-81.4H716.9z"/>
		</g>
	</g>
</g>
<g>
	<path d="M32.2,471.6h7V553h-7V471.6z"/>
	<path d="M84,545c2.1,1.4,4.6,2.2,7.7,2.2c2.8,0,5.2-0.6,7-1.7c1.8-1.2,3.3-2.7,4.4-4.7s1.8-4.2,2.3-6.8c0.4-2.6,0.7-5.3,0.7-8.1
		v-54.2h6.4v54.2c0,3.8-0.4,7.3-1.1,10.7c-0.7,3.3-2,6.3-3.6,8.8c-1.7,2.5-3.8,4.5-6.4,6s-5.8,2.2-9.6,2.2c-2.5,0-4.7-0.4-6.7-1.2
		s-3.7-1.7-5.2-2.9L84,545z"/>
	<path d="M202.7,525.8c0-2.6-0.6-5.2-1.7-7.8c-1.2-2.5-2.7-4.8-4.7-6.7c-2-1.9-4.2-3.5-6.8-4.7s-5.3-1.8-8.1-1.8s-5.5,0.6-8.1,1.7
		s-4.8,2.6-6.8,4.5c-2,1.9-3.5,4.1-4.7,6.7c-1.2,2.5-1.7,5.2-1.7,8.1V553h-6.4v-81.4h6.4v37c1.1-1.5,2.4-2.9,4-4.1s3.3-2.2,5.1-3.1
		c1.9-0.9,3.8-1.5,5.9-2c2.1-0.5,4.2-0.7,6.3-0.7c2.8,0,5.5-0.6,8.1-1.7c2.6-1.2,4.8-2.7,6.7-4.7s3.5-4.2,4.6-6.8
		c1.1-2.6,1.7-5.3,1.7-8.1v-5.7h6.4v5.7c-0.1,2.8-0.5,5.5-1.2,8s-1.8,4.8-3.2,6.9s-3,3.9-4.8,5.5s-3.9,2.9-6.1,3.8
		c2.3,1,4.4,2.4,6.2,4c1.9,1.7,3.5,3.5,4.9,5.7c1.4,2.1,2.4,4.4,3.2,6.9c0.7,2.5,1.1,5,1.1,7.7V553h-6.4v-27.2H202.7z"/>
	<path d="M278,553c-3.8,0-7.3-0.4-10.7-1.3c-3.4-0.9-6.3-2.2-8.8-4s-4.5-4-6-6.7s-2.2-6-2.2-9.7v-59.6h6.4v59.6
		c0,2.8,0.6,5.3,1.7,7.3c1.2,2,2.7,3.7,4.7,4.9c2,1.3,4.2,2.2,6.8,2.8c2.6,0.6,5.3,0.9,8.1,0.9h5.2v5.8H278z"/>
	<path d="M364.1,553l-9.9-62.9c-0.4-1.8-0.8-3.5-1.3-5s-1.2-2.8-2.1-3.9s-2-1.9-3.4-2.5s-3.1-0.9-5.2-0.9c-2.8,0-5,0.6-6.6,1.7
		c-1.5,1.1-2.6,2.6-3.3,4.5c-0.7,1.9-1.1,4.1-1.2,6.6s-0.2,5.2-0.2,8V553h-6.4v-54.3c0-3.8,0.2-7.3,0.6-10.6
		c0.4-3.3,1.3-6.2,2.5-8.6c1.3-2.5,3-4.4,5.4-5.8c2.3-1.4,5.3-2.1,9.1-2.1c1.5,0,3.3,0.2,5.3,0.7c2,0.4,4,1.5,6,3.1
		c1.4-1.2,3.1-2.1,5-2.8c1.9-0.7,4.2-1,6.7-1c1.4,0,3,0.2,4.8,0.5c1.8,0.4,3.6,1.2,5.4,2.4c1.8,1.3,3.4,3.1,4.9,5.6s2.6,5.8,3.3,10
		l9.7,62.9H387l-9.9-62.9c-0.4-1.8-0.8-3.5-1.3-5s-1.2-2.8-2.1-3.9s-2-1.9-3.4-2.5s-3.1-0.9-5.2-0.9c-1.8,0-3.3,0.2-4.5,0.6
		c-1.3,0.4-2.4,1-3.3,1.8c0.7,1.3,1.3,2.7,1.9,4.3c0.5,1.6,1,3.4,1.4,5.5l9.7,62.9L364.1,553L364.1,553z M335.6,498.9
		c0,1.8,0.6,3.3,1.9,4.6c1.3,1.3,2.8,1.9,4.6,1.9c1.8,0,3.3-0.6,4.6-1.9c1.3-1.3,1.9-2.8,1.9-4.6s-0.6-3.3-1.9-4.6
		c-1.3-1.3-2.8-1.9-4.6-1.9c-1.8,0-3.3,0.6-4.6,1.9C336.3,495.6,335.6,497.1,335.6,498.9z M339.6,498.8c0-0.7,0.3-1.4,0.8-1.9
		s1.2-0.8,1.9-0.8c0.7,0,1.4,0.3,1.9,0.8s0.8,1.2,0.8,1.9c0,0.7-0.3,1.4-0.8,1.9s-1.2,0.8-1.9,0.8c-0.7,0-1.4-0.3-1.9-0.8
		C339.9,500.2,339.6,499.6,339.6,498.8z"/>
	<path d="M480.5,553L469,490.1c-0.4-1.8-0.9-3.5-1.6-5s-1.6-2.8-2.7-3.9s-2.4-1.9-3.9-2.5s-3.3-0.9-5.4-0.9c-2.8,0-5.2,0.6-7,1.7
		s-3.3,2.6-4.4,4.5s-1.8,4.1-2.3,6.6s-0.7,5.2-0.7,8V553h-6.4v-54.3c0-3.8,0.4-7.3,1.1-10.6c0.7-3.3,2-6.2,3.6-8.6
		c1.7-2.5,3.8-4.4,6.4-5.8s5.8-2.1,9.6-2.1c1.4,0,3.1,0.2,5,0.5c2,0.4,3.9,1.2,5.9,2.4c2,1.3,3.8,3.1,5.5,5.6s2.8,5.8,3.6,10
		l11.2,62.9H480.5z M449.7,498.9c0,1.8,0.6,3.3,1.9,4.6c1.3,1.3,2.8,1.9,4.6,1.9c1.8,0,3.3-0.6,4.6-1.9c1.3-1.3,1.9-2.8,1.9-4.6
		s-0.6-3.3-1.9-4.6c-1.3-1.3-2.8-1.9-4.6-1.9c-1.8,0-3.3,0.6-4.6,1.9C450.4,495.6,449.7,497.1,449.7,498.9z M453.7,498.8
		c0-0.7,0.3-1.4,0.8-1.9s1.2-0.8,1.9-0.8c0.7,0,1.4,0.3,1.9,0.8s0.8,1.2,0.8,1.9c0,0.7-0.3,1.4-0.8,1.9s-1.2,0.8-1.9,0.8
		c-0.7,0-1.4-0.3-1.9-0.8C454,500.2,453.7,499.6,453.7,498.8z"/>
	<path d="M523.1,498.8c0-3.8,0.7-7.3,2.2-10.7c1.5-3.4,3.5-6.3,6-8.9s5.4-4.6,8.8-6.1c3.4-1.5,6.9-2.2,10.7-2.2s7.3,0.7,10.7,2.2
		c3.3,1.5,6.3,3.5,8.8,6.1s4.5,5.5,6,8.9s2.2,6.9,2.2,10.7v27.1c0,3.8-0.7,7.3-2.2,10.7s-3.5,6.3-6,8.9c-2.5,2.6-5.5,4.6-8.8,6.1
		s-6.9,2.2-10.7,2.2s-7.3-0.7-10.7-2.2s-6.3-3.5-8.8-6.1s-4.5-5.5-6-8.9s-2.2-6.9-2.2-10.7V498.8z M529.5,525.9
		c0,2.8,0.6,5.6,1.7,8.2c1.2,2.6,2.7,4.9,4.7,6.9s4.2,3.6,6.8,4.8s5.3,1.8,8.1,1.8s5.5-0.6,8.1-1.8s4.8-2.8,6.8-4.8s3.5-4.3,4.7-6.9
		c1.2-2.6,1.7-5.3,1.7-8.2v-27.1c0-2.8-0.6-5.6-1.7-8.2c-1.2-2.6-2.7-5-4.7-7.1s-4.2-3.7-6.8-5c-2.6-1.2-5.3-1.9-8.1-1.9
		s-5.5,0.6-8.1,1.9c-2.6,1.2-4.8,2.9-6.8,5s-3.5,4.4-4.7,7.1c-1.2,2.6-1.7,5.4-1.7,8.2V525.9z M544.2,512.3c0-1.8,0.6-3.3,1.9-4.6
		c1.3-1.3,2.8-1.9,4.6-1.9s3.3,0.6,4.6,1.9s1.9,2.8,1.9,4.6c0,1.8-0.6,3.3-1.9,4.6c-1.3,1.3-2.8,1.9-4.6,1.9s-3.3-0.6-4.6-1.9
		C544.8,515.6,544.2,514.1,544.2,512.3z M548.2,512.2c0,0.7,0.3,1.4,0.8,1.9s1.2,0.8,1.9,0.8s1.4-0.3,1.9-0.8s0.8-1.2,0.8-1.9
		s-0.3-1.4-0.8-1.9s-1.2-0.8-1.9-0.8s-1.4,0.3-1.9,0.8C548.4,510.8,548.2,511.5,548.2,512.2z"/>
	<path d="M619.8,498.8c0-3.8,0.7-7.3,2.2-10.6c1.5-3.3,3.5-6.2,6-8.6c2.5-2.5,5.4-4.4,8.8-5.8c3.4-1.4,6.9-2.1,10.7-2.1
		s7.3,0.7,10.7,2.1c3.3,1.4,6.3,3.4,8.8,5.8c2.5,2.5,4.5,5.3,6,8.6c1.5,3.3,2.2,6.8,2.2,10.6c0,3.8-0.7,7.3-2.2,10.6s-3.5,6.2-6,8.6
		c-2.5,2.5-5.5,4.4-8.8,5.8c-3.3,1.4-6.9,2.1-10.7,2.1c-4.3,0-8.3-0.9-11.9-2.7c-3.7-1.8-6.8-4.2-9.4-7.3V553h-6.4L619.8,498.8
		L619.8,498.8z M626.2,498.8c0,2.8,0.6,5.5,1.7,8.1c1.2,2.6,2.7,4.8,4.7,6.8c2,2,4.2,3.5,6.8,4.7s5.3,1.7,8.1,1.7s5.5-0.6,8.1-1.7
		c2.6-1.2,4.8-2.7,6.8-4.7s3.5-4.2,4.7-6.8c1.2-2.6,1.7-5.3,1.7-8.1s-0.6-5.5-1.7-8.1c-1.2-2.6-2.7-4.8-4.7-6.8s-4.2-3.5-6.8-4.7
		s-5.3-1.7-8.1-1.7s-5.5,0.6-8.1,1.7c-2.6,1.2-4.8,2.7-6.8,4.7s-3.5,4.2-4.7,6.8C626.8,493.3,626.2,496,626.2,498.8z M640.8,498.9
		c0-1.8,0.6-3.3,1.9-4.6c1.3-1.3,2.8-1.9,4.6-1.9s3.3,0.6,4.6,1.9s1.9,2.8,1.9,4.6s-0.6,3.3-1.9,4.6c-1.3,1.3-2.8,1.9-4.6,1.9
		s-3.3-0.6-4.6-1.9C641.5,502.3,640.8,500.7,640.8,498.9z M644.8,498.8c0,0.7,0.3,1.4,0.8,1.9s1.2,0.8,1.9,0.8s1.4-0.3,1.9-0.8
		s0.8-1.2,0.8-1.9c0-0.7-0.3-1.4-0.8-1.9s-1.2-0.8-1.9-0.8s-1.4,0.3-1.9,0.8C645.1,497.5,644.8,498.1,644.8,498.8z"/>
	<path d="M716.5,498.8c0-3.8,0.7-7.3,2.2-10.6c1.5-3.3,3.5-6.2,6-8.6c2.5-2.5,5.4-4.4,8.8-5.8c3.4-1.4,6.9-2.1,10.7-2.1
		s7.3,0.7,10.7,2.1c3.3,1.4,6.3,3.4,8.8,5.8c2.5,2.5,4.5,5.3,6,8.6c1.5,3.3,2.2,6.8,2.2,10.6V526c0,3.8-0.7,7.3-2.2,10.7
		c-1.5,3.3-3.5,6.2-6,8.7s-5.5,4.4-8.8,5.9c-3.3,1.4-6.9,2.2-10.7,2.2s-7.3-0.7-10.7-2.2c-3.4-1.4-6.3-3.4-8.8-5.9s-4.5-5.4-6-8.7
		s-2.2-6.9-2.2-10.7V498.8z M744.2,547.3c2.8,0,5.5-0.6,8.1-1.7c2.6-1.2,4.8-2.7,6.8-4.7s3.5-4.2,4.7-6.8s1.7-5.3,1.7-8.1v-27.1
		c0-2.8-0.6-5.5-1.7-8.1c-1.2-2.6-2.7-4.8-4.7-6.8s-4.2-3.5-6.8-4.7s-5.3-1.7-8.1-1.7s-5.5,0.6-8.1,1.7c-2.6,1.2-4.8,2.7-6.8,4.7
		s-3.5,4.2-4.7,6.8c-1.2,2.6-1.7,5.3-1.7,8.1V526c0,2.8,0.6,5.5,1.7,8.1s2.7,4.8,4.7,6.8s4.2,3.5,6.8,4.7
		C738.7,546.7,741.4,547.3,744.2,547.3z M737.6,512.3c0-1.8,0.6-3.3,1.9-4.6c1.3-1.3,2.8-1.9,4.6-1.9s3.3,0.6,4.6,1.9
		s1.9,2.8,1.9,4.6c0,1.8-0.6,3.3-1.9,4.6c-1.3,1.3-2.8,1.9-4.6,1.9s-3.3-0.6-4.6-1.9S737.6,514.1,737.6,512.3z M741.6,512.3
		c0,0.7,0.3,1.4,0.8,1.9s1.2,0.8,1.9,0.8s1.4-0.3,1.9-0.8s0.8-1.2,0.8-1.9s-0.3-1.4-0.8-1.9s-1.2-0.8-1.9-0.8s-1.4,0.3-1.9,0.8
		C741.9,510.9,741.6,511.5,741.6,512.3z M754.9,539.2c2,2.4,4.4,4.4,7.3,5.8c2.9,1.4,5.9,2.2,9.1,2.2v5.8c-2.5,0-5-0.3-7.4-1
		s-4.6-1.6-6.7-2.8c-2.1-1.2-4-2.6-5.7-4.3s-3.2-3.6-4.3-5.7H754.9z"/>
</g>
<g>
	<path d="M32.2,605.6c0-3.8,0.7-7.3,2.2-10.6s3.5-6.2,6-8.6c2.5-2.5,5.4-4.4,8.8-5.8c3.4-1.4,6.9-2.1,10.7-2.1s7.3,0.7,10.7,2.1
		c3.3,1.4,6.3,3.4,8.8,5.8c2.5,2.5,4.5,5.3,6,8.6s2.2,6.8,2.2,10.6s-0.7,7.3-2.2,10.6s-3.5,6.2-6,8.6c-2.5,2.5-5.5,4.4-8.8,5.8
		c-3.3,1.4-6.9,2.1-10.7,2.1c-4.3,0-8.3-0.9-11.9-2.7c-3.7-1.8-6.8-4.2-9.4-7.3v36.9h-6.4C32.2,659.6,32.2,605.6,32.2,605.6z
		 M38.5,605.6c0,2.8,0.6,5.5,1.7,8.1c1.2,2.6,2.7,4.8,4.7,6.8s4.2,3.5,6.8,4.7s5.3,1.7,8.1,1.7s5.5-0.6,8.1-1.7
		c2.6-1.2,4.8-2.7,6.8-4.7s3.5-4.2,4.7-6.8s1.7-5.3,1.7-8.1s-0.6-5.5-1.7-8.1c-1.2-2.6-2.7-4.8-4.7-6.8s-4.2-3.5-6.8-4.7
		c-2.6-1.2-5.3-1.7-8.1-1.7s-5.5,0.6-8.1,1.7c-2.6,1.2-4.8,2.7-6.8,4.7s-3.5,4.2-4.7,6.8C39.1,600.1,38.5,602.8,38.5,605.6z
		 M53.2,605.7c0-1.8,0.6-3.3,1.9-4.6c1.3-1.3,2.8-1.9,4.6-1.9s3.3,0.6,4.6,1.9c1.3,1.3,1.9,2.8,1.9,4.6s-0.6,3.3-1.9,4.6
		c-1.3,1.3-2.8,1.9-4.6,1.9s-3.3-0.6-4.6-1.9C53.8,609.1,53.2,607.5,53.2,605.7z M57.1,605.6c0,0.7,0.3,1.4,0.8,1.9s1.2,0.8,1.9,0.8
		s1.4-0.3,1.9-0.8s0.8-1.2,0.8-1.9s-0.3-1.4-0.8-1.9s-1.2-0.8-1.9-0.8s-1.4,0.3-1.9,0.8C57.4,604.3,57.1,604.9,57.1,605.6z
		 M81,654.1c0-2.8-0.6-5.5-1.7-8.1c-1.2-2.6-2.7-4.8-4.7-6.8s-4.2-3.5-6.8-4.7s-5.3-1.7-8.1-1.7V627c3.8,0,7.3,0.7,10.7,2.1
		c3.3,1.4,6.3,3.4,8.8,5.8c2.5,2.5,4.5,5.3,6,8.6s2.2,6.8,2.2,10.6L81,654.1L81,654.1z M81.1,654h6.3v5.8h-6.3V654z"/>
	<path d="M126.3,632.7c0,2.9,0.6,5.6,1.7,8.1c1.1,2.5,2.7,4.7,4.6,6.6c1.9,1.9,4.2,3.4,6.7,4.5c2.6,1.1,5.3,1.6,8.2,1.6
		s5.6-0.5,8.2-1.6c2.6-1.1,4.8-2.6,6.7-4.5s3.5-4.1,4.6-6.6s1.7-5.2,1.7-8.1c0-2.9-0.6-5.6-1.7-8.1c-1.1-2.5-2.7-4.7-4.6-6.6
		c-1.9-1.9-4.2-3.4-6.7-4.5c-2.6-1.1-5.3-1.6-8.2-1.6v-6.3c3.8,0,7.3,0.7,10.7,2.1c3.3,1.4,6.3,3.4,8.8,5.8c2.5,2.5,4.5,5.3,6,8.6
		s2.2,6.8,2.2,10.6s-0.7,7.3-2.2,10.7c-1.5,3.3-3.5,6.3-6,8.8s-5.5,4.5-8.8,5.9s-6.9,2.2-10.7,2.2s-7.3-0.7-10.7-2.2
		c-3.4-1.4-6.3-3.4-8.8-5.9s-4.5-5.4-6-8.8c-1.5-3.3-2.2-6.9-2.2-10.7H126.3z M158.1,595.1c0-1.4-0.3-2.7-0.9-4
		c-0.6-1.3-1.3-2.4-2.3-3.4s-2.1-1.8-3.4-2.3c-1.3-0.6-2.6-0.9-4-0.9s-2.7,0.3-4,0.9c-1.3,0.6-2.4,1.3-3.3,2.3c-1,1-1.7,2.1-2.3,3.4
		c-0.6,1.3-0.9,2.6-0.9,4s0.3,2.7,0.9,4c0.6,1.3,1.3,2.4,2.3,3.3c1,1,2.1,1.7,3.3,2.3c1.3,0.6,2.6,0.9,4,0.9v6.2
		c-2.3,0-4.5-0.4-6.6-1.3c-2.1-0.9-3.9-2.1-5.5-3.6s-2.8-3.3-3.7-5.3s-1.4-4.2-1.4-6.5s0.5-4.5,1.4-6.6s2.1-3.9,3.7-5.5
		c1.6-1.5,3.4-2.8,5.5-3.7s4.3-1.4,6.6-1.4s4.4,0.5,6.5,1.4s3.9,2.2,5.4,3.7c1.6,1.6,2.8,3.4,3.7,5.5s1.4,4.3,1.4,6.6L158.1,595.1
		L158.1,595.1z M141,632.8c0-1.8,0.6-3.3,1.9-4.6c1.3-1.3,2.8-1.9,4.6-1.9s3.3,0.6,4.6,1.9c1.3,1.3,1.9,2.8,1.9,4.6
		s-0.6,3.3-1.9,4.6c-1.3,1.3-2.8,1.9-4.6,1.9s-3.3-0.6-4.6-1.9C141.6,636.1,141,634.6,141,632.8z M144.9,632.7
		c0,0.7,0.3,1.4,0.8,1.9s1.2,0.8,1.9,0.8s1.4-0.3,1.9-0.8s0.8-1.2,0.8-1.9s-0.3-1.4-0.8-1.9s-1.2-0.8-1.9-0.8s-1.4,0.3-1.9,0.8
		S144.9,632,144.9,632.7z"/>
	<path d="M225.4,600.1c0-2.8-0.6-5.3-1.7-7.3c-1.2-2-2.7-3.6-4.7-4.9c-2-1.3-4.2-2.2-6.8-2.8s-5.3-0.9-8.1-0.9h-3v-5.8h3
		c5.3,0,10.1,0.8,14.4,2.5c4.3,1.7,7.7,4.3,10.1,7.9c2.3-3.6,5.7-6.2,10-7.9c4.4-1.7,9.2-2.5,14.5-2.5h3.2v5.8h-3.2
		c-2.8,0-5.5,0.3-8.1,0.9c-2.6,0.6-4.8,1.5-6.8,2.8s-3.5,2.9-4.7,4.9s-1.7,4.4-1.7,7.3v59.7h-6.4V600.1z"/>
	<path d="M291.8,578.4h6.3V619h0.1c0,1.9,0.2,4.1,0.6,6.6s1,5,1.7,7.6c0.8,2.6,1.7,5.1,2.9,7.6s2.5,4.7,4.1,6.7
		c1.6,1.9,3.4,3.5,5.4,4.7s4.2,1.8,6.6,1.8s4.6-0.6,6.6-1.8s3.7-2.8,5.4-4.7c1.6-1.9,3-4.2,4.2-6.7s2.1-5.1,2.9-7.6
		c0.8-2.6,1.4-5.1,1.7-7.6c0.4-2.5,0.6-4.6,0.6-6.6v-40.6h6.3V619h0.1c0,2.5-0.3,5.2-0.8,8.3c-0.5,3-1.3,6.1-2.4,9.1
		c-1.1,3.1-2.4,6-3.9,8.9s-3.3,5.4-5.4,7.6c-2,2.2-4.3,4-6.9,5.3s-5.3,2-8.3,2s-5.8-0.7-8.3-2c-2.6-1.3-4.9-3.1-6.9-5.3
		s-3.8-4.7-5.4-7.6c-1.5-2.9-2.9-5.8-3.9-8.9c-1.1-3-1.8-6.1-2.4-9.1c-0.5-3-0.8-5.8-0.8-8.3v-40.6H291.8z M312.8,619.1
		c0-1.8,0.6-3.3,1.9-4.6s2.8-1.9,4.6-1.9c1.8,0,3.3,0.6,4.6,1.9c1.3,1.3,1.9,2.8,1.9,4.6s-0.6,3.4-1.9,4.6c-1.3,1.3-2.8,1.9-4.6,1.9
		c-1.8,0-3.3-0.6-4.6-1.9C313.5,622.5,312.8,620.9,312.8,619.1z M316.8,619.1c0,0.7,0.3,1.4,0.8,1.9s1.2,0.8,1.9,0.8
		c0.7,0,1.4-0.3,1.9-0.8s0.8-1.2,0.8-1.9s-0.3-1.4-0.8-1.9s-1.2-0.8-1.9-0.8c-0.7,0-1.4,0.3-1.9,0.8
		C317.1,617.7,316.8,618.3,316.8,619.1z"/>
	<path d="M410.3,659.8c-3.3,0-6.3-0.7-9-2s-5-3.1-7.1-5.3c-2-2.2-3.8-4.7-5.2-7.5c-1.4-2.8-2.6-5.7-3.6-8.8c-0.9-3-1.6-6-2.1-9
		s-0.7-5.7-0.7-8.2v-40.6h6.3L389,619c0.1,2.5,0.3,5.1,0.7,7.9c0.4,2.8,1.1,5.5,2,8.1s2,5.2,3.3,7.6c1.3,2.4,2.8,4.5,4.6,6.2
		c1.8,1.7,3.8,3,6,3.9s4.7,1.2,7.4,0.9l19.8-75.2h6.5L418,659.9h-7.7V659.8z M399.6,619.1c0-1.8,0.6-3.3,1.9-4.6s2.8-1.9,4.6-1.9
		c1.8,0,3.3,0.6,4.6,1.9c1.3,1.3,1.9,2.8,1.9,4.6s-0.6,3.4-1.9,4.6c-1.3,1.3-2.8,1.9-4.6,1.9c-1.8,0-3.3-0.6-4.6-1.9
		C400.3,622.5,399.6,620.9,399.6,619.1z M403.6,619.1c0,0.7,0.3,1.4,0.8,1.9s1.2,0.8,1.9,0.8c0.7,0,1.4-0.3,1.9-0.8s0.8-1.2,0.8-1.9
		s-0.3-1.4-0.8-1.9s-1.2-0.8-1.9-0.8c-0.7,0-1.4,0.3-1.9,0.8C403.9,617.7,403.6,618.3,403.6,619.1z"/>
	<path d="M510.3,605.6v37.2c0,1.7,0.2,3.2,0.6,4.4s1,2.2,1.7,3.1c0.7,0.8,1.5,1.5,2.3,1.9c0.8,0.5,1.7,0.8,2.6,1l15.4-74.8h6.3
		l-16.6,81.4c-4.2,0-7.5-0.5-9.9-1.4c-2.4-1-4.3-2.2-5.5-3.7c-1.2,1.5-3.1,2.7-5.5,3.7s-5.7,1.4-9.9,1.4l-16.6-81.4h6.3l15.4,74.8
		c0.8-0.2,1.7-0.5,2.5-1s1.6-1.1,2.3-1.9c0.7-0.8,1.2-1.8,1.7-3.1c0.4-1.2,0.7-2.7,0.7-4.4v-37.2H510.3z"/>
	<path d="M574.8,643.6c0-5.3,0.9-10.1,2.6-14.4s4.3-7.7,7.9-10.1c-3.6-2.3-6.2-5.7-7.9-10s-2.6-9.2-2.6-14.5v-16.2h6.3v16.2
		c0,2.8,0.3,5.5,0.9,8.1c0.6,2.6,1.5,4.8,2.7,6.8s2.8,3.5,4.8,4.7s4.4,1.7,7.2,1.7s5.2-0.6,7.2-1.7c2-1.2,3.6-2.7,4.8-4.7
		s2.1-4.2,2.6-6.8s0.8-5.3,0.8-8.1v-16.2h6.3v16.2c0,5.3-0.8,10.1-2.5,14.5s-4.3,7.7-7.9,10c3.6,2.4,6.2,5.7,7.9,10.1
		c1.7,4.3,2.5,9.2,2.5,14.4v16.2h-6.3v-16.2c0-2.8-0.3-5.5-0.8-8.1s-1.4-4.8-2.6-6.8c-1.2-2-2.8-3.5-4.8-4.7s-4.4-1.7-7.2-1.7
		s-5.2,0.6-7.2,1.7s-3.6,2.7-4.8,4.7s-2.1,4.2-2.7,6.8c-0.6,2.6-0.9,5.3-0.9,8.1v16.2h-6.3V643.6z"/>
	<path d="M689,578.4h6.4v27.1c0,3.5-0.3,6.8-1,9.9c-0.6,3.1-1.7,5.9-3.1,8.3c-1.4,2.4-3.3,4.4-5.5,5.9c-2.3,1.5-5,2.5-8.2,2.9v27.3
		h-6.3v-27.4c-1.8-0.2-3.6-0.8-5.7-1.6c-2-0.9-3.9-2.3-5.6-4.3c-1.7-2-3.2-4.6-4.3-8s-1.7-7.7-1.7-13v-27.1h6.4v28
		c0.1,2.7,0.3,5.4,0.8,7.8s1.2,4.7,2.3,6.5c1.1,1.9,2.5,3.3,4.3,4.5c1.8,1.1,4.1,1.7,6.9,1.7c2.8,0,5.2-0.6,7-1.7
		c1.8-1.2,3.3-2.7,4.4-4.7c1.1-2,1.8-4.2,2.3-6.8c0.4-2.6,0.7-5.3,0.7-8.1v-27.2H689z M668.1,608.3c0-1.8,0.6-3.3,1.9-4.6
		c1.3-1.3,2.8-1.9,4.6-1.9s3.3,0.6,4.6,1.9c1.3,1.3,1.9,2.8,1.9,4.6s-0.6,3.3-1.9,4.6c-1.3,1.3-2.8,1.9-4.6,1.9s-3.3-0.6-4.6-1.9
		C668.7,611.7,668.1,610.2,668.1,608.3z M672,608.4c0,0.7,0.3,1.4,0.8,1.9s1.2,0.8,1.9,0.8s1.4-0.3,1.9-0.8s0.8-1.2,0.8-1.9
		s-0.3-1.4-0.8-1.9s-1.2-0.8-1.9-0.8s-1.4,0.3-1.9,0.8C672.3,607.1,672,607.7,672,608.4z"/>
	<path d="M731,659.8l30.9-75.1H731v-6.4h41.3l-30.9,75.1h30.9v6.4H731z"/>
</g>
<g>
	<path d="M81.3,753.8c-2.6,3.1-5.7,5.6-9.4,7.6c-3.7,1.9-7.7,2.9-12,2.9c-3.8,0-7.3-0.7-10.7-2.2s-6.3-3.5-8.8-6s-4.5-5.4-6-8.8
		c-1.5-3.3-2.2-6.9-2.2-10.7s0.7-7.3,2.2-10.7c1.5-3.3,3.5-6.2,6-8.7s5.4-4.4,8.8-5.9c3.4-1.4,6.9-2.2,10.7-2.2s7.3,0.7,10.7,2.2
		c3.3,1.4,6.3,3.4,8.8,5.9s4.5,5.4,6,8.7s2.2,6.9,2.2,10.7v27.1h-6.2L81.3,753.8z M38.4,736.7c0,2.8,0.6,5.5,1.7,8.1
		c1.2,2.5,2.7,4.8,4.7,6.7s4.3,3.4,6.9,4.6c2.6,1.1,5.3,1.7,8.1,1.7s5.6-0.6,8.1-1.7c2.6-1.1,4.9-2.7,6.8-4.6c2-1.9,3.5-4.1,4.7-6.7
		c1.2-2.5,1.8-5.2,1.8-8.1c0-2.8-0.6-5.5-1.8-8c-1.2-2.5-2.8-4.7-4.7-6.6c-2-1.9-4.2-3.4-6.8-4.5c-2.6-1.1-5.3-1.7-8.1-1.7
		s-5.6,0.6-8.1,1.7c-2.6,1.1-4.9,2.6-6.9,4.5s-3.6,4.1-4.7,6.6C38.9,731.2,38.4,733.9,38.4,736.7z M53.2,736.8
		c0-1.8,0.6-3.3,1.9-4.6c1.3-1.3,2.8-1.9,4.6-1.9s3.3,0.6,4.6,1.9c1.3,1.3,1.9,2.8,1.9,4.6s-0.6,3.3-1.9,4.6
		c-1.3,1.3-2.8,1.9-4.6,1.9s-3.3-0.6-4.6-1.9C53.8,740.1,53.2,738.6,53.2,736.8z M57.1,736.7c0,0.7,0.3,1.4,0.8,1.9s1.2,0.8,1.9,0.8
		s1.4-0.3,1.9-0.8s0.8-1.2,0.8-1.9s-0.3-1.4-0.8-1.9s-1.2-0.8-1.9-0.8s-1.4,0.3-1.9,0.8C57.4,735.4,57.1,736,57.1,736.7z"/>
	<path d="M116.6,678.6h6.2v41c2.6-3.1,5.7-5.5,9.5-7.5s7.7-2.9,12-2.9c3.8,0,7.3,0.7,10.7,2.2c3.3,1.4,6.3,3.4,8.8,5.9
		s4.5,5.4,6,8.8c1.5,3.3,2.2,6.9,2.2,10.7s-0.7,7.3-2.2,10.7c-1.5,3.3-3.5,6.3-6,8.8s-5.5,4.5-8.8,5.9s-6.9,2.2-10.7,2.2
		c-4.3,0-8.3-1-12-2.9s-6.9-4.4-9.5-7.5v10h-6.2C116.6,764,116.6,678.6,116.6,678.6z M122.8,736.8c0,2.8,0.6,5.5,1.7,8.1
		c1.2,2.5,2.7,4.8,4.7,6.7s4.3,3.4,6.9,4.5c2.6,1.1,5.3,1.7,8.1,1.7s5.6-0.6,8.1-1.7c2.6-1.1,4.9-2.6,6.8-4.5s3.5-4.1,4.7-6.7
		c1.2-2.5,1.8-5.2,1.8-8.1s-0.6-5.5-1.8-8.1c-1.2-2.5-2.8-4.8-4.7-6.7s-4.2-3.4-6.8-4.5s-5.3-1.7-8.1-1.7s-5.6,0.6-8.1,1.7
		c-2.6,1.1-4.9,2.6-6.9,4.5s-3.6,4.1-4.7,6.7C123.4,731.3,122.8,733.9,122.8,736.8z M137.7,736.9c0-1.8,0.6-3.3,1.9-4.6
		c1.3-1.3,2.8-1.9,4.6-1.9s3.3,0.6,4.6,1.9c1.3,1.3,1.9,2.8,1.9,4.6s-0.6,3.3-1.9,4.6c-1.3,1.3-2.8,1.9-4.6,1.9s-3.3-0.6-4.6-1.9
		S137.7,738.7,137.7,736.9z M141.6,736.8c0,0.7,0.3,1.4,0.8,1.9s1.2,0.8,1.9,0.8s1.4-0.3,1.9-0.8s0.8-1.2,0.8-1.9s-0.3-1.4-0.8-1.9
		s-1.2-0.8-1.9-0.8s-1.4,0.3-1.9,0.8C141.9,735.4,141.6,736.1,141.6,736.8z"/>
	<path d="M249.2,752.2c-1.2,1.8-2.7,3.4-4.3,4.9c-1.7,1.5-3.5,2.8-5.4,3.8c-1.9,1.1-4,1.9-6.2,2.5s-4.5,0.9-6.8,0.9
		c-3.8,0-7.4-0.7-10.7-2.2c-3.4-1.4-6.4-3.4-8.9-5.9s-4.6-5.4-6.1-8.8c-1.5-3.3-2.3-6.9-2.3-10.7s0.8-7.3,2.3-10.7
		c1.5-3.3,3.6-6.3,6.1-8.8c2.6-2.5,5.5-4.5,8.9-5.9s7-2.2,10.7-2.2c2.3,0,4.6,0.2,6.9,0.7c2.3,0.5,4.6,1.2,6.7,2.3
		c2.2,1.1,4.2,2.5,6.2,4.4c2,1.8,3.7,4.1,5.4,6.9h-7.3c-1-1.2-2.2-2.3-3.6-3.3c-1.4-1-2.9-1.8-4.5-2.4c-1.6-0.6-3.2-1.1-4.9-1.5
		s-3.4-0.5-5-0.5c-2.8,0-5.6,0.6-8.2,1.7c-2.6,1.1-5,2.6-7,4.5s-3.6,4.1-4.8,6.7c-1.2,2.5-1.8,5.2-1.8,8.1s0.6,5.5,1.8,8.1
		c1.2,2.5,2.8,4.8,4.8,6.7s4.3,3.4,7,4.5c2.6,1.1,5.4,1.7,8.2,1.7c3.7,0,7.1-0.9,10.2-2.6c3.1-1.8,5.7-4.1,7.6-7.1v0.1l7.4-0.1
		c-0.4,0.7-0.7,1.4-1.2,2.1C250.1,750.9,249.6,751.6,249.2,752.2z M219.8,736.9c0-1.8,0.6-3.3,1.9-4.6c1.3-1.3,2.8-1.9,4.6-1.9
		s3.3,0.6,4.6,1.9c1.3,1.3,1.9,2.8,1.9,4.6s-0.6,3.3-1.9,4.6s-2.8,1.9-4.6,1.9s-3.3-0.6-4.6-1.9S219.8,738.7,219.8,736.9z
		 M223.7,736.8c0,0.7,0.3,1.4,0.8,1.9s1.2,0.8,1.9,0.8s1.4-0.3,1.9-0.8s0.8-1.2,0.8-1.9s-0.3-1.4-0.8-1.9s-1.2-0.8-1.9-0.8
		s-1.4,0.3-1.9,0.8C224,735.4,223.7,736.1,223.7,736.8z"/>
	<path d="M324.6,754c-2.6,3-5.7,5.5-9.4,7.4c-3.7,1.9-7.7,2.9-11.9,2.9c-3.8,0-7.3-0.7-10.7-2.2c-3.4-1.4-6.3-3.4-8.8-5.9
		s-4.5-5.4-6-8.8c-1.5-3.3-2.2-6.9-2.2-10.7s0.7-7.3,2.2-10.7c1.5-3.3,3.5-6.3,6-8.8s5.4-4.5,8.8-5.9s6.9-2.2,10.7-2.2
		c2.1,0,4.2,0.3,6.2,0.8s3.9,1.3,5.7,2.2c1.8,1,3.5,2.1,5.1,3.4c1.6,1.3,3,2.7,4.3,4.2v-41.3h6.4v85.3h-6.4L324.6,754L324.6,754z
		 M281.7,736.8c0,2.8,0.6,5.5,1.7,8.1c1.2,2.5,2.7,4.8,4.7,6.7s4.3,3.4,6.9,4.5s5.3,1.7,8.1,1.7s5.5-0.6,8.1-1.7
		c2.6-1.1,4.8-2.7,6.8-4.7s3.5-4.3,4.7-6.9c1.2-2.6,1.7-5.5,1.7-8.5c-0.1-2.7-0.8-5.3-2-7.8c-1.2-2.4-2.8-4.6-4.7-6.4
		c-1.9-1.8-4.2-3.3-6.7-4.3c-2.5-1.1-5.2-1.6-7.9-1.6c-2.8,0-5.6,0.6-8.1,1.7c-2.6,1.1-4.9,2.6-6.9,4.5s-3.6,4.1-4.7,6.7
		C282.3,731.3,281.7,733.9,281.7,736.8z M296.6,736.9c0-1.8,0.6-3.3,1.9-4.6s2.8-1.9,4.6-1.9c1.8,0,3.3,0.6,4.6,1.9
		c1.3,1.3,1.9,2.8,1.9,4.6s-0.6,3.3-1.9,4.6s-2.8,1.9-4.6,1.9c-1.8,0-3.3-0.6-4.6-1.9C297.2,740.2,296.6,738.7,296.6,736.9z
		 M300.5,736.8c0,0.7,0.3,1.4,0.8,1.9s1.2,0.8,1.9,0.8c0.7,0,1.4-0.3,1.9-0.8s0.8-1.2,0.8-1.9s-0.3-1.4-0.8-1.9s-1.2-0.8-1.9-0.8
		c-0.7,0-1.4,0.3-1.9,0.8C300.8,735.4,300.5,736.1,300.5,736.8z"/>
	<path d="M382.2,736.8c0-0.7,0.2-1.4,0.7-2s1.1-0.9,1.8-0.9l20.3-3.6c-0.7-2.1-1.7-4.1-3.1-5.9c-1.3-1.8-2.9-3.4-4.6-4.7
		c-1.8-1.3-3.7-2.4-5.8-3.1c-2.1-0.7-4.3-1.1-6.6-1.1c-2.8,0-5.6,0.6-8.1,1.7c-2.6,1.2-4.9,2.7-6.9,4.7s-3.6,4.2-4.7,6.8
		c-1.2,2.6-1.7,5.3-1.7,8.1s0.6,5.5,1.7,8.1c1.2,2.6,2.7,4.8,4.7,6.8s4.3,3.5,6.9,4.7s5.3,1.7,8.1,1.7c2.6,0,5-0.4,7.1-1.3
		c2.1-0.9,3.9-1.9,5.4-3s2.7-2.3,3.7-3.4c1-1.1,1.7-1.9,2.1-2.4h7c-0.3,0.8-1,2.1-2.2,3.8c-1.2,1.8-2.8,3.6-4.8,5.5
		s-4.6,3.5-7.6,4.9s-6.6,2.1-10.6,2.1c-3.8,0-7.3-0.7-10.7-2.2c-3.4-1.4-6.3-3.4-8.8-5.9s-4.5-5.4-6-8.8c-1.5-3.3-2.2-6.9-2.2-10.7
		s0.7-7.3,2.2-10.7c1.5-3.3,3.5-6.3,6-8.8s5.4-4.5,8.8-5.9s6.9-2.2,10.7-2.2c3.6,0,7,0.7,10.2,2s6,3.2,8.5,5.5s4.5,5,6,8.1
		s2.5,6.4,2.8,9.9c-4.5,0.8-8.3,1.5-11.4,2.1c-3.1,0.5-5.7,1-7.7,1.4s-3.6,0.6-4.7,0.8s-1.9,0.3-2.4,0.4c-0.5,0.1-0.8,0.1-1,0.1
		c-0.1,0-0.2,0-0.3,0c-0.7,0-1.4-0.3-1.9-0.8C382.5,738.1,382.2,737.5,382.2,736.8z"/>
	<path d="M436.5,720.5v-6.2l7-1.2v-17.4c0-1.5,0.1-3.2,0.3-5.2s0.9-3.8,2-5.6c1.2-1.8,3-3.2,5.5-4.5c2.5-1.2,6.1-1.8,10.8-1.8v6.3
		c-2.3-0.2-4.4,0.1-6.2,0.8c-0.8,0.3-1.5,0.7-2.2,1.2s-1.4,1.1-2,1.9c-0.6,0.8-1.1,1.7-1.4,2.9c-0.3,1.1-0.5,2.5-0.5,4v16.2
		c2.1-0.4,4.1-0.8,6.2-1.1c2-0.3,4.1-0.7,6.2-1.1v6.2l-12.3,2.2l-0.1,45.8h-6.2v-44.7L436.5,720.5z"/>
	<path d="M489.3,771.5c3.6,1.9,7.1,3.3,10.6,4.3s6.8,1.5,10,1.7c3.2,0.2,6.1-0.1,8.7-0.7c2.7-0.6,5-1.5,6.9-2.7
		c2-1.2,3.5-2.7,4.6-4.4s1.7-3.7,1.7-5.8V754c-2.6,3-5.7,5.5-9.4,7.4s-7.7,2.9-11.9,2.9c-3.8,0-7.3-0.7-10.7-2.2
		c-3.4-1.4-6.3-3.4-8.8-5.9s-4.5-5.4-6-8.8c-1.5-3.3-2.2-6.9-2.2-10.7s0.7-7.3,2.2-10.7c1.5-3.3,3.5-6.3,6-8.8s5.4-4.5,8.8-5.9
		s6.9-2.2,10.7-2.2s7.3,0.7,10.7,2.2c3.3,1.4,6.3,3.4,8.8,5.9s4.5,5.4,6,8.8c1.5,3.3,2.2,6.9,2.2,10.7v0.1v13.5v13.9
		c-0.4,4.2-1.6,7.7-3.6,10.2c-2,2.6-4.5,4.5-7.4,5.9c-2.9,1.3-6.1,2.2-9.6,2.5s-7,0.3-10.5-0.1c-3.5-0.4-6.8-1-9.9-1.9
		s-5.8-1.7-7.9-2.7V771.5z M531.8,736.8c0-2.8-0.6-5.5-1.7-8.1c-1.2-2.6-2.7-4.8-4.7-6.8s-4.2-3.5-6.8-4.7s-5.3-1.7-8.1-1.7
		s-5.5,0.6-8.1,1.7c-2.6,1.2-4.8,2.7-6.8,4.7s-3.5,4.2-4.7,6.8s-1.7,5.3-1.7,8.1s0.6,5.5,1.7,8.1c1.2,2.6,2.7,4.8,4.7,6.8
		s4.2,3.5,6.8,4.7c2.6,1.2,5.3,1.7,8.1,1.7c2.7,0,5.4-0.6,7.9-1.7c2.5-1.1,4.8-2.6,6.7-4.5s3.5-4,4.7-6.5s1.9-5.1,2-7.8V737V736.8z
		 M503.8,736.9c0-1.8,0.6-3.3,1.9-4.6s2.8-1.9,4.6-1.9c1.8,0,3.3,0.6,4.6,1.9c1.3,1.3,1.9,2.8,1.9,4.6s-0.6,3.3-1.9,4.6
		c-1.3,1.3-2.8,1.9-4.6,1.9c-1.8,0-3.3-0.6-4.6-1.9C504.4,740.2,503.8,738.7,503.8,736.9z M507.8,736.8c0,0.7,0.3,1.4,0.8,1.9
		s1.2,0.8,1.9,0.8c0.7,0,1.4-0.3,1.9-0.8s0.8-1.2,0.8-1.9s-0.3-1.4-0.8-1.9s-1.2-0.8-1.9-0.8c-0.7,0-1.4,0.3-1.9,0.8
		C508,735.4,507.8,736.1,507.8,736.8z"/>
	<path d="M599.7,736.8c0-2.8-0.2-5.5-0.7-8.1c-0.4-2.6-1.2-4.8-2.3-6.8s-2.5-3.5-4.4-4.7c-1.8-1.2-4.2-1.7-7-1.7s-5.1,0.6-6.9,1.7
		c-1.8,1.1-3.3,2.6-4.3,4.5c-1.1,1.9-1.9,4-2.3,6.5c-0.5,2.5-0.7,5.1-0.8,7.8v28h-6.4v-85.3h6.4v36.8c1.7-1.8,3.7-3.3,6-4.5
		s5.1-1.7,8.3-1.7c3.8,0,7,0.7,9.6,2.2c2.6,1.4,4.7,3.4,6.4,5.9s2.9,5.4,3.6,8.8c0.7,3.3,1.1,6.9,1.1,10.7V764h-6.4v-27.2H599.7z
		 M578.9,736.9c0-1.8,0.6-3.3,1.9-4.6c1.3-1.3,2.8-1.9,4.6-1.9s3.3,0.6,4.6,1.9c1.3,1.3,1.9,2.8,1.9,4.6s-0.6,3.3-1.9,4.6
		c-1.3,1.3-2.8,1.9-4.6,1.9s-3.3-0.6-4.6-1.9C579.5,740.2,578.9,738.7,578.9,736.9z M582.8,736.8c0,0.7,0.3,1.4,0.8,1.9
		s1.2,0.8,1.9,0.8s1.4-0.3,1.9-0.8s0.8-1.2,0.8-1.9s-0.3-1.4-0.8-1.9s-1.2-0.8-1.9-0.8s-1.4,0.3-1.9,0.8
		C583.1,735.4,582.8,736.1,582.8,736.8z"/>
	<path d="M632.6,699.8c0-1.1,0.4-2,1.2-2.8s1.7-1.2,2.8-1.2s2,0.4,2.8,1.2s1.2,1.7,1.2,2.8s-0.4,2-1.2,2.8s-1.7,1.2-2.8,1.2
		s-2-0.4-2.8-1.2S632.6,700.9,632.6,699.8z M633.6,709.6h6.3V764h-6.3V709.6z"/>
	<path d="M650.5,777.5h1.2c2.2,0,4.2-0.3,6-1c1.9-0.6,3.5-1.5,4.8-2.7c1.4-1.2,2.5-2.6,3.3-4.2c0.8-1.7,1.2-3.5,1.2-5.6v-54.4h6.3
		V764c0,3.1-0.5,5.8-1.6,8.2s-2.6,4.4-4.5,6c-1.9,1.7-4.2,2.9-6.9,3.8s-5.5,1.3-8.6,1.3h-1.2V777.5z M666.3,699.8
		c0-1.1,0.4-2,1.2-2.8s1.7-1.2,2.8-1.2s2,0.4,2.8,1.2s1.2,1.7,1.2,2.8s-0.4,2-1.2,2.8s-1.7,1.2-2.8,1.2s-2-0.4-2.8-1.2
		S666.3,700.9,666.3,699.8z"/>
	<path d="M700.1,678.6h6.3V731c2.8,0,5.5-0.6,8.1-1.7c2.6-1.2,4.8-2.7,6.8-4.7s3.5-4.2,4.7-6.8s1.7-5.3,1.7-8.1h6.4
		c0,2.7-0.4,5.4-1.2,7.9s-1.9,4.8-3.3,6.9c-1.4,2.1-3.1,4-5.1,5.7s-4.1,3.1-6.5,4.1c2.8,1.4,5.5,3.3,8.1,5.5s4.9,4.7,6.9,7.3
		s3.6,5.4,4.7,8.3c1.2,2.9,1.7,5.7,1.7,8.5H733c0-1.9-0.4-3.8-1.2-5.9c-0.8-2-1.9-4.1-3.2-6c-1.3-2-2.9-3.9-4.7-5.7
		s-3.7-3.4-5.6-4.8c-2-1.4-4-2.5-6-3.3s-4-1.3-5.9-1.3V764h-6.3V678.6z"/>
	<path d="M765.7,678.7h6.3v85.2h-6.3V678.7z"/>
</g>
<g>
	<path d="M32.2,840.9c0-4.1,0.4-7.7,1.1-10.7c0.7-3,1.7-5.5,2.9-7.5s2.5-3.7,4-4.9s3-2.2,4.5-2.8s3-1.1,4.4-1.3s2.7-0.3,3.8-0.3
		c2.4,0,4.5,0.4,6.4,1.1c1.9,0.7,3.6,1.6,5.1,2.7c1.5-1.1,3.2-2,5.2-2.7c1.9-0.7,4.1-1.1,6.6-1.1c3.8,0,7,0.7,9.6,2.2
		c2.6,1.4,4.7,3.4,6.4,5.9c1.7,2.5,2.9,5.4,3.6,8.8c0.7,3.3,1.1,6.9,1.1,10.7v27h-6.4v-27.1c0-2.8-0.2-5.5-0.7-8.1
		c-0.4-2.6-1.2-4.8-2.3-6.8c-1.1-2-2.5-3.5-4.4-4.7c-1.8-1.2-4.2-1.7-7-1.7c-2.9,0-5.4,0.6-7.4,1.9c1.7,2.5,2.9,5.4,3.6,8.7
		c0.8,3.3,1.2,6.9,1.2,10.7V868h-6.4v-27.1c0-2.8-0.2-5.5-0.7-8.1c-0.4-2.6-1.2-4.8-2.3-6.8c-1.1-2-2.5-3.5-4.4-4.7
		c-1.8-1.2-4.2-1.7-7-1.7s-5.1,0.6-6.9,1.7c-1.8,1.1-3.3,2.6-4.3,4.5c-1.1,1.9-1.9,4-2.3,6.5c-0.5,2.5-0.7,5.1-0.8,7.8v28H32v-24.9
		v-2.3H32.2z M46,838.2c0-1.8,0.6-3.3,1.9-4.6c1.3-1.3,2.8-1.9,4.6-1.9s3.3,0.6,4.6,1.9c1.3,1.3,1.9,2.8,1.9,4.6s-0.6,3.4-1.9,4.6
		c-1.3,1.3-2.8,1.9-4.6,1.9s-3.3-0.6-4.6-1.9C46.7,841.5,46,840,46,838.2z M50,838.1c0,0.7,0.3,1.4,0.8,1.9s1.2,0.8,1.9,0.8
		s1.4-0.3,1.9-0.8s0.8-1.2,0.8-1.9s-0.3-1.4-0.8-1.9s-1.2-0.8-1.9-0.8s-1.4,0.3-1.9,0.8C50.3,836.7,50,837.4,50,838.1z"/>
	<path d="M140,840.9c0-2.8-0.2-5.5-0.7-8.1c-0.4-2.6-1.2-4.8-2.3-6.8s-2.5-3.5-4.4-4.7c-1.8-1.2-4.2-1.7-7-1.7s-5.1,0.6-6.9,1.7
		c-1.8,1.1-3.3,2.6-4.3,4.5c-1.1,1.9-1.9,4-2.3,6.5c-0.5,2.5-0.7,5.1-0.8,7.8v28h-6.4V844v-3c0-4.1,0.4-7.7,1.1-10.7
		s1.7-5.5,2.9-7.5c1.2-2,2.5-3.7,4-4.9s3-2.2,4.5-2.8s3-1.1,4.4-1.3s2.7-0.3,3.8-0.3c3.8,0,7,0.7,9.6,2.2c2.6,1.4,4.7,3.4,6.4,5.9
		s2.9,5.4,3.6,8.8c0.7,3.3,1.1,6.9,1.1,10.7V868H140V840.9z M119,838.1c0-1.8,0.6-3.3,1.9-4.6s2.8-1.9,4.6-1.9
		c1.8,0,3.3,0.6,4.6,1.9c1.3,1.3,1.9,2.8,1.9,4.6s-0.6,3.3-1.9,4.6c-1.3,1.3-2.8,1.9-4.6,1.9c-1.8,0-3.3-0.6-4.6-1.9
		C119.7,841.4,119,839.9,119,838.1z M123,838c0,0.7,0.3,1.4,0.8,1.9s1.2,0.8,1.9,0.8c0.7,0,1.4-0.3,1.9-0.8s0.8-1.2,0.8-1.9
		s-0.3-1.4-0.8-1.9s-1.2-0.8-1.9-0.8c-0.7,0-1.4,0.3-1.9,0.8C123.2,836.6,123,837.3,123,838z"/>
	<path d="M153.1,840.9c0-3.8,0.7-7.3,2.2-10.7c1.5-3.3,3.5-6.3,6-8.8s5.4-4.5,8.8-5.9c3.4-1.4,6.9-2.2,10.7-2.2s7.3,0.7,10.7,2.2
		c3.3,1.4,6.3,3.4,8.8,5.9s4.5,5.4,6,8.8c1.5,3.3,2.2,6.9,2.2,10.7s-0.7,7.3-2.2,10.7c-1.5,3.3-3.5,6.3-6,8.8s-5.5,4.5-8.8,5.9
		s-6.9,2.2-10.7,2.2s-7.3-0.7-10.7-2.2c-3.4-1.4-6.3-3.4-8.8-5.9s-4.5-5.4-6-8.8C153.8,848.2,153.1,844.6,153.1,840.9z M159.4,840.9
		c0,2.8,0.6,5.5,1.7,8.1c1.2,2.6,2.7,4.8,4.7,6.8s4.2,3.5,6.8,4.7s5.3,1.7,8.1,1.7s5.5-0.6,8.1-1.7c2.6-1.2,4.8-2.7,6.8-4.7
		s3.5-4.2,4.7-6.8s1.7-5.3,1.7-8.1s-0.6-5.5-1.7-8.1c-1.2-2.6-2.7-4.8-4.7-6.8s-4.2-3.5-6.8-4.7s-5.3-1.7-8.1-1.7s-5.5,0.6-8.1,1.7
		c-2.6,1.2-4.8,2.7-6.8,4.7s-3.5,4.2-4.7,6.8C160,835.3,159.4,838,159.4,840.9z M174.1,841c0-1.8,0.6-3.3,1.9-4.6
		c1.3-1.3,2.8-1.9,4.6-1.9s3.3,0.6,4.6,1.9c1.3,1.3,1.9,2.8,1.9,4.6s-0.6,3.3-1.9,4.6c-1.3,1.3-2.8,1.9-4.6,1.9s-3.3-0.6-4.6-1.9
		C174.7,844.3,174.1,842.8,174.1,841z M178,840.9c0,0.7,0.3,1.4,0.8,1.9s1.2,0.8,1.9,0.8s1.4-0.3,1.9-0.8s0.8-1.2,0.8-1.9
		s-0.3-1.4-0.8-1.9s-1.2-0.8-1.9-0.8s-1.4,0.3-1.9,0.8S178,840.1,178,840.9z"/>
	<path d="M215.8,840.9c0-3.8,0.7-7.3,2.2-10.7c1.5-3.3,3.5-6.3,6-8.8s5.4-4.5,8.8-5.9c3.4-1.4,6.9-2.2,10.7-2.2s7.3,0.7,10.7,2.2
		c3.3,1.4,6.3,3.4,8.8,5.9s4.5,5.4,6,8.8c1.5,3.3,2.2,6.9,2.2,10.7s-0.7,7.3-2.2,10.7c-1.5,3.3-3.5,6.3-6,8.8s-5.5,4.5-8.8,5.9
		s-6.9,2.2-10.7,2.2c-4.3,0-8.3-1-11.9-2.9s-6.8-4.4-9.4-7.4v29.3h-6.4L215.8,840.9L215.8,840.9z M222.2,840.9
		c0,2.8,0.6,5.5,1.7,8.1c1.2,2.6,2.7,4.8,4.7,6.8s4.2,3.5,6.8,4.7s5.3,1.7,8.1,1.7s5.5-0.6,8.1-1.7c2.6-1.2,4.8-2.7,6.8-4.7
		s3.5-4.2,4.7-6.8s1.7-5.3,1.7-8.1s-0.6-5.5-1.7-8.1c-1.2-2.6-2.7-4.8-4.7-6.8s-4.2-3.5-6.8-4.7s-5.3-1.7-8.1-1.7s-5.5,0.6-8.1,1.7
		c-2.6,1.2-4.8,2.7-6.8,4.7s-3.5,4.2-4.7,6.8C222.8,835.3,222.2,838,222.2,840.9z M236.8,841c0-1.8,0.6-3.3,1.9-4.6
		c1.3-1.3,2.8-1.9,4.6-1.9s3.3,0.6,4.6,1.9c1.3,1.3,1.9,2.8,1.9,4.6s-0.6,3.3-1.9,4.6c-1.3,1.3-2.8,1.9-4.6,1.9s-3.3-0.6-4.6-1.9
		C237.5,844.3,236.8,842.8,236.8,841z M240.8,840.9c0,0.7,0.3,1.4,0.8,1.9s1.2,0.8,1.9,0.8s1.4-0.3,1.9-0.8s0.8-1.2,0.8-1.9
		s-0.3-1.4-0.8-1.9s-1.2-0.8-1.9-0.8s-1.4,0.3-1.9,0.8S240.8,840.1,240.8,840.9z"/>
	<path d="M327.6,858.1c-2.6,3-5.7,5.5-9.4,7.4c-3.7,1.9-7.7,2.9-11.9,2.9c-3.8,0-7.3-0.7-10.7-2.2c-3.4-1.4-6.3-3.4-8.8-5.9
		s-4.5-5.4-6-8.8c-1.5-3.3-2.2-6.9-2.2-10.7s0.7-7.3,2.2-10.7c1.5-3.3,3.5-6.3,6-8.8s5.4-4.5,8.8-5.9s6.9-2.2,10.7-2.2
		c3.8,0,7.3,0.7,10.7,2.2c3.3,1.4,6.3,3.4,8.8,5.9s4.5,5.4,6,8.8c1.5,3.3,2.2,6.9,2.2,10.7v46.5h-6.4L327.6,858.1L327.6,858.1z
		 M284.9,840.9c0,2.8,0.6,5.5,1.7,8.1c1.2,2.6,2.7,4.8,4.7,6.8s4.2,3.5,6.8,4.7c2.6,1.2,5.3,1.7,8.1,1.7c2.7,0,5.4-0.6,7.9-1.7
		c2.5-1.1,4.8-2.6,6.7-4.5c1.9-1.9,3.5-4,4.7-6.5s1.9-5.1,2-7.8v-0.9c0-2.8-0.6-5.5-1.7-8.1c-1.2-2.6-2.7-4.8-4.7-6.8
		s-4.2-3.5-6.8-4.7c-2.6-1.2-5.3-1.7-8.1-1.7c-2.8,0-5.5,0.6-8.1,1.7c-2.6,1.2-4.8,2.7-6.8,4.7s-3.5,4.2-4.7,6.8
		C285.5,835.3,284.9,838,284.9,840.9z M299.6,841c0-1.8,0.6-3.3,1.9-4.6s2.8-1.9,4.6-1.9c1.8,0,3.3,0.6,4.6,1.9
		c1.3,1.3,1.9,2.8,1.9,4.6s-0.6,3.3-1.9,4.6s-2.8,1.9-4.6,1.9c-1.8,0-3.3-0.6-4.6-1.9C300.2,844.3,299.6,842.8,299.6,841z
		 M303.5,840.9c0,0.7,0.3,1.4,0.8,1.9s1.2,0.8,1.9,0.8c0.7,0,1.4-0.3,1.9-0.8s0.8-1.2,0.8-1.9s-0.3-1.4-0.8-1.9s-1.2-0.8-1.9-0.8
		c-0.7,0-1.4,0.3-1.9,0.8S303.5,840.1,303.5,840.9z"/>
	<path d="M341.3,840c0-2.7,0.6-5.6,1.7-8.7c1.2-3.1,2.9-5.9,5.2-8.5c2.3-2.6,5.2-4.8,8.6-6.5c3.5-1.7,7.5-2.6,12.1-2.6v5.8
		c-2.8,0-5.4,0.6-8,1.7c-2.5,1.1-4.7,2.6-6.7,4.5c-1.9,1.9-3.5,4-4.7,6.5s-1.9,5.1-2,7.8v27.9h-6.4V840H341.3z"/>
	<path d="M412.1,825.9c-1-1-2.1-1.9-3.5-2.7c-1.3-0.8-2.8-1.5-4.3-2.1s-3-1.1-4.6-1.4c-1.6-0.3-3.1-0.5-4.5-0.5s-2.9,0.1-4.4,0.4
		c-1.5,0.3-3,0.7-4.4,1.3s-2.8,1.3-4,2.2s-2.3,1.8-3.2,2.9c-1.2,1.5-1.5,2.8-0.9,3.9c0.6,1,1.9,1.9,3.7,2.6c1.9,0.7,4.2,1.4,6.9,1.9
		c2.7,0.6,5.6,1.2,8.6,1.8s5.9,1.4,8.8,2.3c2.9,0.9,5.4,1.9,7.6,3.2s3.8,2.9,4.9,4.7c1.1,1.9,1.4,4.1,0.7,6.8
		c-0.7,2.9-1.8,5.4-3.4,7.3c-1.6,1.9-3.5,3.5-5.7,4.7s-4.6,2-7.3,2.4c-2.6,0.5-5.3,0.7-8.1,0.7c-2.7,0-5.4-0.4-8-1.2s-4.9-2-7.1-3.4
		s-4.2-3.2-5.9-5.2c-1.7-2-3.1-4.1-4.2-6.5h6.2c1,1.5,2.2,2.9,3.6,4.1c1.4,1.3,3,2.4,4.6,3.3c1.7,0.9,3.4,1.7,5.3,2.2
		s3.7,0.8,5.5,0.8c2.7,0,5.1-0.2,7.2-0.6c2.1-0.4,3.9-1,5.4-1.8s2.8-1.9,3.8-3.2s1.8-2.9,2.5-4.8c0.4-1.2,0.2-2.3-0.5-3.2
		c-0.8-0.9-2-1.7-3.6-2.4s-3.6-1.4-5.9-1.9c-2.3-0.6-4.7-1.1-7.2-1.7c-2.5-0.6-5.1-1.2-7.6-1.7c-2.6-0.6-5-1.3-7.2-2
		s-4.2-1.6-5.9-2.6c-1.7-1-3-2.1-3.8-3.5c-0.8-1.3-1-2.8-0.7-4.5s1.4-3.7,3.2-5.9c2.4-2.9,5.4-5.2,9-6.8s7.4-2.4,11.4-2.4
		c2.4,0,4.7,0.3,6.9,0.9c2.2,0.6,4.3,1.5,6.3,2.6s3.8,2.4,5.5,4c1.7,1.5,3.1,3.2,4.3,5L412.1,825.9L412.1,825.9z"/>
	<path d="M422.6,824.6v-6.3c1.2-0.2,2.4-0.4,3.5-0.6c1.1-0.2,2.3-0.4,3.5-0.6v-24.9h6.3V816c2.1-0.4,4.1-0.8,6.2-1.1
		c2-0.3,4.1-0.7,6.2-1.1v6.3l-12.3,2.2V851c0,1.6,0.2,2.9,0.5,4s0.8,2.1,1.4,2.9c0.6,0.8,1.3,1.4,2,1.9s1.5,0.9,2.2,1.2
		c1.8,0.7,3.9,0.9,6.2,0.7v6.3c-4.7,0-8.2-0.6-10.8-1.8c-2.5-1.2-4.4-2.7-5.5-4.5c-1.2-1.8-1.8-3.6-2-5.6s-0.3-3.7-0.3-5.2v-27.6
		L422.6,824.6z"/>
	<path d="M461.9,840.9c0,2.8,0.2,5.5,0.7,8.1c0.4,2.6,1.2,4.8,2.3,6.8c1.1,2,2.5,3.5,4.4,4.7c1.8,1.2,4.2,1.7,7,1.7s5.2-0.6,7-1.7
		c1.8-1.2,3.3-2.7,4.4-4.7s1.8-4.2,2.3-6.8c0.4-2.6,0.7-5.3,0.7-8.1v-27.1h6.4V868h-6.4v-5.8c-1.7,1.8-3.7,3.3-6,4.5
		c-2.4,1.2-5.1,1.7-8.3,1.7c-3.8,0-7-0.7-9.6-2.2s-4.7-3.4-6.4-5.9s-2.9-5.4-3.6-8.8c-0.7-3.3-1.1-6.9-1.1-10.7v-27.1h6.4v27.2
		H461.9z M470.4,841c0-1.8,0.6-3.3,1.9-4.6s2.8-1.9,4.6-1.9c1.8,0,3.3,0.6,4.6,1.9c1.3,1.3,1.9,2.8,1.9,4.6s-0.6,3.3-1.9,4.6
		s-2.8,1.9-4.6,1.9c-1.8,0-3.3-0.6-4.6-1.9C471,844.3,470.4,842.8,470.4,841z M474.3,840.9c0,0.7,0.3,1.4,0.8,1.9s1.2,0.8,1.9,0.8
		c0.7,0,1.4-0.3,1.9-0.8s0.8-1.2,0.8-1.9s-0.3-1.4-0.8-1.9s-1.2-0.8-1.9-0.8c-0.7,0-1.4,0.3-1.9,0.8
		C474.6,839.5,474.3,840.1,474.3,840.9z"/>
	<path d="M525.1,868c-3.8,0-7-0.7-9.6-2.1c-2.6-1.4-4.7-3.4-6.4-5.8c-1.7-2.5-2.9-5.3-3.6-8.6s-1.1-6.8-1.1-10.6v-27.1h6.4v27.1
		c0,2.8,0.2,5.5,0.7,8.1c0.4,2.6,1.2,4.8,2.3,6.8s2.5,3.5,4.4,4.7s4.2,1.7,7,1.7c0.3,0,0.5,0,0.9,0c0.3,0,0.6,0,0.9-0.1l14.4-48.4
		h6.4L531.5,868H525.1z M515.5,841c0-1.8,0.6-3.3,1.9-4.6c1.3-1.3,2.8-1.9,4.6-1.9s3.3,0.6,4.6,1.9c1.3,1.3,1.9,2.8,1.9,4.6
		s-0.6,3.3-1.9,4.6c-1.3,1.3-2.8,1.9-4.6,1.9s-3.3-0.6-4.6-1.9C516.1,844.3,515.5,842.8,515.5,841z M519.5,840.9
		c0,0.7,0.3,1.4,0.8,1.9s1.2,0.8,1.9,0.8s1.4-0.3,1.9-0.8s0.8-1.2,0.8-1.9s-0.3-1.4-0.8-1.9s-1.2-0.8-1.9-0.8s-1.4,0.3-1.9,0.8
		C519.7,839.5,519.5,840.1,519.5,840.9z"/>
	<path d="M576.6,868h-0.9c-3.8,0-7-0.7-9.6-2.1c-2.6-1.4-4.7-3.4-6.4-5.8c-1.7-2.5-2.9-5.3-3.6-8.6c-0.7-3.3-1.1-6.8-1.1-10.6v-27.1
		h6.4v27.1c0,2.8,0.2,5.5,0.7,8.1c0.4,2.6,1.2,4.8,2.3,6.8s2.5,3.5,4.4,4.7s4.2,1.7,7,1.7c0.3,0,0.5,0,0.9,0c0.3,0,0.6,0,0.9-0.1
		l14.4-48.4h6.4L585.7,856c1.1,1.9,2.5,3.4,4.4,4.5c1.8,1.1,4.1,1.7,6.9,1.7c0.3,0,0.5,0,0.9,0c0.3,0,0.6,0,0.9-0.1l14.4-48.4h6.4
		L603.4,868h-5.5H597c-2.9,0-5.5-0.4-7.7-1.3c-2.2-0.9-4.1-2.1-5.8-3.6l-1.4,4.9L576.6,868L576.6,868z M566.2,841
		c0-1.8,0.6-3.3,1.9-4.6c1.3-1.3,2.8-1.9,4.6-1.9s3.3,0.6,4.6,1.9c1.3,1.3,1.9,2.8,1.9,4.6s-0.6,3.3-1.9,4.6
		c-1.3,1.3-2.8,1.9-4.6,1.9s-3.3-0.6-4.6-1.9C566.8,844.3,566.2,842.8,566.2,841z M570.1,840.9c0,0.7,0.3,1.4,0.8,1.9
		s1.2,0.8,1.9,0.8s1.4-0.3,1.9-0.8s0.8-1.2,0.8-1.9s-0.3-1.4-0.8-1.9s-1.2-0.8-1.9-0.8s-1.4,0.3-1.9,0.8
		C570.4,839.5,570.1,840.1,570.1,840.9z"/>
	<path d="M676.1,868c-2.6,0-5.2-0.3-7.6-1c-2.5-0.7-4.7-1.7-6.9-3c-2.1-1.3-4-2.8-5.8-4.7c-1.7-1.8-3.2-3.8-4.3-6
		c-1.2,2.2-2.6,4.2-4.3,6s-3.6,3.4-5.7,4.7c-2.1,1.3-4.4,2.3-6.8,3c-2.5,0.7-5,1-7.6,1v-5.8c2.8,0,5.5-0.6,8.1-1.7s4.8-2.7,6.8-4.7
		s3.5-4.2,4.7-6.8s1.7-5.3,1.7-8.1s-0.6-5.5-1.7-8.1c-1.2-2.6-2.7-4.8-4.7-6.8s-4.2-3.5-6.8-4.7s-5.3-1.7-8.1-1.7v-5.8
		c2.6,0,5.2,0.4,7.6,1.1c2.5,0.7,4.7,1.7,6.8,3s4,2.8,5.7,4.6s3.2,3.8,4.3,6c1.1-2.2,2.6-4.2,4.3-6s3.7-3.3,5.8-4.6s4.4-2.3,6.9-3
		s5-1.1,7.6-1.1v5.8c-2.8,0-5.5,0.6-8.1,1.7c-2.6,1.2-4.8,2.7-6.8,4.7s-3.5,4.2-4.7,6.8s-1.7,5.3-1.7,8.1s0.6,5.5,1.7,8.1
		c1.2,2.6,2.7,4.8,4.7,6.8s4.2,3.5,6.8,4.7s5.3,1.7,8.1,1.7V868z"/>
	<path d="M724.9,813.6v26.7V868c0,3.7-0.7,6.8-2.1,9.3c-1.4,2.5-3.2,4.5-5.5,5.9c-2.3,1.5-4.9,2.5-7.8,3.2c-2.9,0.6-5.9,1-8.9,1
		c-3.1,0-6.1-0.2-9.1-0.7s-5.7-1-8.1-1.7v-6c4.5,1.6,8.9,2.4,13.1,2.5c4.2,0.1,8-0.4,11.2-1.5c3.3-1.1,5.9-2.7,7.8-4.8
		c2-2.1,2.9-4.5,2.9-7.3v-6c-1.7,1.9-3.7,3.4-6,4.6c-2.4,1.2-5.2,1.8-8.4,1.8c-3.8,0-7-0.7-9.6-2.2s-4.7-3.5-6.4-6s-2.9-5.4-3.6-8.8
		c-0.7-3.3-1.1-6.9-1.1-10.7v-27.1h6.4v27.1c0,2.8,0.2,5.6,0.7,8.1c0.4,2.6,1.2,4.9,2.3,6.8c1.1,2,2.5,3.5,4.4,4.7
		c1.8,1.2,4.2,1.7,7,1.7s5.2-0.6,7-1.7c1.8-1.2,3.3-2.7,4.4-4.7c1.1-2,1.8-4.2,2.3-6.8c0.4-2.6,0.7-5.3,0.7-8.1v-27.1L724.9,813.6
		L724.9,813.6z M697.7,841c0,1.8,0.6,3.3,1.9,4.6c1.3,1.3,2.8,1.9,4.6,1.9s3.3-0.6,4.6-1.9c1.3-1.3,1.9-2.8,1.9-4.6
		s-0.6-3.3-1.9-4.6c-1.3-1.3-2.8-1.9-4.6-1.9s-3.3,0.6-4.6,1.9C698.3,837.6,697.7,839.1,697.7,841z M701.6,840.9
		c0-0.7,0.3-1.4,0.8-1.9s1.2-0.8,1.9-0.8s1.4,0.3,1.9,0.8s0.8,1.2,0.8,1.9s-0.3,1.4-0.8,1.9s-1.2,0.8-1.9,0.8s-1.4-0.3-1.9-0.8
		C701.9,842.2,701.6,841.6,701.6,840.9z"/>
	<path d="M730.9,868l29.3-47.9H731v-6.4h41.3L743,861.6h29.3v6.4H730.9z"/>
</g>
<g>
	<g>
		<path d="M67.9,964.1c0,2.6,0.5,5.1,1.5,7.3c1,2.3,2.4,4.3,4.2,6c1.8,1.7,3.8,3,6.1,4c2.3,1,4.8,1.5,7.4,1.5s5.1-0.5,7.4-1.5
			s4.3-2.3,6.1-4c1.8-1.7,3.1-3.7,4.2-6c1-2.3,1.5-4.7,1.5-7.3s-0.5-5.1-1.5-7.3c-1-2.3-2.4-4.3-4.2-6c-1.8-1.7-3.8-3-6.1-4
			c-2.3-1-4.8-1.5-7.4-1.5v-5.7c3.4,0,6.6,0.6,9.6,1.9c3,1.3,5.7,3,7.9,5.3c2.3,2.2,4.1,4.8,5.4,7.8s2,6.1,2,9.6
			c0,3.4-0.7,6.6-2,9.6s-3.1,5.6-5.4,7.9c-2.3,2.3-4.9,4-7.9,5.4c-3,1.3-6.2,2-9.6,2s-6.6-0.7-9.7-2c-3-1.3-5.7-3.1-7.9-5.4
			c-2.3-2.3-4.1-4.9-5.4-7.9c-1.3-3-2-6.2-2-9.6L67.9,964.1L67.9,964.1z M96.6,930.2c0-1.3-0.3-2.5-0.8-3.6s-1.2-2.2-2.1-3
			c-0.9-0.9-1.9-1.6-3-2.1s-2.3-0.8-3.6-0.8c-1.3,0-2.5,0.3-3.6,0.8s-2.1,1.2-3,2.1c-0.9,0.9-1.6,1.9-2.1,3s-0.8,2.3-0.8,3.6
			s0.3,2.5,0.8,3.6s1.2,2.1,2.1,3s1.9,1.6,3,2.1s2.3,0.8,3.6,0.8v5.6c-2.1,0-4.1-0.4-5.9-1.2c-1.9-0.8-3.5-1.9-4.9-3.2
			c-1.4-1.4-2.5-3-3.4-4.8c-0.8-1.8-1.2-3.8-1.2-5.8c0-2.1,0.4-4.1,1.2-6c0.8-1.9,1.9-3.5,3.4-4.9c1.4-1.4,3.1-2.5,4.9-3.4
			c1.9-0.8,3.8-1.3,5.9-1.3s4,0.4,5.9,1.3c1.9,0.8,3.5,2,4.9,3.4s2.5,3,3.3,4.9s1.2,3.9,1.2,6L96.6,930.2L96.6,930.2z M100.5,900.2
			l-11.4,10.7H85l-11.4-10.6h6.7l6.7,6.9l6.9-6.9h6.6V900.2z M81.1,964.2c0-1.6,0.6-3,1.7-4.2c1.1-1.1,2.5-1.7,4.2-1.7
			c1.6,0,3,0.6,4.2,1.7c1.1,1.1,1.7,2.5,1.7,4.2c0,1.6-0.6,3-1.7,4.2c-1.1,1.1-2.5,1.7-4.2,1.7c-1.6,0-3-0.6-4.2-1.7
			C81.7,967.2,81.1,965.9,81.1,964.2z M84.7,964.1c0,0.7,0.2,1.2,0.7,1.7s1.1,0.7,1.7,0.7c0.7,0,1.2-0.2,1.7-0.7s0.7-1.1,0.7-1.7
			c0-0.7-0.2-1.2-0.7-1.7s-1.1-0.7-1.7-0.7c-0.7,0-1.2,0.2-1.7,0.7C84.9,962.9,84.7,963.5,84.7,964.1z M89.1,910.9
			c-0.1,0.1-0.3,0.3-0.5,0.3c-0.4,0.2-0.9,0.3-1.5,0.3c-0.7,0-1.2-0.1-1.6-0.3c-0.2-0.1-0.4-0.2-0.5-0.3H89.1z"/>
		<path d="M113.5,988.6l27.9-67.8h-27.8v-5.7h37.2L123,982.9h27.9v5.7L113.5,988.6L113.5,988.6z M145.7,900.2l-11.4,10.7
			c-0.1,0.1-0.3,0.3-0.5,0.3c-0.4,0.2-0.9,0.3-1.5,0.3c-0.7,0-1.2-0.1-1.6-0.3c-0.2-0.1-0.4-0.2-0.5-0.3l-11.4-10.6h6.7l6.7,6.9
			l6.9-6.9h6.6V900.2z"/>
		<path d="M194.5,950.6c-0.9-0.9-1.9-1.7-3.1-2.5c-1.2-0.7-2.5-1.4-3.9-1.9s-2.7-1-4.2-1.3c-1.4-0.3-2.8-0.5-4-0.5s-2.6,0.1-4,0.4
			c-1.4,0.3-2.7,0.7-4,1.2s-2.5,1.2-3.6,2s-2.1,1.6-2.9,2.6c-1.1,1.4-1.4,2.6-0.8,3.5c0.6,0.9,1.7,1.7,3.4,2.4s3.8,1.2,6.2,1.8
			c2.5,0.5,5.1,1.1,7.7,1.6c2.7,0.6,5.3,1.3,7.9,2c2.6,0.8,4.9,1.7,6.9,2.9s3.4,2.6,4.4,4.3s1.2,3.7,0.7,6.2c-0.6,2.7-1.6,4.9-3,6.6
			c-1.4,1.8-3.1,3.1-5.1,4.2c-2,1.1-4.2,1.8-6.5,2.2c-2.4,0.4-4.8,0.6-7.3,0.6s-4.9-0.4-7.2-1.1c-2.3-0.7-4.5-1.8-6.4-3.1
			c-2-1.3-3.8-2.9-5.3-4.7c-1.6-1.8-2.8-3.7-3.8-5.8h5.6c0.9,1.4,2,2.6,3.3,3.7c1.3,1.1,2.7,2.1,4.2,3c1.5,0.8,3.1,1.5,4.8,2
			s3.3,0.7,5,0.7c2.5,0,4.6-0.2,6.5-0.5c1.9-0.4,3.5-0.9,4.9-1.6c1.4-0.7,2.5-1.7,3.4-2.9s1.7-2.6,2.3-4.4c0.4-1.1,0.2-2.1-0.5-2.9
			c-0.7-0.8-1.8-1.6-3.3-2.2c-1.5-0.7-3.2-1.2-5.3-1.8c-2.1-0.5-4.2-1-6.5-1.5s-4.6-1-6.9-1.6c-2.3-0.5-4.5-1.1-6.5-1.8
			s-3.8-1.5-5.4-2.3c-1.6-0.9-2.7-1.9-3.4-3.1c-0.7-1.2-0.9-2.6-0.7-4.1c0.3-1.5,1.2-3.3,2.9-5.3c2.1-2.7,4.8-4.7,8.1-6.2
			c3.2-1.4,6.7-2.2,10.3-2.2c2.1,0,4.2,0.3,6.2,0.8c2,0.6,3.9,1.3,5.7,2.3s3.4,2.2,4.9,3.6c1.5,1.4,2.8,2.9,3.9,4.5h-5.6V950.6z
			 M192,923.3L180.6,934c-0.1,0.1-0.3,0.3-0.5,0.3c-0.4,0.2-0.9,0.4-1.5,0.4c-0.7,0-1.2-0.1-1.6-0.4c-0.2-0.1-0.3-0.2-0.5-0.3
			l-11.4-10.6h6.7l6.7,6.9l6.9-6.9h6.6V923.3z"/>
		<path d="M207.9,988.6l26.5-43.3H208v-5.7h37.2l-26.5,43.3h26.5v5.7H207.9z M241.6,923.3L230.2,934c-0.1,0.1-0.3,0.3-0.5,0.3
			c-0.4,0.2-0.9,0.4-1.5,0.4c-0.7,0-1.2-0.1-1.6-0.4c-0.2-0.1-0.4-0.2-0.5-0.3l-11.4-10.6h6.7l6.7,6.9l6.9-6.9h6.6V923.3z"/>
		<path d="M250.9,939.6c0-3.4,0.7-6.6,2-9.6s3.1-5.6,5.4-7.9c2.3-2.3,4.9-4,7.9-5.4c3-1.3,6.3-2,9.7-2c3.4,0,6.6,0.7,9.6,2
			s5.7,3.1,7.9,5.4c2.3,2.3,4.1,4.9,5.4,7.9s2,6.2,2,9.6h-5.7c0-2.6-0.5-5-1.6-7.3c-1-2.3-2.5-4.4-4.2-6.1c-1.8-1.8-3.8-3.2-6.1-4.2
			s-4.7-1.6-7.3-1.6c-2.6,0-5,0.5-7.3,1.6c-2.3,1-4.4,2.5-6.1,4.2c-1.8,1.8-3.2,3.8-4.2,6.1s-1.6,4.7-1.6,7.3v24.6
			c0,2.6,0.5,5,1.6,7.3s2.5,4.3,4.2,6.1c1.8,1.8,3.8,3.2,6.1,4.2c2.3,1,4.7,1.6,7.3,1.6c2.6,0,5-0.5,7.3-1.6s4.4-2.5,6.1-4.2
			c1.8-1.8,3.2-3.8,4.2-6.1s1.6-4.7,1.6-7.3h5.7c0,3.4-0.7,6.6-2,9.6s-3.1,5.6-5.4,7.9c-2.3,2.2-4.9,4-7.9,5.3s-6.2,2-9.6,2
			s-6.6-0.7-9.7-2c-3-1.3-5.7-3.1-7.9-5.3c-2.3-2.2-4.1-4.9-5.4-7.9c-1.3-3-2-6.2-2-9.6V939.6z M288.9,900.2l-11.4,10.7h-4.1
			L262,900.2h6.7l6.7,6.9l6.9-6.9H288.9z M269.9,951.9c0-1.6,0.6-3,1.7-4.2c1.1-1.1,2.5-1.7,4.2-1.7c1.6,0,3,0.6,4.2,1.7
			c1.1,1.1,1.7,2.5,1.7,4.2c0,1.6-0.6,3-1.7,4.2c-1.1,1.1-2.5,1.7-4.2,1.7c-1.6,0-3-0.6-4.2-1.7
			C270.5,954.9,269.9,953.5,269.9,951.9z M277.5,910.9c-0.1,0.1-0.3,0.3-0.5,0.3c-0.4,0.2-0.9,0.3-1.5,0.3c-0.7,0-1.2-0.1-1.6-0.3
			c-0.2-0.1-0.3-0.2-0.5-0.3H277.5z M273.5,951.8c0,0.7,0.2,1.2,0.7,1.7s1.1,0.7,1.7,0.7c0.7,0,1.2-0.2,1.7-0.7s0.7-1.1,0.7-1.7
			c0-0.7-0.2-1.2-0.7-1.7s-1.1-0.7-1.7-0.7c-0.7,0-1.2,0.2-1.7,0.7S273.5,951.2,273.5,951.8z"/>
		<path d="M359.3,978.1c-1.1,1.6-2.4,3-3.9,4.4c-1.5,1.3-3.1,2.5-4.9,3.5s-3.6,1.7-5.6,2.3c-2,0.5-4,0.8-6.1,0.8
			c-3.4,0-6.6-0.7-9.7-2s-5.7-3.1-8-5.4c-2.3-2.3-4.2-4.9-5.5-7.9c-1.4-3-2.1-6.2-2.1-9.6c0-3.4,0.7-6.6,2.1-9.6s3.2-5.6,5.5-7.9
			c2.3-2.3,5-4,8-5.4c3.1-1.3,6.3-2,9.7-2c2.1,0,4.1,0.2,6.2,0.6c2.1,0.4,4.1,1.1,6.1,2.1s3.8,2.3,5.6,4c1.8,1.7,3.4,3.7,4.8,6.3
			H355c-0.9-1.1-2-2.1-3.2-3c-1.3-0.9-2.6-1.6-4-2.2c-1.4-0.6-2.9-1-4.4-1.4c-1.5-0.3-3-0.5-4.5-0.5c-2.6,0-5,0.5-7.4,1.5
			s-4.5,2.4-6.3,4.1c-1.8,1.7-3.3,3.7-4.4,6s-1.6,4.7-1.6,7.3s0.5,5,1.6,7.3s2.6,4.3,4.4,6s3.9,3.1,6.3,4.1s4.9,1.5,7.4,1.5
			c3.3,0,6.4-0.8,9.2-2.4c2.8-1.6,5.1-3.7,6.9-6.4v0.1l6.6-0.1c-0.3,0.7-0.7,1.3-1,1.9C360.1,976.9,359.7,977.5,359.3,978.1z
			 M332.8,964.2c0-1.6,0.6-3,1.7-4.2c1.1-1.1,2.5-1.7,4.2-1.7c1.6,0,3,0.6,4.2,1.7c1.1,1.1,1.7,2.5,1.7,4.2c0,1.6-0.6,3-1.7,4.2
			c-1.1,1.1-2.5,1.7-4.2,1.7c-1.6,0-3-0.6-4.2-1.7C333.3,967.2,332.8,965.9,332.8,964.2z M351.2,923.3L339.8,934
			c-0.1,0.1-0.3,0.3-0.5,0.3c-0.4,0.2-0.9,0.4-1.5,0.4c-0.7,0-1.2-0.1-1.6-0.4c-0.2-0.1-0.4-0.2-0.5-0.3l8.9-10.7H351.2z
			 M336.3,964.1c0,0.7,0.2,1.2,0.7,1.7s1.1,0.7,1.7,0.7c0.7,0,1.2-0.2,1.7-0.7s0.7-1.1,0.7-1.7c0-0.7-0.2-1.2-0.7-1.7
			s-1.1-0.7-1.7-0.7c-0.7,0-1.2,0.2-1.7,0.7S336.3,963.5,336.3,964.1z"/>
		<path d="M389.7,964.1c0-0.7,0.2-1.3,0.6-1.8c0.4-0.6,1-0.8,1.6-0.8l18.3-3.2c-0.7-1.9-1.6-3.7-2.8-5.3c-1.2-1.6-2.6-3-4.2-4.2
			s-3.3-2.1-5.2-2.8c-1.9-0.7-3.9-1-6-1c-2.6,0-5,0.5-7.4,1.6c-2.3,1-4.4,2.5-6.2,4.2c-1.8,1.8-3.2,3.8-4.3,6.1
			c-1,2.3-1.6,4.7-1.6,7.3s0.5,5,1.6,7.3s2.5,4.4,4.3,6.1c1.8,1.8,3.9,3.2,6.2,4.2c2.3,1,4.8,1.6,7.4,1.6c2.4,0,4.5-0.4,6.4-1.2
			s3.5-1.7,4.8-2.7c1.4-1,2.5-2,3.4-3s1.5-1.7,1.9-2.2h6.3c-0.3,0.7-0.9,1.9-2,3.5s-2.5,3.3-4.3,4.9c-1.8,1.7-4.1,3.2-6.9,4.4
			s-5.9,1.9-9.6,1.9c-3.4,0-6.6-0.7-9.7-2c-3-1.3-5.7-3.1-7.9-5.4c-2.3-2.3-4.1-4.9-5.4-7.9s-2-6.2-2-9.6c0-3.4,0.7-6.6,2-9.6
			s3.1-5.6,5.4-7.9c2.3-2.3,4.9-4,7.9-5.4c3-1.3,6.3-2,9.7-2c3.2,0,6.3,0.6,9.2,1.8c2.9,1.2,5.4,2.9,7.7,4.9c2.2,2.1,4,4.5,5.4,7.3
			s2.2,5.8,2.5,9c-4.1,0.7-7.5,1.4-10.3,1.9s-5.1,0.9-6.9,1.2s-3.2,0.6-4.2,0.7c-1,0.2-1.7,0.3-2.2,0.3c-0.5,0.1-0.8,0.1-0.9,0.1
			s-0.2,0-0.2,0c-0.7,0-1.2-0.2-1.7-0.7C389.9,965.4,389.7,964.8,389.7,964.1z"/>
		<path d="M422.7,964.1c0-3.4,0.7-6.6,2-9.6s3.1-5.6,5.4-7.9c2.3-2.3,4.9-4,7.9-5.4c3-1.3,6.3-2,9.7-2c3.4,0,6.6,0.7,9.6,2
			s5.7,3.1,7.9,5.4c2.3,2.3,4.1,4.9,5.4,7.9s2,6.2,2,9.6c0,3.4-0.7,6.6-2,9.6s-3.1,5.6-5.4,7.9c-2.3,2.3-4.9,4-7.9,5.4
			c-3,1.3-6.2,2-9.6,2s-6.6-0.7-9.7-2c-3-1.3-5.7-3.1-7.9-5.4c-2.3-2.3-4.1-4.9-5.4-7.9S422.7,967.6,422.7,964.1z M428.5,964.1
			c0,2.6,0.5,5,1.6,7.3s2.5,4.4,4.2,6.1c1.8,1.8,3.8,3.2,6.1,4.2c2.3,1,4.7,1.6,7.3,1.6c2.6,0,5-0.5,7.3-1.6c2.3-1,4.4-2.5,6.1-4.2
			s3.2-3.8,4.2-6.1s1.6-4.7,1.6-7.3s-0.5-5-1.6-7.3s-2.5-4.4-4.2-6.1c-1.8-1.8-3.8-3.2-6.1-4.2c-2.3-1-4.7-1.6-7.3-1.6
			c-2.6,0-5,0.5-7.3,1.6c-2.3,1-4.4,2.5-6.1,4.2c-1.8,1.8-3.2,3.8-4.2,6.1C429,959.1,428.5,961.6,428.5,964.1z M441.7,964.2
			c0-1.6,0.6-3,1.7-4.2s2.5-1.7,4.2-1.7c1.6,0,3,0.6,4.2,1.7s1.7,2.5,1.7,4.2c0,1.6-0.6,3-1.7,4.2s-2.5,1.7-4.2,1.7
			c-1.6,0-3-0.6-4.2-1.7S441.7,965.9,441.7,964.2z M445.3,964.1c0,0.7,0.2,1.2,0.7,1.7s1.1,0.7,1.7,0.7c0.7,0,1.2-0.2,1.7-0.7
			s0.7-1.1,0.7-1.7c0-0.7-0.2-1.2-0.7-1.7s-1.1-0.7-1.7-0.7c-0.7,0-1.2,0.2-1.7,0.7C445.5,962.9,445.3,963.5,445.3,964.1z"/>
		<path d="M484.1,964.1c0,2.6,0.2,5,0.6,7.3s1.1,4.4,2.1,6.1c1,1.8,2.3,3.2,4,4.2s3.8,1.6,6.3,1.6c2.6,0,4.7-0.5,6.3-1.6
			c1.7-1,3-2.5,4-4.2c1-1.8,1.7-3.8,2.1-6.1s0.6-4.7,0.6-7.3v-24.5h5.7v49H510v-5.3c-1.5,1.6-3.3,3-5.4,4s-4.6,1.6-7.5,1.6
			c-3.4,0-6.3-0.7-8.6-2c-2.4-1.3-4.3-3.1-5.8-5.4c-1.5-2.3-2.6-4.9-3.3-7.9s-1-6.2-1-9.6v-24.5h5.7L484.1,964.1L484.1,964.1z
			 M491.7,964.2c0-1.6,0.6-3,1.7-4.2c1.1-1.1,2.5-1.7,4.2-1.7c1.6,0,3,0.6,4.2,1.7c1.1,1.1,1.7,2.5,1.7,4.2c0,1.6-0.6,3-1.7,4.2
			c-1.1,1.1-2.5,1.7-4.2,1.7c-1.6,0-3-0.6-4.2-1.7C492.3,967.2,491.7,965.9,491.7,964.2z M495.3,964.1c0,0.7,0.2,1.2,0.7,1.7
			s1.1,0.7,1.7,0.7s1.2-0.2,1.7-0.7s0.7-1.1,0.7-1.7c0-0.7-0.2-1.2-0.7-1.7s-1.1-0.7-1.7-0.7s-1.2,0.2-1.7,0.7
			S495.3,963.5,495.3,964.1z"/>
		<path d="M521.4,988.6l26.5-43.3h-26.4v-5.7h37.2l-26.5,43.3h26.5v5.7H521.4z M555.1,923.3L543.7,934c-0.1,0.1-0.3,0.3-0.5,0.3
			c-0.4,0.2-0.9,0.4-1.5,0.4c-0.7,0-1.2-0.1-1.6-0.4c-0.2-0.1-0.4-0.2-0.5-0.3l-11.4-10.6h6.7l6.7,6.9l6.9-6.9h6.6V923.3z"/>
		<path d="M596.4,915.1l19.2,73.5h-5.9l-17.8-67.9c-2.5-0.3-4.7,0-6.7,0.8s-3.8,2-5.4,3.5s-3,3.4-4.2,5.6c-1.2,2.2-2.1,4.4-2.9,6.8
			c-0.8,2.4-1.4,4.8-1.8,7.3c-0.4,2.5-0.6,4.9-0.7,7.1l-0.1,36.7h-5.7v-36.7c0-2.2,0.2-4.7,0.6-7.4s1-5.4,1.9-8.1
			c0.8-2.7,1.9-5.3,3.2-7.9c1.3-2.6,2.9-4.8,4.7-6.8s4-3.5,6.4-4.8c2.4-1.2,5.1-1.8,8.1-1.8h7.1V915.1z M605,958.7
			c-2.2,1.7-4.6,3.1-7.2,4c-2.6,1-5.4,1.4-8.4,1.4c-2.4,0-4.8-0.3-7-1c-2.3-0.7-4.4-1.6-6.3-2.8c-1.9-1.2-3.7-2.7-5.2-4.3
			s-2.9-3.5-3.9-5.6l3.2-9.2c0.2,2.4,0.9,4.6,2,6.8s2.5,4,4.3,5.6c1.7,1.6,3.7,2.9,5.9,3.8c2.2,0.9,4.5,1.4,7,1.4
			c2.7,0,5.2-0.6,7.6-1.7c2.4-1.1,4.5-2.6,6.3-4.6L605,958.7z M579.7,939.8c0,1.6,0.6,3,1.7,4.2c1.1,1.1,2.5,1.7,4.2,1.7
			s3-0.6,4.2-1.7c1.1-1.1,1.7-2.5,1.7-4.2c0-1.6-0.6-3-1.7-4.2c-1.1-1.1-2.5-1.7-4.2-1.7s-3,0.6-4.2,1.7
			C580.2,936.8,579.7,938.2,579.7,939.8z M583.2,939.7c0-0.7,0.2-1.2,0.7-1.7s1.1-0.7,1.7-0.7c0.7,0,1.2,0.2,1.7,0.7
			s0.7,1.1,0.7,1.7s-0.2,1.2-0.7,1.7s-1.1,0.7-1.7,0.7c-0.7,0-1.2-0.2-1.7-0.7C583.5,940.9,583.2,940.4,583.2,939.7z"/>
		<path d="M616.8,939.6c0-3.4,0.7-6.6,2-9.6s3.1-5.6,5.4-7.9c2.3-2.3,4.9-4,7.9-5.4c3-1.3,6.3-2,9.7-2s6.6,0.7,9.6,2
			s5.7,3.1,7.9,5.4c2.3,2.3,4.1,4.9,5.4,7.9s2,6.2,2,9.6H661c0-2.6-0.5-5-1.6-7.3c-1-2.3-2.5-4.4-4.2-6.1c-1.8-1.8-3.8-3.2-6.1-4.2
			s-4.7-1.6-7.3-1.6s-5,0.5-7.3,1.6c-2.3,1-4.4,2.5-6.1,4.2c-1.8,1.8-3.2,3.8-4.2,6.1c-1.1,2.3-1.6,4.7-1.6,7.3v24.6
			c0,2.6,0.5,5,1.6,7.3c1,2.3,2.5,4.3,4.2,6.1s3.8,3.2,6.1,4.2s4.7,1.6,7.3,1.6s5-0.5,7.3-1.6c2.3-1,4.4-2.5,6.1-4.2
			s3.2-3.8,4.2-6.1s1.6-4.7,1.6-7.3h5.7c0,3.4-0.7,6.6-2,9.6s-3.1,5.6-5.4,7.9c-2.3,2.2-4.9,4-7.9,5.3s-6.2,2-9.6,2
			c-3.4,0-6.6-0.7-9.7-2c-3-1.3-5.7-3.1-7.9-5.3c-2.3-2.2-4.1-4.9-5.4-7.9c-1.3-3-2-6.2-2-9.6V939.6z M635.9,951.9
			c0,1.6,0.6,3,1.7,4.2c1.1,1.1,2.5,1.7,4.2,1.7c1.6,0,3-0.6,4.2-1.7c1.1-1.1,1.7-2.5,1.7-4.2c0-1.6-0.6-3-1.7-4.2
			c-1.1-1.1-2.5-1.7-4.2-1.7c-1.6,0-3,0.6-4.2,1.7C636.4,948.9,635.9,950.3,635.9,951.9z M639.4,951.8c0-0.7,0.2-1.2,0.7-1.7
			s1.1-0.7,1.7-0.7s1.2,0.2,1.7,0.7s0.7,1.1,0.7,1.7c0,0.7-0.2,1.2-0.7,1.7s-1.1,0.7-1.7,0.7s-1.2-0.2-1.7-0.7
			C639.7,953.1,639.4,952.5,639.4,951.8z"/>
		<path d="M672.5,939.6c0-3.4,0.7-6.6,2-9.6s3.1-5.6,5.4-7.9c2.3-2.3,4.9-4,7.9-5.4c3-1.3,6.3-2,9.7-2s6.6,0.7,9.6,2
			s5.7,3.1,7.9,5.4c2.3,2.3,4.1,4.9,5.4,7.9s2,6.2,2,9.6h-5.7c0-2.6-0.5-5-1.6-7.3c-1-2.3-2.5-4.4-4.2-6.1c-1.8-1.8-3.8-3.2-6.1-4.2
			s-4.7-1.6-7.3-1.6s-5,0.5-7.3,1.6c-2.3,1-4.4,2.5-6.1,4.2c-1.8,1.8-3.2,3.8-4.2,6.1c-1.1,2.3-1.6,4.7-1.6,7.3v24.6
			c0,2.6,0.5,5,1.6,7.3c1,2.3,2.5,4.3,4.2,6.1s3.8,3.2,6.1,4.2s4.7,1.6,7.3,1.6s5-0.5,7.3-1.6c2.3-1,4.4-2.5,6.1-4.2
			s3.2-3.8,4.2-6.1s1.6-4.7,1.6-7.3h5.7c0,3.4-0.7,6.6-2,9.6s-3.1,5.6-5.4,7.9c-2.3,2.2-4.9,4-7.9,5.3s-6.2,2-9.6,2
			c-3.4,0-6.6-0.7-9.7-2c-3-1.3-5.7-3.1-7.9-5.3c-2.3-2.2-4.1-4.9-5.4-7.9c-1.3-3-2-6.2-2-9.6V939.6z M691.5,951.9
			c0,1.6,0.6,3,1.7,4.2c1.1,1.1,2.5,1.7,4.2,1.7c1.6,0,3-0.6,4.2-1.7c1.1-1.1,1.7-2.5,1.7-4.2c0-1.6-0.6-3-1.7-4.2
			c-1.1-1.1-2.5-1.7-4.2-1.7c-1.6,0-3,0.6-4.2,1.7C692.1,948.9,691.5,950.3,691.5,951.9z M695.1,951.8c0-0.7,0.2-1.2,0.7-1.7
			s1.1-0.7,1.7-0.7s1.2,0.2,1.7,0.7s0.7,1.1,0.7,1.7c0,0.7-0.2,1.2-0.7,1.7s-1.1,0.7-1.7,0.7s-1.2-0.2-1.7-0.7
			C695.3,953.1,695.1,952.5,695.1,951.8z"/>
	</g>
	<path d="M435.8,931.8c0-1.1,0.4-2,1.2-2.8c0.8-0.8,1.7-1.2,2.8-1.2s2,0.4,2.8,1.2s1.2,1.7,1.2,2.8s-0.4,2-1.2,2.8
		c-0.8,0.8-1.7,1.2-2.8,1.2s-2-0.4-2.8-1.2S435.8,932.9,435.8,931.8z"/>
	<path d="M451.9,931.8c0-1.1,0.4-2,1.2-2.8c0.8-0.8,1.7-1.2,2.8-1.2s2,0.4,2.8,1.2s1.2,1.7,1.2,2.8s-0.4,2-1.2,2.8
		c-0.8,0.8-1.7,1.2-2.8,1.2s-2-0.4-2.8-1.2C452.3,933.8,451.9,932.9,451.9,931.8z"/>
	<path d="M484.8,931.8c0-1.1,0.4-2,1.2-2.8c0.8-0.8,1.7-1.2,2.8-1.2s2,0.4,2.8,1.2s1.2,1.7,1.2,2.8s-0.4,2-1.2,2.8
		c-0.8,0.8-1.7,1.2-2.8,1.2s-2-0.4-2.8-1.2S484.8,932.9,484.8,931.8z"/>
	<path d="M500.9,931.8c0-1.1,0.4-2,1.2-2.8c0.8-0.8,1.7-1.2,2.8-1.2s2,0.4,2.8,1.2s1.2,1.7,1.2,2.8s-0.4,2-1.2,2.8
		c-0.8,0.8-1.7,1.2-2.8,1.2s-2-0.4-2.8-1.2C501.3,933.8,500.9,932.9,500.9,931.8z"/>
	<path d="M378.8,931.8c0-1.1,0.4-2,1.2-2.8c0.8-0.8,1.7-1.2,2.8-1.2s2,0.4,2.8,1.2s1.2,1.7,1.2,2.8s-0.4,2-1.2,2.8
		c-0.8,0.8-1.7,1.2-2.8,1.2s-2-0.4-2.8-1.2S378.8,932.9,378.8,931.8z"/>
	<path d="M394.9,931.8c0-1.1,0.4-2,1.2-2.8c0.8-0.8,1.7-1.2,2.8-1.2s2,0.4,2.8,1.2s1.2,1.7,1.2,2.8s-0.4,2-1.2,2.8
		c-0.8,0.8-1.7,1.2-2.8,1.2s-2-0.4-2.8-1.2C395.3,933.8,394.9,932.9,394.9,931.8z"/>
	<path d="M628.1,905.7c0-1.1,0.4-2,1.2-2.8s1.7-1.2,2.8-1.2s2,0.4,2.8,1.2s1.2,1.7,1.2,2.8s-0.4,2-1.2,2.8s-1.7,1.2-2.8,1.2
		s-2-0.4-2.8-1.2S628.1,906.8,628.1,905.7z"/>
	<path d="M644.3,905.7c0-1.1,0.4-2,1.2-2.8s1.7-1.2,2.8-1.2s2,0.4,2.8,1.2s1.2,1.7,1.2,2.8s-0.4,2-1.2,2.8s-1.7,1.2-2.8,1.2
		s-2-0.4-2.8-1.2S644.3,906.8,644.3,905.7z"/>
	<path d="M573,905.7c0-1.1,0.4-2,1.2-2.8s1.7-1.2,2.8-1.2s2,0.4,2.8,1.2s1.2,1.7,1.2,2.8s-0.4,2-1.2,2.8s-1.7,1.2-2.8,1.2
		s-2-0.4-2.8-1.2S573,906.8,573,905.7z"/>
	<path d="M589.2,905.7c0-1.1,0.4-2,1.2-2.8s1.7-1.2,2.8-1.2s2,0.4,2.8,1.2s1.2,1.7,1.2,2.8s-0.4,2-1.2,2.8s-1.7,1.2-2.8,1.2
		s-2-0.4-2.8-1.2C589.6,907.7,589.2,906.8,589.2,905.7z"/>
</g>
</svg>
