<?xml version="1.0" encoding="utf-8"?>
<!-- Generator: Adobe Illustrator 15.1.0, SVG Export Plug-In . SVG Version: 6.00 Build 0)  -->
<!DOCTYPE svg PUBLIC "-//W3C//DTD SVG 1.1//EN" "http://www.w3.org/Graphics/SVG/1.1/DTD/svg11.dtd">
<svg version="1.1" xmlns="http://www.w3.org/2000/svg" xmlns:xlink="http://www.w3.org/1999/xlink" x="0px" y="0px"
	 width="841.89px" height="595.28px" viewBox="0 0 841.89 595.28" enable-background="new 0 0 841.89 595.28" xml:space="preserve">
<g id="Layer_1">
	<line fill="none" stroke="#312783" stroke-miterlimit="10" x1="17" y1="437.84" x2="809.989" y2="437.84"/>
	<line fill="none" stroke="#312783" stroke-miterlimit="10" x1="17.451" y1="189.621" x2="809.989" y2="189.621"/>
	<line fill="none" stroke="#312783" stroke-miterlimit="10" x1="17.774" y1="280.269" x2="809.989" y2="280.269"/>
	<line fill="none" stroke="#312783" stroke-miterlimit="10" x1="17.282" y1="495.28" x2="809.989" y2="495.28"/>
</g>
<g id="Layer_3" display="none">
</g>
<g id="Layer_2">
	<path d="M41.497,438.122h18.138v-29.246c14.964,17.912,37.864,30.382,62.804,30.382c43.984,0,80.94-36.505,80.94-80.489
		c0-43.985-36.956-80.487-80.94-80.487c-24.94,0-47.84,12.696-62.804,30.382V188.724H41.497V438.122z M59.634,358.769
		c0-33.103,29.702-61.216,62.804-61.216c33.102,0,62.803,28.113,62.803,61.216s-29.701,61.217-62.803,61.217
		C89.336,419.985,59.634,391.871,59.634,358.769L59.634,358.769z M103.166,358.996c0,10.43,8.616,19.045,19.044,19.045
		c10.43,0,19.046-8.615,19.046-19.045c0-10.431-8.617-19.046-19.046-19.046C111.782,339.95,103.166,348.565,103.166,358.996
		L103.166,358.996z M114.502,358.769c0-4.308,3.628-7.935,7.936-7.935c4.307,0,7.935,3.627,7.935,7.935
		c0,4.309-3.627,7.936-7.935,7.936C118.13,366.704,114.502,363.077,114.502,358.769z"/>
	<path d="M378.381,438.122h18.591V188.724h-18.591V309.57c-14.964-17.685-37.637-31.289-62.35-31.289
		c-43.986,0-80.942,36.502-80.942,80.487c0,43.984,36.957,80.489,80.942,80.489c24.713,0,47.385-12.47,62.35-30.155V438.122z
		 M253.227,358.769c0-33.103,29.701-61.216,62.804-61.216c32.194,0,60.989,26.754,62.35,58.723c0,35.596-29.249,63.71-62.35,63.71
		C282.928,419.985,253.227,391.871,253.227,358.769L253.227,358.769z M296.532,358.996c0,10.43,8.617,19.045,19.045,19.045
		c10.43,0,19.045-8.615,19.045-19.045c0-10.431-8.616-19.046-19.045-19.046C305.148,339.95,296.532,348.565,296.532,358.996
		L296.532,358.996z M308.095,358.769c0-4.308,3.629-7.935,7.937-7.935c4.307,0,7.935,3.627,7.935,7.935
		c0,4.309-3.627,7.936-7.935,7.936C311.724,366.704,308.095,363.077,308.095,358.769z"/>
	<path d="M428.311,494.829h18.592v-85.704c14.965,17.687,37.411,30.155,62.35,30.155c43.985,0,80.942-36.502,80.942-80.487
		c0-43.984-36.957-80.487-80.942-80.487c-43.982,0-80.941,36.503-80.941,80.487V494.829z M446.902,358.793
		c0-33.103,29.247-62.35,62.35-62.35s62.351,29.247,62.351,62.35c0,33.102-29.248,62.35-62.351,62.35
		S446.902,391.895,446.902,358.793L446.902,358.793z M489.754,359.02c0,10.43,8.614,19.045,19.044,19.045
		c10.431,0,19.046-8.615,19.046-19.045s-8.615-19.045-19.046-19.045C498.368,339.975,489.754,348.59,489.754,359.02L489.754,359.02z
		 M501.318,358.793c0-4.308,3.627-7.937,7.934-7.937c4.309,0,7.936,3.629,7.936,7.937s-3.627,7.935-7.936,7.935
		C504.945,366.728,501.318,363.101,501.318,358.793z"/>
	<path d="M765.776,494.834h18.59V358.798c0-43.984-36.955-80.488-80.94-80.488c-43.986,0-80.941,36.503-80.941,80.488
		s36.955,80.487,80.941,80.487c24.713,0,47.386-12.469,62.351-30.155V494.834z M641.076,358.798c0-33.103,29.248-62.35,62.35-62.35
		s62.351,29.248,62.351,62.35v2.494c-1.362,32.194-30.155,59.855-62.351,59.855C670.324,421.147,641.076,391.9,641.076,358.798
		L641.076,358.798z M683.927,359.023c0,10.431,8.615,19.046,19.046,19.046c10.43,0,19.045-8.615,19.045-19.046
		c0-10.429-8.615-19.044-19.045-19.044C692.542,339.979,683.927,348.595,683.927,359.023L683.927,359.023z M695.49,358.798
		c0-4.308,3.627-7.936,7.936-7.936c4.308,0,7.936,3.628,7.936,7.936c0,4.307-3.628,7.936-7.936,7.936
		C699.117,366.733,695.49,363.104,695.49,358.798z"/>
</g>
</svg>
