<svg xmlns="http://www.w3.org/2000/svg" xmlns:xlink="http://www.w3.org/1999/xlink" viewBox="0 0 720 540"><defs><style>.cls-1{fill:none;}.cls-2{clip-path:url(#clip-path);}.cls-3{fill:#6d6e71;}.cls-4{fill:#0053a5;}.cls-5{fill:#fff;}</style><clipPath id="clip-path"><rect class="cls-1" width="720" height="540"/></clipPath></defs><title>Pages from 3665VAM_vanabbemuseum_Ebooks FRENCH 612016-1</title><g id="Layer_3" data-name="Layer 3"><g class="cls-2"><path d="M40.42,522.42A10.42,10.42,0,1,0,30,512a10.42,10.42,0,0,0,10.42,10.42"/></g><g class="cls-2"><path d="M40.42,522.42A10.42,10.42,0,1,0,30,512a10.42,10.42,0,0,0,10.42,10.42"/></g><rect class="cls-3" width="720" height="540"/><g class="cls-2"><path d="M40.42,522.42A10.42,10.42,0,1,0,30,512a10.42,10.42,0,0,0,10.42,10.42"/></g><rect class="cls-3" width="720" height="540"/><rect class="cls-4" width="720" height="540"/><g class="cls-2"><path class="cls-5" d="M170.27,499.14v8.51h-1.39c-.07-2.38,0-4.88,0-7.31-.93-.06-2,0-2.94,0v7.31c-.41.06-.94,0-1.39,0-.07-2.38,0-4.88,0-7.31-.93-.06-2,0-3,0v7.34h-1.39c-.06-2.76,0-5.63,0-8.43a.08.08,0,0,1,.05-.08Z"/><path class="cls-5" d="M158.68,499.14c.07,2.77,0,5.66,0,8.48-2.08.06-4.28,0-6.41,0v-8.43s0-.07,0-.08h1.36v7.28c1.14.06,2.39,0,3.58,0,.08-2.38,0-4.94,0-7.31Z"/><path class="cls-5" d="M145.08,502.44h5a2.31,2.31,0,0,0-2.7-2.26,2.44,2.44,0,0,0-2.34,2.26m2.26-3.52c2.93-.21,4.2,1.86,4.15,4.69h-6.41c0,1.92,1.09,3.26,3.08,3.08a2.89,2.89,0,0,0,2.26-1.72,10.82,10.82,0,0,1,1,.66,4,4,0,0,1-4.15,2.26c-2.38-.16-3.61-2.12-3.65-4.44s1.22-4.35,3.68-4.53"/><path class="cls-5" d="M140.75,502.77c1.26.42,2.6,1,2.45,2.8-.25,3-5.28,3-6.24.55.38-.24.74-.49,1.09-.76a2.41,2.41,0,0,0,3.19,1,1.19,1.19,0,0,0,0-1.93,8.44,8.44,0,0,0-1.94-.77,4.34,4.34,0,0,1-1.71-1,2.34,2.34,0,0,1,.05-2.75,3.07,3.07,0,0,1,2.43-1A3,3,0,0,1,143,500.5c-.36.22-.72.43-1.07.66a2.12,2.12,0,0,0-2.72-.82,1.15,1.15,0,0,0-.46,1.47c.27.56,1.29.72,2,1"/><path class="cls-5" d="M136.19,499.14c.07,2.77,0,5.66,0,8.48-2.08.06-4.28,0-6.41,0-.06-2.76,0-5.63,0-8.43a.08.08,0,0,1,.05-.08h1.34v7.28c1.14.06,2.4,0,3.59,0,.07-2.38,0-4.88,0-7.31Z"/><path class="cls-5" d="M128.34,499.14v8.51H127v-7.34h-3c-.06,2.38,0,4.88,0,7.31-.41.06-.94,0-1.39,0v-7.31c-.93-.06-2,0-3,0-.06,2.39,0,4.9,0,7.34h-1.39v-8.43s0-.07,0-.08Z"/><path class="cls-5" d="M111,502.44h5a2.31,2.31,0,0,0-2.7-2.26,2.38,2.38,0,0,0-2.31,2.26m2.23-3.52c3-.21,4.2,1.86,4.15,4.69H111c0,1.92,1.08,3.26,3.08,3.08a3,3,0,0,0,2.29-1.72c.36.2.67.44,1,.66a4,4,0,0,1-4.15,2.26c-2.35-.16-3.59-2.05-3.65-4.44s1.26-4.35,3.68-4.53"/><path class="cls-5" d="M104.82,506.66c2.1-.22,3.24-3.12,2-5.15a2.87,2.87,0,0,0-4.85,0,4.29,4.29,0,0,0-.49,1.94,3,3,0,0,0,2.54,3.21,3.47,3.47,0,0,0,.79,0m3.49-5.34c1.27,3-.35,6.35-3.22,6.57a3.81,3.81,0,0,1-3.49-1.47v1.23h-1.39V495.19s0-.08,0-.08h1.36v5.28c.09,0,.21-.13.33-.24a3.73,3.73,0,0,1,3.38-1.17,3.78,3.78,0,0,1,3,2.34"/><path class="cls-5" d="M95.41,506.66a3,3,0,0,0,2.51-3.29,2.92,2.92,0,0,0-3.14-3.19,2.82,2.82,0,0,0-2.29,1.44,4.06,4.06,0,0,0,.22,3.93,3,3,0,0,0,2.7,1.11M95,499c3.2-.27,5.06,2.91,4.17,6a4,4,0,0,1-3.44,2.94,3.9,3.9,0,0,1-3.49-1.44v1.2H90.8V495.19s0-.08,0-.08h1.36v5.31A4.12,4.12,0,0,1,95,499"/><path class="cls-5" d="M87.51,505.87a4.36,4.36,0,0,0,.49-2.4,3.15,3.15,0,0,0-3.71.11,2,2,0,0,0,.33,2.87,2.23,2.23,0,0,0,2.89-.58m1.85-6.73v8.51H88v-1a3,3,0,0,1-2.51,1.31,2.89,2.89,0,0,1-3-2.62,4,4,0,0,1,.36-2c.77-1.54,3.3-1.82,5.18-1v-2H84v-1.09s0-.07,0-.08Z"/><path class="cls-5" d="M81.62,499.17v8.48H80.23v-7.28c-1.08-.07-2.28,0-3.41,0v7.31H75.43v-8.4s0-.08,0-.08Z"/><path class="cls-5" d="M70.41,506.77c1.68,0,2.26-1.46,2.21-3.32a3,3,0,0,0-2-.55c-1.31.09-2.17.84-2.15,2a1.89,1.89,0,0,0,2,1.85M74,499.14v8.51H72.62v-1c-.77,1.49-3.5,1.69-4.74.44a3.49,3.49,0,0,1,.05-4.45c1-.94,3.29-1,4.69-.3v-2c-1.17-.06-2.46,0-3.68,0v-1.09s0-.07,0-.08Z"/><path class="cls-5" d="M66.73,499.14h1.5c-1.34,3-2.75,5.88-4.09,8.86-1.42-2.9-2.76-5.88-4.14-8.83h1.55c.82,1.94,1.72,3.81,2.54,5.75.94-1.86,1.72-3.9,2.64-5.78"/></g><rect class="cls-4" width="720" height="540"/><g class="cls-2"><polygon class="cls-5" points="660 511.7 658.9 498.44 654.16 498.45 652.57 504.54 652.53 504.54 650.96 498.44 646.2 498.45 645.1 511.7 649.03 511.7 649.48 504.03 649.51 504.03 651.19 511.7 653.87 511.7 655.59 504.03 655.62 504.03 656.07 511.7 660 511.7"/><polygon class="cls-5" points="660 511.7 658.9 498.44 654.16 498.45 652.57 504.54 652.53 504.54 650.96 498.44 646.2 498.45 645.1 511.7 649.03 511.7 649.48 504.03 649.51 504.03 651.19 511.7 653.87 511.7 655.59 504.03 655.62 504.03 656.07 511.7 660 511.7"/></g><g class="cls-2"><polygon class="cls-5" points="660 511.7 658.9 498.44 654.16 498.45 652.57 504.54 652.53 504.54 650.96 498.44 646.2 498.45 645.1 511.7 649.03 511.7 649.48 504.03 649.51 504.03 651.19 511.7 653.87 511.7 655.59 504.03 655.62 504.03 656.07 511.7 660 511.7"/><path class="cls-5" d="M66.73,499.14h1.5c-1.34,3-2.75,5.88-4.09,8.86-1.42-2.9-2.76-5.88-4.14-8.83h1.55c.82,1.94,1.72,3.81,2.54,5.75.94-1.86,1.72-3.9,2.64-5.78"/></g><g class="cls-2"><path class="cls-5" d="M170.27,499.14v8.51h-1.39c-.07-2.38,0-4.88,0-7.31-.93-.06-2,0-2.94,0v7.31c-.41.06-.94,0-1.39,0-.07-2.38,0-4.88,0-7.31-.93-.06-2,0-3,0v7.34h-1.39c-.06-2.76,0-5.63,0-8.43a.08.08,0,0,1,.05-.08Z"/><path class="cls-5" d="M158.68,499.14c.07,2.77,0,5.66,0,8.48-2.08.06-4.28,0-6.41,0v-8.43s0-.07,0-.08h1.36v7.28c1.14.06,2.39,0,3.58,0,.08-2.38,0-4.94,0-7.31Z"/><path class="cls-5" d="M145.08,502.44h5a2.31,2.31,0,0,0-2.7-2.26,2.44,2.44,0,0,0-2.34,2.26m2.26-3.52c2.93-.21,4.2,1.86,4.15,4.69h-6.41c0,1.92,1.09,3.26,3.08,3.08a2.89,2.89,0,0,0,2.26-1.72,10.82,10.82,0,0,1,1,.66,4,4,0,0,1-4.15,2.26c-2.38-.16-3.61-2.12-3.65-4.44s1.22-4.35,3.68-4.53"/><path class="cls-5" d="M140.75,502.77c1.26.42,2.6,1,2.45,2.8-.25,3-5.28,3-6.24.55.38-.24.74-.49,1.09-.76a2.41,2.41,0,0,0,3.19,1,1.19,1.19,0,0,0,0-1.93,8.44,8.44,0,0,0-1.94-.77,4.34,4.34,0,0,1-1.71-1,2.34,2.34,0,0,1,.05-2.75,3.07,3.07,0,0,1,2.43-1A3,3,0,0,1,143,500.5c-.36.22-.72.43-1.07.66a2.12,2.12,0,0,0-2.72-.82,1.15,1.15,0,0,0-.46,1.47c.27.56,1.29.72,2,1"/><path class="cls-5" d="M136.19,499.14c.07,2.77,0,5.66,0,8.48-2.08.06-4.28,0-6.41,0-.06-2.76,0-5.63,0-8.43a.08.08,0,0,1,.05-.08h1.34v7.28c1.14.06,2.4,0,3.59,0,.07-2.38,0-4.88,0-7.31Z"/><path class="cls-5" d="M128.34,499.14v8.51H127v-7.34h-3c-.06,2.38,0,4.88,0,7.31-.41.06-.94,0-1.39,0v-7.31c-.93-.06-2,0-3,0-.06,2.39,0,4.9,0,7.34h-1.39v-8.43s0-.07,0-.08Z"/><path class="cls-5" d="M111,502.44h5a2.31,2.31,0,0,0-2.7-2.26,2.38,2.38,0,0,0-2.31,2.26m2.23-3.52c3-.21,4.2,1.86,4.15,4.69H111c0,1.92,1.08,3.26,3.08,3.08a3,3,0,0,0,2.29-1.72c.36.2.67.44,1,.66a4,4,0,0,1-4.15,2.26c-2.35-.16-3.59-2.05-3.65-4.44s1.26-4.35,3.68-4.53"/><path class="cls-5" d="M104.82,506.66c2.1-.22,3.24-3.12,2-5.15a2.87,2.87,0,0,0-4.85,0,4.29,4.29,0,0,0-.49,1.94,3,3,0,0,0,2.54,3.21,3.47,3.47,0,0,0,.79,0m3.49-5.34c1.27,3-.35,6.35-3.22,6.57a3.81,3.81,0,0,1-3.49-1.47v1.23h-1.39V495.19s0-.08,0-.08h1.36v5.28c.09,0,.21-.13.33-.24a3.73,3.73,0,0,1,3.38-1.17,3.78,3.78,0,0,1,3,2.34"/><path class="cls-5" d="M95.41,506.66a3,3,0,0,0,2.51-3.29,2.92,2.92,0,0,0-3.14-3.19,2.82,2.82,0,0,0-2.29,1.44,4.06,4.06,0,0,0,.22,3.93,3,3,0,0,0,2.7,1.11M95,499c3.2-.27,5.06,2.91,4.17,6a4,4,0,0,1-3.44,2.94,3.9,3.9,0,0,1-3.49-1.44v1.2H90.8V495.19s0-.08,0-.08h1.36v5.31A4.12,4.12,0,0,1,95,499"/><path class="cls-5" d="M87.51,505.87a4.36,4.36,0,0,0,.49-2.4,3.15,3.15,0,0,0-3.71.11,2,2,0,0,0,.33,2.87,2.23,2.23,0,0,0,2.89-.58m1.85-6.73v8.51H88v-1a3,3,0,0,1-2.51,1.31,2.89,2.89,0,0,1-3-2.62,4,4,0,0,1,.36-2c.77-1.54,3.3-1.82,5.18-1v-2H84v-1.09s0-.07,0-.08Z"/><path class="cls-5" d="M81.62,499.17v8.48H80.23v-7.28c-1.08-.07-2.28,0-3.41,0v7.31H75.43v-8.4s0-.08,0-.08Z"/><path class="cls-5" d="M70.41,506.77c1.68,0,2.26-1.46,2.21-3.32a3,3,0,0,0-2-.55c-1.31.09-2.17.84-2.15,2a1.89,1.89,0,0,0,2,1.85M74,499.14v8.51H72.62v-1c-.77,1.49-3.5,1.69-4.74.44a3.49,3.49,0,0,1,.05-4.45c1-.94,3.29-1,4.69-.3v-2c-1.17-.06-2.46,0-3.68,0v-1.09s0-.07,0-.08Z"/></g><g class="cls-2"><path class="cls-5" d="M641,511.68l-2.31-5.36a5.25,5.25,0,0,0,1.41-1.57,3.84,3.84,0,0,0,.45-1.85,4.41,4.41,0,0,0-1.81-3.58,4.53,4.53,0,0,0-1.37-.69,7.71,7.71,0,0,0-2.07-.21H630.4v13.26h4v-9.46h1a1.36,1.36,0,0,1,.85.19.87.87,0,0,1,.23.68.94.94,0,0,1-.25.71,1.27,1.27,0,0,1-.83.21H635v3.5l1.81,4.17Z"/><path class="cls-5" d="M622.51,505.29a2.93,2.93,0,1,1-2.93-2.93,2.93,2.93,0,0,1,2.93,2.93m3.85-.1a6.81,6.81,0,1,0-6.8,6.81,6.83,6.83,0,0,0,6.8-6.81"/><path class="cls-5" d="M579.12,511.68h4.06v-8.33a5.17,5.17,0,0,0-5.28-4.92c-3.67,0-4.68,3.09-4.68,4.92v8.33h4.06v-8.42c0-.68.37-1.07.91-1.07a.94.94,0,0,1,.93,1.07v1.09h-1.25v3h1.25ZM594,502.29h3.2v-3.75H586.62v3.75h3.26v9.39H594Zm11.46,0h3.88v-3.75h-8v13.13h4.09v-4.35h2.81V504h-2.81Z"/><path class="cls-5" d="M557.46,504.77a4.06,4.06,0,0,0,.4-1.95,4.55,4.55,0,0,0-3.21-4.3,7.41,7.41,0,0,0-2.09-.22h-4.91v13.38h4v-9.55h1.05a1.39,1.39,0,0,1,.86.2.87.87,0,0,1,.23.68.91.91,0,0,1-.25.72,1.3,1.3,0,0,1-.84.22h-.44v3.38h.78a6.06,6.06,0,0,0,1.66-.14,4.65,4.65,0,0,0,2.74-2.42m4.28,6.9h7.92v-3.75h-3.83v-9.39h-4.09Z"/><path class="cls-5" d="M641,511.68l-2.31-5.36a5.25,5.25,0,0,0,1.41-1.57,3.84,3.84,0,0,0,.45-1.85,4.41,4.41,0,0,0-1.81-3.58,4.53,4.53,0,0,0-1.37-.69,7.71,7.71,0,0,0-2.07-.21H630.4v13.26h4v-9.46h1a1.36,1.36,0,0,1,.85.19.87.87,0,0,1,.23.68.94.94,0,0,1-.25.71,1.27,1.27,0,0,1-.83.21H635v3.5l1.81,4.17Z"/><path class="cls-5" d="M622.51,505.29a2.93,2.93,0,1,1-2.93-2.93,2.93,2.93,0,0,1,2.93,2.93m3.85-.1a6.81,6.81,0,1,0-6.8,6.81,6.83,6.83,0,0,0,6.8-6.81"/><path class="cls-5" d="M579.12,511.68h4.06v-8.33a5.17,5.17,0,0,0-5.28-4.92c-3.67,0-4.68,3.09-4.68,4.92v8.33h4.06v-8.42c0-.68.37-1.07.91-1.07a.94.94,0,0,1,.93,1.07v1.09h-1.25v3h1.25ZM594,502.29h3.2v-3.75H586.62v3.75h3.26v9.39H594Zm11.46,0h3.88v-3.75h-8v13.13h4.09v-4.35h2.81V504h-2.81Z"/><path class="cls-5" d="M557.46,504.77a4.06,4.06,0,0,0,.4-1.95,4.55,4.55,0,0,0-3.21-4.3,7.41,7.41,0,0,0-2.09-.22h-4.91v13.38h4v-9.55h1.05a1.39,1.39,0,0,1,.86.2.87.87,0,0,1,.23.68.91.91,0,0,1-.25.72,1.3,1.3,0,0,1-.84.22h-.44v3.38h.78a6.06,6.06,0,0,0,1.66-.14,4.65,4.65,0,0,0,2.74-2.42m4.28,6.9h7.92v-3.75h-3.83v-9.39h-4.09Z"/></g><g class="cls-2"><path class="cls-5" d="M641,511.68l-2.31-5.36a5.25,5.25,0,0,0,1.41-1.57,3.84,3.84,0,0,0,.45-1.85,4.41,4.41,0,0,0-1.81-3.58,4.53,4.53,0,0,0-1.37-.69,7.71,7.71,0,0,0-2.07-.21H630.4v13.26h4v-9.46h1a1.36,1.36,0,0,1,.85.19.87.87,0,0,1,.23.68.94.94,0,0,1-.25.71,1.27,1.27,0,0,1-.83.21H635v3.5l1.81,4.17Z"/><path class="cls-5" d="M622.51,505.29a2.93,2.93,0,1,1-2.93-2.93,2.93,2.93,0,0,1,2.93,2.93m3.85-.1a6.81,6.81,0,1,0-6.8,6.81,6.83,6.83,0,0,0,6.8-6.81"/><path class="cls-5" d="M579.12,511.68h4.06v-8.33a5.17,5.17,0,0,0-5.28-4.92c-3.67,0-4.68,3.09-4.68,4.92v8.33h4.06v-8.42c0-.68.37-1.07.91-1.07a.94.94,0,0,1,.93,1.07v1.09h-1.25v3h1.25ZM594,502.29h3.2v-3.75H586.62v3.75h3.26v9.39H594Zm11.46,0h3.88v-3.75h-8v13.13h4.09v-4.35h2.81V504h-2.81Z"/><path class="cls-5" d="M557.46,504.77a4.06,4.06,0,0,0,.4-1.95,4.55,4.55,0,0,0-3.21-4.3,7.41,7.41,0,0,0-2.09-.22h-4.91v13.38h4v-9.55h1.05a1.39,1.39,0,0,1,.86.2.87.87,0,0,1,.23.68.91.91,0,0,1-.25.72,1.3,1.3,0,0,1-.84.22h-.44v3.38h.78a6.06,6.06,0,0,0,1.66-.14,4.65,4.65,0,0,0,2.74-2.42m4.28,6.9h7.92v-3.75h-3.83v-9.39h-4.09Z"/></g></g><g id="Layer_1" data-name="Layer 1"><path class="cls-5" d="M314.28,26.84h-2.44L311.47,28h-.74l2-5.95h.74l2,5.95h-.74ZM313.08,23h0l-1,3.23h2Z"/><path class="cls-5" d="M323,22.05h1.89c1.21,0,2,.58,2,1.77a1.64,1.64,0,0,1-1.48,1.7L326.76,28H326l-1.29-2.43h-.93V28H323Zm1.85,2.89c.71,0,1.33-.28,1.33-1.12s-.57-1.12-1.35-1.12h-1.1v2.24Z"/><path class="cls-5" d="M329,22.05h3.51v.65h-2.78v1.93h2.55v.62h-2.55v2.1h2.78V28H329Z"/><path class="cls-5" d="M334.75,22.05h2a1.79,1.79,0,0,1,2,1.84,1.77,1.77,0,0,1-2,1.82h-1.34V28h-.72Zm2,3a1.19,1.19,0,1,0,0-2.36h-1.28v2.36Z"/><path class="cls-5" d="M340.25,22.05H341v4a1.41,1.41,0,1,0,2.82,0v-4h.71v4a2.13,2.13,0,0,1-4.26,0Z"/><path class="cls-5" d="M346.31,22.05h2.06a1.59,1.59,0,0,1,1.76,1.54,1.24,1.24,0,0,1-.76,1.19v0a1.47,1.47,0,0,1,1,1.44c0,1.07-.65,1.76-2.12,1.76h-1.92Zm1.93,2.52c.8,0,1.17-.34,1.17-.94s-.44-.93-1.17-.93h-1.19v1.87Zm-.11,2.78c1,0,1.5-.3,1.5-1.11s-.49-1-1.48-1h-1.1v2.15Z"/><path class="cls-5" d="M352.76,22.05h.73v5.3h2.81V28h-3.54Z"/><path class="cls-5" d="M358.19,22.05h3.57v.64h-1.43v4.67h1.43V28h-3.57v-.64h1.42V22.69h-1.42Z"/><path class="cls-5" d="M364.5,25c0,1.7.62,2.49,1.52,2.49s1.26-.76,1.34-1.67l.74.09A2.12,2.12,0,0,1,366,28.13c-1.2,0-2.29-.88-2.29-3.16,0-2,1.08-3,2.29-3A2.13,2.13,0,0,1,368.08,24l-.71.12c-.12-.8-.5-1.53-1.35-1.53S364.5,23.33,364.5,25Z"/><path class="cls-5" d="M375.31,25c0-2,1.12-3,2.25-3s2.25,1,2.25,3.09c0,2.28-1.12,3.12-2.25,3.12S375.31,27.25,375.31,25Zm3.74,0c0-1.65-.64-2.42-1.49-2.42s-1.49.74-1.49,2.38.64,2.49,1.49,2.49S379.05,26.71,379.05,25Z"/><path class="cls-5" d="M381.85,22.05h3.45v.65h-2.71v2.15h2.48v.62h-2.48V28h-.74Z"/><path class="cls-5" d="M396.35,26.84h-2.44L393.54,28h-.74l2-5.95h.74l2,5.95h-.73ZM395.15,23h0l-1,3.23h2Z"/><path class="cls-5" d="M399.24,22.05h1.88c1.21,0,2,.58,2,1.77a1.64,1.64,0,0,1-1.48,1.7L403,28h-.79l-1.3-2.43H400V28h-.72Zm1.84,2.89c.71,0,1.33-.28,1.33-1.12s-.57-1.12-1.35-1.12H400v2.24Z"/><path class="cls-5" d="M406.51,22.7h-2v-.65h4.71v.65h-2V28h-.72Z"/><path class="cls-5" d="M268.78,230.65V244h-10V205.7h17.1c6.8,0,12.05,4.65,12.05,12.85,0,7.8-5.25,12.1-11.75,12.1Zm-.2-17.4V223.3h3.5c3.05,0,5.9-1,5.9-5.15,0-3.8-2.5-4.9-5.8-4.9Z"/><path class="cls-5" d="M308.08,221.7c-3.6,0-5.8,2.2-5.8,8.15V244h-9.4V213.3h9.05v4.85c.75-2.3,3.6-5.45,7.3-5.45h2.1v9.6A7.56,7.56,0,0,0,308.08,221.7Z"/><path class="cls-5" d="M313,228.7c0-9.3,6.65-16,15.7-16,8.85,0,15.1,5.85,15.1,16.8,0,.75.05,1.15,0,1.85h-21.6c.8,3.65,3.7,5.4,7.2,5.4,3.05,0,5.05-2.15,6.65-4.25,0,0,5.55,3.2,7.25,4.25a16.05,16.05,0,0,1-14.35,8C319.53,244.75,313,239,313,228.7Zm15.6-8.2c-3.15,0-4.9,1.5-6.05,4.35h11.65C333.13,221.9,331.53,220.5,328.63,220.5Zm-3.85-9.45-2.15-4.1,12.9-6.55,2.55,4.65Z"/><path class="cls-5" d="M350.18,221.4h-3.25v-8.1h3.15v-1.55c0-6.8,4.3-9.45,10.2-9.45a24.37,24.37,0,0,1,5.05.65v7.85a18.36,18.36,0,0,0-3.1-.45c-2.15,0-3,.65-3,3h5.05v8.1h-5V244h-9.15Z"/><path class="cls-5" d="M367.63,228.8c0-8.55,6.35-16.1,14.9-16.1,3.75,0,6.1,1.25,8.85,3.75V213.3h9.2V244h-9.35v-3a13,13,0,0,1-9.2,3.75C373.48,244.75,367.63,238.65,367.63,228.8Zm16.75-7.5a7.08,7.08,0,0,0-7.3,7.35c0,4.25,2.7,7.75,7,7.75a7.39,7.39,0,0,0,7.6-7.5A7.23,7.23,0,0,0,384.38,221.3Z"/><path class="cls-5" d="M428.88,234.1V243s-4.5,1.75-7.45,1.75c-9.51,0-15.86-6.8-15.86-15.8s6.51-16.25,16-16.25a15.21,15.21,0,0,1,7.15,1.5v9.65a11,11,0,0,0-6.8-2.5c-4.05,0-7.05,3.75-7.05,7.85s3.34,7,7.45,7A13,13,0,0,0,428.88,234.1Z"/><path class="cls-5" d="M432.92,228.7c0-9.3,6.65-16,15.71-16,8.85,0,15.1,5.85,15.1,16.8,0,.75,0,1.15,0,1.85H442.12c.8,3.65,3.71,5.4,7.21,5.4,3.05,0,5.05-2.15,6.65-4.25,0,0,5.55,3.2,7.25,4.25a16.05,16.05,0,0,1-14.35,8C439.42,244.75,432.92,239,432.92,228.7Zm15.6-8.2c-3.14,0-4.89,1.5-6,4.35h11.66C453,221.9,451.42,220.5,448.52,220.5Z"/><path class="cls-5" d="M306.43,502.05h2.06a1.59,1.59,0,0,1,1.76,1.54,1.23,1.23,0,0,1-.77,1.19v0a1.45,1.45,0,0,1,1,1.43c0,1.08-.65,1.76-2.12,1.76h-1.92Zm1.93,2.52c.8,0,1.17-.34,1.17-.93s-.45-.94-1.18-.94h-1.19v1.87Zm-.11,2.79c1,0,1.5-.31,1.5-1.12s-.5-1-1.48-1h-1.11v2.16Z"/><path class="cls-5" d="M315.62,507a2,2,0,0,1-1.89,1.15,2.4,2.4,0,0,1,0-4.76c1.18,0,2,.88,2,2.38V506h-3.4a1.4,1.4,0,0,0,1.38,1.54,1.36,1.36,0,0,0,1.33-.89ZM315,505.4a1.31,1.31,0,0,0-1.34-1.4,1.36,1.36,0,0,0-1.34,1.4Z"/><path class="cls-5" d="M317.81,503.5h.66v.65h0a1.47,1.47,0,0,1,1.28-.73,1.45,1.45,0,0,1,1.44,1.08l-.68.29a.83.83,0,0,0-.87-.66,1.22,1.22,0,0,0-1.16,1.37V508h-.69Z"/><path class="cls-5" d="M322.54,503.5h.66v.43h0a1.67,1.67,0,0,1,1.27-.56,1.53,1.53,0,0,1,1.61,1.68V508h-.7v-2.73c0-.82-.31-1.26-1-1.26a1.05,1.05,0,0,0-1.14,1.12V508h-.7Z"/><path class="cls-5" d="M330.78,507.51h0a1.58,1.58,0,0,1-1.38.62c-1.05,0-1.54-.59-1.54-1.28s.44-1.13,1.53-1.41c.81-.21,1.3-.35,1.3-.79s-.35-.66-.95-.66a1,1,0,0,0-1.09.89l-.65-.18a1.62,1.62,0,0,1,1.72-1.33c1,0,1.71.54,1.71,1.42V508h-.63Zm-2.24-.7c0,.4.22.7.89.7.86,0,1.28-.45,1.28-.95v-1.12h0c-.06.12-.23.28-1.15.53S328.54,506.43,328.54,506.81Z"/><path class="cls-5" d="M333.75,503.5h.66v.65h0a1.5,1.5,0,0,1,1.29-.73,1.45,1.45,0,0,1,1.44,1.08l-.68.29a.85.85,0,0,0-.88-.66,1.22,1.22,0,0,0-1.15,1.37V508h-.7Z"/><path class="cls-5" d="M341.5,507.57h0a1.77,1.77,0,0,1-1.32.56c-1.19,0-2-.93-2-2.38a2.11,2.11,0,0,1,2-2.38,1.61,1.61,0,0,1,1.25.56h0V501.8h.69V508h-.63Zm-.06-2.46a1.13,1.13,0,0,0-1.16-1.11c-.9,0-1.37.66-1.37,1.75s.47,1.75,1.37,1.75a1.08,1.08,0,0,0,1.16-1Z"/><path class="cls-5" d="M352.13,507.57h0a1.76,1.76,0,0,1-1.32.56c-1.19,0-2-.93-2-2.38a2.12,2.12,0,0,1,2-2.38,1.59,1.59,0,0,1,1.25.56h0V501.8h.7V508h-.63Zm-.07-2.46A1.13,1.13,0,0,0,350.9,504c-.9,0-1.36.66-1.36,1.75s.46,1.75,1.36,1.75a1.08,1.08,0,0,0,1.16-1Z"/><path class="cls-5" d="M358.15,507a2,2,0,0,1-1.89,1.15,2.4,2.4,0,0,1,0-4.76c1.18,0,2,.88,2,2.38V506h-3.4a1.39,1.39,0,0,0,1.37,1.54,1.37,1.37,0,0,0,1.34-.89Zm-.59-1.58a1.3,1.3,0,0,0-1.33-1.4,1.37,1.37,0,0,0-1.35,1.4Z"/><path class="cls-5" d="M364.82,502.05h.95l1.06,3.37h0l1.06-3.37h1V508h-.65v-5h0l-1.24,3.84h-.22L365.48,503h0v5h-.64Z"/><path class="cls-5" d="M370.1,505.75a2.07,2.07,0,1,1,4.09,0c0,1.54-.9,2.38-2,2.38A2.11,2.11,0,0,1,370.1,505.75Zm3.38,0c0-1.14-.57-1.75-1.32-1.75s-1.35.6-1.35,1.75.6,1.75,1.35,1.75S373.48,506.89,373.48,505.75Z"/><path class="cls-5" d="M375.69,503.5h.66v.43h0a1.67,1.67,0,0,1,1.27-.56,1.53,1.53,0,0,1,1.61,1.68V508h-.69v-2.73c0-.82-.32-1.26-1-1.26a1.05,1.05,0,0,0-1.15,1.12V508h-.7Z"/><path class="cls-5" d="M382.41,504.12H381v-.62h1.42v-.69c0-.81.42-1,1-1h.92v.62h-.79c-.35,0-.45.09-.45.53v.55h1.64v.62H383.1V508h-.69Z"/><path class="cls-5" d="M390,507a2,2,0,0,1-1.89,1.15,2.4,2.4,0,0,1,0-4.76c1.18,0,2,.88,2,2.38V506h-3.4a1.4,1.4,0,0,0,1.38,1.54,1.36,1.36,0,0,0,1.33-.89Zm-.59-1.58a1.29,1.29,0,0,0-1.33-1.4,1.36,1.36,0,0,0-1.34,1.4Z"/><path class="cls-5" d="M392.21,503.5h.67v.65h0a1.5,1.5,0,0,1,1.29-.73,1.45,1.45,0,0,1,1.44,1.08l-.68.29a.84.84,0,0,0-.87-.66,1.22,1.22,0,0,0-1.16,1.37V508h-.7Z"/><path class="cls-5" d="M397.53,503.5h.66v.65h0a1.47,1.47,0,0,1,1.28-.73,1.45,1.45,0,0,1,1.44,1.08l-.68.29a.83.83,0,0,0-.87-.66,1.22,1.22,0,0,0-1.16,1.37V508h-.69Z"/><path class="cls-5" d="M405.19,507.51h0a1.58,1.58,0,0,1-1.38.62c-1.05,0-1.54-.59-1.54-1.28s.44-1.13,1.53-1.41c.81-.21,1.29-.35,1.29-.79s-.35-.66-.94-.66a1,1,0,0,0-1.1.89l-.64-.18a1.61,1.61,0,0,1,1.71-1.33c1,0,1.71.54,1.71,1.42V508h-.63Zm-2.23-.7c0,.4.22.7.89.7.86,0,1.28-.45,1.28-.95v-1.12h0c-.06.12-.23.28-1.16.53S403,506.43,403,506.81Z"/><path class="cls-5" d="M407.58,503.5h.67v.43h0a1.67,1.67,0,0,1,1.27-.56,1.53,1.53,0,0,1,1.61,1.68V508h-.69v-2.73c0-.82-.32-1.26-1-1.26a1.05,1.05,0,0,0-1.15,1.12V508h-.7Z"/><path class="cls-5" d="M415.91,507.57h0a1.77,1.77,0,0,1-1.32.56c-1.19,0-2-.93-2-2.38a2.11,2.11,0,0,1,2-2.38,1.61,1.61,0,0,1,1.25.56h0V501.8h.7V508h-.63Zm-.07-2.46a1.12,1.12,0,0,0-1.15-1.11c-.9,0-1.37.66-1.37,1.75s.47,1.75,1.37,1.75a1.07,1.07,0,0,0,1.15-1Z"/><path class="cls-4" d="M657.87,514l2.69-3.94h1.07V514h.74v.64h-.74V516H661v-1.38h-3.08Zm3.08,0v-3.39h0L658.62,514Z"/><path class="cls-4" d="M657.87,514l2.69-3.94h1.07V514h.74v.64h-.74V516H661v-1.38h-3.08Zm3.08,0v-3.39h0L658.62,514Z"/></g></svg>