<svg id="Layer_1" data-name="Layer 1" xmlns="http://www.w3.org/2000/svg" viewBox="0 0 601.35 494.21"><defs><style>.cls-1{fill:#0053a5;}.cls-2{fill:#0055a7;}</style></defs><title>Pages from 3665VAM_vanabbemuseum_Ebooks FRENCH 612016-2</title><path class="cls-1" d="M342.19,25.81c.15,1.08.5,1.65,1.58,1.65.86,0,1.22-.5,1.22-1s-.18-.85-1.5-1.33-1.78-.81-1.78-1.66a1.61,1.61,0,0,1,1.8-1.52,1.86,1.86,0,0,1,2,1.64l-.7.15a1.19,1.19,0,0,0-1.28-1.12c-.73,0-1.07.39-1.07.85s.15.63,1.38,1.08c1.42.53,1.89.89,1.89,1.88a1.76,1.76,0,0,1-2,1.73A2.15,2.15,0,0,1,341.44,26Z" transform="translate(-60.92 -21.92)"/><path class="cls-1" d="M347.21,25c0-2,1.12-3,2.25-3s2.25,1,2.25,3.09c0,2.27-1.12,3.12-2.25,3.12S347.21,27.25,347.21,25ZM351,25c0-1.65-.64-2.42-1.49-2.42S348,23.32,348,25s.64,2.49,1.49,2.49S351,26.71,351,25Z" transform="translate(-60.92 -21.92)"/><path class="cls-1" d="M353.31,22.05h.95l1.06,3.36h0l1.06-3.36h.95V28h-.65V23h0l-1.24,3.84h-.22L354,23h0v5h-.65Z" transform="translate(-60.92 -21.92)"/><path class="cls-1" d="M359.18,22.05h.95l1.05,3.36h0l1.05-3.36h1V28h-.65V23h0l-1.24,3.84h-.22L359.84,23h0v5h-.64Z" transform="translate(-60.92 -21.92)"/><path class="cls-1" d="M368.25,26.83h-2.44L365.44,28h-.74l2-5.95h.74l2,5.95h-.74ZM367.05,23h0l-1,3.23h2Z" transform="translate(-60.92 -21.92)"/><path class="cls-1" d="M371.13,22.05h3.57v.64h-1.43v4.67h1.43V28h-3.57v-.64h1.42V22.69h-1.42Z" transform="translate(-60.92 -21.92)"/><path class="cls-1" d="M377,22.05h1.89c1.21,0,2,.58,2,1.77a1.65,1.65,0,0,1-1.48,1.7L380.73,28h-.79l-1.29-2.43h-.94V28H377Zm1.85,2.89c.71,0,1.32-.28,1.32-1.12s-.57-1.13-1.34-1.13h-1.11v2.25Z" transform="translate(-60.92 -21.92)"/><path class="cls-1" d="M383,22.05h3.52v.64h-2.79v1.93h2.55v.63h-2.55v2.1h2.79V28H383Z" transform="translate(-60.92 -21.92)"/><path class="cls-2" d="M207.54,54l2.69-3.93h1.07V54H212v.65h-.74V56h-.68V54.62h-3.08Zm3.08,0V50.58h0L208.29,54Z" transform="translate(-60.92 -21.92)"/><path class="cls-2" d="M191.35,76H190V68.72h2.51a2.21,2.21,0,0,1,0,4.42h-1.14Zm0-4h.84a1,1,0,0,0,1.09-1.12,1,1,0,0,0-1.16-1.12h-.77Z" transform="translate(-60.92 -21.92)"/><path class="cls-2" d="M197,72.82V76H195.7V70.16h1.23V71a1.61,1.61,0,0,1,1.54-1,2,2,0,0,1,.72.13l-.42,1.28a2.11,2.11,0,0,0-.59-.12C197.3,71.31,197,72.17,197,72.82Z" transform="translate(-60.92 -21.92)"/><path class="cls-2" d="M202.49,70.05c1.95,0,2.89,1.38,2.86,3.38h-4.53a1.57,1.57,0,0,0,1.6,1.59,1.85,1.85,0,0,0,1.67-1l1.14.53a3,3,0,0,1-2.76,1.62,2.88,2.88,0,0,1-3-3A3,3,0,0,1,202.49,70.05ZM204,72.41a1.42,1.42,0,0,0-1.57-1.28,1.55,1.55,0,0,0-1.58,1.28Zm-2.58-2.72-.3-.6,2.35-1.17.36.72Z" transform="translate(-60.92 -21.92)"/><path class="cls-2" d="M206.51,71.32h-.66V70.16h.65v-.24A1.75,1.75,0,0,1,208.37,68c.22,0,.54,0,.54,0v1.22a1.8,1.8,0,0,0-.46-.08c-.44,0-.69.22-.69,1h1v1.16h-.95V76h-1.26Z" transform="translate(-60.92 -21.92)"/><path class="cls-2" d="M211.89,70.05a2.2,2.2,0,0,1,1.88.87v-.76H215V76h-1.21v-.79a2.19,2.19,0,0,1-1.9.93,3.06,3.06,0,0,1,0-6.09Zm-1.39,3c0,1.13.56,1.92,1.56,1.92,1.16,0,1.65-1,1.65-2a1.68,1.68,0,0,0-1.6-1.84A1.71,1.71,0,0,0,210.5,73.09Z" transform="translate(-60.92 -21.92)"/><path class="cls-2" d="M219.28,70.05a3,3,0,0,1,1.62.44v1.29a2.94,2.94,0,0,0-1.58-.52,1.77,1.77,0,0,0-1.85,2,1.68,1.68,0,0,0,1.85,1.71,2.89,2.89,0,0,0,1.61-.57v1.31a3.13,3.13,0,0,1-1.67.47,2.94,2.94,0,0,1-3.12-2.9A3.06,3.06,0,0,1,219.28,70.05Z" transform="translate(-60.92 -21.92)"/><path class="cls-2" d="M224.81,70.05c1.95,0,2.9,1.38,2.87,3.38h-4.54A1.57,1.57,0,0,0,224.75,75a1.82,1.82,0,0,0,1.66-1l1.14.53a3,3,0,0,1-2.75,1.62,2.89,2.89,0,0,1-3-3A3.05,3.05,0,0,1,224.81,70.05Zm1.54,2.36a1.43,1.43,0,0,0-1.57-1.28,1.54,1.54,0,0,0-1.58,1.28Z" transform="translate(-60.92 -21.92)"/><path class="cls-2" d="M151.42,86.05h2.06a1.59,1.59,0,0,1,1.76,1.54,1.23,1.23,0,0,1-.77,1.19v0a1.46,1.46,0,0,1,1,1.44c0,1.07-.65,1.76-2.13,1.76h-1.91Zm1.93,2.52c.8,0,1.17-.34,1.17-.94s-.45-.93-1.18-.93h-1.19v1.87Zm-.11,2.78c1,0,1.5-.3,1.5-1.11s-.5-1-1.48-1h-1.11v2.15Z" transform="translate(-60.92 -21.92)"/><path class="cls-2" d="M160.82,91a2,2,0,0,1-1.88,1.15,2.4,2.4,0,0,1,0-4.76c1.18,0,2,.87,2,2.38V90h-3.4a1.4,1.4,0,0,0,1.38,1.55,1.37,1.37,0,0,0,1.33-.89Zm-.58-1.58A1.3,1.3,0,0,0,158.9,88a1.36,1.36,0,0,0-1.34,1.4Z" transform="translate(-60.92 -21.92)"/><path class="cls-2" d="M163.21,87.5h.66v.65h0a1.5,1.5,0,0,1,1.29-.73,1.45,1.45,0,0,1,1.44,1.08l-.68.29a.85.85,0,0,0-.88-.67,1.22,1.22,0,0,0-1.15,1.37V92h-.7Z" transform="translate(-60.92 -21.92)"/><path class="cls-2" d="M168.16,87.5h.66v.43h0a1.63,1.63,0,0,1,1.26-.56A1.54,1.54,0,0,1,171.72,89v3H171V89.26c0-.81-.31-1.25-1-1.25a1,1,0,0,0-1.14,1.12V92h-.7Z" transform="translate(-60.92 -21.92)"/><path class="cls-2" d="M176.61,91.51h0a1.58,1.58,0,0,1-1.38.62c-1.05,0-1.53-.6-1.53-1.29s.43-1.13,1.53-1.41c.8-.2,1.29-.35,1.29-.79s-.35-.65-.95-.65a1,1,0,0,0-1.09.89l-.65-.19a1.62,1.62,0,0,1,1.72-1.32c1,0,1.71.53,1.71,1.42V92h-.63Zm-2.24-.71c0,.41.22.71.89.71.86,0,1.28-.45,1.28-1V89.43h0c-.06.13-.23.28-1.15.54S174.37,90.43,174.37,90.8Z" transform="translate(-60.92 -21.92)"/><path class="cls-2" d="M179.79,87.5h.66v.65h0a1.47,1.47,0,0,1,1.28-.73,1.43,1.43,0,0,1,1.44,1.08l-.68.29a.83.83,0,0,0-.87-.67,1.22,1.22,0,0,0-1.16,1.37V92h-.69Z" transform="translate(-60.92 -21.92)"/><path class="cls-2" d="M187.75,91.57h0a1.73,1.73,0,0,1-1.31.56c-1.19,0-2-.94-2-2.38a2.12,2.12,0,0,1,2-2.38,1.61,1.61,0,0,1,1.25.56h0V85.8h.7V92h-.63Zm-.07-2.46A1.11,1.11,0,0,0,186.53,88c-.9,0-1.37.65-1.37,1.75s.47,1.75,1.37,1.75a1.08,1.08,0,0,0,1.15-1Z" transform="translate(-60.92 -21.92)"/><path class="cls-2" d="M198.8,91.57h0a1.73,1.73,0,0,1-1.31.56c-1.19,0-2-.94-2-2.38a2.12,2.12,0,0,1,2-2.38,1.61,1.61,0,0,1,1.25.56h0V85.8h.7V92h-.63Zm-.07-2.46A1.11,1.11,0,0,0,197.58,88c-.9,0-1.37.65-1.37,1.75s.47,1.75,1.37,1.75a1.08,1.08,0,0,0,1.15-1Z" transform="translate(-60.92 -21.92)"/><path class="cls-2" d="M205,91a2,2,0,0,1-1.88,1.15,2.4,2.4,0,0,1,0-4.76c1.18,0,2,.87,2,2.38V90h-3.4a1.4,1.4,0,0,0,1.38,1.55,1.37,1.37,0,0,0,1.33-.89Zm-.58-1.58A1.3,1.3,0,0,0,203.1,88a1.36,1.36,0,0,0-1.34,1.4Z" transform="translate(-60.92 -21.92)"/><path class="cls-2" d="M212.12,86.05h.95l1.06,3.37h0l1.06-3.37h1v6h-.65V87h0l-1.24,3.84H214L212.78,87h0v5h-.65Z" transform="translate(-60.92 -21.92)"/><path class="cls-2" d="M217.61,89.75a2.07,2.07,0,1,1,4.1,0c0,1.54-.9,2.38-2,2.38A2.11,2.11,0,0,1,217.61,89.75Zm3.38,0c0-1.14-.57-1.75-1.31-1.75s-1.35.59-1.35,1.75.59,1.75,1.35,1.75S221,90.89,221,89.75Z" transform="translate(-60.92 -21.92)"/><path class="cls-2" d="M223.41,87.5h.66v.43h0a1.63,1.63,0,0,1,1.26-.56A1.54,1.54,0,0,1,227,89v3h-.7V89.26c0-.81-.31-1.25-1-1.25a1,1,0,0,0-1.15,1.12V92h-.69Z" transform="translate(-60.92 -21.92)"/><path class="cls-2" d="M230.34,88.12h-1.42V87.5h1.42v-.69c0-.81.42-1,1-1h.92v.62h-.79c-.35,0-.45.09-.45.52v.56h1.64v.62H231V92h-.69Z" transform="translate(-60.92 -21.92)"/><path class="cls-2" d="M238.17,91a2,2,0,0,1-1.88,1.15,2.4,2.4,0,0,1,0-4.76c1.18,0,2,.87,2,2.38V90h-3.4a1.4,1.4,0,0,0,1.38,1.55,1.37,1.37,0,0,0,1.33-.89Zm-.58-1.58a1.3,1.3,0,0,0-1.34-1.4,1.36,1.36,0,0,0-1.34,1.4Z" transform="translate(-60.92 -21.92)"/><path class="cls-2" d="M240.56,87.5h.66v.65h0a1.5,1.5,0,0,1,1.28-.73A1.45,1.45,0,0,1,244,88.5l-.68.29a.85.85,0,0,0-.88-.67,1.22,1.22,0,0,0-1.15,1.37V92h-.7Z" transform="translate(-60.92 -21.92)"/><path class="cls-2" d="M246.09,87.5h.66v.65h0a1.47,1.47,0,0,1,1.28-.73,1.43,1.43,0,0,1,1.44,1.08l-.68.29a.83.83,0,0,0-.87-.67,1.22,1.22,0,0,0-1.16,1.37V92h-.69Z" transform="translate(-60.92 -21.92)"/><path class="cls-2" d="M254,91.51h0a1.58,1.58,0,0,1-1.38.62c-1.05,0-1.54-.6-1.54-1.29s.44-1.13,1.53-1.41c.81-.2,1.3-.35,1.3-.79s-.35-.65-.95-.65a1,1,0,0,0-1.09.89l-.65-.19a1.62,1.62,0,0,1,1.72-1.32c1,0,1.71.53,1.71,1.42V92H254Zm-2.24-.71c0,.41.22.71.89.71.86,0,1.28-.45,1.28-1V89.43h0c-.06.13-.23.28-1.15.54S251.72,90.43,251.72,90.8Z" transform="translate(-60.92 -21.92)"/><path class="cls-2" d="M256.56,87.5h.66v.43h0a1.63,1.63,0,0,1,1.26-.56A1.54,1.54,0,0,1,260.12,89v3h-.7V89.26c0-.81-.31-1.25-1-1.25a1,1,0,0,0-1.15,1.12V92h-.69Z" transform="translate(-60.92 -21.92)"/><path class="cls-2" d="M265.1,91.57h0a1.73,1.73,0,0,1-1.31.56c-1.19,0-2-.94-2-2.38a2.12,2.12,0,0,1,2-2.38,1.61,1.61,0,0,1,1.25.56h0V85.8h.7V92h-.63ZM265,89.11A1.12,1.12,0,0,0,263.88,88c-.9,0-1.37.65-1.37,1.75s.47,1.75,1.37,1.75a1.08,1.08,0,0,0,1.15-1Z" transform="translate(-60.92 -21.92)"/><path class="cls-2" d="M209.92,110.73v0h-3v-.66h3.74v.74L207.81,116h-.76Z" transform="translate(-60.92 -21.92)"/><path class="cls-2" d="M174.12,137c0,1.7.62,2.49,1.52,2.49s1.27-.76,1.34-1.67l.74.09a2.12,2.12,0,0,1-2.08,2.25c-1.2,0-2.29-.88-2.29-3.16,0-2,1.08-3.05,2.29-3.05A2.13,2.13,0,0,1,177.7,136l-.71.12c-.12-.8-.5-1.53-1.35-1.53S174.12,135.33,174.12,137Z" transform="translate(-60.92 -21.92)"/><path class="cls-2" d="M179.24,133.79h.7V136h0a1.64,1.64,0,0,1,1.31-.58,1.53,1.53,0,0,1,1.62,1.69V140h-.7v-2.75c0-.76-.31-1.25-1-1.25a1.12,1.12,0,0,0-1.21,1.17V140h-.7Z" transform="translate(-60.92 -21.92)"/><path class="cls-2" d="M187.66,139.51h0a1.58,1.58,0,0,1-1.38.62c-1,0-1.53-.6-1.53-1.29s.43-1.13,1.53-1.41c.8-.2,1.29-.35,1.29-.79s-.35-.65-1-.65a1,1,0,0,0-1.09.89l-.65-.19a1.62,1.62,0,0,1,1.72-1.32c1,0,1.71.53,1.71,1.42V140h-.63Zm-2.24-.71c0,.41.22.71.89.71.86,0,1.28-.45,1.28-1v-1.12h0c-.06.13-.23.28-1.15.54S185.42,138.43,185.42,138.8Z" transform="translate(-60.92 -21.92)"/><path class="cls-2" d="M190.84,135.5h.66v.65h0a1.47,1.47,0,0,1,1.28-.73,1.45,1.45,0,0,1,1.45,1.08l-.69.29a.83.83,0,0,0-.87-.67,1.22,1.22,0,0,0-1.16,1.37V140h-.69Z" transform="translate(-60.92 -21.92)"/><path class="cls-2" d="M196,133.79h2.16v5.59h1.54V140h-3.74v-.62h1.5v-5H196Z" transform="translate(-60.92 -21.92)"/><path class="cls-2" d="M205,139a2,2,0,0,1-1.88,1.15,2.4,2.4,0,0,1,0-4.76c1.18,0,2,.87,2,2.38v.2h-3.4a1.4,1.4,0,0,0,1.38,1.55,1.37,1.37,0,0,0,1.33-.89Zm-.58-1.58a1.3,1.3,0,0,0-1.34-1.4,1.36,1.36,0,0,0-1.34,1.4Z" transform="translate(-60.92 -21.92)"/><path class="cls-2" d="M207.37,138.34a1.25,1.25,0,0,0,1.44,1.18c.85,0,1.18-.3,1.18-.71s-.13-.59-1.44-.92-1.7-.72-1.68-1.32.58-1.2,1.69-1.2a1.77,1.77,0,0,1,1.89,1.26l-.62.2a1.2,1.2,0,0,0-1.26-.87c-.72,0-1,.33-1,.59s0,.47,1.42.83c1.56.4,1.64.78,1.66,1.43s-.46,1.32-1.82,1.32a1.85,1.85,0,0,1-2.1-1.66Z" transform="translate(-60.92 -21.92)"/><path class="cls-2" d="M218,134.05h3.52v.65h-2.79v1.93h2.55v.62h-2.55v2.1h2.79V140H218Z" transform="translate(-60.92 -21.92)"/><path class="cls-2" d="M223.94,138.34a1.26,1.26,0,0,0,1.44,1.18c.86,0,1.18-.3,1.18-.71s-.13-.59-1.43-.92-1.7-.72-1.69-1.32.58-1.2,1.69-1.2a1.75,1.75,0,0,1,1.89,1.26l-.62.2a1.2,1.2,0,0,0-1.26-.87c-.71,0-1,.33-1,.59s0,.47,1.42.83c1.57.4,1.64.78,1.67,1.43s-.46,1.32-1.82,1.32a1.86,1.86,0,0,1-2.11-1.66Z" transform="translate(-60.92 -21.92)"/><path class="cls-2" d="M232.84,138.41a1.85,1.85,0,0,1-1.88,1.72,2.1,2.1,0,0,1-2.06-2.38,2.13,2.13,0,0,1,2.06-2.38,1.84,1.84,0,0,1,1.85,1.65l-.66.13A1.22,1.22,0,0,0,231,136c-.79,0-1.36.62-1.36,1.75s.53,1.75,1.37,1.75a1.28,1.28,0,0,0,1.2-1.23Z" transform="translate(-60.92 -21.92)"/><path class="cls-2" d="M234.49,133.79h.7V136h0a1.64,1.64,0,0,1,1.31-.58,1.53,1.53,0,0,1,1.62,1.69V140h-.7v-2.75c0-.76-.31-1.25-1-1.25a1.12,1.12,0,0,0-1.21,1.17V140h-.7Z" transform="translate(-60.92 -21.92)"/><path class="cls-2" d="M243.7,139a2,2,0,0,1-1.89,1.15,2.4,2.4,0,0,1,0-4.76c1.18,0,2,.87,2,2.38v.2h-3.4a1.41,1.41,0,0,0,2.71.66Zm-.59-1.58a1.3,1.3,0,0,0-1.33-1.4,1.37,1.37,0,0,0-1.35,1.4Z" transform="translate(-60.92 -21.92)"/><path class="cls-2" d="M207.83,175.36h1.75v-4.51l-1.63,1v-.76l1.71-1.07h.57v5.31h1.68V176h-4.08Z" transform="translate(-60.92 -21.92)"/><path class="cls-2" d="M213.52,175.36h1.75v-4.51l-1.64,1v-.76l1.72-1.07h.57v5.31h1.68V176h-4.08Z" transform="translate(-60.92 -21.92)"/><path class="cls-2" d="M179.25,196h-1.39v-7.28h1.39Z" transform="translate(-60.92 -21.92)"/><path class="cls-2" d="M180.82,196v-5.84h1.26V191a1.86,1.86,0,0,1,1.8-.93,1.88,1.88,0,0,1,2,2V196h-1.29v-3.32c0-1.07-.36-1.44-1.12-1.44a1.42,1.42,0,0,0-1.35,1.58V196Z" transform="translate(-60.92 -21.92)"/><path class="cls-2" d="M187.41,188.72h1.26v1.43h1.08v1.16h-1.09V194c0,.75.25,1,.69,1a2,2,0,0,0,.46-.07v1.21s-.32,0-.54,0a1.75,1.75,0,0,1-1.87-1.93v-2.88h-.65v-1.16h.66Z" transform="translate(-60.92 -21.92)"/><path class="cls-2" d="M192.13,192.82V196h-1.29v-5.84h1.23V191a1.61,1.61,0,0,1,1.54-1,2,2,0,0,1,.72.13l-.42,1.28a2.11,2.11,0,0,0-.59-.12C192.44,191.31,192.13,192.17,192.13,192.82Z" transform="translate(-60.92 -21.92)"/><path class="cls-2" d="M200.79,193.08a2.93,2.93,0,0,1-3.07,3.06,3,3,0,0,1-3.14-3.06A3.09,3.09,0,0,1,197.7,190,3,3,0,0,1,200.79,193.08Zm-3.11,1.85a1.85,1.85,0,0,0,0-3.69,1.85,1.85,0,0,0,0,3.69Z" transform="translate(-60.92 -21.92)"/><path class="cls-2" d="M204.38,190.06a2.14,2.14,0,0,1,1.81.81V188.2h1.27V196h-1.23v-.77a2.41,2.41,0,0,1-1.89.91,3.05,3.05,0,0,1,0-6.08ZM203,193.12c0,1.13.62,1.89,1.58,1.89s1.63-.93,1.63-2a1.64,1.64,0,0,0-1.57-1.83A1.68,1.68,0,0,0,203,193.12Z" transform="translate(-60.92 -21.92)"/><path class="cls-2" d="M213.91,190.16V194a2.19,2.19,0,0,1-2.39,2.18c-1.51,0-2.53-.8-2.53-2.18v-3.8h1.29v3.36c0,1.16.46,1.38,1.21,1.38s1.13-.22,1.13-1.36v-3.38Z" transform="translate(-60.92 -21.92)"/><path class="cls-2" d="M218.21,190.05a3,3,0,0,1,1.62.44v1.29a2.94,2.94,0,0,0-1.58-.52,1.77,1.77,0,0,0-1.85,2,1.68,1.68,0,0,0,1.85,1.71,2.89,2.89,0,0,0,1.61-.57v1.31a3.13,3.13,0,0,1-1.67.47,2.94,2.94,0,0,1-3.12-2.9A3.06,3.06,0,0,1,218.21,190.05Z" transform="translate(-60.92 -21.92)"/><path class="cls-2" d="M221.11,188.72h1.27v1.43h1.07v1.16h-1.08V194c0,.75.24,1,.68,1a2.06,2.06,0,0,0,.47-.07v1.21s-.33,0-.54,0a1.75,1.75,0,0,1-1.88-1.93v-2.88h-.64v-1.16h.65Z" transform="translate(-60.92 -21.92)"/><path class="cls-2" d="M226.06,188.73a.85.85,0,1,1-.84-.85A.85.85,0,0,1,226.06,188.73Zm-.18,7.27h-1.35v-5.84h1.35Z" transform="translate(-60.92 -21.92)"/><path class="cls-2" d="M233.26,193.08a2.93,2.93,0,0,1-3.07,3.06,3,3,0,0,1-3.14-3.06,3.09,3.09,0,0,1,3.12-3.07A3,3,0,0,1,233.26,193.08Zm-3.11,1.85a1.85,1.85,0,0,0,0-3.69,1.85,1.85,0,0,0,0,3.69Z" transform="translate(-60.92 -21.92)"/><path class="cls-2" d="M234.41,196v-5.84h1.26V191a1.85,1.85,0,0,1,1.79-.93,1.88,1.88,0,0,1,2,2V196h-1.29v-3.32c0-1.07-.36-1.44-1.12-1.44a1.42,1.42,0,0,0-1.35,1.58V196Z" transform="translate(-60.92 -21.92)"/><path class="cls-2" d="M173.9,210.84h-2.44l-.37,1.16h-.74l2-5.95h.74l2,5.95h-.74ZM172.7,207h0l-1,3.23h2Z" transform="translate(-60.92 -21.92)"/><path class="cls-2" d="M176.45,207.5h.66v.43h0a1.61,1.61,0,0,1,1.26-.56A1.54,1.54,0,0,1,180,209v3h-.7v-2.74c0-.81-.31-1.25-1-1.25a1,1,0,0,0-1.15,1.12V212h-.69Z" transform="translate(-60.92 -21.92)"/><path class="cls-2" d="M182,207.5h.66v.43h0a1.64,1.64,0,0,1,1.27-.56,1.53,1.53,0,0,1,1.61,1.67v3h-.69v-2.74c0-.81-.32-1.25-1-1.25a1,1,0,0,0-1.15,1.12V212H182Z" transform="translate(-60.92 -21.92)"/><path class="cls-2" d="M187.62,207.5h2.2v3.91h1.49V212h-3.74v-.59h1.57v-3.32h-1.52Zm1.47-1.7h.79v.79h-.79Z" transform="translate(-60.92 -21.92)"/><path class="cls-2" d="M196.74,211a2,2,0,0,1-1.89,1.15,2.4,2.4,0,0,1,0-4.76c1.19,0,2,.87,2,2.38v.2h-3.4a1.41,1.41,0,0,0,2.72.66Zm-.59-1.58a1.3,1.3,0,0,0-1.34-1.4,1.37,1.37,0,0,0-1.34,1.4Z" transform="translate(-60.92 -21.92)"/><path class="cls-2" d="M204.28,206.05h3.45v.65H205v2.15h2.48v.62H205V212h-.73Z" transform="translate(-60.92 -21.92)"/><path class="cls-2" d="M209.77,205.8h2.16v5.58h1.54V212h-3.74v-.62h1.51v-5h-1.47Z" transform="translate(-60.92 -21.92)"/><path class="cls-2" d="M218.84,211a2,2,0,0,1-1.89,1.15,2.4,2.4,0,0,1,0-4.76c1.19,0,2,.87,2,2.38v.2h-3.4a1.41,1.41,0,0,0,2.72.66Zm-.59-1.58a1.3,1.3,0,0,0-1.34-1.4,1.37,1.37,0,0,0-1.34,1.4Z" transform="translate(-60.92 -21.92)"/><path class="cls-2" d="M221.9,208.12h-1.43v-.62h1.44v-1.11h.68v1.11h1.63v.62H222.6v2.49c0,.5.09.72.55.72h.77V212h-.8c-.88,0-1.22-.47-1.22-1.31Z" transform="translate(-60.92 -21.92)"/><path class="cls-2" d="M230.08,210.41a1.85,1.85,0,0,1-1.88,1.72,2.1,2.1,0,0,1-2.06-2.38,2.13,2.13,0,0,1,2.06-2.38,1.84,1.84,0,0,1,1.85,1.65l-.66.13A1.24,1.24,0,0,0,228.2,208c-.79,0-1.36.62-1.36,1.75s.53,1.75,1.37,1.75a1.29,1.29,0,0,0,1.2-1.23Z" transform="translate(-60.92 -21.92)"/><path class="cls-2" d="M231.73,205.8h.7V208h0a1.68,1.68,0,0,1,1.32-.58,1.53,1.53,0,0,1,1.62,1.69V212h-.7v-2.75c0-.76-.32-1.24-1.05-1.24a1.11,1.11,0,0,0-1.2,1.16V212h-.7Z" transform="translate(-60.92 -21.92)"/><path class="cls-2" d="M240.94,211a2,2,0,0,1-1.89,1.15,2.4,2.4,0,0,1,0-4.76c1.19,0,2,.87,2,2.38v.2h-3.4a1.41,1.41,0,0,0,2.72.66Zm-.59-1.58A1.3,1.3,0,0,0,239,208a1.37,1.37,0,0,0-1.34,1.4Z" transform="translate(-60.92 -21.92)"/><path class="cls-2" d="M243.32,207.5H244v.65h0a1.5,1.5,0,0,1,1.29-.73,1.44,1.44,0,0,1,1.44,1.08l-.68.29a.84.84,0,0,0-.87-.67,1.22,1.22,0,0,0-1.16,1.37V212h-.7Z" transform="translate(-60.92 -21.92)"/><path class="cls-2" d="M207.83,247.36h1.75v-4.5l-1.63,1v-.76l1.71-1.07h.57v5.31h1.68V248h-4.08Z" transform="translate(-60.92 -21.92)"/><path class="cls-2" d="M216.83,243.6a1.19,1.19,0,0,0-1.2-1c-.78,0-1.55.76-1.56,2.46h0a1.81,1.81,0,0,1,1.69-1,1.92,1.92,0,0,1,2,2,2,2,0,0,1-2,2.09c-1.18,0-2.37-.83-2.37-3,0-1.89,1-3.2,2.31-3.2a1.78,1.78,0,0,1,1.83,1.51Zm.25,2.45a1.31,1.31,0,0,0-1.4-1.41,1.39,1.39,0,0,0-1.42,1.33,1.44,1.44,0,0,0,1.45,1.51A1.29,1.29,0,0,0,217.08,246.05Z" transform="translate(-60.92 -21.92)"/><path class="cls-2" d="M130.1,260.72h1.39v4.67a1.38,1.38,0,0,0,1.48,1.46,1.36,1.36,0,0,0,1.45-1.53v-4.6h1.39v4.63a2.61,2.61,0,0,1-2.82,2.79,2.55,2.55,0,0,1-2.89-2.71Z" transform="translate(-60.92 -21.92)"/><path class="cls-2" d="M137.38,268v-5.84h1.25V263a1.86,1.86,0,0,1,1.8-.93,1.88,1.88,0,0,1,2,2.05V268h-1.3v-3.32c0-1.07-.36-1.44-1.12-1.44a1.42,1.42,0,0,0-1.35,1.58V268Z" transform="translate(-60.92 -21.92)"/><path class="cls-2" d="M148,264.82V268h-1.29v-5.84H148V263a1.61,1.61,0,0,1,1.54-1,2,2,0,0,1,.72.13l-.42,1.28a2.11,2.11,0,0,0-.59-.12C148.35,263.31,148,264.17,148,264.82Z" transform="translate(-60.92 -21.92)"/><path class="cls-2" d="M153.54,262.05c2,0,2.89,1.38,2.86,3.38h-4.53a1.57,1.57,0,0,0,1.6,1.59,1.83,1.83,0,0,0,1.67-1l1.14.53a3,3,0,0,1-2.76,1.62,2.88,2.88,0,0,1-3-3A3,3,0,0,1,153.54,262.05Zm1.53,2.36a1.42,1.42,0,0,0-1.57-1.28,1.55,1.55,0,0,0-1.58,1.28Z" transform="translate(-60.92 -21.92)"/><path class="cls-2" d="M160,262.05a2.26,2.26,0,0,1,1.89.91v-.8h1.24v5.72a2.59,2.59,0,0,1-2.86,2.84,2.51,2.51,0,0,1-2.75-2.25h1.32s0,1.07,1.55,1.07a1.38,1.38,0,0,0,1.47-1.55c0-.28,0-.49,0-.76a2.15,2.15,0,0,1-1.87.91,2.78,2.78,0,0,1-2.76-2.95A2.88,2.88,0,0,1,160,262.05Zm-1.4,3.11a1.64,1.64,0,1,0,1.63-1.92A1.71,1.71,0,0,0,158.58,265.16Z" transform="translate(-60.92 -21.92)"/><path class="cls-2" d="M167,262.05a2.17,2.17,0,0,1,1.88.87v-.76h1.22V268h-1.22v-.79a2.19,2.19,0,0,1-1.9.93,3.06,3.06,0,0,1,0-6.09Zm-1.39,3c0,1.13.56,1.92,1.56,1.92,1.16,0,1.66-1,1.66-2a1.68,1.68,0,0,0-1.6-1.84A1.71,1.71,0,0,0,165.65,265.09Z" transform="translate(-60.92 -21.92)"/><path class="cls-2" d="M173,264.82V268h-1.29v-5.84h1.23V263a1.61,1.61,0,0,1,1.54-1,1.92,1.92,0,0,1,.71.13l-.41,1.28a2.11,2.11,0,0,0-.59-.12C173.26,263.31,173,264.17,173,264.82Z" transform="translate(-60.92 -21.92)"/><path class="cls-2" d="M178.2,262.06a2.14,2.14,0,0,1,1.81.81V260.2h1.27V268h-1.23v-.77a2.41,2.41,0,0,1-1.89.91,3.05,3.05,0,0,1,0-6.08Zm-1.43,3.06c0,1.13.62,1.89,1.58,1.89,1.11,0,1.63-.93,1.63-2a1.64,1.64,0,0,0-1.57-1.83A1.68,1.68,0,0,0,176.77,265.12Z" transform="translate(-60.92 -21.92)"/><path class="cls-2" d="M187.24,262.05a2.06,2.06,0,0,1,1.79.89s-.76.64-.93.77a1.07,1.07,0,0,0-.92-.6.58.58,0,0,0-.62.57c0,.34.34.56.69.71l.75.29a1.75,1.75,0,0,1,1.29,1.71c0,1.1-1,1.75-2.16,1.75a2.38,2.38,0,0,1-2.07-1.15l1-.67s.46.8,1.09.8c.45,0,.82-.23.82-.65s-.52-.63-.95-.81l-.48-.2a1.74,1.74,0,0,1,.66-3.41Z" transform="translate(-60.92 -21.92)"/><path class="cls-2" d="M195.26,262.16V266a2.2,2.2,0,0,1-2.4,2.18c-1.51,0-2.53-.8-2.53-2.18v-3.8h1.3v3.36c0,1.16.45,1.38,1.2,1.38s1.13-.22,1.13-1.36v-3.38Z" transform="translate(-60.92 -21.92)"/><path class="cls-2" d="M198.07,264.82V268h-1.3v-5.84H198V263a1.61,1.61,0,0,1,1.54-1,1.92,1.92,0,0,1,.71.13l-.42,1.28a2,2,0,0,0-.59-.12C198.38,263.31,198.07,264.17,198.07,264.82Z" transform="translate(-60.92 -21.92)"/><path class="cls-2" d="M206.16,262.06a2.16,2.16,0,0,1,1.81.81V260.2h1.27V268H208v-.77a2.38,2.38,0,0,1-1.89.91,3.05,3.05,0,0,1,0-6.08Zm-1.43,3.06c0,1.13.61,1.89,1.57,1.89,1.12,0,1.64-.93,1.64-2a1.64,1.64,0,0,0-1.57-1.83A1.68,1.68,0,0,0,204.73,265.12Z" transform="translate(-60.92 -21.92)"/><path class="cls-2" d="M213.46,262.05c1.95,0,2.89,1.38,2.86,3.38h-4.54a1.57,1.57,0,0,0,1.61,1.59,1.82,1.82,0,0,0,1.66-1l1.14.53a3,3,0,0,1-2.75,1.62,2.88,2.88,0,0,1-3-3A3,3,0,0,1,213.46,262.05Zm1.53,2.36a1.43,1.43,0,0,0-1.57-1.28,1.54,1.54,0,0,0-1.58,1.28Z" transform="translate(-60.92 -21.92)"/><path class="cls-2" d="M222.4,262.16V266a2.2,2.2,0,0,1-2.4,2.18c-1.51,0-2.53-.8-2.53-2.18v-3.8h1.3v3.36c0,1.16.45,1.38,1.2,1.38s1.13-.22,1.13-1.36v-3.38Z" transform="translate(-60.92 -21.92)"/><path class="cls-2" d="M223.32,268l2.36-3.1-2.11-2.74h1.66l1.27,1.89,1.29-1.89h1.6l-2.07,2.73,2.41,3.11h-1.64l-1.58-2.24L224.93,268Z" transform="translate(-60.92 -21.92)"/><path class="cls-2" d="M236.22,262.05a3,3,0,0,1,1.62.44v1.29a2.93,2.93,0,0,0-1.57-.52,1.77,1.77,0,0,0-1.86,2,1.68,1.68,0,0,0,1.86,1.71,2.88,2.88,0,0,0,1.6-.57v1.31a3.13,3.13,0,0,1-1.67.47,2.94,2.94,0,0,1-3.12-2.9A3.06,3.06,0,0,1,236.22,262.05Z" transform="translate(-60.92 -21.92)"/><path class="cls-2" d="M244.91,265.08a2.93,2.93,0,0,1-3.07,3.06,3,3,0,0,1-3.13-3.06,3.08,3.08,0,0,1,3.11-3.07A3,3,0,0,1,244.91,265.08Zm-3.11,1.85a1.85,1.85,0,0,0,0-3.69,1.85,1.85,0,0,0,0,3.69Z" transform="translate(-60.92 -21.92)"/><path class="cls-2" d="M247.41,268h-1.35v-7.8h1.35Z" transform="translate(-60.92 -21.92)"/><path class="cls-2" d="M250.28,268h-1.35v-7.8h1.35Z" transform="translate(-60.92 -21.92)"/><path class="cls-2" d="M254.5,262.05c1.94,0,2.89,1.38,2.86,3.38h-4.54a1.57,1.57,0,0,0,1.61,1.59,1.82,1.82,0,0,0,1.66-1l1.14.53a3,3,0,0,1-2.75,1.62,2.89,2.89,0,0,1-3-3A3.05,3.05,0,0,1,254.5,262.05Zm1.53,2.36a1.43,1.43,0,0,0-1.57-1.28,1.54,1.54,0,0,0-1.58,1.28Z" transform="translate(-60.92 -21.92)"/><path class="cls-2" d="M261.29,262.05a3,3,0,0,1,1.62.44v1.29a2.93,2.93,0,0,0-1.57-.52,1.77,1.77,0,0,0-1.86,2,1.68,1.68,0,0,0,1.86,1.71,2.88,2.88,0,0,0,1.6-.57v1.31a3.13,3.13,0,0,1-1.67.47,2.94,2.94,0,0,1-3.12-2.9A3.06,3.06,0,0,1,261.29,262.05Z" transform="translate(-60.92 -21.92)"/><path class="cls-2" d="M264.19,260.72h1.27v1.43h1.07v1.16h-1.08V266c0,.75.25,1,.68,1a2.06,2.06,0,0,0,.47-.07v1.21s-.32,0-.54,0a1.75,1.75,0,0,1-1.88-1.93v-2.88h-.64v-1.16h.65Z" transform="translate(-60.92 -21.92)"/><path class="cls-2" d="M269.14,260.73a.85.85,0,1,1-.84-.85A.85.85,0,0,1,269.14,260.73ZM269,268h-1.35v-5.84H269Z" transform="translate(-60.92 -21.92)"/><path class="cls-2" d="M276.34,265.08a2.93,2.93,0,0,1-3.07,3.06,3,3,0,0,1-3.14-3.06,3.09,3.09,0,0,1,3.12-3.07A3,3,0,0,1,276.34,265.08Zm-3.11,1.85a1.85,1.85,0,0,0,0-3.69,1.85,1.85,0,0,0,0,3.69Z" transform="translate(-60.92 -21.92)"/><path class="cls-2" d="M277.49,268v-5.84h1.26V263a1.85,1.85,0,0,1,1.79-.93,1.88,1.88,0,0,1,2,2.05V268h-1.29v-3.32c0-1.07-.36-1.44-1.12-1.44a1.42,1.42,0,0,0-1.35,1.58V268Z" transform="translate(-60.92 -21.92)"/><path class="cls-2" d="M285.61,262.05a2.05,2.05,0,0,1,1.79.89s-.76.64-.93.77a1.07,1.07,0,0,0-.92-.6.58.58,0,0,0-.62.57c0,.34.34.56.69.71l.75.29a1.75,1.75,0,0,1,1.29,1.71c0,1.1-1,1.75-2.16,1.75a2.4,2.4,0,0,1-2.07-1.15l1-.67s.46.8,1.09.8c.45,0,.82-.23.82-.65s-.52-.63-.95-.81l-.48-.2a1.74,1.74,0,0,1,.66-3.41Z" transform="translate(-60.92 -21.92)"/><path class="cls-2" d="M170.75,278.05h1.63c1.32,0,2.6.91,2.6,3,0,2.27-1.33,3-2.65,3h-1.58Zm1.52,5.3c1.19,0,1.94-.65,1.94-2.33,0-1.52-.74-2.32-1.89-2.32h-.84v4.65Z" transform="translate(-60.92 -21.92)"/><path class="cls-2" d="M176.57,279.5h2.2v3.91h1.49V284h-3.74v-.59h1.57v-3.32h-1.52Zm1.47-1.7h.79v.79H178Z" transform="translate(-60.92 -21.92)"/><path class="cls-2" d="M184.9,283.51h0a1.58,1.58,0,0,1-1.38.62c-1.05,0-1.54-.6-1.54-1.29s.44-1.13,1.53-1.41c.81-.2,1.29-.35,1.29-.79s-.34-.65-.94-.65a1,1,0,0,0-1.1.89l-.64-.19a1.61,1.61,0,0,1,1.72-1.32c1,0,1.7.53,1.7,1.42V284h-.62Zm-2.24-.71c0,.41.22.71.89.71.86,0,1.28-.45,1.28-1v-1.12h0c-.06.13-.23.28-1.16.54S182.66,282.43,182.66,282.8Z" transform="translate(-60.92 -21.92)"/><path class="cls-2" d="M187.5,279.5h.66v.43h0a1.61,1.61,0,0,1,1.26-.56,1.54,1.54,0,0,1,1.62,1.67v3h-.7v-2.74c0-.81-.31-1.25-1-1.25a1,1,0,0,0-1.15,1.12V284h-.69Z" transform="translate(-60.92 -21.92)"/><path class="cls-2" d="M195.94,283.51h0a1.58,1.58,0,0,1-1.38.62c-1.05,0-1.54-.6-1.54-1.29s.44-1.13,1.53-1.41c.81-.2,1.29-.35,1.29-.79s-.34-.65-.94-.65a1,1,0,0,0-1.1.89l-.64-.19a1.61,1.61,0,0,1,1.72-1.32c1,0,1.7.53,1.7,1.42V284h-.63Zm-2.23-.71c0,.41.22.71.89.71.86,0,1.28-.45,1.28-1v-1.12h0c-.06.13-.23.28-1.16.54S193.71,282.43,193.71,282.8Z" transform="translate(-60.92 -21.92)"/><path class="cls-2" d="M204.28,278.05h3.45v.65H205v2.15h2.48v.62H205V284h-.73Z" transform="translate(-60.92 -21.92)"/><path class="cls-2" d="M210.17,279.5h.67v.65h0a1.5,1.5,0,0,1,1.29-.73,1.44,1.44,0,0,1,1.44,1.08l-.68.29a.84.84,0,0,0-.87-.67,1.22,1.22,0,0,0-1.16,1.37V284h-.7Z" transform="translate(-60.92 -21.92)"/><path class="cls-2" d="M218,283.51h0a1.58,1.58,0,0,1-1.38.62c-1.05,0-1.54-.6-1.54-1.29s.44-1.13,1.53-1.41c.81-.2,1.29-.35,1.29-.79s-.34-.65-.94-.65a1,1,0,0,0-1.1.89l-.64-.19a1.61,1.61,0,0,1,1.72-1.32c1,0,1.7.53,1.7,1.42V284H218Zm-2.23-.71c0,.41.22.71.89.71.86,0,1.28-.45,1.28-1v-1.12h0c-.06.13-.23.28-1.16.54S215.81,282.43,215.81,282.8Z" transform="translate(-60.92 -21.92)"/><path class="cls-2" d="M220.65,279.5h.66v.43h0a1.61,1.61,0,0,1,1.26-.56,1.54,1.54,0,0,1,1.62,1.67v3h-.7v-2.74c0-.81-.31-1.25-1-1.25a1,1,0,0,0-1.15,1.12V284h-.69Z" transform="translate(-60.92 -21.92)"/><path class="cls-2" d="M226.71,282.34a1.24,1.24,0,0,0,1.43,1.18c.86,0,1.18-.3,1.18-.71s-.12-.59-1.43-.92-1.7-.72-1.68-1.32.57-1.2,1.69-1.2a1.75,1.75,0,0,1,1.88,1.26l-.62.2a1.2,1.2,0,0,0-1.26-.87c-.71,0-1,.33-1,.59s0,.48,1.42.83c1.57.4,1.64.78,1.67,1.43s-.46,1.32-1.82,1.32a1.87,1.87,0,0,1-2.11-1.66Z" transform="translate(-60.92 -21.92)"/><path class="cls-2" d="M232.23,282.34a1.25,1.25,0,0,0,1.44,1.18c.86,0,1.18-.3,1.18-.71s-.13-.59-1.44-.92-1.7-.72-1.68-1.32.58-1.2,1.69-1.2a1.77,1.77,0,0,1,1.89,1.26l-.62.2a1.2,1.2,0,0,0-1.26-.87c-.71,0-1,.33-1,.59s0,.48,1.42.83c1.56.4,1.64.78,1.67,1.43s-.46,1.32-1.82,1.32a1.85,1.85,0,0,1-2.11-1.66Z" transform="translate(-60.92 -21.92)"/><path class="cls-2" d="M240.94,283a2,2,0,0,1-1.89,1.15,2.4,2.4,0,0,1,0-4.76c1.19,0,2,.87,2,2.38v.2h-3.4a1.41,1.41,0,0,0,2.72.66Zm-.59-1.58A1.31,1.31,0,0,0,239,280a1.37,1.37,0,0,0-1.34,1.4Z" transform="translate(-60.92 -21.92)"/><path class="cls-2" d="M242.75,279.5h.66v.43h0a1.61,1.61,0,0,1,1.26-.56,1.54,1.54,0,0,1,1.62,1.67v3h-.7v-2.74c0-.81-.31-1.25-1-1.25a1,1,0,0,0-1.15,1.12V284h-.69Z" transform="translate(-60.92 -21.92)"/><path class="cls-2" d="M208,319.46a2.16,2.16,0,0,1,.3-1.27,3.36,3.36,0,0,1,1.33-1c1-.56,1.55-.82,1.55-1.58a1.06,1.06,0,0,0-1.21-1.05,1.29,1.29,0,0,0-1.33,1.37l-.68-.06a1.9,1.9,0,0,1,2-1.95,1.71,1.71,0,0,1,1.87,1.73c0,1.14-.89,1.55-1.66,2s-1.07.55-1.28.88a1.33,1.33,0,0,0-.17.79h3.12V320H208Z" transform="translate(-60.92 -21.92)"/><path class="cls-2" d="M216.86,314.72v0h-3v-.65h3.75v.73L214.76,320H214Z" transform="translate(-60.92 -21.92)"/><path class="cls-2" d="M122.14,340l2.87-7.29h1.51l2.79,7.29h-1.53l-.56-1.49h-3L123.6,340Zm2-8.82.39-.72,2.34,1.14-.33.64Zm1.57,3.13-1.16,3.08h2.24Z" transform="translate(-60.92 -21.92)"/><path class="cls-2" d="M133,334.16h1.26V335a2.06,2.06,0,0,1,1.81-1,2.88,2.88,0,0,1,2.79,3.12,2.78,2.78,0,0,1-2.74,3,2,2,0,0,1-1.8-.88v3.26H133Zm3,1.12a1.71,1.71,0,0,0-1.65,1.87,1.56,1.56,0,0,0,1.66,1.73,1.52,1.52,0,0,0,1.56-1.61C137.53,336.28,137.09,335.28,136,335.28Z" transform="translate(-60.92 -21.92)"/><path class="cls-2" d="M141.32,336.82V340H140v-5.84h1.24V335a1.61,1.61,0,0,1,1.54-1,2,2,0,0,1,.71.13l-.42,1.28a2,2,0,0,0-.59-.12C141.64,335.31,141.32,336.17,141.32,336.82Z" transform="translate(-60.92 -21.92)"/><path class="cls-2" d="M150,337.08a2.93,2.93,0,0,1-3.07,3.06,3,3,0,0,1-3.14-3.06,3.09,3.09,0,0,1,3.12-3.07A3,3,0,0,1,150,337.08Zm-3.11,1.85a1.85,1.85,0,0,0,0-3.69,1.85,1.85,0,0,0,0,3.69Z" transform="translate(-60.92 -21.92)"/><path class="cls-2" d="M151.13,334.16h1.26V335a2.06,2.06,0,0,1,1.81-1,2.88,2.88,0,0,1,2.78,3.12,2.78,2.78,0,0,1-2.74,3,2,2,0,0,1-1.79-.88v3.26h-1.32Zm2.94,1.12a1.7,1.7,0,0,0-1.64,1.87,1.56,1.56,0,0,0,1.65,1.73,1.52,1.52,0,0,0,1.57-1.61C155.65,336.28,155.2,335.28,154.07,335.28Z" transform="translate(-60.92 -21.92)"/><path class="cls-2" d="M164,337.08a2.93,2.93,0,0,1-3.07,3.06,3,3,0,0,1-3.13-3.06A3.08,3.08,0,0,1,160.9,334,3,3,0,0,1,164,337.08Zm-3.11,1.85a1.85,1.85,0,0,0,0-3.69,1.85,1.85,0,0,0,0,3.69Z" transform="translate(-60.92 -21.92)"/><path class="cls-2" d="M166.74,334.05a2.07,2.07,0,0,1,1.79.89s-.76.64-.93.77a1.07,1.07,0,0,0-.92-.6.58.58,0,0,0-.62.57c0,.34.34.56.68.7l.76.3a1.75,1.75,0,0,1,1.29,1.71c0,1.1-1,1.75-2.16,1.75a2.38,2.38,0,0,1-2.07-1.15l1-.67s.47.8,1.1.8c.44,0,.82-.24.82-.65s-.52-.63-1-.81l-.47-.2a1.74,1.74,0,0,1,.66-3.41Z" transform="translate(-60.92 -21.92)"/><path class="cls-2" d="M175.11,334.06a2.14,2.14,0,0,1,1.81.81V332.2h1.27V340H177v-.77a2.41,2.41,0,0,1-1.89.91,3.05,3.05,0,0,1,0-6.08Zm-1.43,3.06c0,1.13.62,1.89,1.58,1.89,1.11,0,1.63-.93,1.63-2a1.64,1.64,0,0,0-1.57-1.83A1.68,1.68,0,0,0,173.68,337.12Z" transform="translate(-60.92 -21.92)"/><path class="cls-2" d="M182.41,334.05c2,0,2.89,1.38,2.86,3.38h-4.53a1.57,1.57,0,0,0,1.6,1.59,1.83,1.83,0,0,0,1.67-1l1.14.53a3,3,0,0,1-2.76,1.62,2.88,2.88,0,0,1-3-3A3,3,0,0,1,182.41,334.05Zm1.53,2.36a1.42,1.42,0,0,0-1.57-1.28,1.55,1.55,0,0,0-1.58,1.28Z" transform="translate(-60.92 -21.92)"/><path class="cls-2" d="M190.61,340h-1.35v-7.8h1.35Z" transform="translate(-60.92 -21.92)"/><path class="cls-2" d="M194.55,334.05a2.17,2.17,0,0,1,1.88.87v-.76h1.22V340h-1.22v-.79a2.19,2.19,0,0,1-1.9.93,3.06,3.06,0,0,1,0-6.09Zm-1.39,3c0,1.13.56,1.92,1.56,1.92,1.16,0,1.66-1,1.66-2a1.68,1.68,0,0,0-1.6-1.84A1.72,1.72,0,0,0,193.16,337.09Z" transform="translate(-60.92 -21.92)"/><path class="cls-2" d="M204.45,334.06a2.16,2.16,0,0,1,1.81.81V332.2h1.27V340h-1.24v-.77a2.38,2.38,0,0,1-1.89.91,3.05,3.05,0,0,1,0-6.08ZM203,337.12c0,1.13.61,1.89,1.57,1.89,1.12,0,1.64-.93,1.64-2a1.64,1.64,0,0,0-1.57-1.83A1.68,1.68,0,0,0,203,337.12Z" transform="translate(-60.92 -21.92)"/><path class="cls-2" d="M210.58,332.72a.85.85,0,1,1-.85-.84A.85.85,0,0,1,210.58,332.72ZM210.4,340h-1.35v-5.84h1.35Z" transform="translate(-60.92 -21.92)"/><path class="cls-2" d="M211.3,334.16h1.39l1.59,4.06,1.53-4.06h1.38L214.85,340h-1.19Z" transform="translate(-60.92 -21.92)"/><path class="cls-2" d="M220.81,334.05c1.95,0,2.89,1.38,2.86,3.38h-4.53a1.57,1.57,0,0,0,1.6,1.59,1.85,1.85,0,0,0,1.67-1l1.14.53a3,3,0,0,1-2.76,1.62,2.88,2.88,0,0,1-3-3A3,3,0,0,1,220.81,334.05Zm1.53,2.36a1.43,1.43,0,0,0-1.57-1.28,1.55,1.55,0,0,0-1.58,1.28Z" transform="translate(-60.92 -21.92)"/><path class="cls-2" d="M226.12,336.82V340h-1.29v-5.84h1.23V335a1.61,1.61,0,0,1,1.54-1,1.92,1.92,0,0,1,.71.13l-.41,1.28a2.11,2.11,0,0,0-.59-.12C226.43,335.31,226.12,336.17,226.12,336.82Z" transform="translate(-60.92 -21.92)"/><path class="cls-2" d="M230.52,334.05a2.05,2.05,0,0,1,1.79.89s-.76.64-.93.77a1.07,1.07,0,0,0-.92-.6.58.58,0,0,0-.62.57c0,.34.34.56.69.7s.44.18.75.3a1.75,1.75,0,0,1,1.29,1.71c0,1.1-1,1.75-2.16,1.75a2.4,2.4,0,0,1-2.07-1.15l1-.67s.46.8,1.09.8c.45,0,.82-.24.82-.65s-.52-.63-.95-.81l-.48-.2a1.74,1.74,0,0,1,.66-3.41Z" transform="translate(-60.92 -21.92)"/><path class="cls-2" d="M235.13,332.72a.85.85,0,1,1-.84-.84A.85.85,0,0,1,235.13,332.72ZM235,340H233.6v-5.84H235Z" transform="translate(-60.92 -21.92)"/><path class="cls-2" d="M236.54,332.71h1.26v1.44h1.08v1.16h-1.09V338c0,.75.25,1,.69,1a1.92,1.92,0,0,0,.46-.07v1.21s-.32,0-.54,0a1.75,1.75,0,0,1-1.87-1.93v-2.88h-.65v-1.16h.66Z" transform="translate(-60.92 -21.92)"/><path class="cls-2" d="M242.66,334.05c2,0,2.89,1.38,2.86,3.38H241a1.57,1.57,0,0,0,1.6,1.59,1.85,1.85,0,0,0,1.67-1l1.14.53a3,3,0,0,1-2.76,1.62,2.88,2.88,0,0,1-3-3A3,3,0,0,1,242.66,334.05Zm1.53,2.36a1.43,1.43,0,0,0-1.57-1.28,1.55,1.55,0,0,0-1.58,1.28Zm-2.58-2.73-.3-.59,2.35-1.17.36.72Z" transform="translate(-60.92 -21.92)"/><path class="cls-2" d="M252,334.06a2.16,2.16,0,0,1,1.81.81V332.2H255V340H253.8v-.77a2.38,2.38,0,0,1-1.89.91,3.05,3.05,0,0,1,.05-6.08Zm-1.44,3.06c0,1.13.62,1.89,1.58,1.89,1.11,0,1.64-.93,1.64-2a1.64,1.64,0,0,0-1.57-1.83A1.68,1.68,0,0,0,250.52,337.12Z" transform="translate(-60.92 -21.92)"/><path class="cls-2" d="M259.25,334.05c1.95,0,2.9,1.38,2.87,3.38h-4.54a1.57,1.57,0,0,0,1.61,1.59,1.82,1.82,0,0,0,1.66-1l1.14.53a3,3,0,0,1-2.75,1.62,2.89,2.89,0,0,1-3-3A3,3,0,0,1,259.25,334.05Zm1.54,2.36a1.43,1.43,0,0,0-1.57-1.28,1.54,1.54,0,0,0-1.58,1.28Z" transform="translate(-60.92 -21.92)"/><path class="cls-2" d="M264.86,334.05a2.08,2.08,0,0,1,1.8.89s-.76.64-.94.77a1.07,1.07,0,0,0-.92-.6.58.58,0,0,0-.62.57c0,.34.35.56.69.7s.45.18.75.3a1.74,1.74,0,0,1,1.29,1.71c0,1.1-1,1.75-2.16,1.75a2.4,2.4,0,0,1-2.07-1.15l1-.67s.46.8,1.09.8c.45,0,.82-.24.82-.65s-.51-.63-.95-.81l-.48-.2a1.74,1.74,0,0,1,.66-3.41Z" transform="translate(-60.92 -21.92)"/><path class="cls-2" d="M270.85,340v-7.29h3.88v1.19h-2.49v1.86h2.44v1.17h-2.44V340Z" transform="translate(-60.92 -21.92)"/><path class="cls-2" d="M277.37,336.89V340H276v-7.29h2.51a2.12,2.12,0,0,1,2.19,2.19,2,2,0,0,1-1.78,2l2.31,3.08h-1.7Zm0-.83h.85a1,1,0,0,0,1-1.15c0-.8-.55-1.06-1.17-1.06h-.73Z" transform="translate(-60.92 -21.92)"/><path class="cls-2" d="M281.46,340l2.87-7.29h1.52l2.78,7.29H287.1l-.56-1.49h-3l-.58,1.49Zm3.62-5.69-1.16,3.08h2.23Z" transform="translate(-60.92 -21.92)"/><path class="cls-2" d="M294.65,334.58a2.67,2.67,0,0,0-1.82-.69,2.34,2.34,0,0,0-2.25,2.42,2.4,2.4,0,0,0,2.25,2.53,3.08,3.08,0,0,0,1.86-.69v1.51a3.78,3.78,0,0,1-1.95.51,3.67,3.67,0,0,1-3.58-3.75,3.78,3.78,0,0,1,3.67-3.86,4.73,4.73,0,0,1,1.82.46Z" transform="translate(-60.92 -21.92)"/><path class="cls-2" d="M61.23,350.05h3.52v.65H62v1.93h2.55v.62H62v2.1h2.79V356H61.23Z" transform="translate(-60.92 -21.92)"/><path class="cls-2" d="M66.62,351.5h.66v.43h0a1.64,1.64,0,0,1,1.27-.56A1.53,1.53,0,0,1,70.18,353v3h-.69v-2.74c0-.81-.32-1.25-1-1.25a1,1,0,0,0-1.15,1.12V356h-.7Z" transform="translate(-60.92 -21.92)"/><path class="cls-2" d="M73.4,352.12H72v-.62h1.44v-1.11h.68v1.11h1.63v.62H74.1v2.49c0,.5.09.72.55.72h.77V356h-.8c-.88,0-1.22-.47-1.22-1.31Z" transform="translate(-60.92 -21.92)"/><path class="cls-2" d="M78.25,351.5h.66v.65h0a1.47,1.47,0,0,1,1.28-.73,1.45,1.45,0,0,1,1.45,1.08l-.68.29a.85.85,0,0,0-.88-.67A1.22,1.22,0,0,0,79,353.49V356h-.7Z" transform="translate(-60.92 -21.92)"/><path class="cls-2" d="M86.91,355A2,2,0,0,1,85,356.13a2.4,2.4,0,0,1,0-4.76c1.18,0,2,.87,2,2.38v.2h-3.4A1.4,1.4,0,0,0,85,355.5a1.37,1.37,0,0,0,1.33-.89Zm-.59-1.58A1.29,1.29,0,0,0,85,352a1.35,1.35,0,0,0-1.34,1.4Z" transform="translate(-60.92 -21.92)"/><path class="cls-2" d="M90,352.12H88.54v-.62H90v-1.11h.68v1.11h1.62v.62H90.68v2.49c0,.5.09.72.55.72H92V356h-.8c-.87,0-1.21-.47-1.21-1.31Z" transform="translate(-60.92 -21.92)"/><path class="cls-2" d="M94.37,351.5h2.2v3.91h1.49V356H94.32v-.59h1.57v-3.32H94.37Zm1.47-1.7h.79v.79h-.79Z" transform="translate(-60.92 -21.92)"/><path class="cls-2" d="M103.49,355a2,2,0,0,1-1.89,1.15,2.4,2.4,0,0,1,0-4.76c1.19,0,2,.87,2,2.38v.2h-3.4a1.41,1.41,0,0,0,2.72.66Zm-.59-1.58a1.31,1.31,0,0,0-1.34-1.4,1.37,1.37,0,0,0-1.34,1.4Z" transform="translate(-60.92 -21.92)"/><path class="cls-2" d="M105.3,351.5H106v.43h0a1.61,1.61,0,0,1,1.26-.56,1.54,1.54,0,0,1,1.62,1.67v3h-.7v-2.74c0-.81-.31-1.25-1-1.25a1,1,0,0,0-1.15,1.12V356h-.69Z" transform="translate(-60.92 -21.92)"/><path class="cls-2" d="M120.88,355.51h0a1.58,1.58,0,0,1-1.38.62c-1,0-1.54-.6-1.54-1.29s.44-1.13,1.53-1.41c.81-.2,1.29-.35,1.29-.79s-.34-.65-.94-.65a1,1,0,0,0-1.1.89l-.64-.19a1.61,1.61,0,0,1,1.71-1.32c1,0,1.71.53,1.71,1.42V356h-.63Zm-2.23-.71c0,.41.22.71.89.71.86,0,1.28-.45,1.28-1v-1.12h0c-.06.13-.23.28-1.16.54S118.65,354.43,118.65,354.8Z" transform="translate(-60.92 -21.92)"/><path class="cls-2" d="M123.15,351.5h.73l1.37,3.52h0l1.38-3.52h.73l-1.82,4.5H125Z" transform="translate(-60.92 -21.92)"/><path class="cls-2" d="M132.73,355a2,2,0,0,1-1.89,1.15,2.4,2.4,0,0,1,0-4.76c1.19,0,2,.87,2,2.38v.2h-3.4a1.41,1.41,0,0,0,2.72.66Zm-.59-1.58a1.31,1.31,0,0,0-1.34-1.4,1.37,1.37,0,0,0-1.34,1.4Z" transform="translate(-60.92 -21.92)"/><path class="cls-2" d="M138.45,354.41a1.86,1.86,0,0,1-1.88,1.72,2.11,2.11,0,0,1-2.07-2.38,2.13,2.13,0,0,1,2.07-2.38,1.83,1.83,0,0,1,1.84,1.65l-.65.13a1.24,1.24,0,0,0-1.19-1.15c-.79,0-1.36.62-1.36,1.75s.52,1.75,1.37,1.75a1.28,1.28,0,0,0,1.19-1.23Z" transform="translate(-60.92 -21.92)"/><path class="cls-2" d="M147.63,353c0,1.7.62,2.49,1.52,2.49s1.26-.76,1.34-1.67l.74.09a2.12,2.12,0,0,1-2.08,2.25c-1.2,0-2.29-.88-2.29-3.16,0-2,1.08-3.05,2.29-3.05a2.13,2.13,0,0,1,2.06,2.08l-.71.12c-.12-.8-.5-1.53-1.35-1.53S147.63,351.33,147.63,353Z" transform="translate(-60.92 -21.92)"/><path class="cls-2" d="M155.64,355.51h0a1.56,1.56,0,0,1-1.37.62c-1.06,0-1.54-.6-1.54-1.29s.43-1.13,1.53-1.41c.81-.2,1.29-.35,1.29-.79s-.35-.65-.94-.65a1,1,0,0,0-1.1.89l-.65-.19a1.62,1.62,0,0,1,1.72-1.32c1,0,1.71.53,1.71,1.42V356h-.63Zm-2.23-.71c0,.41.22.71.89.71.86,0,1.27-.45,1.27-1v-1.12h0c-.06.13-.23.28-1.16.54S153.41,354.43,153.41,354.8Z" transform="translate(-60.92 -21.92)"/><path class="cls-2" d="M159.5,352.12h-1.44v-.62h1.45v-1.11h.68v1.11h1.62v.62H160.2v2.49c0,.5.09.72.55.72h.76V356h-.8c-.87,0-1.21-.47-1.21-1.31Z" transform="translate(-60.92 -21.92)"/><path class="cls-2" d="M163.8,349.8h.7V352h0a1.68,1.68,0,0,1,1.32-.58,1.53,1.53,0,0,1,1.62,1.69V356h-.7v-2.75c0-.76-.31-1.24-1.05-1.24a1.11,1.11,0,0,0-1.2,1.16V356h-.7Z" transform="translate(-60.92 -21.92)"/><path class="cls-2" d="M173,355a2,2,0,0,1-1.89,1.15,2.4,2.4,0,0,1,0-4.76c1.19,0,2,.87,2,2.38v.2h-3.39a1.41,1.41,0,0,0,2.71.66Zm-.59-1.58a1.31,1.31,0,0,0-1.34-1.4,1.37,1.37,0,0,0-1.34,1.4Z" transform="translate(-60.92 -21.92)"/><path class="cls-2" d="M175.4,351.5h.66v.65h0a1.5,1.5,0,0,1,1.29-.73,1.44,1.44,0,0,1,1.44,1.08l-.68.29a.83.83,0,0,0-.87-.67,1.22,1.22,0,0,0-1.16,1.37V356h-.69Z" transform="translate(-60.92 -21.92)"/><path class="cls-2" d="M180.46,351.5h2.21v3.91h1.49V356h-3.74v-.59H182v-3.32h-1.52Zm1.47-1.7h.8v.79h-.8Z" transform="translate(-60.92 -21.92)"/><path class="cls-2" d="M185.87,351.5h.66v.43h0a1.61,1.61,0,0,1,1.26-.56,1.54,1.54,0,0,1,1.62,1.67v3h-.7v-2.74c0-.81-.31-1.25-1-1.25a1,1,0,0,0-1.15,1.12V356h-.69Z" transform="translate(-60.92 -21.92)"/><path class="cls-2" d="M195.11,355a2,2,0,0,1-1.89,1.15,2.4,2.4,0,0,1,0-4.76c1.18,0,2,.87,2,2.38v.2h-3.39a1.41,1.41,0,0,0,2.71.66Zm-.59-1.58a1.3,1.3,0,0,0-1.33-1.4,1.37,1.37,0,0,0-1.35,1.4Z" transform="translate(-60.92 -21.92)"/><path class="cls-2" d="M204.19,350.05h3.52v.65h-2.79v1.93h2.55v.62h-2.55v2.1h2.79V356h-3.52Z" transform="translate(-60.92 -21.92)"/><path class="cls-2" d="M209.76,349.8h2.16v5.58h1.54V356h-3.74v-.62h1.5v-5h-1.46Z" transform="translate(-60.92 -21.92)"/><path class="cls-2" d="M215.35,349.8h.7v3.76h0L218,351.5h.93l-1.65,1.78,1.85,2.72h-.84l-1.53-2.29h0l-.65.73V356h-.7Z" transform="translate(-60.92 -21.92)"/><path class="cls-2" d="M223.56,355.51h0a1.58,1.58,0,0,1-1.38.62c-1,0-1.54-.6-1.54-1.29s.44-1.13,1.53-1.41c.81-.2,1.29-.35,1.29-.79s-.34-.65-.94-.65a1,1,0,0,0-1.1.89l-.64-.19a1.62,1.62,0,0,1,1.72-1.32c1,0,1.7.53,1.7,1.42V356h-.62Zm-2.24-.71c0,.41.22.71.89.71.86,0,1.28-.45,1.28-1v-1.12h0c-.06.13-.23.28-1.16.54S221.32,354.43,221.32,354.8Z" transform="translate(-60.92 -21.92)"/><path class="cls-2" d="M226.73,351.5h.67v.65h0a1.5,1.5,0,0,1,1.29-.73,1.44,1.44,0,0,1,1.44,1.08l-.68.29a.84.84,0,0,0-.87-.67,1.22,1.22,0,0,0-1.16,1.37V356h-.7Z" transform="translate(-60.92 -21.92)"/><path class="cls-2" d="M233,356.52a.45.45,0,0,0,.4-.52H233v-1h1v.87a.94.94,0,0,1-1,1Z" transform="translate(-60.92 -21.92)"/><path class="cls-2" d="M245.69,352.9,244,350.05h.8l1.33,2.35h0l1.27-2.35h.79L246.57,353l1.81,3h-.8l-1.46-2.54h0L244.65,356h-.8Z" transform="translate(-60.92 -21.92)"/><path class="cls-2" d="M252.79,355.51h0a1.58,1.58,0,0,1-1.38.62c-1.05,0-1.54-.6-1.54-1.29s.44-1.13,1.53-1.41c.81-.2,1.29-.35,1.29-.79s-.34-.65-.94-.65a1,1,0,0,0-1.1.89l-.64-.19a1.61,1.61,0,0,1,1.72-1.32c1,0,1.7.53,1.7,1.42V356h-.63Zm-2.23-.71c0,.41.22.71.89.71.86,0,1.28-.45,1.28-1v-1.12h0c-.06.13-.23.28-1.16.54S250.56,354.43,250.56,354.8Z" transform="translate(-60.92 -21.92)"/><path class="cls-2" d="M255.06,351.5h.73l1.37,3.52h0l1.38-3.52h.73l-1.82,4.5h-.59Z" transform="translate(-60.92 -21.92)"/><path class="cls-2" d="M261,351.5h2.21v3.91h1.49V356H261v-.59h1.56v-3.32H261Zm1.47-1.7h.8v.79h-.8Z" transform="translate(-60.92 -21.92)"/><path class="cls-2" d="M270.16,355a2,2,0,0,1-1.89,1.15,2.4,2.4,0,0,1,0-4.76c1.18,0,2,.87,2,2.38v.2h-3.4a1.4,1.4,0,0,0,1.38,1.55,1.37,1.37,0,0,0,1.33-.89Zm-.59-1.58a1.29,1.29,0,0,0-1.33-1.4,1.35,1.35,0,0,0-1.34,1.4Z" transform="translate(-60.92 -21.92)"/><path class="cls-2" d="M272.55,351.5h.66v.65h0a1.47,1.47,0,0,1,1.28-.73A1.45,1.45,0,0,1,276,352.5l-.68.29a.85.85,0,0,0-.88-.67,1.22,1.22,0,0,0-1.15,1.37V356h-.7Z" transform="translate(-60.92 -21.92)"/><path class="cls-2" d="M284.84,350.05h3.45v.65h-2.71v2.15h2.47v.62h-2.47V356h-.74Z" transform="translate(-60.92 -21.92)"/><path class="cls-2" d="M290.74,351.5h.66v.65h0a1.47,1.47,0,0,1,1.28-.73,1.45,1.45,0,0,1,1.45,1.08l-.68.29a.85.85,0,0,0-.88-.67,1.22,1.22,0,0,0-1.15,1.37V356h-.7Z" transform="translate(-60.92 -21.92)"/><path class="cls-2" d="M298.61,355.51h0a1.58,1.58,0,0,1-1.37.62c-1.06,0-1.54-.6-1.54-1.29s.43-1.13,1.53-1.41c.8-.2,1.29-.35,1.29-.79s-.35-.65-.94-.65a1,1,0,0,0-1.1.89l-.65-.19a1.62,1.62,0,0,1,1.72-1.32c1,0,1.71.53,1.71,1.42V356h-.63Zm-2.24-.71c0,.41.23.71.9.71.86,0,1.27-.45,1.27-1v-1.12h0c-.06.13-.23.28-1.15.54S296.37,354.43,296.37,354.8Z" transform="translate(-60.92 -21.92)"/><path class="cls-2" d="M301.21,351.5h.66v.43h0a1.64,1.64,0,0,1,1.27-.56,1.53,1.53,0,0,1,1.61,1.67v3h-.7v-2.74c0-.81-.31-1.25-1-1.25a1,1,0,0,0-1.14,1.12V356h-.7Z" transform="translate(-60.92 -21.92)"/><path class="cls-2" d="M310.65,354.41a1.86,1.86,0,0,1-1.88,1.72,2.11,2.11,0,0,1-2.07-2.38,2.13,2.13,0,0,1,2.07-2.38,1.83,1.83,0,0,1,1.84,1.65l-.65.13a1.24,1.24,0,0,0-1.19-1.15c-.79,0-1.36.62-1.36,1.75s.52,1.75,1.37,1.75a1.28,1.28,0,0,0,1.19-1.23Z" transform="translate(-60.92 -21.92)"/><path class="cls-2" d="M316,355a2,2,0,0,1-1.88,1.15,2.4,2.4,0,0,1,0-4.76c1.18,0,2,.87,2,2.38v.2h-3.4a1.41,1.41,0,0,0,1.38,1.55,1.37,1.37,0,0,0,1.33-.89Zm-.58-1.58a1.31,1.31,0,0,0-1.34-1.4,1.36,1.36,0,0,0-1.34,1.4Z" transform="translate(-60.92 -21.92)"/><path class="cls-2" d="M318.32,354.34a1.25,1.25,0,0,0,1.44,1.18c.86,0,1.18-.3,1.18-.71s-.13-.59-1.44-.92-1.7-.72-1.68-1.32.58-1.2,1.69-1.2a1.77,1.77,0,0,1,1.89,1.26l-.62.2a1.2,1.2,0,0,0-1.26-.87c-.71,0-1,.33-1,.59s0,.48,1.42.83c1.56.4,1.64.78,1.66,1.43s-.45,1.32-1.81,1.32a1.85,1.85,0,0,1-2.11-1.66Z" transform="translate(-60.92 -21.92)"/><path class="cls-2" d="M327.22,354.41a1.85,1.85,0,0,1-1.88,1.72,2.1,2.1,0,0,1-2.06-2.38,2.13,2.13,0,0,1,2.06-2.38,1.84,1.84,0,0,1,1.85,1.65l-.66.13a1.24,1.24,0,0,0-1.19-1.15c-.79,0-1.36.62-1.36,1.75s.53,1.75,1.37,1.75a1.29,1.29,0,0,0,1.2-1.23Z" transform="translate(-60.92 -21.92)"/><path class="cls-2" d="M328.87,349.8h.7V352h0a1.68,1.68,0,0,1,1.32-.58,1.53,1.53,0,0,1,1.62,1.69V356h-.7v-2.75c0-.76-.32-1.24-1.05-1.24a1.11,1.11,0,0,0-1.2,1.16V356h-.7Z" transform="translate(-60.92 -21.92)"/><path class="cls-2" d="M334.48,351.5h2.21v3.91h1.49V356h-3.74v-.59H336v-3.32h-1.52Zm1.47-1.7h.8v.79H336Z" transform="translate(-60.92 -21.92)"/><path class="cls-2" d="M350.74,355a2,2,0,0,1-1.89,1.15,2.4,2.4,0,0,1,0-4.76c1.18,0,2,.87,2,2.38v.2h-3.4a1.4,1.4,0,0,0,1.38,1.55,1.38,1.38,0,0,0,1.33-.89Zm-.59-1.58a1.29,1.29,0,0,0-1.33-1.4,1.35,1.35,0,0,0-1.34,1.4Z" transform="translate(-60.92 -21.92)"/><path class="cls-2" d="M353.81,352.12h-1.44v-.62h1.45v-1.11h.68v1.11h1.62v.62h-1.61v2.49c0,.5.09.72.55.72h.76V356H355c-.87,0-1.21-.47-1.21-1.31Z" transform="translate(-60.92 -21.92)"/><path class="cls-2" d="M168.59,366.05h.73v5.3h2.81V372h-3.54Z" transform="translate(-60.92 -21.92)"/><path class="cls-2" d="M176.61,371.5h0a1.56,1.56,0,0,1-1.37.63c-1.06,0-1.54-.6-1.54-1.29s.43-1.13,1.53-1.41c.81-.2,1.29-.35,1.29-.79s-.35-.65-.94-.65a1,1,0,0,0-1.1.89l-.65-.19a1.61,1.61,0,0,1,1.72-1.32c1,0,1.71.53,1.71,1.41V372h-.63Zm-2.23-.7c0,.41.22.7.89.7.86,0,1.27-.45,1.27-.95v-1.12h0c-.06.13-.23.28-1.16.54S174.38,370.42,174.38,370.8Z" transform="translate(-60.92 -21.92)"/><path class="cls-2" d="M179.25,367.49h.69v2.83c0,.84.3,1.16,1.05,1.16s1-.44,1-1.19v-2.8h.7V372h-.69v-.44h0a1.46,1.46,0,0,1-1.19.57c-1,0-1.59-.54-1.59-1.71Z" transform="translate(-60.92 -21.92)"/><path class="cls-2" d="M185.31,367.49H186v.66h0a1.48,1.48,0,0,1,1.29-.73,1.44,1.44,0,0,1,1.44,1.08l-.68.28a.83.83,0,0,0-.87-.66,1.22,1.22,0,0,0-1.16,1.37V372h-.7Z" transform="translate(-60.92 -21.92)"/><path class="cls-2" d="M194,371a2.05,2.05,0,0,1-1.89,1.15,2.4,2.4,0,0,1,0-4.76c1.18,0,2,.87,2,2.38v.2H190.7a1.41,1.41,0,0,0,2.71.65Zm-.59-1.58a1.31,1.31,0,0,0-1.33-1.41,1.37,1.37,0,0,0-1.35,1.41Z" transform="translate(-60.92 -21.92)"/><path class="cls-2" d="M195.79,367.49h.66v.44h0a1.61,1.61,0,0,1,1.26-.56,1.53,1.53,0,0,1,1.62,1.67v3h-.7v-2.74c0-.82-.31-1.26-1-1.26a1.05,1.05,0,0,0-1.15,1.12V372h-.69Z" transform="translate(-60.92 -21.92)"/><path class="cls-2" d="M205.22,370.41a1.86,1.86,0,0,1-1.88,1.72,2.1,2.1,0,0,1-2.06-2.38,2.13,2.13,0,0,1,2.06-2.38,1.84,1.84,0,0,1,1.85,1.64l-.66.14c-.12-.6-.46-1.16-1.19-1.16s-1.36.62-1.36,1.76.53,1.75,1.37,1.75a1.29,1.29,0,0,0,1.2-1.23Z" transform="translate(-60.92 -21.92)"/><path class="cls-2" d="M210.55,371a2.05,2.05,0,0,1-1.89,1.15,2.4,2.4,0,0,1,0-4.76c1.18,0,2,.87,2,2.38v.2h-3.4a1.4,1.4,0,0,0,1.38,1.55,1.36,1.36,0,0,0,1.33-.9ZM210,369.4a1.29,1.29,0,0,0-1.33-1.41,1.36,1.36,0,0,0-1.34,1.41Z" transform="translate(-60.92 -21.92)"/><path class="cls-2" d="M217.52,369c0-2,1.11-3,2.32-3a2.1,2.1,0,0,1,2,2l-.7.13c-.13-.77-.52-1.42-1.32-1.42s-1.55.74-1.55,2.37.66,2.5,1.55,2.5,1.4-.65,1.37-1.73h-1.5v-.65h2.21v.58c0,1.57-.9,2.47-2.08,2.47S217.52,371.23,217.52,369Z" transform="translate(-60.92 -21.92)"/><path class="cls-2" d="M226.34,371.5h0a1.58,1.58,0,0,1-1.38.63c-1.05,0-1.54-.6-1.54-1.29s.44-1.13,1.53-1.41c.81-.2,1.3-.35,1.3-.79s-.35-.65-.95-.65a1,1,0,0,0-1.09.89l-.65-.19a1.61,1.61,0,0,1,1.72-1.32c1,0,1.7.53,1.7,1.41V372h-.62Zm-2.24-.7c0,.41.22.7.89.7.86,0,1.28-.45,1.28-.95v-1.12h0c-.06.13-.23.28-1.16.54S224.1,370.42,224.1,370.8Z" transform="translate(-60.92 -21.92)"/><path class="cls-2" d="M230.19,368.11h-1.43v-.62h1.44v-1.1h.68v1.1h1.63v.62h-1.62v2.49c0,.5.09.73.55.73h.77V372h-.8c-.88,0-1.22-.47-1.22-1.31Z" transform="translate(-60.92 -21.92)"/><path class="cls-2" d="M238.18,371a2.07,2.07,0,0,1-1.89,1.15,2.15,2.15,0,0,1-2.11-2.38,2.12,2.12,0,0,1,2.07-2.38c1.19,0,2,.87,2,2.38v.2H234.9a1.41,1.41,0,0,0,2.71.65Zm-.59-1.58a1.31,1.31,0,0,0-1.34-1.41,1.37,1.37,0,0,0-1.34,1.41Z" transform="translate(-60.92 -21.92)"/><path class="cls-2" d="M242.91,371.5h0a1.56,1.56,0,0,1-1.37.63c-1.06,0-1.54-.6-1.54-1.29s.43-1.13,1.53-1.41c.8-.2,1.29-.35,1.29-.79s-.35-.65-.94-.65a1,1,0,0,0-1.1.89l-.65-.19a1.61,1.61,0,0,1,1.72-1.32c1,0,1.71.53,1.71,1.41V372h-.63Zm-2.24-.7c0,.41.23.7.9.7.86,0,1.27-.45,1.27-.95v-1.12h0c-.06.13-.23.28-1.16.54S240.67,370.42,240.67,370.8Z" transform="translate(-60.92 -21.92)"/><path class="cls-2" d="M245.55,367.49h.69v2.83c0,.84.3,1.16,1,1.16s1.05-.44,1.05-1.19v-2.8h.7V372h-.69v-.44h0a1.47,1.47,0,0,1-1.2.57c-1,0-1.58-.54-1.58-1.71Z" transform="translate(-60.92 -21.92)"/><path class="cls-2" d="M208.49,405.9c.13,1.07.53,1.58,1.45,1.58a1.16,1.16,0,0,0,1.32-1.16c0-.84-.45-1.21-1.3-1.21h-.43v-.61h.18c.32,0,1.34,0,1.34-.95a1,1,0,0,0-1.1-1,1.15,1.15,0,0,0-1.18,1.14l-.67-.12a1.78,1.78,0,0,1,1.86-1.65,1.58,1.58,0,0,1,1.77,1.59,1.24,1.24,0,0,1-.92,1.23v0a1.5,1.5,0,0,1,1.13,1.58,1.82,1.82,0,0,1-2,1.78A2,2,0,0,1,207.8,406Z" transform="translate(-60.92 -21.92)"/><path class="cls-2" d="M214.33,406.42a1.24,1.24,0,0,0,1.25,1.06c.89,0,1.41-.74,1.41-2.44h0a1.6,1.6,0,0,1-1.56.91,2,2,0,0,1,0-4c1.32,0,2.26.95,2.26,3.11s-.95,3.09-2.1,3.09a1.85,1.85,0,0,1-1.89-1.49ZM216.8,404a1.36,1.36,0,0,0-1.39-1.42,1.27,1.27,0,0,0-1.29,1.38,1.34,1.34,0,1,0,2.68,0Z" transform="translate(-60.92 -21.92)"/><path class="cls-2" d="M62.31,428H60.92v-7.29h2.51a2.22,2.22,0,0,1,0,4.43H62.31Zm0-4h.85a1,1,0,0,0,1.08-1.12,1,1,0,0,0-1.16-1.12h-.77Z" transform="translate(-60.92 -21.92)"/><path class="cls-2" d="M72.51,425.08a2.93,2.93,0,0,1-3.07,3.06,3,3,0,0,1-3.14-3.06A3.09,3.09,0,0,1,69.42,422,3,3,0,0,1,72.51,425.08Zm-3.11,1.85a1.85,1.85,0,0,0,0-3.69,1.85,1.85,0,0,0,0,3.69Z" transform="translate(-60.92 -21.92)"/><path class="cls-2" d="M78.59,422.16V426a2.2,2.2,0,0,1-2.4,2.18c-1.51,0-2.53-.8-2.53-2.18v-3.8H75v3.36c0,1.16.45,1.37,1.2,1.37s1.13-.21,1.13-1.35v-3.38Z" transform="translate(-60.92 -21.92)"/><path class="cls-2" d="M81.4,424.82V428H80.1v-5.84h1.24V423a1.61,1.61,0,0,1,1.54-1,1.92,1.92,0,0,1,.71.13l-.42,1.28a2,2,0,0,0-.58-.12C81.71,423.31,81.4,424.17,81.4,424.82Z" transform="translate(-60.92 -21.92)"/><path class="cls-2" d="M95.54,422.16V426a2.2,2.2,0,0,1-2.4,2.18c-1.51,0-2.53-.8-2.53-2.18v-3.8H91.9v3.36c0,1.16.46,1.37,1.21,1.37s1.13-.21,1.13-1.35v-3.38Z" transform="translate(-60.92 -21.92)"/><path class="cls-2" d="M97.05,428v-5.84h1.26V423a1.85,1.85,0,0,1,1.79-.93,1.88,1.88,0,0,1,2,2.05V428h-1.29v-3.32c0-1.07-.36-1.44-1.13-1.44a1.42,1.42,0,0,0-1.35,1.58V428Z" transform="translate(-60.92 -21.92)"/><path class="cls-2" d="M106.27,422.05c2,0,2.89,1.38,2.86,3.38H104.6a1.57,1.57,0,0,0,1.6,1.59,1.85,1.85,0,0,0,1.67-1l1.14.53a3,3,0,0,1-2.76,1.62,2.88,2.88,0,0,1-3-3A3,3,0,0,1,106.27,422.05Zm1.53,2.36a1.43,1.43,0,0,0-1.57-1.28,1.55,1.55,0,0,0-1.58,1.28Z" transform="translate(-60.92 -21.92)"/><path class="cls-2" d="M119.45,422.05a3,3,0,0,1,1.63.44v1.29a2.94,2.94,0,0,0-1.58-.52,1.76,1.76,0,0,0-1.85,2,1.67,1.67,0,0,0,1.85,1.71,2.89,2.89,0,0,0,1.61-.57v1.3a3.13,3.13,0,0,1-1.67.48,2.94,2.94,0,0,1-3.12-2.9A3.05,3.05,0,0,1,119.45,422.05Z" transform="translate(-60.92 -21.92)"/><path class="cls-2" d="M122.3,428v-7.8h1.34v2.59a2.06,2.06,0,0,1,1.69-.77,1.78,1.78,0,0,1,2,1.86V428h-1.28v-3.78c0-.61-.24-1.05-1-1.05-1.14,0-1.42.86-1.42,1.6V428Z" transform="translate(-60.92 -21.92)"/><path class="cls-2" d="M130.11,424.82V428h-1.29v-5.84h1.24V423a1.61,1.61,0,0,1,1.54-1,2,2,0,0,1,.71.13l-.42,1.28a2,2,0,0,0-.59-.12C130.43,423.31,130.11,424.17,130.11,424.82Z" transform="translate(-60.92 -21.92)"/><path class="cls-2" d="M138.77,425.08a2.93,2.93,0,0,1-3.07,3.06,3,3,0,0,1-3.14-3.06,3.09,3.09,0,0,1,3.12-3.07A3,3,0,0,1,138.77,425.08Zm-3.11,1.85a1.85,1.85,0,0,0,0-3.69,1.85,1.85,0,0,0,0,3.69Z" transform="translate(-60.92 -21.92)"/><path class="cls-2" d="M139.92,428v-5.84h1.26V423a1.86,1.86,0,0,1,1.8-.93,1.88,1.88,0,0,1,2,2.05V428h-1.29v-3.32c0-1.07-.36-1.44-1.12-1.44a1.42,1.42,0,0,0-1.35,1.58V428Z" transform="translate(-60.92 -21.92)"/><path class="cls-2" d="M152.3,425.08a2.93,2.93,0,0,1-3.07,3.06,3,3,0,0,1-3.14-3.06,3.09,3.09,0,0,1,3.12-3.07A3,3,0,0,1,152.3,425.08Zm-3.11,1.85a1.85,1.85,0,0,0,0-3.69,1.85,1.85,0,0,0,0,3.69Z" transform="translate(-60.92 -21.92)"/><path class="cls-2" d="M153.44,422.16h1.27V423a2,2,0,0,1,1.8-1,2.88,2.88,0,0,1,2.79,3.12,2.78,2.78,0,0,1-2.74,3,2,2,0,0,1-1.8-.88v3.26h-1.32Zm2.95,1.12a1.7,1.7,0,0,0-1.64,1.87,1.56,1.56,0,0,0,1.65,1.73,1.52,1.52,0,0,0,1.57-1.61C158,424.28,157.52,423.28,156.39,423.28Z" transform="translate(-60.92 -21.92)"/><path class="cls-2" d="M166.31,425.08a2.93,2.93,0,0,1-3.07,3.06,3,3,0,0,1-3.14-3.06,3.09,3.09,0,0,1,3.12-3.07A3,3,0,0,1,166.31,425.08Zm-3.11,1.85a1.85,1.85,0,0,0,0-3.69,1.85,1.85,0,0,0,0,3.69Z" transform="translate(-60.92 -21.92)"/><path class="cls-2" d="M168.81,428h-1.35v-7.8h1.35Z" transform="translate(-60.92 -21.92)"/><path class="cls-2" d="M171.86,420.72a.85.85,0,1,1-.85-.84A.85.85,0,0,1,171.86,420.72Zm-.19,7.28h-1.35v-5.84h1.35Z" transform="translate(-60.92 -21.92)"/><path class="cls-2" d="M173.26,420.71h1.26v1.44h1.08v1.16h-1.08V426c0,.75.24,1,.68,1a2.06,2.06,0,0,0,.47-.07v1.21s-.33,0-.55,0a1.75,1.75,0,0,1-1.87-1.93v-2.88h-.65v-1.16h.66Z" transform="translate(-60.92 -21.92)"/><path class="cls-2" d="M178.21,420.72a.85.85,0,1,1-.85-.84A.85.85,0,0,1,178.21,420.72ZM178,428h-1.35v-5.84H178Z" transform="translate(-60.92 -21.92)"/><path class="cls-2" d="M185,430.55h-1.31v-3.29a1.92,1.92,0,0,1-1.78.88,2.76,2.76,0,0,1-2.74-3,2.83,2.83,0,0,1,2.75-3.1,2.15,2.15,0,0,1,1.87.95v-.84H185Zm-1.25-5.45a1.68,1.68,0,0,0-1.65-1.88c-1.18,0-1.61,1-1.61,2a1.52,1.52,0,0,0,1.6,1.72A1.68,1.68,0,0,0,183.77,425.1Z" transform="translate(-60.92 -21.92)"/><path class="cls-2" d="M191.46,422.16V426a2.2,2.2,0,0,1-2.4,2.18c-1.51,0-2.53-.8-2.53-2.18v-3.8h1.29v3.36c0,1.16.46,1.37,1.21,1.37s1.13-.21,1.13-1.35v-3.38Z" transform="translate(-60.92 -21.92)"/><path class="cls-2" d="M195.66,422.05c2,0,2.89,1.38,2.86,3.38H194A1.57,1.57,0,0,0,195.6,427a1.83,1.83,0,0,0,1.66-1l1.14.53a3,3,0,0,1-2.76,1.62,2.88,2.88,0,0,1-3-3A3,3,0,0,1,195.66,422.05Zm1.53,2.36a1.42,1.42,0,0,0-1.57-1.28,1.54,1.54,0,0,0-1.57,1.28Z" transform="translate(-60.92 -21.92)"/><path class="cls-2" d="M208.52,422.06a2.14,2.14,0,0,1,1.8.81V420.2h1.28V428h-1.24v-.77a2.41,2.41,0,0,1-1.89.91,3.05,3.05,0,0,1,.05-6.08Zm-1.44,3.06c0,1.13.62,1.89,1.58,1.89,1.11,0,1.63-.93,1.63-2a1.63,1.63,0,0,0-1.57-1.83A1.68,1.68,0,0,0,207.08,425.12Z" transform="translate(-60.92 -21.92)"/><path class="cls-2" d="M215.81,422.05c1.95,0,2.89,1.38,2.86,3.38h-4.53a1.57,1.57,0,0,0,1.61,1.59,1.83,1.83,0,0,0,1.66-1l1.14.53a3,3,0,0,1-2.76,1.62,2.88,2.88,0,0,1-3-3A3,3,0,0,1,215.81,422.05Zm1.53,2.36a1.42,1.42,0,0,0-1.57-1.28,1.54,1.54,0,0,0-1.57,1.28Z" transform="translate(-60.92 -21.92)"/><path class="cls-2" d="M227.57,428h-1.35v-7.8h1.35Z" transform="translate(-60.92 -21.92)"/><path class="cls-2" d="M229.4,423.3h-.87l.84-2.59h1.08Z" transform="translate(-60.92 -21.92)"/><path class="cls-2" d="M232.94,420.72a.85.85,0,1,1-.85-.84A.85.85,0,0,1,232.94,420.72Zm-.18,7.28h-1.35v-5.84h1.35Z" transform="translate(-60.92 -21.92)"/><path class="cls-2" d="M234.29,428v-5.84h1.25V423a1.86,1.86,0,0,1,1.8-.93,1.88,1.88,0,0,1,2,2.05V428h-1.29v-3.32c0-1.07-.36-1.44-1.12-1.44a1.42,1.42,0,0,0-1.35,1.58V428Z" transform="translate(-60.92 -21.92)"/><path class="cls-2" d="M240.87,420.71h1.27v1.44h1.07v1.16h-1.08V426c0,.75.24,1,.68,1a2.06,2.06,0,0,0,.47-.07v1.21s-.33,0-.55,0a1.75,1.75,0,0,1-1.87-1.93v-2.88h-.65v-1.16h.66Z" transform="translate(-60.92 -21.92)"/><path class="cls-2" d="M247,422.05c1.95,0,2.89,1.38,2.86,3.38h-4.53a1.57,1.57,0,0,0,1.6,1.59,1.85,1.85,0,0,0,1.67-1l1.14.53a3,3,0,0,1-2.76,1.62,2.88,2.88,0,0,1-3-3A3,3,0,0,1,247,422.05Zm1.53,2.36a1.42,1.42,0,0,0-1.57-1.28,1.55,1.55,0,0,0-1.58,1.28Z" transform="translate(-60.92 -21.92)"/><path class="cls-2" d="M252.3,424.82V428H251v-5.84h1.23V423a1.61,1.61,0,0,1,1.54-1,2,2,0,0,1,.72.13l-.42,1.28a2.11,2.11,0,0,0-.59-.12C252.61,423.31,252.3,424.17,252.3,424.82Z" transform="translate(-60.92 -21.92)"/><path class="cls-2" d="M255.19,428v-5.84h1.25V423a1.86,1.86,0,0,1,1.8-.93,1.88,1.88,0,0,1,2,2.05V428H259v-3.32c0-1.07-.36-1.44-1.12-1.44a1.42,1.42,0,0,0-1.35,1.58V428Z" transform="translate(-60.92 -21.92)"/><path class="cls-2" d="M264.13,422.05a2.17,2.17,0,0,1,1.88.87v-.76h1.22V428H266v-.79a2.19,2.19,0,0,1-1.9.93,3.06,3.06,0,0,1,0-6.09Zm-1.39,3c0,1.13.56,1.92,1.56,1.92,1.16,0,1.65-1,1.65-2a1.67,1.67,0,0,0-1.59-1.84A1.71,1.71,0,0,0,262.74,425.09Z" transform="translate(-60.92 -21.92)"/><path class="cls-2" d="M268.8,420.71h1.26v1.44h1.08v1.16h-1.08V426c0,.75.24,1,.68,1a2.06,2.06,0,0,0,.47-.07v1.21s-.33,0-.55,0a1.75,1.75,0,0,1-1.87-1.93v-2.88h-.65v-1.16h.66Z" transform="translate(-60.92 -21.92)"/><path class="cls-2" d="M273.75,420.72a.85.85,0,1,1-.85-.84A.85.85,0,0,1,273.75,420.72Zm-.18,7.28h-1.35v-5.84h1.35Z" transform="translate(-60.92 -21.92)"/><path class="cls-2" d="M280.94,425.08a2.93,2.93,0,0,1-3.07,3.06,3,3,0,0,1-3.13-3.06,3.08,3.08,0,0,1,3.11-3.07A3,3,0,0,1,280.94,425.08Zm-3.1,1.85a1.85,1.85,0,0,0,0-3.69,1.85,1.85,0,0,0,0,3.69Z" transform="translate(-60.92 -21.92)"/><path class="cls-2" d="M282.1,428v-5.84h1.25V423a1.86,1.86,0,0,1,1.8-.93,1.88,1.88,0,0,1,2,2.05V428h-1.3v-3.32c0-1.07-.36-1.44-1.12-1.44a1.42,1.42,0,0,0-1.35,1.58V428Z" transform="translate(-60.92 -21.92)"/><path class="cls-2" d="M291,422.05a2.17,2.17,0,0,1,1.88.87v-.76h1.22V428h-1.22v-.79a2.19,2.19,0,0,1-1.9.93,3.06,3.06,0,0,1,0-6.09Zm-1.39,3c0,1.13.56,1.92,1.56,1.92,1.16,0,1.66-1,1.66-2a1.68,1.68,0,0,0-1.6-1.84A1.72,1.72,0,0,0,289.65,425.09Z" transform="translate(-60.92 -21.92)"/><path class="cls-2" d="M297,428h-1.35v-7.8H297Z" transform="translate(-60.92 -21.92)"/><path class="cls-2" d="M300.05,420.72a.85.85,0,1,1-.85-.84A.85.85,0,0,1,300.05,420.72Zm-.18,7.28h-1.35v-5.84h1.35Z" transform="translate(-60.92 -21.92)"/><path class="cls-2" d="M303,422.05a2.08,2.08,0,0,1,1.8.89s-.76.64-.93.77a1.09,1.09,0,0,0-.93-.6.57.57,0,0,0-.61.57c0,.34.34.56.68.7l.75.3a1.75,1.75,0,0,1,1.3,1.71c0,1.1-1,1.75-2.16,1.75A2.41,2.41,0,0,1,300.8,427l1-.67s.47.8,1.09.8c.45,0,.82-.24.82-.65s-.51-.63-.95-.81l-.47-.2a1.74,1.74,0,0,1,.65-3.41Z" transform="translate(-60.92 -21.92)"/><path class="cls-2" d="M308.49,422.05a2.17,2.17,0,0,1,1.88.87v-.76h1.22V428h-1.22v-.79a2.19,2.19,0,0,1-1.9.93,3.06,3.06,0,0,1,0-6.09Zm-1.39,3c0,1.13.57,1.92,1.56,1.92,1.16,0,1.66-1,1.66-2a1.68,1.68,0,0,0-1.6-1.84A1.72,1.72,0,0,0,307.1,425.09Z" transform="translate(-60.92 -21.92)"/><path class="cls-2" d="M313.16,420.71h1.27v1.44h1.07v1.16h-1.08V426c0,.75.25,1,.68,1a2.06,2.06,0,0,0,.47-.07v1.21s-.32,0-.54,0a1.75,1.75,0,0,1-1.88-1.93v-2.88h-.64v-1.16h.65Z" transform="translate(-60.92 -21.92)"/><path class="cls-2" d="M318.12,420.72a.85.85,0,1,1-1.7,0,.85.85,0,0,1,1.7,0Zm-.19,7.28h-1.35v-5.84h1.35Z" transform="translate(-60.92 -21.92)"/><path class="cls-2" d="M325.31,425.08a2.93,2.93,0,0,1-3.07,3.06,3,3,0,0,1-3.14-3.06,3.09,3.09,0,0,1,3.12-3.07A3,3,0,0,1,325.31,425.08Zm-3.11,1.85a1.85,1.85,0,0,0,0-3.69,1.85,1.85,0,0,0,0,3.69Z" transform="translate(-60.92 -21.92)"/><path class="cls-2" d="M326.46,428v-5.84h1.26V423a1.86,1.86,0,0,1,1.8-.93,1.88,1.88,0,0,1,2,2.05V428h-1.29v-3.32c0-1.07-.36-1.44-1.12-1.44a1.42,1.42,0,0,0-1.35,1.58V428Z" transform="translate(-60.92 -21.92)"/><path class="cls-2" d="M341.83,422.06a2.13,2.13,0,0,1,1.8.81V420.2h1.28V428h-1.24v-.77a2.41,2.41,0,0,1-1.89.91,3.05,3.05,0,0,1,.05-6.08Zm-1.44,3.06c0,1.13.62,1.89,1.58,1.89s1.63-.93,1.63-2a1.63,1.63,0,0,0-1.56-1.83A1.68,1.68,0,0,0,340.39,425.12Z" transform="translate(-60.92 -21.92)"/><path class="cls-2" d="M349.12,422.05c1.95,0,2.89,1.38,2.86,3.38h-4.53a1.57,1.57,0,0,0,1.61,1.59,1.82,1.82,0,0,0,1.66-1l1.14.53a3,3,0,0,1-2.76,1.62,2.88,2.88,0,0,1-3-3A3,3,0,0,1,349.12,422.05Zm1.53,2.36a1.42,1.42,0,0,0-1.57-1.28,1.54,1.54,0,0,0-1.57,1.28Z" transform="translate(-60.92 -21.92)"/><path class="cls-2" d="M354.73,422.05a2.05,2.05,0,0,1,1.79.89s-.76.64-.93.77a1.07,1.07,0,0,0-.92-.6.58.58,0,0,0-.62.57c0,.34.34.56.69.7s.44.18.75.3a1.75,1.75,0,0,1,1.29,1.71c0,1.1-1,1.75-2.16,1.75a2.4,2.4,0,0,1-2.07-1.15l1-.67s.46.8,1.09.8c.45,0,.82-.24.82-.65s-.52-.63-.95-.81l-.48-.2a1.74,1.74,0,0,1,.66-3.41Z" transform="translate(-60.92 -21.92)"/><path class="cls-2" d="M184.51,442a3.05,3.05,0,0,1,1.63.45v1.28a3,3,0,0,0-1.58-.51,1.76,1.76,0,0,0-1.85,2,1.67,1.67,0,0,0,1.85,1.71,2.92,2.92,0,0,0,1.61-.57v1.3a3.15,3.15,0,0,1-1.68.48,2.94,2.94,0,0,1-3.12-2.9A3.07,3.07,0,0,1,184.51,442Z" transform="translate(-60.92 -21.92)"/><path class="cls-2" d="M193.21,445.08a2.93,2.93,0,0,1-3.07,3.06,3,3,0,0,1-3.14-3.06,3.09,3.09,0,0,1,3.12-3.07A3,3,0,0,1,193.21,445.08Zm-3.11,1.85a1.85,1.85,0,0,0,0-3.69,1.85,1.85,0,0,0,0,3.69Z" transform="translate(-60.92 -21.92)"/><path class="cls-2" d="M195.7,448h-1.35v-7.8h1.35Z" transform="translate(-60.92 -21.92)"/><path class="cls-2" d="M198.57,448h-1.35v-7.8h1.35Z" transform="translate(-60.92 -21.92)"/><path class="cls-2" d="M202.79,442c2,0,2.89,1.39,2.86,3.39h-4.53a1.57,1.57,0,0,0,1.6,1.59,1.85,1.85,0,0,0,1.67-1l1.14.53a3,3,0,0,1-2.76,1.62,2.88,2.88,0,0,1-3-3A3,3,0,0,1,202.79,442Zm1.53,2.37a1.43,1.43,0,0,0-1.57-1.28,1.55,1.55,0,0,0-1.58,1.28Z" transform="translate(-60.92 -21.92)"/><path class="cls-2" d="M209.58,442a3.05,3.05,0,0,1,1.63.45v1.28a3,3,0,0,0-1.58-.51,1.76,1.76,0,0,0-1.85,2,1.67,1.67,0,0,0,1.85,1.71,2.92,2.92,0,0,0,1.61-.57v1.3a3.15,3.15,0,0,1-1.68.48,2.94,2.94,0,0,1-3.12-2.9A3.07,3.07,0,0,1,209.58,442Z" transform="translate(-60.92 -21.92)"/><path class="cls-2" d="M212.49,440.71h1.26v1.44h1.08v1.16h-1.09V446c0,.75.25,1,.69,1a1.8,1.8,0,0,0,.46-.08v1.22s-.32,0-.54,0a1.75,1.75,0,0,1-1.87-1.93v-2.88h-.65v-1.16h.66Z" transform="translate(-60.92 -21.92)"/><path class="cls-2" d="M217.44,440.72a.85.85,0,1,1-.85-.84A.85.85,0,0,1,217.44,440.72Zm-.18,7.28h-1.35v-5.84h1.35Z" transform="translate(-60.92 -21.92)"/><path class="cls-2" d="M224.63,445.08a2.93,2.93,0,0,1-3.07,3.06,3,3,0,0,1-3.14-3.06,3.09,3.09,0,0,1,3.12-3.07A3,3,0,0,1,224.63,445.08Zm-3.11,1.85a1.85,1.85,0,0,0,0-3.69,1.85,1.85,0,0,0,0,3.69Z" transform="translate(-60.92 -21.92)"/><path class="cls-2" d="M225.79,448v-5.84H227V443a1.86,1.86,0,0,1,1.8-.94,1.88,1.88,0,0,1,2,2.06V448h-1.29v-3.32c0-1.08-.36-1.44-1.12-1.44a1.42,1.42,0,0,0-1.35,1.58V448Z" transform="translate(-60.92 -21.92)"/><path class="cls-2" d="M233.9,442a2.09,2.09,0,0,1,1.8.9s-.76.64-.93.77a1.1,1.1,0,0,0-.93-.6.57.57,0,0,0-.61.57c0,.34.34.56.68.7l.75.3a1.74,1.74,0,0,1,1.29,1.71c0,1.1-1,1.75-2.15,1.75a2.4,2.4,0,0,1-2.08-1.15l1-.67s.47.8,1.09.8c.45,0,.82-.24.82-.66s-.51-.62-.95-.8l-.48-.2a1.75,1.75,0,0,1,.66-3.42Z" transform="translate(-60.92 -21.92)"/><path class="cls-2" d="M124.17,462.84h-2.44l-.36,1.16h-.74l2-5.95h.74l2,5.95h-.74ZM123,459h0l-1,3.23h2Z" transform="translate(-60.92 -21.92)"/><path class="cls-2" d="M126.9,457.8h2.16v5.58h1.54V464h-3.74v-.62h1.5v-5H126.9Z" transform="translate(-60.92 -21.92)"/><path class="cls-2" d="M132.37,459.5h2.21v3.91h1.48V464h-3.74v-.59h1.57v-3.32h-1.52Zm1.47-1.7h.79v.79h-.79Z" transform="translate(-60.92 -21.92)"/><path class="cls-2" d="M137.5,461.75a2.07,2.07,0,1,1,4.1,0,2.07,2.07,0,1,1-4.1,0Zm3.38,0c0-1.14-.57-1.75-1.32-1.75s-1.35.59-1.35,1.75.6,1.75,1.35,1.75S140.88,462.89,140.88,461.75Z" transform="translate(-60.92 -21.92)"/><path class="cls-2" d="M147.21,462.41a1.86,1.86,0,0,1-1.88,1.72,2.11,2.11,0,0,1-2.07-2.38,2.13,2.13,0,0,1,2.07-2.38,1.83,1.83,0,0,1,1.84,1.65l-.65.13a1.24,1.24,0,0,0-1.19-1.15c-.79,0-1.36.62-1.36,1.75s.52,1.75,1.37,1.75a1.28,1.28,0,0,0,1.19-1.23Z" transform="translate(-60.92 -21.92)"/><path class="cls-2" d="M148.86,457.8h.69V460h0a1.66,1.66,0,0,1,1.32-.58,1.53,1.53,0,0,1,1.61,1.69V464h-.7v-2.75c0-.76-.31-1.24-1-1.24a1.12,1.12,0,0,0-1.21,1.16V464h-.69Z" transform="translate(-60.92 -21.92)"/><path class="cls-2" d="M157.27,463.51h0a1.56,1.56,0,0,1-1.37.62c-1.06,0-1.54-.6-1.54-1.29s.43-1.13,1.53-1.41c.81-.2,1.29-.35,1.29-.79s-.35-.65-.94-.65a1,1,0,0,0-1.1.89l-.65-.19a1.62,1.62,0,0,1,1.72-1.32c1,0,1.71.53,1.71,1.42V464h-.63ZM155,462.8c0,.41.22.71.89.71.86,0,1.27-.45,1.27-1v-1.12h0c-.06.13-.23.28-1.16.54S155,462.43,155,462.8Z" transform="translate(-60.92 -21.92)"/><path class="cls-2" d="M165.39,458.05H169v.64h-1.43v4.67H169V464h-3.57v-.64h1.42v-4.67h-1.42Z" transform="translate(-60.92 -21.92)"/><path class="cls-2" d="M170.8,459.5h.63v.43h0a.79.79,0,0,1,.72-.56.82.82,0,0,1,.81.66h0a.94.94,0,0,1,.89-.66c.78,0,1,.6,1,1.56V464h-.65v-2.86c0-.74-.08-1.13-.5-1.13s-.59.4-.59,1.07V464h-.62v-2.86c0-.74-.09-1.13-.52-1.13s-.58.5-.58,1.07V464h-.65Z" transform="translate(-60.92 -21.92)"/><path class="cls-2" d="M176.48,457.8h.7V460h0a1.68,1.68,0,0,1,1.32-.58,1.53,1.53,0,0,1,1.62,1.69V464h-.7v-2.75c0-.76-.31-1.24-1.05-1.24a1.11,1.11,0,0,0-1.2,1.16V464h-.7Z" transform="translate(-60.92 -21.92)"/><path class="cls-2" d="M181.7,461.75a2.07,2.07,0,1,1,4.1,0,2.07,2.07,0,1,1-4.1,0Zm3.38,0c0-1.14-.57-1.75-1.32-1.75s-1.35.59-1.35,1.75.6,1.75,1.35,1.75S185.08,462.89,185.08,461.75Z" transform="translate(-60.92 -21.92)"/><path class="cls-2" d="M188.9,460.12h-1.42v-.62h1.42v-.69c0-.81.42-1,1-1h.92v.62H190c-.35,0-.44.09-.44.52v.56h1.64v.62H189.6V464h-.7Z" transform="translate(-60.92 -21.92)"/><path class="cls-2" d="M194.42,460.12H193v-.62h1.42v-.69c0-.81.43-1,1-1h.91v.62h-.79c-.34,0-.44.09-.44.52v.56h1.64v.62h-1.63V464h-.7Z" transform="translate(-60.92 -21.92)"/><path class="cls-2" d="M207.79,463a2,2,0,0,1-1.89,1.15,2.4,2.4,0,0,1,0-4.76c1.19,0,2,.87,2,2.38v.2h-3.4a1.41,1.41,0,0,0,2.72.66Zm-.59-1.58a1.31,1.31,0,0,0-1.34-1.4,1.37,1.37,0,0,0-1.34,1.4Z" transform="translate(-60.92 -21.92)"/><path class="cls-2" d="M210.85,460.12h-1.43v-.62h1.44v-1.11h.68v1.11h1.63v.62h-1.62v2.49c0,.5.09.72.55.72h.77V464h-.8c-.88,0-1.22-.47-1.22-1.31Z" transform="translate(-60.92 -21.92)"/><path class="cls-2" d="M220.61,458.05h.72V461h0l2.42-2.91h.88l-2.18,2.6,2.42,3.35H224l-2-2.81h0l-.65.75V464h-.72Z" transform="translate(-60.92 -21.92)"/><path class="cls-2" d="M229.09,463.51h0a1.58,1.58,0,0,1-1.38.62c-1,0-1.54-.6-1.54-1.29s.44-1.13,1.53-1.41c.81-.2,1.29-.35,1.29-.79s-.34-.65-.94-.65a1,1,0,0,0-1.1.89l-.64-.19a1.61,1.61,0,0,1,1.72-1.32c1,0,1.7.53,1.7,1.42V464h-.63Zm-2.23-.71c0,.41.22.71.89.71.86,0,1.28-.45,1.28-1v-1.12h0c-.06.13-.23.28-1.16.54S226.86,462.43,226.86,462.8Z" transform="translate(-60.92 -21.92)"/><path class="cls-2" d="M231.7,459.5h.66v.43h0a1.61,1.61,0,0,1,1.26-.56,1.54,1.54,0,0,1,1.62,1.67v3h-.7v-2.74c0-.81-.31-1.25-1-1.25a1,1,0,0,0-1.15,1.12V464h-.69Z" transform="translate(-60.92 -21.92)"/><path class="cls-2" d="M238.48,460.12H237v-.62h1.45v-1.11h.68v1.11h1.62v.62h-1.61v2.49c0,.5.09.72.55.72h.76V464h-.8c-.87,0-1.21-.47-1.21-1.31Z" transform="translate(-60.92 -21.92)"/><path class="cls-2" d="M242.78,459.5h.7v2.83c0,.84.29,1.15,1,1.15s1.06-.44,1.06-1.19V459.5h.69V464h-.69v-.43h0a1.59,1.59,0,0,1-2.79-1.14Z" transform="translate(-60.92 -21.92)"/><path class="cls-2" d="M249.53,460.12h-1.44v-.62h1.45v-1.11h.68v1.11h1.62v.62h-1.61v2.49c0,.5.09.72.55.72h.76V464h-.8c-.87,0-1.21-.47-1.21-1.31Z" transform="translate(-60.92 -21.92)"/><path class="cls-2" d="M256.72,463.51h0a1.58,1.58,0,0,1-1.37.62c-1.06,0-1.54-.6-1.54-1.29s.43-1.13,1.53-1.41c.8-.2,1.29-.35,1.29-.79s-.35-.65-.94-.65a1,1,0,0,0-1.1.89l-.65-.19a1.62,1.62,0,0,1,1.72-1.32c1,0,1.71.53,1.71,1.42V464h-.63Zm-2.24-.71c0,.41.23.71.9.71.85,0,1.27-.45,1.27-1v-1.12h0c-.06.13-.23.28-1.15.54S254.48,462.43,254.48,462.8Z" transform="translate(-60.92 -21.92)"/><path class="cls-2" d="M264.37,461c0-2,1.12-3.05,2.25-3.05s2.25,1,2.25,3.09a4.16,4.16,0,0,1-.49,2.11l.63.63-.41.39-.58-.57a2,2,0,0,1-1.4.56C265.47,464.13,264.37,463.25,264.37,461Zm3.16,2.1-1.42-1.42.41-.39,1.32,1.32a3.89,3.89,0,0,0,.27-1.57c0-1.65-.64-2.42-1.49-2.42s-1.49.74-1.49,2.38.64,2.49,1.49,2.49A1.2,1.2,0,0,0,267.53,463.07Z" transform="translate(-60.92 -21.92)"/><path class="cls-2" d="M270.4,459.5h.7v2.83c0,.84.3,1.15,1,1.15s1.05-.44,1.05-1.19V459.5h.7V464h-.69v-.43h0a1.59,1.59,0,0,1-2.79-1.14Z" transform="translate(-60.92 -21.92)"/><path class="cls-2" d="M276,459.5h2.21v3.91h1.49V464H276v-.59h1.57v-3.32H276Zm1.47-1.7h.8v.79h-.8Z" transform="translate(-60.92 -21.92)"/><path class="cls-2" d="M282,459.5h.66v.65h0a1.47,1.47,0,0,1,1.28-.73,1.45,1.45,0,0,1,1.45,1.08l-.68.29a.85.85,0,0,0-.88-.67,1.22,1.22,0,0,0-1.15,1.37V464H282Z" transform="translate(-60.92 -21.92)"/><path class="cls-2" d="M286.67,461.75a2.07,2.07,0,1,1,4.1,0c0,1.54-.9,2.38-2,2.38A2.11,2.11,0,0,1,286.67,461.75Zm3.39,0c0-1.14-.57-1.75-1.32-1.75s-1.35.59-1.35,1.75.59,1.75,1.35,1.75S290.06,462.89,290.06,461.75Zm-.9-3.83H290l-.9,1h-.61Z" transform="translate(-60.92 -21.92)"/><path class="cls-2" d="M293,462.34a1.24,1.24,0,0,0,1.43,1.18c.86,0,1.18-.3,1.18-.71s-.12-.59-1.43-.92-1.7-.72-1.69-1.32.58-1.2,1.7-1.2a1.75,1.75,0,0,1,1.88,1.26l-.62.2a1.2,1.2,0,0,0-1.26-.87c-.71,0-1,.33-1,.59s0,.48,1.42.83c1.57.4,1.64.78,1.67,1.43s-.46,1.32-1.82,1.32a1.86,1.86,0,0,1-2.11-1.66Z" transform="translate(-60.92 -21.92)"/><path class="cls-2" d="M511.45,54.24a1.45,1.45,0,0,0,1.45,1.24A1.33,1.33,0,0,0,514.29,54a1.28,1.28,0,0,0-1.35-1.4,1.51,1.51,0,0,0-1.33.71L511,53l.54-3h2.93v.65h-2.4l-.34,1.87h0a1.69,1.69,0,0,1,1.36-.56,1.9,1.9,0,0,1,1.9,2,2,2,0,0,1-2.08,2.12,2.1,2.1,0,0,1-2.12-1.65Z" transform="translate(-60.92 -21.92)"/><path class="cls-2" d="M516.34,53c0-2,1.1-3,2.23-3s2.24,1,2.24,3.09c0,2.28-1.11,3.12-2.24,3.12S516.34,55.25,516.34,53Zm.79.71,2.74-2a1.38,1.38,0,0,0-1.3-1.08c-.85,0-1.49.74-1.49,2.38A5,5,0,0,0,517.13,53.68Zm2.93-.67a5.43,5.43,0,0,0,0-.72l-2.76,2a1.41,1.41,0,0,0,1.32,1.16C519.41,55.46,520.06,54.71,520.06,53Z" transform="translate(-60.92 -21.92)"/><path class="cls-2" d="M386.22,76V68.72H389a3.38,3.38,0,0,1,3.3,3.54c0,2.14-1.28,3.74-3.08,3.74Zm1.35-1.15h1.34c.8,0,1.89-.71,1.89-2.47,0-2-1.21-2.5-1.88-2.5h-1.35Z" transform="translate(-60.92 -21.92)"/><path class="cls-2" d="M396.11,70.05c1.95,0,2.89,1.39,2.86,3.38h-4.53A1.56,1.56,0,0,0,396.05,75a1.83,1.83,0,0,0,1.66-1l1.14.54a2.94,2.94,0,0,1-2.76,1.61,2.88,2.88,0,0,1-3-3A3,3,0,0,1,396.11,70.05Zm1.53,2.37a1.42,1.42,0,0,0-1.56-1.29,1.55,1.55,0,0,0-1.58,1.29Zm-2.57-2.73-.31-.6,2.35-1.17.36.72Z" transform="translate(-60.92 -21.92)"/><path class="cls-2" d="M401.72,70.05a2.06,2.06,0,0,1,1.79.89s-.76.64-.93.77a1.07,1.07,0,0,0-.92-.6.58.58,0,0,0-.62.57c0,.35.34.57.69.71l.75.29a1.76,1.76,0,0,1,1.29,1.71c0,1.11-1,1.75-2.16,1.75A2.37,2.37,0,0,1,399.54,75l1-.66s.46.8,1.09.8c.45,0,.82-.24.82-.66s-.52-.63-.95-.81l-.48-.2a1.74,1.74,0,0,1,.66-3.41Z" transform="translate(-60.92 -21.92)"/><path class="cls-2" d="M407.23,70.05a2.19,2.19,0,0,1,1.88.87v-.76h1.22V76h-1.22v-.79a2.19,2.19,0,0,1-1.9.93,3.06,3.06,0,0,1,0-6.09Zm-1.39,3c0,1.13.56,1.92,1.56,1.92,1.16,0,1.65-1,1.65-2a1.67,1.67,0,0,0-1.59-1.85A1.71,1.71,0,0,0,405.84,73.09Z" transform="translate(-60.92 -21.92)"/><path class="cls-2" d="M414.62,70.05a2.91,2.91,0,0,1,1.62.45v1.28a3,3,0,0,0-1.57-.51,1.77,1.77,0,0,0-1.86,2,1.69,1.69,0,0,0,1.86,1.72,2.89,2.89,0,0,0,1.6-.58v1.31a3.13,3.13,0,0,1-1.67.47,2.94,2.94,0,0,1-3.12-2.9A3.06,3.06,0,0,1,414.62,70.05Z" transform="translate(-60.92 -21.92)"/><path class="cls-2" d="M417.52,68.72h1.27v1.43h1.07v1.16h-1.08V74c0,.75.25,1,.68,1a2.06,2.06,0,0,0,.47-.07v1.22s-.32,0-.54,0a1.75,1.75,0,0,1-1.88-1.93V71.31h-.64V70.15h.65Z" transform="translate(-60.92 -21.92)"/><path class="cls-2" d="M422.47,68.73a.85.85,0,1,1-.84-.85A.85.85,0,0,1,422.47,68.73ZM422.29,76h-1.35V70.16h1.35Z" transform="translate(-60.92 -21.92)"/><path class="cls-2" d="M423.19,70.16h1.39l1.6,4.06,1.53-4.06h1.38L426.75,76h-1.19Z" transform="translate(-60.92 -21.92)"/><path class="cls-2" d="M432.71,70.05c2,0,2.89,1.39,2.86,3.38H431A1.57,1.57,0,0,0,432.64,75a1.82,1.82,0,0,0,1.66-1l1.14.54a2.94,2.94,0,0,1-2.75,1.61,2.88,2.88,0,0,1-3-3A3,3,0,0,1,432.71,70.05Zm1.53,2.37a1.43,1.43,0,0,0-1.57-1.29,1.55,1.55,0,0,0-1.58,1.29Z" transform="translate(-60.92 -21.92)"/><path class="cls-2" d="M438,72.82V76h-1.3V70.16H438V71a1.61,1.61,0,0,1,1.54-1,1.92,1.92,0,0,1,.71.13l-.42,1.29a1.88,1.88,0,0,0-.59-.13C438.33,71.31,438,72.17,438,72.82Z" transform="translate(-60.92 -21.92)"/><path class="cls-2" d="M445,76h-1.35V68.21H445Z" transform="translate(-60.92 -21.92)"/><path class="cls-2" d="M449,70.05a2.17,2.17,0,0,1,1.88.87v-.76h1.22V76h-1.22v-.79a2.19,2.19,0,0,1-1.9.93,3.06,3.06,0,0,1,0-6.09Zm-1.39,3c0,1.13.56,1.92,1.56,1.92,1.16,0,1.66-1,1.66-2a1.68,1.68,0,0,0-1.6-1.85A1.71,1.71,0,0,0,447.56,73.09Z" transform="translate(-60.92 -21.92)"/><path class="cls-2" d="M456.41,71.32h-.66V70.16h.65v-.23A1.75,1.75,0,0,1,458.27,68c.22,0,.54,0,.54,0v1.22a1.8,1.8,0,0,0-.46-.08c-.44,0-.69.22-.69,1h1v1.16h-.95V76h-1.26Z" transform="translate(-60.92 -21.92)"/><path class="cls-2" d="M465.22,73.08a2.93,2.93,0,0,1-3.07,3.06A3,3,0,0,1,459,73.08,3.09,3.09,0,0,1,462.13,70,3,3,0,0,1,465.22,73.08Zm-3.11,1.86a1.85,1.85,0,0,0,0-3.69,1.85,1.85,0,0,0,0,3.69Z" transform="translate(-60.92 -21.92)"/><path class="cls-2" d="M466.37,76V70.16h1.26V71a1.85,1.85,0,0,1,1.79-.93,1.88,1.88,0,0,1,2,2V76h-1.29V72.68c0-1.07-.36-1.43-1.13-1.43a1.41,1.41,0,0,0-1.34,1.57V76Z" transform="translate(-60.92 -21.92)"/><path class="cls-2" d="M475.67,70.05a2.94,2.94,0,0,1,1.63.45v1.28a3,3,0,0,0-1.58-.51,1.76,1.76,0,0,0-1.85,2,1.68,1.68,0,0,0,1.85,1.72,2.89,2.89,0,0,0,1.61-.58v1.31a3.18,3.18,0,0,1-1.67.47,2.94,2.94,0,0,1-3.12-2.9A3.05,3.05,0,0,1,475.67,70.05Z" transform="translate(-60.92 -21.92)"/><path class="cls-2" d="M478.58,68.72h1.26v1.43h1.08v1.16h-1.09V74c0,.75.25,1,.69,1a1.92,1.92,0,0,0,.46-.07v1.22s-.32,0-.54,0a1.75,1.75,0,0,1-1.87-1.93V71.31h-.65V70.15h.66Z" transform="translate(-60.92 -21.92)"/><path class="cls-2" d="M483.53,68.73a.85.85,0,1,1-.85-.85A.85.85,0,0,1,483.53,68.73ZM483.35,76H482V70.16h1.35Z" transform="translate(-60.92 -21.92)"/><path class="cls-2" d="M490.72,73.08a2.93,2.93,0,0,1-3.07,3.06,3,3,0,0,1-3.13-3.06A3.08,3.08,0,0,1,487.63,70,3,3,0,0,1,490.72,73.08Zm-3.1,1.86a1.85,1.85,0,0,0,0-3.69,1.85,1.85,0,0,0,0,3.69Z" transform="translate(-60.92 -21.92)"/><path class="cls-2" d="M491.88,76V70.16h1.25V71a1.86,1.86,0,0,1,1.8-.93,1.88,1.88,0,0,1,2,2V76h-1.3V72.68c0-1.07-.36-1.43-1.12-1.43a1.42,1.42,0,0,0-1.35,1.57V76Z" transform="translate(-60.92 -21.92)"/><path class="cls-2" d="M503.94,70.05c1.94,0,2.89,1.39,2.86,3.38h-4.54A1.57,1.57,0,0,0,503.87,75a1.82,1.82,0,0,0,1.66-1l1.14.54a2.94,2.94,0,0,1-2.75,1.61,2.89,2.89,0,0,1-3-3A3.06,3.06,0,0,1,503.94,70.05Zm1.53,2.37a1.43,1.43,0,0,0-1.57-1.29,1.55,1.55,0,0,0-1.58,1.29Z" transform="translate(-60.92 -21.92)"/><path class="cls-2" d="M509.54,70.05a2.08,2.08,0,0,1,1.8.89s-.76.64-.93.77a1.1,1.1,0,0,0-.93-.6.57.57,0,0,0-.61.57c0,.35.34.57.68.71l.75.29a1.75,1.75,0,0,1,1.29,1.71c0,1.11-1,1.75-2.15,1.75A2.38,2.38,0,0,1,507.36,75l1-.66s.47.8,1.09.8c.45,0,.82-.24.82-.66s-.51-.63-.95-.81l-.48-.2a1.74,1.74,0,0,1,.66-3.41Z" transform="translate(-60.92 -21.92)"/><path class="cls-2" d="M512.69,68.72H514v1.43H515v1.16H514V74c0,.75.25,1,.68,1a2.06,2.06,0,0,0,.47-.07v1.22s-.32,0-.54,0a1.75,1.75,0,0,1-1.88-1.93V71.31H512V70.15h.65Z" transform="translate(-60.92 -21.92)"/><path class="cls-2" d="M516.12,76V68.21h1.34v2.58a2.06,2.06,0,0,1,1.69-.77,1.78,1.78,0,0,1,2,1.86V76h-1.28V72.24c0-.61-.24-1.06-1-1.06-1.14,0-1.43.87-1.43,1.61V76Z" transform="translate(-60.92 -21.92)"/><path class="cls-2" d="M525.33,70.05c1.95,0,2.89,1.39,2.86,3.38h-4.53a1.56,1.56,0,0,0,1.6,1.59,1.85,1.85,0,0,0,1.67-1l1.14.54a3,3,0,0,1-2.76,1.61,2.88,2.88,0,0,1-3-3A3,3,0,0,1,525.33,70.05Zm1.53,2.37a1.43,1.43,0,0,0-1.57-1.29,1.56,1.56,0,0,0-1.58,1.29Zm-2.58-2.73-.3-.6,2.35-1.17.36.72Z" transform="translate(-60.92 -21.92)"/><path class="cls-2" d="M529.4,68.72h1.27v1.43h1.07v1.16h-1.08V74c0,.75.25,1,.68,1a2.06,2.06,0,0,0,.47-.07v1.22s-.32,0-.54,0a1.75,1.75,0,0,1-1.88-1.93V71.31h-.64V70.15h.65Z" transform="translate(-60.92 -21.92)"/><path class="cls-2" d="M534.35,68.73a.85.85,0,1,1-.84-.85A.85.85,0,0,1,534.35,68.73ZM534.17,76h-1.35V70.16h1.35Z" transform="translate(-60.92 -21.92)"/><path class="cls-2" d="M541.16,78.56h-1.3v-3.3a2,2,0,0,1-1.79.88,2.75,2.75,0,0,1-2.74-3,2.83,2.83,0,0,1,2.75-3.11A2.13,2.13,0,0,1,540,71v-.84h1.21Zm-1.25-5.46a1.68,1.68,0,0,0-1.65-1.87c-1.18,0-1.61,1-1.61,2a1.52,1.52,0,0,0,1.6,1.72A1.67,1.67,0,0,0,539.91,73.1Z" transform="translate(-60.92 -21.92)"/><path class="cls-2" d="M547.6,70.16V74a2.2,2.2,0,0,1-2.4,2.17c-1.51,0-2.53-.8-2.53-2.17V70.16H544v3.36c0,1.16.45,1.38,1.2,1.38s1.14-.22,1.14-1.35V70.16Z" transform="translate(-60.92 -21.92)"/><path class="cls-2" d="M551.81,70.05c1.94,0,2.89,1.39,2.86,3.38h-4.54A1.57,1.57,0,0,0,551.74,75a1.82,1.82,0,0,0,1.66-1l1.14.54a2.94,2.94,0,0,1-2.75,1.61,2.89,2.89,0,0,1-3-3A3.06,3.06,0,0,1,551.81,70.05Zm1.53,2.37a1.43,1.43,0,0,0-1.57-1.29,1.55,1.55,0,0,0-1.58,1.29Z" transform="translate(-60.92 -21.92)"/><path class="cls-2" d="M561.11,70.06a2.15,2.15,0,0,1,1.8.82V68.21h1.28V76H563v-.77a2.41,2.41,0,0,1-1.89.91,3.05,3.05,0,0,1,.05-6.08Zm-1.44,3.06c0,1.13.62,1.89,1.58,1.89s1.63-.93,1.63-2a1.64,1.64,0,0,0-1.56-1.83A1.68,1.68,0,0,0,559.67,73.12Z" transform="translate(-60.92 -21.92)"/><path class="cls-2" d="M568.4,70.05c2,0,2.89,1.39,2.86,3.38h-4.53A1.56,1.56,0,0,0,568.34,75,1.83,1.83,0,0,0,570,74l1.14.54a2.94,2.94,0,0,1-2.76,1.61,2.88,2.88,0,0,1-3-3A3,3,0,0,1,568.4,70.05Zm1.53,2.37a1.42,1.42,0,0,0-1.56-1.29,1.55,1.55,0,0,0-1.58,1.29Z" transform="translate(-60.92 -21.92)"/><path class="cls-2" d="M576.6,76h-1.35V68.21h1.35Z" transform="translate(-60.92 -21.92)"/><path class="cls-2" d="M580.54,70.05a2.21,2.21,0,0,1,1.89.87v-.76h1.21V76h-1.21v-.79a2.22,2.22,0,0,1-1.91.93,2.77,2.77,0,0,1-2.75-3A2.8,2.8,0,0,1,580.54,70.05Zm-1.38,3c0,1.13.56,1.92,1.55,1.92,1.16,0,1.66-1,1.66-2a1.68,1.68,0,0,0-1.6-1.85A1.71,1.71,0,0,0,579.16,73.09Z" transform="translate(-60.92 -21.92)"/><path class="cls-2" d="M590.77,70.05a2.94,2.94,0,0,1,1.63.45v1.28a3,3,0,0,0-1.58-.51,1.76,1.76,0,0,0-1.85,2,1.68,1.68,0,0,0,1.85,1.72,2.89,2.89,0,0,0,1.61-.58v1.31a3.18,3.18,0,0,1-1.67.47,2.94,2.94,0,0,1-3.12-2.9A3.05,3.05,0,0,1,590.77,70.05Z" transform="translate(-60.92 -21.92)"/><path class="cls-2" d="M599.47,73.08a2.93,2.93,0,0,1-3.07,3.06,3,3,0,0,1-3.14-3.06A3.09,3.09,0,0,1,596.38,70,3,3,0,0,1,599.47,73.08Zm-3.11,1.86a1.85,1.85,0,0,0,0-3.69,1.85,1.85,0,0,0,0,3.69Z" transform="translate(-60.92 -21.92)"/><path class="cls-2" d="M602,76h-1.34V68.21H602Z" transform="translate(-60.92 -21.92)"/><path class="cls-2" d="M604.83,76h-1.35V68.21h1.35Z" transform="translate(-60.92 -21.92)"/><path class="cls-2" d="M609.05,70.05c2,0,2.89,1.39,2.86,3.38h-4.53A1.56,1.56,0,0,0,609,75a1.83,1.83,0,0,0,1.66-1l1.14.54A2.94,2.94,0,0,1,609,76.14a2.88,2.88,0,0,1-3-3A3,3,0,0,1,609.05,70.05Zm1.53,2.37A1.42,1.42,0,0,0,609,71.13a1.55,1.55,0,0,0-1.57,1.29Z" transform="translate(-60.92 -21.92)"/><path class="cls-2" d="M615.84,70.05a2.94,2.94,0,0,1,1.63.45v1.28a3,3,0,0,0-1.58-.51,1.76,1.76,0,0,0-1.85,2,1.68,1.68,0,0,0,1.85,1.72,2.89,2.89,0,0,0,1.61-.58v1.31a3.18,3.18,0,0,1-1.67.47,2.94,2.94,0,0,1-3.12-2.9A3.05,3.05,0,0,1,615.84,70.05Z" transform="translate(-60.92 -21.92)"/><path class="cls-2" d="M618.75,68.72H620v1.43h1.08v1.16H620V74c0,.75.25,1,.69,1a2.06,2.06,0,0,0,.47-.07v1.22s-.33,0-.55,0a1.75,1.75,0,0,1-1.87-1.93V71.31h-.65V70.15h.66Z" transform="translate(-60.92 -21.92)"/><path class="cls-2" d="M623.7,68.73a.85.85,0,1,1-.85-.85A.85.85,0,0,1,623.7,68.73ZM623.52,76h-1.35V70.16h1.35Z" transform="translate(-60.92 -21.92)"/><path class="cls-2" d="M630.89,73.08a2.93,2.93,0,0,1-3.07,3.06,3,3,0,0,1-3.13-3.06A3.08,3.08,0,0,1,627.81,70,3,3,0,0,1,630.89,73.08Zm-3.1,1.86a1.85,1.85,0,0,0,0-3.69,1.85,1.85,0,0,0,0,3.69Z" transform="translate(-60.92 -21.92)"/><path class="cls-2" d="M632.05,76V70.16h1.25V71a1.86,1.86,0,0,1,1.8-.93,1.88,1.88,0,0,1,2,2V76h-1.3V72.68c0-1.07-.36-1.43-1.12-1.43a1.42,1.42,0,0,0-1.35,1.57V76Z" transform="translate(-60.92 -21.92)"/><path class="cls-2" d="M474.28,89.81c.15,1.09.5,1.65,1.59,1.65.85,0,1.21-.5,1.21-1s-.18-.85-1.49-1.34-1.79-.81-1.79-1.66a1.62,1.62,0,0,1,1.8-1.52,1.86,1.86,0,0,1,2,1.64l-.7.16a1.19,1.19,0,0,0-1.28-1.13c-.73,0-1.07.4-1.07.85s.16.63,1.38,1.08c1.42.53,1.9.89,1.9,1.88a1.77,1.77,0,0,1-2,1.73A2.16,2.16,0,0,1,473.53,90Z" transform="translate(-60.92 -21.92)"/><path class="cls-2" d="M480.71,88.12h-1.44V87.5h1.44V86.39h.68V87.5H483v.62H481.4v2.49c0,.5.1.72.55.72h.77V92h-.8c-.88,0-1.21-.47-1.21-1.31Z" transform="translate(-60.92 -21.92)"/><path class="cls-2" d="M488.69,91a2,2,0,0,1-1.89,1.15,2.4,2.4,0,0,1,0-4.76c1.19,0,2,.87,2,2.38V90h-3.4a1.41,1.41,0,0,0,2.72.66Zm-.59-1.58a1.3,1.3,0,0,0-1.34-1.4,1.37,1.37,0,0,0-1.34,1.4Z" transform="translate(-60.92 -21.92)"/><path class="cls-2" d="M490.47,87.5h.66v.43h0a1.68,1.68,0,0,1,1.29-.56,2.11,2.11,0,0,1,2,2.38c0,1.47-.82,2.38-2,2.38a1.62,1.62,0,0,1-1.25-.56h0v2.34h-.7Zm.7,3a1.07,1.07,0,0,0,1.15,1c.9,0,1.4-.66,1.4-1.75s-.5-1.75-1.4-1.75a1.11,1.11,0,0,0-1.15,1.09Z" transform="translate(-60.92 -21.92)"/><path class="cls-2" d="M496.05,85.8h.7V88h0a1.66,1.66,0,0,1,1.32-.58,1.53,1.53,0,0,1,1.61,1.69V92H499V89.25c0-.76-.31-1.24-1-1.24a1.12,1.12,0,0,0-1.21,1.16V92h-.7Z" transform="translate(-60.92 -21.92)"/><path class="cls-2" d="M505.26,91a2,2,0,0,1-1.89,1.15,2.4,2.4,0,0,1,0-4.76c1.18,0,2,.87,2,2.38V90H502a1.4,1.4,0,0,0,1.38,1.55,1.37,1.37,0,0,0,1.33-.89Zm-.59-1.58a1.29,1.29,0,0,0-1.33-1.4A1.36,1.36,0,0,0,502,89.4Z" transform="translate(-60.92 -21.92)"/><path class="cls-2" d="M507.07,87.5h.66v.43h0a1.64,1.64,0,0,1,1.27-.56A1.53,1.53,0,0,1,510.63,89v3h-.69V89.26c0-.81-.32-1.25-1-1.25a1,1,0,0,0-1.15,1.12V92h-.7Z" transform="translate(-60.92 -21.92)"/><path class="cls-2" d="M517.62,86.05h.72l.47,4.91h0l.85-3.46h.45L521,91h0l.46-4.91h.72l-.67,6h-.82l-.77-3.14h0L519.12,92h-.83Z" transform="translate(-60.92 -21.92)"/><path class="cls-2" d="M524.22,87.5h.67v.65h0a1.5,1.5,0,0,1,1.29-.73,1.44,1.44,0,0,1,1.44,1.08l-.68.29a.84.84,0,0,0-.87-.67,1.22,1.22,0,0,0-1.16,1.37V92h-.7Z" transform="translate(-60.92 -21.92)"/><path class="cls-2" d="M529.29,87.5h2.21v3.91H533V92h-3.74v-.59h1.56V88.09h-1.52Zm1.47-1.7h.8v.79h-.8Z" transform="translate(-60.92 -21.92)"/><path class="cls-2" d="M535.34,92.5a1.16,1.16,0,0,0,1.17.92,1.07,1.07,0,0,0,1.14-1.21v-.6h0a1.58,1.58,0,0,1-1.25.52c-1.17,0-2-.91-2-2.38a2.12,2.12,0,0,1,2-2.38,1.57,1.57,0,0,1,1.27.56h0V87.5h.69v4.57a1.72,1.72,0,0,1-1.82,2,1.77,1.77,0,0,1-1.78-1.22Zm2.31-3.41A1.12,1.12,0,0,0,536.48,88c-.89,0-1.38.65-1.38,1.75s.48,1.75,1.38,1.75a1.09,1.09,0,0,0,1.17-1Z" transform="translate(-60.92 -21.92)"/><path class="cls-2" d="M540.25,85.8h.7V88h0a1.66,1.66,0,0,1,1.32-.58,1.53,1.53,0,0,1,1.61,1.69V92h-.7V89.25c0-.76-.31-1.24-1-1.24A1.12,1.12,0,0,0,541,89.17V92h-.7Z" transform="translate(-60.92 -21.92)"/><path class="cls-2" d="M547,88.12h-1.43V87.5H547V86.39h.68V87.5h1.63v.62H547.7v2.49c0,.5.09.72.55.72H549V92h-.8c-.88,0-1.22-.47-1.22-1.31Z" transform="translate(-60.92 -21.92)"/><path class="cls-2" d="M514.14,123.6a1.18,1.18,0,0,0-1.19-1c-.79,0-1.56.76-1.57,2.46h0a1.81,1.81,0,0,1,1.69-1,1.93,1.93,0,0,1,2,2,2,2,0,0,1-2.06,2.09c-1.18,0-2.37-.83-2.37-3,0-1.89,1-3.2,2.31-3.2a1.76,1.76,0,0,1,1.83,1.51Zm.26,2.45a1.32,1.32,0,0,0-1.4-1.41,1.38,1.38,0,0,0-1.42,1.33,1.43,1.43,0,0,0,1.44,1.51A1.3,1.3,0,0,0,514.4,126.05Z" transform="translate(-60.92 -21.92)"/><path class="cls-2" d="M516.52,127.36h1.76v-4.5l-1.64,1v-.76l1.72-1.07h.57v5.31h1.67V128h-4.08Z" transform="translate(-60.92 -21.92)"/><path class="cls-2" d="M437.35,148v-7.28h1.38v6H441V148Z" transform="translate(-60.92 -21.92)"/><path class="cls-2" d="M444.73,142.05c1.95,0,2.89,1.39,2.86,3.38h-4.53a1.56,1.56,0,0,0,1.6,1.59,1.85,1.85,0,0,0,1.67-1l1.14.54a3,3,0,0,1-2.76,1.61,2.88,2.88,0,0,1-3-3A3,3,0,0,1,444.73,142.05Zm1.53,2.37a1.43,1.43,0,0,0-1.57-1.29,1.56,1.56,0,0,0-1.58,1.29Z" transform="translate(-60.92 -21.92)"/><path class="cls-2" d="M450.33,142.05a2.08,2.08,0,0,1,1.8.89s-.76.64-.93.77a1.08,1.08,0,0,0-.92-.6.58.58,0,0,0-.62.57c0,.35.34.57.68.71l.75.29a1.76,1.76,0,0,1,1.3,1.71c0,1.11-1,1.75-2.16,1.75a2.36,2.36,0,0,1-2.07-1.15l1-.66s.47.8,1.1.8c.44,0,.81-.24.81-.66s-.51-.63-1-.81l-.47-.2a1.74,1.74,0,0,1,.65-3.41Z" transform="translate(-60.92 -21.92)"/><path class="cls-2" d="M456.33,148v-7.28h3.88v1.19h-2.5v1.85h2.45v1.17h-2.45V148Z" transform="translate(-60.92 -21.92)"/><path class="cls-2" d="M462.84,144.89V148h-1.35v-7.28H464a2.11,2.11,0,0,1,2.18,2.18,2,2,0,0,1-1.78,2l2.31,3.08H465Zm0-.83h.85a1.05,1.05,0,0,0,1.06-1.15c0-.79-.56-1.06-1.17-1.06h-.74Z" transform="translate(-60.92 -21.92)"/><path class="cls-2" d="M466.94,148l2.87-7.28h1.51l2.79,7.28h-1.53l-.57-1.48h-3l-.58,1.48Zm3.61-5.68-1.16,3.08h2.23Z" transform="translate(-60.92 -21.92)"/><path class="cls-2" d="M480.13,142.58a2.73,2.73,0,0,0-1.83-.68,2.33,2.33,0,0,0-2.24,2.41,2.39,2.39,0,0,0,2.24,2.53,3.12,3.12,0,0,0,1.87-.68v1.5a3.78,3.78,0,0,1-1.95.51,3.67,3.67,0,0,1-3.59-3.74,3.77,3.77,0,0,1,3.67-3.86,4.83,4.83,0,0,1,1.83.45Z" transform="translate(-60.92 -21.92)"/><path class="cls-2" d="M483.89,144.43h2.43v1.12h-2.43Z" transform="translate(-60.92 -21.92)"/><path class="cls-2" d="M491.73,144.89V148h-1.36v-7.28h2.51a2.11,2.11,0,0,1,2.19,2.18,2,2,0,0,1-1.78,2L495.6,148h-1.7Zm0-.83h.85a1,1,0,0,0,1.05-1.15c0-.79-.55-1.06-1.17-1.06h-.73Z" transform="translate(-60.92 -21.92)"/><path class="cls-2" d="M499.18,142.05c1.95,0,2.89,1.39,2.86,3.38h-4.53a1.56,1.56,0,0,0,1.61,1.59,1.83,1.83,0,0,0,1.66-1l1.14.54a2.94,2.94,0,0,1-2.76,1.61,2.88,2.88,0,0,1-3-3A3,3,0,0,1,499.18,142.05Zm1.53,2.37a1.42,1.42,0,0,0-1.57-1.29,1.55,1.55,0,0,0-1.57,1.29Z" transform="translate(-60.92 -21.92)"/><path class="cls-2" d="M503.26,140.72h1.26v1.43h1.07v1.16h-1.08V146c0,.75.25,1,.69,1a2,2,0,0,0,.46-.07v1.22s-.32,0-.54,0a1.75,1.75,0,0,1-1.87-1.93v-2.88h-.65v-1.16h.66Z" transform="translate(-60.92 -21.92)"/><path class="cls-2" d="M512.53,145.08a2.93,2.93,0,0,1-3.07,3.06,3,3,0,0,1-3.14-3.06,3.09,3.09,0,0,1,3.12-3.07A3,3,0,0,1,512.53,145.08Zm-3.11,1.86a1.85,1.85,0,0,0,0-3.69,1.85,1.85,0,0,0,0,3.69Z" transform="translate(-60.92 -21.92)"/><path class="cls-2" d="M518.61,142.16V146a2.2,2.2,0,0,1-2.39,2.17c-1.52,0-2.53-.8-2.53-2.17v-3.81H515v3.36c0,1.16.46,1.38,1.21,1.38s1.13-.22,1.13-1.35v-3.39Z" transform="translate(-60.92 -21.92)"/><path class="cls-2" d="M521.42,144.82V148h-1.29v-5.84h1.23V143a1.61,1.61,0,0,1,1.54-1,2,2,0,0,1,.72.13l-.42,1.29a1.88,1.88,0,0,0-.59-.13C521.73,143.31,521.42,144.17,521.42,144.82Z" transform="translate(-60.92 -21.92)"/><path class="cls-2" d="M526.44,142.16h1.39l1.6,4.06,1.53-4.06h1.38L530,148h-1.19Z" transform="translate(-60.92 -21.92)"/><path class="cls-2" d="M536,142.05c1.95,0,2.89,1.39,2.86,3.38h-4.54a1.57,1.57,0,0,0,1.61,1.59,1.82,1.82,0,0,0,1.66-1l1.14.54a2.94,2.94,0,0,1-2.75,1.61,2.88,2.88,0,0,1-3-3A3,3,0,0,1,536,142.05Zm1.53,2.37a1.43,1.43,0,0,0-1.57-1.29,1.55,1.55,0,0,0-1.58,1.29Z" transform="translate(-60.92 -21.92)"/><path class="cls-2" d="M541.27,144.82V148H540v-5.84h1.24V143a1.61,1.61,0,0,1,1.54-1,1.92,1.92,0,0,1,.71.13l-.42,1.29a1.88,1.88,0,0,0-.59-.13C541.58,143.31,541.27,144.17,541.27,144.82Z" transform="translate(-60.92 -21.92)"/><path class="cls-2" d="M545.66,142.05a2.08,2.08,0,0,1,1.8.89s-.76.64-.93.77a1.08,1.08,0,0,0-.92-.6.58.58,0,0,0-.62.57c0,.35.34.57.68.71l.75.29a1.76,1.76,0,0,1,1.3,1.71c0,1.11-1,1.75-2.16,1.75a2.36,2.36,0,0,1-2.07-1.15l1-.66s.47.8,1.1.8c.44,0,.81-.24.81-.66s-.51-.63-.95-.81l-.47-.2a1.74,1.74,0,0,1,.65-3.41Z" transform="translate(-60.92 -21.92)"/><path class="cls-2" d="M552.94,148h-1.35v-7.79h1.35Z" transform="translate(-60.92 -21.92)"/><path class="cls-2" d="M557.16,142.05c2,0,2.89,1.39,2.86,3.38h-4.53a1.56,1.56,0,0,0,1.6,1.59,1.85,1.85,0,0,0,1.67-1l1.14.54a3,3,0,0,1-2.76,1.61,2.88,2.88,0,0,1-3-3A3,3,0,0,1,557.16,142.05Zm1.53,2.37a1.42,1.42,0,0,0-1.57-1.29,1.56,1.56,0,0,0-1.58,1.29Z" transform="translate(-60.92 -21.92)"/><path class="cls-2" d="M564,143.32h-.66v-1.16H564v-.23a1.75,1.75,0,0,1,1.87-1.93c.22,0,.54,0,.54,0v1.22a1.8,1.8,0,0,0-.46-.08c-.44,0-.69.22-.69,1h1v1.16h-1V148H564Z" transform="translate(-60.92 -21.92)"/><path class="cls-2" d="M571.91,142.16V146a2.2,2.2,0,0,1-2.4,2.17c-1.51,0-2.53-.8-2.53-2.17v-3.81h1.29v3.36c0,1.16.46,1.38,1.21,1.38s1.13-.22,1.13-1.35v-3.39Z" transform="translate(-60.92 -21.92)"/><path class="cls-2" d="M573.48,140.72h1.26v1.43h1.08v1.16h-1.09V146c0,.75.25,1,.69,1a1.92,1.92,0,0,0,.46-.07v1.22s-.32,0-.54,0a1.75,1.75,0,0,1-1.87-1.93v-2.88h-.65v-1.16h.66Z" transform="translate(-60.92 -21.92)"/><path class="cls-2" d="M581.83,142.16V146a2.2,2.2,0,0,1-2.39,2.17c-1.51,0-2.53-.8-2.53-2.17v-3.81h1.29v3.36c0,1.16.46,1.38,1.21,1.38s1.13-.22,1.13-1.35v-3.39Z" transform="translate(-60.92 -21.92)"/><path class="cls-2" d="M584.64,144.82V148h-1.29v-5.84h1.23V143a1.63,1.63,0,0,1,1.55-1,2,2,0,0,1,.71.13l-.42,1.29a1.88,1.88,0,0,0-.59-.13C585,143.31,584.64,144.17,584.64,144.82Z" transform="translate(-60.92 -21.92)"/><path class="cls-2" d="M490.71,162.84h-2.44L487.9,164h-.74l2-5.95h.74l2,5.95h-.74Zm-1.2-3.85h0l-1,3.23h2Z" transform="translate(-60.92 -21.92)"/><path class="cls-2" d="M493.14,159.5h.63v.43h0a.79.79,0,0,1,.72-.56.82.82,0,0,1,.81.66h0a1,1,0,0,1,.9-.66c.78,0,1,.6,1,1.56V164h-.65v-2.86c0-.74-.09-1.13-.5-1.13s-.59.39-.59,1.07V164h-.62v-2.86c0-.74-.09-1.13-.52-1.13s-.58.5-.58,1.07V164h-.65Z" transform="translate(-60.92 -21.92)"/><path class="cls-2" d="M498.9,159.5h2.21v3.91h1.49V164h-3.74v-.59h1.56v-3.32H498.9Zm1.47-1.7h.8v.79h-.8Z" transform="translate(-60.92 -21.92)"/><path class="cls-2" d="M509.67,158.05h2.06a1.59,1.59,0,0,1,1.76,1.54,1.23,1.23,0,0,1-.77,1.19v0a1.46,1.46,0,0,1,1,1.44c0,1.07-.66,1.76-2.13,1.76h-1.91Zm1.93,2.52c.8,0,1.17-.34,1.17-.94s-.45-.93-1.18-.93H510.4v1.87Zm-.11,2.78c1,0,1.5-.3,1.5-1.11s-.5-1-1.48-1H510.4v2.15Z" transform="translate(-60.92 -21.92)"/><path class="cls-2" d="M518.28,163.51h0a1.58,1.58,0,0,1-1.38.62c-1.06,0-1.54-.6-1.54-1.29s.43-1.13,1.53-1.41c.81-.2,1.29-.35,1.29-.79s-.35-.65-.94-.65a1,1,0,0,0-1.1.89l-.64-.19a1.61,1.61,0,0,1,1.71-1.32c1,0,1.71.53,1.71,1.42V164h-.63Zm-2.23-.71c0,.41.22.71.89.71.86,0,1.27-.45,1.27-.95v-1.13h0c-.06.13-.23.28-1.16.54S516.05,162.43,516.05,162.8Z" transform="translate(-60.92 -21.92)"/><path class="cls-2" d="M521.46,159.5h.66v.65h0a1.5,1.5,0,0,1,1.28-.73,1.45,1.45,0,0,1,1.45,1.08l-.68.29a.85.85,0,0,0-.88-.67,1.22,1.22,0,0,0-1.15,1.37V164h-.7Z" transform="translate(-60.92 -21.92)"/><path class="cls-2" d="M529.33,163.51h0a1.58,1.58,0,0,1-1.38.62c-1.06,0-1.54-.6-1.54-1.29s.43-1.13,1.53-1.41c.81-.2,1.29-.35,1.29-.79s-.35-.65-.94-.65a1,1,0,0,0-1.1.89l-.64-.19a1.61,1.61,0,0,1,1.71-1.32c1,0,1.71.53,1.71,1.42V164h-.63Zm-2.23-.71c0,.41.22.71.89.71.86,0,1.27-.45,1.27-.95v-1.13h0c-.06.13-.23.28-1.16.54S527.1,162.43,527.1,162.8Z" transform="translate(-60.92 -21.92)"/><path class="cls-2" d="M532.18,157.8h.7v3.76h0l1.9-2.06h.92l-1.64,1.78,1.85,2.72h-.84l-1.53-2.29h0l-.65.73V164h-.7Z" transform="translate(-60.92 -21.92)"/><path class="cls-2" d="M514.15,195.6a1.19,1.19,0,0,0-1.2-1c-.78,0-1.55.76-1.56,2.46h0a1.81,1.81,0,0,1,1.69-1,1.93,1.93,0,0,1,2,2,2,2,0,0,1-2.06,2.09c-1.18,0-2.37-.83-2.37-3,0-1.89,1-3.2,2.31-3.2a1.78,1.78,0,0,1,1.83,1.51Zm.26,2.45a1.32,1.32,0,0,0-1.41-1.41,1.39,1.39,0,0,0-1.42,1.33,1.44,1.44,0,0,0,1.45,1.51A1.3,1.3,0,0,0,514.41,198.05Z" transform="translate(-60.92 -21.92)"/><path class="cls-2" d="M517.34,198.43a1.23,1.23,0,0,0,1.24,1.06c.89,0,1.41-.75,1.42-2.44h0a1.59,1.59,0,0,1-1.55.91,1.91,1.91,0,0,1-2-2,1.93,1.93,0,0,1,2-2c1.32,0,2.25,1,2.25,3.11s-.94,3.1-2.1,3.1a1.86,1.86,0,0,1-1.89-1.5ZM519.8,196a1.35,1.35,0,0,0-1.38-1.41,1.39,1.39,0,0,0,.05,2.77A1.28,1.28,0,0,0,519.8,196Z" transform="translate(-60.92 -21.92)"/><path class="cls-2" d="M481.34,220v-7.28h2.86a1.75,1.75,0,0,1,1.68,1.81,1.52,1.52,0,0,1-.89,1.52h0a1.86,1.86,0,0,1,1.53,1.82,2.05,2.05,0,0,1-2,2.12Zm1.35-4.34h1a.86.86,0,0,0,.83-.95.82.82,0,0,0-.8-.84h-1Zm0,3.22H484a1,1,0,0,0,1-1.06,1,1,0,0,0-1-1h-1.35Z" transform="translate(-60.92 -21.92)"/><path class="cls-2" d="M489.12,212.73a.85.85,0,1,1-.85-.85A.85.85,0,0,1,489.12,212.73Zm-.19,7.27h-1.35v-5.84h1.35Z" transform="translate(-60.92 -21.92)"/><path class="cls-2" d="M496.31,217.08a2.93,2.93,0,0,1-3.07,3.06,3,3,0,0,1-3.14-3.06,3.09,3.09,0,0,1,3.12-3.07A3,3,0,0,1,496.31,217.08Zm-3.11,1.86a1.85,1.85,0,0,0,0-3.69,1.85,1.85,0,0,0,0,3.69Z" transform="translate(-60.92 -21.92)"/><path class="cls-2" d="M499.89,214.05a2.26,2.26,0,0,1,1.89.91v-.8H503v5.73a2.59,2.59,0,0,1-2.86,2.83,2.5,2.5,0,0,1-2.75-2.24h1.32s0,1.06,1.55,1.06a1.38,1.38,0,0,0,1.46-1.55c0-.28,0-.48,0-.76a2.11,2.11,0,0,1-1.86.91,2.79,2.79,0,0,1-2.77-2.94A2.89,2.89,0,0,1,499.89,214.05Zm-1.4,3.12a1.66,1.66,0,0,0,1.69,1.82c.95,0,1.54-.83,1.54-1.88a1.65,1.65,0,0,0-1.6-1.86C499,215.25,498.49,216.17,498.49,217.17Z" transform="translate(-60.92 -21.92)"/><path class="cls-2" d="M505.83,216.82V220h-1.3v-5.84h1.24V215a1.61,1.61,0,0,1,1.54-1,2,2,0,0,1,.71.13l-.42,1.29a1.88,1.88,0,0,0-.59-.13C506.14,215.31,505.83,216.17,505.83,216.82Z" transform="translate(-60.92 -21.92)"/><path class="cls-2" d="M511.05,214.05a2.17,2.17,0,0,1,1.88.87v-.76h1.22V220h-1.22v-.79a2.19,2.19,0,0,1-1.9.93,3.06,3.06,0,0,1,0-6.09Zm-1.39,3c0,1.13.56,1.92,1.56,1.92,1.16,0,1.66-1,1.66-2a1.68,1.68,0,0,0-1.6-1.85A1.72,1.72,0,0,0,509.66,217.09Z" transform="translate(-60.92 -21.92)"/><path class="cls-2" d="M515.66,214.16h1.26V215a2.06,2.06,0,0,1,1.81-1,2.87,2.87,0,0,1,2.78,3.13,2.77,2.77,0,0,1-2.73,3,2,2,0,0,1-1.8-.88v3.26h-1.32Zm2.94,1.13a1.7,1.7,0,0,0-1.64,1.87,1.57,1.57,0,0,0,1.65,1.73,1.53,1.53,0,0,0,1.57-1.62C520.18,216.28,519.74,215.29,518.6,215.29Z" transform="translate(-60.92 -21.92)"/><path class="cls-2" d="M522.68,220v-7.79H524v2.58a2,2,0,0,1,1.68-.77,1.79,1.79,0,0,1,2,1.86V220h-1.29v-3.77c0-.61-.24-1.06-1-1.06-1.15,0-1.43.87-1.43,1.61V220Z" transform="translate(-60.92 -21.92)"/><path class="cls-2" d="M530.72,212.73a.85.85,0,1,1-.85-.85A.85.85,0,0,1,530.72,212.73Zm-.18,7.27h-1.35v-5.84h1.35Z" transform="translate(-60.92 -21.92)"/><path class="cls-2" d="M534.75,214.05c2,0,2.89,1.39,2.87,3.38h-4.54a1.56,1.56,0,0,0,1.61,1.59,1.82,1.82,0,0,0,1.66-1l1.14.54a2.94,2.94,0,0,1-2.76,1.61,2.88,2.88,0,0,1-3-3A3,3,0,0,1,534.75,214.05Zm1.53,2.37a1.42,1.42,0,0,0-1.56-1.29,1.55,1.55,0,0,0-1.58,1.29Z" transform="translate(-60.92 -21.92)"/><path class="cls-2" d="M540.36,214.05a2.06,2.06,0,0,1,1.79.89s-.76.64-.93.77a1.07,1.07,0,0,0-.92-.6.58.58,0,0,0-.62.57c0,.35.35.57.69.71l.75.29a1.76,1.76,0,0,1,1.29,1.71c0,1.11-1,1.75-2.16,1.75a2.37,2.37,0,0,1-2.07-1.15l1-.66s.46.8,1.09.8c.45,0,.82-.24.82-.66s-.52-.63-1-.81l-.48-.2a1.74,1.74,0,0,1,.66-3.41Z" transform="translate(-60.92 -21.92)"/><path class="cls-2" d="M514.18,250.72h-3v-.66h3.75v.73L512.07,256h-.76Z" transform="translate(-60.92 -21.92)"/><path class="cls-2" d="M516.23,254l2.69-3.94H520V254h.74v.64H520V256h-.68v-1.38h-3.09Zm3.09,0v-3.39h0L517,254Z" transform="translate(-60.92 -21.92)"/><path class="cls-2" d="M490.49,270.58a2.69,2.69,0,0,0-1.82-.68,2.34,2.34,0,0,0-2.25,2.41,2.39,2.39,0,0,0,2.25,2.53,3.07,3.07,0,0,0,1.86-.68v1.5a3.78,3.78,0,0,1-1.95.51,3.66,3.66,0,0,1-3.58-3.74,3.77,3.77,0,0,1,3.67-3.86,4.81,4.81,0,0,1,1.82.45Z" transform="translate(-60.92 -21.92)"/><path class="cls-2" d="M494.18,270.05a2.21,2.21,0,0,1,1.89.87v-.76h1.21V276h-1.21v-.79a2.19,2.19,0,0,1-1.9.93,3.06,3.06,0,0,1,0-6.09Zm-1.38,3c0,1.13.56,1.92,1.56,1.92,1.16,0,1.65-1,1.65-2a1.68,1.68,0,0,0-1.6-1.84A1.71,1.71,0,0,0,492.8,273.09Z" transform="translate(-60.92 -21.92)"/><path class="cls-2" d="M498.86,268.72h1.26v1.43h1.08v1.16h-1.09V274c0,.75.25,1,.69,1a2,2,0,0,0,.46-.07v1.22s-.32,0-.54,0a1.75,1.75,0,0,1-1.87-1.93v-2.88h-.65v-1.16h.66Z" transform="translate(-60.92 -21.92)"/><path class="cls-2" d="M504.7,270.05a2.17,2.17,0,0,1,1.88.87v-.76h1.22V276h-1.22v-.79a2.19,2.19,0,0,1-1.9.93,3.06,3.06,0,0,1,0-6.09Zm-1.39,3c0,1.13.56,1.92,1.56,1.92,1.16,0,1.66-1,1.66-2a1.68,1.68,0,0,0-1.6-1.84A1.71,1.71,0,0,0,503.31,273.09Z" transform="translate(-60.92 -21.92)"/><path class="cls-2" d="M510.66,276h-1.35v-7.79h1.35Z" transform="translate(-60.92 -21.92)"/><path class="cls-2" d="M518,273.08a2.93,2.93,0,0,1-3.07,3.06,3,3,0,0,1-3.14-3.06,3.09,3.09,0,0,1,3.12-3.07A3,3,0,0,1,518,273.08Zm-3.11,1.86a1.85,1.85,0,0,0,0-3.69,1.85,1.85,0,0,0,0,3.69Z" transform="translate(-60.92 -21.92)"/><path class="cls-2" d="M521.61,270.05a2.26,2.26,0,0,1,1.89.91v-.8h1.24v5.73a2.59,2.59,0,0,1-2.86,2.83,2.5,2.5,0,0,1-2.75-2.24h1.32s0,1.06,1.55,1.06a1.37,1.37,0,0,0,1.46-1.55c0-.28,0-.48,0-.76a2.11,2.11,0,0,1-1.86.91,2.78,2.78,0,0,1-2.76-2.94A2.88,2.88,0,0,1,521.61,270.05Zm-1.4,3.12a1.64,1.64,0,1,0,1.63-1.92A1.7,1.7,0,0,0,520.21,273.17Z" transform="translate(-60.92 -21.92)"/><path class="cls-2" d="M531.18,270.16V274a2.2,2.2,0,0,1-2.4,2.17c-1.51,0-2.53-.8-2.53-2.17v-3.81h1.3v3.36c0,1.16.45,1.38,1.2,1.38s1.14-.22,1.14-1.35v-3.39Z" transform="translate(-60.92 -21.92)"/><path class="cls-2" d="M535.39,270.05c1.94,0,2.89,1.39,2.86,3.38h-4.54a1.57,1.57,0,0,0,1.61,1.59,1.82,1.82,0,0,0,1.66-1l1.14.54a2.94,2.94,0,0,1-2.75,1.61,2.89,2.89,0,0,1-3-3A3.06,3.06,0,0,1,535.39,270.05Zm1.53,2.37a1.43,1.43,0,0,0-1.57-1.29,1.55,1.55,0,0,0-1.58,1.29Z" transform="translate(-60.92 -21.92)"/><path class="cls-2" d="M510.83,311.36h1.75v-4.5l-1.63,1v-.77l1.72-1.07h.57v5.31h1.67V312h-4.08Z" transform="translate(-60.92 -21.92)"/><path class="cls-2" d="M516.33,309c0-2,1.11-3.05,2.24-3.05s2.23,1,2.23,3.09c0,2.28-1.1,3.12-2.23,3.12S516.33,311.25,516.33,309Zm.79.71,2.75-2a1.39,1.39,0,0,0-1.3-1.08c-.85,0-1.49.74-1.49,2.38C517.08,309.23,517.1,309.47,517.12,309.68Zm2.94-.67a4.11,4.11,0,0,0-.06-.72l-2.75,2c.25.79.73,1.16,1.32,1.16C519.41,311.46,520.06,310.71,520.06,309Z" transform="translate(-60.92 -21.92)"/><path class="cls-2" d="M522.16,310.32a1.64,1.64,0,0,1,1.11-1.54v0a1.34,1.34,0,0,1-.79-1.31,1.81,1.81,0,0,1,3.57,0,1.37,1.37,0,0,1-.79,1.31v0a1.61,1.61,0,0,1,1.09,1.54c0,1.17-.86,1.81-2.09,1.81S522.16,311.49,522.16,310.32Zm3.48,0a1.39,1.39,0,0,0-2.76,0c0,.67.51,1.17,1.38,1.17S525.64,311,525.64,310.29Zm-2.48-2.77a1.11,1.11,0,0,0,2.2,0,1.11,1.11,0,0,0-2.2,0Z" transform="translate(-60.92 -21.92)"/><path class="cls-2" d="M492.34,326.58a2.69,2.69,0,0,0-1.82-.68,2.34,2.34,0,0,0-2.25,2.41,2.4,2.4,0,0,0,2.25,2.53,3.07,3.07,0,0,0,1.86-.68v1.5a3.78,3.78,0,0,1-1.95.51,3.66,3.66,0,0,1-3.58-3.74,3.77,3.77,0,0,1,3.67-3.86,4.81,4.81,0,0,1,1.82.45Z" transform="translate(-60.92 -21.92)"/><path class="cls-2" d="M499.47,329.08a2.93,2.93,0,0,1-3.07,3.06,3,3,0,0,1-3.14-3.06,3.09,3.09,0,0,1,3.12-3.07A3,3,0,0,1,499.47,329.08Zm-3.11,1.86a1.85,1.85,0,0,0,0-3.69,1.85,1.85,0,0,0,0,3.69Z" transform="translate(-60.92 -21.92)"/><path class="cls-2" d="M502,332h-1.35v-7.79H502Z" transform="translate(-60.92 -21.92)"/><path class="cls-2" d="M509.34,329.08a2.93,2.93,0,0,1-3.07,3.06,3,3,0,0,1-3.14-3.06,3.09,3.09,0,0,1,3.12-3.07A3,3,0,0,1,509.34,329.08Zm-3.11,1.86a1.85,1.85,0,0,0,0-3.69,1.85,1.85,0,0,0,0,3.69Z" transform="translate(-60.92 -21.92)"/><path class="cls-2" d="M510.49,326.16h1.26V327a2.06,2.06,0,0,1,1.81-1,2.88,2.88,0,0,1,2.78,3.13,2.78,2.78,0,0,1-2.74,3,2,2,0,0,1-1.79-.88v3.26h-1.32Zm2.94,1.13a1.7,1.7,0,0,0-1.64,1.87,1.57,1.57,0,0,0,1.65,1.73,1.53,1.53,0,0,0,1.57-1.62C515,328.28,514.56,327.29,513.43,327.29Z" transform="translate(-60.92 -21.92)"/><path class="cls-2" d="M517.51,332v-7.79h1.34v2.58a2,2,0,0,1,1.68-.77,1.78,1.78,0,0,1,2,1.86V332h-1.28v-3.77c0-.61-.24-1.06-1-1.06-1.14,0-1.42.86-1.42,1.61V332Z" transform="translate(-60.92 -21.92)"/><path class="cls-2" d="M529.87,329.08a2.93,2.93,0,0,1-3.07,3.06,3,3,0,0,1-3.14-3.06,3.09,3.09,0,0,1,3.12-3.07A3,3,0,0,1,529.87,329.08Zm-3.11,1.86a1.85,1.85,0,0,0,0-3.69,1.85,1.85,0,0,0,0,3.69Z" transform="translate(-60.92 -21.92)"/><path class="cls-2" d="M531,332v-5.84h1.26V327a1.86,1.86,0,0,1,1.8-.93,1.88,1.88,0,0,1,2,2.05V332h-1.29v-3.32c0-1.07-.36-1.43-1.12-1.43a1.41,1.41,0,0,0-1.35,1.58V332Z" transform="translate(-60.92 -21.92)"/><path class="cls-1" d="M658.82,513.91c.14,1.06.53,1.58,1.45,1.58a1.16,1.16,0,0,0,1.32-1.16c0-.85-.45-1.21-1.3-1.21h-.43v-.61H660c.33,0,1.35,0,1.35-1a1,1,0,0,0-1.11-1,1.14,1.14,0,0,0-1.18,1.13l-.66-.12a1.77,1.77,0,0,1,1.85-1.65,1.6,1.6,0,0,1,1.78,1.59,1.26,1.26,0,0,1-.93,1.24h0a1.51,1.51,0,0,1,1.13,1.58,1.82,1.82,0,0,1-2,1.79,2,2,0,0,1-2.15-2.09Z" transform="translate(-60.92 -21.92)"/></svg>