<?xml version="1.0" encoding="utf-8"?>
<!-- Generator: Adobe Illustrator 22.1.0, SVG Export Plug-In . SVG Version: 6.00 Build 0)  -->
<svg version="1.1" id="Layer_1" xmlns="http://www.w3.org/2000/svg" xmlns:xlink="http://www.w3.org/1999/xlink" x="0px" y="0px"
	 viewBox="0 0 1024 250" style="enable-background:new 0 0 1024 250;" xml:space="preserve">
<style type="text/css">
	.st0{fill:#FFFFFF;}
	.st1{opacity:0.7;enable-background:new    ;}
	.st2{opacity:0.7;}
	.st3{clip-path:url(#SVGID_2_);fill:#241F21;}
</style>
<rect class="st0" width="1024" height="250"/>
<path class="st1" d="M205.9,127.5c0,0.1,0,0.2,0,0.3c0,3.7,2.3,6,5.5,6c2.2,0,3.9-1.1,5.3-3.6l2,1.3c-1.7,3.1-4,4.6-7.4,4.6
	c-5.1,0-8.3-3.7-8.3-9.2c0-5.3,3.2-9,8.1-9c4.9,0,7.7,3.4,7.7,8.9c0,0.2,0,0.4,0,0.6C218.9,127.5,205.9,127.5,205.9,127.5z
	 M211,120.6c-2.8,0-4.8,1.7-5.1,4.6h10.2C215.9,122.2,214,120.6,211,120.6z"/>
<g class="st2">
	<path d="M82.4,118.6v2.3h8.2v4.1l0,0c-2.5-1.2-10.9-2.8-11.1,5.2c-0.1,3.6,2.4,6.1,6,6.1c2.2,0,4.3-1.1,5.1-2.8v2.2h2.8v-17.2H82.4
		z M90.6,127.5c0,2-0.2,3.3-0.8,4.3c-0.7,1.3-2.2,2.1-3.8,2.1c-2.2,0-4-1.6-3.9-3.8c0.1-4.9,6.7-4.5,8.5-2.9l0,0V127.5z"/>
</g>
<g class="st2">
	<path d="M52.2,118.6v2.3h7.4v4.1l0,0c-2.5-1.2-10.9-2.8-11.1,5.2c-0.1,3.6,2.4,6.1,6,6.1c2.2,0,4.3-1.1,5.1-2.8v2.2h2.7v-17.2H52.2
		z M59.5,127.5c0,2-0.2,3.3-0.8,4.3c-0.7,1.3-2.2,2.1-3.8,2.1c-2.2,0-4-1.6-3.9-3.8c0.1-4.9,6.7-4.5,8.5-2.9l0,0V127.5z"/>
</g>
<path class="st1" d="M113.4,127.1c0-5.2-3.5-9-8.1-9c-2.4,0-4.4,0.9-6.3,3.2v-10.9h-2.8v25.3h2.8v-2.4c1.8,2.1,3.7,3.1,6.2,3.1
	C110,136.2,113.4,132.4,113.4,127.1L113.4,127.1z M110.6,127.1c0,3.9-2.4,6.6-5.8,6.6c-3.5,0-5.9-2.8-5.9-6.6s2.4-6.6,5.9-6.6
	C108.1,120.6,110.6,123.3,110.6,127.1"/>
<path class="st1" d="M132.5,127.1c0-5.2-3.5-9-8.1-9c-2.4,0-4.4,0.9-6.3,3.2v-10.9h-2.9v25.3h2.8v-2.4c1.8,2.1,3.7,3.1,6.2,3.1
	C129,136.2,132.5,132.4,132.5,127.1L132.5,127.1z M129.6,127.1c0,3.9-2.4,6.6-5.8,6.6c-3.5,0-5.9-2.8-5.9-6.6s2.4-6.6,5.9-6.6
	C127.1,120.6,129.6,123.3,129.6,127.1"/>
<polygon class="st1" points="77.6,135.7 77.6,118.6 65.2,118.6 65.2,135.7 68,135.7 68,120.9 74.9,120.9 74.9,135.7 "/>
<polygon class="st1" points="172.1,135.7 172.1,118.6 151.7,118.6 151.7,135.7 154.5,135.7 154.5,120.9 160.5,120.9 160.5,135.7 
	163.3,135.7 163.3,120.9 169.3,120.9 169.3,135.7 "/>
<polygon class="st1" points="47.6,118.6 42.4,130.3 37.1,118.6 34,118.6 42.4,136.4 50.6,118.6 "/>
<polyline class="st1" points="256.8,135.7 256.8,118.6 236.3,118.6 236.3,135.7 239.2,135.7 239.2,120.9 245.2,120.9 245.2,135.7 
	247.9,135.7 247.9,120.9 253.9,120.9 253.9,135.7 256.8,135.7 "/>
<polygon class="st1" points="175,118.6 177.8,118.6 177.8,133.3 185.1,133.3 185.1,118.6 188,118.6 188,135.7 175,135.7 "/>
<polygon class="st1" points="220.5,135.7 233.3,135.7 233.3,118.6 230.6,118.6 230.6,133.3 223.3,133.3 223.3,118.6 220.5,118.6 "/>
<path class="st1" d="M191.7,131.1c1,1.7,2.4,2.5,4.4,2.5s3.2-1,3.2-2.5c0-1.3-0.8-2.1-2.7-2.7c-4.2-1.4-6.6-2.2-6.6-5.3
	c0-3,2.3-5.1,5.9-5.1c2.7,0,4.5,0.9,5.8,3.2l-2.2,1.3c-0.7-1.3-1.9-2.1-3.8-2.1c-1.7,0-2.9,1-2.9,2.5c0,1.7,1.5,2,4.3,2.9
	c3.3,1,4.9,2.5,4.9,5c0,3.2-2.4,5.3-6.1,5.3c-2.8,0-5.1-1-6.4-3.6L191.7,131.1z"/>
<path class="st1" d="M137,127.5c0,0.1,0,0.2,0,0.3c0,3.7,2.3,6,5.5,6c2.2,0,3.9-1.1,5.3-3.6l2,1.3c-1.7,3.1-4,4.6-7.4,4.6
	c-5.1,0-8.3-3.7-8.3-9.2c0-5.3,3.2-9,8.1-9c4.9,0,7.7,3.4,7.7,8.9c0,0.2,0,0.4,0,0.6C149.9,127.5,137,127.5,137,127.5z M142.1,120.6
	c-2.8,0-4.8,1.7-5.1,4.6h10.2C147,122.2,145,120.6,142.1,120.6z"/>
<g class="st2">
	<rect x="307" y="87" width="243.3" height="73"/>
	<path class="st0" d="M336.2,111.3h20.3c7.1,0,8.8,3.6,8.8,8.3v2.1c0,3.6-1.6,7.8-6.9,7.8h-14.7v6.1h-7.5V111.3 M343.7,123.5h11.6
		c1.8,0,2.4-1.1,2.4-2.6V120c0-1.7-0.8-2.6-3.1-2.6h-11L343.7,123.5L343.7,123.5z"/>
	<polygon class="st0" points="399.7,111.3 428.7,111.3 428.7,117.4 418,117.4 418,135.7 410.4,135.7 410.4,117.4 399.7,117.4 	"/>
	<path class="st0" d="M431.8,111.3h22.8c5.8,0,7.4,2.9,7.4,7.2v1.5c0,3.3-0.7,5.2-4.2,6v0.1c2.2,0.4,4.1,1.4,4.1,5.4v4.1h-7.6v-2.9
		c0-2.5-0.8-3.4-3.1-3.4h-11.9v6.3h-7.6L431.8,111.3 M439.3,123.3h12.5c2,0,2.8-0.8,2.8-2.6v-0.8c0-2.2-1.1-2.6-3.5-2.6h-11.8V123.3
		z"/>
	<path class="st0" d="M465.1,119.9c0-7.1,4-8.8,10.7-8.8h12c6.7,0,10.7,1.7,10.7,8.8v7.2c0,7.1-4,8.8-10.7,8.8h-12
		c-6.7,0-10.7-1.7-10.7-8.8V119.9 M472.8,124.8c0,3.5,0.7,4.9,4.3,4.9h9.5c3.5,0,4.3-1.3,4.3-4.9v-2.6c0-3-0.7-4.9-4.7-4.9h-8.7
		c-3.9,0-4.7,1.9-4.7,4.9L472.8,124.8L472.8,124.8z"/>
	<path class="st0" d="M371.1,135.7c-1.5,0-2.7-1.2-2.7-2.7l0,0v-18.7l0,0v-0.1V114l0,0c0-1.5,1.2-2.7,2.7-2.7c0.3,0,0.8,0,0.9,0
		h24.5v5.7h-20.6v3.9h19.5v5.1h-19.5v3.9h20.9v5.8H371.1"/>
	<polygon class="st0" points="501.6,135.7 501.6,111.3 509.2,111.3 509.2,129.4 526,129.4 526,135.7 	"/>
</g>
<g class="st2">
	<path d="M312.6,174.6H326v2.8h-10.1v4.9h9.4v2.7h-9.4v5.4h10.3v2.8h-13.6V174.6z"/>
	<path d="M328.6,179.7h2.8v2l0.1,0.1c0.5-0.7,1-1.3,1.8-1.8c0.7-0.4,1.5-0.6,2.4-0.6c1.5,0,2.6,0.4,3.5,1.1c0.8,0.8,1.3,1.9,1.3,3.4
		v9.2h-3v-8.5c0-1.1-0.3-1.8-0.7-2.3c-0.4-0.5-1.1-0.7-2-0.7c-0.5,0-1,0.1-1.4,0.3c-0.4,0.2-0.7,0.4-1,0.8c-0.3,0.3-0.5,0.7-0.7,1.1
		c-0.2,0.4-0.2,0.9-0.2,1.4v7.9h-3v-13.4H328.6z"/>
	<path d="M345.8,187.2c0,0.5,0.1,1,0.2,1.5s0.4,0.9,0.7,1.3c0.3,0.4,0.7,0.7,1.1,0.9c0.5,0.2,1,0.3,1.6,0.3c0.9,0,1.6-0.2,2.1-0.6
		s0.9-0.9,1.2-1.7h2.8c-0.2,0.7-0.4,1.4-0.8,2c-0.4,0.6-0.8,1.1-1.4,1.4c-0.5,0.4-1.1,0.7-1.8,0.9c-0.7,0.2-1.4,0.3-2.1,0.3
		c-1.1,0-2-0.2-2.8-0.5c-0.8-0.3-1.5-0.8-2.1-1.5c-0.6-0.6-1-1.4-1.3-2.2c-0.3-0.9-0.4-1.8-0.4-2.9c0-1,0.2-1.9,0.5-2.7
		c0.3-0.9,0.7-1.6,1.3-2.3c0.6-0.7,1.2-1.2,2-1.5c0.8-0.4,1.7-0.6,2.7-0.6c1.1,0,2,0.2,2.8,0.7c0.8,0.4,1.5,1,2.1,1.8
		c0.6,0.7,1,1.6,1.2,2.5c0.3,0.9,0.3,1.9,0.2,2.9L345.8,187.2L345.8,187.2z M352.8,185.2c0-0.5-0.1-0.9-0.3-1.4
		c-0.2-0.4-0.4-0.8-0.7-1.1c-0.3-0.3-0.6-0.6-1-0.8c-0.4-0.2-0.9-0.3-1.4-0.3s-1,0.1-1.4,0.3c-0.4,0.2-0.8,0.4-1.1,0.8
		c-0.3,0.3-0.5,0.7-0.7,1.1c-0.2,0.4-0.3,0.9-0.3,1.4H352.8z"/>
	<path d="M358,179.7h2.8v2.6h0.1c0.1-0.4,0.3-0.7,0.5-1.1c0.3-0.3,0.6-0.7,0.9-0.9c0.4-0.3,0.7-0.5,1.2-0.7c0.4-0.2,0.9-0.3,1.3-0.3
		c0.3,0,0.6,0,0.7,0s0.3,0,0.4,0.1v2.9c-0.2,0-0.4-0.1-0.6-0.1c-0.2,0-0.4,0-0.6,0c-0.5,0-1,0.1-1.4,0.3c-0.4,0.2-0.8,0.5-1.2,0.9
		c-0.3,0.4-0.6,0.9-0.8,1.4c-0.2,0.6-0.3,1.2-0.3,2v6.4h-3C358,193.2,358,179.7,358,179.7z"/>
	<path d="M379.6,192.4c0,2-0.6,3.5-1.7,4.5s-2.8,1.5-4.9,1.5c-0.7,0-1.4-0.1-2-0.2c-0.7-0.1-1.3-0.4-1.9-0.7c-0.6-0.3-1-0.8-1.4-1.3
		c-0.4-0.5-0.6-1.2-0.7-2h3c0.1,0.4,0.2,0.8,0.4,1c0.2,0.3,0.5,0.5,0.7,0.6c0.3,0.1,0.6,0.2,0.9,0.3c0.3,0,0.7,0.1,1.1,0.1
		c1.2,0,2.1-0.3,2.6-0.9c0.6-0.6,0.8-1.4,0.8-2.5v-2.1h-0.1c-0.4,0.7-1,1.3-1.7,1.7c-0.7,0.4-1.5,0.6-2.3,0.6c-1.1,0-2-0.2-2.7-0.6
		c-0.8-0.4-1.4-0.9-1.9-1.5c-0.5-0.7-0.9-1.4-1.1-2.2c-0.2-0.8-0.3-1.8-0.3-2.7s0.1-1.8,0.4-2.6c0.3-0.8,0.7-1.5,1.2-2.1
		c0.5-0.6,1.2-1.1,1.9-1.5c0.8-0.4,1.6-0.5,2.6-0.5c0.8,0,1.6,0.2,2.3,0.5c0.7,0.4,1.3,0.9,1.6,1.7h0.1v-1.8h3L379.6,192.4
		L379.6,192.4z M373,190.8c0.7,0,1.2-0.1,1.7-0.4c0.5-0.3,0.8-0.6,1.1-1.1c0.3-0.4,0.5-0.9,0.6-1.5s0.2-1.1,0.2-1.7
		s-0.1-1.1-0.2-1.7s-0.4-1-0.6-1.4c-0.3-0.4-0.7-0.7-1.1-1c-0.5-0.2-1-0.4-1.7-0.4s-1.2,0.1-1.7,0.4c-0.5,0.3-0.8,0.6-1.1,1.1
		c-0.3,0.4-0.5,0.9-0.6,1.5s-0.2,1.1-0.2,1.7s0.1,1.1,0.2,1.6s0.4,1,0.6,1.4c0.3,0.4,0.6,0.8,1.1,1
		C371.8,190.7,372.4,190.8,373,190.8z"/>
	<path d="M382.6,174.6h3v2.8h-3V174.6z M382.6,179.7h3v13.4h-3V179.7z"/>
	<path d="M388.9,179.7h3v14.6c0,1.3-0.3,2.4-0.9,3.1s-1.6,1.1-3,1.1c-0.3,0-0.5,0-0.7,0c-0.2,0-0.4,0-0.6-0.1V196
		c0.2,0,0.4,0.1,0.5,0.1c0.2,0,0.3,0,0.5,0c0.5,0,0.9-0.2,1-0.5c0.1-0.3,0.2-0.8,0.2-1.5V179.7z M388.9,174.6h3v2.8h-3V174.6z"/>
	<path d="M406.3,190.1c0,0.4,0,0.6,0.1,0.8c0.1,0.2,0.3,0.2,0.6,0.2c0.1,0,0.2,0,0.3,0c0.1,0,0.3,0,0.4-0.1v2.1
		c-0.1,0-0.2,0.1-0.4,0.1c-0.2,0-0.3,0.1-0.5,0.1c-0.2,0-0.3,0.1-0.5,0.1c-0.2,0-0.3,0-0.4,0c-0.6,0-1.1-0.1-1.5-0.4
		c-0.4-0.2-0.7-0.7-0.8-1.3c-0.6,0.6-1.3,1-2.2,1.2c-0.9,0.3-1.7,0.4-2.5,0.4c-0.6,0-1.2-0.1-1.7-0.2c-0.6-0.2-1-0.4-1.5-0.7
		c-0.4-0.3-0.8-0.7-1-1.2c-0.3-0.5-0.4-1.1-0.4-1.7c0-0.8,0.2-1.5,0.5-2c0.3-0.5,0.7-0.9,1.2-1.2s1-0.5,1.7-0.6
		c0.6-0.1,1.2-0.2,1.9-0.3c0.5-0.1,1-0.2,1.5-0.2s0.9-0.1,1.3-0.2c0.4-0.1,0.7-0.3,0.9-0.5c0.2-0.2,0.3-0.5,0.3-1
		c0-0.4-0.1-0.7-0.3-0.9c-0.2-0.2-0.4-0.4-0.7-0.6c-0.3-0.1-0.6-0.2-0.9-0.3c-0.3,0-0.6-0.1-0.9-0.1c-0.8,0-1.5,0.2-2.1,0.5
		c-0.5,0.3-0.8,0.9-0.9,1.6h-3c0.1-0.9,0.3-1.6,0.6-2.2c0.4-0.6,0.8-1,1.4-1.4c0.6-0.3,1.2-0.6,1.9-0.7c0.7-0.1,1.4-0.2,2.2-0.2
		c0.7,0,1.3,0.1,2,0.2c0.6,0.1,1.2,0.4,1.7,0.7c0.5,0.3,0.9,0.7,1.2,1.2c0.3,0.5,0.5,1.1,0.5,1.8
		C406.3,183.1,406.3,190.1,406.3,190.1z M403.4,186.4c-0.5,0.3-1,0.5-1.7,0.5c-0.7,0.1-1.3,0.2-2,0.3c-0.3,0.1-0.6,0.1-0.9,0.2
		c-0.3,0.1-0.6,0.2-0.8,0.4s-0.4,0.4-0.5,0.7c-0.1,0.3-0.2,0.6-0.2,1c0,0.3,0.1,0.6,0.3,0.8c0.2,0.2,0.4,0.4,0.7,0.5
		c0.3,0.1,0.6,0.2,0.9,0.3c0.3,0.1,0.6,0.1,0.9,0.1s0.7,0,1.1-0.1c0.4-0.1,0.7-0.2,1.1-0.4c0.3-0.2,0.6-0.5,0.8-0.8
		c0.2-0.3,0.3-0.7,0.3-1.2C403.4,188.7,403.4,186.4,403.4,186.4z"/>
	<path d="M416.3,179.7h10.9v2.1l-7.7,9h8.1v2.3h-11.8V191l7.4-9h-6.9V179.7z"/>
	<path d="M441,190.1c0,0.4,0,0.6,0.1,0.8c0.1,0.2,0.3,0.2,0.6,0.2c0.1,0,0.2,0,0.3,0c0.1,0,0.3,0,0.4-0.1v2.1
		c-0.1,0-0.2,0.1-0.4,0.1c-0.2,0-0.3,0.1-0.5,0.1c-0.2,0-0.3,0.1-0.5,0.1c-0.2,0-0.3,0-0.4,0c-0.6,0-1.1-0.1-1.5-0.4
		c-0.4-0.2-0.7-0.7-0.8-1.3c-0.6,0.6-1.3,1-2.2,1.2c-0.9,0.3-1.7,0.4-2.5,0.4c-0.6,0-1.2-0.1-1.7-0.2c-0.6-0.2-1-0.4-1.5-0.7
		c-0.4-0.3-0.8-0.7-1-1.2c-0.3-0.5-0.4-1.1-0.4-1.7c0-0.8,0.2-1.5,0.5-2c0.3-0.5,0.7-0.9,1.2-1.2s1-0.5,1.7-0.6
		c0.6-0.1,1.2-0.2,1.9-0.3c0.5-0.1,1-0.2,1.5-0.2s0.9-0.1,1.3-0.2c0.4-0.1,0.7-0.3,0.9-0.5c0.2-0.2,0.3-0.5,0.3-1
		c0-0.4-0.1-0.7-0.3-0.9c-0.2-0.2-0.4-0.4-0.7-0.6c-0.3-0.1-0.6-0.2-0.9-0.3c-0.3,0-0.6-0.1-0.9-0.1c-0.8,0-1.5,0.2-2.1,0.5
		c-0.5,0.3-0.8,0.9-0.9,1.6h-3c0.1-0.9,0.3-1.6,0.6-2.2c0.4-0.6,0.8-1,1.4-1.4c0.6-0.3,1.2-0.6,1.9-0.7s1.4-0.2,2.2-0.2
		c0.7,0,1.3,0.1,2,0.2c0.6,0.1,1.2,0.4,1.7,0.7c0.5,0.3,0.9,0.7,1.2,1.2s0.5,1.1,0.5,1.8L441,190.1L441,190.1z M438.1,186.4
		c-0.5,0.3-1,0.5-1.7,0.5c-0.7,0.1-1.3,0.2-2,0.3c-0.3,0.1-0.6,0.1-0.9,0.2c-0.3,0.1-0.6,0.2-0.8,0.4s-0.4,0.4-0.5,0.7
		c-0.1,0.3-0.2,0.6-0.2,1c0,0.3,0.1,0.6,0.3,0.8c0.2,0.2,0.4,0.4,0.7,0.5c0.3,0.1,0.6,0.2,0.9,0.3c0.3,0.1,0.6,0.1,0.9,0.1
		c0.3,0,0.7,0,1.1-0.1c0.4-0.1,0.7-0.2,1.1-0.4c0.3-0.2,0.6-0.5,0.8-0.8c0.2-0.3,0.3-0.7,0.3-1.2L438.1,186.4L438.1,186.4z"/>
	<path d="M451,179.7h10.9v2.1l-7.7,9h8.1v2.3h-11.8V191l7.4-9H451V179.7z M457.9,177.8H455l-2.8-3.7h2.4l1.8,2.3l1.8-2.3h2.4
		L457.9,177.8z"/>
	<path d="M464.5,174.6h3v2.8h-3V174.6z M464.5,179.7h3v13.4h-3V179.7z"/>
	<path d="M469.4,179.7h3.2L476,190h0.1l3.3-10.3h3.1l-4.8,13.4h-3.3L469.4,179.7z"/>
	<path d="M484.3,174.6h3v18.6h-3V174.6z"/>
	<path d="M490.6,179.7h3v14.6c0,1.3-0.3,2.4-0.9,3.1c-0.6,0.7-1.6,1.1-3,1.1c-0.3,0-0.5,0-0.7,0c-0.2,0-0.4,0-0.6-0.1V196
		c0.2,0,0.4,0.1,0.5,0.1c0.2,0,0.3,0,0.5,0c0.5,0,0.9-0.2,1-0.5c0.1-0.3,0.2-0.8,0.2-1.5V179.7z M490.6,174.6h3v2.8h-3V174.6z"/>
	<path d="M499.1,187.2c0,0.5,0.1,1,0.2,1.5c0.1,0.5,0.4,0.9,0.7,1.3s0.7,0.7,1.1,0.9c0.5,0.2,1,0.3,1.6,0.3c0.9,0,1.6-0.2,2.1-0.6
		s0.9-0.9,1.2-1.7h2.8c-0.2,0.7-0.4,1.4-0.8,2c-0.4,0.6-0.8,1.1-1.4,1.4c-0.5,0.4-1.1,0.7-1.8,0.9c-0.7,0.2-1.4,0.3-2.1,0.3
		c-1.1,0-2-0.2-2.8-0.5c-0.8-0.3-1.5-0.8-2.1-1.5c-0.6-0.6-1-1.4-1.3-2.2c-0.3-0.9-0.4-1.8-0.4-2.9c0-1,0.2-1.9,0.5-2.7
		c0.3-0.9,0.7-1.6,1.3-2.3c0.6-0.7,1.2-1.2,2-1.5c0.8-0.4,1.7-0.6,2.7-0.6c1.1,0,2,0.2,2.8,0.7c0.8,0.4,1.5,1,2.1,1.8
		c0.6,0.7,1,1.6,1.2,2.5c0.3,0.9,0.3,1.9,0.2,2.9L499.1,187.2L499.1,187.2z M506,185.2c0-0.5-0.1-0.9-0.3-1.4
		c-0.2-0.4-0.4-0.8-0.7-1.1s-0.6-0.6-1-0.8c-0.4-0.2-0.9-0.3-1.4-0.3s-1,0.1-1.4,0.3c-0.4,0.2-0.8,0.4-1.1,0.8
		c-0.3,0.3-0.5,0.7-0.7,1.1c-0.2,0.4-0.3,0.9-0.3,1.4H506z"/>
	<path d="M511.2,179.7h2.8v2l0.1,0.1c0.5-0.7,1-1.3,1.8-1.8c0.7-0.4,1.5-0.6,2.4-0.6c1.5,0,2.6,0.4,3.5,1.1c0.8,0.8,1.3,1.9,1.3,3.4
		v9.2h-3v-8.5c0-1.1-0.3-1.8-0.7-2.3c-0.4-0.5-1.1-0.7-2-0.7c-0.5,0-1,0.1-1.4,0.3c-0.4,0.2-0.7,0.4-1,0.8c-0.3,0.3-0.5,0.7-0.7,1.1
		c-0.2,0.4-0.2,0.9-0.2,1.4v7.9h-3L511.2,179.7L511.2,179.7z"/>
	<path d="M526.2,179.7h3v14.6c0,1.3-0.3,2.4-0.9,3.1c-0.6,0.7-1.6,1.1-3,1.1c-0.3,0-0.5,0-0.7,0c-0.2,0-0.4,0-0.6-0.1V196
		c0.2,0,0.4,0.1,0.5,0.1c0.2,0,0.3,0,0.5,0c0.5,0,0.9-0.2,1-0.5c0.1-0.3,0.2-0.8,0.2-1.5V179.7z M526.2,174.6h3v2.8h-3V174.6z"/>
	<path d="M534.7,187.2c0,0.5,0.1,1,0.2,1.5c0.1,0.5,0.4,0.9,0.7,1.3c0.3,0.4,0.7,0.7,1.1,0.9c0.5,0.2,1,0.3,1.6,0.3
		c0.9,0,1.6-0.2,2.1-0.6s0.9-0.9,1.2-1.7h2.8c-0.2,0.7-0.4,1.4-0.8,2c-0.4,0.6-0.8,1.1-1.4,1.4c-0.5,0.4-1.1,0.7-1.8,0.9
		c-0.7,0.2-1.4,0.3-2.1,0.3c-1.1,0-2-0.2-2.8-0.5s-1.5-0.8-2.1-1.5c-0.6-0.6-1-1.4-1.3-2.2c-0.3-0.9-0.4-1.8-0.4-2.9
		c0-1,0.2-1.9,0.5-2.7c0.3-0.9,0.7-1.6,1.3-2.3c0.6-0.7,1.2-1.2,2-1.5c0.8-0.4,1.7-0.6,2.7-0.6c1.1,0,2,0.2,2.8,0.7
		c0.8,0.4,1.5,1,2.1,1.8c0.6,0.7,1,1.6,1.2,2.5c0.3,0.9,0.3,1.9,0.2,2.9L534.7,187.2L534.7,187.2z M541.6,185.2
		c0-0.5-0.1-0.9-0.3-1.4c-0.2-0.4-0.4-0.8-0.7-1.1c-0.3-0.3-0.6-0.6-1-0.8c-0.4-0.2-0.9-0.3-1.4-0.3s-1,0.1-1.4,0.3
		c-0.4,0.2-0.8,0.4-1.1,0.8c-0.3,0.3-0.5,0.7-0.7,1.1c-0.2,0.4-0.3,0.9-0.3,1.4H541.6z"/>
</g>
<g class="st2">
	<path d="M666,121.4v-6.7h-5.3v6.7h-18.5v5.3h6.2v1.8c-1,1.5-2.8,2.8-5.6,2.9c-4.4,0-6.1-3.9-6.1-7.8c0-1,0.1-2,0.3-2.9
		c0.3-1.3,1-2.6,1.9-3.5c1-0.9,2.2-1.4,3.9-1.4c2.5,0,4.4,1.1,4.8,3l0,0h6.7c-0.8-5.7-5.4-8.4-10.2-8.8c-0.4-0.1-0.8-0.1-1.2-0.1
		c-4,0-7.3,1.5-9.5,4c-2,2.2-3.2,5.1-3.5,8.4V111h-10.2l-4.5,17.5h-0.1l-4.5-17.5h-10.1v26.3h6.4v-20h0.1l5.5,20h5.2l5.5-20h0.1v20
		h6.4v-12.4c0.1,1.4,0.4,2.8,0.9,4c1.8,4.9,6.2,8.3,12.2,8.3c0.3,0,0.7,0,1.1-0.1c4.2-0.3,8.8-2.4,10.7-7.1v-3.5h0.9l0,0h5.2v6.7
		h5.3v-6.7h6.7v-5.3L666,121.4L666,121.4z"/>
	<path d="M740.3,126.9c0,3.4-1.3,5.2-4.6,5.2c-3.3,0-4.6-1.7-4.6-5.2V111h-6.8v15.5c0,0.5,0,0.9,0,1.3c-0.6-3.7-4.1-5.3-7.5-6.3
		c-3.8-1-7.6-1.4-7.6-3.5c0-1.7,1.8-2.2,3.3-2.2c2.1,0,4.4,0.8,4.2,3.2h6.8c0-5.9-5.3-8.5-10.5-8.5c-4.9,0-10.7,2.2-10.7,8
		c0,4.8,4,6.5,7.7,7.6c3.8,1,7.5,1.5,7.5,3.8c0,2-2.1,2.7-4.2,2.7c-2.9,0-4.8-1-5-4.1h-6.8V111h-10.1l-4.4,17.5l0,0l-4.6-17.5h-10.1
		v26.3h6.4v-20h0.1l5.5,20h5.2l5.5-20h0.1v20h6.4v-8c0.5,6.1,5.6,8.6,11.4,8.6s11.4-2.1,11.4-8.8c0-0.1,0-0.1,0-0.2
		c0.7,5.9,4.3,9,11.3,9c7.9,0,11.4-3.8,11.4-11.4V111h-6.8L740.3,126.9L740.3,126.9z"/>
	<polygon points="767.9,111 763.3,128.5 763.3,128.5 758.7,111 748.7,111 748.7,137.3 755.1,137.3 755.1,117.4 755.2,117.4 
		760.7,137.3 765.9,137.3 771.4,117.4 771.5,117.4 771.5,137.3 778,137.3 778,111 	"/>
</g>
<g class="st2">
	<defs>
		<rect id="SVGID_1_" x="828" y="110.4" class="st2" width="160.5" height="26.6"/>
	</defs>
	<clipPath id="SVGID_2_">
		<use xlink:href="#SVGID_1_"  style="overflow:visible;"/>
	</clipPath>
	<path class="st3" d="M835.8,114.8c1-0.2,1.1-0.6,1.1-1.4h-1.1v-2.9h3.1v2.6c0,1.7-0.8,2.9-3.1,3.1V114.8z M983.4,119.5
		c-0.1-1.6-1-2.8-2.9-2.8c-1.8,0-2.7,1.5-2.8,2.8H983.4z M985.5,124.1c-0.9,1.5-2.4,2.7-4.9,2.7c-3.2,0-5.5-2.4-5.5-6.2
		c0-3.8,2.3-6.2,5.4-6.2c3.1,0,5.3,2.3,5.3,6.2v0.8h-8.2c0.1,1.9,1.1,3.2,2.9,3.2c1.8,0,2.6-1.2,3.1-2L985.5,124.1z M830.6,134.4
		v-24H828V137h160.5v-2.6H830.6z M969.9,110.4h2.6v16.2h-2.6V110.4z M959.4,123.3c0,1,0.7,1.4,1.9,1.4c2,0,2.9-1,2.9-2v-2.3h0
		c-0.1,0.3-0.4,0.6-2.7,1.2C959.7,122,959.4,122.6,959.4,123.3 M964.5,125.4L964.5,125.4c-0.2,0.2-1.1,1.5-3.4,1.5
		c-2.9,0-4.1-1.7-4.1-3.4c0-2.1,1.2-3,4-3.7c2.5-0.6,3.1-0.9,3.1-1.7c0-0.8-0.6-1.4-2.1-1.4c-1.8,0-2.3,1-2.6,2.1l-2.1-0.8
		c0.5-1.9,2-3.4,4.7-3.4c2.6,0,4.7,1.2,4.7,4.5v7.6h-2.1V125.4z M944.6,114.8h2.4v1.1h0c0.6-0.8,1.8-1.5,3.2-1.5
		c2.6,0,4.2,1.6,4.2,4.4v7.7H952v-7c0-1.7-0.6-2.7-2.3-2.7c-1.5,0-2.5,1-2.5,2.5v7.3h-2.5V114.8z M939.5,120.7
		c0-2.5-1.2-3.9-2.9-3.9c-1.7,0-2.9,1.3-2.9,3.9c0,2.6,1.2,3.9,2.9,3.9C938.3,124.6,939.5,123.2,939.5,120.7 M931.1,120.7
		c0-4,2.5-6.2,5.4-6.2c2.9,0,5.4,2.2,5.4,6.2c0,4-2.4,6.2-5.4,6.2C933.5,126.9,931.1,124.7,931.1,120.7 M925.9,114.8h2.5v11.7h-2.5
		V114.8z M925.9,110.4h2.6v2.5h-2.6V110.4z M917.9,117h-1.8v-2.2h1.8v-2.9h2.4v2.9h2.9v2.2h-2.9v5.4c0,1.2,0.2,1.7,1.5,1.7h0.9v2.4
		h-1.1c-2.9,0-3.8-1.3-3.8-3.9V117z M906.9,123.3c0,1,0.7,1.4,1.9,1.4c2,0,2.9-1,2.9-2v-2.3h0c-0.1,0.3-0.4,0.6-2.7,1.2
		C907.2,122,906.9,122.6,906.9,123.3 M912,125.4L912,125.4c-0.2,0.2-1.1,1.5-3.4,1.5c-2.9,0-4.1-1.7-4.1-3.4c0-2.1,1.2-3,4-3.7
		c2.5-0.6,3.1-0.9,3.1-1.7c0-0.8-0.6-1.4-2.1-1.4c-1.8,0-2.3,1-2.6,2.1l-2.1-0.8c0.5-1.9,2-3.4,4.7-3.4c2.6,0,4.7,1.2,4.7,4.5v7.6
		H912V125.4z M892.1,114.8h2.4v1.1h0c0.6-0.8,1.8-1.5,3.2-1.5c2.6,0,4.2,1.6,4.2,4.4v7.7h-2.5v-7c0-1.7-0.6-2.7-2.3-2.7
		c-1.6,0-2.5,1-2.5,2.5v7.3h-2.5V114.8z M884,114.8h2.4v1.2h0c0.5-0.9,1.4-1.5,2.4-1.5c0.4,0,0.8,0.1,1,0.2l-0.4,2.5
		c-0.2-0.1-0.5-0.2-0.9-0.2c-1.3,0-2.1,0.9-2.1,2.9v6.5H884V114.8z M878.9,119.5c-0.1-1.6-1-2.8-2.9-2.8c-1.8,0-2.7,1.5-2.8,2.8
		H878.9z M881,124.1c-0.9,1.5-2.4,2.7-4.9,2.7c-3.2,0-5.5-2.4-5.5-6.2c0-3.8,2.3-6.2,5.4-6.2c3.1,0,5.3,2.3,5.3,6.2v0.8h-8.2
		c0.1,1.9,1.1,3.2,2.9,3.2c1.8,0,2.6-1.2,3.1-2L881,124.1z M863.9,117h-1.8v-2.2h1.8v-2.9h2.4v2.9h2.9v2.2h-2.9v5.4
		c0,1.2,0.2,1.7,1.5,1.7h0.9v2.4h-1.1c-2.9,0-3.8-1.3-3.8-3.9V117z M850.1,114.8h2.4v1.1h0c0.6-0.8,1.8-1.5,3.2-1.5
		c2.6,0,4.2,1.6,4.2,4.4v7.7h-2.5v-7c0-1.7-0.6-2.7-2.3-2.7c-1.6,0-2.5,1-2.5,2.5v7.3h-2.5V114.8z M844.1,114.8h2.5v11.7h-2.5V114.8
		z M844.1,110.4h2.6v2.5h-2.6V110.4z"/>
</g>
</svg>
