<?xml version="1.0" encoding="UTF-8" standalone="no"?>
<!-- Created with Inkscape (http://www.inkscape.org/) -->

<svg
   width="140mm"
   height="40mm"
   viewBox="0 0 140 40"
   version="1.1"
   id="svg118"
   inkscape:version="1.1.2 (0a00cf5339, 2022-02-04)"
   sodipodi:docname="logoti.svg"
   xmlns:inkscape="http://www.inkscape.org/namespaces/inkscape"
   xmlns:sodipodi="http://sodipodi.sourceforge.net/DTD/sodipodi-0.dtd"
   xmlns="http://www.w3.org/2000/svg"
   xmlns:svg="http://www.w3.org/2000/svg">
  <sodipodi:namedview
     id="namedview120"
     pagecolor="#ffffff"
     bordercolor="#666666"
     borderopacity="1.0"
     inkscape:pageshadow="2"
     inkscape:pageopacity="0.0"
     inkscape:pagecheckerboard="0"
     inkscape:document-units="mm"
     showgrid="false"
     inkscape:zoom="0.64052329"
     inkscape:cx="396.55076"
     inkscape:cy="359.86201"
     inkscape:window-width="1703"
     inkscape:window-height="970"
     inkscape:window-x="26"
     inkscape:window-y="23"
     inkscape:window-maximized="0"
     inkscape:current-layer="layer1"
     width="140mm" />
  <defs
     id="defs115" />
  <g
     inkscape:label="Plast 1"
     inkscape:groupmode="layer"
     id="layer1">
    <path
       class="st1"
       d="m 104.43687,20.507014 c 0,0.05693 0,0.113867 0,0.170779 0,2.10641 1.30939,3.415801 3.13116,3.415801 1.25245,0 2.22026,-0.626231 3.01729,-2.049481 l 1.13861,0.74009 c -0.96783,1.76483 -2.27722,2.61878 -4.21283,2.61878 -2.90345,0 -4.72519,-2.10641 -4.72519,-5.23756 0,-3.017292 1.82174,-5.123702 4.61132,-5.123702 2.78957,0 4.38361,1.93562 4.38361,5.06677 0,0.113867 0,0.227722 0,0.34158 0.057,0.05693 -7.34397,0.05693 -7.34397,0.05693 z m 2.90343,-3.928171 c -1.59404,0 -2.73265,0.967809 -2.90343,2.61878 h 5.80687 c -0.11383,-1.707901 -1.19554,-2.61878 -2.90344,-2.61878 z"
       id="path6"
       style="opacity:0.7;stroke-width:0.5693;enable-background:new" />
    <g
       class="st2"
       id="g10"
       style="opacity:0.7"
       transform="matrix(0.56930022,0,0,0.56930022,-12.782041,-52.078766)">
      <path
         d="m 82.4,118.6 v 2.3 h 8.2 v 4.1 0 c -2.5,-1.2 -10.9,-2.8 -11.1,5.2 -0.1,3.6 2.4,6.1 6,6.1 2.2,0 4.3,-1.1 5.1,-2.8 v 2.2 h 2.8 v -17.2 h -11 z m 8.2,8.9 c 0,2 -0.2,3.3 -0.8,4.3 -0.7,1.3 -2.2,2.1 -3.8,2.1 -2.2,0 -4,-1.6 -3.9,-3.8 0.1,-4.9 6.7,-4.5 8.5,-2.9 v 0 z"
         id="path8" />
    </g>
    <g
       class="st2"
       id="g14"
       style="opacity:0.7"
       transform="matrix(0.56930022,0,0,0.56930022,-12.782041,-52.078766)">
      <path
         d="m 52.2,118.6 v 2.3 h 7.4 v 4.1 0 c -2.5,-1.2 -10.9,-2.8 -11.1,5.2 -0.1,3.6 2.4,6.1 6,6.1 2.2,0 4.3,-1.1 5.1,-2.8 v 2.2 h 2.7 V 118.5 H 52.2 Z m 7.3,8.9 c 0,2 -0.2,3.3 -0.8,4.3 -0.7,1.3 -2.2,2.1 -3.8,2.1 -2.2,0 -4,-1.6 -3.9,-3.8 0.1,-4.9 6.7,-4.5 8.5,-2.9 v 0 z"
         id="path12" />
    </g>
    <path
       class="st1"
       d="m 51.776604,20.279292 c 0,-2.96036 -1.992551,-5.123701 -4.611332,-5.123701 -1.36632,0 -2.504921,0.51237 -3.586591,1.821761 v -6.205374 h -1.594042 v 14.403297 h 1.594042 v -1.366321 c 1.02474,1.195531 2.10641,1.76483 3.52966,1.76483 2.732641,-0.113867 4.668263,-2.2772 4.668263,-5.294492 z m -1.594042,0 c 0,2.220271 -1.36632,3.757382 -3.30194,3.757382 -1.992552,0 -3.358872,-1.59404 -3.358872,-3.757382 0,-2.163339 1.36632,-3.757381 3.358872,-3.757381 1.87869,0.05693 3.30194,1.594042 3.30194,3.757381"
       id="path16"
       style="opacity:0.7;stroke-width:0.5693;enable-background:new" />
    <path
       class="st1"
       d="m 62.650237,20.279292 c 0,-2.96036 -1.992549,-5.123701 -4.611332,-5.123701 -1.36632,0 -2.504919,0.51237 -3.586591,1.821761 v -6.205374 h -1.650969 v 14.403297 h 1.59404 v -1.366321 c 1.02474,1.195531 2.10641,1.76483 3.529662,1.76483 2.732641,-0.113867 4.72519,-2.2772 4.72519,-5.294492 z m -1.650969,0 c 0,2.220271 -1.366321,3.757382 -3.301943,3.757382 -1.992549,0 -3.35887,-1.59404 -3.35887,-3.757382 0,-2.163339 1.366321,-3.757381 3.35887,-3.757381 1.878691,0.05693 3.301943,1.594042 3.301943,3.757381"
       id="path18"
       style="opacity:0.7;stroke-width:0.5693;enable-background:new" />
    <polygon
       class="st1"
       points="77.6,135.7 77.6,118.6 65.2,118.6 65.2,135.7 68,135.7 68,120.9 74.9,120.9 74.9,135.7 "
       id="polygon20"
       style="opacity:0.7;enable-background:new"
       transform="matrix(0.56930022,0,0,0.56930022,-12.782041,-52.078766)" />
    <polygon
       class="st1"
       points="172.1,135.7 172.1,118.6 151.7,118.6 151.7,135.7 154.5,135.7 154.5,120.9 160.5,120.9 160.5,135.7 163.3,135.7 163.3,120.9 169.3,120.9 169.3,135.7 "
       id="polygon22"
       style="opacity:0.7;enable-background:new"
       transform="matrix(0.56930022,0,0,0.56930022,-12.782041,-52.078766)" />
    <polygon
       class="st1"
       points="47.6,118.6 42.4,130.3 37.1,118.6 34,118.6 42.4,136.4 50.6,118.6 "
       id="polygon24"
       style="opacity:0.7;enable-background:new"
       transform="matrix(0.56930022,0,0,0.56930022,-12.782041,-52.078766)" />
    <polyline
       class="st1"
       points="256.8,135.7 256.8,118.6 236.3,118.6 236.3,135.7 239.2,135.7 239.2,120.9 245.2,120.9 245.2,135.7   247.9,135.7 247.9,120.9 253.9,120.9 253.9,135.7 256.8,135.7 "
       id="polyline26"
       style="opacity:0.7;enable-background:new"
       transform="matrix(0.56930022,0,0,0.56930022,-12.782041,-52.078766)" />
    <polygon
       class="st1"
       points="175,118.6 177.8,118.6 177.8,133.3 185.1,133.3 185.1,118.6 188,118.6 188,135.7 175,135.7 "
       id="polygon28"
       style="opacity:0.7;enable-background:new"
       transform="matrix(0.56930022,0,0,0.56930022,-12.782041,-52.078766)" />
    <polygon
       class="st1"
       points="220.5,135.7 233.3,135.7 233.3,118.6 230.6,118.6 230.6,133.3 223.3,133.3 223.3,118.6 220.5,118.6 "
       id="polygon30"
       style="opacity:0.7;enable-background:new"
       transform="matrix(0.56930022,0,0,0.56930022,-12.782041,-52.078766)" />
    <path
       class="st1"
       d="m 96.352819,22.556494 c 0.569293,0.967809 1.36632,1.42325 2.504906,1.42325 1.138608,0 1.821765,-0.569299 1.821765,-1.42325 0,-0.740091 -0.45544,-1.19553 -1.537118,-1.53711 -2.391061,-0.797021 -3.757382,-1.252462 -3.757382,-3.017291 0,-1.707901 1.309409,-2.903432 3.35889,-2.903432 1.5371,0 2.56184,0.512371 3.30193,1.821762 l -1.25245,0.740089 c -0.39851,-0.740089 -1.081673,-1.19553 -2.163347,-1.19553 -0.967807,0 -1.650968,0.569299 -1.650968,1.42325 0,0.967811 0.85394,1.138601 2.447995,1.65097 1.87868,0.5693 2.78955,1.42325 2.78955,2.846502 0,1.82176 -1.36632,3.01729 -3.47271,3.01729 -1.594055,0 -2.903442,-0.569299 -3.643536,-2.049481 z"
       id="path32"
       style="opacity:0.7;stroke-width:0.5693;enable-background:new" />
    <path
       class="st1"
       d="m 65.212088,20.507014 c 0,0.05693 0,0.113867 0,0.170779 0,2.10641 1.309392,3.415801 3.131153,3.415801 1.25246,0 2.220271,-0.626231 3.01729,-2.049481 l 1.138601,0.74009 c -0.967811,1.76483 -2.2772,2.61878 -4.212822,2.61878 -2.903432,0 -4.725191,-2.10641 -4.725191,-5.23756 0,-3.017292 1.821759,-5.123702 4.611332,-5.123702 2.78957,0 4.38361,1.93562 4.38361,5.06677 0,0.113867 0,0.227722 0,0.34158 0,0.05693 -7.343973,0.05693 -7.343973,0.05693 z m 2.903431,-3.928171 c -1.594039,0 -2.732641,0.967809 -2.903431,2.61878 h 5.806863 c -0.113868,-1.707901 -1.25246,-2.61878 -2.903432,-2.61878 z"
       id="path34"
       style="opacity:0.7;stroke-width:0.5693;enable-background:new" />
  </g>
</svg>
