<?xml version="1.0" encoding="utf-8"?>
<!-- Generator: Adobe Illustrator 22.1.0, SVG Export Plug-In . SVG Version: 6.00 Build 0)  -->
<svg version="1.1" id="Layer_1" xmlns="http://www.w3.org/2000/svg" xmlns:xlink="http://www.w3.org/1999/xlink" x="0px" y="0px"
	 viewBox="0 0 841.9 595.3" style="enable-background:new 0 0 841.9 595.3;" xml:space="preserve">
<style type="text/css">
	.st0{display:none;}
	.st1{clip-path:url(#SVGID_2_);}
	.st2{clip-path:url(#SVGID_2_);fill:#1C75BC;}
</style>
<g id="Layer_3" class="st0">
</g>
<g>
	<defs>
		<rect id="SVGID_1_" y="124.4" width="841.9" height="347.1"/>
	</defs>
	<clipPath id="SVGID_2_">
		<use xlink:href="#SVGID_1_"  style="overflow:visible;"/>
	</clipPath>
	<path class="st1" d="M841.9,124.8c-84.9,0-68.4,333.6-137.4,333.6c-71,0-50.2-330.3-137.4-333.6V138c69,0,52.5,333.6,137.4,333.6
		c87.2,0,66.4-333.6,137.4-333.6V124.8z M151.4,371.3c12.9,55.5,30.1,99.1,61.4,99.1c30.4,0,47.9-43.3,61.1-99.1h-13.2
		c-10.9,49.2-24.1,85.9-47.9,85.9c-22.8,0-36.3-37-47.2-85.9H151.4z M415.2,458c-64.1,0,16.5-217.7-80.6-217.3v13.9
		c80.6,1.3,0,217,80.6,217s0-215.7,80.6-217v-13.9C398.6,240.4,479.2,458,415.2,458 M76,426.6c-7.6,19.5-18.2,31-31,31
		c-12.9,0-23.4-11.6-31-31H0c10.6,27.1,25.1,44.3,44.9,44.3c19.8,0,34.3-17.2,44.9-44.3H76z"/>
	<path class="st2" d="M89.8,470.9c-10.6-27.1-25.1-44.3-44.9-44.3c-19.8,0-34.3,17.2-44.9,44.3h13.9c7.6-19.5,18.2-31,31-31
		c12.9,0,23.4,11.6,31,31H89.8z"/>
	<path class="st2" d="M165.6,470.4c10.9-48.9,24.4-85.9,47.2-85.9c23.8,0,37,36.7,47.9,85.9H274c-13.2-55.8-30.7-99.1-61.1-99.1
		c-31.4,0-48.6,43.6-61.4,99.1H165.6z"/>
	<path class="st2" d="M415.2,253.9c64.1,0-16.5,217.7,80.6,217.3v-13.9c-80.6-1.3,0-217-80.6-217c-80.6,0,0,215.7-80.6,217v13.9
		C431.7,471.6,351.1,253.9,415.2,253.9"/>
	<path class="st2" d="M841.9,458c-71,0-50.2-333.6-137.4-333.6c-84.9,0-68.4,333.6-137.4,333.6v13.2
		c87.2-3.3,66.4-333.6,137.4-333.6c69,0,52.5,333.6,137.4,333.6V458z"/>
</g>
</svg>
