<?xml version="1.0" encoding="utf-8"?>
<!-- Generator: Adobe Illustrator 22.1.0, SVG Export Plug-In . SVG Version: 6.00 Build 0)  -->
<svg version="1.1" id="Layer_1" xmlns="http://www.w3.org/2000/svg" xmlns:xlink="http://www.w3.org/1999/xlink" x="0px" y="0px"
	 viewBox="0 0 841.9 595.3" style="enable-background:new 0 0 841.9 595.3;" xml:space="preserve">
<style type="text/css">
	.st0{display:none;}
	.st1{fill:#F0FFFF;}
	.st2{fill:#A6CFF2;}
	.st3{fill:#949954;}
	.st4{fill:#B0B096;}
	.st5{fill:#7D873D;}
	.st6{fill:#54662B;}
	.st7{fill:#707526;}
	.st8{fill:#666B1A;}
	.st9{fill:#597359;}
	.st10{fill:#264D57;}
	.st11{fill:#2B4026;}
	.st12{fill:#4F570F;}
	.st13{fill:#596314;}
	.st14{fill:#051214;}
	.st15{fill:#96B5D6;}
</style>
<g id="Layer_3" class="st0">
</g>
<g>
	<path class="st1" d="M609.8,0.8C462.9,13.1,315.4,24.9,166.7,35.4V0.8H609.8z"/>
	<path class="st2" d="M609.8,0.8c24.1,3.2,60.9-6.4,76.7,4.9C502.6,15,353.1,34.8,166.7,45.3v-9.9C315.4,24.9,462.9,13.1,609.8,0.8"
		/>
	<path class="st2" d="M627.1,25.5c-0.8,7.1-33.2,10.1-44.6,7.4C595.4,23.3,612.3,30.1,627.1,25.5"/>
	<path class="st2" d="M520.7,40.4c-12.6-7-61.3-1.5-34.7-4.9c9.6-1.2,34-6.5,44.6,4.9h-7.4H520.7z"/>
	<path class="st2" d="M443.9,42.9c-19.3-2.7-30.8,9.9-34.7-2.5C417.5,40.2,440.6,31.8,443.9,42.9"/>
	<path class="st2" d="M404.3,50.3c-8.3,7-13.9,1.3-27.2,2.5C375.3,50,398.7,46.7,404.3,50.3"/>
	<path class="st2" d="M325.1,55.2C338.9,43.2,350.8,55.1,325.1,55.2"/>
	<path class="st3" d="M463.7,75.1c-3.8-8.8,8.4-1.5,7.4-7.4c2.8,1.5,38.3-0.8,14.9,2.5C479,72.2,470.7,73,463.7,75.1"/>
	<path class="st3" d="M634.6,85c2.1-7.3,6.2,3.2,12.4,0c3.8,14.8-13.8,17.8-22.3,12.4c4.3-6.9,6.5-2.3,14.8-2.5
		C640.2,89.2,638.9,85.5,634.6,85"/>
	<path class="st4" d="M686.5,82.5v9.9h-12.4c3-3.6,9.9-3.3,9.9-9.9H686.5z"/>
	<path class="st4" d="M671.7,92.4c-6.8-0.2-5,4.1-9.9,0C659.8,82.8,673.6,82.8,671.7,92.4"/>
	<path class="st3" d="M508.3,97.3c-7.8,12.5-25.8,1.7-44.6,5C469.9,92,494.2,99.7,508.3,97.3"/>
	<path class="st4" d="M686.5,102.3h-17.3c4-9,11.9,0.4,17.3-4.9V102.3z"/>
	<path class="st3" d="M389.5,109.7c-8,1.1-21.4-3.3-22.3,4.9C356.3,106.8,388.5,97.8,389.5,109.7"/>
	<path class="st4" d="M644.5,114.7c-6.3,13.4-28,3.3-47,7.4C606.1,112.6,631.3,119.7,644.5,114.7"/>
	<path class="st4" d="M283,129.5c10.4-2,16.1-8.7,27.2-9.9c-1.9,14.3,15.5,1.8,17.3,7.4c-7.7,10.3-34.3,7.3-52,7.4
		c0-3.3,4.3-2.3,4.9-4.9H283z"/>
	<path class="st5" d="M290.5,144.4c2.6,9.2-6.1,7.1-4.9,14.8c-9.9,1.6-10-6.5-19.8-4.9C266.7,144.3,283,140,290.5,144.4"/>
	<path class="st3" d="M671.7,159.2c-11.3-1.1-21-3.8-34.7-2.5C636.5,172,681.4,159.8,671.7,159.2 M686.5,161.7
		c-18.4,1.4-41,11.8-59.4,4.9c6.2-25.1,37.6-9.8,59.4-9.9V161.7z"/>
	<path class="st3" d="M419.2,159.2c-2.2,7.7-19.9-0.1-19.8,9.9c-7-0.5-10.5-4.3-9.9-12.4C396.7,154.3,415.9,150.7,419.2,159.2"/>
	<path class="st6" d="M562.8,159.2H543C528.2,157.2,562.2,153.7,562.8,159.2"/>
	<path class="st4" d="M637,156.7c13.7-1.3,23.3,1.4,34.7,2.5C681.4,159.8,636.5,172,637,156.7"/>
	<path class="st7" d="M609.8,164.2c8,1.2-12.9,6.3-9.9,2.5c-0.1-3.2-3.2-3.4-2.5-7.4C605,157.4,600.4,167.7,609.8,164.2"/>
	<path class="st5" d="M243.4,166.6c-0.3,10.4-19,2.5-27.2,4.9C220.8,167,239.5,163.7,243.4,166.6"/>
	<path class="st4" d="M327.6,181.5c-1.3,2-2.6,4-2.5,7.4c9.2,1.8,10.6-4.2,19.8-2.5c-16.2,14.5-47.3,0.1-66.8,12.4v9.9
		c-5.7-0.2-17.1-4.8-9.9,2.5c-4,7.7-7.8-5.1-12.4-5C279,194.6,295.5,178.3,327.6,181.5"/>
	<path class="st4" d="M171.6,186.4c2.6-5.6,15.6-0.9,22.3-2.5C194,194.5,176.2,187,171.6,186.4"/>
	<path class="st6" d="M538,191.4h14.8C608.7,190.8,532.3,199.2,538,191.4"/>
	<path class="st7" d="M535.5,201.3c2.7,8.1-25.7,2.6-34.7,0c2.6-2.3,0.8-9.1,7.4-7.4C511.1,202.7,529.7,195.6,535.5,201.3"/>
</g>
<rect x="597.4" y="216.2" class="st3" width="17.3" height="4.9"/>
<g>
	<path class="st3" d="M664.3,216.2c-8.4,8.3-30.4,7.7-34.7,2.5C632.6,222.3,650.8,212.9,664.3,216.2"/>
	<path class="st3" d="M347.4,218.6h2.5c17.1,4.4-9.8,9.3-14.9,4.9C333.9,216.7,348.5,225.5,347.4,218.6"/>
	<path class="st6" d="M389.5,228.5c3.4,0.1,5.4-1.2,7.4-2.5c18.8,8.1-16.1,2.4-19.8,9.9h-2.5h-9.9v-2.5
		C370.2,229,382.4,231.3,389.5,228.5"/>
	<path class="st8" d="M674.2,226.1c3.8,7.6-16.2,7.6-12.4,0H674.2z"/>
	<path class="st9" d="M443.9,233.5c0.6-3.9,5.4-1.7,7.4,0c7.7-0.2,11.8,3,17.3,4.9v9.9c-4.7-0.6-5.5,2.8-9.9,2.5h-2.5
		c-0.8-5.7,7.1-2.7,7.4-7.4c-3.3-5-11-5.5-17.3-7.4C444.9,235.8,443.5,235.6,443.9,233.5"/>
	<path class="st3" d="M590,233.5c14.3-3.3,32.9-2.1,52,0C628,239.4,602.7,240,590,233.5"/>
	<path class="st5" d="M387,236c5-5.7,20.6-0.9,29.7-2.5C411.7,239.2,396.2,234.4,387,236"/>
	<path class="st5" d="M374.6,236h2.5h7.4c-5.4,6.9-19.1,5.6-24.8,12.4C351.3,240.5,371,239.8,374.6,236"/>
	<path class="st4" d="M166.7,258.2v-5c13.2-3.2,24.1-4.8,37.1-2.5C193.8,255.6,182.8,259.5,166.7,258.2"/>
	<path class="st3" d="M275.6,268.1h7.4c-6.1,5.9-22.7,1.4-19.8-9.9C270.3,255.1,277.4,256.3,275.6,268.1"/>
	<path class="st7" d="M580.1,263.2c1.7,4.9,14.7-1.5,12.4,7.4C585.4,271.1,579,270.9,580.1,263.2"/>
	<path class="st3" d="M473.7,270.6c-9.1,1.1-19.5,10.2-27.2,5C450,263.7,467.3,263.1,473.7,270.6"/>
	<path class="st3" d="M424.1,273.1c1-5.5,13.1-1.9,14.8,0C438,278.6,425.9,275,424.1,273.1"/>
	<path class="st3" d="M681.6,270.6c-3,6.9-15.2,4.6-24.8,5C658.1,266.9,673,271.9,681.6,270.6"/>
	<path class="st10" d="M312.7,275.6c0.5-1.9,2.1-2.9,4.9-2.5c2.3,6.8,7.7-3.5,14.9,0c0,3.3-4.3,2.3-5,5
		C321.5,278.4,315.7,278.4,312.7,275.6"/>
	<path class="st6" d="M245.9,280.5V278H288c-0.1,1.5-0.4,2.9-2.5,2.5H245.9z"/>
	<path class="st7" d="M401.9,283c0.1-1.5,0.4-2.9,2.5-2.5h9.9c-0.1,3.2-3.2,3.4-2.5,7.4C405,289.7,406.8,283,401.9,283"/>
	<path class="st5" d="M646.9,280.5c7.6-1.8,4.8,6.8,12.4,4.9c-5.3,5.6-34.7,14.9-37.1,0C635.5,286.1,641.1,290,646.9,280.5"/>
	<path class="st8" d="M669.2,283c6.5-0.8,6.4,5.2,7.4,9.9h-9.9C665.7,287.7,668.4,286.3,669.2,283"/>
	<path class="st11" d="M404.3,290.4h39.6C464.1,293.4,399.8,295.2,404.3,290.4"/>
	<path class="st10" d="M493.5,295.4c-0.5-1.9-2.1-2.9-4.9-2.5c3.8-4.2,42-4.9,27.2,2.5h-2.5H493.5z"/>
	<path class="st9" d="M448.9,297.8c7.5-5.7,25.5-0.9,37.1-2.5h7.4h19.8c-0.1,1.5-0.4,2.9-2.5,2.5H448.9z"/>
	<path class="st9" d="M446.4,297.8c-3.5,4.1-23.8,4.1-27.2,0H446.4z"/>
	<path class="st6" d="M535.5,300.3c1.1-5.5,12.2-1,17.3-2.5c0,4.1-6.9,1.4-7.4,5C541.1,303,537.7,302.2,535.5,300.3"/>
	<path class="st10" d="M562.8,300.3c2.3-6.7,7.7,3.5,14.8,0c-0.1,3.2-3.2,3.4-2.5,7.4c-7.6,1.9-3-8.5-12.4-4.9V300.3z"/>
	<path class="st7" d="M166.7,300.3c12.1-1.7,16.4,4.4,24.8,0c1.2,11.1-19.3,0.5-22.3,7.4c0.2,3.9,6.3,1.9,4.9,7.4h-7.4V300.3z"/>
	<path class="st6" d="M411.8,310.2c-50.3-1.6-107.3,3.3-153.5-2.5h153.5V310.2z"/>
</g>
<polygon class="st6" points="495.9,307.7 478.6,307.7 478.6,310.2 510.8,310.2 510.8,307.7 "/>
<g>
	<path class="st12" d="M510.8,310.2v-2.5c7.5,1.6,21.3-3.2,24.8,2.5H510.8z"/>
	<path class="st13" d="M622.2,310.2c3.4-0.1,5.4,1.2,7.4,2.5c-1.7,8.4-8,9.2,2.5,12.4c-4.6,7.6-11.8-2.9-19.8,0h-4.9
		C604.6,312.4,624.9,322.8,622.2,310.2"/>
	<path class="st10" d="M483.6,320.1h-12.4c-7.7-7.7,8.4-4.2,14.9-4.9C486,317.7,484,318.1,483.6,320.1"/>
	<path class="st10" d="M575.1,315.2c-21.5,5.8-53.6,0.8-79.2,2.5c-5.6-4.5,19.1-2.4,32.2-2.5C544.1,315.1,564.1,315.2,575.1,315.2"
		/>
	<path class="st9" d="M317.7,320.1c-10.8-1.6-28,3.2-34.7-2.5h34.7V320.1z"/>
	<path class="st6" d="M317.7,320.1v-2.5c8.3,1.6,23-3.2,27.2,2.5h-12.4H317.7z"/>
	<path class="st3" d="M275.6,322.6c0.9,7.9-23.7,12.6-24.8,2.5C261,322.4,263.1,324.7,275.6,322.6"/>
	<path class="st13" d="M580.1,327.5c2.3,8.9-9.8,3.5-14.8,5C562.9,323.5,575,329,580.1,327.5"/>
	<path class="st7" d="M686.5,342.4v2.5c-6.2,2.1-13.3,3.2-22.3,2.5c1.7-10-10.4-6.1-9.9-14.8c3.3,0,2.3-4.3,5-4.9
		C660.9,334.7,671.5,341.9,686.5,342.4"/>
	<path class="st6" d="M248.4,339.9c-8-2.9,6.6-2.8,9.9-2.5h7.4c3.6,1.4,12.8-2.9,12.4,2.5H248.4z"/>
	<path class="st6" d="M325.1,339.9c1.7-4.7,31.1-3.3,24.8,0H325.1z"/>
	<path class="st8" d="M384.5,337.4c-5.2,7.8-10.1,1.5-17.3,5C367.6,335.3,377.5,337.9,384.5,337.4"/>
	<path class="st3" d="M414.2,342.4c1.2-3.4,22.3-6,19.8,2.5C426.9,344.6,417.8,346.2,414.2,342.4"/>
	<path class="st10" d="M273.1,349.8c7-4.5,30.6-14.9,34.7,0H273.1z"/>
	<path class="st14" d="M332.6,344.9c0.3-5.5,10.5-1.1,14.8-2.5C346.6,355.6,339.1,345.9,332.6,344.9"/>
	<path class="st10" d="M342.5,354.8c2.2-3.6,3.7-7.8,9.9-7.4v9.9C349,356.5,347.6,353.7,342.5,354.8"/>
	<path class="st14" d="M362.3,349.8c3.1-7.5,8.5,2.7,14.8,0c6.4,3.4-12.3,2.4-14.8,4.9C363.8,352.6,365.2,350.3,362.3,349.8"/>
	<path class="st6" d="M186.5,354.8c21.4,0.8,38.7-2.5,56.9-4.9c0.5,2,2.5,2.5,2.5,4.9c-3,3.6-9.4,3.8-12.4,7.4
		c-18.8,12.7-46.3,7.3-66.8,0v-4.9C176.4,356.9,183.9,356.1,186.5,354.8"/>
	<path class="st9" d="M243.4,349.8h17.3v2.5c-2.9,2.9-8.7,2.8-14.8,2.5C245.9,352.3,243.9,351.8,243.4,349.8"/>
	<path class="st5" d="M602.4,369.6c1.1-9.6,5.5-15.9,14.8-17.3C611.7,357.5,614.1,370.6,602.4,369.6"/>
	<path class="st5" d="M594.9,364.7c-8.7-3.6-18.3-6.4-32.2-4.9C566.7,355.3,599.2,346.8,594.9,364.7"/>
	<path class="st8" d="M681.6,367.1c-9.1,12.1-16.6,2.1-32.2,2.5C657,354.4,668.3,373.9,681.6,367.1"/>
	<path class="st14" d="M300.4,377.1h24.8c3.4,6.5,21-1.2,24.8,4.9h2.5c-0.5,2.8-2.7,3.9-5,5c-13.2,3.7-38.4,1.7-54.5-5
		C293,377.9,299.8,380.6,300.4,377.1"/>
	<path class="st8" d="M429.1,377.1c3.2,0.1,3.4,3.2,7.4,2.5c0.7,6.5-3.4,8.1-9.9,7.4C426.4,382.6,427.2,379.3,429.1,377.1"/>
	<path class="st5" d="M684.1,382c-4.5,6.3-12.1,9.3-19.8,12.4c-4.8-7.5-12.3-5-7.4-17.3C667.6,377,679.8,375.6,684.1,382"/>
	<path class="st13" d="M186.5,394.4c0.1-10,14.5-3.8,7.4-14.8c7.9-2.2,5.1,6.4,9.9,7.4C201.3,392.7,195.3,394.9,186.5,394.4"/>
	<path class="st3" d="M223.6,384.5h2.5c2.5,0,2.9,2,4.9,2.5c-3.6,3.8-9.7,5.2-17.3,4.9C214.4,386.8,223,389.6,223.6,384.5"/>
	<path class="st5" d="M587.5,416.7c-0.3-14.8,19.1-10,12.4-24.8c4.9,1.7,5.7,7.5,9.9,9.9C605.7,410.1,598.2,414.9,587.5,416.7"/>
	<path class="st5" d="M436.5,394.4c-0.3,6.3-8.3,4.9-14.8,4.9C421.9,393,430,394.4,436.5,394.4"/>
	<path class="st6" d="M166.7,396.9h19.8c-6.1,6.3-10.9,5.7-19.8,4.9V396.9z"/>
	<path class="st3" d="M330.1,396.9c-5.3,12.1-9.6,25.1-29.7,22.3c9.5-6.3,4.1-3.9,2.5-14.9C314.8,404.7,315.3,393.6,330.1,396.9"/>
	<path class="st6" d="M491,396.9c5.4,1.5,11.4,13.3,2.5,14.8c-10.1,0.7,0.4-3.4-2.5-9.9V396.9z"/>
	<path class="st5" d="M570.2,409.2h-7.4c-1-5.2,1.7-6.6,2.5-9.9C569.6,399.9,570.9,403.6,570.2,409.2"/>
	<path class="st12" d="M540.5,401.8c5.7,0.7,5.7,6.6,2.5,9.9h9.9c4.4,6.5,17.9,6.5,22.3,0c9.3,11.1-8.2,11.9-14.8,14.8
		c-2.4,9.9,7.4,7.5,4.9,17.3c5.7-0.8,9.5,0.4,12.4,2.5c4.4-0.6,5.6-4.3,5-9.9c2.2,8.5,6.6,14.9,9.9,22.3
		c-16.1-4.5-32.5-8.7-44.6-17.3c5.4-11.1-4.3-19.9-9.9-27.2c-0.5-1.9-2.1-2.9-4.9-2.5C533.8,406.7,538,405.1,540.5,401.8"/>
	<path class="st5" d="M443.9,406.8c5.2-1,6.6,1.7,9.9,2.5c-3.6,3.8-9.7,5.2-17.3,4.9C435.5,408.2,447.8,415.6,443.9,406.8"/>
	<path class="st5" d="M637,414.2c-0.3,7.1-10.3,4.5-17.3,4.9C625.2,416.9,631.1,408.6,637,414.2"/>
	<path class="st5" d="M614.7,424.1c1,9.2-11.9,4.6-12.4,12.4C596.9,432.4,604.5,420.6,614.7,424.1"/>
	<path class="st7" d="M572.7,426.6c4-0.7,4.3,2.3,7.4,2.5c-0.9,5.7-1.6,11.6-9.9,9.9C569.4,433.2,570.6,429.4,572.7,426.6"/>
	<path class="st8" d="M340,443.9c-0.5,1.9-2.1,2.9-4.9,2.5c-0.4-2.9-3.9-2.7-7.4-2.5c-0.9,12.3-22.3,4.1-22.3,17.3
		c-32.2,0.3-52.4,33.1-96.5,29.7c34.1-4.6,55.2-22.4,81.7-34.7c0.6-4.7-2.8-5.5-2.5-9.9C302.1,435.8,328.8,441.2,340,443.9"/>
	<path class="st7" d="M686.5,463.7v7.4h-2.5c-4.2-8.1-14-3.3-22.3-2.5c-11.7-15.3,2.4-14.2-7.4-27.2c7.6-1.8,7.3,4.3,14.9,2.5
		C671.7,453.7,678.3,459.5,686.5,463.7"/>
	<path class="st8" d="M515.7,446.4c5.8,0.8,9.3,3.9,17.3,2.5c-0.6,6.8-9.2,5.6-12.4,9.9C517,456.6,517.1,450.8,515.7,446.4"/>
	<path class="st7" d="M446.4,461.2v7.4c-9.2,1.8-10.6-4.2-19.8-2.5c3.5-5.4,13.6-12.4,19.8-7.4V461.2z"/>
	<path class="st7" d="M543,471.1c0.5,7.4-8.8,8.7-12.4,4.9C532.7,472.4,536.8,470.7,543,471.1"/>
	<path class="st12" d="M552.9,486h2.5c2.1,6.1,17.2-0.7,19.8,4.9c-1,3.1-3.2,5.1-7.4,5c-7.6,1.8-9-2.5-14.8-2.5
		C551.9,489.9,549.9,489.2,552.9,486"/>
	<path class="st12" d="M273.1,490.9c-0.6,7.7-12.3,4.2-19.8,4.9C251.8,486.1,266.9,493,273.1,490.9"/>
	<path class="st12" d="M216.2,500.8c-1.8,5.6-13.9,1-19.8,2.5C196.6,495.8,212.6,497.5,216.2,500.8"/>
	<path class="st12" d="M265.7,510.7c-14.2,2.6-18.8-4.3-29.7-4.9C241.3,500.3,271.4,491.3,265.7,510.7"/>
	<path class="st12" d="M166.7,500.8c12.1-2.2,16.4,3.4,24.8,4.9c-3.4,5.6-17.2,0.9-24.8,2.5V500.8z"/>
	<path class="st12" d="M305.3,510.7c5.7-0.8,9.5,0.4,12.4,2.5C314.1,517.2,304.1,521,305.3,510.7"/>
	<path class="st6" d="M629.6,515.7H642C645.8,523.3,625.8,523.3,629.6,515.7"/>
	<path class="st7" d="M283,530.5c-12.1,9.3-31.9,0.8-52,4.9C242,518.2,263.9,525.6,283,530.5"/>
	<path class="st8" d="M431.6,525.6c1.5,0.1,2.9,0.4,2.5,2.5c-2.2,1.1-4.4,2.2-5,4.9c5.7,0.8,9.5-0.4,12.4-2.5h2.5
		c-0.1,8.3-29.3,18.1-29.7,2.5c11.5,0.9,12.5,5.8,9.9-7.4H431.6z"/>
	<path class="st7" d="M434,528.1c4.7,0.6,5.5-2.8,9.9-2.5c0,2.5-2,2.9-2.5,5c-2.9,2.1-6.6,3.3-12.4,2.5
		C429.6,530.2,431.8,529.2,434,528.1"/>
	<path class="st8" d="M451.4,530.5c2.9,1.2,5.6,2.6,7.4,4.9c-7.3,2.1,3.2,6.2,0,12.4c-3.7-1.3-6.2-3.7-9.9-4.9
		C446.8,535.9,452.4,536.5,451.4,530.5"/>
	<path class="st5" d="M166.7,533h9.9c-7.4,7.4,6.2,6.3,2.5,17.3c-6,1-5.4-4.5-12.4-2.5V533z"/>
	<path class="st13" d="M265.7,540.4c14-0.8,25.9,0.5,27.2,12.4c-5-5.2-20.1,4.9-27.2-2.5V540.4z"/>
	<path class="st7" d="M206.3,542.9c8.6-2,9.5,3.7,17.3,2.5C223,549,203.3,551.1,206.3,542.9"/>
	<path class="st13" d="M557.8,560.2c-5.5,1.1-1,12.2-2.5,17.3c-18.7,0-23.2,14.5-37.1,7.4c14-4.3,19.5-16.3,22.3-29.7
		c2.3,2.6,9.1,0.8,7.4,7.4c3.9-1.1,2.1-7.8,9.9-5V560.2z"/>
	<path class="st7" d="M491,557.8c8.4-0.2,7.3,9.2,7.4,17.3h-9.9C486.5,566.5,492.2,565.6,491,557.8"/>
	<path class="st5" d="M208.8,560.2c12.3,4-13.4,8.6-7.4,22.3c-5.9-1.5-18,3.1-19.8-2.5C183.6,566.4,204.6,571.7,208.8,560.2"/>
	<path class="st7" d="M503.4,580c5.8,3.7,3.8,6.1,2.5,12.4c-2.2-1.9-5.6-2.7-9.9-2.5v-7.4C499.4,582.7,502.9,582.9,503.4,580"/>
	<path class="st13" d="M557.8,587.5c-6.8-0.2-5,4.1-9.9,0c-0.7-6.5,3.4-8.1,9.9-7.4V587.5z"/>
	<path class="st12" d="M590,587.5c-0.1-3.2-3.2-3.4-2.5-7.4h7.4c10.9-1,16.8,3,17.3,12.4C602.8,592.8,594.2,592.3,590,587.5"/>
	<path class="st12" d="M265.7,594.9H236c7.7-8.5,32.9-11,42.1-9.9C276.3,590.6,264,585.7,265.7,594.9"/>
	<path class="st12" d="M580.1,582.5c-0.5,7-4.3,10.5-12.4,9.9C566.1,583.4,572.8,582.7,580.1,582.5"/>
	<path class="st12" d="M325.1,594.9h-19.8c-1.5-9.8,13.6-2.9,19.8-4.9V594.9z"/>
	<path class="st15" d="M223.6,67.6c-1.5-0.1-2.9-0.4-2.5-2.5c1.6-5,11.6-1.6,12.4-7.4h-14.8C216.7,63.3,221.4,74.3,223.6,67.6
		 M300.4,67.6c0.1-12.3,18.2-6.5,22.3-14.9c-16.9,2.1-36.7,1.3-47,9.9c6.6,1.7,21.9-6.8,24.8,2.5C299,65.1,297.6,67.2,300.4,67.6
		 M325.1,55.2C350.8,55.1,338.9,43.2,325.1,55.2 M377.1,52.8c13.3-1.1,18.9,4.5,27.2-2.5C398.7,46.7,375.3,50,377.1,52.8
		 M409.3,40.4c3.8,12.3,15.3-0.2,34.7,2.5C440.6,31.8,417.5,40.2,409.3,40.4 M582.6,33c11.4,2.6,43.8-0.3,44.6-7.4
		C612.3,30.1,595.4,23.3,582.6,33 M686.5,5.7V28c-54.2,10.9-107.9,11-163.4,12.4h7.4C520,29,495.7,34.2,486,35.4
		c-26.7,3.4,22-2.1,34.7,4.9c-34.8,1.6-62.4,4.5-86.6,7.4c-8.7,1.1-5.1,10.7-7.4,12.4c-9.5,0.5-0.9-2-2.5-7.4
		c-84.8,18.8-188.6,20.3-257.4,24.8V45.3C353.1,34.8,502.6,15,686.5,5.7"/>
	<path class="st3" d="M686.5,55.2c-3.1-6.8-15.4-4.4-17.3-12.4c11.1-3.7,7.6,7.3,17.3,5V55.2z"/>
	<path class="st3" d="M193.9,184c-6.7,1.5-19.6-3.1-22.3,2.5C176.2,187,194,194.5,193.9,184 M216.2,171.6c8.2-2.5,26.9,5.5,27.2-4.9
		C239.5,163.7,220.8,167,216.2,171.6 M265.7,154.3c9.9-1.6,10,6.5,19.8,4.9c-1.2-7.8,7.6-5.6,5-14.8
		C283,140,266.7,144.3,265.7,154.3 M597.4,122.1c19.1-4.1,40.7,6,47-7.4C631.3,119.7,606.1,112.6,597.4,122.1 M661.8,92.4
		c4.9,4.1,3.1-0.2,9.9,0C673.6,82.8,659.8,82.8,661.8,92.4 M268.2,114.7c4.8-6,13.5,14.5,19.8,7.4c3.6-9.4-11.1-0.5-7.4-9.9
		c7.5,3.1,9.6,1.9,14.8-2.5c8.3,0,8.5,8,17.3,7.4c3.4-0.8,2.1-6.2,2.5-9.9c9,5.2,11.4,3.3,22.3,0c1.2,5.3-3.5,4.7-7.4,4.9
		c2.8,9,26.2-2.7,19.8,12.4c5-2.4,5.3-9.5,4.9-17.3c3.6,3.8,8.2,6.6,9.9,12.4c22.5-12.2,46-8,64.4,2.5c6.3-1.7-9-8.2,2.5-9.9
		c11.6-0.7-3.2,9.6,7.4,9.9c0.2-7.4,20.4-12.6,22.3,0c4.3-1.5,17.4-16.7,17.3,0c6.4-4.5,7.5,1.1,14.8-2.5c-8.2-4.9-0.5-3.9,0-12.4
		c8,0.2,1.7,14.8,12.4,12.4c8.7-0.7-8.7-6.7,0-7.4c3.7-3.9,11.1-2.8,9.9,5c9.8-4.2,24.4-3.6,29.7-12.4c7.7-0.3,7.1,7.8,17.3,5
		c-2.1-14.3-19.2-9.7-27.2-12.4c17.9-5.8,46.4,2.8,61.9-9.9c6,2.5-4.9,10.9,7.4,9.9c-7.7,9.4-20.2-5.6-34.7,2.5
		c-3.7,2.1-3.6,8-4.9,12.4c27.3,9.4,68.4-10.2,96.5-12.4c0.4-5.4-8.8-1.1-12.4-2.5c-4-9.7,10.7-0.9,9.9-7.4
		c-2.4-6.9-6.6,3.6-9.9-2.5c5.6-9.2,27.8-1.9,29.7-14.9c-1.9-0.9-23.2-0.2-24.8,7.4c-4.6-2-9.1-4.1-14.9-5
		c12.1-12.4,25.9-3.1,47-9.9v17.3h-2.5c0,6.6-6.9,6.3-9.9,9.9h12.4v5c-5.4,5.3-13.3-4-17.3,4.9h17.3v32.2c-2.9-0.4-4.4,0.5-5,2.5
		c-3.3-2.5-4.9-6.7-9.9-7.4c-31.3,15.1-73.5-3-99-7.4c-8.3,2.3-1.2,4.6-2.5,12.4c-41.1,5.6-93.4,22.3-131.2,2.5
		c-3.7,1.1,1,3.2,0,7.4c-8.6,1.9-10.9-2.3-12.4-7.4c-18.7,6.3-38.6,23.8-59.4,19.8c0.6,4.4,4.3,5.6,9.9,4.9
		c-57.1-6-125.1,9-173.3,27.2c8.5,4.3,41.4,10.4,34.7-4.9c11.3,0.4,9.7,2,19.8,0v2.5c-8.6,5.4-16.3,11.7-27.2,14.8
		c-4.4-0.6-12.4,2.5-9.9-4.9c-19.8,2.3-35.2,1-54.5,7.4v-54.5h7.4c-0.8-11.3-2.5-13.7,2.5-22.3c3.7,2.9,10.1,3.1,12.4,7.4
		c1.2,5.3-3.5,4.7-7.4,4.9c0,4.9,6.8,3.2,4.9,9.9c11-3,25.4-2.7,39.6-2.5c1.5-6.5,4.9-8.5,2.5-17.3c9.9,2.5,18.5,6.3,22.3,14.9
		c7.1-3.7,4.4-17,19.8-12.4c-5.5-13.4-35.7-2.3-44.6-12.4c9.5-8.2,27.2,5.5,39.6-4.9c-0.3,4.7-8.2,1.7-7.4,7.4
		c10-7.4,4.6,10.9,22.3,7.4c-0.6,2.7-4.9,1.7-5,5c17.7-0.2,44.3,2.9,52-7.4c-1.9-5.6-19.3,6.8-17.3-7.4c-11.2,1.2-16.8,7.9-27.2,9.9
		c3.1-8-8-1.9-4.9-9.9c-8.8,0.3,5.3,8.2-2.5,7.4c-9.7,0.7-7.9-7.7-2.5-9.9C271.1,116.7,270.7,114.7,268.2,114.7"/>
	<path class="st4" d="M211.3,122.1c3.2,1-5.8,10.5-7.4,14.9c8.8,0.6,14.8-1.7,17.3-7.4C215.7,130.6,215,114.6,211.3,122.1
		 M191.5,122.1c1.1,5.5,12.2,1,17.3,2.5C210.1,118.1,190.6,112.3,191.5,122.1 M367.2,114.7c0.9-8.2,14.3-3.9,22.3-5
		C388.5,97.8,356.3,106.8,367.2,114.7 M463.8,102.3c18.7-3.3,36.7,7.6,44.6-4.9C494.2,99.7,469.9,92,463.8,102.3 M424.1,102.3
		c6.3-0.3,12.7-0.5,12.4-7.4C430,94.9,421,92.5,424.1,102.3 M639.5,94.9c-8.4,0.1-10.6-4.5-14.9,2.5c8.5,5.4,26.1,2.4,22.3-12.4
		c-6.1,3.2-10.3-7.3-12.4,0C638.9,85.5,640.2,89.2,639.5,94.9 M508.3,75.1c-7.2,2.2-7.6,2.2-14.8,0c0.1,3.4-1.2,5.4-2.5,7.4
		c11.7,5.2,13.5,5,22.3,12.4c-1.7-7.6-1.7-4.8,0-12.4C503.2,83.2,507.7,81.6,508.3,75.1 M543,72.6c-9.8-1.1-13.4,5.7-17.3-2.5
		c-1.5,6.7-10.3,6.2-9.9,14.9c3.6,1.4,12.8-2.9,12.4,2.5c-4.2,1,0.5,3.2,0,7.4c-6.1-0.4-10.3,1.3-12.4,4.9c7.8-1.2,5.6,7.6,14.9,5
		c4.6-9.6-2.6-16.2,2.5-22.3c7.8-1.2,6.5,8.5,12.4,2.5C546.2,79.2,545,75.4,543,72.6 M617.2,82.5c1.1-4.7,5.3-6.2,5-12.4
		c-3.7-3.9-10.4,0.1-12.4,5C615.5,74.3,612.5,82.2,617.2,82.5 M486,70.1c23.5-3.2-12.1-1-14.8-2.5c1,5.9-11.3-1.4-7.4,7.4
		C470.7,73,479,72.2,486,70.1 M686.5,65.2c-21.2,6.8-34.9-2.5-47,9.9c5.8,0.8,10.2,3,14.8,4.9c1.5-7.6,22.8-8.4,24.8-7.4
		c-1.9,13-24.1,5.6-29.7,14.9c3.3,6.1,7.5-4.5,9.9,2.5c0.8,6.6-13.9-2.3-9.9,7.4c3.6,1.4,12.8-2.9,12.4,2.5
		c-28.1,2.2-69.3,21.8-96.5,12.4c1.4-4.4,1.3-10.3,5-12.4c14.5-8.1,27,7,34.7-2.5c-12.3,1-1.4-7.4-7.4-9.9
		c-15.5,12.7-43.9,4.1-61.9,9.9c8,2.6,25.1-1.9,27.2,12.4c-10.3,2.8-9.6-5.2-17.3-4.9c-5.3,8.7-19.9,8.1-29.7,12.4
		c1.2-7.7-6.2-8.9-9.9-5c-8.7,0.7,8.7,6.7,0,7.4c-10.6,2.4-4.3-12.2-12.4-12.4c-0.5,8.5-8.2,7.4,0,12.4c-7.4,3.5-8.4-2-14.9,2.5
		c0-16.7-13-1.5-17.3,0c-1.9-12.6-22.1-7.4-22.3,0c-10.6-0.3,4.2-10.6-7.4-9.9c-11.4,1.7,3.8,8.2-2.5,9.9
		c-18.4-10.4-41.9-14.7-64.4-2.5c-1.7-5.7-6.3-8.5-9.9-12.4c0.4,7.8,0.1,14.9-5,17.3c6.4-15-17-3.4-19.8-12.4
		c3.9-0.2,8.6,0.3,7.4-4.9c-10.9,3.3-13.3,5.2-22.3,0c-0.4,3.7,0.9,9.1-2.5,9.9c-8.9,0.6-9.1-7.4-17.3-7.4
		c-5.2,4.4-7.3,5.6-14.9,2.5c-3.6,9.4,11.1,0.5,7.4,9.9c-6.2,7-15-13.4-19.8-7.4h-2.5c-12.4,10.5-30.1-3.2-39.6,4.9
		c8.9,10.1,39-1.1,44.6,12.4c-15.4-4.7-12.7,8.7-19.8,12.4c-3.8-8.6-12.4-12.3-22.3-14.9c2.4,8.8-1,10.8-2.5,17.3
		c-14.2-0.2-28.6-0.5-39.6,2.5c1.8-6.8-4.9-5-5-9.9c3.9-0.2,8.6,0.3,7.4-4.9c-2.3-4.3-8.7-4.5-12.4-7.4c-5,8.5-3.3,11-2.5,22.3h-7.4
		v-24.8c9.9,2.1,18.3-3.7,22.3,0c-5.1-7.1-12.7-6.2-22.3-5v-12.4c2.5-1.6,2.6-5.7,7.4-5c-6.6,6.4,4.3,4,7.4,7.4
		c-0.3-14.8,9.9,4.3,14.9-9.9c-3.8-7.8-15.9-3.2-17.3,5c-3-2.8-4.5-7.1-12.4-5V77.5c68.9-4.4,172.6-5.9,257.4-24.8
		c1.6,5.4-7,7.9,2.5,7.4c2.4-1.7-1.2-11.3,7.4-12.4c24.3-3,51.8-5.9,86.6-7.4h2.5C578.7,39,632.3,38.9,686.5,28v19.8
		c-9.7,2.3-6.2-8.6-17.3-5c2,7.9,14.2,5.6,17.3,12.4V65.2z"/>
	<path class="st3" d="M166.7,119.6c9.6-1.2,17.2-2.1,22.3,4.9c-4-3.7-12.4,2.1-22.3,0V119.6z"/>
	<path class="st2" d="M300.4,65.2c-2.9-9.3-18.1-0.8-24.8-2.5c10.4-8.6,30.1-7.8,47-9.9c-4,8.3-22.2,2.6-22.3,14.9
		C297.6,67.2,299,65.1,300.4,65.2"/>
	<path class="st2" d="M218.7,57.7h14.8c-0.8,5.8-10.8,2.4-12.4,7.4c-0.5,2.1,1,2.3,2.5,2.5C221.4,74.3,216.7,63.3,218.7,57.7"/>
	<path class="st5" d="M389.5,156.7c-0.6,8.1,2.9,11.9,9.9,12.4c-0.1-10,17.6-2.2,19.8-9.9C415.9,150.7,396.7,154.3,389.5,156.7
		 M258.3,186.4V184c-10.1,2.1-8.5,0.4-19.8,0c6.7,15.4-26.1,9.2-34.7,5c48.2-18.2,116.2-33.2,173.3-27.2c-5.6,0.7-9.3-0.6-9.9-5
		c20.8,4,40.7-13.5,59.4-19.8c1.5,5.1,3.8,9.4,12.4,7.4c1-4.3-3.7-6.3,0-7.4c37.8,19.9,90.1,3.1,131.2-2.5
		c1.3-7.8-5.8-10.1,2.5-12.4c25.5,4.4,67.7,22.5,99,7.4c5,0.7,6.6,5,9.9,7.4c0.5-1.9,2.1-2.9,4.9-2.5v22.3
		c-21.8,0.1-53.2-15.2-59.4,9.9c18.4,6.9,41-3.5,59.4-4.9v2.5c-20.5,9.3-49.6,9.8-69.3,19.8c-9.7,0.2-18.6,1.2-24.8,5h-27.2
		c17.5-8,49.7-1.5,61.9-14.9c-4.9-10.1-22.8,1.5-37.1-2.5c0.4-4.6,8.4-1.5,9.9-5c-3,3.8,17.9-1.2,9.9-2.5c0.9-3.2,4.4-3.9,5-7.4
		c-41-1.9-103.2-9.5-141.1,7.4c-2.8,7.1-5.2,14.6-9.9,19.8c-9.8-1.6-9.9,6.6-19.8,5c4.2-4.9,11.5-6.6,19.8-7.4
		c-5.6-6.8-20.1-4.6-32.2-5c-4-19.6-28.1-2.2-39.6,0c0.2,12.2,17.5,7.2,24.8,12.4c-26.6,2.4-27.8-17.3-54.5-19.8
		c-31.3-3-75.6,1.5-99,9.9c-1.2,6.2,12.3-6.9,9.9,4.9C267,183.6,261.2,183.6,258.3,186.4"/>
	<path class="st3" d="M609.8,75.1c2-4.9,8.7-8.9,12.4-4.9c0.4,6.2-3.9,7.7-5,12.4C612.5,82.2,615.5,74.3,609.8,75.1"/>
	<path class="st3" d="M545.4,85c-5.8,6.1-4.6-3.7-12.4-2.5c-5.1,6.1,2.1,12.7-2.5,22.3c-9.3,2.6-7.1-6.1-14.9-5
		c2.1-3.7,6.2-5.3,12.4-4.9c0.5-4.2-4.2-6.4,0-7.4c0.4-5.4-8.8-1.1-12.4-2.5c-0.4-8.7,8.4-8.1,9.9-14.8c4,8.2,7.5,1.4,17.3,2.5
		C545,75.4,546.2,79.2,545.4,85"/>
	<path class="st3" d="M513.3,82.5c-1.7,7.6-1.7,4.8,0,12.4c-8.8-7.4-10.5-7.2-22.3-12.4c1.3-2,2.6-4,2.5-7.4c7.2,2.2,7.6,2.2,14.9,0
		C507.7,81.6,503.2,83.2,513.3,82.5"/>
	<path class="st3" d="M436.5,94.9c0.4,7-6.1,7.1-12.4,7.4C421,92.5,430,94.9,436.5,94.9"/>
	<path class="st3" d="M166.7,99.8c7.9-2.1,9.4,2.2,12.4,4.9c1.4-8.1,13.5-12.7,17.3-4.9c-5,14.2-15.2-4.9-14.9,9.9
		c-3.1-3.5-14-1.1-7.4-7.4c-4.9-0.7-4.9,3.3-7.4,4.9V99.8z"/>
	<path class="st5" d="M265.7,114.7h2.5c2.5,0,2.9,2,4.9,2.5c-5.4,2.2-7.2,10.6,2.5,9.9c7.7,0.8-6.3-7.2,2.5-7.4
		c-3.1,8,8,1.9,4.9,9.9h-2.5c-17.7,3.5-12.3-14.8-22.3-7.4C257.5,116.4,265.4,119.3,265.7,114.7"/>
	<path class="st3" d="M221.2,129.5c-2.5,5.8-8.5,8-17.3,7.4c1.6-4.4,10.6-13.9,7.4-14.8C215,114.6,215.7,130.6,221.2,129.5"/>
	<path class="st9" d="M686.5,164.2V179c-14.7,1-27.9,3.5-39.6,7.4c-21.1,5.3-45.6,7.2-69.3,9.9c-14.7,1-30.3,1.1-42.1,4.9
		c-5.8-5.7-24.5,1.4-27.2-7.4v-7.4c9.8-7.5,27.6-7.1,39.6-12.4c7.4-1.9,32.1-11.1,14.9-14.8c-0.5-5.6-34.5-2-19.8,0
		c-4.8,9.8-26-6.6-24.8,4.9c-9.2-1.8-10.6,4.2-19.8,2.5c15.5-6.6-4.3-5-9.9,0c7.3-3.4,10.7,11.8,2.5,17.3
		c-30.9,8.4-80.6,17-111.4,9.9c-8.2-11.6-20-19.6-42.1-17.3c-10.3-5.1-24.5-5.3-32.2,2.5c-30.2,0.7-51,22.4-71.8,39.6
		c-9.6,2.9-0.7,6.5,2.5,9.9h-14.9c1.9-18.7,23.5-17.8,29.7-32.2c-11.6,9.9-32.6,10.4-37.1,27.2c2.7,7.2,11.8,8,22.3,7.4
		c10.2,0.3,20.2,0.4,24.8-4.9c10.5-2.7,20.3-6.1,29.7-9.9h7.4c2.9,4.3,22.6,4.6,22.3-2.5h49.5h12.4c6.4,5.6,6.5,8.1,7.4,14.8
		c-7.1,2.8-19.3,0.5-24.8,5c-10.4,1.2-18.3,4.8-27.2,7.4c-21.1-6.2-118.1,11.2-94.1,37.1c-7.9,2.1-7.7-3.9-12.4-4.9
		c1.3-15.2,16.4-16.6,24.8-24.8c11.8-4.7,16.6-2.7,29.7-7.4c23-8.4,58.9-3.8,79.2-14.8c-1.1-3.7-3.2,1-7.4,0c0.6-2.7,4.9-1.7,5-5
		c0.4-5.4-8.8-1.1-12.4-2.5h-2.5c-8.3,1.6-23-3.2-27.2,2.5c-41.3,0-72.1,20.8-116.3,9.9c-0.4-6.2,3.9-7.7,5-12.4
		c8.7-4.3-7.1-4-2.5-12.4c9.8,5.4,18.2-0.2,24.8-5c10.9-3.1,18.6-9.4,27.2-14.8c2.9-2.9,8.7-2.8,14.8-2.5c2.4-11.9-11.1,1.3-9.9-5
		c23.4-8.4,67.7-12.9,99-9.9c26.6,2.6,27.9,22.2,54.5,19.8h19.8c8.6,6.8,22.7-1.9,32.2-2.5c-0.1-2.4-3-1.9-4.9-2.5
		c4.7-5.2,7.1-12.7,9.9-19.8c37.9-16.9,100.1-9.3,141.1-7.4c-0.6,3.5-4.1,4.2-4.9,7.4c-9.4,3.6-4.8-6.8-12.4-4.9
		c-0.7,4,2.3,4.3,2.5,7.4c-1.5,3.4-9.5,0.4-9.9,4.9c-15.2,3-29.8,6.5-44.6,9.9c-4.3,2.5-13.3,4.3-7.4,9.9c-5.7,7.9,70.7-0.5,14.9,0
		c0.4-2.9,4.5-2.1,7.4-2.5h4.9h27.2c14.3,1.6,17.9,1.6,32.2,0c-1.1-3-3.2-5.1-7.4-4.9C636.9,174,666.1,173.4,686.5,164.2"/>
	<path class="st3" d="M545.4,181.5c14.7-3.4,29.4-6.9,44.6-9.9c14.4,4,32.3-7.6,37.1,2.5c-12.2,13.4-44.4,6.8-61.9,14.8h-5
		c-4.7-6.2-10.7,3.1-17.3-2.5C543.4,184.4,545.4,184,545.4,181.5"/>
	<path class="st5" d="M538,191.4c-5.9-5.6,3.1-7.4,7.4-9.9c0,2.5-2,2.9-2.5,5c6.6,5.6,12.6-3.7,17.3,2.5c-2.9,0.4-7-0.4-7.4,2.5H538
		z"/>
	<path class="st3" d="M577.6,196.3c23.7-2.7,48.2-4.6,69.3-9.9c5.3-1.2,4.7,3.5,4.9,7.4c11.3-3.7,18.3-9.1,34.7-4.9v7.4
		C646.6,200,609.4,201.8,577.6,196.3"/>
	<path class="st10" d="M236,231c-10.5,0.6-19.6-0.2-22.3-7.4c4.6-16.9,25.6-17.4,37.1-27.2c-6.2,14.4-27.8,13.4-29.7,32.2H236V231z"
		/>
	<path class="st3" d="M208.8,218.6c-1.1,4.7-5.3,6.2-4.9,12.4c44.3,10.9,75.1-9.9,116.3-9.9h9.9c3.8,8.8-8.4,1.5-7.4,7.4
		c-12.8,2.1-23.1,6.6-37.1,7.4c-3.6,1.1,0.3,2.2,0,5c-13.2,4.7-17.9,2.8-29.7,7.4c-6.3-4.5-16.4,3.7-24.8,5
		c-8.2-6.4-25.8-1.1-29.7,4.9c-7-2-6.4,3.5-12.4,2.5c0.1,2.4,3,1.9,5,2.5c0.3,4.4-3,5.2-2.5,9.9c4.3-0.9,18.8-3.9,12.4-7.4
		c0.4-2.9,4.5-2.1,7.4-2.5c-2.4,11-7.6,15.5,4.9,19.8c-1,5.6-13.1,0.1-14.8,5c3.7,5.3,6.1-1.8,12.4,2.5c-2.6,14.6-22.8,9.1-27.2,0
		c-7.5,0.8-8.8,7.7-19.8,4.9v-37.1c16.1,1.2,27.1-2.6,37.1-7.4c-13-2.4-23.9-0.7-37.1,2.5v-29.7C179.8,221,197.2,222.7,208.8,218.6"
		/>
	<path class="st6" d="M443.9,188.9c9.8,1.6,10-6.5,19.8-4.9c1.9,0.6,4.9,0.1,4.9,2.5c-9.5,0.5-23.6,9.3-32.2,2.5H443.9z"/>
	<path class="st3" d="M255.8,206.2c4.5-0.1,8.4,12.7,12.4,4.9c-7.2-7.2,4.2-2.7,9.9-2.5v-9.9c19.6-12.3,50.6,2.2,66.8-12.4
		c-9.2-1.8-10.6,4.2-19.8,2.5c-0.1-3.4,1.2-5.4,2.5-7.4C295.5,178.3,279,194.6,255.8,206.2 M320.2,206.2c2.2-1.1,4.4-2.2,4.9-4.9
		c-7.1-4.5-29.8-3.5-37.1,0c-0.2,8.4,9.2,7.3,17.3,7.4c3.5,10.9-14.8,0-14.9,7.4c-9.4,3.8-19.2,7.2-29.7,9.9
		c-11.5-7-15.6-1-24.8-2.5c-0.5-2-2.5-2.5-2.5-4.9c20.8-17.2,41.6-38.9,71.8-39.6c12.1,0.6,18.7-4.4,32.2-2.5
		c22.1-2.3,33.9,5.7,42.1,17.3c-2.2,1.9-5.6,2.7-9.9,2.5c39.8,29.6,128.1,15.1,175.8,29.7c-4.9,10.9-17-0.6-24.8,7.4
		c-0.7-4,2.3-4.3,2.5-7.4c-21.8-4.9-50,6.8-64.4-7.4c-25.5,2.3-53.9,1.7-76.7-5h-12.4C359.5,204.9,326.4,219,320.2,206.2"/>
	<path class="st5" d="M320.2,206.2c6.2,12.8,39.3-1.3,49.5,7.4h-49.5c-10-1.7-14.1,2.4-22.3,2.5h-7.4c0-7.4,18.3,3.5,14.9-7.4
		C312.9,210.5,314.3,206.2,320.2,206.2"/>
	<path class="st5" d="M260.8,226.1c-4.5,5.4-14.6,5.2-24.8,4.9v-2.5c-3.2-3.4-12.1-7-2.5-9.9c0,2.5,2,2.9,2.5,4.9
		C245.2,225,249.2,219.1,260.8,226.1"/>
	<path class="st7" d="M661.8,226.1c-3.8,7.6,16.2,7.6,12.4,0H661.8z M493.5,243.4c59.5-11.3,103.7,2,168.3-4.9c-0.5-2-2.5-2.5-2.5-5
		c-7-3.7-23.8,0.6-29.7-9.9c20.3-0.5,39.7,0,56.9,2.5v42.1c-12.8-2.5-15.2,0-29.7,0c2.4-7.9,7.1-6-2.5-9.9c0.3-4.7,8.2-1.7,7.4-7.4
		c-32.4,3.2-75.7,4.4-99,2.5v-9.9h-12.4c9.7,9.9-2.4,9.6-12.4,12.4c-1.7-6.7,5.1-4.8,7.4-7.4c-5.9-7.4-40.6-5.5-44.6,5
		c-4.7-0.3-1.7-8.2-7.4-7.4V243.4z"/>
	<path class="st5" d="M201.4,258.2c3.9-6.1,21.5-11.4,29.7-5c-4.9,4.1-3.1-0.2-9.9,0C210.4,249.3,204.8,263.1,201.4,258.2"/>
	<path class="st9" d="M396.9,226.1c5.2-5.4,7.1,1.2,14.8,0c-8.3,11.3,24-0.3,27.2,7.4h-22.3c-9.1,1.6-24.7-3.2-29.7,2.5h-2.5h-7.4
		C380.8,228.4,415.7,234.1,396.9,226.1"/>
	<path class="st9" d="M486,238.4c5-0.8,7.7,0.5,7.4,5v2.5c-5.5,6.1-21.5,14.7-29.7,9.9c9.9-1.6,17-6.1,24.8-9.9
		C489.2,241.9,486.2,241.6,486,238.4"/>
	<path class="st10" d="M451.4,233.5v-4.9h19.8c-0.4,2.9-4.5,2.1-7.4,2.5c5.9,4,15,4.8,22.3,7.4c0.1,3.2,3.2,3.4,2.5,7.4
		c-7.8,3.8-14.8,8.3-24.8,9.9c-8.3,4.6-0.3-0.6-5-5c4.4,0.3,5.2-3,9.9-2.5v-9.9C463.2,236.5,459,233.2,451.4,233.5"/>
	<path class="st9" d="M359.8,253.3c8.3-2.5,3.9,7.7,4.9,12.4c-13.6,2.9-20.8,12.2-37.1,12.4c0.6-2.7,4.9-1.7,5-4.9h2.5
		c10.2-3.8,24.1-3.9,27.2-14.9C361.8,256.2,359.8,255.8,359.8,253.3"/>
	<path class="st10" d="M337.5,240.9c8.9-2.7,16.9-6.2,27.2-7.4v2.5c-7.5-0.1-9.6,5.2-14.8,7.4c1.1,2.2,2.2,4.4,4.9,4.9
		c1.1,2.2,2.2,4.4,5,5c0,2.5,2,2.9,2.5,4.9c-3.1,10.9-17,11.1-27.2,14.9c1.1-3.9,7.8-2.1,5-9.9c9.3-2.2,2.8-11-5-9.9v-7.4
		C335.5,243.8,337.5,243.4,337.5,240.9"/>
	<path class="st5" d="M656.8,275.6c9.5-0.4,21.7,1.9,24.8-4.9C673,271.9,658.1,266.9,656.8,275.6 M439,273.1
		c-1.7-1.9-13.8-5.5-14.9,0C425.9,275,438,278.6,439,273.1 M446.4,275.6c7.7,5.3,18.1-3.8,27.2-4.9
		C467.3,263.1,450,263.7,446.4,275.6 M592.5,270.6c2.4-9-10.7-2.5-12.4-7.4C579,270.9,585.4,271.1,592.5,270.6 M515.7,260.7
		c2.9,0.4,2.7,3.9,2.5,7.4h14.8c-2.1-7.9-2.1-5.1,2.5-9.9C530.5,253.5,519.3,256.6,515.7,260.7 M446.4,236c6.3,1.9,14,2.5,17.3,7.4
		c-0.3,4.7-8.2,1.7-7.4,7.4h2.5c4.7,4.3-3.4,9.5,4.9,4.9c8.2,4.8,24.2-3.8,29.7-9.9c5.7-0.8,2.8,7.2,7.4,7.4
		c4-10.5,38.7-12.3,44.6-4.9c-2.3,2.6-9.1,0.8-7.4,7.4c10-2.8,22-2.5,12.4-12.4h12.4v9.9c23.3,1.9,66.6,0.7,99-2.5
		c0.8,5.7-7.2,2.7-7.4,7.4c9.5,3.9,4.9,1.9,2.5,9.9c14.5,0,16.9-2.5,29.7,0v7.4c-9.7,2.7-18.2,6.6-32.2,5c-2.1-2.9-3.3-6.6-2.5-12.4
		c-18.8,9.3-31.2,3.6-54.5,2.5c-8,26.6-53.2,12.2-79.2,4.9c-1.2,3.3-1.2,6.6-12.4,5c-1.8,6.7,11.7-1.8,9.9,4.9h-5
		c-31.5-2.6-55.8-8.5-81.7,2.5h-17.3c-0.7-4,2.3-4.3,2.5-7.4h-9.9c-0.2-11.1,17.9-6.9,19.8-14.9c5.1,4.9,19.4-2,27.2-2.5
		c0.5-2.1-1-2.3-2.5-2.5c-4.4-5.3-17-7.6-17.3,2.5c0.4,2.1-1,2.3-2.5,2.5c-2.5-7-10.5,0.7-14.9,0c-7.7-6-24.7,0-29.7,5
		c0.5,2.1-1,2.3-2.5,2.5c-0.5-2.8-2.5-1.4-2.5,0c3.3-19.9,56.2-11.4,71.8-27.2C450.1,242.2,447.7,239.6,446.4,236"/>
	<path class="st5" d="M285.5,287.9c6.1-3.8,16.1-3.7,24.8-5C304.6,287.3,295.8,288.3,285.5,287.9"/>
	<path class="st9" d="M364.7,236h9.9c-3.7,3.9-23.3,4.5-14.8,12.4c-1.1,3.6-2.2-0.3-5,0c-2.8-0.5-3.9-2.7-4.9-5
		C355.1,241.2,357.2,235.8,364.7,236"/>
	<path class="st5" d="M263.2,258.2c-2.9,11.3,13.7,15.8,19.8,9.9h-7.4C277.4,256.3,270.3,255.1,263.2,258.2 M243.4,278
		c-24-25.9,73-43.3,94.1-37.1c0,2.5-2,2.9-2.5,4.9c-4-0.7-4.3,2.3-7.4,2.5c-1,5.2,1.7,6.6,2.5,9.9c-0.5,2-2.5,2.5-2.5,5
		c-5.6-6.8-8.2-16.5-14.8-22.3c-3.8,4.5-8.9,7.6-7.4,17.3c-9.2-5.1-11.3,5.1-24.8,2.5c10.5,6.3,32.4,2.8,29.7-12.4
		c10.5,2.2-4.2,16.9,9.9,17.3c-4.7,8.4-8.7-4.2-14.8-2.5c-2,1.3-4,2.6-7.4,2.5c10.4,11.2-5.3,4.2-9.9,12.4h-42.1H243.4z"/>
	<path class="st7" d="M288,278c4.6-8.2,20.3-1.2,9.9-12.4c3.4,0.1,5.4-1.2,7.4-2.5c6.2-1.8,10.2,10.9,14.9,2.5
		c-14.1-0.5,0.6-15.1-9.9-17.3c2.7,15.2-19.2,18.6-29.7,12.4c13.4,2.6,15.6-7.5,24.8-2.5c-1.5-9.7,3.7-12.9,7.4-17.3
		c6.6,5.7,9.3,15.5,14.9,22.3c0-2.5,2-2.9,2.5-5h7.4c0.7,4-2.3,4.3-2.5,7.4c-14.2,4-30,6.3-42.1,12.4H288z"/>
	<path class="st6" d="M292.9,278c12.1-6,27.9-8.4,42.1-12.4c-2,6.2-13.1,3.5-17.3,7.4c-2.9-0.4-4.4,0.5-4.9,2.5
		c-3.5-0.2-7-0.4-7.4,2.5C302.1,281.2,296.2,281.2,292.9,278"/>
	<path class="st10" d="M424.1,265.7c-1.9,8-20,3.8-19.8,14.8c-2.1-0.4-2.3,1-2.5,2.5c-12.3,1.1,1,5.3,2.5,7.4
		c-4.6,4.8,59.8,3,39.6,0v-2.5h22.3c-6.8,9.6,13.7-0.2,19.8,7.4c-11.6,1.6-29.6-3.2-37.1,2.5h-2.5h-27.2h-7.4
		c-12.7,1.9-18-3.5-29.7-2.5c-6.3-1.4-13-9-7.4-14.9V278c3.2-0.9,3.9-4.4,7.4-5c1.5-0.1,2.9-0.4,2.5-2.5c9.3-2.2,22.4-0.7,29.7-4.9
		c4.3,0.7,12.3-7,14.8,0H424.1z"/>
	<path class="st9" d="M448.9,260.7c1.5,0.1,2.9,0.4,2.5,2.5c-7.9,0.5-22.1,7.4-27.2,2.5h4.9c1.5-0.1,2.9-0.4,2.5-2.5
		C439.6,264.6,443.1,261.5,448.9,260.7"/>
	<path class="st9" d="M211.3,263.2c1.8-2.3,4.5-3.7,7.4-5c-2.1,6.2-6.8,9.7-7.4,17.3c9.4,10.4,29,10.6,49.5,9.9
		c7.7-6.8,23.2,3.8,24.8-5c2.1,0.5,2.3-1,2.5-2.5h5c3.2,3.2,9.1,3.2,12.4,0c4-1.8,10.8,4.9,5,5c-8.6,1.3-18.7,1.1-24.8,4.9H283
		c-24.8-0.1-49.8,6.8-66.8-4.9C203.7,278.7,208.8,274.2,211.3,263.2"/>
	<path class="st9" d="M330.1,258.2c-0.8-3.3-3.5-4.7-2.5-9.9c3.2-0.1,3.4-3.2,7.4-2.5v7.4c7.8-1.1,14.3,7.7,5,9.9
		c-2,0.5-2.5,2.5-5,2.5c0.1-3.2,3.2-3.4,2.5-7.4H330.1z"/>
	<path class="st9" d="M384.5,297.8c-2.1,0.5-2.3-1-2.5-2.5c11.7-1,17,4.4,29.7,2.5C405.1,305.2,393.5,296.4,384.5,297.8"/>
	<path class="st6" d="M582.6,295.4c4.7-7,12.9,3.4,19.8,2.5c1.1,9.6,11,10.5,19.8,12.4c2.7,12.6-17.6,2.2-14.9,14.9h5
		c-6.1,6.6-24-5.8-32.2,2.5c-5.1,1.5-17.2-4-14.8,4.9c-4.3-3.2-5-9.9-9.9-12.4c-43.9,2.6-62.2,9.2-106.4,7.4c-13-5-35-3.5-42.1,4.9
		c4.1-2.3,8.7-9.1-2.5-7.4v-2.5c3.9-0.2,9.4,1.2,9.9-2.5h56.9h12.4c3.6-1.4,12.8,2.9,12.4-2.5c25.6-1.6,57.7,3.3,79.2-2.5h2.5H590
		c2.9-2.1,6.6-3.3,12.4-2.5C605.1,297.6,591.6,298.7,582.6,295.4"/>
	<path class="st6" d="M535.5,287.9c7.8-6,24.8-0.2,32.2,2.5C554.7,291.9,549,286,535.5,287.9"/>
	<path class="st7" d="M666.7,292.9h9.9c-1-4.7-0.9-10.7-7.4-9.9C668.4,286.3,665.7,287.7,666.7,292.9 M622.2,285.5
		c2.4,14.9,31.8,5.6,37.1,0c-7.6,1.8-4.8-6.8-12.4-5C641.1,290,635.5,286.1,622.2,285.5 M686.5,275.6v47c-6.8,3-10.3,5.4-17.3,2.5
		c-2.2-8.8,6.4-12.8-2.5-14.9c-9.5-0.4-0.9,2-2.5,7.4c-12.7-2.2-15.2-14.5-24.8-19.8c-6.1-0.4-10.3,1.3-12.4,4.9
		c-3.8-7.5-15.5-9.8-24.8-4.9c-6.9,0.9-15.1-9.4-19.8-2.5c-1.7-4.9-13.8,0.6-14.9-5c-7.4-2.6-24.4-8.5-32.2-2.5
		c-9.3,1.9-11.8-3-19.8-2.5c1.8-6.7-11.7,1.8-9.9-5c11.2,1.6,11.2-1.7,12.4-4.9c26,7.3,71.2,21.7,79.2-4.9
		c23.3,1.2,35.6,6.8,54.5-2.5c-0.8,5.7,0.4,9.5,2.5,12.4C668.4,282.2,676.9,278.2,686.5,275.6"/>
	<path class="st7" d="M510.8,297.8c2.1,0.5,2.3-1,2.5-2.5h2.5h5c-2.3,8.9,9.8,3.5,14.8,5c2.2,1.9,5.6,2.7,9.9,2.5
		c5.7,0.8,9.5-0.4,12.4-2.5h5v2.5c-3.8,1.3-0.2,2.6,2.5,2.5c-6.4,5.1-17.9,5.2-29.7,5c-3.4-5.6-17.2-0.9-24.8-2.5h-14.8
		c8.3-5.7,27.2-0.9,39.6-2.5C530.1,299.9,515.2,304.1,510.8,297.8"/>
	<path class="st7" d="M201.4,315.2c-4.8,5.1-16.6,3.2-22.3,7.4C182.3,315.9,191.4,315.1,201.4,315.2"/>
	<path class="st11" d="M510.8,285.5h4.9c8-0.5,10.5,4.4,19.8,2.5c13.4-1.9,19.2,3.9,32.2,2.5c1,5.6,13.1,0.1,14.9,5
		c9.1,3.3,22.5,2.2,19.8,17.3c-5.7-0.8-9.5,0.4-12.4,2.5c9.8-9.3-12.1-10.7-5-17.3c-12.6,1-2,12.3-7.4,17.3h-2.5
		c-11,0.1-31-0.1-47,0c-13.1,0.1-37.7-2-32.2,2.5c0.4,5.4-8.8,1.1-12.4,2.5c0.5-2,2.5-2.5,2.5-5c-6.5,0.8-22.6-2.7-14.9,5h-56.9
		c-42.9-13.8-127.3-3.1-175.8-7.4c11.5,3.3,8.3-8.2,19.8-4.9c46.2,5.8,103.1,0.8,153.5,2.5c25,4.9,37-1.6,66.8,0h32.2h24.8
		c11.9,0.3,23.3,0.2,29.7-5c-2.6,0.1-6.3-1.2-2.5-2.5c9.4-3.6,4.7,6.8,12.4,5c-0.7-4,2.3-4.3,2.5-7.4c-7.1,3.5-12.6-6.7-14.8,0h-5
		c-6.5-6.6-26.5-10.4-37.1-4.9h-5c14.8-7.4-23.4-6.7-27.2-2.5c2.9-0.4,4.4,0.5,5,2.5H486c-6.1-7.6-26.6,2.1-19.8-7.4
		C480.3,286.3,500.8,291.2,510.8,285.5"/>
	<path class="st10" d="M545.4,302.8c0.6-3.6,7.4-0.9,7.4-4.9c-5.1,1.5-16.3-3.1-17.3,2.5c-5.1-1.5-17.2,4-14.8-4.9
		c10.7-5.5,30.6-1.7,37.1,4.9C554.9,302.4,551.2,303.6,545.4,302.8"/>
	<path class="st7" d="M562.8,359.7c13.9-1.5,23.4,1.3,32.2,5C599.2,346.8,566.7,355.3,562.8,359.7 M367.2,342.4
		c7.2-3.5,12.2,2.8,17.3-5C377.5,337.9,367.6,335.3,367.2,342.4 M617.2,352.3c-9.3,1.4-13.7,7.7-14.8,17.3
		C614.1,370.6,611.7,357.5,617.2,352.3 M404.3,335c-0.1-3.4,1.2-5.4,2.5-7.4c-7,0.4-17-2.1-17.3,5c4.6-0.1,5.2,1.9,2.5,4.9
		c0,2.5-2,2.9-2.5,5c15.4,2.3,39,8.2,54.5,2.5c-3.6-8.7-27-18.6-29.7-12.4c2.9,0.4,7-0.4,7.4,2.5C417.2,335,407.3,341.6,404.3,335
		 M384.5,322.6h19.8v2.5c11.1-1.7,6.6,5.1,2.5,7.4c7.1-8.5,29.1-10,42.1-5c0.5,14.4,35.9,20,34.7,5c6-1,5.4,4.5,12.4,2.5
		c-9.9,12,9.6,13,19.8,7.4c-1.3,2-2.6,4-2.5,7.4c22.3-6.2,59.2,6.2,91.6,0c4.6-4.7,0.3-6.2,0-12.4c12.1-3.6,15.6-9.4,27.2-2.5v12.4
		c-10.6,3.4-17.7,10.4-17.3,24.8c-12.7,2.3-12.5,9.4-27.2,4.9c1-5.2-1.7-6.5-2.5-9.9c-13.9-2.9-30.7,8.8-47,2.5
		c0.2-9.5,10.7-16.4-4.9-17.3c-6.8,2.2,7.5,5.5,0,9.9c-12.4-5.9-18.6,7.6-29.7-2.5c0.3-4.7,8.2-1.7,7.4-7.4
		c-12.3,8.8-24.7,2.4-37.1,9.9c-18.7-2.8-43.3-12.8-61.9-7.4c-20.5-5.1-43.3-7.9-61.9-14.9c6.3-3.3-23.1-4.7-24.8,0
		c-14.2-0.5-34.2-6.2-47,0c0.4-5.4-8.8-1.1-12.4-2.5c-6.6-7.2-2.8-2.4,0-2.5c32.2-0.8,83.5,0.2,113.9-7.4
		C381.8,326.4,384,325.4,384.5,322.6"/>
	<path class="st8" d="M570.2,438.9c8.3,1.7,9-4.2,9.9-9.9c-3.2-0.1-3.4-3.2-7.4-2.5C570.6,429.4,569.4,433.2,570.2,438.9
		 M550.4,406.8c4.8,3.5,15.9,8.1,22.3,2.5c0.8-5.7-0.4-9.5-2.5-12.4C561,397.6,553.2,399.7,550.4,406.8 M686.5,322.6v19.8
		c-15.1-0.5-25.6-7.7-27.2-14.9c-2.7,0.6-1.7,4.9-5,5c-0.5,8.8,11.6,4.9,9.9,14.8c9,0.8,16.1-0.4,22.3-2.5v9.9
		c-22-2.6-33.9,4.3-56.9,4.9c0.1,9,7.3,10.9,17.3,9.9c-1.4,6.9-10.2,6.3-9.9,14.9c-7.4-1.6,2.4-5.3,0-9.9
		c-19.9,7.9,11.2,17,12.4,27.2c-28.3,7.5-59.4,16.7-52,42.1c2.7,9.2,19.7,7.2,24.8,19.8c-9.4-4.7-18.7-9.4-27.2-14.9
		c0.8-9.1-2.1-21.9,2.5-27.2c-5.4-2.9-16.1,10.2-17.3,19.8h-12.4c1.8-7.6-4.3-7.3-2.5-14.9c7.4-0.9,15.1-1.4,17.3-7.4
		c10.1,5.1,35-9.2,34.7-22.3c-0.2-10.4-13.9-9.2-4.9-14.8c4.6,6.9,9.7,13.4,12.4,22.3c6.4-1,7.5-7.4,14.9-7.4
		c-19.3-5-3.7-31.8-22.3-34.7c-1.8,7.6,8.5,3,5,12.4c-6.6-6.8-6.3,2-9.9,4.9c-0.1-2.4-3-1.9-5-2.5c-8.3,12.3-18,23.3-24.8,37.1
		c-0.4-2.9-4.5-2.1-7.4-2.5c-4.4,6.5-17.9,6.5-22.3,0c-4.2-2.4-6.4-6.8-5-14.9c15.9,0.4,28.8-5.9,34.7,2.5
		c10.2,0.3,6.5-13.3,14.8-14.8c-23.4-1.9-50.7-7.9-69.3-5c-2,0.5-2.5,2.5-4.9,2.5c-3.1-9.3-18.9-5.9-17.3-19.8
		c-4.9,12.5-5.1,1.4-17.3,2.5c-4.2-0.9-4.7,1.9-4.9,4.9c-2.9,0.4-4.4-0.5-5-2.5c9.2-3.4-7.3-0.4-4.9-4.9c12.4-7.5,24.8-1.1,37.1-9.9
		c0.8,5.7-7.2,2.7-7.4,7.4c11.1,10.1,17.3-3.4,29.7,2.5c7.5-4.4-6.8-7.7,0-9.9c15.6,0.9,5.1,7.8,4.9,17.3c16.3,6.3,33.1-5.4,47-2.5
		c0.8,3.4,3.5,4.7,2.5,9.9c14.7,4.4,14.5-2.7,27.2-4.9c-0.4-14.4,6.7-21.4,17.3-24.8V335c-11.7-6.9-15.2-1.1-27.2,2.5
		c0.3,6.2,4.6,7.7,0,12.4c-32.3,6.2-69.2-6.2-91.6,0c-0.1-3.4,1.2-5.4,2.5-7.4c-10.2,5.6-29.7,4.5-19.8-7.4c-7,2-6.4-3.5-12.4-2.5
		c1.2,15-34.1,9.4-34.7-5c44.2,1.8,62.5-4.8,106.4-7.4c4.9,2.5,5.7,9.2,9.9,12.4c5.1-1.5,17.2,4,14.9-5c8.2-8.3,26.1,4.1,32.2-2.5
		c8-2.9,15.2,7.6,19.8,0c-10.5-3.2-4.2-4-2.5-12.4c-2-1.3-4-2.6-7.4-2.5c-8.8-1.9-18.7-2.8-19.8-12.4c9.2-4.8,20.9-2.5,24.8,4.9
		c2.1-3.7,6.2-5.3,12.4-4.9c9.5,5.3,12.1,17.6,24.8,19.8c1.6-5.4-7-7.9,2.5-7.4c8.8,2.1,0.3,6.1,2.5,14.9
		C676.2,328,679.7,325.6,686.5,322.6"/>
	<path class="st13" d="M612.3,379.5c3.6-3,3.3-11.8,9.9-4.9c3.6-9.4-6.8-4.8-5-12.4c18.5,2.8,3,29.6,22.3,34.7
		c-7.4,0-8.4,6.4-14.8,7.4c-2.6-8.9-7.8-15.4-12.4-22.3V379.5z"/>
	<path class="st6" d="M179.1,322.6c5.7-4.2,17.5-2.4,22.3-7.4c5.8,0,33.2-0.8,19.8,2.5h-9.9C199.2,316.4,185.3,326.3,179.1,322.6"/>
	<path class="st10" d="M166.7,335c5.7,0.8,9.5-0.4,12.4-2.5c-5,8.6,1.1-0.2,2.5,5c1.2,10.2-8.5-2.4-2.5,7.4c-6.8-1.8-5,4.9-9.9,4.9
		c1.5,5.9,15.2-0.4,17.3,5c-2.6,1.3-10.1,2.2-19.8,2.5V335z"/>
	<path class="st5" d="M434,344.9c2.5-8.5-18.6-5.9-19.8-2.5C417.8,346.2,426.9,344.6,434,344.9 M404.3,335c2.9,6.7,12.9,0,17.3,0
		c-0.4-2.9-4.5-2.1-7.4-2.5c2.7-6.2,26.1,3.7,29.7,12.4c-15.4,5.7-39-0.1-54.5-2.5c0.5-2,2.5-2.5,2.5-4.9
		C397.7,338.2,401.5,337,404.3,335"/>
	<path class="st6" d="M411.8,354.8c18.6-5.3,43.2,4.6,61.9,7.4c-2.3,4.6,14.2,1.5,4.9,5C456.5,362.8,437.3,355.7,411.8,354.8"/>
	<path class="st7" d="M179.1,332.5c2.9,0.4,4.4-0.5,4.9-2.5c2,0.5,2.5,2.5,5,2.5c-11.2,14.3,17.1,6.7,22.3,12.4
		c-8,5.5-23.3,1.4-32.2,0c-6.1-9.8,3.7,2.8,2.5-7.4C180.2,332.3,174.1,341.1,179.1,332.5"/>
	<path class="st11" d="M392,337.4c2.8-3,2.2-5.1-2.5-4.9c0.3-7.1,10.3-4.5,17.3-5c-1.3,2-2.6,4-2.5,7.4
		C401.5,337,397.7,338.2,392,337.4"/>
	<path class="st11" d="M347.4,342.4c-4.3,1.4-14.5-3-14.9,2.5C339.1,345.9,346.6,355.6,347.4,342.4 M362.3,354.8
		c2.6-2.6,21.2-1.6,14.9-4.9c-6.3,2.7-11.8-7.5-14.9,0C365.2,350.3,363.8,352.6,362.3,354.8 M278.1,339.9c12.9-6.2,32.9-0.5,47,0
		h24.8c18.6,7,41.4,9.8,61.9,14.8c25.5,0.9,44.8,8,66.8,12.4c0.5,1.9,2.1,2.9,4.9,2.5c4.6,2,9.1,4.1,14.9,4.9
		c0.4,2.9,4.5,2.1,7.4,2.5c2,5.5,8.7,6.2,12.4,9.9c2,1.3,4,2.6,7.4,2.5c4.9,8.6,11.7,2.5,14.8,9.9v2.5c-2.5,3.3-6.7,4.9-7.4,9.9
		c-8.4,12.2-26.1,15.1-42.1,19.8c-3.5-0.2-7-0.4-7.4,2.5c-22.5-0.2-45.1-0.6-64.4,2.5c37.6-11.1,99.7,2.4,113.9-32.2
		c-29.6-37.3-91.6-42.1-148.5-52c5.5,13.5,29.4,8.6,39.6,17.3c-11.3,2.9-21.6-8-27.2-2.5c-7.9-3.8-10.4-4-19.8-4.9
		c-6.2-3.8-15-4.8-24.8-5v-9.9c-6.2-0.4-7.7,3.8-9.9,7.4c-12.4-0.5-16.3-5.8-34.7-4.9c-4.1-14.9-27.6-4.5-34.7,0h-12.4h-17.3
		c-18.2,2.4-35.5,5.7-56.9,4.9c-2.1-5.3-15.8,0.9-17.3-4.9c4.9,0,3.2-6.8,9.9-5c8.9,1.4,24.2,5.5,32.2,0c10.1,0.2,20.3,0.5,27.2-2.5
		c3.9-0.2,9.4,1.2,9.9-2.5H278.1z"/>
	<path class="st6" d="M396.9,367.1c5.7-5.5,15.9,5.4,27.2,2.5c11.5-1.6,15.9,3.9,24.8,4.9c6,11.3,37.9,9.9,37.1,19.8
		c-16.2-3.6-28.5-11.1-44.6-14.8h-4.9c-4,0.7-4.3-2.3-7.4-2.5c-6.1-2.2-10.7-5.8-19.8-5C404.6,371,403.1,366.8,396.9,367.1"/>
	<path class="st6" d="M260.8,352.3v-2.5h12.4h34.7c18.4-0.9,22.3,4.4,34.7,5c5.2-1,6.6,1.7,9.9,2.5c9.7,0.2,18.6,1.2,24.8,5h-14.8
		C329.4,352.4,298.5,355.1,260.8,352.3"/>
	<path class="st7" d="M260.8,352.3c37.8,2.8,68.7,0.1,101.5,9.9c-17.4-6.9-127.8-7.1-91.6,19.8c-0.5,3.3-10.3,4.6,0,4.9
		c0.4,7.8-10,4.8-12.4,9.9c11.4,4.3,12.6,18.8,32.2,14.9c-5,14.2-21.4-3.6-27.2,2.5c-2.3-10.1-7.8-16.9-22.3-14.9
		c6.2-10.7-10.2-17-14.8-14.8h-2.5h-2.5c-0.5-2.1,1-2.3,2.5-2.5c5.4-4.9,3.1-12.1,9.9-19.8c2.9-3.7,9.3-3.9,12.4-7.4
		C252,355.1,257.8,355.1,260.8,352.3"/>
	<path class="st11" d="M416.7,483.5c-18.9-5.9-46.3-3.2-49.5-24.8c11.2-12.8,29.4-18.4,49.5-22.3c-16.3,6.8-34.5,11.7-47,22.3
		c1,4.7,0.9,10.7,7.4,9.9C384.3,479.6,407.9,474.1,416.7,483.5"/>
	<path class="st11" d="M424.1,483.5h9.9h2.5c5.4,7.2,18.5,1.3,22.3,4.9c-2.6,5.2,21.2,5.2,24.8,12.4
		C463.4,495.4,443.7,489.5,424.1,483.5"/>
	<path class="st14" d="M483.6,500.8h7.4h2.5c1.8,2.3,4.5,3.7,7.4,4.9c12.9,5.2,24.9,11.4,42.1,12.4h2.5
		c42.5,16,93.9,23.3,138.6,37.1h2.5v37.1c-46.9-23.2-107.5-32.8-163.4-47h-2.5c-3.1-3.5-8.5-4.7-14.8-4.9c-8.3-1.6-12.7-7.1-24.8-5
		h-2.5c-16.1-8.7-35.7-13.8-54.5-19.8c-7.8,1.2-8.7-4.5-17.3-2.5c-2.1-5.3-6.1-8.8-14.9-7.4c-5.4-2.1-8.4-6.4-17.3-4.9
		c-36.3-3.3-53.3-47.5-17.3-64.4h2.5c12.1-4.4,28.4-4.6,39.6-9.9h4.9c19.7-5.1,46.8-2.7,66.8-7.4h2.5c12.6,1.1,19.3-3.8,27.2-7.4
		c-3-26.7-30.7-28.7-52-37.1c-8.9-1-13.2-6.6-24.8-5c-10.2-8.8-34.1-3.9-39.6-17.3c57,9.9,119,14.7,148.5,52
		c-14.1,34.6-76.3,21.1-113.9,32.2h-2.5c-20.1,3.8-38.4,9.5-49.5,22.3c3.2,21.6,30.6,18.9,49.5,24.8h7.4
		C443.7,489.5,463.4,495.4,483.6,500.8"/>
	<path class="st11" d="M500.9,505.8c5.7-0.8,9.5,0.4,12.4,2.5h4.9c6.3,5.2,17.8,5.3,24.8,9.9C525.8,517.2,513.8,511,500.9,505.8"/>
	<path class="st11" d="M545.4,518.2c45.9,12.7,98.5,18.6,138.6,37.1C639.3,541.4,588,534.2,545.4,518.2"/>
	<path class="st11" d="M523.2,545.4c55.9,14.3,116.5,23.8,163.4,47c-4.2,5.7-18.9,0.9-27.2,2.5c-23.8-29.8-77.2-30.1-118.8-42.1
		c-2-1.3-4-2.6-7.4-2.5c-2-0.5-2.5-2.5-5-2.5C525.2,548.3,523.7,547.3,523.2,545.4"/>
	<path class="st6" d="M424.1,515.7c18.7,6,38.4,11.2,54.5,19.8c-3.4,6.4-15.2,0.5-19.8,0c-1.8-2.3-4.5-3.7-7.4-5h-7.4h-2.5
		c0.5-2,2.5-2.5,2.5-4.9c-4.4-0.3-5.2,3-9.9,2.5c0.5-2.1-1-2.3-2.5-2.5C434.6,515.7,415,524.6,424.1,515.7"/>
	<path class="st11" d="M406.8,513.2c-5.9-6.2-6.6-2.4-17.3-2.5c0.5-2,2.5-2.5,2.5-4.9C400.7,504.4,404.7,507.9,406.8,513.2"/>
	<path class="st11" d="M374.6,500.8c-7.9-0.4-10.9-5.6-19.8-4.9c-0.4-2.9-4.5-2.1-7.4-2.5c-10-9.2-20.5-26.2-9.9-42.1
		c3.6-1.4,6-3.9,7.4-7.4c5-0.7,4.9-6.7,9.9-7.4h2.5C321.3,453.3,338.3,497.5,374.6,500.8"/>
	<path class="st11" d="M473.7,416.7c8.7,0.4,15.8-0.7,19.8-4.9c8.9-1.5,2.9-13.3-2.5-14.9c-2.9,0.4-4.4-0.5-4.9-2.5
		c0.7-9.9-31.1-8.5-37.1-19.8c21.2,8.5,48.9,10.5,52,37.1c-7.9,3.6-14.6,8.5-27.2,7.4V416.7z"/>
	<path class="st7" d="M565.2,399.3c-0.8,3.3-3.5,4.7-2.5,9.9h7.4C570.9,403.6,569.6,399.9,565.2,399.3 M570.2,396.9
		c2.1,2.9,3.3,6.6,2.5,12.4c-6.3,5.6-17.5,1-22.3-2.5C553.2,399.7,561,397.6,570.2,396.9"/>
	<path class="st13" d="M518.2,382c-1.6-2.5-5.7-2.6-4.9-7.4c-3.5-0.2-7-0.4-7.4,2.5c-2.9-0.4-7,0.4-7.4-2.5c0.8-6.5-5.2-6.4-9.9-7.4
		v-2.5c12.3-1,12.5,10,17.3-2.5c-1.6,13.9,14.3,10.5,17.3,19.8H518.2z"/>
	<path class="st7" d="M602.4,436.5c0.5-7.8,13.3-3.2,12.4-12.4C604.5,420.6,596.9,432.4,602.4,436.5 M619.7,419.1
		c7-0.4,17,2.1,17.3-4.9C631.1,408.6,625.2,416.9,619.7,419.1 M649.4,369.6c15.6-0.4,23,9.6,32.2-2.5
		C668.3,373.9,657,354.4,649.4,369.6 M656.8,377.1c-4.9,12.3,2.6,9.8,7.4,17.3c7.7-3.1,15.4-6.1,19.8-12.4
		C679.8,375.6,667.6,377,656.8,377.1 M686.5,354.8v34.7c-9.3,3.6-10.7,20.7-24.8,12.4c-3,12.1,11.4,6.7,7.4,19.8
		c-15.2-4.8-24.2,6.8-42.1,0c-3.4,10.8,9.6,5.3,7.4,14.9c-18.9,4.7,4.6,22.9,7.4,29.7c-8.6,2-9.5-3.7-17.3-2.5h-2.5
		c-5-12.6-22.1-10.6-24.8-19.8c-7.4-25.4,23.7-34.6,52-42.1c-1.2-10.3-32.3-19.3-12.4-27.2c2.4,4.6-7.4,8.3,0,9.9
		c-0.3-8.5,8.5-8,9.9-14.9c-10.1,1-17.2-0.9-17.3-9.9C652.7,359,664.5,352.2,686.5,354.8"/>
	<path class="st8" d="M686.5,389.4v74.3c-8.2-4.2-14.8-10-17.3-19.8c-7.6,1.8-7.3-4.3-14.9-2.5c9.8,13-4.3,11.9,7.4,27.2
		c8.3-0.9,18-5.6,22.3,2.5c-8.5-4.5-11.9,0.3-22.3,0c-2.7-13.8-19.6-13.4-17.3-32.2h17.3c1.1-11.3-14.9-14.8-22.3-9.9
		c0.8,5.2-4.7,13.7-5,24.8c7.4,10.7,21.1,15.2,27.2,27.2c-6,1-5.4-4.5-12.4-2.5c-12.3-0.1-17.1-7.6-24.8-12.4v-2.5
		c7.8-1.2,8.7,4.5,17.3,2.5c-2.8-6.9-26.3-25-7.4-29.7c2.2-9.6-10.8-4-7.4-14.8c17.8,6.7,26.9-4.8,42.1,0c4-13.1-10.4-7.8-7.4-19.8
		C675.8,410.2,677.2,393,686.5,389.4"/>
	<path class="st7" d="M179.1,453.8c3,1.1,5.1,3.2,4.9,7.4c8.6,2,10.5-4.6,14.9,0v9.9c20.8,11.8,42.5-11.9,66.8-12.4
		c0.4-6.1-1.3-10.3-4.9-12.4c1.7-2.1,15.6,7.5,17.3-5c1.7-6.7-5.1-4.8-7.4-7.4c2.2-4.4,5.5-7.7,9.9-9.9c8,0.2,5.3,11.2,17.3,7.4
		c-1.6-2.5-5.7-2.6-5-7.4c13.6-0.9,32.8,5.7,49.5,0c-6.3,10.4,5.3,15.5,2.5,19.8c-1.4,3.6-3.9,6-7.4,7.4c-1.3-3.6,9.6-6,2.5-7.4
		c-11.1-2.7-37.9-8.1-52,2.5c-0.3,4.4,3,5.2,2.5,9.9c-26.5,12.3-47.6,30-81.7,34.7h-9.9c-9.2,1.1-16.4,2.8-32.2,2.5v-29.7
		c5.8-0.8,10.2-3,14.9-5C181.1,456.7,179.1,456.3,179.1,453.8"/>
	<path class="st5" d="M302.8,404.3c1.6,11,7.1,8.5-2.5,14.9c20.1,2.8,24.4-10.2,29.7-22.3C315.3,393.6,314.8,404.7,302.8,404.3
		 M362.3,389.4c11,3.9,21.6,8.1,32.2,12.4c8-1.1,12.8-5.4,14.8-12.4c-11.5-7.9-26.3,11.9-29.7-5c-0.4-3.4,14.3-3.2,5-7.4
		C377.9,386.9,368.1,382.5,362.3,389.4 M349.9,399.3c1.9-4.9,16-1.3,14.9,4.9c4.6-0.3,8.3-1.6,9.9-4.9c-10.6-0.1-9.4-12-19.8-12.4
		c1.3,8.8-13.2-0.8-12.4,12.4h5c-6.6,5-17.2,5.9-14.9,19.8c6.3-4.9,11.4,2.6,14.9-2.5c-4.4,0.3-5.8-2.5-5-7.4
		c6-1.4,12.7-2.1,12.4-9.9H349.9z M166.7,426.6c8.9-4.8,9.1,1,17.3,2.5c0.1,9.2-3.8,14.3-7.4,19.8c0.2,4.8,10.6-5.2,7.4,7.4
		c18.1,1.6,30.9-2.1,42.1-7.4c-0.9,3.2-4.4,3.9-5,7.4c6.8,7.4,19.1-0.6,24.8-2.5c-3.5-4.2-13.4,3.2-17.3-4.9
		c7.8,4.2,30-3.7,34.7-17.3c-0.6-4.4-4.3-5.6-9.9-4.9c11.7-9.4-5.6-14.5-7.4-24.8c-8.6-2-9.5,3.7-17.3,2.5v-2.5
		c4,0.7,4.3-2.3,7.4-2.5c-7.5-13-23.6-1.7-37.1,0c4.4-4.7,10.5-7.7,14.8-12.4c2.9,0.4,4.4-0.5,5-2.5h2.5h2.5
		c-0.7,5.1-9.2,2.3-9.9,7.4c7.7,0.2,13.7-1.1,17.3-5c-2-0.5-2.5-2.5-4.9-2.5c4.7-2.2,21.1,4.1,14.8,14.9c14.4-2.1,20,4.7,22.3,14.8
		c5.8-6.1,22.2,11.7,27.2-2.5c-19.6,3.9-20.8-10.6-32.2-14.9c2.3-5.1,12.8-2.1,12.4-9.9c7.4-4.3,12.6,0.8,17.3-2.5
		c2.7,5.5,4.1,12.4,7.4,17.3c6.4-3.5,19.6-0.2,19.8-9.9c14.5-1.4,28.1,1.5,32.2-5c2.2-1.1,4.4-2.2,4.9-4.9c5.2,5.4,11,0.5,14.9-2.5
		c0.6-7.2-5.6-7.6-5-14.9c-11.3,2.1-24.6,1.4-32.2,12.4h-4.9h-24.8c-14.8-4.4-14.7,4.5-29.7,5c-36.2-26.9,74.2-26.7,91.6-19.8h14.9
		c9.4,1,11.9,1.1,19.8,4.9c6.2-0.4,7.7,3.9,12.4,5c0.1,2.4,3,1.9,5,2.5c2.3,15,0.6,16.9-2.5,29.7c4.3,7.3,13.2-1.4,19.8,0
		c-19.4,25.2-63.9-4.1-86.6,24.8c-1.8,4,4.9,10.8,4.9,4.9c2.9-0.4,4.4,0.5,5,2.5c-5,0.7-4.9,6.7-9.9,7.4c2.8-4.3-8.8-9.4-2.5-19.8
		c-16.7,5.7-35.9-0.9-49.5,0c-0.7,4.9,3.3,4.9,5,7.4c-12,3.8-9.3-7.2-17.3-7.4c-4.4,2.2-7.7,5.5-9.9,9.9c2.3,2.6,9.1,0.8,7.4,7.4
		c-1.7,12.4-15.6,2.9-17.3,5c3.7,2.1,5.3,6.2,5,12.4c-24.3,0.5-46,24.2-66.8,12.4v-9.9c-4.4-4.6-6.3,2-14.9,0
		c0.1-4.3-1.9-6.3-4.9-7.4h-12.4v-9.9c2.4-0.1,1.9-3,2.5-4.9c4.4-0.3,5.2,3,9.9,2.5c0.7-10-0.9-5.6-7.4-4.9c1.9-2.2,2.7-5.6,2.5-9.9
		c-2,1.3-4,2.6-7.4,2.5V426.6z"/>
	<path class="st7" d="M228.6,448.8c3.9,8.1,13.8,0.8,17.3,4.9c-5.7,1.9-18,9.9-24.8,2.5c0.6-3.5,4.1-4.2,4.9-7.4H228.6z"/>
	<path class="st7" d="M315.2,391.9c-0.2,9.7-13.4,6.4-19.8,9.9c-3.3-4.9-4.7-11.8-7.4-17.3C298,384.8,304.8,387,315.2,391.9"/>
	<path class="st3" d="M347.4,399.3h2.5h4.9c0.4,7.8-6.3,8.5-12.4,9.9c-0.8,5,0.5,7.7,4.9,7.4c-3.5,5-8.5-2.4-14.8,2.5
		C330.2,405.3,340.8,404.3,347.4,399.3"/>
	<path class="st7" d="M347.4,399.3h-4.9c-0.8-13.2,13.7-3.6,12.4-12.4c10.4,0.3,9.2,12.3,19.8,12.4c-1.6,3.3-5.3,4.6-9.9,4.9
		c1.1-6.3-12.9-9.8-14.8-4.9H347.4z"/>
	<path class="st3" d="M384.5,377.1c9.4,4.2-5.4,4.1-4.9,7.4c3.4,16.8,18.2-3,29.7,5c-2.1,7-6.9,11.3-14.8,12.4
		c-10.6-4.2-21.2-8.5-32.2-12.4C368.1,382.5,377.9,386.9,384.5,377.1"/>
	<path class="st7" d="M330.1,377.1c7.6-11,20.9-10.3,32.2-12.4c-0.6,7.2,5.6,7.6,4.9,14.9c-3.8,3-9.6,7.9-14.8,2.5h-2.5
		C349.3,374.3,337.6,377.8,330.1,377.1"/>
	<path class="st7" d="M184,406.8c1.3-2,2.6-4,2.5-7.4c3.5-0.2,7-0.4,7.4,2.5c4.3-7.3,11.4-11.7,19.8-14.9
		c-4.4,4.7-10.5,7.7-14.9,12.4c13.5-1.7,29.6-13,37.1,0c-3.2,0.1-3.4,3.2-7.4,2.5C213.8,402.1,201.8,402.7,184,406.8"/>
	<path class="st8" d="M203.8,387c-4.8-1-2-9.6-9.9-7.4c7.1,11-7.3,4.9-7.4,14.9C195.3,394.9,201.3,392.7,203.8,387 M166.7,362.2
		c20.5,7.3,48.1,12.7,66.8,0c-6.8,7.7-4.5,14.9-9.9,19.8c-1.1-5.5-12.2-1-17.3-2.5c0.6,4.4,4.3,5.6,9.9,5h2.5
		c-0.5,1.9-2.1,2.9-5,2.5c-8.4,3.2-15.5,7.6-19.8,14.9c-0.4-2.9-3.9-2.7-7.4-2.5c0.1,3.4-1.2,5.4-2.5,7.4
		c-3.2,3.4-10.7,2.5-17.3,2.5v-7.4c8.9,0.8,13.7,1.4,19.8-5h-19.8V362.2z"/>
	<path class="st7" d="M436.5,414.2c7.7,0.2,13.7-1.1,17.3-4.9c-3.3-0.8-4.7-3.5-9.9-2.5C447.8,415.6,435.5,408.2,436.5,414.2
		 M421.7,399.3c6.6,0,14.6,1.4,14.8-5C430,394.4,421.9,393,421.7,399.3 M392,424.1c-8.4,2.3-18.1,3.3-27.2,4.9
		c-0.5-3.5-16.2-1.6-14.9,5c0,5.8-6.8-0.9-4.9-5c22.8-28.8,67.2,0.5,86.6-24.8c-6.6-1.4-15.5,7.3-19.8,0c3.1-12.8,4.8-14.7,2.5-29.7
		c-1.9-0.6-4.9-0.1-5-2.5c9.1-0.8,13.8,2.7,19.8,5c-1.9,2.2-2.7,5.6-2.5,9.9c6.5,0.7,10.7-0.9,9.9-7.4h5c-0.6,12.2,3.6,8.2,12.4,7.4
		c-0.5,2-2.5,2.5-2.5,4.9c8.5-0.3,17.8-1.3,19.8,5c-0.4,4.6-8.4,1.5-9.9,4.9c0.4,8.6,7.3,10.9,9.9,17.3c-20,4.7-47.1,2.4-66.8,7.4
		c-3-3.3-1-3.9,0-7.4C399.9,420.5,394.1,420.4,392,424.1"/>
	<path class="st12" d="M505.8,377.1c0.4-2.9,3.9-2.7,7.4-2.5c-0.7,4.9,3.3,4.9,5,7.4c-3.6,1.1,0.2,2.2,0,5
		C514.5,383.2,507.8,382.5,505.8,377.1"/>
	<path class="st11" d="M270.7,382c15-0.4,14.9-9.4,29.7-4.9c-0.6,3.6-7.4,0.9-7.4,4.9c16,6.6,41.3,8.7,54.5,4.9
		c-4.1,6.4-17.7,3.6-32.2,5c-10.5-4.9-17.2-7.1-27.2-7.4c-4.8,3.3-10-1.8-17.3,2.5C260.4,386.6,270.2,385.3,270.7,382"/>
	<path class="st11" d="M325.1,377.1h4.9c7.5,0.8,19.3-2.7,19.8,4.9C346.1,375.8,328.6,383.5,325.1,377.1"/>
	<path class="st7" d="M609.8,401.8c-4.2-2.4-5-8.2-9.9-9.9c6.8,14.8-12.7,10-12.4,24.8C598.2,414.9,605.7,410.1,609.8,401.8
		 M612.3,379.5v2.5c-9,5.7,4.7,4.4,4.9,14.8c0.3,13.1-24.6,27.4-34.7,22.3v-5c6.8-13.8,16.4-24.8,24.8-37.1
		C609.2,377.6,612.2,377.1,612.3,379.5"/>
	<path class="st8" d="M441.5,379.5c16.1,3.7,28.4,11.2,44.6,14.8c0.5,1.9,2.1,2.9,5,2.5v5c-7.8-1.2-5.6,7.6-14.9,4.9
		c1,5.2-1.7,6.6-2.5,9.9v2.5h-2.5c-2.6-6.5-9.5-8.7-9.9-17.3c1.5-3.4,9.5-0.4,9.9-5c-2-6.2-11.3-5.2-19.8-4.9c0-2.5,2-2.9,2.5-5
		C445,387.7,440.9,391.7,441.5,379.5"/>
	<path class="st13" d="M607.3,498.3h5c0.1-3.2,3.2-3.4,2.5-7.4c-11.2,4.6-3.4-9.8-12.4-7.4C601.2,491.3,610,489.1,607.3,498.3
		 M642,515.7h-12.4C625.8,523.3,645.8,523.3,642,515.7 M582.6,419.1c-2.3,6-9.9,6.6-17.3,7.4c-1.8,7.6,4.3,7.3,2.5,14.9h12.4
		c1.2-9.6,11.9-22.7,17.3-19.8c-4.6,5.3-1.7,18.1-2.5,27.2c8.5,5.5,17.9,10.2,27.2,14.8h2.5v2.5c-11.9,0.4-11.6-11.5-27.2-7.4
		c7.3,14.3,36.9,16.3,29.7,37.1c9.3,2.6,7.1-6.1,14.9-4.9c14.8,11,9.6,34.6-12.4,34.7c-2.5-12.2-36.4,3.1-44.6-14.8
		c-6.5-0.7-2,9.6-9.9,7.4c1.3-2,2.6-4,2.5-7.4c-13.7-1.7-10.1,4.5-12.4,9.9c-4.7-1.1-6.2-5.3-12.4-5c0.8-3.4,6.2-2.1,9.9-2.5
		c-3.8-14.1-22.4-7.6-37.1-14.8c3.5,9.7,22.9,3.5,22.3,17.3c-9-4.2-20.1-6.3-29.7-9.9h-2.5c-1.1-9.6-2.7-8.8,2.5-14.8
		c9.2,8.4,10.5,1,17.3-5c11.2,1.8,8.1,6.7,17.3,0c-3,3.3-1,3.9,0,7.4h-2.5c5.8,6.7,24.9,24.8,32.2,7.4c9.5-1.2,7.7,8.8,12.4,12.4
		c4.6-5.8-5.1-26.3,4.9-32.2c-5.3-4.6-5.2-14.6-17.3-12.4c-0.9-4.2,1.9-4.7,4.9-5c-14.7-10-27.4-10-44.6-19.8
		c2.1-4.7,9.1-12.9,0-14.8c0.8-5.7-7.2-2.7-7.4-7.4c1.3-2,2.6-4,2.5-7.4c5.6,7.4,15.3,16.2,9.9,27.2c12,8.6,28.4,12.8,44.6,17.3
		c-3.3-7.4-7.6-13.8-9.9-22.3c0.7,5.6-0.6,9.3-4.9,9.9c-2.9-2.1-6.6-3.3-12.4-2.5c2.4-9.9-7.4-7.5-5-17.3
		c6.6-2.9,24.2-3.7,14.9-14.8c2.9,0.4,7-0.4,7.4,2.5V419.1z"/>
	<path class="st3" d="M184,406.8c17.8-4.1,29.8-4.7,44.6-4.9v2.5c7.8,1.2,8.7-4.5,17.3-2.5c1.8,10.3,19.1,15.4,7.4,24.8
		c5.6-0.7,9.3,0.6,9.9,4.9c-4.7,13.6-26.8,21.5-34.7,17.3h-2.5c-11.2,5.3-24,9-42.1,7.4c3.2-12.6-7.2-2.6-7.4-7.4
		c3.6-5.5,7.5-10.6,7.4-19.8c-8.3-1.5-8.5-7.3-17.3-2.5v-17.3C173.3,409.2,180.8,410.2,184,406.8"/>
	<path class="st7" d="M520.7,458.7c3.2-4.3,11.8-3.1,12.4-9.9c-8,1.4-11.5-1.7-17.3-2.5C517.1,450.8,517,456.6,520.7,458.7
		 M530.6,424.1c0.1-2.4,3-1.9,4.9-2.5c0.3,4.7,8.2,1.7,7.4,7.4v2.5c-9.5-1.2-7.9,8.6-19.8,5c8.5,7.2,20.5,10.9,22.3,24.8
		c9.9,2.4,7.5-7.4,17.3-4.9c2.4,5.8,4.3,12.2,4.9,19.8c-9-11.1-8.8,2.6-17.3,4.9c5.7-17.8-15.4-18.9-27.2-9.9
		c-1.8-7.6,6.8-4.8,4.9-12.4c-8.1-0.7-7.1,7.7-12.4,9.9c-7.8,1.2-6.5-6.7-12.4-7.4c-5,8.2-11.5,14.9-14.9,24.8
		c-4.7-2.7-11.7-3.2-17.3-5c3-11.3-6.8-9.7-4.9-19.8c2.4-0.1,1.9-3,2.5-4.9c6.6,0,14.1-0.9,17.3,2.5c9.3-2,0.1-8.7,4.9-12.4
		c6,1,5.4-4.5,12.4-2.5c-0.2,3.5-0.4,7,2.5,7.4c-3.6-12.2,14.8-18.4,29.7-19.8C536.9,426,530.8,428,530.6,424.1"/>
	<path class="st8" d="M166.7,493.4c15.8,0.3,22.9-1.4,32.2-2.5c-7.2,5.8-17.8,4.3-32.2,7.4V493.4z"/>
	<path class="st6" d="M364.7,429c9.1-1.6,18.8-2.6,27.2-4.9c2,1.3,4,2.6,7.4,2.5c-11.2,5.3-27.5,5.5-39.6,9.9
		C365.8,433.1,361.3,431.5,364.7,429"/>
	<path class="st8" d="M530.6,476.1c3.5,3.8,12.9,2.4,12.4-5C536.8,470.7,532.7,472.4,530.6,476.1 M530.6,424.1
		c0.2,3.9,6.3,1.9,4.9,7.4c-14.9,1.4-33.3,7.6-29.7,19.8c-2.9-0.4-2.7-3.9-2.5-7.4c-7-2-6.4,3.5-12.4,2.5
		c-4.8,3.7,4.3,10.4-4.9,12.4c-3.2-3.4-10.8-2.4-17.3-2.5c-0.6,1.9-0.1,4.9-2.5,4.9c-1.8,10.1,8,8.5,4.9,19.8
		c5.6,1.8,12.6,2.2,17.3,5c3.4-9.8,9.9-16.5,14.9-24.8c5.8,0.8,4.6,8.6,12.4,7.4c5.2-2.2,4.3-10.6,12.4-9.9
		c1.8,7.6-6.8,4.8-4.9,12.4c11.8-9,32.9-7.9,27.2,9.9c8.5-2.3,8.3-16.1,17.3-4.9c-0.6-7.6-2.5-14-4.9-19.8
		c-9.9-2.4-7.5,7.4-17.3,4.9c-1.8-13.9-13.8-17.5-22.3-24.8c11.9,3.6,10.3-6.2,19.8-5V429c9.1,2,2.1,10.2,0,14.9
		c17.2,9.8,29.9,9.8,44.6,19.8c-3,0.3-5.9,0.7-4.9,4.9c12.1-2.2,12,7.8,17.3,12.4c-10,5.8-0.3,26.3-5,32.2
		c-4.6-3.6-2.9-13.6-12.4-12.4c-7.2,17.4-26.4-0.7-32.2-7.4h2.5c5.8-0.1,7.3,4.3,14.8,2.5c4.2,7.2,9-5.6,17.3-2.5
		c-6.9-3.9-14.4-7-19.8-12.4c-8-3.1-1.9,8-9.9,5h-2.5c-9.2,6.7-6.2,1.8-17.3,0c-6.9,5.9-8.1,13.4-17.3,4.9c-5.2,6-3.5,5.3-2.5,14.9
		h2.5v2.5h-4.9c-0.5-2-2.5-2.5-2.5-4.9c0.8-5.7-0.4-9.5-2.5-12.4c-4.2-0.9-4.7,1.9-4.9,5c-6.4-1.9-20.1-9.4-24.8-5
		c-7.3-7.5-12.4-17.3-22.3-22.3c0-6.6-1.4-14.6,4.9-14.8c-2.5-5.7-16.6,0.1-14.8-9.9c14.4-7,47,4.1,54.5-9.9
		C513.4,431.5,523.9,425.8,530.6,424.1"/>
	<path class="st6" d="M483.6,434c4.7,6.6-37.2,1.7-47,4.9c-7.8-0.4-14.9-0.1-17.3,5c-8.5,3.1-21.3,1.8-27.2,7.4
		c-2.1-0.5-2.3,1-2.5,2.5c-14.2-1.7-16.8,7.4-9.9,14.8h-2.5c-6.5,0.8-6.4-5.2-7.4-9.9c12.5-10.6,30.8-15.4,47-22.3h2.5
		C438.4,433.4,461.1,433.8,483.6,434"/>
	<path class="st12" d="M483.6,500.8c-3.6-7.2-27.4-7.2-24.8-12.4c9.8,5.1,27.3,2.4,32.2,12.4H483.6z"/>
	<path class="st13" d="M491,431.5c0.8,3.4,6.2,2.1,9.9,2.5c-7.5,14-40,2.9-54.5,9.9c-1.7,10,12.3,4.2,14.8,9.9
		c-6.3,0.3-4.9,8.3-4.9,14.8c9.9,5,15,14.7,22.3,22.3c4.7-4.5,18.3,3,24.8,4.9c0.3-3,0.7-5.9,4.9-4.9c2.1,2.9,3.3,6.6,2.5,12.4
		c-9.7,4.6-12.9-9.9-17.3-2.5H491c-4.9-9.9-22.4-7.3-32.2-12.4c-3.7-3.6-16.8,2.3-22.3-4.9c7.9,2.1,7.7-3.9,12.4-5
		c-0.4-4.6-8.4-1.5-9.9-4.9c3.1-7.5,8.5,2.7,14.9,0c-0.3-6.3-4.5-8.7-7.4-12.4v-2.5c-0.5-2-2.5-2.5-2.5-4.9c-6-1-5.4,4.5-12.4,2.5
		c8.1-4.3,7.1-10.5,5-17.3c9.9-3.2,51.7,1.6,47-4.9C484,431.1,487.5,431.3,491,431.5"/>
	<path class="st8" d="M436.5,438.9c2.1,6.8,3.1,13-4.9,17.3c7,2,6.4-3.5,12.4-2.5c0,2.5,2,2.9,2.5,5c-6.2-5-16.3,2-19.8,7.4
		c9.2-1.8,10.6,4.2,19.8,2.5v-7.4c2.9,3.7,7.1,6.1,7.4,12.4c-6.3,2.7-11.8-7.5-14.8,0c1.5,3.4,9.5,0.4,9.9,5
		c-4.7,1.1-4.5,7.1-12.4,4.9H434V481c6.6-9.1-63.4-5.6-44.6-27.2c0.1-1.5,0.4-2.9,2.5-2.5c-0.3,6.2-4.6,7.7,0,12.4
		c12.8-7.1,20.4,3.8,32.2,5c1.2-8.6-12.1-2.8-12.4-9.9c-2.2-8.2,13.7-10.7,7.4-14.9C421.6,438.9,428.7,438.5,436.5,438.9"/>
	<path class="st6" d="M335,446.4c2.9,0.4,4.4-0.5,4.9-2.5c7.2,1.4-3.8,3.9-2.5,7.4c-10.6,15.9-0.1,32.9,9.9,42.1
		c-10.7,0.8-9.7-10.1-17.3-12.4v-2.5C328.6,464.7,331.4,455.1,335,446.4"/>
	<path class="st7" d="M392,451.3c5.9-5.6,18.8-4.3,27.2-7.4c6.3,4.1-9.7,6.6-7.4,14.8c0.3,7.1,13.6,1.3,12.4,9.9
		c-11.8-1.2-19.4-12-32.2-4.9C387.3,459,391.7,457.5,392,451.3"/>
	<path class="st12" d="M330.1,478.5v2.5c-0.6,2.7-4.9,1.7-4.9,4.9c2.4,2.5,4.9,5,7.4,7.4c-8,6.8-14-0.8-27.2,7.4
		c-0.4-6.9,7-8.1,9.9-5c-3.6-7.5-0.4-14.8,2.5-22.3h9.9C327.2,476.5,328.1,478,330.1,478.5"/>
	<path class="st6" d="M364.7,503.3c-0.3-4.1-17.2-3.8-9.9-7.4c8.9-0.7,11.9,4.6,19.8,4.9v2.5H364.7z"/>
	<path class="st8" d="M557.8,580c-6.5-0.7-10.7,0.9-9.9,7.4c4.9,4.1,3.1-0.2,9.9,0V580z M495.9,582.5v7.4c4.3-0.2,7.7,0.6,9.9,2.5
		c1.3-6.3,3.3-8.7-2.5-12.4C502.9,582.9,499.4,582.7,495.9,582.5 M488.5,575.1h9.9c-0.1-8.2,1-17.5-7.4-17.3
		C492.2,565.6,486.5,566.5,488.5,575.1 M389.5,594.9c-8-6-14-14-24.8-17.3c-2.1-7.9,3.9-7.7,4.9-12.4c-3.1-8.4-12.9-10.2-14.8-19.8
		c8,1.4,11.5-1.7,17.3-2.5c1-5.2-1.7-6.5-2.5-9.9c-13.9,13.7-19.8-0.6-37.1-2.5c0.8-5.8,10.8-2.4,12.4-7.4c2.5-8.3-7.7-3.9-12.4-4.9
		c2-9.1,10.2-2.1,14.8,0c7.8-1.7,3.2-6.6,2.5-12.4c5.8,0.1,7.3-4.3,14.9-2.5h9.9c-1.7,4.9-6.6,6.6-12.4,7.4
		c2.9,10.4,9.9-7.5,12.4,7.4c7-0.4,10.3-4.5,17.3-5c1,16.4-10.5,6.5-14.9,14.9c-1,13.9,31.7,19.1,32.2,2.5c8.1,4.4-2.9,10-5,12.4
		c5.1,13.9,27.4,10.6,32.2,24.8c23.6-1.5,27.3,6.8,42.1-2.5c4.3-12.6-2.8-17.2,0-24.8h4.9c1.9,2.2,2.7,5.6,2.5,9.9
		c10-5.6,12.6,5.8,19.8,9.9c4.4-9.5-13.2-18.1-22.3-22.3c-2.1,0.5-2.3-1-2.5-2.5c12.1-2.2,16.4,3.4,24.8,5c-0.1,2.4-3,1.9-4.9,2.5
		c2.1,5.7,15.2,6.8,19.8,2.5h2.5c0.5,1.9,2.1,2.9,5,2.5c-8,2.8-6.9,14.5-19.8,12.4c-2.8,7.8,3.9,6,4.9,9.9
		c2.5-10.7,18.6-7.8,19.8-19.8c3.4-0.1,5.4,1.2,7.4,2.5v2.5c-2.8,13.4-8.3,25.4-22.3,29.7c13.9,7.1,18.5-7.4,37.1-7.4
		c1.5-5.1-3.1-16.3,2.5-17.3c6-1,5.4,4.5,12.4,2.5c2.6,9.2-5.2,8-7.4,12.4c-1.2,5.3,3.5,4.7,7.4,5c-6.3,2.8-7.2,11-12.4,14.8h-64.4
		c-2.6-7.3-12.7-7.1-17.3-12.4c-7.1,13.3-23.1-10.2-22.3,12.4h-4.9c-0.4-15.4,0.4-16.8-9.9-22.3c-2.2,7.9,3.8,7.7,7.4,9.9
		c0.9,8.3-10.4,4.4-9.9,12.4H389.5z"/>
	<path class="st13" d="M317.7,513.2c-2.9-2.1-6.6-3.3-12.4-2.5C304.1,521,314.1,517.2,317.7,513.2 M325.1,508.2
		c6.6,2.6,19,4.7,22.3-2.5C342,503.3,324.9,494.7,325.1,508.2 M236,505.8c10.9,0.6,15.5,7.6,29.7,5
		C271.4,491.3,241.3,500.3,236,505.8 M196.4,503.3c5.9-1.5,18,3.1,19.8-2.5C212.6,497.5,196.6,495.8,196.4,503.3 M253.3,495.9
		c7.5-0.8,19.3,2.7,19.8-4.9C266.9,493,251.8,486.1,253.3,495.9 M307.8,542.9c0.1-10-10.4-9.4-12.4-17.3
		C289.7,533.1,301,540.2,307.8,542.9 M344.9,594.9h-19.8v-4.9c-6.2,2-21.3-4.8-19.8,4.9h-39.6c-1.7-9.2,10.6-4.3,12.4-9.9
		c-9.2-1.1-34.3,1.4-42.1,9.9h-12.4c-1.8-6.7,11.7,1.8,9.9-4.9c-5.7-8.7-8.8,5.8-17.3,2.5c-0.3-4.4,3-5.2,2.5-9.9
		c27.3,5.7,32.8-9.4,54.5-7.4c-0.7-8.1-6.2-18.6,5-19.8c1.4,3.6-2.9,12.8,2.5,12.4c7.4,2.5,4.4-5.5,4.9-9.9
		c12.3-1.6,14.6,6.9,22.3,9.9c4.4,0.3,5.2-3,9.9-2.5c0.4-9.9-6.3-6.5-12.4-4.9c6.3-21.4-22.1-26.6-29.7-42.1
		c-17.7,7.4-27.5-1.5-42.1,2.5c-1.3-2-2.6-4-2.5-7.4c-4,4.3-10.4,6.2-19.8,5c-0.3-4.4,3-5.2,2.5-9.9c-22,1.7-28.6,3.7-47,7.4v-7.4
		c7.5-1.6,21.3,3.2,24.8-2.5c-8.3-1.6-12.7-7.1-24.8-4.9v-2.5c14.4-3.1,25-1.7,32.2-7.4h9.9c44.1,3.4,64.3-29.4,96.5-29.7
		c0-13.2,21.4-5,22.3-17.3c3.5-0.2,7-0.4,7.4,2.5c-3.6,8.7-6.4,18.3-4.9,32.2c-1.9-0.5-2.9-2.1-2.5-5h-9.9c-2.9,7.5-6,14.8-2.5,22.3
		c-2.9-3.1-10.3-2-9.9,5c13.2-8.2,19.2-0.7,27.2-7.4c-2.5-2.4-5-4.9-7.4-7.4c0-3.3,4.3-2.3,5-4.9c7.6,2.3,6.7,13.1,17.3,12.4
		c2.9,0.4,7-0.4,7.4,2.5c-7.3,3.6,9.6,3.3,9.9,7.4c-7.6-1.8-9,2.5-14.9,2.5c0.8,5.8,5.3,10.7-2.5,12.4c-4.7-2.1-12.9-9.1-14.9,0
		c4.7,1.1,14.9-3.4,12.4,4.9c-1.6,5-11.6,1.6-12.4,7.4c17.3,1.8,23.2,16.1,37.1,2.5c0.8,3.4,3.5,4.7,2.5,9.9
		c-5.8,0.8-9.3,3.9-17.3,2.5c2,9.6,11.7,11.4,14.8,19.8c-1.1,4.7-7.1,4.5-4.9,12.4c10.7,3.3,16.7,11.3,24.8,17.3h-9.9
		c-7.2-5.2-9.9-14.8-22.3-14.8c-2-8.6,2.8-10.5,4.9-14.9c-4.7-8.5-12.2-14.2-14.8-24.8c-20.5-3.4-16.8,18.8-32.2,7.4
		c-0.1,11.6,10.2,12.9,17.3,17.3C329.1,582.7,344.8,581,344.9,594.9"/>
	<path class="st12" d="M295.4,525.6c1.9,8,12.5,7.3,12.4,17.3C301,540.2,289.7,533.1,295.4,525.6"/>
	<path class="st8" d="M166.7,453.8h12.4c0,2.5,2,2.9,2.5,4.9c-4.6,2-9.1,4.1-14.8,5V453.8z"/>
	<path class="st12" d="M379.6,468.6c17.7,4.5,32.7,11.8,54.5,12.4v2.5h-9.9h-7.4c-8.8-9.4-32.4-3.9-39.6-14.8H379.6z"/>
	<path class="st13" d="M555.3,486c8,3.1,1.9-8,9.9-4.9c5.4,5.3,12.9,8.5,19.8,12.4c-8.3-3.1-13.1,9.7-17.3,2.5
		c4.2,0.1,6.4-1.8,7.4-5C572.6,485.2,557.5,492.1,555.3,486"/>
	<path class="st11" d="M686.5,510.7c-8-6.8-20.1-9.6-24.8-19.8c12.4,0.8,15.8,10.6,24.8,14.9V510.7z"/>
	<path class="st12" d="M518.2,508.2v-2.5c9.6,3.6,20.7,5.7,29.7,9.9c0.7-13.9-18.7-7.6-22.3-17.3c14.7,7.3,33.4,0.8,37.1,14.8
		c-3.7,0.4-9.1-0.9-9.9,2.5c6.2-0.4,7.7,3.9,12.4,5c2.2-5.4-1.3-11.6,12.4-9.9c0.1,3.4-1.2,5.4-2.5,7.4c8,2.2,3.4-8.2,9.9-7.4
		c8.1,18,42,2.6,44.6,14.8c21.9-0.1,27.2-23.7,12.4-34.7c-7.8-1.2-5.6,7.6-14.8,4.9c7.2-20.8-22.4-22.9-29.7-37.1
		c15.6-4.1,15.3,7.8,27.2,7.4c7.6,4.8,12.4,12.3,24.8,12.4c11.9,7.7,28.4,14.5,37.1,0v27.2c-8.9-4.3-12.3-14.1-24.8-14.8
		c4.6,10.2,16.8,12.9,24.8,19.8v44.6h-2.5c-40.1-18.5-92.8-24.4-138.6-37.1H543C536,513.5,524.5,513.5,518.2,508.2"/>
	<path class="st13" d="M649.4,478.5c7-2,6.4,3.5,12.4,2.5c-6.1-12-19.8-16.5-27.2-27.2c0.2-11.1,5.8-19.5,4.9-24.8
		c7.3-4.9,23.4-1.4,22.3,9.9h-17.3c-2.3,18.8,14.6,18.4,17.3,32.2c10.4,0.3,13.8-4.5,22.3,0h2.5v7.4
		C677.8,493,661.3,486.2,649.4,478.5"/>
	<path class="st8" d="M602.4,483.5c9-2.4,1.1,12.1,12.4,7.4c0.7,4-2.3,4.3-2.5,7.4h-5C610,489.1,601.2,491.3,602.4,483.5"/>
	<path class="st12" d="M493.5,500.8c4.5-7.5,7.6,7,17.3,2.5c0,2.5,2,2.9,2.5,4.9c-2.9-2.1-6.6-3.3-12.4-2.5
		C498,504.6,495.3,503.1,493.5,500.8"/>
	<path class="st7" d="M453.8,552.8c-8.4,1-3.9-11-14.9-7.4C439.7,550.7,451.6,557.3,453.8,552.8 M392,505.8c0,2.5-2,2.9-2.5,4.9
		c10.8,0.1,11.4-3.7,17.3,2.5c8.6-2,9.5,3.7,17.3,2.5c-9.1,8.9,10.4,0.1,7.4,9.9h-7.4c2.6,13.2,1.6,8.3-9.9,7.4
		c0.4,15.6,29.6,5.9,29.7-2.5h7.4c1,6-4.5,5.4-2.5,12.4c3.7,1.3,6.2,3.7,9.9,5c3.2-6.1-7.3-10.3,0-12.4c4.6,0.5,16.4,6.4,19.8,0h2.5
		c0.1,1.5,0.4,2.9,2.5,2.5v2.5h-5c-2.8,7.5,4.3,12.2,0,24.8c-14.8,9.2-18.5,1-42.1,2.5c-4.8-14.2-27.1-10.9-32.2-24.8
		c2.1-2.3,13.1-8,4.9-12.4c-0.5,16.7-33.2,11.4-32.2-2.5c4.3-8.4,15.9,1.5,14.8-14.9c-7,0.4-10.3,4.5-17.3,5
		c-2.5-14.9-9.5,3-12.4-7.4c5.8-0.8,10.7-2.5,12.4-7.4v-2.5C383.5,499.4,386.6,503.7,392,505.8"/>
	<path class="st13" d="M533.1,550.3c-1.2,12-17.3,9.1-19.8,19.8c-1.1-3.9-7.8-2.1-4.9-9.9c12.9,2.2,11.8-9.6,19.8-12.4
		C530.6,547.8,531.1,549.9,533.1,550.3"/>
	<path class="st7" d="M436.5,594.9c-0.5-7.9,10.8-4,9.9-12.4c-3.6-2.2-9.6-2-7.4-9.9c10.3,5.5,9.5,6.8,9.9,22.3H436.5z"/>
	<path class="st8" d="M223.6,545.4c-7.8,1.2-8.7-4.5-17.3-2.5C203.3,551.1,223,549,223.6,545.4 M265.7,550.3
		c7.2,7.3,22.2-2.8,27.2,2.5c-1.3-11.9-13.3-13.1-27.2-12.4V550.3z M231.1,535.5c20.1-4.2,39.9,4.3,52-4.9
		C263.9,525.6,242,518.2,231.1,535.5 M223.6,594.9h-29.7c5-10.5,35-24.6,49.5-22.3c-3-15.3-17.8-6.8-17.3-22.3
		c-10,2.3-26.4,5.7-27.2-7.4c6.2,0.4,7.7-3.9,12.4-4.9c-4.3-12-10.5-7.1-14.8-17.3c-6.4,6.8-19.2,7.2-29.7,9.9v-14.9
		c18.4-3.7,25.1-5.7,47-7.4c0.6,4.7-2.8,5.5-2.5,9.9c9.5,1.2,15.8-0.7,19.8-5c-0.1,3.4,1.2,5.4,2.5,7.4c14.6-4,24.4,4.9,42.1-2.5
		c7.6,15.5,36,20.7,29.7,42.1c6-1.6,12.7-5,12.4,4.9c-4.7-0.6-5.5,2.8-9.9,2.5c-7.7-3-9.9-11.5-22.3-9.9c-0.6,4.4,2.5,12.4-5,9.9
		c-5.4,0.4-1.1-8.8-2.5-12.4c-11.2,1.2-5.6,11.7-4.9,19.8c-21.6-1.9-27.2,13.2-54.5,7.4c0.6,4.7-2.8,5.5-2.5,9.9
		c8.6,3.4,11.7-11.1,17.3-2.5C235.3,596.7,221.9,588.2,223.6,594.9"/>
	<path class="st7" d="M181.5,580c1.8,5.6,13.9,1,19.8,2.5c-6-13.7,19.7-18.3,7.4-22.3C204.6,571.7,183.6,566.4,181.5,580
		 M166.7,589.9v-42.1c7-2,6.4,3.5,12.4,2.5c3.8-11-9.9-10-2.5-17.3h-9.9v-2.5c10.5-2.7,23.3-3.1,29.7-9.9
		c4.3,10.3,10.6,5.4,14.8,17.3c-4.7,1.1-6.2,5.3-12.4,5c0.8,13.1,17.2,9.7,27.2,7.4c-0.5,15.5,14.3,6.9,17.3,22.3
		c-14.5-2.3-44.5,11.8-49.5,22.3h-14.8c0.5-2,2.5-2.5,2.5-4.9H166.7z"/>
	<path class="st8" d="M439,545.4c11-3.5,6.5,8.4,14.8,7.4C451.6,557.3,439.7,550.7,439,545.4"/>
	<path class="st12" d="M540.5,555.3v-2.5c41.7,12,95,12.3,118.8,42.1h-24.8c2.3-16.3-14.6-13.4-22.3-19.8h-2.5
		c-7.7-9.6-29.1-5.6-39.6-12.4c-7,2-6.4-3.5-12.4-2.5v-2.5c-7.8-2.8-6,3.9-9.9,4.9C549.6,556.1,542.8,557.9,540.5,555.3"/>
	<path class="st13" d="M344.9,557.8c3.2,0.9,3.9,4.4,7.4,4.9c0.4,8.7-8.4,8.1-9.9,14.9C340,577.4,342.6,561.4,344.9,557.8"/>
	<path class="st13" d="M629.6,594.9c0.7-12.3-12.1-11-17.3-17.3v-2.5c7.6,6.4,24.6,3.5,22.3,19.8H629.6z"/>
	<path class="st13" d="M567.7,592.4c8.1,0.6,11.9-2.9,12.4-9.9C572.8,582.7,566.1,583.4,567.7,592.4 M557.8,594.9
		c5.2-3.9,6.1-12.1,12.4-14.8c-3.9-0.2-8.6,0.3-7.4-5c2.2-4.4,10.1-3.2,7.4-12.4c10.5,6.8,31.9,2.7,39.6,12.4
		c-10.6-2.4-16.5-5.9-27.2-2.5c1.3,2,2.6,4,2.5,7.4c1.5-0.7,9.5-6.2,9.9,0h-7.4c-0.7,4,2.3,4.3,2.5,7.4c-6.6-6.6-9.1,3.5-12.4,7.4
		H557.8z"/>
	<path class="st8" d="M594.9,580c-0.4-6.2-8.4-0.7-9.9,0c0.1-3.4-1.2-5.4-2.5-7.4c10.8-3.4,16.6,0,27.2,2.5h2.5v2.5
		c5.2,6.3,18,5.1,17.3,17.3h-52c3.3-3.9,5.8-14.1,12.4-7.4c4.3,4.8,12.8,5.3,22.3,5C611.7,583.1,605.8,579.1,594.9,580"/>
	<path class="st7" d="M493.5,594.9h-39.6c-0.9-22.6,15.2,0.9,22.3-12.4C480.8,587.8,490.9,587.6,493.5,594.9"/>
	<path class="st3" d="M208.8,124.6c-5.1-1.5-16.3,3.1-17.3-2.5C190.6,112.3,210.1,118.1,208.8,124.6"/>
	<path class="st5" d="M646.9,186.4c11.7-3.9,24.9-6.4,39.6-7.4v9.9c-16.4-4.1-23.4,1.2-34.7,4.9C651.6,190,652.2,185.3,646.9,186.4"
		/>
	<path class="st3" d="M416.7,188.9c-7.2-5.1-24.6-0.2-24.8-12.4c11.5-2.2,35.6-19.6,39.6,0c12.1,0.3,26.6-1.8,32.2,5
		c-8.3,0.8-15.6,2.5-19.8,7.4h-7.4H416.7z"/>
	<path class="st5" d="M166.7,223.6v-19.8c19.3-6.4,34.7-5.1,54.5-7.4c-2.5,7.4,5.5,4.4,9.9,4.9c-6.5,4.8-15,10.3-24.8,5
		c-4.7,8.3,11.2,8.1,2.5,12.4C197.2,222.7,179.8,221,166.7,223.6"/>
	<path class="st5" d="M642,233.5c-19.1-2.1-37.6-3.3-52,0C602.7,240,628,239.4,642,233.5 M629.6,218.6c4.3,5.2,26.2,5.8,34.7-2.5
		C650.8,212.9,632.6,222.3,629.6,218.6 M597.4,221.1h17.3v-4.9h-17.3V221.1z M686.5,196.3v29.7c-17.3-2.5-36.6-3-56.9-2.5
		c5.9,10.5,22.7,6.2,29.7,9.9c0,2.5,2,2.9,2.5,5c-64.6,7-108.8-6.4-168.3,4.9c0.3-4.4-2.5-5.8-7.4-4.9c-7.3-2.6-16.4-3.4-22.3-7.4
		c2.9-0.4,7,0.4,7.4-2.5h-19.8c-11-3-25.4-2.7-39.6-2.5c-7.8,1.2-9.7-5.4-14.9,0c-2,1.3-4,2.6-7.4,2.5c-1-6.7-1-9.3-7.4-14.9
		c22.9,6.6,51.2,7.2,76.7,5c14.4,14.2,42.6,2.5,64.4,7.4c-0.1,3.2-3.2,3.4-2.5,7.4c7.8-8,19.8,3.5,24.8-7.4
		c-47.6-14.6-136-0.1-175.8-29.7c4.3,0.2,7.7-0.6,9.9-2.5c30.8,7.1,80.5-1.5,111.4-9.9c6.8,3,10.3,5.4,17.3,2.5v7.4
		c-6.7-1.7-4.8,5.1-7.4,7.4c8.9,2.6,37.3,8.1,34.7,0c11.8-3.8,27.4-3.9,42.1-4.9C609.4,201.8,646.6,200,686.5,196.3"/>
	<path class="st5" d="M347.4,218.6c1.1,6.9-13.5-1.9-12.4,4.9c5,4.3,31.9-0.6,14.9-4.9c3.6,1.4,12.8-2.9,12.4,2.5
		c0,3.3-4.3,2.3-4.9,4.9c-11.3,1.1-21,3.8-34.7,2.5c-1-5.9,11.3,1.4,7.4-7.4h-9.9C324.4,215.4,339.1,220.2,347.4,218.6"/>
	<path class="st6" d="M411.8,226.1c14.2-0.2,28.6-0.5,39.6,2.5v4.9c-2-1.7-6.8-3.9-7.4,0h-5C435.8,225.7,403.5,237.4,411.8,226.1"/>
	<path class="st6" d="M285.5,240.9c0.3-2.8-3.6-3.9,0-5c14-0.9,24.3-5.4,37.1-7.4c13.7,1.3,23.3-1.4,34.7-2.5c4.3,1,6.3-3.7,7.4,0
		C344.5,237.1,308.5,232.5,285.5,240.9"/>
	<path class="st3" d="M416.7,233.5H439h4.9c-0.5,2.1,1,2.3,2.5,2.5c1.3,3.7,3.7,6.2,4.9,9.9c-15.6,15.8-68.5,7.4-71.8,27.2
		c0-1.4,2-2.8,2.5,0c-3.5,0.6-4.2,4.1-7.4,5c-4.1-1.5-15.2,11.1-14.8,22.3c-10.5,4.3-27.9,1.8-42.1,2.5c-0.4-9.8,3.8,0.8,7.4-5
		c-2.1-7.3-8,1.5-12.4,0c0.9-3.2,4.4-3.9,4.9-7.4c-10.1-0.4-29.6,8.4-34.7-2.5h2.5c10.2,0.3,19.1-0.7,24.8-4.9c5.8,0-0.9-6.8-5-4.9
		c0.4-2.9,3.9-2.7,7.4-2.5c2.9,2.9,8.7,2.8,14.8,2.5c16.4-0.1,23.5-9.5,37.1-12.4c-1.1-4.7,3.4-14.9-4.9-12.4
		c-2.8-0.5-3.9-2.7-5-4.9c2.8-0.3,3.9,3.6,5,0c5.6-6.7,19.3-5.4,24.8-12.4h2.5C396.2,234.4,411.7,239.2,416.7,233.5"/>
	<path class="st10" d="M221.2,253.3c6.8-0.2,5,4.1,9.9,0c8.3-1.2,18.4-9.5,24.8-4.9c-8.3,8.2-23.5,9.5-24.8,24.8
		c4.7,1.1,4.5,7.1,12.4,4.9h2.5v2.5c-0.4,7,15.3-2.1,14.9,5c-20.5,0.7-40.1,0.5-49.5-9.9c0.6-7.6,5.4-11.1,7.4-17.3
		C225,258.3,221.7,256.4,221.2,253.3"/>
	<path class="st6" d="M193.9,263.2c-1.9-0.6-4.9-0.1-4.9-2.5c6,1,5.4-4.5,12.4-2.5c3.4,4.8,9.1-8.9,19.8-5c0.5,3.1,3.9,5.1-2.5,5
		c-2.9,1.2-5.6,2.6-7.4,4.9c-2.9,0.4-7-0.4-7.4,2.5C201.6,263.7,198.2,263,193.9,263.2"/>
	<path class="st5" d="M193.9,263.2c4.3-0.2,7.7,0.6,9.9,2.5c6.5,3.5-8.1,6.5-12.4,7.4C190.9,268.4,194.2,267.6,193.9,263.2"/>
	<path class="st9" d="M414.2,265.7c-7.3,4.2-20.4,2.7-29.7,4.9C389.5,265.6,406.5,259.7,414.2,265.7"/>
	<path class="st11" d="M285.5,280.5c-1.5,8.8-17-1.8-24.8,5c0.4-7-15.3,2.1-14.9-5H285.5z"/>
	<path class="st6" d="M404.3,290.4c-1.5-2.1-14.8-6.4-2.5-7.4c4.9,0,3.2,6.8,9.9,4.9h17.3h14.9v2.5H404.3z"/>
	<path class="st7" d="M510.8,285.5c-9.9,5.7-30.5,0.9-44.6,2.5h-22.3h-14.9C454.9,277,479.3,282.9,510.8,285.5"/>
	<path class="st3" d="M374.6,280.5c-5.6,5.9,1.1,13.4,7.4,14.8c0.1,1.5,0.4,2.9,2.5,2.5c7.9,8.6-12.8,3.6-19.8,5
		c-0.8-6.5,5.2-6.4,9.9-7.4C372.4,293.4,363.7,280.2,374.6,280.5"/>
	<path class="st7" d="M478.6,310.2c-29.8-1.6-41.9,4.9-66.8,0v-2.5h66.8V310.2z"/>
	<path class="st3" d="M236,315.2c-9.4-3-22.4-2.3-24.8-12.4c23.6-6.6,51.5-5.8,69.3-12.4c1.4,7.1,1.8,4.3,5,12.4
		c-12.8-3.9-37.2,5.9-44.6,0c-6.2-0.4-7.7,3.9-12.4,5c1.8,2.3,4.5,3.7,7.4,4.9V315.2z"/>
	<path class="st10" d="M283,317.6c-16.8,0.9-40.6,6-49.5,0c2.1,0.5,2.3-1,2.5-2.5v-2.5h2.5c48.5,4.3,132.9-6.4,175.8,7.4
		c-27-1.4-42.3-1.4-69.3,0c-4.2-5.7-18.9-0.9-27.2-2.5H283z"/>
	<path class="st10" d="M221.2,317.6c1.6,2.5,5.7,2.6,4.9,7.4c-8.6,2-9.5-3.7-17.3-2.5c0.5-2,2.5-2.5,2.5-5H221.2z"/>
	<path class="st11" d="M206.3,327.5c-4.4-4.6-6.3,2-14.8,0c-3.6,1.1,0.2,2.2,0,4.9H189c-2.5,0-2.9-2-5-2.5c-0.5,1.9-2.1,2.9-4.9,2.5
		c-2.9,2.1-6.6,3.3-12.4,2.5v-7.4c9.4,3.6,4.8-6.8,12.4-4.9c6.2,3.7,20.1-6.2,32.2-5c0,2.5-2,2.9-2.5,5
		C208.3,324.6,206.3,325.1,206.3,327.5"/>
	<path class="st7" d="M258.3,337.4c-3.3-0.3-17.9-0.4-9.9,2.5c-0.5,3.7-6,2.3-9.9,2.5C239.4,333.5,253.7,328.9,258.3,337.4"/>
	<path class="st6" d="M498.4,374.6c-5.8-0.8-10.2-3-14.8-4.9c0.3-3,0.7-5.9,4.9-5v2.5C493.2,368.2,499.2,368,498.4,374.6"/>
	<path class="st13" d="M223.6,382c-1.5,0.1-2.9,0.4-2.5,2.5h-2.5h-2.5c-5.6,0.7-9.3-0.6-9.9-5C211.4,381,222.6,376.5,223.6,382"/>
	<path class="st6" d="M525.6,389.4c-3.4,0.1-5.4-1.2-7.4-2.5c0.2-2.8-3.6-3.9,0-4.9h4.9c2.5,0,2.9-2,5-2.5c1.4,3.6,3.9,6,7.4,7.4
		C534.8,390.3,529.3,389,525.6,389.4"/>
	<path class="st13" d="M540.5,401.8v-2.5c-3.1-7.4-9.9-1.3-14.8-9.9c3.7-0.4,9.1,0.9,9.9-2.5c-3.6-1.4-6-3.9-7.4-7.4
		c18.6-2.9,45.9,3.1,69.3,5c-8.4,1.5-4.6,15.2-14.8,14.8c-5.8-8.4-18.8-2-34.7-2.5c-1.4,8,0.7,12.4,5,14.8H543
		C546.2,408.4,546.2,402.5,540.5,401.8"/>
	<path class="st13" d="M491,401.8c2.9,6.5-7.6,10.7,2.5,9.9c-4,4.3-11.1,5.4-19.8,4.9c0.8-3.3,3.5-4.7,2.5-9.9
		C485.4,409.4,483.2,400.6,491,401.8"/>
	<path class="st8" d="M399.4,426.6c-3.4,0.1-5.4-1.2-7.4-2.5c2.1-3.7,8-3.6,12.4-4.9c-1,3.5-3,4.2,0,7.4H399.4z"/>
	<path class="st7" d="M166.7,429c3.4,0.1,5.4-1.2,7.4-2.5c0.2,4.3-0.6,7.7-2.5,9.9c6.5-0.6,8.1-5.1,7.4,5c-4.7,0.6-5.5-2.8-9.9-2.5
		c-0.6,1.9-0.1,4.9-2.5,4.9V429z"/>
	<path class="st6" d="M491,431.5c15.9-4.7,33.7-7.6,42.1-19.8c2.9-0.4,4.4,0.5,4.9,2.5c0.1,3.4-1.2,5.4-2.5,7.4
		c-1.9,0.6-4.9,0.1-4.9,2.5c-6.6,1.7-17.2,7.4-29.7,9.9C497.2,433.6,491.7,434.9,491,431.5"/>
	<path class="st8" d="M364.7,429c-3.4,2.5,1.1,4.1-4.9,7.4h-2.5h-2.5c-0.5-1.9-2.1-2.9-4.9-2.5C348.5,427.5,364.2,425.6,364.7,429"
		/>
	<path class="st13" d="M379.6,468.6c-6.9-7.4-4.3-16.6,9.9-14.8C370.7,475.4,440.7,472,434,481C412.3,480.5,397.3,473.2,379.6,468.6
		"/>
	<path class="st13" d="M483.6,538c9.1,4.1,26.7,12.8,22.3,22.3c-7.2-4.1-9.8-15.5-19.8-9.9c0.2-4.3-0.6-7.7-2.5-9.9V538z"/>
	<path class="st5" d="M179.1,594.9c-4.7-1.1-14.9,3.4-12.4-4.9h14.9C181.6,592.4,179.5,592.9,179.1,594.9"/>
	<path class="st12" d="M342.5,577.6c1.5-6.7,10.3-6.2,9.9-14.9c-3.5-0.6-4.2-4.1-7.4-4.9C342.6,561.4,340,577.4,342.5,577.6
		 M379.6,594.9h-34.7c-0.2-13.9-15.9-12.2-12.4-29.7c-7.1-4.5-17.4-5.7-17.3-17.3c15.4,11.4,11.7-10.8,32.2-7.4
		c2.7,10.5,10.2,16.2,14.9,24.8c-2.2,4.4-6.9,6.3-5,14.9C369.7,580,372.4,589.7,379.6,594.9"/>
	<path class="st7" d="M535.5,258.2c-4.6,4.8-4.5,2-2.5,9.9h-14.8c0.2-3.5,0.4-7-2.5-7.4C519.3,256.6,530.5,253.5,535.5,258.2"/>
	<path class="st8" d="M347.4,505.8c-3.3,7.1-15.7,5.1-22.3,2.5C324.9,494.7,342,503.3,347.4,505.8"/>
	<path class="st3" d="M491,184c8.2-5.6,4.9-20.8-2.5-17.3c5.6-5,25.4-6.6,9.9,0c9.2,1.8,10.6-4.2,19.8-2.5h34.7
		c-1.3,3.7-3.7,6.2-5,9.9c-12,5.3-29.8,4.9-39.6,12.4C501.3,189.3,497.8,186.9,491,184"/>
	<path class="st5" d="M250.9,325.1c1.1,10.1,25.6,5.4,24.8-2.5C263.1,324.7,261,322.4,250.9,325.1 M236,315.2
		c-0.1,1.5-0.4,2.9-2.5,2.5c8.9,6,32.7,0.9,49.5,0c6.7,5.7,23.9,0.9,34.7,2.5h14.8c12.4,5.7,35.5,0.9,52,2.5c-0.5,2.8-2.7,3.9-5,5
		c-30.4,7.6-81.6,6.7-113.9,7.4c-2.8,0.1-6.6-4.7,0,2.5h-7.4c-4.6-8.6-18.8-4-19.8,4.9c-6.9,3-17.1,2.7-27.2,2.5
		c-5.2-5.7-33.5,1.9-22.3-12.4h2.5c8.9-3.2,17.1,8.2,14.8-4.9c0-2.5,2-2.9,2.5-5c7.8-1.2,8.7,4.5,17.3,2.5c0.7-4.9-3.3-4.9-4.9-7.4
		c13.4-3.3-14-2.5-19.8-2.5c-10-0.1-19.1,0.7-22.3,7.4c-7.6-1.8-3,8.5-12.4,5v-12.4h7.4c1.4-5.5-4.7-3.5-4.9-7.4
		c2.9-7,23.4,3.6,22.3-7.4c-8.3,4.4-12.7-1.7-24.8,0v-5c11,2.7,12.3-4.2,19.8-4.9c4.4,9.1,24.6,14.6,27.2,0
		c-6.3-4.3-8.7,2.8-12.4-2.5c1.7-4.9,13.8,0.6,14.8-5c17.1,11.7,42,4.8,66.8,5c5.1,10.8,24.5,2.1,34.7,2.5c-0.6,3.5-4.1,4.2-5,7.4
		c4.4,1.5,10.3-7.3,12.4,0c-3.6,5.7-7.8-4.8-7.4,4.9c14.2-0.6,31.6,1.9,42.1-2.5c-0.4-11.2,10.8-23.7,14.9-22.3v2.5
		c-11-0.3-2.2,12.9,0,14.8c-4.7,1-10.7,0.9-9.9,7.4c7-1.3,27.7,3.7,19.8-4.9c9-1.4,20.5,7.3,27.2,0h7.4c3.5,4.1,23.8,4.1,27.2,0h2.5
		h61.9c4.5,6.3,19.3,2.1,24.8,7.4c-12.4,1.6-31.3-3.2-39.6,2.5h-17.3h-66.8H258.3c-11.5-3.3-8.3,8.2-19.8,4.9H236
		c-2.9-1.2-5.6-2.6-7.4-4.9c4.7-1.1,6.2-5.3,12.4-5c7.4,5.9,31.7-3.9,44.6,0c-3.2-8.1-3.6-5.2-5-12.4c-17.8,6.6-45.7,5.8-69.3,12.4
		C213.6,312.8,226.6,312.2,236,315.2"/>
	<path class="st5" d="M543,159.2h19.8c17.3,3.8-7.5,12.9-14.9,14.8c1.3-3.7,3.7-6.2,5-9.9h-34.7C517,152.6,538.2,169,543,159.2"/>
	<path class="st5" d="M305.3,179c7.7-7.8,21.8-7.6,32.2-2.5C324.1,174.7,317.5,179.6,305.3,179"/>
	<path class="st7" d="M191.5,332.5c0.3-2.8-3.6-3.9,0-5c8.6,2,10.4-4.6,14.8,0C208.6,340.7,200.4,329.3,191.5,332.5"/>
	<path class="st11" d="M335,265.7c2.5,0,2.9-2,4.9-2.5c2.8,7.8-3.9,6-4.9,9.9h-2.5c-7.1-3.5-12.6,6.8-14.8,0
		C322,269.1,333,271.9,335,265.7"/>
	<path class="st6" d="M520.7,545.4c-4.6,4.3-17.7,3.2-19.8-2.5c1.9-0.6,4.9-0.1,5-2.5C512.2,540.7,517.6,541.8,520.7,545.4"/>
	<path class="st9" d="M305.3,208.7c-8.2-0.1-17.5,1-17.3-7.4c7.3-3.5,30-4.5,37.1,0c-0.5,2.8-2.7,3.9-5,4.9
		C314.3,206.2,312.9,210.5,305.3,208.7"/>
	<path class="st10" d="M431.6,263.2c0.3-10.1,12.9-7.7,17.3-2.5C443.1,261.5,439.6,264.6,431.6,263.2"/>
	<path class="st6" d="M592.5,188.9c6.1-3.8,15-4.8,24.8-4.9c4.3-0.1,6.3,1.9,7.4,4.9C610.3,190.5,606.8,190.5,592.5,188.9"/>
	<path class="st6" d="M297.9,216.2c8.1-0.1,12.3-4.2,22.3-2.5C320.5,220.7,300.8,220.5,297.9,216.2"/>
	<path class="st9" d="M384.5,322.6c-16.5-1.6-39.6,3.3-52-2.5h12.4c27-1.4,42.3-1.4,69.3,0c-0.5,3.7-6,2.3-9.9,2.5H384.5z"/>
	<path class="st10" d="M577.6,315.2c5.4-5.1-5.1-16.3,7.4-17.3c-7.2,6.6,14.8,8.1,5,17.3H577.6z"/>
</g>
</svg>
