<?xml version="1.0" encoding="utf-8"?>
<!-- Generator: Adobe Illustrator 22.1.0, SVG Export Plug-In . SVG Version: 6.00 Build 0)  -->
<svg version="1.1" id="Layer_1" xmlns="http://www.w3.org/2000/svg" xmlns:xlink="http://www.w3.org/1999/xlink" x="0px" y="0px"
	 viewBox="0 0 841.9 595.3" style="enable-background:new 0 0 841.9 595.3;" xml:space="preserve">
<style type="text/css">
	.st0{display:none;}
	.st1{fill:none;stroke:#EE332D;stroke-width:0.414;stroke-miterlimit:10;}
	.st2{clip-path:url(#SVGID_2_);}
	.st3{fill:none;stroke:#EE332D;stroke-width:0.408;stroke-miterlimit:10;}
	.st4{clip-path:url(#SVGID_4_);}
</style>
<g id="Layer_3" class="st0">
</g>
<line class="st1" x1="8.3" y1="465.5" x2="386" y2="465.5"/>
<line class="st1" x1="8.9" y1="90.1" x2="386" y2="90.1"/>
<line class="st1" x1="8.1" y1="278.8" x2="385.2" y2="278.8"/>
<g>
	<defs>
		<rect id="SVGID_1_" y="81.9" width="394.2" height="391.7"/>
	</defs>
	<clipPath id="SVGID_2_">
		<use xlink:href="#SVGID_1_"  style="overflow:visible;"/>
	</clipPath>
	<path class="st2" d="M191.3,465.2V190h-44.4c-24.4,106.4-34.4,272.6-98.5,275.2v-14.3c74.9,0,57-361.9,149-361.9
		c94.6,0,72,361.9,149,361.9v14.3c-62.7,0-74.5-168-99.2-275.2h-42.6v275.2H191.3z M150.1,176.7h41.2v-72.4
		C172.3,109.4,159.8,137.7,150.1,176.7 M204.6,104.7v72H244C234.3,138.8,222.1,110.8,204.6,104.7"/>
</g>
<line class="st3" x1="466.3" y1="278.3" x2="833.9" y2="278.3"/>
<line class="st3" x1="466.3" y1="88.5" x2="833.9" y2="88.5"/>
<line class="st3" x1="466.3" y1="462.9" x2="833.9" y2="462.9"/>
<g>
	<defs>
		<rect id="SVGID_3_" x="458.2" y="80.4" width="383.6" height="390.4"/>
	</defs>
	<clipPath id="SVGID_4_">
		<use xlink:href="#SVGID_3_"  style="overflow:visible;"/>
	</clipPath>
	<path class="st4" d="M584.5,358c-20.2,3.9-34.7,26.2-47.1,58c-8.1,20.9-19.5,33.3-33.3,33.3v14.2c21.2,0,36.8-18.4,48.1-47.4
		c10.3-26.2,20.9-43.5,36.8-44.6L584.5,358z M714.7,371.4c16.3,0.7,27.2,20.5,38.2,49.2c10.6,27.6,26.2,42.8,46.3,42.8v-14.2
		c-15.2,0-26.5-15.9-35.7-40c-11-28.7-25.5-48.8-44.9-51.6L714.7,371.4z M732.7,277.3c0-93.4-33.3-189.3-81.4-189.3
		c-46.7,0-81.4,96.2-81.4,189.3c0,93,34.7,189.3,81.4,189.3C699.5,466.6,732.7,370.7,732.7,277.3 M717.1,277.3
		c0,88.4-29.7,175.1-65.8,175.1c-37.5,0-66.2-86.7-66.2-175.1c0-88.4,28.7-175.1,66.2-175.1C687.4,102.2,717.1,188.9,717.1,277.3"/>
</g>
</svg>
