<?xml version="1.0" encoding="utf-8"?>
<!-- Generator: Adobe Illustrator 22.1.0, SVG Export Plug-In . SVG Version: 6.00 Build 0)  -->
<svg version="1.1" id="Layer_1" xmlns="http://www.w3.org/2000/svg" xmlns:xlink="http://www.w3.org/1999/xlink" x="0px" y="0px"
	 viewBox="0 0 850.4 1133.9" style="enable-background:new 0 0 850.4 1133.9;" xml:space="preserve">
<style type="text/css">
	.st0{fill:#2075BB;}
	.st1{fill:#020203;}
	.st2{clip-path:url(#SVGID_2_);}
	.st3{clip-path:url(#SVGID_4_);}
	.st4{clip-path:url(#SVGID_6_);}
	.st5{clip-path:url(#SVGID_8_);}
</style>
<rect x="0.3" y="1.1" class="st0" width="850.1" height="1132.7"/>
<g>
	<path class="st1" d="M124.1,447.5c-1.9,0-3.5-0.7-4.9-2.2c-1.4-1.4-2.7-3.4-3.8-5.8c-1.1-2.4-2.1-5.3-2.9-8.5s-1.6-6.6-2.3-10.2
		c-0.7-3.6-1.4-7.2-2-10.9c-0.6-3.7-1.3-7.3-2-10.6c-1.2,3.6-2.7,6.6-4.4,8.8c-1.7,2.2-3.7,3.4-6.1,3.4c-1.2,0-2.3-0.3-3.3-0.9
		s-2-1.5-2.8-2.6s-1.6-2.4-2.4-4c-0.7-1.5-1.4-3.3-2-5.1c-0.7,3.4-1.3,6.9-1.9,10.6s-1.3,7.3-1.9,10.9c-0.7,3.6-1.4,7-2.3,10.2
		c-0.8,3.2-1.8,6.1-2.9,8.5c-1.1,2.5-2.4,4.4-3.8,5.9c-1.4,1.5-3.1,2.3-5,2.4v-2.7c1.8,0,3.3-1,4.6-3s2.4-4.6,3.4-7.8
		c1-3.2,1.9-6.9,2.7-11c0.8-4.1,1.5-8.4,2.3-12.7c0.8-4.3,1.6-8.6,2.5-12.7s1.9-7.8,3.1-11s2.6-5.8,4.2-7.8s3.5-3,5.7-3s4.2,1,5.8,3
		c1.6,2,3,4.6,4.2,7.8c1.2,3.2,2.2,6.9,3.1,11s1.7,8.4,2.4,12.7c0.8,4.3,1.5,8.6,2.3,12.7s1.6,7.8,2.6,11s2.1,5.8,3.4,7.8
		s2.9,3,4.7,3v2.8H124.1z M95.6,378.5c-1.1,0-2.2,0.4-3.1,1.1c-0.9,0.8-1.7,1.8-2.5,3.1c-0.8,1.3-1.4,3-2,4.8
		c-0.6,1.9-1.2,3.9-1.7,6.1c0.5,2.2,1.1,4.3,1.7,6.1c0.6,1.8,1.3,3.4,2,4.8c0.8,1.3,1.6,2.4,2.5,3.1c0.9,0.8,1.9,1.1,3.1,1.1
		c1.1,0,2.1-0.4,2.9-1.1c0.9-0.8,1.7-1.8,2.4-3.1c0.8-1.3,1.4-2.9,2.1-4.8c0.6-1.9,1.2-3.9,1.7-6.1c-0.5-2.2-1.1-4.3-1.7-6.2
		c-0.6-1.9-1.3-3.5-2-4.8s-1.5-2.4-2.4-3.1S96.7,378.5,95.6,378.5z"/>
	<path class="st1" d="M177.8,437.5c-0.1,0.1-0.1,0.3-0.2,0.4c0,0.1-0.1,0.3-0.2,0.5c-1.1,2.8-2.4,5.1-3.9,6.7s-3.3,2.5-5.4,2.5v-2.7
		c1.3,0,2.5-0.6,3.6-1.7s2-2.7,2.8-4.8c0.6-1.5,1.3-3,2-4.4L177.8,437.5z M174.8,393.5c0-1.6,0.2-3.4,0.6-5.5c0.4-2.1,1-4,1.9-5.9
		s2.1-3.5,3.6-4.8s3.4-1.9,5.7-1.9c2.2,0,4.1,0.6,5.6,1.9s2.7,2.9,3.6,4.8c0.9,1.9,1.5,3.8,1.9,5.9s0.6,3.9,0.6,5.5h-2.5
		c0-2-0.3-3.9-0.8-5.7c-0.5-1.9-1.3-3.5-2.2-4.9s-1.9-2.6-3-3.4c-1.1-0.9-2.2-1.3-3.3-1.3s-2.2,0.4-3.3,1.3s-2.1,2-3,3.4
		s-1.6,3.1-2.2,4.9c-0.5,1.9-0.8,3.8-0.8,5.7H174.8z M174.8,393.4h2.5v36h-2.5V393.4z M186.6,447.5c-2.3,0-4.2-0.6-5.7-1.9
		s-2.7-2.9-3.6-4.8c-0.9-1.9-1.5-3.8-1.9-5.9s-0.6-3.9-0.6-5.5h2.5c0,2,0.3,3.9,0.8,5.8c0.5,1.8,1.3,3.5,2.2,4.9s1.9,2.6,3,3.4
		c1.1,0.9,2.2,1.3,3.3,1.3V447.5z M182.4,411.2c4.1-0.4,7.4-2,9.6-5c2.3-2.9,3.5-7.2,3.7-12.8h2.5c0,1.3-0.1,2.9-0.4,4.6
		c-0.3,1.8-0.7,3.5-1.3,5.2s-1.4,3.3-2.4,4.8s-2.2,2.5-3.7,3.2c1.2,0.4,2.3,1.1,3.1,2.2s1.6,2.5,2.2,4c0.6,1.6,1.2,3.3,1.6,5.2
		c0.5,1.9,0.9,3.9,1.4,5.8c-0.6,2.7-1.4,5.2-2.2,7.5s-1.7,4.3-2.7,6s-2.1,3-3.4,4c-1.2,1-2.6,1.4-4.2,1.4v-2.7c1.1,0,2.1-0.4,3-1.2
		c0.9-0.8,1.8-1.9,2.5-3.4c0.8-1.4,1.5-3.1,2.1-5.1s1.2-4.1,1.8-6.5c-0.8-3.1-1.5-5.8-2.3-7.9c-0.7-2.1-1.6-3.9-2.6-5.2
		c-1-1.3-2.2-2.3-3.6-3C186.2,411.9,184.5,411.4,182.4,411.2z M198.9,428.7c0.5,2.3,1.1,4.5,1.8,6.5c0.6,2,1.4,3.7,2.2,5.1
		s1.7,2.6,2.6,3.4c0.9,0.8,1.9,1.2,3,1.2v2.7c-1.6,0-2.9-0.6-4.2-1.6c-1.2-1-2.3-2.3-3.4-4c-1-1.7-1.9-3.7-2.7-5.9
		c-0.8-2.3-1.5-4.7-2.2-7.4L198.9,428.7L198.9,428.7z"/>
	<path class="st1" d="M252.5,444.4c1.3,0,2.4-0.6,3.1-1.9c0.8-1.3,1.4-3,1.7-5.2c0.4-2.2,0.6-4.8,0.8-7.7c0.1-2.9,0.2-6.1,0.2-9.4
		s0-6.7,0-10.2s0-6.9,0.2-10.2c0.1-3.3,0.4-6.4,0.8-9.4c0.4-2.9,1-5.5,1.8-7.7s1.9-3.9,3.2-5.2c1.3-1.3,3-1.9,5-1.9v2.9
		c-2.1,0-3.7,1.1-4.8,3c-1.1,2-1.9,4.6-2.5,7.8c-0.5,3.2-0.8,6.9-0.9,11s-0.1,8.3-0.1,12.6c0,4.3,0,8.5-0.1,12.6s-0.4,7.8-0.9,11
		s-1.3,5.8-2.5,7.8c-1.1,2-2.7,2.9-4.8,2.9v-2.8H252.5z M259.3,424.4c0.6,2.9,1.2,5.5,1.9,8c0.7,2.5,1.4,4.6,2.2,6.4
		s1.7,3.3,2.8,4.3c1,1,2.2,1.6,3.5,1.6c1.2,0,2.3-0.4,3.2-1.3c1-0.9,1.8-2.1,2.6-3.7c0.8-1.6,1.5-3.5,2.2-5.6
		c0.7-2.2,1.3-4.5,1.8-7.1h3c-0.7,2.9-1.4,5.6-2.2,8.1c-0.8,2.5-1.7,4.7-2.7,6.5s-2.2,3.3-3.5,4.3s-2.7,1.6-4.4,1.6
		c-1.3,0-2.4-0.3-3.5-1c-1-0.7-2-1.7-2.9-2.9c-0.9-1.3-1.7-2.7-2.5-4.5c-0.8-1.7-1.4-3.6-2.1-5.7L259.3,424.4z M279.7,399.6
		c-0.6-3-1.2-5.7-1.9-8.3c-0.7-2.6-1.4-4.8-2.3-6.7c-0.8-1.9-1.8-3.4-2.8-4.5s-2.2-1.6-3.5-1.6v-2.7c1.8,0,3.4,0.6,4.8,1.9
		s2.6,3,3.7,5.2c1,2.2,2,4.7,2.8,7.6s1.6,6,2.3,9.3h-3.1V399.6z M282.5,427c0.5,2.6,1.1,4.9,1.8,7c0.6,2.1,1.4,4,2.2,5.6
		c0.8,1.6,1.7,2.8,2.7,3.7c1,0.9,2.1,1.3,3.3,1.3v2.7c-1.6,0-3-0.5-4.3-1.6c-1.3-1-2.4-2.5-3.4-4.3s-1.9-4-2.7-6.5
		c-0.8-2.5-1.5-5.2-2.2-8.1L282.5,427z"/>
	<path class="st1" d="M336.4,444.7c1.6,0,2.9-1,3.7-3c0.8-2,1.3-4.6,1.6-7.8c0.3-3.2,0.4-6.9,0.4-11.1c0-4.1,0-8.4,0-12.7
		c0-4.3,0.1-8.5,0.3-12.7c0.2-4.1,0.6-7.8,1.4-11.1c0.8-3.2,1.9-5.8,3.3-7.8c1.5-2,3.4-2.9,5.9-2.9v2.8c-2.1,0-3.7,1.1-4.8,3
		s-1.9,4.6-2.4,7.9s-0.7,7-0.8,11.1c0,4.1,0,8.3,0,12.7c0,4.3,0,8.5-0.1,12.7c-0.1,4.1-0.4,7.8-1,11c-0.5,3.2-1.4,5.8-2.6,7.8
		s-2.9,2.9-5.1,2.9v-2.8H336.4z M345.1,418.2c0,3.6,0.1,6.9,0.3,10.1c0.2,3.2,0.5,6,1.1,8.4c0.5,2.4,1.3,4.3,2.4,5.8
		c1,1.4,2.4,2.2,4.2,2.2v2.8c-2.3,0-4.1-0.8-5.5-2.4s-2.5-3.8-3.2-6.5c-0.8-2.7-1.3-5.8-1.6-9.3c-0.3-3.5-0.5-7.2-0.5-11
		L345.1,418.2z M353,375.6h6.2v2.9H353V375.6z M353,444.7h6.2v2.9H353V444.7z M387.6,447.5c-2.2,0-4.1-1-5.7-3s-3-4.6-4.2-7.8
		c-1.2-3.2-2.2-6.9-3.1-11s-1.7-8.4-2.5-12.7c-0.8-4.3-1.6-8.6-2.3-12.7c-0.8-4.1-1.7-7.8-2.7-11s-2.1-5.8-3.4-7.8s-2.8-3-4.6-3
		v-2.7c2.2,0,4.2,1,5.8,3c1.6,2,3,4.6,4.2,7.8c1.2,3.2,2.2,6.9,3.1,11s1.7,8.4,2.4,12.7c0.8,4.3,1.5,8.6,2.3,12.7s1.6,7.8,2.6,11
		s2.1,5.8,3.4,7.8s2.9,3,4.7,3L387.6,447.5L387.6,447.5z M374.4,414.3c-0.7,4.2-1.5,8.3-2.4,12.3s-1.9,7.5-3,10.6
		c-1.2,3.1-2.5,5.6-4.1,7.5s-3.5,2.8-5.7,2.8v-2.9c1.9,0,3.5-1.1,4.8-3.2s2.5-5,3.5-8.4c1-3.5,1.9-7.4,2.7-11.8
		c0.8-4.4,1.6-8.8,2.4-13.3L374.4,414.3z"/>
	<path class="st1" d="M444,428.7c-0.6,2.6-1.4,5.1-2.2,7.4c-0.8,2.3-1.7,4.2-2.7,5.9c-1,1.7-2.1,3-3.3,4c-1.2,1-2.6,1.5-4.2,1.6
		v-2.7c1.1,0,2.1-0.4,3-1.2c0.9-0.8,1.8-1.9,2.6-3.4c0.8-1.4,1.5-3.1,2.1-5.1s1.2-4.1,1.8-6.5L444,428.7L444,428.7z M457.7,411.2
		c-2.1,0.2-3.8,0.7-5.2,1.3c-1.4,0.7-2.6,1.7-3.6,3s-1.9,3.1-2.6,5.2c-0.8,2.1-1.5,4.8-2.2,7.9c0.5,2.3,1.1,4.5,1.8,6.5
		s1.3,3.7,2.1,5.1c0.8,1.4,1.6,2.6,2.5,3.4s1.9,1.2,3,1.2s2.2-0.4,3.1-1.2c1-0.8,1.8-1.9,2.6-3.4c0.8-1.4,1.4-3.1,2.1-5.1
		s1.2-4.1,1.8-6.5h2.7c-0.7,2.7-1.4,5.2-2.2,7.5c-0.8,2.3-1.7,4.3-2.7,6s-2.1,3-3.3,4c-1.2,1-2.6,1.4-4.1,1.4
		c-1.6,0-2.9-0.5-4.2-1.4s-2.3-2.3-3.3-4s-1.9-3.7-2.7-6c-0.8-2.3-1.5-4.8-2.2-7.5c0.5-2,0.9-3.9,1.4-5.8s1-3.7,1.6-5.2
		c0.6-1.6,1.3-2.9,2.2-4c0.8-1.1,1.9-1.9,3.1-2.2c-1.5-0.7-2.7-1.8-3.7-3.2c-1-1.5-1.8-3.1-2.4-4.8c-0.6-1.7-1-3.5-1.3-5.2
		c-0.3-1.8-0.4-3.3-0.4-4.6h2.5c0.2,5.6,1.5,9.8,3.7,12.8C450.3,409.2,453.5,410.9,457.7,411.2z M462.8,393.5c0-2-0.3-3.9-0.8-5.7
		c-0.5-1.9-1.3-3.5-2.2-4.9c-0.9-1.4-1.9-2.6-3-3.4c-1.1-0.9-2.2-1.3-3.3-1.3c-1.1,0-2.2,0.4-3.3,1.3c-1.1,0.9-2.1,2-3,3.4
		s-1.6,3.1-2.2,4.9c-0.5,1.9-0.8,3.8-0.8,5.7h-2.5c0-1.6,0.2-3.4,0.6-5.5s1-4,1.9-5.9s2.1-3.5,3.6-4.8s3.4-1.9,5.7-1.9
		c2.2,0,4.1,0.6,5.6,1.9s2.7,2.9,3.6,4.8s1.5,3.8,1.9,5.9s0.6,3.9,0.6,5.5H462.8z M463.6,434c0.7,1.4,1.4,2.9,2,4.4
		c0.8,2.1,1.7,3.6,2.8,4.8c1.1,1.1,2.3,1.7,3.6,1.7v2.7c-2.1,0-3.8-0.8-5.4-2.5c-1.5-1.6-2.8-3.9-3.9-6.7c-0.1-0.2-0.1-0.3-0.2-0.5
		c0-0.1-0.1-0.3-0.2-0.4L463.6,434z"/>
	<path class="st1" d="M515.9,444.8c1.3,0,2.4-0.7,3.1-2c0.8-1.3,1.4-3.1,1.8-5.4s0.7-4.9,0.8-7.9s0.2-6.2,0.2-9.6s0-6.8,0-10.4
		c0-3.5,0-7,0.2-10.3c0.1-3.3,0.4-6.5,0.8-9.4s1-5.5,1.7-7.6c0.8-2.1,1.8-3.8,3.1-4.9c1.3-1.2,3-1.6,5-1.4c2.7,0.3,4.9,1.3,6.5,2.9
		s2.4,3.9,2.3,6.9h-2.7c0-2-0.6-3.6-1.7-4.9c-1.1-1.3-2.6-2.1-4.5-2.3c-2.1-0.3-3.6,0.5-4.7,2.3s-1.9,4.3-2.4,7.5s-0.8,6.9-0.9,11
		c-0.1,4.2-0.1,8.4-0.1,12.8s-0.1,8.7-0.2,12.9c-0.1,4.2-0.4,8-1,11.4c-0.5,3.3-1.4,6-2.5,8c-1.1,2-2.8,3-4.9,3v-2.6H515.9z
		 M518.9,411.8v-2.5h14.4v2.5H518.9z M543.3,447.7L543.3,447.7c-1.2,0-2.3-0.3-3.4-0.8c-1.1-0.5-2.2-1.3-3.2-2.3s-2-2.2-2.8-3.6
		c-0.9-1.4-1.6-2.9-2.3-4.6c-0.4-1-0.9-1.9-1.5-2.7c-0.6-0.8-1.3-1.5-2-2s-1.5-1-2.2-1.3s-1.4-0.4-2.1-0.4v-2.7
		c2.1,0,4.1,0.8,6.1,2.5c2,1.6,3.5,3.9,4.6,6.7c1,2.6,2.4,4.7,3.9,6.3c1.6,1.6,3.2,2.4,4.8,2.4h0.1L543.3,447.7L543.3,447.7z"/>
	<path class="st1" d="M616.6,418.7v-2.8h12.6c-0.4,2.1-0.7,4.1-1,5.9s-0.7,3.6-1,5.3c0.5,2.6,1.2,4.9,1.8,7c0.7,2.1,1.4,4,2.2,5.6
		s1.6,2.8,2.6,3.7c1,0.9,2,1.3,3.2,1.3v2.7c-1.3,0-2.5-0.4-3.6-1.1s-2.1-1.7-3-3s-1.7-2.8-2.5-4.5c-0.8-1.8-1.4-3.7-2-5.8
		c-1.2,4.9-2.5,8.5-4.1,10.9c-1.5,2.3-3.5,3.5-6.1,3.5c-1.9,0-3.6-0.8-5.1-2.3s-2.7-3.5-3.9-6.1c-1.1-2.6-2.1-5.5-2.9-8.9
		c-0.8-3.4-1.6-6.9-2.4-10.6c-0.7,3.6-1.4,7.1-2.3,10.5c-0.8,3.3-1.8,6.3-2.9,8.8c-1.1,2.5-2.4,4.6-3.9,6.1
		c-1.5,1.6-3.2,2.4-5.1,2.5v-2.7c1.7,0,3.2-0.9,4.5-2.8s2.4-4.4,3.4-7.5s1.8-6.6,2.6-10.6s1.5-8,2.3-12.2v-0.1
		c0.8-4.4,1.6-8.8,2.5-13.1c0.9-4.3,1.9-8.1,3.1-11.5c1.2-3.4,2.6-6.1,4.2-8.2c1.6-2.1,3.6-3.1,5.8-3.1c1.8,0,3.4,0.6,4.8,1.9
		c1.4,1.3,2.6,3,3.7,5.2c1.1,2.2,2,4.7,2.8,7.6s1.5,6,2.2,9.3h-2.9c-0.6-3-1.2-5.7-1.9-8.3c-0.7-2.6-1.4-4.8-2.3-6.7
		c-0.8-1.9-1.8-3.4-2.8-4.5s-2.2-1.6-3.5-1.6c-1.8,0-3.4,0.9-4.7,2.8s-2.4,4.4-3.4,7.5s-1.8,6.6-2.6,10.6s-1.5,8.1-2.2,12.3
		c0.7,4.2,1.5,8.3,2.2,12.2c0.8,4,1.6,7.5,2.6,10.6s2.1,5.6,3.4,7.5c1.3,1.9,2.8,2.8,4.6,2.8c1.5,0,2.7-0.7,3.7-2.1s1.8-3.3,2.5-5.7
		c0.7-2.4,1.3-5.2,1.9-8.3c0.5-3.1,1.1-6.5,1.7-10L616.6,418.7L616.6,418.7z"/>
	<path class="st1" d="M680.9,444.7c1.3,0,2.4-0.6,3.1-1.9c0.8-1.3,1.4-3,1.7-5.2c0.4-2.2,0.6-4.8,0.8-7.7c0.1-2.9,0.2-6.1,0.2-9.4
		s0-6.7,0-10.2s0-6.9,0.2-10.2c0.1-3.3,0.4-6.4,0.8-9.4c0.4-2.9,1-5.5,1.8-7.7s1.9-3.9,3.2-5.2c1.3-1.3,3-1.9,5-1.9v2.9
		c-2.1,0-3.7,1.1-4.8,3c-1.1,2-1.9,4.6-2.5,7.8c-0.5,3.2-0.8,6.9-0.9,11c-0.1,4.1-0.1,8.3-0.1,12.6c0,4.3,0,8.5-0.1,12.6
		s-0.4,7.8-0.9,11s-1.3,5.8-2.5,7.8c-1.1,2-2.7,2.9-4.8,2.9v-2.8H680.9z M711.7,411.8H688l0.3-2.7H712L711.7,411.8z M705.3,444.7
		c1.3,0,2.4-0.6,3.1-1.9c0.8-1.3,1.4-3,1.7-5.2c0.4-2.2,0.6-4.8,0.8-7.7c0.1-2.9,0.2-6.1,0.2-9.4s0-6.7,0-10.2s0-6.9,0.2-10.2
		c0.1-3.3,0.4-6.4,0.8-9.4c0.4-2.9,1-5.5,1.8-7.7s1.9-3.9,3.2-5.2c1.3-1.3,3-1.9,5-1.9v2.9c-2.1,0-3.7,1.1-4.8,3
		c-1.1,2-1.9,4.6-2.5,7.8c-0.5,3.2-0.8,6.9-0.9,11c-0.1,4.1-0.1,8.3-0.1,12.6c0,4.3,0,8.5-0.1,12.6s-0.4,7.8-0.9,11
		s-1.3,5.8-2.5,7.8c-1.1,2-2.7,2.9-4.8,2.9v-2.8H705.3z M712.4,426.8L712.4,426.8c1.2,0,2.3,0.3,3.2,0.8c1,0.5,1.9,1.3,2.7,2.3
		s1.6,2.2,2.4,3.6c0.7,1.4,1.4,2.9,2.1,4.6c0.8,2.1,1.7,3.6,2.8,4.8c1.1,1.1,2.3,1.7,3.6,1.7v2.7c-2.1,0-3.8-0.8-5.4-2.5
		c-1.5-1.6-2.8-3.9-3.9-6.7c-1-2.6-2.1-4.7-3.2-6.3c-1.1-1.6-2.5-2.4-4.1-2.4h-0.1L712.4,426.8L712.4,426.8z"/>
</g>
<g>
	<path class="st1" d="M85.4,485.2v43.4c1.7,0.4,3.3,1.5,4.6,3.2c1.3,1.8,2.5,4,3.6,6.6c0.9,2.3,1.9,4.2,3,5.6
		c1.1,1.4,2.4,2.1,3.9,2.1v2.7c-2,0-3.7-0.7-5.2-2.1c-1.5-1.4-2.7-3.5-3.8-6.2c-1.1-2.9-2.2-5.2-3.4-6.9c-1.2-1.7-2.6-2.6-4.2-2.6
		s-3,0.8-4.1,2.4c-1.1,1.6-2.2,3.7-3.2,6.3c-1.1,2.8-2.4,5.1-3.9,6.7c-1.5,1.6-3.3,2.5-5.4,2.5v-2.7c1.3,0,2.5-0.6,3.6-1.7
		c1.1-1.1,2-2.7,2.8-4.8c1.2-3.1,2.5-5.6,4-7.6c1.5-2,3.2-3.2,5.1-3.6v-43.3H85.4z M77.5,477.3c0.8,2.1,1.7,3.6,2.8,4.8
		c1.1,1.1,2.3,1.7,3.6,1.7s2.5-0.6,3.6-1.7s2-2.7,2.8-4.8h2.9c-1.1,2.8-2.4,5.1-3.9,6.7s-3.3,2.5-5.4,2.5s-3.8-0.8-5.4-2.5
		c-1.5-1.6-2.8-3.9-3.9-6.7H77.5z"/>
	<path class="st1" d="M136.3,546.1c1.3-0.7,2.3-1.5,3-2.4s1.1-1.9,1.1-2.9h2.5c0,1.7-0.6,3.3-1.8,4.6c-1.2,1.3-2.8,2.5-4.9,3.6v-2.9
		H136.3z M150.1,477.1c2.2,0.3,4.2,1.5,6,3.6s3.4,4.9,4.7,8.2s2.3,7.1,3,11.3c0.7,4.2,1.1,8.5,1.1,12.9c0,4.5-0.4,8.8-1.2,13.1
		c-0.8,4.3-1.9,8.1-3.3,11.5c-1.4,3.4-3,6.1-5,8.1c-1.9,2.1-4,3.1-6.3,3.1v-0.1c-1.6,0-3-0.5-4.3-1.6c-1.3-1-2.4-2.5-3.5-4.3
		c-1-1.8-1.9-4-2.8-6.5c-0.8-2.5-1.6-5.2-2.3-8h2.7c0.5,2.6,1.2,4.9,1.8,7.1c0.7,2.2,1.4,4,2.2,5.6c0.8,1.6,1.7,2.8,2.7,3.7
		s2.1,1.3,3.4,1.3v0.1c1.8,0,3.4-0.9,5-2.8c1.5-1.8,2.9-4.3,4.1-7.4c1.2-3.1,2.1-6.6,2.7-10.6c0.7-4,1-8.1,1-12.3
		c0-4.1-0.3-8.1-0.9-12c-0.6-3.9-1.4-7.4-2.5-10.4c-1-3.1-2.3-5.6-3.8-7.6s-3-3.1-4.7-3.4v-2.6H150.1z M160.9,528.4L160.9,528.4
		c1.2,0,2.3,0.3,3.2,0.8c1,0.5,1.9,1.3,2.7,2.3s1.6,2.2,2.4,3.6c0.7,1.4,1.4,2.9,2.1,4.6c0.8,2.1,1.7,3.6,2.8,4.8
		c1.1,1.1,2.3,1.7,3.6,1.7v2.7c-2.1,0-3.8-0.8-5.4-2.5c-1.5-1.6-2.8-3.9-3.9-6.7c-1-2.6-2.1-4.7-3.2-6.3c-1.1-1.6-2.5-2.4-4.1-2.4
		H161v-2.6H160.9z"/>
	<path class="st1" d="M213.5,546.1c1.7-0.3,3.2-1.4,4.7-3.3c1.4-1.9,2.7-4.4,3.8-7.5c1.1-3,1.9-6.5,2.5-10.3s0.9-7.8,0.9-11.9h2.9
		c0,4.3-0.4,8.6-1.1,12.8c-0.8,4.2-1.8,7.9-3.1,11.2s-2.9,6-4.7,8.2c-1.8,2.1-3.8,3.4-5.9,3.6L213.5,546.1L213.5,546.1z
		 M225.4,513.3c0-2.9,0-5.8,0-8.6c0-2.8-0.1-5.5-0.3-8s-0.4-4.9-0.7-7s-0.8-3.9-1.4-5.4c-0.6-1.5-1.4-2.6-2.3-3.4
		c-0.9-0.8-2.1-1.1-3.4-0.9v-2.5c1.7-0.2,3.2,0.1,4.4,1c1.2,0.8,2.2,2.1,3,3.7s1.5,3.6,1.9,6s0.8,4.8,1.1,7.6
		c0.3,2.7,0.4,5.6,0.4,8.6s0.1,6,0.1,9L225.4,513.3z M226.7,512.5c1-0.6,2.1-1,3.3-1c2,0,3.6,0.8,5,2.4c1.4,1.6,2.6,3.7,3.6,6.3
		s2,5.6,2.9,9c0.9,3.4,1.9,6.9,2.9,10.5c0.6,2.1,1.5,3.7,2.6,4.9c1.2,1.1,2.4,1.7,3.7,1.7v2.7c-2.1,0-3.9-0.8-5.6-2.5
		c-1.7-1.6-3-3.9-3.8-6.8c-1-3.3-1.8-6.5-2.5-9.6c-0.7-3.1-1.5-5.8-2.3-8.1s-1.7-4.2-2.7-5.6c-1-1.4-2.2-2.1-3.7-2.1
		c-1.2,0-2.3,0.5-3.3,1.5L226.7,512.5L226.7,512.5z M241.1,477.2c0,3,0,6-0.1,9.1c0,3.1-0.2,6-0.4,8.8c-0.3,2.8-0.6,5.4-1.1,7.8
		s-1.1,4.5-1.9,6.2c-0.8,1.7-1.8,3-3,3.9c-1.2,0.9-2.7,1.2-4.4,1.1v-2.5c2,0.3,3.6-0.5,4.7-2.5s1.9-4.5,2.4-7.8s0.8-7,0.9-11.3
		c0.1-4.2,0.1-8.5,0.1-12.9L241.1,477.2z"/>
	<path class="st1" d="M286.5,546.2c1.6-0.3,3.2-1.5,4.7-3.4c1.5-2,2.7-4.5,3.8-7.5c1.1-3,1.9-6.5,2.5-10.3s0.9-7.8,0.9-11.8h2.9
		c0,2.9-0.2,5.7-0.5,8.5s-0.8,5.5-1.4,8.1c0.6-0.5,1.3-0.8,1.9-1.1s1.3-0.4,2.1-0.4c2.2,0,4,0.9,5.6,2.8c1.5,1.8,2.9,4.3,4.1,7.3
		c0.9,2.3,1.9,4.2,3,5.6c1.1,1.4,2.4,2.1,3.9,2.1v2.7c-2,0-3.7-0.7-5.2-2.1c-1.5-1.4-2.7-3.5-3.8-6.2c-1.1-2.9-2.2-5.2-3.4-6.9
		c-1.2-1.7-2.6-2.6-4.2-2.6c-1.3,0-2.5,0.5-3.5,1.5s-1.9,2.3-2.7,4c-1.3,3.5-2.9,6.3-4.7,8.5c-1.8,2.2-3.8,3.5-6,3.8L286.5,546.2
		L286.5,546.2z M298.4,513.3c0-2.9,0-5.8,0-8.6c0-2.8-0.1-5.5-0.3-8c-0.2-2.5-0.4-4.9-0.7-7c-0.3-2.1-0.8-3.9-1.4-5.4
		s-1.4-2.6-2.3-3.4s-2.1-1.1-3.4-0.9v-2.5c1.7-0.2,3.2,0.1,4.4,1c1.2,0.8,2.2,2.1,3,3.7s1.5,3.6,1.9,6s0.8,4.8,1.1,7.6
		c0.3,2.7,0.4,5.6,0.4,8.6s0.1,6,0.1,9L298.4,513.3z"/>
	<path class="st1" d="M372.5,480.1c-1.3,0-2.4,0.6-3.1,1.9c-0.8,1.3-1.4,3-1.7,5.2c-0.4,2.2-0.6,4.8-0.8,7.7
		c-0.1,2.9-0.2,6.1-0.2,9.4s0,6.7,0,10.2c0,3.5,0,6.9-0.2,10.2c-0.1,3.3-0.4,6.4-0.8,9.4c-0.4,2.9-1,5.5-1.8,7.7s-1.9,3.9-3.2,5.2
		c-1.3,1.3-3,1.9-5,1.9V546c2.1,0,3.7-1.1,4.8-3c1.1-2,1.9-4.6,2.5-7.8c0.5-3.2,0.8-6.9,0.9-11c0.1-4.1,0.1-8.3,0.1-12.6
		c0-4.3,0-8.5,0.1-12.6s0.4-7.8,0.9-11s1.3-5.8,2.5-7.8c1.1-2,2.7-2.9,4.8-2.9v2.8H372.5z M381.5,511.7l-0.6-5.3
		c0-3.5-0.2-6.8-0.4-10c-0.2-3.1-0.6-5.9-1.2-8.3s-1.5-4.3-2.5-5.7c-1.1-1.4-2.5-2.1-4.2-2.2v-2.9c1.4,0,2.6,0.3,3.6,0.9
		s1.9,1.5,2.7,2.6s1.4,2.4,1.9,4s1,3.3,1.3,5.1c0.3-1.9,0.8-3.6,1.3-5.1s1.2-2.9,1.9-4c0.8-1.1,1.7-1.9,2.7-2.6
		c1-0.6,2.3-0.9,3.6-0.9v2.9c-1.7,0-3.1,0.8-4.2,2.2c-1.1,1.4-1.9,3.3-2.5,5.7c-0.6,2.4-1,5.2-1.2,8.3c-0.2,3.1-0.4,6.5-0.4,10
		c0,0.9,0.1,1.8,0.1,2.7c0,0.9,0,1.8,0,2.7h-0.1h-1.8V511.7z M383.4,502c0,2.8,0,5.8,0,8.8c0,3.1,0,6.1,0,9.1s-0.2,5.9-0.3,8.8
		c-0.2,2.8-0.5,5.4-0.9,7.9c-0.5-2.4-0.8-5-1-7.9c-0.2-2.8-0.3-5.7-0.3-8.8c0-3-0.1-6,0-9.1c0-3.1,0-6,0-8.8H383.4z M391.7,480.1
		c1.3,0,2.4,0.6,3.1,1.9c0.8,1.3,1.4,3,1.7,5.2c0.4,2.2,0.6,4.8,0.8,7.7c0.1,2.9,0.2,6.1,0.2,9.4s0,6.7,0,10.2c0,3.5,0,6.9,0.2,10.2
		c0.1,3.3,0.4,6.4,0.8,9.4c0.4,2.9,1,5.5,1.8,7.7s1.9,3.9,3.2,5.2c1.3,1.3,3,1.9,5,1.9V546c-2.1,0-3.7-1.1-4.8-3
		c-1.1-2-1.9-4.6-2.5-7.8c-0.5-3.2-0.8-6.9-0.9-11c-0.1-4.1-0.1-8.3-0.1-12.6c0-4.3,0-8.5-0.1-12.6s-0.4-7.8-0.9-11
		s-1.3-5.8-2.5-7.8c-1.1-2-2.7-2.9-4.8-2.9v2.8H391.7z"/>
	<path class="st1" d="M461,480.1c-1.3,0-2.4,0.6-3.1,1.9c-0.8,1.3-1.4,3-1.7,5.2c-0.4,2.2-0.6,4.8-0.8,7.7c-0.1,2.9-0.2,6.1-0.2,9.4
		s0,6.7,0,10.2c0,3.5,0,6.9-0.2,10.2c-0.1,3.3-0.4,6.4-0.8,9.4c-0.4,2.9-1,5.5-1.8,7.7s-1.9,3.9-3.2,5.2c-1.3,1.3-3,1.9-5,1.9V546
		c2.1,0,3.7-1.1,4.8-3c1.1-2,1.9-4.6,2.5-7.8c0.5-3.2,0.8-6.9,0.9-11c0.1-4.1,0.1-8.3,0.1-12.6c0-4.3,0-8.5,0.1-12.6s0.4-7.8,0.9-11
		s1.3-5.8,2.5-7.8c1.1-2,2.7-2.9,4.8-2.9v2.8H461z M461,477.3c2.1,0,3.7,1,4.8,2.9c1.1,2,1.9,4.5,2.5,7.8c0.5,3.2,0.8,6.9,0.9,11
		s0.1,8.3,0.1,12.6c0,4.3,0,8.5,0.1,12.6c0.1,4.1,0.4,7.8,0.9,11s1.3,5.8,2.5,7.8c1.1,2,2.7,3,4.8,3v2.9c-2,0-3.7-0.6-5-1.9
		c-1.3-1.3-2.4-3-3.2-5.2c-0.8-2.2-1.4-4.8-1.8-7.7s-0.7-6.1-0.8-9.4c-0.1-3.3-0.2-6.7-0.2-10.2c0-3.5,0-6.9,0-10.2
		c0-3.3-0.1-6.4-0.2-9.4c-0.1-2.9-0.4-5.5-0.8-7.7s-1-4-1.7-5.2c-0.8-1.3-1.8-1.9-3.1-1.9v-2.8H461z"/>
	<path class="st1" d="M530,531.2c-1.5,0.1-2.9,0.9-4,2.5c-1.1,1.6-2.1,3.6-3.1,6.2c-1.1,2.8-2.4,5.1-3.9,6.7
		c-1.5,1.6-3.3,2.5-5.4,2.5v-2.7c1.3,0,2.5-0.6,3.6-1.7c1.1-1.1,2-2.7,2.8-4.8c1.2-3.1,2.5-5.7,4-7.7s3.2-3.2,5.1-3.6L530,531.2z
		 M557.7,513c0,4.5-0.4,9-1.2,13.3s-1.8,8.3-3.2,11.7s-3,6.2-5,8.3c-1.9,2.1-4.1,3.2-6.4,3.2c-2.3,0-4.4-1.1-6.3-3.2s-3.6-4.9-5-8.4
		s-2.5-7.4-3.3-11.7c-0.8-4.4-1.2-8.8-1.2-13.3s0.4-8.9,1.2-13.3s1.9-8.3,3.3-11.7c1.4-3.5,3-6.3,5-8.4s4-3.2,6.3-3.2
		s4.5,1.1,6.4,3.2s3.6,4.9,5,8.3s2.4,7.4,3.2,11.7S557.7,508.5,557.7,513z M554.7,513c0-4.3-0.3-8.5-1-12.5
		c-0.7-4.1-1.6-7.7-2.7-10.8c-1.2-3.2-2.5-5.7-4.1-7.6s-3.2-2.9-4.9-2.9c-1.8,0-3.5,1-5.1,2.9s-2.9,4.5-4,7.6
		c-1.1,3.2-2,6.8-2.7,10.8c-0.7,4.1-1,8.2-1,12.5s0.3,8.5,1,12.5c0.7,4.1,1.6,7.7,2.7,10.8c1.1,3.2,2.5,5.7,4,7.6
		c1.5,1.9,3.2,2.9,5.1,2.9c1.7,0,3.4-1,4.9-2.9s2.9-4.5,4.1-7.6c1.2-3.2,2.1-6.8,2.7-10.8C554.4,521.5,554.7,517.3,554.7,513z
		 M555,528.6c1.9,0.3,3.6,1.3,5,3.1c1.4,1.8,2.6,4.1,3.7,6.9c0.9,2.3,1.9,4.2,3,5.6c1.1,1.4,2.4,2.1,3.9,2.1v2.7
		c-2,0-3.7-0.7-5.2-2.1c-1.5-1.4-2.7-3.5-3.8-6.2c-1-2.8-2.1-5-3.3-6.8c-1.1-1.7-2.5-2.6-4.1-2.7L555,528.6z"/>
	<path class="st1" d="M615,515.9c0,4.2-0.1,8.3-0.2,12.2c-0.1,4-0.5,7.5-1,10.6c-0.5,3.1-1.4,5.6-2.5,7.4c-1.1,1.9-2.7,2.8-4.8,2.8
		v-2.7c1.5,0,2.7-0.8,3.5-2.5s1.4-3.9,1.7-6.8c0.4-2.8,0.6-6.1,0.6-9.7c0-3.6,0.1-7.5,0.1-11.4v-20.7c0-2.6,0.4-5.1,1.1-7.3
		c0.7-2.2,1.6-4.1,2.8-5.7c1.1-1.6,2.4-2.8,3.9-3.7c1.4-0.9,2.9-1.3,4.3-1.3c1.5,0,3.1,0.5,4.5,1.5c1.5,1,2.7,2.3,3.8,4
		s2,3.6,2.6,5.8c0.7,2.2,1,4.5,0.9,6.8c0,2.1-0.4,4.1-1,6.3c-0.6,2.1-1.4,4-2.5,5.7c-1,1.7-2.3,3.1-3.7,4.2s-3,1.6-4.8,1.6
		c-1,0-1.9-0.1-2.8-0.3c-0.9-0.2-1.7-0.5-2.5-1s-1.5-1.2-2.2-2.2c-0.7-0.9-1.3-2.1-1.9-3.6v10H615z M614.6,528.4L614.6,528.4
		c1.2,0,2.4,0.3,3.7,0.9c1.2,0.6,2.5,1.4,3.7,2.5c1.2,1,2.4,2.2,3.6,3.6c1.2,1.3,2.3,2.7,3.2,4.2c0.6,0.9,1.4,1.8,2.4,2.6
		s2,1.5,3.1,2.1c1,0.6,2.1,1.1,3.1,1.4c1,0.3,1.8,0.5,2.5,0.5v2.7c-1,0-2.2-0.2-3.4-0.7s-2.5-1.1-3.8-1.9c-1.3-0.8-2.5-1.8-3.7-2.9
		c-1.2-1.1-2.3-2.3-3.2-3.7c-0.8-1.1-1.7-2.2-2.6-3.2c-0.9-1-1.9-1.9-2.9-2.7s-1.9-1.4-2.9-1.9c-0.9-0.5-1.8-0.7-2.6-0.7h-0.1
		L614.6,528.4L614.6,528.4z M624.4,479.9c-1.1,0-2.3,0.4-3.4,1.1c-1.1,0.7-2.1,1.8-3,3.1c-0.9,1.3-1.6,3-2.2,4.8
		c-0.5,1.9-0.8,3.9-0.8,6.2c0,2.3,0.3,4.4,0.8,6.2c0.5,1.9,1.3,3.5,2.2,4.8s1.9,2.3,3,3s2.2,1.1,3.4,1.1c1.1,0,2.2-0.4,3.2-1.1
		c1.1-0.7,2-1.8,2.9-3.1c0.9-1.3,1.6-2.9,2.2-4.8c0.6-1.8,0.9-3.9,0.9-6.2c0-2.3-0.3-4.4-0.8-6.2c-0.5-1.9-1.3-3.5-2.1-4.8
		c-0.9-1.3-1.8-2.4-2.9-3.1C626.6,480.2,625.5,479.9,624.4,479.9z"/>
	<path class="st1" d="M732.7,549c-1.9,0-3.6-0.8-5.1-2.3s-2.7-3.5-3.9-6.1c-1.1-2.6-2.1-5.5-2.9-8.8c-0.8-3.3-1.6-6.8-2.4-10.5
		c-0.7,3.7-1.4,7.2-2.3,10.5c-0.8,3.3-1.8,6.3-2.9,8.8c-1.1,2.6-2.4,4.6-3.9,6.1s-3.2,2.3-5.1,2.3c-1.9,0-3.6-0.8-5.1-2.3
		s-2.7-3.5-3.9-6.1c-1.1-2.6-2.1-5.5-2.9-8.9c-0.8-3.4-1.6-6.9-2.4-10.6c-0.7,3.6-1.4,7.1-2.3,10.5c-0.8,3.3-1.8,6.3-2.9,8.8
		c-1.1,2.5-2.4,4.6-3.9,6.1c-1.5,1.6-3.2,2.4-5.1,2.5v-2.7c1.7,0,3.2-0.9,4.5-2.8c1.3-1.9,2.4-4.4,3.4-7.5c1-3.1,1.8-6.6,2.6-10.6
		s1.5-8,2.3-12.2V513c0.8-4.4,1.6-8.8,2.5-13.1c0.9-4.3,1.9-8.1,3.1-11.5c1.2-3.4,2.6-6.1,4.2-8.2c1.6-2.1,3.6-3.1,5.8-3.1
		s4.2,1,5.8,3s3,4.6,4.2,7.8c1.2,3.2,2.2,6.9,3.1,11c0.9,4.1,1.7,8.4,2.4,12.7c0.8,4.3,1.5,8.6,2.3,12.7c0.8,4.1,1.6,7.8,2.6,11
		s2.1,5.8,3.4,7.8c1.3,2,2.9,3,4.7,3v2.9H732.7z M704.3,546.2c1.7,0,3.2-0.9,4.5-2.8c1.3-1.9,2.4-4.4,3.4-7.5
		c1-3.1,1.8-6.6,2.6-10.6s1.5-8.1,2.3-12.3c-0.8-4.2-1.5-8.3-2.3-12.3s-1.6-7.5-2.6-10.6s-2.1-5.6-3.4-7.5c-1.3-1.9-2.8-2.8-4.5-2.8
		c-1.8,0-3.4,0.9-4.7,2.8s-2.4,4.4-3.4,7.5s-1.8,6.6-2.6,10.6s-1.5,8.1-2.2,12.3c0.7,4.2,1.5,8.3,2.2,12.2c0.8,4,1.6,7.5,2.6,10.6
		c1,3.1,2.1,5.6,3.4,7.5C701,545.3,702.5,546.2,704.3,546.2z M704.2,528.4L704.2,528.4c1.2,0,2.3,0.3,3.2,0.8c1,0.5,1.9,1.3,2.7,2.3
		s1.6,2.2,2.4,3.6c0.7,1.4,1.4,2.9,2.1,4.6c0.8,2.1,1.7,3.6,2.8,4.8c1.1,1.1,2.3,1.7,3.6,1.7v2.7c-2.1,0-3.8-0.8-5.4-2.5
		c-1.5-1.6-2.8-3.9-3.9-6.7c-1-2.6-2.1-4.7-3.2-6.3c-1.1-1.6-2.5-2.4-4.1-2.4h-0.1L704.2,528.4L704.2,528.4z"/>
</g>
<g>
	<path class="st1" d="M75.9,617.3c0,4.2-0.1,8.3-0.2,12.2c-0.1,4-0.5,7.5-1,10.6s-1.4,5.6-2.5,7.4c-1.1,1.9-2.7,2.8-4.8,2.8v-2.7
		c1.5,0,2.7-0.8,3.5-2.5s1.4-3.9,1.7-6.8c0.4-2.8,0.6-6.1,0.6-9.7c0-3.6,0.1-7.5,0.1-11.4v-20.7c0-2.6,0.4-5.1,1.1-7.3
		c0.7-2.2,1.6-4.1,2.8-5.7c1.1-1.6,2.4-2.8,3.9-3.7c1.4-0.9,2.9-1.3,4.3-1.3c1.5,0,3.1,0.5,4.5,1.5c1.5,1,2.7,2.3,3.8,4
		c1.1,1.7,2,3.6,2.6,5.8c0.7,2.2,1,4.5,0.9,6.8c0,2.1-0.4,4.1-1,6.3c-0.6,2.1-1.4,4-2.5,5.7c-1,1.7-2.3,3.1-3.7,4.2
		c-1.4,1.1-3,1.6-4.8,1.6c-1,0-1.9-0.1-2.8-0.3s-1.7-0.5-2.5-1s-1.5-1.2-2.2-2.2c-0.7-0.9-1.3-2.1-1.9-3.6L75.9,617.3L75.9,617.3z
		 M85.2,581.3c-1.1,0-2.3,0.4-3.4,1.1c-1.1,0.7-2.1,1.8-3,3.1s-1.6,3-2.2,4.8c-0.5,1.9-0.8,3.9-0.8,6.2s0.3,4.4,0.8,6.2
		c0.5,1.9,1.3,3.5,2.2,4.8s1.9,2.3,3,3s2.2,1.1,3.4,1.1c1.1,0,2.2-0.4,3.2-1.1c1.1-0.7,2-1.8,2.9-3.1s1.6-2.9,2.2-4.8
		c0.6-1.8,0.9-3.9,0.9-6.2s-0.3-4.4-0.8-6.2c-0.5-1.9-1.3-3.5-2.1-4.8c-0.9-1.3-1.8-2.4-2.9-3.1C87.4,581.7,86.3,581.3,85.2,581.3z
		 M92.8,623.6c-0.8-2.9-1.8-5.1-3.1-6.8c-1.3-1.6-2.7-2.5-4.4-2.5v-2.7c2.4,0,4.5,1.1,6.3,3.2c1.8,2.2,3.1,5.1,4.1,8.7
		c0.8,3.2,1.6,6.3,2.3,9.2c0.7,2.9,1.5,5.5,2.3,7.7s1.7,4,2.8,5.3c1,1.3,2.3,1.9,3.7,1.9v2.7c-1.9,0-3.5-0.7-4.8-2.2
		s-2.5-3.4-3.6-5.9c-1-2.5-2-5.3-2.9-8.5C94.6,630.6,93.7,627.2,92.8,623.6z"/>
	<path class="st1" d="M151.2,640.4c-0.1,0.1-0.1,0.3-0.2,0.4c0,0.1-0.1,0.3-0.2,0.5c-1.1,2.8-2.4,5.1-3.9,6.7
		c-1.5,1.6-3.3,2.5-5.4,2.5v-2.7c1.3,0,2.5-0.6,3.6-1.7c1.1-1.1,2-2.7,2.8-4.8c0.6-1.5,1.3-3,2-4.4L151.2,640.4z M159.8,651.1
		c-1.6,0-3.2-0.6-4.8-1.7c-1.5-1.1-2.9-2.6-4.1-4.5c-1.2-1.9-2.1-4.1-2.8-6.7c-0.7-2.6-1-5.3-0.9-8.3h2.9c0,2.6,0.2,5,0.8,7.2
		s1.3,4.2,2.2,5.8c0.9,1.7,2,3,3.1,3.9c1.2,1,2.4,1.4,3.6,1.4c1.2,0,2.4-0.5,3.6-1.4c1.2-1,2.2-2.3,3.2-3.9c0.9-1.6,1.7-3.6,2.3-5.8
		c0.6-2.3,0.8-4.7,0.8-7.3c0-1.3-0.3-2.9-0.8-4.7s-1.1-3.5-1.9-5.1c-0.8-1.6-1.8-3-2.9-4.1c-1.1-1.1-2.4-1.7-3.7-1.7
		c-1.7,0-3.3-0.5-4.8-1.6c-1.4-1.1-2.7-2.5-3.7-4.2s-1.9-3.6-2.5-5.7c-0.6-2.1-0.9-4.2-1-6.3c0-2.4,0.3-4.7,0.9-6.9
		c0.7-2.3,1.5-4.3,2.6-6s2.4-3.1,3.8-4.2c1.4-1.1,3-1.6,4.5-1.6s3,0.5,4.5,1.6c1.4,1.1,2.7,2.5,3.8,4.2s2,3.7,2.6,6
		c0.7,2.3,1,4.6,1,6.9v2.6h-2.7v-2.7c0-2.3-0.3-4.4-0.8-6.4s-1.3-3.6-2.1-5.1c-0.9-1.4-1.8-2.5-2.9-3.3c-1.1-0.8-2.2-1.2-3.3-1.2
		s-2.2,0.4-3.3,1.2s-2.1,1.9-2.9,3.3c-0.9,1.4-1.6,3.1-2.1,5.1s-0.8,4.1-0.8,6.4c0,2.3,0.3,4.3,0.9,6.2c0.6,1.8,1.3,3.4,2.2,4.8
		c0.9,1.3,1.8,2.3,2.9,3.1c1.1,0.7,2.2,1.1,3.2,1.1c2.1,0,3.8,0.6,5.3,1.9c1.5,1.3,2.7,2.9,3.7,4.7c1,1.9,1.7,3.9,2.2,6
		s0.8,4,0.8,5.6c0,3-0.3,5.7-1,8.3s-1.6,4.8-2.8,6.7s-2.6,3.4-4.1,4.5C163.1,650.5,161.5,651.1,159.8,651.1z M170.6,635.9
		c0.7,1.2,1.3,2.6,1.8,4.1c0.9,2.3,1.9,4.2,3,5.6c1.1,1.4,2.4,2.1,3.9,2.1v2.7c-2,0-3.7-0.7-5.2-2.1c-1.5-1.4-2.7-3.5-3.8-6.2
		c-0.2-0.5-0.4-0.9-0.5-1.3c-0.2-0.4-0.3-0.8-0.5-1.2L170.6,635.9z"/>
	<path class="st1" d="M214.3,647.6c1.8,0,3.4-1,4.7-3s2.4-4.6,3.4-7.8s1.8-6.9,2.6-11s1.5-8.4,2.3-12.7s1.6-8.6,2.4-12.7
		c0.9-4.1,1.9-7.8,3.1-11c1.2-3.2,2.6-5.8,4.2-7.8c1.6-2,3.5-3,5.8-3v2.7c-1.8,0-3.3,1-4.6,3s-2.4,4.6-3.4,7.8s-1.9,6.9-2.7,11
		s-1.6,8.4-2.3,12.7c-0.8,4.3-1.6,8.6-2.5,12.7c-0.9,4.1-1.9,7.8-3.1,11c-1.2,3.2-2.6,5.8-4.2,7.8c-1.6,2-3.5,3-5.7,3V647.6z
		 M241.5,580.8l2.7,0.1l-1,69.5h-2.7L241.5,580.8z M271.2,650.3c-2.2,0-4.1-1-5.7-3c-1.6-2-3-4.6-4.2-7.8c-1.2-3.2-2.2-6.9-3.1-11
		c-0.9-4.1-1.7-8.4-2.5-12.7s-1.6-8.6-2.3-12.7c-0.8-4.1-1.7-7.8-2.7-11s-2.1-5.8-3.4-7.8c-1.3-2-2.8-3-4.6-3v-2.7
		c2.2,0,4.2,1,5.8,3s3,4.6,4.2,7.8s2.2,6.9,3.1,11s1.7,8.4,2.4,12.7c0.8,4.3,1.5,8.6,2.3,12.7c0.8,4.1,1.6,7.8,2.6,11
		s2.1,5.8,3.4,7.8s2.9,3,4.7,3V650.3z"/>
	<path class="st1" d="M322.6,632.5L322.6,632.5c-1.7,0-3.1,0.8-4.2,2.4c-1.1,1.6-2.2,3.7-3.2,6.3c-1.1,2.8-2.4,5.1-3.9,6.7
		c-1.5,1.6-3.3,2.5-5.4,2.5v-2.7c1.3,0,2.5-0.6,3.6-1.7c1.1-1.1,2-2.7,2.8-4.8c0.6-1.7,1.3-3.2,2.1-4.6c0.7-1.4,1.5-2.6,2.4-3.6
		c0.8-1,1.7-1.8,2.7-2.3s2-0.8,3.1-0.8h0.1v2.6H322.6z M315.3,578.7c2.1,0,3.7,1,4.8,2.9c1.1,2,1.9,4.6,2.5,7.8
		c0.5,3.2,0.8,6.9,0.9,11s0.1,8.3,0.1,12.6s0,8.5,0.1,12.7c0.1,4.1,0.4,7.8,0.9,11s1.3,5.8,2.5,7.8c1.1,2,2.7,3,4.8,3v2.7
		c-2,0-3.7-0.6-5-1.9c-1.3-1.3-2.4-3-3.2-5.2c-0.8-2.2-1.4-4.8-1.8-7.7s-0.6-6.1-0.8-9.4c-0.1-3.3-0.2-6.7-0.2-10.2s0-6.9,0-10.2
		s-0.1-6.4-0.2-9.4c-0.1-2.9-0.4-5.5-0.8-7.7s-1-4-1.7-5.2c-0.8-1.3-1.8-1.9-3.1-1.9v-2.7H315.3z M348.6,581.5
		c-1.3,0-2.4,0.6-3.1,1.9c-0.8,1.3-1.4,3-1.7,5.2c-0.4,2.2-0.6,4.8-0.8,7.7c-0.1,2.9-0.2,6.1-0.2,9.4c0,3.3,0,6.7,0,10.2
		s0,6.9-0.2,10.2c-0.1,3.3-0.4,6.4-0.8,9.4c-0.4,2.9-1,5.5-1.8,7.7s-1.9,3.9-3.2,5.2c-1.3,1.3-3,1.9-5,1.9v-2.7c2.1,0,3.7-1.1,4.8-3
		c1.1-2,1.9-4.6,2.5-7.8c0.5-3.2,0.8-6.9,0.9-11s0.1-8.3,0.1-12.7s0-8.5,0.1-12.6s0.4-7.8,0.9-11s1.3-5.8,2.5-7.8
		c1.1-2,2.7-2.9,4.8-2.9v2.7H348.6z M341.3,629.8L341.3,629.8c1.2,0,2.3,0.3,3.2,0.8s1.9,1.3,2.7,2.3c0.8,1,1.6,2.2,2.4,3.6
		c0.7,1.4,1.4,2.9,2.1,4.6c0.8,2.1,1.7,3.6,2.8,4.8c1.1,1.1,2.3,1.7,3.6,1.7v2.7c-2.1,0-3.8-0.8-5.4-2.5c-1.5-1.6-2.8-3.9-3.9-6.7
		c-1-2.6-2.1-4.7-3.2-6.3s-2.5-2.4-4.1-2.4h-0.1v-2.6H341.3z"/>
	<path class="st1" d="M409.5,632.6L409.5,632.6c-1.7,0-3.1,0.8-4.2,2.4c-1.1,1.6-2.2,3.7-3.2,6.3c-1.1,2.8-2.4,5.1-3.9,6.7
		c-1.5,1.6-3.3,2.5-5.4,2.5v-2.7c1.3,0,2.5-0.6,3.6-1.7c1.1-1.1,2-2.7,2.8-4.8c0.6-1.7,1.3-3.2,2.1-4.6c0.7-1.4,1.5-2.6,2.4-3.6
		c0.8-1,1.7-1.8,2.7-2.3s2-0.8,3.1-0.8h0.1v2.6H409.5z M408.4,629.9c-0.1-3.4-0.2-6.9-0.2-10.6c0-3.7,0-7.3,0-10.8
		c0-3.6-0.2-7-0.4-10.2c-0.2-3.2-0.6-6.1-1.2-8.5s-1.4-4.4-2.5-5.8c-1.1-1.5-2.5-2.2-4.3-2.3v-2.9c2.2,0,4,0.8,5.4,2.4
		c1.4,1.6,2.5,3.7,3.2,6.3c0.8,2.6,1.3,5.7,1.6,9.2c0.3,3.5,0.5,7.1,0.5,10.9c0,3.8,0,7.6,0,11.5s0,7.5,0.1,10.8L408.4,629.9z
		 M410.8,629.8c0,2.6,0.3,4.7,0.8,6.3s1,3,1.6,4.2s1.2,2.2,1.8,3.1c0.6,0.9,1.1,1.8,1.5,2.8v4.2c-0.8-1.2-1.7-2.4-2.6-3.6
		c-0.9-1.2-1.8-2.6-2.5-4.1c-0.8-1.5-1.4-3.4-2-5.4c-0.5-2.1-0.9-4.5-1-7.4L410.8,629.8z M424.6,629.9c-0.1,2.9-0.5,5.3-1,7.4
		c-0.5,2.1-1.2,3.9-2,5.4c-0.8,1.6-1.6,2.9-2.5,4.1c-0.9,1.2-1.8,2.4-2.6,3.6v-4.2c0.4-1,0.9-1.9,1.5-2.8c0.6-0.9,1.2-1.9,1.8-3.1
		c0.6-1.2,1.1-2.6,1.6-4.2c0.4-1.6,0.7-3.7,0.8-6.3L424.6,629.9z M422.2,629.8c0.1-3.4,0.1-7,0.1-10.8c0-3.9,0-7.7,0-11.5
		s0.2-7.4,0.5-10.9s0.9-6.5,1.6-9.2c0.8-2.6,1.9-4.8,3.2-6.3c1.4-1.6,3.2-2.4,5.4-2.4v2.9c-1.8,0-3.2,0.8-4.3,2.3
		c-1.1,1.5-1.9,3.4-2.5,5.8c-0.6,2.4-1,5.3-1.2,8.5s-0.3,6.6-0.4,10.2c0,3.6-0.1,7.2,0,10.8c0,3.7,0,7.2-0.2,10.6L422.2,629.8z
		 M440.6,650.4L440.6,650.4c-1.2,0-2.3-0.3-3.2-0.8c-1-0.5-1.9-1.3-2.7-2.3c-0.8-1-1.6-2.2-2.4-3.6c-0.7-1.4-1.4-2.9-2.1-4.6
		c-0.8-2.1-1.7-3.6-2.8-4.8c-1.1-1.1-2.3-1.7-3.6-1.7v-2.7c2.1,0,3.8,0.8,5.4,2.5c1.5,1.6,2.8,3.9,3.9,6.7c1,2.6,2.1,4.7,3.2,6.3
		s2.5,2.4,4.1,2.4h0.1v2.6H440.6z"/>
	<path class="st1" d="M492.1,632.6L492.1,632.6c-1.7,0-3.1,0.8-4.2,2.4c-1.1,1.6-2.2,3.7-3.2,6.3c-1.1,2.8-2.4,5.1-3.9,6.7
		s-3.3,2.5-5.4,2.5v-2.7c1.3,0,2.5-0.6,3.6-1.7c1.1-1.1,2-2.7,2.8-4.8c0.6-1.7,1.3-3.2,2.1-4.6c0.7-1.4,1.5-2.6,2.4-3.6
		c0.8-1,1.7-1.8,2.7-2.3s2-0.8,3.1-0.8h0.1v2.6H492.1z M493.3,629.8c0,2.6,0.3,4.7,0.8,6.3s1,3,1.6,4.2s1.2,2.2,1.8,3.1
		c0.6,0.9,1.1,1.8,1.5,2.8v4.2c-0.8-1.2-1.7-2.4-2.6-3.6c-0.9-1.2-1.8-2.6-2.5-4.1c-0.8-1.5-1.4-3.3-2-5.4c-0.5-2-0.9-4.5-1-7.4
		h-0.1c-0.1-3.4-0.2-6.9-0.2-10.6c0-3.7,0-7.3,0-10.9c0-3.6-0.2-7-0.4-10.2s-0.6-6.1-1.2-8.5c-0.6-2.5-1.4-4.4-2.5-5.9
		s-2.5-2.2-4.3-2.3v-2.9c2.2,0,4,0.8,5.4,2.4c1.4,1.6,2.5,3.7,3.2,6.3c0.8,2.6,1.3,5.7,1.6,9.2c0.3,3.5,0.5,7.1,0.6,10.9
		s0.1,7.6,0,11.5C493.2,622.8,493.2,626.4,493.3,629.8z M504.8,629.8c0.1-3.4,0.1-7,0.1-10.8c0-3.9,0-7.7,0-11.5s0.3-7.4,0.6-10.9
		c0.3-3.5,0.9-6.5,1.6-9.2c0.8-2.6,1.9-4.8,3.2-6.3c1.4-1.6,3.2-2.4,5.4-2.4v2.9c-1.8,0-3.2,0.8-4.3,2.3c-1.1,1.5-1.9,3.4-2.5,5.9
		s-1,5.3-1.2,8.5s-0.3,6.6-0.4,10.2c0,3.6-0.1,7.2-0.1,10.9s-0.1,7.2-0.2,10.6c-0.1,2.9-0.5,5.3-1,7.4c-0.5,2-1.2,3.8-2,5.4
		c-0.8,1.6-1.6,2.9-2.5,4.1c-0.9,1.2-1.8,2.4-2.6,3.6v-4.2c0.4-1,0.9-1.9,1.5-2.8c0.6-0.9,1.2-1.9,1.8-3.1c0.6-1.2,1.1-2.6,1.6-4.2
		C504.4,634.4,504.7,632.3,504.8,629.8z M507.3,625.7c0,0.7,0,1.4,0,2.1c0,0.7,0,1.3,0.1,2c0,2.6,0.3,4.7,0.8,6.3s1,3,1.6,4.2
		s1.2,2.2,1.8,3.1c0.6,0.9,1.1,1.8,1.5,2.8v4.2c-0.8-1.2-1.7-2.4-2.6-3.6c-0.9-1.2-1.8-2.6-2.6-4.1c-0.8-1.5-1.5-3.3-2-5.4
		c-0.5-2-0.9-4.5-1-7.4c0-0.6,0-1.3,0.3-2.1C505.4,627.1,506.1,626.4,507.3,625.7z M518.8,629.8c0.1-3.4,0.1-7,0.1-10.8
		c0-3.9,0-7.7,0-11.5s0.3-7.4,0.6-10.9c0.3-3.5,0.9-6.5,1.6-9.2c0.8-2.6,1.9-4.8,3.2-6.3c1.4-1.6,3.2-2.4,5.4-2.4v2.9
		c-1.8,0-3.2,0.8-4.3,2.3s-1.9,3.4-2.5,5.9s-1,5.3-1.2,8.5s-0.3,6.6-0.4,10.2c0,3.6-0.1,7.2,0,10.9c0,3.7,0,7.2-0.2,10.6H521
		c-0.1,2.9-0.5,5.3-1,7.4c-0.5,2-1.2,3.8-2,5.4c-0.8,1.6-1.6,2.9-2.5,4.1c-0.9,1.2-1.8,2.4-2.6,3.6v-4.2c0.4-1,0.9-1.9,1.5-2.8
		c0.6-0.9,1.2-1.9,1.8-3.1c0.6-1.2,1.1-2.6,1.6-4.2C518.5,634.4,518.7,632.3,518.8,629.8z M537.1,650.4L537.1,650.4
		c-1.2,0-2.3-0.3-3.2-0.8c-1-0.5-1.9-1.3-2.7-2.3s-1.6-2.2-2.4-3.6c-0.7-1.4-1.4-2.9-2.1-4.6c-0.8-2.1-1.7-3.6-2.8-4.8
		c-1.1-1.1-2.3-1.7-3.6-1.7v-2.7c2.1,0,3.8,0.8,5.4,2.5c1.5,1.6,2.8,3.9,3.9,6.7c1,2.6,2.1,4.7,3.2,6.3s2.5,2.4,4.1,2.4h0.1v2.6
		H537.1z"/>
	<path class="st1" d="M607,641c0.6,2.1,1.5,3.7,2.6,4.9c1.2,1.2,2.4,1.7,3.7,1.7v2.7c-2.1,0-3.9-0.8-5.6-2.5c-1.7-1.7-3-4-3.8-6.9
		c-1-3.3-1.8-6.5-2.5-9.6s-1.5-5.8-2.3-8.1s-1.7-4.2-2.7-5.6c-1-1.4-2.2-2.1-3.7-2.1s-2.8,0.7-3.8,2.1c-1,1.4-1.9,3.2-2.8,5.5
		c-0.8,2.3-1.6,5-2.3,8.1s-1.6,6.3-2.5,9.7c-0.8,2.9-2.1,5.2-3.7,6.9c-1.7,1.7-3.5,2.5-5.6,2.5v-2.7c1.3,0,2.6-0.6,3.7-1.7
		c1.2-1.2,2.1-2.8,2.7-4.9c0.9-2.9,1.7-5.8,2.4-8.6s1.5-5.4,2.3-7.7s1.7-4.4,2.6-6.2s2-3.2,3.1-4.1c-1.6-1.1-3-2.9-4.2-5.4
		c-1.2-2.4-2.3-5.3-3.2-8.5s-1.8-6.7-2.5-10.5s-1.4-7.6-2.1-11.4h2.9c0.7,4.3,1.5,8.5,2.3,12.7c0.8,4.1,1.6,7.8,2.6,11
		s2.1,5.8,3.4,7.8c1.3,2,2.9,2.9,4.8,2.9c1.8,0,3.3-1,4.6-2.9c1.3-2,2.4-4.5,3.4-7.8c1-3.2,1.9-6.9,2.7-11s1.6-8.3,2.4-12.7h2.9
		c-0.7,3.8-1.4,7.6-2.1,11.4c-0.7,3.8-1.5,7.3-2.5,10.5c-0.9,3.2-2,6-3.2,8.5c-1.2,2.4-2.6,4.2-4.2,5.4c1.2,1,2.3,2.3,3.2,4.1
		s1.8,3.9,2.5,6.2c0.8,2.3,1.5,4.9,2.3,7.7C605.4,635.2,606.1,638.1,607,641z"/>
	<path class="st1" d="M665,632.7c-1.7,0-3.1,0.8-4.2,2.4c-1.1,1.6-2.2,3.7-3.2,6.3c-1.1,2.8-2.4,5.1-3.9,6.7s-3.3,2.5-5.4,2.5v-2.7
		c1.3,0,2.5-0.6,3.6-1.7c1.1-1.1,2-2.7,2.8-4.8c0.6-1.7,1.3-3.2,2.1-4.6c0.7-1.4,1.5-2.6,2.4-3.6c0.8-1,1.8-1.8,2.7-2.3
		s2-0.8,3.2-0.8L665,632.7L665,632.7z M663.5,614.7c-0.7-4.2-1.5-8.4-2.2-12.3c-0.8-4-1.6-7.5-2.6-10.7c-1-3.1-2.1-5.6-3.4-7.5
		c-1.3-1.9-2.8-2.8-4.6-2.8v-2.7c1.5,0,2.9,0.5,4.1,1.4s2.3,2.3,3.3,4s1.9,3.7,2.7,6s1.5,4.8,2.2,7.5s1.3,5.5,1.8,8.5
		c0.6,3,1.1,5.9,1.7,8.9L663.5,614.7z M663.4,614.9c0.5-3,1.1-5.9,1.7-8.9c0.6-3,1.2-5.8,1.8-8.5c0.7-2.7,1.4-5.2,2.2-7.5
		s1.7-4.3,2.7-6s2.1-3,3.3-4s2.6-1.4,4.1-1.4v2.7c-1.8,0-3.3,0.9-4.6,2.8c-1.3,1.9-2.4,4.4-3.4,7.5s-1.8,6.7-2.6,10.7
		s-1.5,8.1-2.2,12.3L663.4,614.9z M663.4,614.1h3.1v16.5h-3.1V614.1z M665,630c1.1,0,2.2,0.3,3.2,0.8s1.9,1.3,2.7,2.3
		s1.6,2.2,2.4,3.6c0.7,1.4,1.4,2.9,2.1,4.6c0.8,2.1,1.7,3.6,2.8,4.8c1.1,1.1,2.3,1.7,3.6,1.7v2.7c-2.1,0-3.8-0.8-5.4-2.5
		c-1.5-1.6-2.8-3.9-3.9-6.7c-1-2.6-2.1-4.7-3.2-6.3c-1.1-1.6-2.5-2.4-4.2-2.4L665,630L665,630z"/>
	<path class="st1" d="M728.6,596.3c1.6,0,3-0.9,4.2-2.6c1.2-1.7,2.3-4,3.4-6.9c1-2.7,2.3-4.7,3.8-6.1c1.5-1.4,3.2-2.1,5.2-2.1v2.7
		c-1.5,0-2.7,0.7-3.9,2.1c-1.1,1.4-2.1,3.2-3,5.6l-0.6,1.4c-0.9,2.6-1.6,5.6-2.3,8.9c-0.7,3.3-1.3,6.8-2,10.4
		c-0.6,3.6-1.3,7.3-1.9,11c-0.6,3.7-1.4,7.2-2.2,10.5c1.3-0.9,2.6-1.4,4-1.4c2.2,0,4,0.9,5.6,2.8c1.5,1.8,2.9,4.3,4.1,7.3
		c0.9,2.3,1.9,4.2,3,5.6s2.4,2.1,3.9,2.1v2.7c-2,0-3.7-0.7-5.2-2.1c-1.5-1.4-2.7-3.5-3.8-6.2c-1.1-2.9-2.2-5.2-3.4-6.9
		s-2.6-2.6-4.2-2.6c-1.6,0-3,0.8-4.1,2.4c-1.1,1.6-2.2,3.7-3.2,6.3c-1.1,2.8-2.4,5.1-3.9,6.7c-1.5,1.7-3.3,2.5-5.3,2.5v-2.7
		c1.3,0,2.5-0.6,3.6-1.7c1.1-1.1,2-2.7,2.8-4.8c0.2-0.6,0.5-1.3,0.8-1.9s0.5-1.2,0.8-1.8c0.8-2.6,1.6-5.6,2.3-8.9
		c0.7-3.3,1.4-6.7,2-10.3c0.7-3.6,1.3-7.1,2-10.7s1.4-7,2.2-10.3c-1.4,1.1-2.8,1.7-4.4,1.7v-2.7H728.6z M722.8,578.7
		c0,2.5,0.2,4.8,0.4,6.9s0.5,4,1,5.5c0.4,1.6,1,2.8,1.7,3.7s1.6,1.3,2.7,1.3v2.8c-1.5,0-2.7-0.5-3.7-1.6c-1-1-1.8-2.5-2.4-4.3
		c-0.6-1.8-1.1-4-1.4-6.4c-0.3-2.5-0.5-5.1-0.6-7.9H722.8z"/>
</g>
<g>
	<path class="st1" d="M100.6,748c-2.2,0-3.8-0.7-5-2c-1.1-1.3-1.9-3.1-2.4-5.4c-0.7,2.2-1.8,4-3.2,5.4c-1.4,1.3-3.5,2-6.1,1.9
		c-2.6,0-4.6-0.6-6-2c-1.5-1.4-2.6-3.2-3.3-5.4c-0.5,2.2-1.3,4-2.4,5.4c-1.1,1.4-2.8,2.1-5,2.1v-2.5c1.4,0,2.4-0.5,3.2-1.4
		s1.3-2.2,1.7-3.7c0.4-1.6,0.6-3.4,0.7-5.5c0.1-2.1,0.1-4.3,0.1-6.5V724c0-2.9,0.1-5.8,0.3-8.7c0.2-2.8,0.6-5.4,1.4-7.6
		c0.7-2.2,1.8-4,3.3-5.4s3.5-2.1,6-2.1s4.4,0.7,5.8,1.9c1.4,1.3,2.5,3,3.3,5.1s1.2,4.5,1.4,7.2c0.2,2.7,0.3,5.5,0.3,8.3s0,5.6,0,8.3
		s0.2,5.2,0.5,7.3s0.9,3.8,1.7,5.1c0.8,1.3,2,1.9,3.6,1.9L100.6,748L100.6,748z M83.9,745.3c1.8,0,3.3-0.6,4.4-1.6s1.9-2.4,2.5-4.2
		c0.6-1.7,0.9-3.7,1.1-6s0.3-4.6,0.3-7.1c0-2.9,0-5.7-0.1-8.5s-0.4-5.3-0.9-7.6c-0.5-2.2-1.3-4-2.5-5.4c-1.1-1.4-2.8-2.1-4.9-2.2
		c-2,0-3.6,0.7-4.7,1.9c-1.1,1.2-1.9,2.8-2.5,4.8c-0.5,2-0.9,4.2-1,6.7c-0.1,2.5-0.2,5.1-0.2,7.8s0.1,5.3,0.2,7.9
		c0.1,2.6,0.4,4.8,1,6.8c0.5,2,1.4,3.6,2.5,4.8C80.4,744.6,81.9,745.3,83.9,745.3z"/>
	<path class="st1" d="M168.4,748c-2.2,0-3.8-0.7-5-2c-1.1-1.3-1.9-3.1-2.4-5.4c-0.7,2.2-1.8,4-3.2,5.4c-1.4,1.3-3.5,2-6.1,1.9
		c-2.6,0-4.6-0.6-6-2c-1.5-1.4-2.6-3.2-3.3-5.4c-0.5,2.2-1.3,4-2.4,5.4c-1.1,1.4-2.8,2.1-5,2.1v-2.5c1.4,0,2.4-0.5,3.2-1.4
		c0.8-0.9,1.3-2.2,1.7-3.7c0.4-1.6,0.6-3.4,0.7-5.5c0.1-2.1,0.1-4.3,0.1-6.5V724v-64.9h2.6v46.4c0.8-1.6,1.8-2.9,3.1-3.8
		c1.3-1,3.1-1.4,5.2-1.4c2.5,0,4.4,0.7,5.8,1.9c1.4,1.3,2.5,3,3.3,5.1s1.2,4.5,1.4,7.2s0.3,5.5,0.3,8.3s0,5.6,0,8.3s0.2,5.2,0.5,7.3
		s0.9,3.8,1.7,5.1s2,1.9,3.6,1.9v2.6H168.4z M151.7,745.3c1.7,0,3.1-0.4,4.1-1.3c1-0.9,1.9-2,2.5-3.5s1-3.2,1.3-5.1
		c0.2-1.9,0.4-4,0.5-6.2c0-3.1-0.1-6.2-0.1-9.3s-0.2-5.9-0.7-8.5c-0.5-2.5-1.3-4.6-2.4-6.2c-1.1-1.6-2.9-2.4-5.2-2.5
		c-2,0-3.6,0.7-4.7,1.9s-1.9,2.8-2.5,4.8c-0.5,2-0.9,4.2-1,6.7s-0.2,5.1-0.2,7.8s0.1,5.3,0.2,7.9c0.1,2.6,0.4,4.8,1,6.8
		c0.5,2,1.4,3.6,2.5,4.8C148.1,744.6,149.7,745.3,151.7,745.3z"/>
	<path class="st1" d="M230.5,734c0,1.6,0.2,3.2,0.4,4.6c0.2,1.4,0.5,2.6,1,3.7c0.4,1,1,1.8,1.7,2.4c0.7,0.6,1.6,0.9,2.6,0.9v2.5
		c-2.2,0-3.8-0.7-5-2c-1.1-1.3-1.9-3.1-2.4-5.4c-0.7,2.2-1.8,4-3.2,5.4c-1.4,1.3-3.5,2-6.1,1.9c-2.6,0-4.6-0.6-6-2
		c-1.5-1.4-2.6-3.2-3.3-5.4c-0.5,2.2-1.3,4-2.4,5.4c-1.1,1.4-2.8,2.1-5,2.1v-2.5c1.4,0,2.4-0.5,3.2-1.4s1.3-2.2,1.7-3.7
		c0.4-1.6,0.6-3.4,0.7-5.5c0.1-2.1,0.1-4.3,0.1-6.5V724c0-2.9,0.1-5.8,0.3-8.7c0.2-2.8,0.6-5.4,1.4-7.6c0.7-2.2,1.8-4,3.3-5.4
		s3.5-2.1,6-2.1c1.7,0,3.1,0.3,4.3,0.9c1.2,0.6,2.2,1.5,3,2.6s1.4,2.4,1.9,3.9s0.8,3.1,1.1,4.9h-2.6c-0.2-1.4-0.5-2.6-0.9-3.8
		s-0.9-2.2-1.5-3s-1.4-1.5-2.2-2c-0.9-0.5-1.9-0.8-3.1-0.8c-2,0-3.6,0.7-4.7,1.9c-1.1,1.2-1.9,2.8-2.5,4.8c-0.5,2-0.9,4.2-1,6.7
		s-0.2,5.1-0.2,7.8s0.1,5.3,0.2,7.9c0.1,2.6,0.4,4.8,1,6.8c0.5,2,1.4,3.6,2.5,4.8s2.7,1.8,4.7,1.9c1.4,0,2.5-0.3,3.4-0.9
		c0.9-0.6,1.7-1.4,2.3-2.4s1.1-2.2,1.4-3.6c0.3-1.4,0.6-2.8,0.8-4.4h3.1V734z"/>
	<path class="st1" d="M270.7,745.5c1.6,0,2.8-0.6,3.6-1.9c0.8-1.3,1.4-3,1.7-5.1c0.3-2.1,0.5-4.5,0.5-7.3c0-2.7,0-5.5,0-8.3
		s0.1-5.6,0.3-8.3c0.2-2.7,0.7-5.1,1.4-7.2s1.8-3.8,3.3-5.1c1.4-1.3,3.4-1.9,5.8-1.9c2.1,0,3.8,0.5,5.1,1.4c1.3,1,2.4,2.2,3.2,3.8
		v-46.4h2.6V724c0,0.8,0,1.5,0,2.2s0,1.4-0.1,2.2c0,2.3,0.1,4.5,0.2,6.5c0.1,2.1,0.4,3.9,0.8,5.5s1,2.8,1.7,3.7
		c0.8,0.9,1.8,1.4,3.2,1.4v2.5c-2.2,0-3.8-0.7-5-2.1c-1.1-1.4-1.9-3.2-2.4-5.4c-0.8,2.2-1.9,4-3.3,5.4s-3.4,2-6,2s-4.6-0.6-6.1-1.9
		c-1.4-1.3-2.5-3.1-3.2-5.3c-0.5,2.2-1.3,4-2.5,5.3c-1.1,1.3-2.8,2-4.9,2v-2.5H270.7z M287.4,745.3c2,0,3.6-0.7,4.7-1.9
		s1.9-2.8,2.5-4.8c0.5-2,0.9-4.3,1-6.8c0.1-2.6,0.2-5.2,0.2-7.9v-1.8c0-2.5-0.1-4.9-0.3-7.2c-0.2-2.3-0.6-4.4-1.1-6.2
		c-0.6-1.8-1.4-3.2-2.5-4.3s-2.6-1.6-4.4-1.7c-2.1,0-3.8,0.8-4.9,2.2s-2,3.2-2.5,5.4s-0.8,4.7-0.9,7.6c-0.1,2.8-0.1,5.7-0.1,8.5
		c0,2.5,0.1,4.8,0.3,7.1c0.2,2.3,0.6,4.3,1.2,6s1.4,3.1,2.5,4.2C284,744.7,285.5,745.3,287.4,745.3z"/>
	<path class="st1" d="M344.4,720.3c0-2.6,0.2-5.1,0.5-7.6c0.3-2.4,0.8-4.6,1.6-6.4c0.8-1.8,1.9-3.3,3.3-4.4c1.4-1.1,3.3-1.7,5.5-1.7
		c2.4,0,4.3,0.6,5.7,1.8c1.4,1.2,2.5,2.8,3.3,4.8s1.3,4.3,1.5,6.8c0.3,2.6,0.4,5.2,0.4,7.9v2.5H347c0,2.7,0.1,5.3,0.2,7.9
		c0.1,2.6,0.4,4.8,1,6.8c0.5,2,1.4,3.6,2.5,4.8s2.7,1.8,4.7,1.9c1.4,0,2.5-0.3,3.4-0.9c0.9-0.6,1.7-1.4,2.3-2.4
		c0.6-1,1.1-2.2,1.4-3.6c0.3-1.4,0.6-2.8,0.8-4.4h3.1c0,1.6,0.2,3.2,0.4,4.6c0.2,1.4,0.5,2.6,1,3.7c0.4,1,1,1.8,1.7,2.4
		c0.7,0.6,1.6,0.9,2.6,0.9v2.5c-2.2,0-3.8-0.7-5-2c-1.1-1.3-1.9-3.1-2.4-5.4c-0.7,2.2-1.8,4-3.2,5.4c-1.4,1.3-3.5,2-6.1,1.9
		c-2.6,0-4.6-0.6-6-2c-1.5-1.4-2.6-3.2-3.3-5.4c-0.5,2.2-1.3,4-2.4,5.4s-2.8,2.1-5,2.1v-2.5c1.4,0,2.4-0.5,3.2-1.4
		c0.8-0.9,1.3-2.2,1.7-3.7c0.4-1.6,0.6-3.4,0.7-5.5s0.1-4.3,0.1-6.5V724c0-0.4,0-0.9,0-1.4S344.4,721.3,344.4,720.3z M355.3,702.8
		c-1.8,0-3.2,0.5-4.3,1.5c-1.1,1-1.9,2.2-2.5,3.8s-1,3.4-1.2,5.5s-0.3,4.3-0.4,6.6v1.2h16.7c0-2.5-0.2-4.8-0.3-7
		c-0.2-2.2-0.6-4.2-1.1-5.9c-0.6-1.7-1.4-3.1-2.5-4.1C358.6,703.3,357.1,702.8,355.3,702.8z"/>
	<path class="st1" d="M414.9,721.2v-34.9h-8.3v-2.5h8.3c0-3,0.1-6,0.2-8.9s0.6-5.6,1.3-8c0.7-2.4,1.8-4.3,3.2-5.7
		c1.5-1.4,3.5-2.2,6.2-2.2v2.6c-2.1,0-3.6,0.7-4.8,2c-1.1,1.3-1.9,2.9-2.5,5c-0.5,2.1-0.9,4.4-1,7s-0.1,5.4-0.1,8.1h8.3v2.5h-8.3
		v34.9c0,3.7,0.1,7,0.3,10c0.2,3,0.6,5.5,1.1,7.6c0.6,2.1,1.4,3.7,2.5,4.8s2.6,1.7,4.4,1.7v2.6c-1.4,0-2.6-0.2-3.7-0.6
		c-1-0.4-2-1-2.7-1.7c-0.8-0.8-1.4-1.7-1.9-2.7c-0.5-1.1-0.9-2.3-1.3-3.6c-0.6,2.6-1.7,4.7-3.2,6.3s-3.6,2.4-6.4,2.4v-2.6
		c2.2,0,3.9-0.8,5-2.2s2-3.2,2.5-5.5s0.8-4.8,0.8-7.7C414.8,727,414.9,724.1,414.9,721.2z"/>
	<path class="st1" d="M469.4,753.5c0.5,2.6,1.3,4.7,2.4,6.4c1.1,1.6,2.9,2.5,5.3,2.5c1.9,0,3.4-0.6,4.5-1.7c1.1-1.1,1.9-2.6,2.5-4.4
		c0.6-1.8,0.9-3.9,1.1-6.3c0.2-2.4,0.2-4.8,0.2-7.4c-0.8,1.6-1.9,2.9-3.2,3.9c-1.3,1-3.1,1.4-5.2,1.4c-2.6,0-4.6-0.6-6.1-1.9
		c-1.4-1.3-2.5-3.1-3.2-5.3c-0.5,2.2-1.3,4-2.5,5.3c-1.1,1.3-2.8,2-4.9,2v-2.5c1.6,0,2.8-0.6,3.6-1.9c0.8-1.3,1.4-3,1.7-5.1
		c0.3-2.1,0.5-4.5,0.5-7.3c0-2.7,0-5.5,0-8.3s0.1-5.6,0.3-8.3c0.2-2.7,0.7-5.1,1.4-7.2c0.8-2.1,1.8-3.8,3.3-5.1
		c1.4-1.3,3.4-1.9,5.8-1.9c2.6,0,4.6,0.7,6,2.1c1.5,1.4,2.5,3.2,3.2,5.4c0.7,2.3,1.2,4.8,1.4,7.7c0.2,2.9,0.3,5.7,0.3,8.7
		c0,2.6-0.1,5-0.2,7.4c0.2,1.6,0.2,3.2,0.2,4.9c-0.1,1.7,0,3.2,0.2,4.6c0.2,1.4,0.7,2.5,1.5,3.4s2.1,1.3,4,1.3v2.5
		c-1.3,0-2.5-0.1-3.4-0.4c-0.9-0.3-1.7-0.7-2.4-1.2c-0.1,2.5-0.3,4.8-0.6,7.1c-0.3,2.3-0.9,4.2-1.7,6s-1.9,3.1-3.2,4.1
		c-1.4,1-3.1,1.5-5.3,1.5c-1.7,0-3.1-0.3-4.3-0.9c-1.2-0.6-2.2-1.4-3-2.4s-1.4-2.2-1.9-3.7c-0.5-1.4-0.8-2.9-1.1-4.6h2.8V753.5z
		 M468.6,724c0,2.7,0.1,5.3,0.2,7.9c0.1,2.6,0.4,4.8,1,6.8c0.5,2,1.4,3.6,2.5,4.8s2.7,1.8,4.7,1.9c2,0,3.6-0.7,4.7-1.9
		s1.9-2.8,2.5-4.8s0.9-4.3,1-6.8c0.1-2.6,0.2-5.2,0.2-7.9s-0.1-5.3-0.2-7.8s-0.5-4.8-1-6.7s-1.4-3.5-2.5-4.8
		c-1.1-1.2-2.7-1.8-4.6-1.9c-2,0-3.6,0.7-4.7,1.9s-1.9,2.8-2.5,4.8c-0.5,2-0.9,4.2-1,6.7C468.7,718.7,468.6,721.3,468.6,724z"/>
	<path class="st1" d="M533.9,659h2.5v46.5c0.8-1.6,1.8-2.9,3.2-3.9s3.1-1.4,5.2-1.4c2.5,0,4.4,0.7,5.8,1.9c1.4,1.3,2.5,3,3.3,5.1
		s1.2,4.5,1.4,7.2s0.3,5.5,0.3,8.3s0,5.6,0,8.3s0.2,5.2,0.5,7.3s0.9,3.8,1.7,5.1s2,1.9,3.6,1.9v2.5c-2.1,0-3.7-0.6-4.8-1.9
		c-1.1-1.3-1.9-3-2.5-5.1c-0.5-2.1-0.8-4.5-0.9-7.2c-0.1-2.7-0.1-5.4-0.1-8.3c0-2.8,0-5.6-0.1-8.3s-0.4-5.1-0.9-7.2
		c-0.5-2.1-1.3-3.9-2.5-5.2c-1.1-1.3-2.7-2-4.8-2s-3.7,0.7-4.8,2s-1.9,3-2.5,5.2c-0.5,2.1-0.8,4.6-0.9,7.2c-0.1,2.7-0.1,5.4-0.1,8.3
		c0,2.8,0,5.6-0.1,8.3s-0.4,5.1-0.9,7.2c-0.5,2.1-1.3,3.8-2.5,5.1c-1.1,1.3-2.7,1.9-4.8,1.9v-2.5c1.4,0,2.4-0.5,3.2-1.5
		s1.4-2.3,1.7-3.9c0.4-1.6,0.6-3.6,0.7-5.7s0.1-4.5,0.1-6.9L533.9,659L533.9,659z"/>
	<path class="st1" d="M604.5,721.2v-21.1h2.5v21.1c0,3.7,0.1,7,0.3,10s0.6,5.5,1.1,7.6c0.6,2.1,1.4,3.7,2.5,4.8s2.6,1.7,4.4,1.7v2.6
		c-1.4,0-2.6-0.2-3.7-0.6c-1-0.4-2-1-2.7-1.7c-0.8-0.8-1.4-1.7-1.9-2.7c-0.5-1.1-0.9-2.3-1.3-3.6c-0.6,2.6-1.7,4.7-3.2,6.3
		s-3.6,2.4-6.4,2.4v-2.6c2.2,0,3.9-0.8,5-2.2s2-3.2,2.5-5.5s0.8-4.8,0.8-7.7C604.5,727,604.5,724.1,604.5,721.2z M603.9,690.5
		c0-0.5,0.2-0.9,0.6-1.3c0.4-0.4,0.8-0.6,1.3-0.6s0.9,0.2,1.3,0.6c0.4,0.4,0.6,0.8,0.6,1.3s-0.2,0.9-0.6,1.3
		c-0.4,0.4-0.8,0.6-1.3,0.6s-0.9-0.2-1.3-0.6C604.1,691.4,603.9,691,603.9,690.5z"/>
	<path class="st1" d="M658.3,721.2v-21.1h2.5v21.1c0,3.7,0.1,7,0.3,10s0.6,5.5,1.1,7.6c0.6,2.1,1.4,3.7,2.5,4.8s2.6,1.7,4.4,1.7v2.6
		c-2.1,0-3.9-0.4-5.2-1.3c-1.3-0.9-2.4-2.2-3.1-3.8c0,2.8-0.2,5.5-0.4,8.2s-0.7,5-1.4,7.1c-0.8,2.1-1.8,3.7-3.2,5s-3.4,1.9-5.8,1.9
		v-2.6c1.9,0,3.4-0.6,4.5-1.7c1.1-1.1,1.9-2.5,2.5-4.3s0.9-3.9,1.1-6.2c0.2-2.3,0.2-4.8,0.2-7.4c-0.8,1.6-1.8,2.9-3.2,3.8
		c-1.3,1-3.1,1.4-5.2,1.4v-2.6c2.2,0,3.9-0.8,5-2.2s2-3.2,2.5-5.5s0.8-4.8,0.8-7.7C658.2,727,658.3,724.1,658.3,721.2z M657.6,690.5
		c0-0.5,0.2-0.9,0.6-1.3c0.4-0.4,0.8-0.6,1.3-0.6s0.9,0.2,1.3,0.6c0.4,0.4,0.6,0.8,0.6,1.3s-0.2,0.9-0.6,1.3
		c-0.4,0.4-0.8,0.6-1.3,0.6s-0.9-0.2-1.3-0.6S657.6,691,657.6,690.5z"/>
	<path class="st1" d="M712.2,734.8c0,1.9,0,3.6-0.1,5.2c-0.1,1.6-0.4,3-0.9,4.1c-0.5,1.2-1.4,2.1-2.5,2.7s-2.8,1-4.9,1v-2.5
		c1.5,0,2.6-0.3,3.4-0.8c0.8-0.5,1.4-1.3,1.7-2.4c0.4-1.1,0.6-2.5,0.7-4.2c0.1-1.7,0.1-3.7,0.1-6.1v-55.7h2.5V734.8z M712.2,722.7
		c2.1,0,3.7-0.7,4.8-2s1.9-3,2.5-5.1c0.5-2.1,0.8-4.5,0.9-7.2c0.1-2.7,0.1-5.4,0.1-8.2l2.6-0.1c0,3.1-0.1,6.1-0.2,9.1
		c-0.1,3-0.6,5.7-1.3,8.1c-0.7,2.4-1.8,4.3-3.3,5.8s-3.5,2.2-6.2,2.2v-2.6H712.2z M712.2,722.7c2.4,0,4.3,0.3,5.7,1s2.5,1.5,3.3,2.6
		c0.8,1,1.3,2.3,1.6,3.6c0.3,1.4,0.5,2.8,0.5,4.2c0.1,1.4,0.2,2.8,0.2,4.2s0.2,2.6,0.5,3.6s0.8,1.9,1.6,2.6c0.7,0.7,1.8,1,3.3,1v2.5
		c-2.1,0-3.6-0.3-4.8-1s-1.9-1.5-2.4-2.5s-0.8-2.2-0.9-3.6c-0.1-1.3-0.1-2.7-0.2-4.1c0-1.4-0.1-2.8-0.2-4.1
		c-0.1-1.3-0.4-2.6-0.9-3.6c-0.5-1.1-1.4-1.9-2.5-2.6c-1.1-0.7-2.8-1-4.9-1.1v-2.7H712.2z"/>
	<path class="st1" d="M771.7,721.2V659h2.5v62.2c0,3.7,0.1,7,0.3,10s0.6,5.5,1.1,7.6c0.6,2.1,1.4,3.7,2.5,4.8s2.6,1.7,4.4,1.7v2.6
		c-1.4,0-2.6-0.2-3.7-0.6c-1-0.4-2-1-2.7-1.7c-0.8-0.8-1.4-1.7-1.9-2.7c-0.5-1.1-0.9-2.3-1.3-3.6c-0.6,2.6-1.7,4.7-3.2,6.3
		s-3.6,2.4-6.4,2.4v-2.6c2.2,0,3.9-0.8,5-2.2s2-3.2,2.5-5.5s0.8-4.8,0.8-7.7C771.7,727,771.7,724.1,771.7,721.2z"/>
</g>
<g>
	<path class="st1" d="M92.3,821.6c0-2.7-0.1-5.3-0.2-7.9c-0.1-2.6-0.4-4.8-1-6.8c-0.5-2-1.4-3.5-2.5-4.8c-1.1-1.2-2.7-1.8-4.7-1.9
		c-2.1,0-3.7,0.7-4.8,2c-1.1,1.3-1.9,3-2.5,5.2c-0.5,2.1-0.8,4.6-0.9,7.2c-0.1,2.7-0.1,5.4-0.1,8.3c0,2.8,0,5.6-0.1,8.3
		c-0.1,2.7-0.4,5.1-0.9,7.2c-0.5,2.1-1.3,3.8-2.5,5.1c-1.1,1.3-2.7,1.9-4.8,1.9v-2.5c1.6,0,2.8-0.6,3.6-1.9c0.8-1.3,1.4-3,1.7-5.1
		c0.3-2.1,0.5-4.5,0.5-7.3c0-2.7,0-5.5,0-8.3s0.1-5.6,0.3-8.3s0.7-5.1,1.4-7.2s1.8-3.8,3.3-5.1c1.4-1.3,3.4-1.9,5.8-1.9
		c2.6,0,4.6,0.7,6,2.1c1.5,1.4,2.6,3.2,3.3,5.4c0.7,2.3,1.2,4.8,1.4,7.7c0.2,2.9,0.3,5.8,0.3,8.7h-2.6V821.6z M111.6,821.6
		c0-2.7-0.1-5.3-0.2-7.9c-0.1-2.6-0.4-4.8-1-6.8c-0.5-2-1.4-3.6-2.5-4.8s-2.7-1.8-4.7-1.9c-2,0-3.6,0.7-4.7,1.9s-1.9,2.8-2.5,4.8
		c-0.5,2-0.9,4.3-1,6.8c-0.1,2.6-0.2,5.2-0.2,7.9h-2.6c0-2,0-3.9,0.1-5.8s0.2-3.8,0.4-5.6c0.2-1.8,0.6-3.4,1.1-5
		c0.5-1.5,1.1-2.8,1.9-4c0.8-1.1,1.8-2,3-2.6s2.6-1,4.4-1c2.6,0,4.6,0.7,6.1,2.1c1.5,1.4,2.5,3.2,3.2,5.4s1.1,4.8,1.3,7.7
		c0.2,2.9,0.2,5.8,0.2,8.8L111.6,821.6L111.6,821.6z M92.3,821.6h2.6v23.9h-2.6V821.6z M114.1,821.6c0,2.7,0,5.4,0,8
		s0.2,4.9,0.5,6.9s0.9,3.6,1.7,4.8c0.8,1.2,2,1.8,3.5,1.8v2.5c-2.2,0-3.9-0.7-5-2.1c-1.1-1.4-2-3.2-2.5-5.5s-0.8-4.8-0.8-7.7
		s-0.1-5.8-0.1-8.7H114.1z"/>
	<path class="st1" d="M171.5,845.6c-2.1,0-3.7-0.6-4.8-1.9c-1.1-1.3-1.9-3-2.5-5.1c-0.5-2.1-0.8-4.5-0.9-7.2
		c-0.1-2.7-0.1-5.4-0.1-8.3c0-2.8,0-5.6-0.1-8.3s-0.4-5.1-0.9-7.2c-0.5-2.1-1.3-3.9-2.5-5.2c-1.1-1.3-2.7-2-4.8-2s-3.7,0.7-4.8,2
		s-1.9,3-2.5,5.2c-0.5,2.1-0.8,4.6-0.9,7.2c-0.1,2.7-0.1,5.4-0.1,8.3c0,2.8,0,5.6-0.1,8.3s-0.4,5.1-0.9,7.2
		c-0.5,2.1-1.3,3.8-2.5,5.1c-1.1,1.3-2.7,1.9-4.8,1.9v-2.5c1.6,0,2.8-0.6,3.6-1.9c0.8-1.3,1.4-3,1.7-5.1c0.3-2.1,0.5-4.5,0.5-7.3
		c0-2.7,0-5.5,0-8.3s0.1-5.6,0.3-8.3s0.7-5.1,1.4-7.2c0.7-2.1,1.8-3.8,3.3-5.1c1.4-1.3,3.4-1.9,5.8-1.9s4.4,0.7,5.8,1.9
		c1.4,1.3,2.5,3,3.3,5.1s1.2,4.5,1.4,7.2s0.3,5.5,0.3,8.3s0,5.6,0,8.3s0.2,5.2,0.5,7.3s0.9,3.8,1.7,5.1s2,1.9,3.6,1.9L171.5,845.6
		L171.5,845.6z"/>
	<path class="st1" d="M223.2,845.6c-2.2,0-3.8-0.7-5-2c-1.1-1.3-1.9-3.1-2.4-5.4c-0.7,2.2-1.8,4-3.2,5.4c-1.4,1.3-3.5,2-6.1,1.9
		c-2.6,0-4.6-0.6-6-2c-1.5-1.4-2.6-3.2-3.3-5.5c-0.5,2.3-1.3,4.1-2.4,5.5c-1.1,1.4-2.8,2.1-5,2.1v-2.5c1.6,0,2.8-0.6,3.6-1.9
		c0.8-1.3,1.4-3,1.7-5.1s0.5-4.5,0.5-7.3c0-2.7,0-5.5,0-8.3s0.1-5.6,0.3-8.3s0.7-5.1,1.4-7.2s1.8-3.8,3.3-5.1
		c1.4-1.3,3.4-1.9,5.8-1.9c2.3,0,4.2,0.6,5.5,1.7c1.4,1.1,2.4,2.6,3.2,4.5c1-0.3,2-1,2.9-2.1s1.6-2.5,2.3-4.1h2.9
		c-0.9,2.3-1.9,4.3-3.1,5.8c-1.2,1.5-2.5,2.5-4,3c0.5,2.2,0.9,4.6,1.1,7.3c0.2,2.7,0.2,5.4,0.2,8.1c0,2.7,0,5.3,0,7.9
		c0,2.6,0.2,4.8,0.5,6.8s0.9,3.6,1.7,4.8s2,1.8,3.5,1.8v2.1H223.2z M206.6,842.9c1.7,0,3.1-0.4,4.1-1.3c1-0.9,1.9-2,2.5-3.5
		s1-3.2,1.3-5.1c0.2-1.9,0.4-4,0.5-6.2c0-3.1-0.1-6.2-0.1-9.3s-0.2-5.9-0.7-8.5c-0.5-2.5-1.3-4.6-2.4-6.2c-1.1-1.6-2.9-2.4-5.2-2.5
		c-2.3,0-4.1,0.9-5.2,2.5s-2,3.7-2.4,6.2c-0.5,2.5-0.7,5.4-0.7,8.5s0,6.2,0,9.3c0,2.2,0.2,4.3,0.4,6.2c0.3,1.9,0.7,3.6,1.3,5.1
		s1.4,2.6,2.5,3.5C203.5,842.5,204.9,842.9,206.6,842.9z"/>
	<path class="st1" d="M247.3,844c-0.6,0.5-1.4,0.9-2.4,1.2c-0.9,0.3-2.1,0.4-3.4,0.4v-2.5c1.2,0,2.2-0.2,3-0.6
		c0.8-0.4,1.3-1,1.7-1.6c0.4-0.7,0.7-1.5,0.8-2.4s0.2-1.9,0.2-3v-11.2v-2.7c0-2.9,0.1-5.8,0.3-8.7c0.2-2.8,0.7-5.4,1.4-7.7
		s1.8-4.1,3.2-5.4c1.5-1.4,3.5-2.1,6-2.1s4.4,0.7,5.8,1.9c1.4,1.3,2.5,3,3.3,5.1s1.2,4.5,1.4,7.2s0.3,5.5,0.3,8.3s0,5.6,0,8.3
		s0.2,5.2,0.5,7.3c0.3,2.1,0.9,3.8,1.7,5.1s2,1.9,3.6,1.9v2.5c-2.2,0-3.8-0.7-5-2c-1.1-1.3-1.9-3.1-2.4-5.4c-0.7,2.2-1.8,4-3.2,5.4
		c-1.4,1.3-3.5,2-6.1,1.9c-2.1,0-3.8-0.4-5.2-1.3c-1.3-0.9-2.4-2.2-3.2-3.8v22.3H247V844H247.3z M266.6,821.6c0-2.7-0.1-5.3-0.2-7.8
		c-0.1-2.5-0.5-4.8-1-6.7c-0.5-2-1.4-3.5-2.5-4.8c-1.1-1.2-2.7-1.8-4.6-1.9c-2,0-3.6,0.7-4.7,1.9c-1.1,1.2-1.9,2.8-2.5,4.8
		c-0.5,2-0.9,4.2-1,6.7s-0.2,5.1-0.2,7.8s0.1,5.3,0.2,7.9c0.1,2.6,0.4,4.8,1,6.8c0.5,2,1.4,3.6,2.5,4.8s2.7,1.8,4.7,1.9
		c2,0,3.6-0.7,4.7-1.9c1.1-1.2,1.9-2.8,2.5-4.8c0.5-2,0.9-4.3,1-6.8C266.5,826.9,266.6,824.2,266.6,821.6z"/>
	<path class="st1" d="M320.8,862.7h-2.5v-22.5c-0.8,1.6-1.9,2.9-3.2,3.9c-1.3,1-3.1,1.4-5.2,1.4c-2.6,0-4.6-0.6-6.1-1.9
		c-1.4-1.3-2.5-3.1-3.2-5.3c-0.5,2.2-1.3,4-2.5,5.3c-1.1,1.3-2.8,2-4.9,2v-2.5c1.6,0,2.8-0.6,3.6-1.9c0.8-1.3,1.4-3,1.7-5.1
		c0.3-2.1,0.5-4.5,0.5-7.3c0-2.7,0-5.5,0-8.3s0.1-5.6,0.3-8.3c0.2-2.7,0.7-5.1,1.4-7.2s1.8-3.8,3.3-5.1c1.4-1.3,3.4-1.9,5.8-1.9
		c2.6,0,4.6,0.7,6,2.1c1.5,1.4,2.5,3.2,3.2,5.4c0.7,2.3,1.2,4.8,1.4,7.7c0.2,2.9,0.3,5.7,0.3,8.7v0.1v13.7c0,1,0.1,2,0.2,3
		s0.4,1.7,0.8,2.4s1,1.2,1.7,1.6c0.8,0.4,1.7,0.6,3,0.6v2.5c-1.3,0-2.5-0.1-3.4-0.4c-0.9-0.3-1.7-0.7-2.4-1.2v18.5H320.8z
		 M318.2,821.6c0-2.7-0.1-5.3-0.2-7.8s-0.5-4.8-1-6.7c-0.5-2-1.4-3.5-2.5-4.8c-1.1-1.2-2.7-1.8-4.6-1.9c-2.1,0-3.8,0.8-4.9,2.2
		s-2,3.2-2.5,5.4s-0.8,4.7-0.9,7.6c-0.1,2.8-0.1,5.7-0.1,8.5c0,2.5,0.1,4.8,0.3,7.1c0.2,2.3,0.6,4.3,1.2,6s1.4,3.1,2.5,4.2
		c1.1,1,2.5,1.6,4.4,1.6c2,0,3.6-0.7,4.7-1.9s1.9-2.8,2.5-4.8c0.5-2,0.9-4.3,1-6.8C318.1,826.9,318.2,824.2,318.2,821.6z"/>
	<path class="st1" d="M353,818.8v-21.1h2.5v5.3c0.8-1.6,1.8-2.9,3.2-3.8c1.3-0.9,3.1-1.4,5.2-1.4v2.6c-1.7,0-3.1,0.5-4.2,1.5
		c-1.1,0.9-1.9,2.2-2.5,3.7c-0.6,1.6-1,3.4-1.2,5.4c-0.2,2.1-0.3,4.3-0.4,6.5v1.3c0,3.7,0.1,7,0.3,10c0.2,3,0.6,5.5,1.1,7.6
		c0.6,2.1,1.4,3.7,2.5,4.8s2.6,1.7,4.4,1.7v2.6c-1.4,0-2.6-0.2-3.7-0.6c-1-0.4-2-1-2.7-1.7c-0.8-0.8-1.4-1.7-1.9-2.7
		c-0.5-1.1-0.9-2.3-1.3-3.6c-0.6,2.6-1.7,4.7-3.2,6.3s-3.6,2.4-6.4,2.4V843c2.2,0,3.9-0.8,5-2.2s2-3.2,2.5-5.5s0.8-4.8,0.8-7.7
		C353,824.6,353,821.7,353,818.8z"/>
	<path class="st1" d="M392.5,809.9c0,1.4,0.2,2.7,0.5,4c0.4,1.3,0.9,2.3,1.5,3.3c0.7,0.9,1.5,1.7,2.4,2.3c1,0.6,2.1,0.9,3.3,0.9
		c1.7,0,3.2,0.4,4.5,1.1c1.3,0.7,2.4,1.7,3.2,2.8c0.9,1.2,1.5,2.6,1.9,4.2c0.4,1.6,0.6,3.3,0.6,5.1c1,2.9,2.1,5.2,3.4,6.9
		s2.8,2.6,4.5,2.6v2.7c-1.8-0.1-3.4-0.8-4.8-2.1s-2.6-3.1-3.7-5.3c-0.6,2.2-1.8,4-3.4,5.4c-1.6,1.3-3.7,2-6.3,2
		c-2.7,0-4.8-0.7-6.2-2.1c-1.5-1.4-2.5-3.3-3.2-5.7c-1.1,2.3-2.3,4.2-3.8,5.6c-1.4,1.4-3.1,2.1-4.9,2.2v-2.7c1.7,0,3.2-0.9,4.4-2.6
		c1.3-1.7,2.4-4,3.4-6.9h2.6c0.2,1.4,0.5,2.6,0.9,3.8s0.9,2.2,1.5,3c0.6,0.9,1.4,1.5,2.2,2c0.9,0.5,1.9,0.7,3.1,0.7
		c2.5,0,4.4-1,5.7-2.7c1.4-1.8,2.1-4.1,2.1-6.8c0-1.4-0.2-2.7-0.5-4c-0.4-1.3-0.9-2.4-1.5-3.3c-0.7-1-1.5-1.7-2.4-2.3
		c-1-0.6-2.1-0.9-3.3-0.9c-1.7,0-3.2-0.3-4.5-1s-2.3-1.6-3.2-2.8c-0.9-1.2-1.5-2.6-1.9-4.1c-0.4-1.6-0.6-3.2-0.6-5
		c0-1.7,0.2-3.3,0.7-4.8s1.1-2.8,2-3.9c0.9-1.1,1.9-1.9,3.2-2.6c1.3-0.6,2.8-0.9,4.4-0.9c1.7,0,3.1,0.3,4.3,0.9
		c1.2,0.6,2.2,1.5,3,2.5c0.8,1.1,1.4,2.3,1.9,3.8s0.8,3.1,1.1,4.9H408c-0.2-1.4-0.5-2.6-0.9-3.8s-0.9-2.2-1.5-3
		c-0.6-0.9-1.4-1.5-2.2-2c-0.9-0.5-1.9-0.7-3.1-0.7c-2.5,0-4.4,1-5.7,2.7S392.5,807.1,392.5,809.9z"/>
	<path class="st1" d="M447.6,770.2v48.6c0,3.7,0.1,7,0.3,10c0.2,3,0.6,5.5,1.1,7.6c0.6,2.1,1.4,3.7,2.5,4.8s2.6,1.7,4.5,1.7v2.6
		c-1.4,0-2.7-0.2-3.7-0.6s-2-1-2.8-1.7s-1.4-1.7-2-2.7c-0.5-1.1-1-2.3-1.3-3.6c-0.6,2.6-1.7,4.7-3.2,6.3s-3.6,2.4-6.4,2.4V843
		c2.2,0,3.9-0.8,5-2.2s2-3.2,2.5-5.5s0.8-4.8,0.8-7.7s0.1-5.8,0.1-8.7v-48.6L447.6,770.2L447.6,770.2z M455.9,783.9h-19.1v-2.5h19.1
		V783.9z"/>
	<path class="st1" d="M482.6,817.3c0,2.1-0.1,4.3,0,6.6c0,2.2,0,4.4-0.1,6.5s-0.3,4.1-0.5,5.9c-0.3,1.8-0.7,3.4-1.3,4.8
		c-0.6,1.4-1.4,2.5-2.5,3.3c-1,0.8-2.4,1.2-4,1.2v-2.5c1.8,0,3.1-0.8,3.9-2.3s1.3-3.6,1.6-6s0.4-5.2,0.3-8.3c0-3.1,0-6.2,0.1-9.3
		L482.6,817.3z M482.5,797.7c0,3.3,0.1,6.7,0,10.2c0,3.5,0,6.9,0.1,10.3c0.1,3.4,0.2,6.5,0.4,9.5c0.2,3,0.6,5.6,1.2,7.8
		c0.6,2.3,1.4,4,2.5,5.4c1,1.3,2.4,2,4.1,2v2.7c-2.1,0-3.9-0.7-5.2-2.1c-1.3-1.4-2.4-3.3-3.2-5.7c-0.8-2.4-1.4-5.2-1.7-8.4
		c-0.4-3.2-0.6-6.6-0.7-10.2c-0.1-3.6-0.1-7.2-0.1-10.8c0-3.7,0-7.2,0-10.6L482.5,797.7z M501.9,797.6c0,3.4-0.1,6.9,0,10.6
		c0,3.7,0,7.3-0.1,10.8c-0.1,3.6-0.3,6.9-0.7,10.2c-0.3,3.2-0.9,6-1.7,8.4c-0.8,2.4-1.9,4.3-3.3,5.7s-3.1,2.1-5.2,2.1v-2.7
		c1.7,0,3.1-0.7,4.1-2.1s1.9-3.1,2.5-5.3s1-4.8,1.3-7.8s0.4-6.2,0.4-9.5c0-3.4,0.1-6.8,0-10.3c0-3.5,0-6.9,0.1-10.3L501.9,797.6z
		 M501.8,817.2c0,2.1,0.1,4.1,0.1,6.2c0,2.1,0,4.1,0,6s0.1,3.7,0.3,5.4c0.2,1.7,0.4,3.1,0.9,4.3c0.4,1.2,1,2.2,1.7,2.9
		s1.7,1.1,2.9,1.1v2.5c-1.6,0-3-0.4-4-1.2s-1.8-1.9-2.5-3.3c-0.6-1.4-1-3-1.3-4.8s-0.4-3.8-0.5-5.9c-0.1-2.1-0.1-4.3-0.1-6.5
		s0-4.4,0-6.6L501.8,817.2z"/>
	<path class="st1" d="M536.8,825c0,2.6-0.2,5.2-0.4,7.7c-0.3,2.5-0.8,4.7-1.5,6.6s-1.8,3.4-3.2,4.6c-1.4,1.1-3.3,1.7-5.7,1.7v-2.9
		c1.8,0,3.2-0.5,4.3-1.5s1.9-2.2,2.5-3.9c0.6-1.6,1-3.5,1.2-5.6s0.3-4.3,0.4-6.7L536.8,825L536.8,825z M536.8,797.6
		c0.2,4.5,0.3,9.2,0.2,13.9c-0.1,4.8-0.1,9.2,0,13.4l-2.8,0.1c-0.2-4.4-0.2-8.9-0.1-13.7c0.1-4.8,0.1-9.3-0.1-13.7H536.8z M537,825
		c0,2.6,0.3,4.7,0.8,6.3s1,3,1.6,4.2s1.2,2.2,1.8,3.1c0.6,0.9,1.1,1.8,1.5,2.8v4.2c-0.8-1.2-1.7-2.4-2.7-3.6c-1-1.2-1.8-2.6-2.7-4.1
		c-0.8-1.5-1.5-3.4-2.1-5.4c-0.6-2.1-1-4.5-1.1-7.4L537,825z M551.3,825c-0.1,2.9-0.5,5.3-1.1,7.4c-0.6,2.1-1.3,3.9-2.1,5.4
		c-0.8,1.6-1.7,2.9-2.7,4.1c-1,1.2-1.8,2.4-2.7,3.6v-4.2c0.4-1,0.9-1.9,1.5-2.8c0.6-0.9,1.2-1.9,1.8-3.1c0.6-1.2,1.1-2.6,1.6-4.2
		c0.4-1.6,0.7-3.7,0.8-6.3L551.3,825z M551.4,797.6c-0.2,4.4-0.2,8.9-0.1,13.7c0.1,4.8,0.1,9.3-0.1,13.7l-2.8-0.1
		c0.1-4.2,0.1-8.7,0-13.4c-0.1-4.8,0-9.4,0.2-13.9H551.4z M551.2,825c0,2.3,0.2,4.5,0.3,6.7c0.2,2.1,0.6,4,1.2,5.6
		c0.6,1.6,1.4,2.9,2.5,3.9s2.5,1.5,4.3,1.5v2.9c-2.4,0-4.3-0.6-5.7-1.7c-1.4-1.1-2.5-2.7-3.2-4.6c-0.8-1.9-1.3-4.1-1.5-6.6
		c-0.3-2.5-0.4-5-0.4-7.7L551.2,825L551.2,825z"/>
	<path class="st1" d="M588.6,825c0,2.6-0.2,5.2-0.4,7.7c-0.3,2.5-0.8,4.7-1.5,6.6s-1.8,3.4-3.2,4.6c-1.4,1.1-3.3,1.7-5.7,1.7v-2.9
		c1.8,0,3.2-0.5,4.3-1.5s1.9-2.2,2.5-3.9c0.6-1.6,1-3.5,1.2-5.6s0.3-4.3,0.4-6.7L588.6,825L588.6,825z M588.6,797.6
		c0.2,4.5,0.3,9.2,0.2,13.9c-0.1,4.8-0.1,9.2,0,13.4L586,825c-0.2-4.4-0.2-8.9-0.1-13.7c0.1-4.8,0.1-9.3-0.1-13.7H588.6z M588.8,825
		c0,2.6,0.3,4.7,0.8,6.3s1,3,1.6,4.2s1.2,2.2,1.8,3.1c0.6,0.9,1.1,1.8,1.5,2.8v4.2c-0.8-1.2-1.7-2.4-2.7-3.6c-1-1.2-1.8-2.6-2.7-4.1
		c-0.8-1.5-1.5-3.4-2.1-5.4c-0.6-2.1-1-4.5-1.1-7.4L588.8,825z M603.1,825c-0.1,2.9-0.5,5.3-1.1,7.4c-0.6,2.1-1.3,3.9-2.1,5.4
		c-0.8,1.6-1.7,2.9-2.7,4.1c-1,1.2-1.8,2.4-2.7,3.6v-4.2c0.4-1,0.9-1.9,1.5-2.8c0.6-0.9,1.2-1.9,1.8-3.1c0.6-1.2,1.1-2.6,1.6-4.2
		c0.4-1.6,0.7-3.7,0.8-6.3L603.1,825z M601.3,827.6c0.2,2,0.5,3.7,1,5s1,2.5,1.5,3.5s1.1,1.9,1.7,2.7c0.6,0.8,1,1.7,1.4,2.6v4.2
		c-0.6-0.9-1.2-1.7-1.9-2.6c-0.7-0.8-1.3-1.8-2-2.7s-1.3-2-1.8-3.2c-0.6-1.1-1.1-2.4-1.5-3.9L601.3,827.6z M603.3,797.6
		c-0.2,4.4-0.2,8.9-0.1,13.7c0.1,4.8,0.1,9.3-0.1,13.7l-2.8-0.1c0.1-4.2,0.1-8.7,0-13.4c-0.1-4.8,0-9.4,0.2-13.9H603.3z M615.5,825
		c-0.1,2.9-0.5,5.3-1.1,7.4c-0.6,2.1-1.3,3.9-2.1,5.4c-0.8,1.6-1.7,2.9-2.7,4.1c-1,1.2-1.8,2.4-2.7,3.6v-4.2c0.4-1,0.9-1.9,1.5-2.8
		c0.6-0.9,1.2-1.9,1.8-3.1c0.6-1.2,1.1-2.6,1.6-4.2c0.4-1.6,0.7-3.7,0.8-6.3L615.5,825z M615.6,797.6c-0.2,4.4-0.2,8.9-0.1,13.7
		c0.1,4.8,0.1,9.3-0.1,13.7l-2.8-0.1c0.1-4.2,0.1-8.7,0-13.4c-0.1-4.8,0-9.4,0.2-13.9H615.6z M615.4,825c0,2.3,0.2,4.5,0.3,6.7
		c0.2,2.1,0.6,4,1.2,5.6c0.6,1.6,1.4,2.9,2.5,3.9s2.5,1.5,4.3,1.5v2.9c-2.4,0-4.3-0.6-5.7-1.7c-1.4-1.1-2.5-2.7-3.2-4.6
		c-0.8-1.9-1.3-4.1-1.5-6.6c-0.3-2.5-0.4-5-0.4-7.7L615.4,825L615.4,825z"/>
	<path class="st1" d="M658.6,822.9c-2.1,0-3.7,0.4-4.9,1.1c-1.1,0.7-2,1.5-2.5,2.6s-0.8,2.3-0.9,3.6c-0.1,1.3-0.1,2.7-0.2,4.1
		c0,1.4-0.1,2.8-0.2,4.1c-0.1,1.3-0.4,2.5-0.9,3.6c-0.5,1-1.3,1.9-2.4,2.5s-2.7,1-4.8,1V843c1.5,0,2.6-0.3,3.3-1s1.3-1.5,1.6-2.6
		c0.3-1,0.5-2.3,0.5-3.6c0-1.4,0.1-2.8,0.2-4.2c0.1-1.4,0.3-2.8,0.5-4.2c0.3-1.4,0.8-2.6,1.6-3.6s1.9-1.9,3.3-2.6
		c1.4-0.7,3.3-1,5.7-1v2.7H658.6z M650.3,797.6c0,2.8,0,5.6,0.1,8.3s0.4,5.1,0.9,7.2c0.5,2.1,1.3,3.8,2.5,5.1c1.1,1.3,2.7,2,4.8,2
		s3.7-0.7,4.8-2s1.9-3,2.5-5.1c0.5-2.1,0.8-4.5,0.9-7.2c0.1-2.7,0.1-5.4,0.1-8.2l2.6-0.1c0,3.1-0.1,6.1-0.2,9.1
		c-0.1,3-0.6,5.7-1.3,8.1c-0.7,2.4-1.8,4.3-3.3,5.8s-3.5,2.2-6.2,2.2c-2.6,0-4.7-0.7-6.2-2.2s-2.6-3.4-3.3-5.8s-1.1-5.1-1.3-8.1
		c-0.1-3-0.2-6.1-0.2-9.1H650.3z M658.6,820.3c2.4,0,4.3,0.3,5.7,1s2.5,1.5,3.3,2.6c0.8,1,1.3,2.3,1.6,3.6c0.3,1.4,0.5,2.8,0.5,4.2
		c0.1,1.4,0.2,2.8,0.2,4.2s0.2,2.6,0.5,3.6s0.8,1.9,1.6,2.6c0.7,0.7,1.8,1,3.3,1v2.5c-2.1,0-3.6-0.3-4.8-1c-1.1-0.6-1.9-1.5-2.4-2.5
		s-0.8-2.2-0.9-3.6c-0.1-1.3-0.1-2.7-0.2-4.1c0-1.4-0.1-2.8-0.2-4.1c-0.1-1.3-0.4-2.6-0.9-3.6c-0.5-1.1-1.4-1.9-2.5-2.6
		c-1.1-0.7-2.8-1-4.9-1.1v-2.7H658.6z"/>
	<path class="st1" d="M699.3,821.6v-23.9h2.6v23.9c0,2.7,0.1,5.3,0.2,7.9c0.1,2.6,0.4,4.8,1,6.8c0.5,2,1.4,3.6,2.5,4.8
		s2.7,1.8,4.7,1.9c2,0,3.6-0.7,4.7-1.9c1.1-1.2,1.9-2.8,2.5-4.8s0.9-4.3,1-6.8c0.1-2.6,0.2-5.2,0.2-7.9v-23.9h2.6v23.9
		c0,3.4,0,6.4-0.1,9.1c-0.1,2.7,0,4.9,0.2,6.8c0.3,1.8,0.8,3.3,1.6,4.2c0.8,1,2.2,1.5,4,1.5v2.5c-1.3,0-2.5-0.1-3.4-0.4
		c-0.9-0.3-1.7-0.7-2.4-1.2c-0.1,2.5-0.3,4.8-0.6,7.1s-0.9,4.2-1.7,6s-1.9,3.1-3.2,4.1c-1.4,1-3.1,1.5-5.3,1.5
		c-1.7,0-3.1-0.3-4.3-0.9c-1.2-0.6-2.2-1.4-3-2.4s-1.4-2.2-1.9-3.7c-0.5-1.4-0.8-2.9-1.1-4.6h2.6c0.5,2.6,1.3,4.7,2.4,6.4
		c1.1,1.6,2.9,2.5,5.3,2.5c1.9,0,3.4-0.6,4.5-1.7c1.1-1.1,1.9-2.6,2.5-4.4c0.6-1.8,0.9-3.9,1.1-6.3c0.2-2.4,0.2-4.8,0.2-7.4
		c-0.8,1.6-1.9,2.9-3.2,3.9s-3.1,1.4-5.2,1.4c-2.6,0-4.6-0.6-6.1-1.9c-1.4-1.3-2.5-3.1-3.2-5.3c-0.5,2.2-1.3,4-2.5,5.3
		c-1.1,1.3-2.8,2-4.9,2v-2.5c1.5,0,2.7-0.6,3.5-1.8s1.4-2.8,1.7-4.9c0.3-2,0.5-4.3,0.5-6.9C699.3,826.9,699.3,824.3,699.3,821.6z"/>
	<path class="st1" d="M776.9,802.3c-1.8,2.2-3.4,4.5-5,7.1c-1.6,2.5-3.1,5.1-4.5,7.7c-1.5,2.6-3,5.3-4.5,7.9
		c-1.5,2.6-3.2,5.2-4.9,7.7c-1.8,2.5-3.7,4.8-5.7,7c-2.1,2.2-4.4,4.1-7.1,5.8v-2.7c2.8-1.9,5.4-4.4,7.8-7.6
		c2.4-3.1,4.7-6.6,6.9-10.3s4.4-7.5,6.7-11.4c2.2-3.9,4.6-7.6,7.1-11.1h3.2V802.3z M777.9,797.7c0.1,1.6-0.1,3.1-0.8,4.3
		c-0.7,1.3-1.7,2.3-2.9,3.2c-1.3,0.9-2.7,1.6-4.3,2.1s-3.4,0.8-5.1,0.9c-1.8,0.2-3.7,0.1-5.7-0.3c-2-0.4-3.8-1-5.5-1.8
		c-1.7-0.9-3-2-4-3.4s-1.4-3.1-1.1-5h2.7c0,1.5,0.3,2.7,0.9,3.7s1.5,1.9,2.5,2.5c1.1,0.6,2.3,1.1,3.8,1.4c1.5,0.3,3.1,0.5,4.8,0.5
		s3.3-0.2,4.8-0.5s2.7-0.8,3.8-1.4c1.1-0.6,1.9-1.5,2.6-2.5s0.9-2.3,1-3.7H777.9z M755.2,834.1h0.3c1,2.6,2.1,4.7,3.2,6.3
		c1.1,1.6,2.5,2.4,4.1,2.4h0.1v2.7h0.1c-2,0-3.8-0.8-5.3-2.5c-1.5-1.6-2.9-3.8-4-6.6L755.2,834.1z M763,842.8L763,842.8
		c1.7,0,3.1-0.8,4.2-2.4c1.1-1.6,2.2-3.7,3.2-6.3h2.9c-1.3,3.4-2.8,6.1-4.4,8.2c-1.6,2.1-3.6,3.1-5.8,3.1H763V842.8z M780.9,845.5
		L780.9,845.5c-1.2,0-2.3-0.3-3.2-0.8c-1-0.5-1.9-1.3-2.7-2.3s-1.6-2.2-2.4-3.6c-0.7-1.4-1.4-2.9-2.1-4.6h2.9c1,2.6,2.1,4.7,3.2,6.3
		c1.1,1.6,2.5,2.4,4.1,2.4h0.1v2.6H780.9z"/>
</g>
<g>
	<path class="st1" d="M68.2,948.7c-0.1,0.1-0.2,0.3-0.2,0.4c0,0.1-0.1,0.3-0.2,0.5c-1.2,2.8-2.7,5.1-4.3,6.7
		c-1.7,1.6-3.7,2.5-5.9,2.5V956c1.5,0,2.8-0.6,4-1.7c1.2-1.1,2.2-2.7,3.1-4.8c0.7-1.5,1.4-3,2.2-4.4L68.2,948.7z M77.8,959.4
		c-1.8,0-3.6-0.6-5.2-1.7c-1.7-1.1-3.2-2.6-4.5-4.5s-2.4-4.1-3.1-6.7c-0.8-2.6-1.1-5.3-1-8.3h3.2c-0.1,2.6,0.2,5,0.9,7.2
		c0.6,2.2,1.4,4.2,2.5,5.8c1,1.7,2.2,3,3.5,3.9c1.3,1,2.6,1.4,3.9,1.4s2.6-0.5,3.9-1.4c1.3-1,2.5-2.3,3.5-3.9c1-1.6,1.9-3.6,2.5-5.8
		c0.6-2.3,0.9-4.7,0.9-7.3c-0.1-1.3-0.3-2.9-0.8-4.7s-1.2-3.5-2.1-5.1s-1.9-3-3.2-4.1c-1.2-1.1-2.6-1.7-4.1-1.7
		c-1.9,0-3.7-0.5-5.2-1.6c-1.6-1.1-3-2.5-4.1-4.2c-1.2-1.7-2.1-3.6-2.7-5.7c-0.7-2.1-1-4.2-1.1-6.3c-0.1-2.4,0.3-4.7,1-6.9
		c0.7-2.3,1.7-4.3,2.9-6s2.6-3.1,4.2-4.2c1.6-1.1,3.3-1.6,5-1.6c1.7,0,3.4,0.5,4.9,1.6s3,2.5,4.2,4.2s2.2,3.7,2.9,6
		c0.7,2.3,1.1,4.6,1.1,6.9v2.6h-3v-2.7c0-2.3-0.3-4.4-0.9-6.4s-1.4-3.6-2.3-5.1c-1-1.4-2-2.5-3.2-3.3c-1.2-0.8-2.4-1.2-3.6-1.2
		s-2.4,0.4-3.6,1.2c-1.2,0.8-2.3,1.9-3.2,3.3c-1,1.4-1.7,3.1-2.3,5.1s-0.9,4.1-0.9,6.4c0,2.3,0.3,4.3,0.9,6.2
		c0.6,1.8,1.4,3.4,2.4,4.8c1,1.3,2,2.3,3.2,3.1c1.2,0.7,2.4,1.1,3.6,1.1c2.3,0,4.2,0.6,5.9,1.9c1.7,1.3,3,2.9,4.1,4.7
		c1.1,1.9,1.9,3.9,2.5,6s0.9,4,0.9,5.6c0,3-0.3,5.7-1.1,8.3c-0.8,2.6-1.8,4.8-3.1,6.7c-1.3,1.9-2.8,3.4-4.5,4.5
		C81.4,958.8,79.6,959.4,77.8,959.4z M87.3,874.6c-1.3,2.3-2.7,4.2-4.3,5.5c-1.5,1.3-3.3,2-5.3,2s-3.8-0.7-5.3-2s-3-3.2-4.3-5.5h3.2
		c0.9,1.5,1.8,2.7,2.8,3.5s2.2,1.3,3.6,1.3c1.3,0,2.5-0.4,3.5-1.3c1-0.9,2-2,2.8-3.5H87.3z M89.7,944.2c0.8,1.2,1.4,2.6,2,4.1
		c1,2.3,2.1,4.2,3.4,5.6c1.2,1.4,2.7,2.1,4.3,2.1v2.7c-2.2,0-4.1-0.7-5.7-2.1c-1.6-1.4-3-3.5-4.2-6.2c-0.2-0.5-0.4-0.9-0.6-1.3
		c-0.2-0.4-0.4-0.8-0.6-1.2L89.7,944.2z"/>
	<path class="st1" d="M153.2,904.6c1.8,0,3.4-0.9,4.6-2.6c1.3-1.7,2.5-4,3.7-6.9c1.2-2.7,2.6-4.7,4.2-6.1c1.6-1.4,3.5-2.1,5.7-2.1
		v2.7c-1.6,0-3,0.7-4.3,2.1c-1.2,1.4-2.4,3.2-3.4,5.6l-0.7,1.4c-1,2.6-1.8,5.6-2.6,8.9s-1.5,6.8-2.2,10.4c-0.7,3.6-1.4,7.3-2.1,11
		c-0.7,3.7-1.5,7.2-2.4,10.5c1.4-0.9,2.9-1.4,4.5-1.4c2.4,0,4.5,0.9,6.1,2.8c1.7,1.8,3.2,4.3,4.5,7.3c1,2.3,2.1,4.2,3.4,5.6
		c1.2,1.4,2.7,2.1,4.3,2.1v2.7c-2.2,0-4.1-0.7-5.7-2.1c-1.6-1.4-3-3.5-4.2-6.2c-1.2-2.9-2.5-5.2-3.7-6.9c-1.3-1.7-2.8-2.6-4.6-2.6
		s-3.3,0.8-4.6,2.4c-1.2,1.6-2.4,3.7-3.6,6.3c-1.2,2.8-2.6,5.1-4.3,6.7c-1.7,1.7-3.6,2.5-5.9,2.5V956c1.5,0,2.8-0.6,4-1.7
		c1.2-1.1,2.2-2.7,3.1-4.8c0.3-0.6,0.5-1.3,0.8-1.9s0.6-1.2,0.9-1.8c0.9-2.6,1.7-5.6,2.5-8.9c0.8-3.3,1.5-6.7,2.2-10.3
		s1.5-7.1,2.2-10.7c0.7-3.6,1.5-7,2.5-10.3c-1.5,1.1-3.1,1.7-4.9,1.7L153.2,904.6L153.2,904.6z M146.9,887c0,2.5,0.2,4.8,0.4,6.9
		c0.2,2.1,0.6,4,1.1,5.5c0.5,1.6,1.1,2.8,1.9,3.7c0.8,0.9,1.8,1.3,3,1.3v2.8c-1.7,0-3-0.5-4.1-1.6c-1.1-1-2-2.5-2.6-4.3
		c-0.7-1.8-1.2-4-1.5-6.4c-0.3-2.5-0.6-5.1-0.7-7.9H146.9z M164.3,879.3c-1.3,2.3-2.7,4.2-4.3,5.5c-1.5,1.3-3.3,2-5.3,2
		s-3.8-0.7-5.3-2s-3-3.2-4.3-5.5h3.2c0.9,1.5,1.8,2.7,2.8,3.5s2.2,1.3,3.6,1.3c1.3,0,2.5-0.4,3.5-1.3c1-0.9,2-2,2.8-3.5H164.3z"/>
	<path class="st1" d="M228.4,923c0,1.4,0.2,2.7,0.6,4c0.4,1.3,1,2.3,1.7,3.3c0.7,0.9,1.6,1.7,2.7,2.3c1.1,0.6,2.3,0.9,3.6,0.9
		c1.9,0,3.5,0.4,4.9,1.1c1.4,0.7,2.6,1.7,3.6,2.8c1,1.2,1.7,2.6,2.2,4.2c0.5,1.6,0.7,3.3,0.7,5.1c1.1,2.9,2.3,5.2,3.7,6.9
		s3.1,2.6,4.9,2.6v2.7c-2-0.1-3.8-0.8-5.3-2.1s-2.9-3.1-4.1-5.3c-0.7,2.2-1.9,4-3.7,5.4c-1.8,1.3-4.1,2-6.9,2c-3,0-5.3-0.7-6.9-2.1
		c-1.6-1.4-2.8-3.3-3.5-5.7c-1.2,2.3-2.6,4.2-4.1,5.6c-1.6,1.4-3.4,2.1-5.4,2.2v-2.7c1.9,0,3.5-0.9,4.9-2.6c1.4-1.7,2.6-4,3.7-6.9
		h2.9c0.3,1.4,0.6,2.6,1,3.8s0.9,2.2,1.6,3s1.5,1.5,2.5,2s2.1,0.7,3.5,0.7c2.7,0,4.8-1,6.3-2.7c1.5-1.8,2.3-4.1,2.3-6.8
		c0-1.4-0.2-2.7-0.6-4c-0.4-1.3-1-2.4-1.7-3.3c-0.7-1-1.6-1.7-2.7-2.3c-1.1-0.6-2.3-0.9-3.6-0.9c-1.9,0-3.6-0.3-5-1
		s-2.6-1.6-3.5-2.8c-1-1.2-1.7-2.6-2.2-4.1c-0.5-1.6-0.7-3.2-0.7-5c0-1.7,0.3-3.3,0.8-4.8s1.2-2.8,2.2-3.9c1-1.1,2.1-1.9,3.5-2.6
		c1.4-0.6,3-0.9,4.9-0.9s3.5,0.3,4.8,0.9c1.3,0.6,2.4,1.5,3.3,2.5c0.9,1.1,1.6,2.3,2.1,3.8s0.9,3.1,1.2,4.9h-2.9
		c-0.3-1.4-0.6-2.6-1-3.8s-0.9-2.2-1.6-3c-0.7-0.9-1.5-1.5-2.5-2s-2.1-0.7-3.5-0.7c-2.7,0-4.8,1-6.3,2.7S228.4,920.2,228.4,923z
		 M245.9,899.5c-1.3,2.3-2.7,4.2-4.3,5.5c-1.5,1.3-3.3,2-5.3,2s-3.8-0.7-5.3-2s-3-3.2-4.3-5.5h3.2c0.9,1.5,1.8,2.7,2.8,3.5
		s2.2,1.3,3.6,1.3c1.3,0,2.5-0.4,3.5-1.3c1-0.9,2-2,2.8-3.5H245.9z"/>
	<path class="st1" d="M332.6,915.5c-2,2.2-3.8,4.5-5.5,7.1c-1.7,2.5-3.4,5.1-5,7.7c-1.6,2.6-3.3,5.3-4.9,7.9
		c-1.7,2.6-3.5,5.2-5.4,7.7s-4,4.8-6.3,7s-4.9,4.1-7.8,5.8V956c3.1-1.9,6-4.4,8.6-7.6c2.6-3.1,5.2-6.6,7.6-10.3s4.9-7.5,7.4-11.4
		s5.1-7.6,7.8-11.1h3.5V915.5z M333.7,910.8c0.2,1.6-0.2,3.1-0.9,4.3c-0.8,1.3-1.8,2.3-3.2,3.2c-1.4,0.9-3,1.6-4.8,2.1
		s-3.7,0.8-5.7,0.9c-2,0.2-4.1,0.1-6.3-0.3c-2.2-0.4-4.2-1-6.1-1.8c-1.8-0.9-3.3-2-4.4-3.4s-1.5-3.1-1.2-5h2.9c0,1.5,0.3,2.7,1,3.7
		s1.6,1.9,2.8,2.5c1.2,0.6,2.6,1.1,4.2,1.4c1.6,0.3,3.4,0.5,5.3,0.5s3.7-0.2,5.3-0.5c1.6-0.3,3-0.8,4.2-1.4c1.2-0.6,2.2-1.5,2.8-2.5
		c0.7-1,1-2.3,1.1-3.7H333.7z M308.7,947.3h0.4c1.2,2.6,2.4,4.7,3.6,6.3s2.8,2.4,4.6,2.4h0.1v2.7h-0.1c-2.2,0-4.1-0.8-5.8-2.5
		c-1.7-1.6-3.1-3.8-4.5-6.6L308.7,947.3z M330.2,899.5c-1.3,2.3-2.7,4.2-4.3,5.5c-1.5,1.3-3.3,2-5.3,2s-3.8-0.7-5.3-2
		s-3-3.2-4.3-5.5h3.2c0.9,1.5,1.8,2.7,2.8,3.5s2.2,1.3,3.6,1.3c1.3,0,2.5-0.4,3.5-1.3c1-0.9,2-2,2.8-3.5H330.2z M317.3,955.9
		L317.3,955.9c1.9,0,3.4-0.8,4.6-2.4c1.2-1.6,2.4-3.7,3.6-6.3h3.2c-1.5,3.4-3.1,6.1-4.9,8.2c-1.8,2.1-3.9,3.1-6.4,3.1h-0.1
		L317.3,955.9L317.3,955.9z M337,958.6L337,958.6c-1.3,0-2.5-0.3-3.5-0.8c-1.1-0.5-2-1.3-3-2.3c-0.9-1-1.8-2.2-2.6-3.6
		c-0.8-1.4-1.6-2.9-2.3-4.6h3.2c1.2,2.6,2.4,4.7,3.6,6.3s2.8,2.4,4.6,2.4h0.1v2.6H337z"/>
	<path class="st1" d="M440.9,958.7c-2.1,0-3.9-0.7-5.4-2.2s-3-3.4-4.2-5.8c-1.2-2.4-2.3-5.3-3.2-8.5c-0.9-3.2-1.8-6.6-2.6-10.2
		c-0.8-3.6-1.5-7.2-2.2-10.9s-1.4-7.3-2.2-10.6c-1.4,3.6-3,6.6-4.8,8.8c-1.9,2.2-4.1,3.4-6.7,3.4c-1.3,0-2.5-0.3-3.7-0.9
		c-1.1-0.6-2.2-1.5-3.1-2.6s-1.8-2.4-2.6-4c-0.8-1.5-1.5-3.3-2.2-5.1c-0.8,3.4-1.5,6.9-2.2,10.6c-0.7,3.7-1.4,7.3-2.2,10.9
		s-1.6,7-2.5,10.2s-2,6.1-3.2,8.5c-1.2,2.5-2.6,4.4-4.2,5.9s-3.4,2.3-5.5,2.4v-2.7c2,0,3.6-1,5.1-3c1.4-2,2.7-4.6,3.8-7.8
		c1.1-3.2,2.1-6.9,2.9-11c0.9-4.1,1.7-8.4,2.6-12.7s1.8-8.6,2.8-12.7c1-4.1,2.1-7.8,3.4-11s2.8-5.8,4.6-7.8c1.8-2,3.8-3,6.3-3
		s4.6,1,6.4,3s3.3,4.6,4.6,7.8c1.3,3.2,2.4,6.9,3.4,11s1.8,8.4,2.7,12.7c0.8,4.3,1.7,8.6,2.5,12.7c0.8,4.1,1.8,7.8,2.9,11
		s2.3,5.8,3.8,7.8c1.4,2,3.2,3,5.2,3v2.8H440.9z M409.4,889.6c-1.3,0-2.4,0.4-3.4,1.1c-1,0.8-1.9,1.8-2.8,3.1s-1.6,3-2.2,4.8
		c-0.7,1.9-1.3,3.9-1.9,6.1c0.6,2.2,1.2,4.3,1.9,6.1c0.7,1.8,1.4,3.4,2.2,4.8s1.7,2.4,2.8,3.1c1,0.8,2.1,1.1,3.4,1.1
		c1.2,0,2.3-0.4,3.2-1.1c1-0.8,1.8-1.8,2.7-3.1s1.6-2.9,2.3-4.8c0.7-1.9,1.3-3.9,1.9-6.1c-0.6-2.2-1.2-4.3-1.9-6.2
		c-0.7-1.9-1.4-3.5-2.2-4.8c-0.8-1.3-1.7-2.4-2.7-3.1C411.7,890,410.6,889.6,409.4,889.6z M403.1,881.3c0-0.5,0.2-0.9,0.6-1.3
		c0.4-0.4,0.9-0.6,1.5-0.6s1,0.2,1.5,0.6c0.4,0.4,0.6,0.8,0.6,1.3s-0.2,0.9-0.6,1.3c-0.4,0.4-0.9,0.6-1.5,0.6s-1-0.2-1.5-0.6
		C403.3,882.3,403.1,881.8,403.1,881.3z M412.9,881.3c0-0.5,0.2-0.9,0.6-1.3c0.4-0.4,0.9-0.6,1.5-0.6s1,0.2,1.5,0.6
		c0.4,0.4,0.6,0.8,0.6,1.3s-0.2,0.9-0.6,1.3c-0.4,0.4-0.9,0.6-1.5,0.6s-1-0.2-1.5-0.6C413.1,882.3,412.9,881.8,412.9,881.3z"/>
	<path class="st1" d="M481.4,955.5c1.5,0,2.6-0.6,3.5-1.9s1.5-3,1.9-5.2s0.7-4.8,0.8-7.7c0.1-2.9,0.2-6.1,0.2-9.4s0-6.7,0-10.2
		s0-6.9,0.2-10.2s0.4-6.4,0.9-9.4c0.4-2.9,1.1-5.5,2-7.7s2-3.9,3.5-5.2s3.3-1.9,5.5-1.9v2.9c-2.3,0-4.1,1.1-5.3,3s-2.1,4.6-2.7,7.8
		s-0.9,6.9-1,11s-0.2,8.3-0.2,12.6s-0.1,8.5-0.2,12.6s-0.4,7.8-1,11s-1.5,5.8-2.7,7.8s-3,2.9-5.3,2.9L481.4,955.5L481.4,955.5z
		 M489,935.6c0.7,2.9,1.3,5.5,2.1,8c0.7,2.5,1.5,4.6,2.5,6.4c0.9,1.8,1.9,3.3,3.1,4.3c1.1,1,2.4,1.6,3.9,1.6c1.3,0,2.5-0.4,3.5-1.3
		c1.1-0.9,2-2.1,2.9-3.7c0.9-1.6,1.6-3.5,2.4-5.6c0.7-2.2,1.4-4.5,2-7.1h3.3c-0.8,2.9-1.6,5.6-2.5,8.1c-0.9,2.5-1.9,4.7-3,6.5
		s-2.4,3.3-3.8,4.3s-3,1.6-4.8,1.6c-1.4,0-2.7-0.3-3.8-1c-1.2-0.7-2.2-1.7-3.2-2.9c-1-1.3-1.9-2.7-2.7-4.5c-0.8-1.7-1.6-3.6-2.3-5.7
		L489,935.6z M511.5,910.7c-0.7-3-1.4-5.7-2.1-8.3c-0.8-2.6-1.6-4.8-2.5-6.7s-2-3.4-3.1-4.5s-2.4-1.6-3.9-1.6v-2.7
		c2,0,3.7,0.6,5.2,1.9c1.5,1.3,2.9,3,4,5.2c1.2,2.2,2.2,4.7,3.1,7.6c0.9,2.9,1.7,6,2.5,9.3h-3.2V910.7z M508.3,874.6
		c-1.3,2.3-2.7,4.2-4.3,5.5c-1.5,1.3-3.3,2-5.3,2s-3.8-0.7-5.3-2s-3-3.2-4.3-5.5h3.2c0.9,1.5,1.8,2.7,2.8,3.5s2.2,1.3,3.6,1.3
		c1.3,0,2.5-0.4,3.5-1.3c1-0.9,2-2,2.8-3.5H508.3z M514.5,938.2c0.6,2.6,1.3,4.9,2,7s1.5,4,2.4,5.6c0.9,1.6,1.9,2.8,2.9,3.7
		c1.1,0.9,2.3,1.3,3.7,1.3v2.7c-1.8,0-3.3-0.5-4.7-1.6c-1.4-1-2.6-2.5-3.8-4.3s-2.1-4-3-6.5s-1.7-5.2-2.5-8.1L514.5,938.2z"/>
	<path class="st1" d="M584.9,939.8c-0.7,2.6-1.5,5.1-2.4,7.4s-1.9,4.2-2.9,5.9c-1.1,1.7-2.3,3-3.7,4s-2.9,1.5-4.6,1.6V956
		c1.2,0,2.3-0.4,3.4-1.2c1-0.8,2-1.9,2.8-3.4c0.9-1.4,1.6-3.1,2.3-5.1s1.4-4.1,2-6.5H584.9z M599.9,922.4c-2.3,0.2-4.2,0.7-5.7,1.3
		c-1.5,0.7-2.9,1.7-4,3s-2.1,3.1-2.9,5.2c-0.8,2.1-1.6,4.8-2.5,7.9c0.6,2.3,1.3,4.5,2,6.5s1.5,3.7,2.3,5.1c0.9,1.4,1.8,2.6,2.8,3.4
		c1,0.8,2.1,1.2,3.3,1.2c1.3,0,2.4-0.4,3.5-1.2s2-1.9,2.8-3.4c0.8-1.4,1.6-3.1,2.3-5.1s1.4-4.1,2-6.5h2.9c-0.8,2.7-1.6,5.2-2.4,7.5
		c-0.9,2.3-1.8,4.3-2.9,6c-1.1,1.7-2.3,3-3.7,4c-1.3,1-2.8,1.4-4.5,1.4s-3.2-0.5-4.6-1.4c-1.4-1-2.6-2.3-3.7-4s-2.1-3.7-2.9-6
		c-0.9-2.3-1.7-4.8-2.4-7.5c0.5-2,1-3.9,1.5-5.8c0.5-1.9,1.1-3.7,1.8-5.2c0.7-1.6,1.5-2.9,2.4-4s2.1-1.9,3.4-2.2
		c-1.6-0.7-3-1.8-4-3.2c-1.1-1.5-2-3.1-2.6-4.8c-0.7-1.7-1.2-3.5-1.4-5.2c-0.3-1.8-0.4-3.3-0.4-4.6h2.8c0.3,5.6,1.6,9.8,4.1,12.8
		C591.8,920.3,595.4,922,599.9,922.4z M605.6,904.6c0-2-0.3-3.9-0.9-5.7c-0.6-1.9-1.4-3.5-2.4-4.9s-2.1-2.6-3.3-3.4
		c-1.2-0.9-2.4-1.3-3.6-1.3s-2.4,0.4-3.6,1.3c-1.2,0.9-2.3,2-3.3,3.4s-1.8,3.1-2.4,4.9c-0.6,1.9-0.9,3.8-0.9,5.7h-2.8
		c0-1.6,0.2-3.4,0.6-5.5c0.4-2.1,1.1-4,2.1-5.9s2.3-3.5,4-4.8s3.7-1.9,6.3-1.9c2.5,0,4.5,0.7,6.2,1.9c1.7,1.3,3,2.9,4,4.8
		c1,1.9,1.7,3.8,2.1,5.9c0.4,2.1,0.6,3.9,0.6,5.5H605.6z M598.3,881.3c0-0.5,0.2-0.9,0.6-1.3c0.4-0.4,0.9-0.6,1.5-0.6s1,0.2,1.5,0.6
		c0.4,0.4,0.6,0.8,0.6,1.3s-0.2,0.9-0.6,1.3c-0.4,0.4-0.9,0.6-1.5,0.6s-1-0.2-1.5-0.6C598.5,882.3,598.3,881.8,598.3,881.3z
		 M606.4,945.1c0.8,1.4,1.5,2.9,2.2,4.4c0.9,2.1,1.9,3.6,3.1,4.8c1.2,1.1,2.5,1.7,4,1.7v2.7c-2.3,0-4.2-0.8-5.9-2.5
		s-3.1-3.9-4.3-6.7c-0.1-0.2-0.2-0.3-0.2-0.5c0-0.1-0.1-0.3-0.2-0.4L606.4,945.1z M608.1,881.3c0-0.5,0.2-0.9,0.6-1.3
		c0.4-0.4,0.9-0.6,1.5-0.6s1,0.2,1.5,0.6c0.4,0.4,0.6,0.8,0.6,1.3s-0.2,0.9-0.6,1.3c-0.4,0.4-0.9,0.6-1.5,0.6s-1-0.2-1.5-0.6
		C608.3,882.3,608.1,881.8,608.1,881.3z"/>
	<path class="st1" d="M676.1,941c-1.7,0.1-3.2,0.9-4.4,2.5s-2.4,3.6-3.5,6.2c-1.2,2.8-2.7,5.1-4.3,6.7c-1.7,1.6-3.7,2.5-5.9,2.5V956
		c1.5,0,2.8-0.6,4-1.7c1.2-1.1,2.2-2.7,3.1-4.8c1.3-3.1,2.8-5.7,4.4-7.7c1.6-2,3.5-3.2,5.7-3.6L676.1,941z M706.8,922.8
		c0,4.5-0.4,9-1.3,13.3c-0.9,4.4-2,8.3-3.5,11.7s-3.3,6.2-5.5,8.3c-2.1,2.1-4.5,3.2-7.1,3.2c-2.5,0-4.8-1.1-6.9-3.2
		s-3.9-4.9-5.5-8.4c-1.5-3.5-2.7-7.4-3.6-11.7c-0.9-4.4-1.3-8.8-1.3-13.3s0.4-8.9,1.3-13.3c0.9-4.4,2.1-8.3,3.6-11.7
		c1.5-3.5,3.4-6.3,5.5-8.4s4.4-3.2,6.9-3.2c2.6,0,4.9,1.1,7.1,3.2c2.1,2.1,4,4.9,5.5,8.3c1.5,3.4,2.7,7.4,3.5,11.7
		C706.3,913.8,706.8,918.3,706.8,922.8z M703.4,922.8c0-4.3-0.4-8.5-1.1-12.5c-0.7-4.1-1.7-7.7-3-10.8c-1.3-3.2-2.8-5.7-4.5-7.6
		c-1.7-1.9-3.5-2.9-5.4-2.9c-2,0-3.9,1-5.6,2.9c-1.7,1.9-3.2,4.5-4.5,7.6c-1.3,3.2-2.3,6.8-3,10.8c-0.7,4.1-1.1,8.2-1.1,12.5
		s0.4,8.5,1.1,12.5c0.7,4.1,1.7,7.7,3,10.8c1.3,3.2,2.7,5.7,4.5,7.6c1.7,1.9,3.6,2.9,5.6,2.9c1.9,0,3.7-1,5.4-2.9s3.2-4.5,4.5-7.6
		c1.3-3.2,2.3-6.8,3-10.8C703.1,931.2,703.4,927.1,703.4,922.8z M683,880.6c0-0.5,0.2-0.9,0.6-1.3c0.4-0.4,0.9-0.6,1.5-0.6
		s1,0.2,1.5,0.6c0.4,0.4,0.6,0.8,0.6,1.3s-0.2,0.9-0.6,1.3c-0.4,0.4-0.9,0.6-1.5,0.6s-1-0.2-1.5-0.6
		C683.2,881.6,683,881.1,683,880.6z M692.8,880.6c0-0.5,0.2-0.9,0.6-1.3c0.4-0.4,0.9-0.6,1.5-0.6s1,0.2,1.5,0.6
		c0.4,0.4,0.6,0.8,0.6,1.3s-0.2,0.9-0.6,1.3c-0.4,0.4-0.9,0.6-1.5,0.6s-1-0.2-1.5-0.6C693,881.6,692.8,881.1,692.8,880.6z
		 M703.7,938.3c2.1,0.3,3.9,1.3,5.5,3.1s2.9,4.1,4.1,6.9c1,2.3,2.1,4.2,3.4,5.6c1.2,1.4,2.7,2.1,4.3,2.1v2.7c-2.2,0-4.1-0.7-5.7-2.1
		c-1.6-1.4-3-3.5-4.2-6.2c-1.2-2.8-2.4-5-3.6-6.8c-1.3-1.7-2.8-2.6-4.5-2.7L703.7,938.3z"/>
	<path class="st1" d="M778.9,940.8L778.9,940.8c-1.9,0-3.4,0.8-4.6,2.4c-1.2,1.6-2.4,3.7-3.6,6.3c-1.2,2.8-2.7,5.1-4.3,6.7
		c-1.7,1.6-3.7,2.5-5.9,2.5V956c1.5,0,2.8-0.6,4-1.7c1.2-1.1,2.2-2.7,3.1-4.8c0.7-1.7,1.5-3.2,2.3-4.6c0.8-1.4,1.7-2.6,2.6-3.6
		c0.9-1,1.9-1.8,3-2.3s2.2-0.8,3.5-0.8h0.1v2.6H778.9z M770.9,887c2.3,0,4.1,1,5.3,2.9c1.2,2,2.1,4.6,2.7,7.8c0.6,3.2,0.9,6.9,1,11
		s0.2,8.3,0.2,12.6s0,8.5,0.2,12.7c0.1,4.1,0.4,7.8,1,11s1.5,5.8,2.7,7.8s3,3,5.3,3v2.7c-2.2,0-4-0.6-5.5-1.9
		c-1.5-1.3-2.6-3-3.5-5.2s-1.5-4.8-2-7.7c-0.4-2.9-0.7-6.1-0.9-9.4c-0.2-3.3-0.2-6.7-0.2-10.2s0-6.9,0-10.2s-0.1-6.4-0.2-9.4
		c-0.1-2.9-0.4-5.5-0.8-7.7c-0.4-2.2-1.1-4-1.9-5.2s-2-1.9-3.5-1.9V887H770.9z M807.6,889.8c-1.5,0-2.6,0.6-3.5,1.9
		c-0.9,1.3-1.5,3-1.9,5.2s-0.7,4.8-0.8,7.7s-0.2,6.1-0.2,9.4s0,6.7,0,10.2s0,6.9-0.2,10.2s-0.4,6.4-0.9,9.4c-0.4,2.9-1.1,5.5-2,7.7
		s-2,3.9-3.5,5.2s-3.3,1.9-5.5,1.9v-2.7c2.3,0,4.1-1.1,5.3-3c1.2-2,2.1-4.6,2.7-7.8c0.6-3.2,0.9-6.9,1-11s0.2-8.3,0.2-12.7
		s0-8.5,0.2-12.6c0.1-4.1,0.4-7.8,1-11s1.5-5.8,2.7-7.8s3-2.9,5.3-2.9v2.7H807.6z M789.8,881.3c0-0.5,0.2-0.9,0.6-1.3
		c0.4-0.4,0.9-0.6,1.5-0.6s1,0.2,1.5,0.6c0.4,0.4,0.6,0.8,0.6,1.3s-0.2,0.9-0.6,1.3c-0.4,0.4-0.9,0.6-1.5,0.6s-1-0.2-1.5-0.6
		C790,882.3,789.8,881.8,789.8,881.3z M799.5,938.1L799.5,938.1c1.3,0,2.5,0.3,3.5,0.8c1.1,0.5,2,1.3,3,2.3c0.9,1,1.8,2.2,2.6,3.6
		c0.8,1.4,1.6,2.9,2.3,4.6c0.9,2.1,1.9,3.6,3.1,4.8c1.2,1.1,2.5,1.7,4,1.7v2.7c-2.3,0-4.2-0.8-5.9-2.5c-1.7-1.6-3.1-3.9-4.3-6.7
		c-1.2-2.6-2.4-4.7-3.6-6.3c-1.2-1.6-2.8-2.4-4.6-2.4h-0.1V938.1z M799.6,881.3c0-0.5,0.2-0.9,0.6-1.3c0.4-0.4,0.9-0.6,1.5-0.6
		s1,0.2,1.5,0.6c0.4,0.4,0.6,0.8,0.6,1.3s-0.2,0.9-0.6,1.3c-0.4,0.4-0.9,0.6-1.5,0.6s-1-0.2-1.5-0.6
		C799.8,882.3,799.6,881.8,799.6,881.3z"/>
</g>
<g>
	<g>
		<defs>
			<rect id="SVGID_1_" x="18" y="22" width="814.2" height="1083.5"/>
		</defs>
		<clipPath id="SVGID_2_">
			<use xlink:href="#SVGID_1_"  style="overflow:visible;"/>
		</clipPath>
		<g class="st2">
			<path class="st1" d="M100.6,1071.8c-2.2,0-3.8-0.7-5-2c-1.1-1.3-1.9-3.1-2.4-5.4c-0.7,2.2-1.8,4-3.2,5.4c-1.4,1.3-3.5,2-6.1,1.9
				c-2.6,0-4.6-0.6-6-2c-1.5-1.4-2.6-3.2-3.3-5.4c-0.5,2.2-1.3,4-2.4,5.4c-1.1,1.4-2.8,2.1-5,2.1v-2.5c1.4,0,2.4-0.5,3.2-1.4
				s1.3-2.2,1.7-3.7c0.4-1.6,0.6-3.4,0.7-5.5c0.1-2.1,0.1-4.3,0.1-6.5v-4.4c0-2.9,0.1-5.8,0.3-8.7c0.2-2.8,0.6-5.4,1.4-7.6
				c0.7-2.2,1.8-4,3.3-5.4s3.5-2.1,6-2.1s4.4,0.7,5.8,1.9c1.4,1.3,2.5,3,3.3,5.1s1.2,4.5,1.4,7.2c0.2,2.7,0.3,5.5,0.3,8.3
				s0,5.6,0,8.3c0,2.7,0.2,5.2,0.5,7.3c0.3,2.1,0.9,3.8,1.7,5.1c0.8,1.3,2,1.9,3.6,1.9L100.6,1071.8L100.6,1071.8z M88.3,1067.5
				c1.1-1,1.9-2.4,2.5-4.2c0.6-1.7,0.9-3.7,1.1-6s0.3-4.6,0.3-7.1c0-2.9,0-5.7-0.1-8.5c-0.1-2.8-0.4-5.3-0.9-7.6
				c-0.5-2.2-1.3-4-2.5-5.4c-1.1-1.4-2.8-2.1-4.9-2.2c-2,0-3.6,0.7-4.7,1.9c-1.1,1.2-1.9,2.8-2.5,4.8c-0.5,2-0.9,4.2-1,6.7
				c-0.1,2.5-0.2,5.1-0.2,7.8c0,2.7,0.1,5.3,0.2,7.9c0.1,2.6,0.4,4.8,1,6.8c0.5,2,1.4,3.6,2.5,4.8c1.1,1.2,2.7,1.8,4.7,1.9
				C85.8,1069,87.2,1068.5,88.3,1067.5z M93.4,1020.1c-1.2-2.3-2.5-4.2-3.9-5.5s-3-2-4.8-2s-3.4,0.7-4.8,2c-1.4,1.3-2.7,3.2-3.9,5.5
				h2.9c0.8-1.5,1.6-2.7,2.6-3.5c0.9-0.8,2-1.3,3.2-1.3s2.2,0.4,3.2,1.3c0.9,0.9,1.8,2,2.6,3.5H93.4z"/>
			<path class="st1" d="M270,1071.8c-2.2,0-3.8-0.7-5-2c-1.1-1.3-1.9-3.1-2.4-5.4c-0.7,2.2-1.8,4-3.2,5.4c-1.4,1.3-3.5,2-6.1,1.9
				c-2.6,0-4.6-0.6-6-2c-1.5-1.4-2.6-3.2-3.3-5.4c-0.5,2.2-1.3,4-2.4,5.4c-1.1,1.4-2.8,2.1-5,2.1v-2.5c1.4,0,2.4-0.5,3.2-1.4
				s1.3-2.2,1.7-3.7c0.4-1.6,0.6-3.4,0.7-5.5c0.1-2.1,0.1-4.3,0.1-6.5v-4.4c0-2.9,0.1-5.8,0.3-8.7c0.2-2.8,0.6-5.4,1.4-7.6
				c0.7-2.2,1.8-4,3.3-5.4s3.5-2.1,6-2.1s4.4,0.7,5.8,1.9c1.4,1.3,2.5,3,3.3,5.1c0.8,2.1,1.2,4.5,1.4,7.2c0.2,2.7,0.3,5.5,0.3,8.3
				s0,5.6,0,8.3c0,2.7,0.2,5.2,0.5,7.3c0.3,2.1,0.9,3.8,1.7,5.1c0.8,1.3,2,1.9,3.6,1.9L270,1071.8L270,1071.8z M253.3,1069.1
				c1.8,0,3.3-0.6,4.4-1.6c1.1-1,1.9-2.4,2.5-4.2c0.6-1.7,0.9-3.7,1.1-6s0.3-4.6,0.3-7.1c0-2.9,0-5.7-0.1-8.5
				c-0.1-2.8-0.4-5.3-0.9-7.6c-0.5-2.2-1.3-4-2.5-5.4c-1.1-1.4-2.8-2.1-4.9-2.2c-2,0-3.6,0.7-4.7,1.9c-1.1,1.2-1.9,2.8-2.5,4.8
				c-0.5,2-0.9,4.2-1,6.7s-0.2,5.1-0.2,7.8c0,2.7,0.1,5.3,0.2,7.9c0.1,2.6,0.4,4.8,1,6.8c0.5,2,1.4,3.6,2.5,4.8
				C249.7,1068.4,251.3,1069,253.3,1069.1z M247.6,1017c0-0.5,0.2-0.9,0.6-1.3c0.4-0.4,0.8-0.6,1.3-0.6s0.9,0.2,1.3,0.6
				c0.4,0.4,0.6,0.8,0.6,1.3s-0.2,0.9-0.6,1.3c-0.4,0.4-0.8,0.6-1.3,0.6s-0.9-0.2-1.3-0.6S247.6,1017.5,247.6,1017z M256.5,1017
				c0-0.5,0.2-0.9,0.6-1.3c0.4-0.4,0.8-0.6,1.3-0.6s0.9,0.2,1.3,0.6c0.4,0.4,0.6,0.8,0.6,1.3s-0.2,0.9-0.6,1.3
				c-0.4,0.4-0.8,0.6-1.3,0.6s-0.9-0.2-1.3-0.6S256.5,1017.5,256.5,1017z"/>
			<path class="st1" d="M433.7,1057.8c0,1.6,0.2,3.2,0.4,4.6s0.5,2.6,1,3.7c0.4,1,1,1.8,1.7,2.4s1.6,0.9,2.6,0.9v2.5
				c-2.2,0-3.8-0.7-5-2c-1.1-1.3-1.9-3.1-2.4-5.4c-0.7,2.2-1.8,4-3.2,5.4c-1.4,1.3-3.5,2-6.1,1.9c-2.6,0-4.6-0.6-6-2
				c-1.5-1.4-2.6-3.2-3.3-5.4c-0.5,2.2-1.3,4-2.4,5.4s-2.8,2.1-5,2.1v-2.5c1.4,0,2.4-0.5,3.2-1.4c0.8-0.9,1.3-2.2,1.7-3.7
				c0.4-1.6,0.6-3.4,0.7-5.5s0.1-4.3,0.1-6.5v-4.4c0-2.9,0.1-5.8,0.3-8.7c0.2-2.8,0.6-5.4,1.4-7.6c0.7-2.2,1.8-4,3.3-5.4
				s3.5-2.1,6-2.1c1.7,0,3.1,0.3,4.3,0.9c1.2,0.6,2.2,1.5,3,2.6s1.4,2.4,1.9,3.9s0.8,3.1,1.1,4.9h-2.6c-0.2-1.4-0.5-2.6-0.9-3.8
				c-0.4-1.2-0.9-2.2-1.5-3c-0.6-0.8-1.4-1.5-2.2-2c-0.9-0.5-1.9-0.8-3.1-0.8c-2,0-3.6,0.7-4.7,1.9c-1.1,1.2-1.9,2.8-2.5,4.8
				c-0.5,2-0.9,4.2-1,6.7s-0.2,5.1-0.2,7.8c0,2.7,0.1,5.3,0.2,7.9s0.4,4.8,1,6.8c0.5,2,1.4,3.6,2.5,4.8c1.1,1.2,2.7,1.8,4.7,1.9
				c1.4,0,2.5-0.3,3.4-0.9s1.7-1.4,2.3-2.4c0.6-1,1.1-2.2,1.4-3.6s0.6-2.8,0.8-4.4h3.1V1057.8z M432.1,1012.6
				c-1.2,2.3-2.5,4.2-3.9,5.5s-3,2-4.8,2s-3.4-0.7-4.8-2s-2.7-3.2-3.9-5.5h2.9c0.8,1.5,1.6,2.7,2.6,3.5c0.9,0.8,2,1.3,3.2,1.3
				s2.2-0.4,3.2-1.3s1.8-2,2.6-3.5H432.1z"/>
			<path class="st1" d="M581.2,1044.1c0-2.6,0.2-5.1,0.5-7.6c0.3-2.4,0.8-4.6,1.6-6.4s1.9-3.3,3.3-4.4c1.4-1.1,3.3-1.7,5.5-1.7
				c2.4,0,4.3,0.6,5.7,1.8c1.4,1.2,2.5,2.8,3.3,4.8s1.3,4.3,1.5,6.8c0.3,2.6,0.4,5.2,0.4,7.9v2.5h-19.3c0,2.7,0.1,5.3,0.2,7.9
				c0.1,2.6,0.4,4.8,1,6.8c0.5,2,1.4,3.6,2.5,4.8c1.1,1.2,2.7,1.8,4.7,1.9c1.4,0,2.5-0.3,3.4-0.9s1.7-1.4,2.3-2.4s1.1-2.2,1.4-3.6
				c0.3-1.4,0.6-2.8,0.8-4.4h3.1c0,1.6,0.2,3.2,0.4,4.6s0.5,2.6,1,3.7c0.4,1,1,1.8,1.7,2.4s1.6,0.9,2.6,0.9v2.5c-2.2,0-3.8-0.7-5-2
				c-1.1-1.3-1.9-3.1-2.4-5.4c-0.7,2.2-1.8,4-3.2,5.4c-1.4,1.3-3.5,2-6.1,1.9c-2.6,0-4.6-0.6-6-2c-1.5-1.4-2.6-3.2-3.3-5.4
				c-0.5,2.2-1.3,4-2.4,5.4s-2.8,2.1-5,2.1v-2.5c1.4,0,2.4-0.5,3.2-1.4s1.3-2.2,1.7-3.7c0.4-1.6,0.6-3.4,0.7-5.5
				c0.1-2.1,0.1-4.3,0.1-6.5v-4.4c0-0.4,0-0.9,0-1.4S581.1,1045.1,581.2,1044.1z M592.1,1026.6c-1.8,0-3.2,0.5-4.3,1.5
				s-1.9,2.2-2.5,3.8s-1,3.4-1.2,5.5s-0.3,4.3-0.4,6.6v1.2h16.7c0-2.5-0.2-4.8-0.3-7c-0.2-2.2-0.6-4.2-1.1-5.9
				c-0.6-1.7-1.4-3.1-2.5-4.1C595.3,1027.1,593.9,1026.6,592.1,1026.6z M586.4,1017c0-0.5,0.2-0.9,0.6-1.3c0.4-0.4,0.8-0.6,1.3-0.6
				s0.9,0.2,1.3,0.6s0.6,0.8,0.6,1.3s-0.2,0.9-0.6,1.3c-0.4,0.4-0.8,0.6-1.3,0.6s-0.9-0.2-1.3-0.6
				C586.6,1017.9,586.4,1017.5,586.4,1017z M595.3,1017c0-0.5,0.2-0.9,0.6-1.3c0.4-0.4,0.8-0.6,1.3-0.6s0.9,0.2,1.3,0.6
				s0.6,0.8,0.6,1.3s-0.2,0.9-0.6,1.3c-0.4,0.4-0.8,0.6-1.3,0.6s-0.9-0.2-1.3-0.6S595.3,1017.5,595.3,1017z"/>
			<path class="st1" d="M753.2,1043.5c0,2.1-0.1,4.3,0,6.6c0,2.2,0,4.4-0.1,6.5s-0.3,4.1-0.5,5.9c-0.3,1.8-0.7,3.4-1.3,4.8
				s-1.4,2.5-2.5,3.3c-1,0.8-2.4,1.2-4,1.2v-2.5c1.8,0,3.1-0.8,3.9-2.3c0.8-1.5,1.3-3.6,1.6-6s0.4-5.2,0.3-8.3c0-3.1,0-6.2,0.1-9.3
				L753.2,1043.5z M753.1,1023.9c0,3.3,0.1,6.7,0,10.2c0,3.5,0,6.9,0.1,10.3s0.2,6.5,0.4,9.5s0.6,5.6,1.2,7.8c0.6,2.3,1.4,4,2.5,5.4
				c1,1.3,2.4,2,4.1,2v2.7c-2.1,0-3.9-0.7-5.2-2.1s-2.4-3.3-3.2-5.7c-0.8-2.4-1.4-5.2-1.7-8.4c-0.4-3.2-0.6-6.6-0.7-10.2
				c-0.1-3.6-0.1-7.2-0.1-10.8c0-3.7,0-7.2,0-10.6L753.1,1023.9z M757.9,1017c0-0.5,0.2-0.9,0.6-1.3c0.4-0.4,0.8-0.6,1.3-0.6
				s0.9,0.2,1.3,0.6s0.6,0.8,0.6,1.3s-0.2,0.9-0.6,1.3c-0.4,0.4-0.8,0.6-1.3,0.6s-0.9-0.2-1.3-0.6
				C758.1,1017.9,757.9,1017.5,757.9,1017z M772.6,1023.8c0,3.4-0.1,6.9,0,10.6c0,3.7,0,7.3-0.1,10.8c-0.1,3.6-0.3,6.9-0.7,10.2
				c-0.3,3.2-0.9,6-1.7,8.4s-1.9,4.3-3.3,5.7c-1.4,1.4-3.1,2.1-5.2,2.1v-2.7c1.7,0,3.1-0.7,4.1-2.1s1.9-3.1,2.5-5.3
				c0.6-2.2,1-4.8,1.3-7.8s0.4-6.2,0.4-9.5c0-3.4,0.1-6.8,0-10.3c0-3.5,0-6.9,0.1-10.3L772.6,1023.8z M766.8,1017
				c0-0.5,0.2-0.9,0.6-1.3c0.4-0.4,0.8-0.6,1.3-0.6s0.9,0.2,1.3,0.6s0.6,0.8,0.6,1.3s-0.2,0.9-0.6,1.3c-0.4,0.4-0.8,0.6-1.3,0.6
				s-0.9-0.2-1.3-0.6C766.9,1017.9,766.8,1017.5,766.8,1017z M772.4,1043.4c0,2.1,0.1,4.1,0.1,6.2s0,4.1,0,6s0.1,3.7,0.3,5.4
				c0.2,1.7,0.4,3.1,0.9,4.3c0.4,1.2,1,2.2,1.7,2.9c0.7,0.7,1.7,1.1,2.9,1.1v2.5c-1.6,0-3-0.4-4-1.2c-1-0.8-1.8-1.9-2.5-3.3
				c-0.6-1.4-1-3-1.3-4.8s-0.4-3.8-0.5-5.9s-0.1-4.3-0.1-6.5s0-4.4,0-6.6L772.4,1043.4z"/>
		</g>
	</g>
</g>
<g>
	<g>
		<g>
			<defs>
				<rect id="SVGID_3_" x="18" y="22" width="814.2" height="1083.5"/>
			</defs>
			<clipPath id="SVGID_4_">
				<use xlink:href="#SVGID_3_"  style="overflow:visible;"/>
			</clipPath>
			<g class="st3">
				<path class="st1" d="M85.5,132.2c1.6,0,3.2-0.5,4.8-1.6c1.5-1.1,2.9-2.6,4.1-4.5s2.2-4.2,2.8-6.7c0.7-2.6,1-5.3,1-8.3
					c0-1.6-0.3-3.5-0.8-5.6s-1.2-4.1-2.2-5.9c-1-1.9-2.2-3.4-3.7-4.7C90,93.6,88.2,93,86.2,93c-1.1,0-2.2-0.4-3.2-1.1
					c-1.1-0.7-2-1.8-2.9-3.1c-0.9-1.3-1.6-2.9-2.2-4.8c-0.6-1.8-0.9-3.9-0.9-6.2c0-2.3,0.3-4.4,0.8-6.4s1.3-3.6,2.1-5.1
					c0.9-1.4,1.8-2.5,2.9-3.3c1.1-0.8,2.2-1.2,3.3-1.2s2.2,0.4,3.3,1.2c1.1,0.8,2.1,1.9,2.9,3.3c0.9,1.4,1.6,3.1,2.1,5.1
					s0.8,4.1,0.8,6.4v2.7h2.7v-2.6c0-2.4-0.3-4.7-1-6.9c-0.7-2.3-1.5-4.3-2.6-6c-1.1-1.7-2.4-3.1-3.8-4.2C89.1,59.6,87.6,59,86,59
					s-3.1,0.5-4.5,1.6s-2.7,2.5-3.8,4.2c-1.1,1.7-2,3.7-2.6,6c-0.7,2.3-1,4.6-0.9,6.9c0,2.1,0.4,4.1,1,6.3c0.6,2.1,1.4,4,2.5,5.7
					c1,1.7,2.3,3.1,3.7,4.2s3,1.6,4.8,1.6c1.4,0,2.6,0.6,3.7,1.7s2.1,2.5,2.9,4.1s1.4,3.3,1.9,5.1c0.5,1.8,0.7,3.3,0.8,4.7
					c0,2.6-0.2,5-0.8,7.3c-0.6,2.3-1.3,4.2-2.3,5.8c-0.9,1.6-2,2.9-3.2,3.9c-1.2,1-2.4,1.4-3.6,1.4s-2.4-0.5-3.6-1.4
					c-1.2-1-2.2-2.3-3.1-3.9c-0.9-1.7-1.7-3.6-2.2-5.8c-0.7-2.4-1-4.8-0.9-7.4h-2.9c-0.1,3,0.2,5.7,0.9,8.3c0.7,2.6,1.7,4.8,2.8,6.7
					c1.2,1.9,2.5,3.4,4.1,4.5C82.3,131.7,83.9,132.2,85.5,132.2z"/>
				<path class="st1" d="M256.3,132.6c-2.3,0-4.5-1.1-6.4-3.3s-3.6-5-5-8.6c-1.4-3.5-2.4-7.5-3.2-12c-0.8-4.4-1.2-8.9-1.2-13.4
					s0.4-9,1.2-13.4s1.8-8.4,3.2-12c1.4-3.5,3-6.4,5-8.6c1.9-2.2,4.1-3.3,6.4-3.3c-1.7,0.7-3.4,2.2-4.9,4.6
					c-1.6,2.4-2.9,5.3-4.1,8.7s-2.1,7.2-2.7,11.4c-0.7,4.1-1,8.4-1,12.7c0,4.3,0.3,8.5,1,12.7c0.7,4.1,1.6,7.9,2.7,11.4
					s2.5,6.3,4.1,8.7C253,130.4,254.6,131.9,256.3,132.6z"/>
				<path class="st1" d="M404.5,132.6c1.7-0.7,3.4-2.2,4.9-4.6s2.9-5.3,4.1-8.7s2.1-7.2,2.7-11.4c0.7-4.1,1-8.4,1-12.7
					c0-4.3-0.3-8.5-1-12.7c-0.7-4.1-1.6-7.9-2.7-11.4c-1.1-3.5-2.5-6.3-4.1-8.7c-1.6-2.4-3.2-3.9-4.9-4.6c2.3,0,4.5,1.1,6.4,3.3
					s3.6,5.1,5,8.6s2.4,7.5,3.2,12c0.8,4.4,1.2,8.9,1.2,13.4s-0.4,9-1.2,13.4c-0.8,4.4-1.8,8.4-3.2,12c-1.4,3.5-3,6.4-5,8.6
					C409,131.5,406.9,132.6,404.5,132.6z"/>
				<path class="st1" d="M570,93.8c-0.5,0-0.9-0.2-1.3-0.6c-0.4-0.4-0.6-0.8-0.6-1.3s0.2-0.9,0.6-1.3c0.4-0.4,0.8-0.6,1.3-0.6h30.2
					c0.5,0,0.9,0.2,1.3,0.6c0.4,0.4,0.6,0.8,0.6,1.3s-0.2,0.9-0.6,1.3c-0.4,0.4-0.8,0.6-1.3,0.6H570z M583.4,76.7
					c0-0.5,0.2-0.9,0.6-1.3c0.4-0.4,0.8-0.6,1.3-0.6s0.9,0.2,1.3,0.6c0.4,0.4,0.6,0.8,0.6,1.3v30.2c0,0.5-0.2,0.9-0.6,1.3
					c-0.4,0.4-0.8,0.6-1.3,0.6s-0.9-0.2-1.3-0.6c-0.4-0.4-0.6-0.8-0.6-1.3V76.7z"/>
				<path class="st1" d="M742.6,129.6c0-0.5,0.2-0.9,0.6-1.3c0.4-0.4,0.8-0.6,1.3-0.6s0.9,0.2,1.3,0.6c0.4,0.4,0.6,0.8,0.6,1.3
					c0,1.2-0.3,2.2-0.9,3.1c-0.6,0.9-1.4,1.7-2.3,2.3c-0.9,0.6-1.9,1.1-3,1.5c-1.1,0.4-2,0.6-2.9,0.6c0.6-0.3,1.2-0.7,1.8-1.1
					c0.6-0.4,1.2-0.9,1.7-1.5c0.5-0.6,0.9-1.3,1.3-2.1C742.4,131.7,742.6,130.7,742.6,129.6z"/>
			</g>
		</g>
		<g>
			<defs>
				<rect id="SVGID_5_" x="18" y="22" width="814.2" height="1083.5"/>
			</defs>
			<clipPath id="SVGID_6_">
				<use xlink:href="#SVGID_5_"  style="overflow:visible;"/>
			</clipPath>
			<g class="st4">
				<path class="st1" d="M83.9,242.7c0-0.5,0.2-0.9,0.6-1.3c0.4-0.4,0.8-0.6,1.3-0.6s0.9,0.2,1.3,0.6c0.4,0.4,0.6,0.8,0.6,1.3
					s-0.2,0.9-0.6,1.3c-0.4,0.4-0.8,0.6-1.3,0.6s-0.9-0.2-1.3-0.6C84.1,243.6,83.9,243.2,83.9,242.7z"/>
				<path class="st1" d="M310.3,194.8c0-0.5,0.2-0.9,0.6-1.3c0.4-0.4,0.8-0.6,1.3-0.6s0.9,0.2,1.3,0.6c0.4,0.4,0.6,0.8,0.6,1.3
					s-0.2,0.9-0.6,1.3c-0.4,0.4-0.8,0.6-1.3,0.6s-0.9-0.2-1.3-0.6S310.3,195.3,310.3,194.8z M310.3,213.9c0-0.5,0.2-0.9,0.6-1.3
					c0.4-0.4,0.8-0.6,1.3-0.6s0.9,0.2,1.3,0.6c0.4,0.4,0.6,0.8,0.6,1.3s-0.2,0.9-0.6,1.3c-0.4,0.4-0.8,0.6-1.3,0.6s-0.9-0.2-1.3-0.6
					C310.5,214.9,310.3,214.4,310.3,213.9z"/>
				<path class="st1" d="M529.9,213.8c0-0.5,0.2-0.9,0.6-1.3c0.4-0.4,0.8-0.6,1.3-0.6s0.9,0.2,1.3,0.6c0.4,0.4,0.6,0.8,0.6,1.3
					c0,1.2-0.3,2.2-0.9,3.1c-0.6,0.9-1.4,1.7-2.3,2.3s-1.9,1.1-3,1.5s-2,0.6-2.9,0.6c0.6-0.3,1.2-0.7,1.8-1.1s1.2-0.9,1.7-1.5
					s0.9-1.3,1.3-2.1C529.7,215.9,529.9,215,529.9,213.8z M529.9,194.8c0-0.5,0.2-0.9,0.6-1.3c0.4-0.4,0.8-0.6,1.3-0.6
					s0.9,0.2,1.3,0.6c0.4,0.4,0.6,0.8,0.6,1.3s-0.2,0.9-0.6,1.3c-0.4,0.4-0.8,0.6-1.3,0.6s-0.9-0.2-1.3-0.6
					C530.1,195.7,529.9,195.3,529.9,194.8z"/>
				<path class="st1" d="M739.5,206.9c-0.5,0-0.9-0.2-1.3-0.6c-0.4-0.4-0.6-0.8-0.6-1.3s0.2-0.9,0.6-1.3c0.4-0.4,0.8-0.6,1.3-0.6
					h30.2c0.5,0,0.9,0.2,1.3,0.6c0.4,0.4,0.6,0.8,0.6,1.3s-0.2,0.9-0.6,1.3c-0.4,0.4-0.8,0.6-1.3,0.6H739.5z M739.5,216.5
					c-0.5,0-0.9-0.2-1.3-0.6c-0.4-0.4-0.6-0.8-0.6-1.3s0.2-0.9,0.6-1.3c0.4-0.4,0.8-0.6,1.3-0.6h30.2c0.5,0,0.9,0.2,1.3,0.6
					c0.4,0.4,0.6,0.8,0.6,1.3s-0.2,0.9-0.6,1.3c-0.4,0.4-0.8,0.6-1.3,0.6H739.5z"/>
			</g>
		</g>
		<g>
			<defs>
				<rect id="SVGID_7_" x="18" y="22" width="814.2" height="1083.5"/>
			</defs>
			<clipPath id="SVGID_8_">
				<use xlink:href="#SVGID_7_"  style="overflow:visible;"/>
			</clipPath>
			<g class="st5">
				<path class="st1" d="M76.8,336.1c-0.1,0.1-0.1,0.3-0.2,0.4c0,0.1-0.1,0.3-0.2,0.5c-1.1,2.8-2.4,5.1-3.9,6.7s-3.3,2.5-5.4,2.5
					v-2.7c1.3,0,2.5-0.6,3.6-1.7c1.1-1.1,2-2.7,2.8-4.8c0.6-1.5,1.3-3,2-4.4L76.8,336.1z M73.3,292.3c0-1.6,0.2-3.4,0.6-5.5
					c0.4-2.1,1-4,1.9-5.9c0.9-1.9,2.1-3.5,3.6-4.8c1.5-1.3,3.4-1.9,5.7-1.9c2.2,0,4.1,0.6,5.6,1.9c1.5,1.3,2.7,2.9,3.6,4.8
					s1.5,3.8,1.9,5.9s0.6,3.9,0.6,5.5h-2.5c0-2-0.3-3.9-0.8-5.7c-0.5-1.9-1.3-3.5-2.2-4.9c-0.9-1.4-1.9-2.6-3-3.4
					c-1.1-0.9-2.2-1.3-3.3-1.3s-2.2,0.4-3.3,1.3c-1.1,0.9-2.1,2-3,3.4c-0.9,1.4-1.6,3.1-2.2,4.9c-0.5,1.9-0.8,3.8-0.8,5.7H73.3z
					 M73.3,292.3h2.5v35.6h-2.5V292.3z M75.9,327.9c0,2,0.3,3.9,0.8,5.8c0.5,1.8,1.3,3.5,2.2,4.9s1.9,2.6,3,3.4
					c1.1,0.9,2.2,1.3,3.3,1.3s2.2-0.4,3.3-1.3c1.1-0.9,2.1-2,3-3.4s1.6-3,2.2-4.9c0.5-1.8,0.8-3.8,0.8-5.8H97c0,1.6-0.2,3.4-0.6,5.5
					s-1,4-1.9,5.9s-2.1,3.5-3.6,4.8s-3.4,1.9-5.6,1.9c-2.3,0-4.2-0.6-5.7-1.9s-2.7-2.9-3.6-4.8c-0.9-1.9-1.5-3.8-1.9-5.9
					c-0.4-2.1-0.6-3.9-0.6-5.5H75.9z M94.5,332.5c0.7,1.4,1.4,2.9,2,4.4c0.8,2.1,1.7,3.6,2.8,4.8c1.1,1.1,2.3,1.7,3.6,1.7v2.7
					c-2.1,0-3.8-0.8-5.4-2.5c-1.5-1.6-2.8-3.9-3.9-6.7c-0.1-0.2-0.1-0.3-0.2-0.5c0-0.1-0.1-0.3-0.2-0.4L94.5,332.5z M94.3,292.3h2.5
					v35.6h-2.5V292.3z"/>
				<path class="st1" d="M181.8,328.2c-1.7,0-3.1,0.8-4.2,2.4c-1.1,1.6-2.2,3.7-3.2,6.3c-1.1,2.8-2.4,5.1-3.9,6.7s-3.3,2.5-5.4,2.5
					v-2.7c1.3,0,2.5-0.6,3.6-1.7s2-2.7,2.8-4.8c0.6-1.7,1.3-3.2,2.1-4.6c0.7-1.4,1.5-2.6,2.4-3.6c0.8-1,1.8-1.8,2.7-2.3
					c1-0.5,2-0.8,3.2-0.8c1.1,0,2.2,0.3,3.2,0.8s1.9,1.3,2.7,2.3s1.6,2.2,2.4,3.6c0.7,1.4,1.4,2.9,2.1,4.6c0.8,2.1,1.7,3.6,2.8,4.8
					c1.1,1.1,2.3,1.7,3.6,1.7v2.7c-2.1,0-3.8-0.8-5.4-2.5c-1.5-1.6-2.8-3.9-3.9-6.7c-1-2.6-2.1-4.7-3.2-6.3
					C184.9,329,183.5,328.2,181.8,328.2z M171.1,341.3c-0.1-2.2,0.4-4.8,1.4-7.8s2.3-6.1,4-9.3c1.6-3.2,3.4-6.5,5.3-9.8
					c1.9-3.3,3.7-6.4,5.4-9.2c1.7-2.9,3.1-5.4,4.2-7.7c1.1-2.3,1.8-4,1.8-5.2c0.1-2.3-0.1-4.4-0.6-6.4s-1.2-3.6-2.2-5.1
					c-0.9-1.4-1.9-2.5-3.1-3.3c-1.1-0.8-2.3-1.2-3.4-1.2s-2.2,0.4-3.3,1.2c-1.1,0.8-2.1,1.9-2.9,3.3c-0.9,1.4-1.6,3.1-2.1,5.1
					s-0.8,4.1-0.8,6.4v2.7h-2.7v-2.6c0-2.4,0.3-4.7,1-6.9c0.6-2.3,1.5-4.3,2.6-6s2.4-3.1,3.8-4.2c1.4-1.1,3-1.6,4.5-1.6
					s3.1,0.5,4.5,1.6c1.5,1.1,2.8,2.5,3.9,4.2c1.1,1.7,2,3.7,2.6,6s0.9,4.6,0.8,6.9c0,1.2-0.4,2.7-1.2,4.5c-0.7,1.8-1.7,3.7-2.8,5.8
					c-1.1,2.1-2.4,4.4-3.8,6.7c-1.4,2.4-2.8,4.8-4.2,7.2c-1.4,2.4-2.7,4.8-3.9,7.2c-1.2,2.4-2.2,4.6-3,6.7L171.1,341.3z"/>
				<path class="st1" d="M270.1,336.1c-0.1,0.1-0.1,0.3-0.2,0.4c0,0.1-0.1,0.3-0.2,0.5c-1.1,2.8-2.4,5.1-3.9,6.7s-3.3,2.5-5.4,2.5
					v-2.7c1.3,0,2.5-0.6,3.6-1.7s2-2.7,2.8-4.8c0.6-1.5,1.3-3,2-4.4L270.1,336.1z M266.6,292.3c0-1.6,0.2-3.4,0.6-5.5
					c0.4-2.1,1-4,1.9-5.9s2.1-3.5,3.6-4.8c1.5-1.3,3.4-1.9,5.7-1.9c2.2,0,4.1,0.6,5.6,1.9c1.5,1.3,2.7,2.9,3.6,4.8s1.5,3.8,1.9,5.9
					s0.6,3.9,0.6,5.5h-2.5c0-2-0.3-3.9-0.8-5.7c-0.5-1.9-1.3-3.5-2.2-4.9c-0.9-1.4-1.9-2.6-3-3.4c-1.1-0.9-2.2-1.3-3.3-1.3
					s-2.2,0.4-3.3,1.3c-1.1,0.9-2.1,2-3,3.4s-1.6,3.1-2.2,4.9c-0.5,1.9-0.8,3.8-0.8,5.7H266.6z M269.1,327.9c0,2,0.3,3.9,0.8,5.8
					c0.5,1.8,1.3,3.5,2.2,4.9s1.9,2.6,3,3.4c1.1,0.9,2.2,1.3,3.3,1.3s2.2-0.4,3.3-1.3c1.1-0.9,2.1-2,3-3.4s1.6-3,2.2-4.9
					c0.5-1.8,0.8-3.8,0.8-5.8h2.5c0,1.6-0.2,3.4-0.6,5.5s-1,4-1.9,5.9s-2.1,3.5-3.6,4.8s-3.4,1.9-5.6,1.9c-2.3,0-4.2-0.6-5.7-1.9
					c-1.5-1.3-2.7-2.9-3.6-4.8c-0.9-1.9-1.5-3.8-1.9-5.9c-0.4-2.1-0.6-3.9-0.6-5.5H269.1z M278.4,308.6c1.1,0,2.2-0.5,3.3-1.4
					s2.1-2.2,3-3.7s1.6-3.3,2.2-5.2c0.5-1.9,0.8-3.9,0.8-5.9h2.5c0,1.6-0.2,3.5-0.6,5.6c-0.4,2.2-1,4.2-1.9,6.2s-2.1,3.7-3.6,5.1
					s-3.4,2.1-5.6,2.1L278.4,308.6L278.4,308.6z M278.4,308.7c2.2,0,4.1,0.7,5.6,2.1s2.7,3.1,3.6,5.1s1.5,4.1,1.9,6.3
					c0.4,2.2,0.6,4.1,0.6,5.7h-2.5c0-2-0.3-3.9-0.8-5.9s-1.3-3.7-2.2-5.3c-0.9-1.6-1.9-2.8-3-3.8s-2.2-1.4-3.3-1.4L278.4,308.7
					L278.4,308.7z M287.8,332.5c0.7,1.4,1.4,2.9,2,4.4c0.8,2.1,1.7,3.6,2.8,4.8c1.1,1.1,2.3,1.7,3.6,1.7v2.7c-2.1,0-3.8-0.8-5.4-2.5
					c-1.5-1.6-2.8-3.9-3.9-6.7c-0.1-0.2-0.1-0.3-0.2-0.5c0-0.1-0.1-0.3-0.2-0.4L287.8,332.5z"/>
				<path class="st1" d="M367.9,336.1c-0.1,0.1-0.1,0.3-0.2,0.4c0,0.1-0.1,0.3-0.2,0.5c-1.1,2.8-2.4,5.1-3.9,6.7s-3.3,2.5-5.4,2.5
					v-2.7c1.3,0,2.5-0.6,3.6-1.7s2-2.7,2.8-4.8c0.6-1.5,1.3-3,2-4.4L367.9,336.1z M366.1,327.9c0.3,2.3,0.7,4.4,1.4,6.3
					c0.7,1.9,1.4,3.5,2.4,4.9c0.9,1.3,1.9,2.4,3,3.1c1.1,0.8,2.2,1.1,3.3,1.1c1.2,0,2.5-0.5,3.7-1.5s2.3-2.3,3.3-4.1
					c1-1.7,1.7-3.8,2.3-6.2c0.6-2.4,0.9-5,0.9-7.8s-0.3-5.4-0.9-7.8s-1.4-4.5-2.3-6.2c-1-1.8-2.1-3.1-3.3-4.1
					c-1.2-1-2.5-1.5-3.7-1.5c-1.8,0-3.5,0.9-5.1,2.7c-1.6,1.8-2.9,4.2-3.8,7.2l-2.9-0.1c0.6-2.2,1.3-4.1,2.3-5.7
					c0.9-1.6,1.9-2.9,3-3.9s2.2-1.7,3.4-2.2c1.2-0.5,2.3-0.7,3.3-0.7c1.4,0,2.8,0.4,4.4,1.2c1.5,0.8,3,2.1,4.3,3.9s2.4,4.1,3.2,6.9
					c0.8,2.8,1.3,6.3,1.3,10.4s-0.4,7.6-1.3,10.4c-0.8,2.8-1.9,5.1-3.2,6.9c-1.3,1.8-2.7,3-4.3,3.8c-1.6,0.8-3,1.2-4.4,1.2
					c-1.3,0-2.6-0.3-4-1s-2.7-1.7-3.9-3.2c-1.2-1.5-2.3-3.3-3.2-5.6c-0.9-2.3-1.5-5.1-1.8-8.3L366.1,327.9L366.1,327.9z
					 M364.3,274.3h2.9v39.8h-2.9V274.3z M366.9,276.8v-2.5h20.3v2.5H366.9z M385.6,332.5c0.7,1.4,1.4,2.9,2,4.4
					c0.8,2.1,1.7,3.6,2.8,4.8c1.1,1.1,2.3,1.7,3.6,1.7v2.7c-2.1,0-3.8-0.8-5.4-2.5c-1.5-1.6-2.8-3.9-3.9-6.7
					c-0.1-0.2-0.1-0.3-0.2-0.5c0-0.1-0.1-0.3-0.2-0.4L385.6,332.5z M389.4,291h-2.5v-16.8h2.5V291z"/>
				<path class="st1" d="M465.6,336c-0.1,0.1-0.1,0.3-0.2,0.4c0,0.1-0.1,0.3-0.2,0.5c-1.1,2.8-2.4,5.1-3.9,6.7s-3.3,2.5-5.4,2.5
					v-2.7c1.3,0,2.5-0.6,3.6-1.7s2-2.7,2.8-4.8c0.6-1.5,1.3-3,2-4.4L465.6,336z M462.1,292.4c0-1.6,0.2-3.4,0.6-5.5s1-4,1.9-5.9
					s2.1-3.5,3.6-4.8c1.5-1.3,3.4-1.9,5.7-1.9c2.2,0,4.1,0.6,5.6,1.9c1.5,1.3,2.7,2.9,3.6,4.8s1.5,3.8,1.9,5.9s0.6,3.9,0.6,5.5h-2.5
					c0-2-0.3-3.9-0.8-5.7c-0.5-1.9-1.3-3.5-2.2-4.9c-0.9-1.4-1.9-2.6-3-3.4c-1.1-0.9-2.2-1.3-3.3-1.3c-1.1,0-2.2,0.4-3.3,1.3
					c-1.1,0.9-2.1,2-3,3.4s-1.6,3.1-2.2,4.9c-0.5,1.9-0.8,3.8-0.8,5.7H462.1z M462.1,292.4h2.5V328h-2.5V292.4z M462.1,328
					c0-1.6,0.2-3.4,0.6-5.5s1-4,1.9-5.9s2.1-3.5,3.6-4.8s3.4-1.9,5.7-1.9c2.2,0,4.1,0.6,5.6,1.9s2.7,2.9,3.6,4.8s1.5,3.8,1.9,5.9
					s0.6,3.9,0.6,5.5h-2.5c0-2-0.3-3.9-0.8-5.7c-0.5-1.9-1.3-3.5-2.2-4.9c-0.9-1.4-1.9-2.6-3-3.4c-1.1-0.9-2.2-1.3-3.3-1.3
					c-1.1,0-2.2,0.4-3.3,1.3c-1.1,0.9-2.1,2-3,3.4s-1.6,3.1-2.2,4.9c-0.5,1.9-0.8,3.8-0.8,5.7H462.1z M464.7,328
					c0,2,0.3,3.9,0.8,5.8c0.5,1.8,1.3,3.5,2.2,4.9c0.9,1.4,1.9,2.6,3,3.4c1.1,0.9,2.2,1.3,3.3,1.3c1.1,0,2.2-0.4,3.3-1.3
					c1.1-0.9,2.1-2,3-3.4s1.6-3,2.2-4.9c0.5-1.8,0.8-3.8,0.8-5.8h2.5c0,1.6-0.2,3.4-0.6,5.5s-1,4-1.9,5.9s-2.1,3.5-3.6,4.8
					s-3.4,1.9-5.6,1.9c-2.3,0-4.2-0.6-5.7-1.9s-2.7-2.9-3.6-4.8s-1.5-3.8-1.9-5.9s-0.6-3.9-0.6-5.5H464.7z M483.3,332.5
					c0.7,1.4,1.4,2.9,2,4.4c0.8,2.1,1.7,3.6,2.8,4.8c1.1,1.1,2.3,1.7,3.6,1.7v2.7c-2.1,0-3.8-0.8-5.4-2.5c-1.5-1.6-2.8-3.9-3.9-6.7
					c-0.1-0.2-0.1-0.3-0.2-0.5c0-0.1-0.1-0.3-0.2-0.4L483.3,332.5z"/>
				<path class="st1" d="M570.5,328.2c-1.7,0-3.1,0.8-4.2,2.4c-1.1,1.6-2.2,3.7-3.2,6.3c-1.1,2.8-2.4,5.1-3.9,6.7s-3.3,2.5-5.4,2.5
					v-2.7c1.3,0,2.5-0.6,3.6-1.7s2-2.7,2.8-4.8c0.6-1.7,1.3-3.2,2.1-4.6c0.7-1.4,1.5-2.6,2.4-3.6c0.8-1,1.8-1.8,2.7-2.3
					c1-0.5,2-0.8,3.2-0.8c1.1,0,2.2,0.3,3.2,0.8s1.9,1.3,2.7,2.3s1.6,2.2,2.4,3.6c0.7,1.4,1.4,2.9,2.1,4.6c0.8,2.1,1.7,3.6,2.8,4.8
					c1.1,1.1,2.3,1.7,3.6,1.7v2.7c-2.1,0-3.8-0.8-5.4-2.5c-1.5-1.6-2.8-3.9-3.9-6.7c-1-2.6-2.1-4.7-3.2-6.3S572.1,328.2,570.5,328.2
					z M582.2,276.9c-1.8,0-3.4,1-4.7,2.9c-1.3,2-2.4,4.5-3.4,7.8s-1.8,6.9-2.6,11s-1.5,8.3-2.3,12.6c-0.8,4.3-1.6,8.5-2.4,12.7
					c-0.9,4.1-1.9,7.8-3.1,11.1c-1.2,3.2-2.6,5.9-4.2,7.9c-1.6,2-3.5,3.1-5.8,3.2v-2.7c1.8,0,3.3-1,4.6-3s2.4-4.6,3.4-7.8
					c1-3.2,1.9-6.9,2.7-11s1.5-8.4,2.3-12.7c0.8-4.3,1.6-8.6,2.5-12.7s1.9-7.8,3.1-11c1.2-3.2,2.6-5.8,4.2-7.8c1.6-2,3.5-3,5.7-3
					V276.9z M553.8,276.8v-2.5h28.5v2.5H553.8z"/>
				<path class="st1" d="M658.8,336.1c-0.1,0.1-0.1,0.3-0.2,0.4c0,0.1-0.1,0.3-0.2,0.5c-1.1,2.8-2.4,5.1-3.9,6.7s-3.3,2.5-5.4,2.5
					v-2.7c1.3,0,2.5-0.6,3.6-1.7s2-2.7,2.8-4.8c0.6-1.5,1.3-3,2-4.4L658.8,336.1z M655.3,292.3c0-1.6,0.2-3.4,0.6-5.5
					c0.4-2.1,1-4,1.9-5.9s2.1-3.5,3.6-4.8c1.5-1.3,3.4-1.9,5.7-1.9c2.2,0,4.1,0.6,5.6,1.9c1.5,1.3,2.7,2.9,3.6,4.8
					c0.9,1.9,1.5,3.8,1.9,5.9s0.6,3.9,0.6,5.5h-2.5c0-2-0.3-3.9-0.8-5.7c-0.5-1.9-1.3-3.5-2.2-4.9s-1.9-2.6-3-3.4
					c-1.1-0.9-2.2-1.3-3.3-1.3s-2.2,0.4-3.3,1.3c-1.1,0.9-2.1,2-3,3.4s-1.6,3.1-2.2,4.9c-0.5,1.9-0.8,3.8-0.8,5.7H655.3z
					 M657.9,292.3c0,2,0.3,3.9,0.8,5.8c0.5,1.8,1.3,3.5,2.2,4.9s1.9,2.6,3,3.4c1.1,0.9,2.2,1.3,3.3,1.3s2.2-0.4,3.3-1.3s2.1-2,3-3.4
					s1.6-3,2.2-4.9c0.5-1.8,0.8-3.8,0.8-5.8h2.5c0,1.6-0.2,3.4-0.6,5.5c-0.4,2.1-1,4-1.9,5.9s-2.1,3.5-3.6,4.8s-3.4,1.9-5.6,1.9
					c-2.3,0-4.2-0.6-5.7-1.9s-2.7-2.9-3.6-4.8c-0.9-1.9-1.5-3.8-1.9-5.9s-0.6-3.9-0.6-5.5H657.9z M655.3,327.9
					c0-1.6,0.2-3.4,0.6-5.5c0.4-2.1,1-4,1.9-5.9s2.1-3.5,3.6-4.8s3.4-1.9,5.7-1.9c2.2,0,4.1,0.6,5.6,1.9s2.7,2.9,3.6,4.8
					c0.9,1.9,1.5,3.8,1.9,5.9s0.6,3.9,0.6,5.5h-2.5c0-2-0.3-3.9-0.8-5.7c-0.5-1.9-1.3-3.5-2.2-4.9s-1.9-2.6-3-3.4
					c-1.1-0.9-2.2-1.3-3.3-1.3s-2.2,0.4-3.3,1.3s-2.1,2-3,3.4s-1.6,3.1-2.2,4.9c-0.5,1.9-0.8,3.8-0.8,5.7H655.3z M657.9,327.9
					c0,2,0.3,3.9,0.8,5.8c0.5,1.8,1.3,3.5,2.2,4.9s1.9,2.6,3,3.4c1.1,0.9,2.2,1.3,3.3,1.3s2.2-0.4,3.3-1.3s2.1-2,3-3.4
					s1.6-3,2.2-4.9c0.5-1.8,0.8-3.8,0.8-5.8h2.5c0,1.6-0.2,3.4-0.6,5.5c-0.4,2.1-1,4-1.9,5.9s-2.1,3.5-3.6,4.8s-3.4,1.9-5.6,1.9
					c-2.3,0-4.2-0.6-5.7-1.9s-2.7-2.9-3.6-4.8c-0.9-1.9-1.5-3.8-1.9-5.9s-0.6-3.9-0.6-5.5H657.9z M676.5,332.5
					c0.7,1.4,1.4,2.9,2,4.4c0.8,2.1,1.7,3.6,2.8,4.8c1.1,1.1,2.3,1.7,3.6,1.7v2.7c-2.1,0-3.8-0.8-5.4-2.5c-1.5-1.6-2.8-3.9-3.9-6.7
					c-0.1-0.2-0.1-0.3-0.2-0.5c0-0.1-0.1-0.3-0.2-0.4L676.5,332.5z"/>
				<path class="st1" d="M756.5,336.1c-0.1,0.1-0.1,0.3-0.2,0.4c0,0.1-0.1,0.3-0.2,0.5c-1.1,2.8-2.4,5.1-3.9,6.7s-3.3,2.5-5.4,2.5
					v-2.7c1.3,0,2.5-0.6,3.6-1.7s2-2.7,2.8-4.8c0.6-1.5,1.3-3,2-4.4L756.5,336.1z M753,292.3c0-1.6,0.2-3.4,0.6-5.5
					c0.4-2.1,1-4,1.9-5.9s2.1-3.5,3.6-4.8c1.5-1.3,3.4-1.9,5.7-1.9c2.2,0,4.1,0.6,5.6,1.9c1.5,1.3,2.7,2.9,3.6,4.8
					c0.9,1.9,1.5,3.8,1.9,5.9s0.6,3.9,0.6,5.5H774c0-2-0.3-3.9-0.8-5.7c-0.5-1.9-1.3-3.5-2.2-4.9s-1.9-2.6-3-3.4
					c-1.1-0.9-2.2-1.3-3.3-1.3s-2.2,0.4-3.3,1.3c-1.1,0.9-2.1,2-3,3.4s-1.6,3.1-2.2,4.9c-0.5,1.9-0.8,3.8-0.8,5.7H753z M755.6,292.3
					c0,2,0.3,3.9,0.8,5.8c0.5,1.8,1.3,3.5,2.2,4.9s1.9,2.6,3,3.4c1.1,0.9,2.2,1.3,3.3,1.3s2.2-0.4,3.3-1.3s2.1-2,3-3.4
					s1.6-3,2.2-4.9c0.5-1.8,0.8-3.8,0.8-5.8h2.5c0,1.6-0.2,3.4-0.6,5.5c-0.4,2.1-1,4-1.9,5.9s-2.1,3.5-3.6,4.8s-3.4,1.9-5.6,1.9
					c-2.3,0-4.2-0.6-5.7-1.9s-2.7-2.9-3.6-4.8c-0.9-1.9-1.5-3.8-1.9-5.9s-0.6-3.9-0.6-5.5H755.6z M755.6,327.9c0,2,0.3,3.9,0.8,5.8
					c0.5,1.8,1.3,3.5,2.2,4.9s1.9,2.6,3,3.4c1.1,0.9,2.2,1.3,3.3,1.3s2.2-0.4,3.3-1.3s2.1-2,3-3.4s1.6-3,2.2-4.9
					c0.5-1.8,0.8-3.8,0.8-5.8h2.5c0,1.6-0.2,3.4-0.6,5.5c-0.4,2.1-1,4-1.9,5.9s-2.1,3.5-3.6,4.8s-3.4,1.9-5.6,1.9
					c-2.3,0-4.2-0.6-5.7-1.9s-2.7-2.9-3.6-4.8c-0.9-1.9-1.5-3.8-1.9-5.9s-0.6-3.9-0.6-5.5H755.6z M774.2,332.5
					c0.7,1.4,1.4,2.9,2,4.4c0.8,2.1,1.7,3.6,2.8,4.8c1.1,1.1,2.3,1.7,3.6,1.7v2.7c-2.1,0-3.8-0.8-5.4-2.5c-1.5-1.6-2.8-3.9-3.9-6.7
					c-0.1-0.2-0.1-0.3-0.2-0.5c0-0.1-0.1-0.3-0.2-0.4L774.2,332.5z M774,292.3h2.5v35.6H774V292.3z"/>
			</g>
		</g>
	</g>
	<path class="st1" d="M76.8,121.6c-0.1,0.1-0.1,0.3-0.2,0.4c0,0.1-0.1,0.3-0.2,0.5c-1.1,2.8-2.4,5.1-3.9,6.7
		c-1.5,1.6-3.3,2.5-5.4,2.5V129c1.3,0,2.5-0.6,3.6-1.7c1.1-1.1,2-2.7,2.8-4.8c0.6-1.5,1.3-3,2-4.4L76.8,121.6z"/>
	<rect x="85" y="56.9" class="st1" width="2.5" height="77.3"/>
	<path class="st1" d="M96.3,117c0.7,1.2,1.3,2.6,1.8,4.1c0.9,2.3,1.9,4.2,3,5.6s2.4,2.1,3.9,2.1v2.7c-2,0-3.7-0.7-5.2-2.1
		c-1.5-1.4-2.7-3.5-3.8-6.2c-0.2-0.5-0.4-0.9-0.5-1.3c-0.2-0.4-0.3-0.8-0.5-1.2L96.3,117z"/>
</g>
</svg>
