<?xml version="1.0" encoding="utf-8"?>
<!-- Generator: Adobe Illustrator 22.1.0, SVG Export Plug-In . SVG Version: 6.00 Build 0)  -->
<svg version="1.1" id="Layer_1" xmlns="http://www.w3.org/2000/svg" xmlns:xlink="http://www.w3.org/1999/xlink" x="0px" y="0px"
	 viewBox="0 0 813 1170.2" style="enable-background:new 0 0 813 1170.2;" xml:space="preserve">
<style type="text/css">
	.st0{clip-path:url(#SVGID_2_);}
	.st1{clip-path:url(#SVGID_4_);}
</style>
<g>
	<defs>
		<rect id="SVGID_1_" width="814.2" height="1083.5"/>
	</defs>
	<clipPath id="SVGID_2_">
		<use xlink:href="#SVGID_1_"  style="overflow:visible;"/>
	</clipPath>
	<g class="st0">
		<path d="M58.8,99.6c-0.1,0.1-0.1,0.3-0.2,0.4c0,0.1-0.1,0.3-0.2,0.5c-1.1,2.8-2.4,5.1-3.9,6.7c-1.5,1.6-3.3,2.5-5.4,2.5v-2.7
			c1.3,0,2.5-0.6,3.6-1.7c1.1-1.1,2-2.7,2.8-4.8c0.6-1.5,1.3-3,2-4.4L58.8,99.6z M67.5,110.2c1.6,0,3.2-0.5,4.8-1.6
			c1.5-1.1,2.9-2.6,4.1-4.5c1.2-1.9,2.2-4.2,2.8-6.7c0.7-2.6,1-5.3,1-8.3c0-1.6-0.3-3.5-0.8-5.6c-0.5-2.1-1.2-4.1-2.2-5.9
			c-1-1.9-2.2-3.4-3.7-4.7c-1.5-1.3-3.3-1.9-5.3-1.9c-1.1,0-2.2-0.4-3.2-1.1c-1.1-0.7-2-1.8-2.9-3.1c-0.9-1.3-1.6-2.9-2.2-4.8
			c-0.6-1.8-0.9-3.9-0.9-6.2c0-2.3,0.3-4.4,0.8-6.4c0.5-2,1.3-3.6,2.1-5.1c0.9-1.4,1.8-2.5,2.9-3.3c1.1-0.8,2.2-1.2,3.3-1.2
			s2.2,0.4,3.3,1.2c1.1,0.8,2.1,1.9,2.9,3.3c0.9,1.4,1.6,3.1,2.1,5.1c0.5,2,0.8,4.1,0.8,6.4v2.7h2.7v-2.6c0-2.4-0.3-4.7-1-6.9
			c-0.7-2.3-1.5-4.3-2.6-6c-1.1-1.7-2.4-3.1-3.8-4.2C71.1,37.6,69.6,37,68,37c-1.6,0-3.1,0.5-4.5,1.6c-1.4,1.1-2.7,2.5-3.8,4.2
			c-1.1,1.7-2,3.7-2.6,6c-0.7,2.3-1,4.6-0.9,6.9c0,2.1,0.4,4.1,1,6.3c0.6,2.1,1.4,4,2.5,5.7c1,1.7,2.3,3.1,3.7,4.2
			c1.4,1.1,3,1.6,4.8,1.6c1.4,0,2.6,0.6,3.7,1.7c1.1,1.1,2.1,2.5,2.9,4.1c0.8,1.6,1.4,3.3,1.9,5.1c0.5,1.8,0.7,3.3,0.8,4.7
			c0,2.6-0.2,5-0.8,7.3c-0.6,2.3-1.3,4.2-2.3,5.8c-0.9,1.6-2,2.9-3.2,3.9c-1.2,1-2.4,1.4-3.6,1.4c-1.2,0-2.4-0.5-3.6-1.4
			c-1.2-1-2.2-2.3-3.1-3.9c-0.9-1.7-1.7-3.6-2.2-5.8C58,94,57.7,91.6,57.8,89h-2.9c-0.1,3,0.2,5.7,0.9,8.3c0.7,2.6,1.7,4.8,2.8,6.7
			c1.2,1.9,2.5,3.4,4.1,4.5C64.3,109.7,65.9,110.2,67.5,110.2z M67,34.9h2.5v77.3H67V34.9z M78.3,95c0.7,1.2,1.3,2.6,1.8,4.1
			c0.9,2.3,1.9,4.2,3,5.6c1.1,1.4,2.4,2.1,3.9,2.1v2.7c-2,0-3.7-0.7-5.2-2.1c-1.5-1.4-2.7-3.5-3.8-6.2c-0.2-0.5-0.4-0.9-0.5-1.3
			c-0.2-0.4-0.3-0.8-0.5-1.2L78.3,95z"/>
		<path d="M238.3,110.6c-2.3,0-4.5-1.1-6.4-3.3c-1.9-2.2-3.6-5-5-8.6c-1.4-3.5-2.4-7.5-3.2-12c-0.8-4.4-1.2-8.9-1.2-13.4
			s0.4-9,1.2-13.4c0.8-4.4,1.8-8.4,3.2-12c1.4-3.5,3-6.4,5-8.6c1.9-2.2,4.1-3.3,6.4-3.3c-1.7,0.7-3.4,2.2-4.9,4.6
			c-1.6,2.4-2.9,5.3-4.1,8.7s-2.1,7.2-2.7,11.4c-0.7,4.1-1,8.4-1,12.7c0,4.3,0.3,8.5,1,12.7c0.7,4.1,1.6,7.9,2.7,11.4
			s2.5,6.3,4.1,8.7C235,108.4,236.6,109.9,238.3,110.6z"/>
		<path d="M386.5,110.6c1.7-0.7,3.4-2.2,4.9-4.6c1.5-2.4,2.9-5.3,4.1-8.7s2.1-7.2,2.7-11.4c0.7-4.1,1-8.4,1-12.7
			c0-4.3-0.3-8.5-1-12.7c-0.7-4.1-1.6-7.9-2.7-11.4s-2.5-6.3-4.1-8.7c-1.6-2.4-3.2-3.9-4.9-4.6c2.3,0,4.5,1.1,6.4,3.3
			c1.9,2.2,3.6,5.1,5,8.6c1.4,3.5,2.4,7.5,3.2,12c0.8,4.4,1.2,8.9,1.2,13.4s-0.4,9-1.2,13.4c-0.8,4.4-1.8,8.4-3.2,12
			c-1.4,3.5-3,6.4-5,8.6C391,109.5,388.9,110.6,386.5,110.6z"/>
		<path d="M552,71.8c-0.5,0-0.9-0.2-1.3-0.6c-0.4-0.4-0.6-0.8-0.6-1.3c0-0.5,0.2-0.9,0.6-1.3c0.4-0.4,0.8-0.6,1.3-0.6h30.2
			c0.5,0,0.9,0.2,1.3,0.6c0.4,0.4,0.6,0.8,0.6,1.3c0,0.5-0.2,0.9-0.6,1.3c-0.4,0.4-0.8,0.6-1.3,0.6H552z M565.4,54.7
			c0-0.5,0.2-0.9,0.6-1.3c0.4-0.4,0.8-0.6,1.3-0.6c0.5,0,0.9,0.2,1.3,0.6c0.4,0.4,0.6,0.8,0.6,1.3v30.2c0,0.5-0.2,0.9-0.6,1.3
			c-0.4,0.4-0.8,0.6-1.3,0.6c-0.5,0-0.9-0.2-1.3-0.6c-0.4-0.4-0.6-0.8-0.6-1.3V54.7z"/>
		<path d="M724.6,107.6c0-0.5,0.2-0.9,0.6-1.3c0.4-0.4,0.8-0.6,1.3-0.6s0.9,0.2,1.3,0.6c0.4,0.4,0.6,0.8,0.6,1.3
			c0,1.2-0.3,2.2-0.9,3.1c-0.6,0.9-1.4,1.7-2.3,2.3c-0.9,0.6-1.9,1.1-3,1.5c-1.1,0.4-2,0.6-2.9,0.6c0.6-0.3,1.2-0.7,1.8-1.1
			s1.2-0.9,1.7-1.5c0.5-0.6,0.9-1.3,1.3-2.1C724.4,109.7,724.6,108.7,724.6,107.6z"/>
	</g>
	<g class="st0">
		<path d="M65.9,220.7c0-0.5,0.2-0.9,0.6-1.3c0.4-0.4,0.8-0.6,1.3-0.6c0.5,0,0.9,0.2,1.3,0.6c0.4,0.4,0.6,0.8,0.6,1.3
			c0,0.5-0.2,0.9-0.6,1.3c-0.4,0.4-0.8,0.6-1.3,0.6c-0.5,0-0.9-0.2-1.3-0.6C66.1,221.6,65.9,221.2,65.9,220.7z"/>
		<path d="M292.3,172.8c0-0.5,0.2-0.9,0.6-1.3c0.4-0.4,0.8-0.6,1.3-0.6c0.5,0,0.9,0.2,1.3,0.6c0.4,0.4,0.6,0.8,0.6,1.3
			c0,0.5-0.2,0.9-0.6,1.3c-0.4,0.4-0.8,0.6-1.3,0.6c-0.5,0-0.9-0.2-1.3-0.6C292.5,173.7,292.3,173.3,292.3,172.8z M292.3,191.9
			c0-0.5,0.2-0.9,0.6-1.3c0.4-0.4,0.8-0.6,1.3-0.6c0.5,0,0.9,0.2,1.3,0.6c0.4,0.4,0.6,0.8,0.6,1.3c0,0.5-0.2,0.9-0.6,1.3
			c-0.4,0.4-0.8,0.6-1.3,0.6c-0.5,0-0.9-0.2-1.3-0.6C292.5,192.9,292.3,192.4,292.3,191.9z"/>
		<path d="M511.9,191.8c0-0.5,0.2-0.9,0.6-1.3c0.4-0.4,0.8-0.6,1.3-0.6s0.9,0.2,1.3,0.6c0.4,0.4,0.6,0.8,0.6,1.3
			c0,1.2-0.3,2.2-0.9,3.1c-0.6,0.9-1.4,1.7-2.3,2.3c-0.9,0.6-1.9,1.1-3,1.5c-1.1,0.4-2,0.6-2.9,0.6c0.6-0.3,1.2-0.7,1.8-1.1
			s1.2-0.9,1.7-1.5c0.5-0.6,0.9-1.3,1.3-2.1C511.7,193.9,511.9,193,511.9,191.8z M511.9,172.8c0-0.5,0.2-0.9,0.6-1.3
			c0.4-0.4,0.8-0.6,1.3-0.6s0.9,0.2,1.3,0.6c0.4,0.4,0.6,0.8,0.6,1.3c0,0.5-0.2,0.9-0.6,1.3c-0.4,0.4-0.8,0.6-1.3,0.6
			s-0.9-0.2-1.3-0.6C512.1,173.7,511.9,173.3,511.9,172.8z"/>
		<path d="M721.5,184.9c-0.5,0-0.9-0.2-1.3-0.6c-0.4-0.4-0.6-0.8-0.6-1.3c0-0.5,0.2-0.9,0.6-1.3c0.4-0.4,0.8-0.6,1.3-0.6h30.2
			c0.5,0,0.9,0.2,1.3,0.6c0.4,0.4,0.6,0.8,0.6,1.3c0,0.5-0.2,0.9-0.6,1.3c-0.4,0.4-0.8,0.6-1.3,0.6H721.5z M721.5,194.5
			c-0.5,0-0.9-0.2-1.3-0.6c-0.4-0.4-0.6-0.8-0.6-1.3c0-0.5,0.2-0.9,0.6-1.3c0.4-0.4,0.8-0.6,1.3-0.6h30.2c0.5,0,0.9,0.2,1.3,0.6
			c0.4,0.4,0.6,0.8,0.6,1.3c0,0.5-0.2,0.9-0.6,1.3c-0.4,0.4-0.8,0.6-1.3,0.6H721.5z"/>
	</g>
	<g class="st0">
		<path d="M58.8,314.1c-0.1,0.1-0.1,0.3-0.2,0.4c0,0.1-0.1,0.3-0.2,0.5c-1.1,2.8-2.4,5.1-3.9,6.7c-1.5,1.6-3.3,2.5-5.4,2.5v-2.7
			c1.3,0,2.5-0.6,3.6-1.7c1.1-1.1,2-2.7,2.8-4.8c0.6-1.5,1.3-3,2-4.4L58.8,314.1z M55.3,270.3c0-1.6,0.2-3.4,0.6-5.5
			c0.4-2.1,1-4,1.9-5.9c0.9-1.9,2.1-3.5,3.6-4.8c1.5-1.3,3.4-1.9,5.7-1.9c2.2,0,4.1,0.6,5.6,1.9c1.5,1.3,2.7,2.9,3.6,4.8
			c0.9,1.9,1.5,3.8,1.9,5.9c0.4,2.1,0.6,3.9,0.6,5.5h-2.5c0-2-0.3-3.9-0.8-5.7c-0.5-1.9-1.3-3.5-2.2-4.9c-0.9-1.4-1.9-2.6-3-3.4
			c-1.1-0.9-2.2-1.3-3.3-1.3s-2.2,0.4-3.3,1.3c-1.1,0.9-2.1,2-3,3.4c-0.9,1.4-1.6,3.1-2.2,4.9c-0.5,1.9-0.8,3.8-0.8,5.7H55.3z
			 M55.3,270.3h2.5v35.6h-2.5V270.3z M57.9,305.9c0,2,0.3,3.9,0.8,5.8c0.5,1.8,1.3,3.5,2.2,4.9c0.9,1.4,1.9,2.6,3,3.4
			c1.1,0.9,2.2,1.3,3.3,1.3s2.2-0.4,3.3-1.3c1.1-0.9,2.1-2,3-3.4c0.9-1.4,1.6-3,2.2-4.9c0.5-1.8,0.8-3.8,0.8-5.8h2.5
			c0,1.6-0.2,3.4-0.6,5.5c-0.4,2.1-1,4-1.9,5.9c-0.9,1.9-2.1,3.5-3.6,4.8c-1.5,1.3-3.4,1.9-5.6,1.9c-2.3,0-4.2-0.6-5.7-1.9
			s-2.7-2.9-3.6-4.8c-0.9-1.9-1.5-3.8-1.9-5.9c-0.4-2.1-0.6-3.9-0.6-5.5H57.9z M76.5,310.5c0.7,1.4,1.4,2.9,2,4.4
			c0.8,2.1,1.7,3.6,2.8,4.8c1.1,1.1,2.3,1.7,3.6,1.7v2.7c-2.1,0-3.8-0.8-5.4-2.5c-1.5-1.6-2.8-3.9-3.9-6.7c-0.1-0.2-0.1-0.3-0.2-0.5
			c0-0.1-0.1-0.3-0.2-0.4L76.5,310.5z M76.3,270.3h2.5v35.6h-2.5V270.3z"/>
		<path d="M163.8,306.2c-1.7,0-3.1,0.8-4.2,2.4c-1.1,1.6-2.2,3.7-3.2,6.3c-1.1,2.8-2.4,5.1-3.9,6.7c-1.5,1.6-3.3,2.5-5.4,2.5v-2.7
			c1.3,0,2.5-0.6,3.6-1.7c1.1-1.1,2-2.7,2.8-4.8c0.6-1.7,1.3-3.2,2.1-4.6c0.7-1.4,1.5-2.6,2.4-3.6c0.8-1,1.8-1.8,2.7-2.3
			c1-0.5,2-0.8,3.2-0.8c1.1,0,2.2,0.3,3.2,0.8c1,0.5,1.9,1.3,2.7,2.3c0.8,1,1.6,2.2,2.4,3.6c0.7,1.4,1.4,2.9,2.1,4.6
			c0.8,2.1,1.7,3.6,2.8,4.8c1.1,1.1,2.3,1.7,3.6,1.7v2.7c-2.1,0-3.8-0.8-5.4-2.5c-1.5-1.6-2.8-3.9-3.9-6.7c-1-2.6-2.1-4.7-3.2-6.3
			C166.9,307,165.5,306.2,163.8,306.2z M153.1,319.3c-0.1-2.2,0.4-4.8,1.4-7.8c1-3,2.3-6.1,4-9.3c1.6-3.2,3.4-6.5,5.3-9.8
			c1.9-3.3,3.7-6.4,5.4-9.2c1.7-2.9,3.1-5.4,4.2-7.7c1.1-2.3,1.8-4,1.8-5.2c0.1-2.3-0.1-4.4-0.6-6.4c-0.5-2-1.2-3.6-2.2-5.1
			c-0.9-1.4-1.9-2.5-3.1-3.3c-1.1-0.8-2.3-1.2-3.4-1.2s-2.2,0.4-3.3,1.2c-1.1,0.8-2.1,1.9-2.9,3.3c-0.9,1.4-1.6,3.1-2.1,5.1
			c-0.5,2-0.8,4.1-0.8,6.4v2.7h-2.7v-2.6c0-2.4,0.3-4.7,1-6.9c0.6-2.3,1.5-4.3,2.6-6c1.1-1.7,2.4-3.1,3.8-4.2c1.4-1.1,3-1.6,4.5-1.6
			c1.5,0,3.1,0.5,4.5,1.6c1.5,1.1,2.8,2.5,3.9,4.2c1.1,1.7,2,3.7,2.6,6c0.6,2.3,0.9,4.6,0.8,6.9c0,1.2-0.4,2.7-1.2,4.5
			c-0.7,1.8-1.7,3.7-2.8,5.8c-1.1,2.1-2.4,4.4-3.8,6.7c-1.4,2.4-2.8,4.8-4.2,7.2c-1.4,2.4-2.7,4.8-3.9,7.2c-1.2,2.4-2.2,4.6-3,6.7
			L153.1,319.3z"/>
		<path d="M252.1,314.1c-0.1,0.1-0.1,0.3-0.2,0.4c0,0.1-0.1,0.3-0.2,0.5c-1.1,2.8-2.4,5.1-3.9,6.7c-1.5,1.6-3.3,2.5-5.4,2.5v-2.7
			c1.3,0,2.5-0.6,3.6-1.7c1.1-1.1,2-2.7,2.8-4.8c0.6-1.5,1.3-3,2-4.4L252.1,314.1z M248.6,270.3c0-1.6,0.2-3.4,0.6-5.5
			c0.4-2.1,1-4,1.9-5.9c0.9-1.9,2.1-3.5,3.6-4.8c1.5-1.3,3.4-1.9,5.7-1.9c2.2,0,4.1,0.6,5.6,1.9c1.5,1.3,2.7,2.9,3.6,4.8
			c0.9,1.9,1.5,3.8,1.9,5.9c0.4,2.1,0.6,3.9,0.6,5.5h-2.5c0-2-0.3-3.9-0.8-5.7c-0.5-1.9-1.3-3.5-2.2-4.9c-0.9-1.4-1.9-2.6-3-3.4
			c-1.1-0.9-2.2-1.3-3.3-1.3s-2.2,0.4-3.3,1.3c-1.1,0.9-2.1,2-3,3.4c-0.9,1.4-1.6,3.1-2.2,4.9c-0.5,1.9-0.8,3.8-0.8,5.7H248.6z
			 M251.1,305.9c0,2,0.3,3.9,0.8,5.8c0.5,1.8,1.3,3.5,2.2,4.9c0.9,1.4,1.9,2.6,3,3.4c1.1,0.9,2.2,1.3,3.3,1.3s2.2-0.4,3.3-1.3
			c1.1-0.9,2.1-2,3-3.4c0.9-1.4,1.6-3,2.2-4.9c0.5-1.8,0.8-3.8,0.8-5.8h2.5c0,1.6-0.2,3.4-0.6,5.5c-0.4,2.1-1,4-1.9,5.9
			c-0.9,1.9-2.1,3.5-3.6,4.8c-1.5,1.3-3.4,1.9-5.6,1.9c-2.3,0-4.2-0.6-5.7-1.9s-2.7-2.9-3.6-4.8c-0.9-1.9-1.5-3.8-1.9-5.9
			c-0.4-2.1-0.6-3.9-0.6-5.5H251.1z M260.4,286.6c1.1,0,2.2-0.5,3.3-1.4s2.1-2.2,3-3.7c0.9-1.5,1.6-3.3,2.2-5.2
			c0.5-1.9,0.8-3.9,0.8-5.9h2.5c0,1.6-0.2,3.5-0.6,5.6c-0.4,2.2-1,4.2-1.9,6.2c-0.9,2-2.1,3.7-3.6,5.1c-1.5,1.4-3.4,2.1-5.6,2.1
			V286.6z M260.4,286.7c2.2,0,4.1,0.7,5.6,2.1c1.5,1.4,2.7,3.1,3.6,5.1c0.9,2,1.5,4.1,1.9,6.3c0.4,2.2,0.6,4.1,0.6,5.7h-2.5
			c0-2-0.3-3.9-0.8-5.9c-0.5-2-1.3-3.7-2.2-5.3c-0.9-1.6-1.9-2.8-3-3.8s-2.2-1.4-3.3-1.4V286.7z M269.8,310.5c0.7,1.4,1.4,2.9,2,4.4
			c0.8,2.1,1.7,3.6,2.8,4.8c1.1,1.1,2.3,1.7,3.6,1.7v2.7c-2.1,0-3.8-0.8-5.4-2.5c-1.5-1.6-2.8-3.9-3.9-6.7c-0.1-0.2-0.1-0.3-0.2-0.5
			c0-0.1-0.1-0.3-0.2-0.4L269.8,310.5z"/>
		<path d="M349.9,314.1c-0.1,0.1-0.1,0.3-0.2,0.4c0,0.1-0.1,0.3-0.2,0.5c-1.1,2.8-2.4,5.1-3.9,6.7c-1.5,1.6-3.3,2.5-5.4,2.5v-2.7
			c1.3,0,2.5-0.6,3.6-1.7c1.1-1.1,2-2.7,2.8-4.8c0.6-1.5,1.3-3,2-4.4L349.9,314.1z M348.1,305.9c0.3,2.3,0.7,4.4,1.4,6.3
			c0.7,1.9,1.4,3.5,2.4,4.9c0.9,1.3,1.9,2.4,3,3.1c1.1,0.8,2.2,1.1,3.3,1.1c1.2,0,2.5-0.5,3.7-1.5c1.2-1,2.3-2.3,3.3-4.1
			c1-1.7,1.7-3.8,2.3-6.2c0.6-2.4,0.9-5,0.9-7.8c0-2.8-0.3-5.4-0.9-7.8c-0.6-2.4-1.4-4.5-2.3-6.2c-1-1.8-2.1-3.1-3.3-4.1
			c-1.2-1-2.5-1.5-3.7-1.5c-1.8,0-3.5,0.9-5.1,2.7c-1.6,1.8-2.9,4.2-3.8,7.2l-2.9-0.1c0.6-2.2,1.3-4.1,2.3-5.7
			c0.9-1.6,1.9-2.9,3-3.9c1.1-1,2.2-1.7,3.4-2.2c1.2-0.5,2.3-0.7,3.3-0.7c1.4,0,2.8,0.4,4.4,1.2c1.5,0.8,3,2.1,4.3,3.9
			s2.4,4.1,3.2,6.9c0.8,2.8,1.3,6.3,1.3,10.4c0,4.1-0.4,7.6-1.3,10.4c-0.8,2.8-1.9,5.1-3.2,6.9c-1.3,1.8-2.7,3-4.3,3.8
			c-1.6,0.8-3,1.2-4.4,1.2c-1.3,0-2.6-0.3-4-1c-1.4-0.7-2.7-1.7-3.9-3.2c-1.2-1.5-2.3-3.3-3.2-5.6c-0.9-2.3-1.5-5.1-1.8-8.3H348.1z
			 M346.3,252.3h2.9v39.8h-2.9V252.3z M348.9,254.8v-2.5h20.3v2.5H348.9z M367.6,310.5c0.7,1.4,1.4,2.9,2,4.4
			c0.8,2.1,1.7,3.6,2.8,4.8c1.1,1.1,2.3,1.7,3.6,1.7v2.7c-2.1,0-3.8-0.8-5.4-2.5c-1.5-1.6-2.8-3.9-3.9-6.7c-0.1-0.2-0.1-0.3-0.2-0.5
			c0-0.1-0.1-0.3-0.2-0.4L367.6,310.5z M371.4,269h-2.5v-16.8h2.5V269z"/>
		<path d="M447.6,314c-0.1,0.1-0.1,0.3-0.2,0.4c0,0.1-0.1,0.3-0.2,0.5c-1.1,2.8-2.4,5.1-3.9,6.7c-1.5,1.6-3.3,2.5-5.4,2.5v-2.7
			c1.3,0,2.5-0.6,3.6-1.7c1.1-1.1,2-2.7,2.8-4.8c0.6-1.5,1.3-3,2-4.4L447.6,314z M444.1,270.4c0-1.6,0.2-3.4,0.6-5.5
			c0.4-2.1,1-4,1.9-5.9c0.9-1.9,2.1-3.5,3.6-4.8c1.5-1.3,3.4-1.9,5.7-1.9c2.2,0,4.1,0.6,5.6,1.9c1.5,1.3,2.7,2.9,3.6,4.8
			c0.9,1.9,1.5,3.8,1.9,5.9c0.4,2.1,0.6,3.9,0.6,5.5h-2.5c0-2-0.3-3.9-0.8-5.7c-0.5-1.9-1.3-3.5-2.2-4.9c-0.9-1.4-1.9-2.6-3-3.4
			c-1.1-0.9-2.2-1.3-3.3-1.3c-1.1,0-2.2,0.4-3.3,1.3c-1.1,0.9-2.1,2-3,3.4c-0.9,1.4-1.6,3.1-2.2,4.9c-0.5,1.9-0.8,3.8-0.8,5.7H444.1
			z M444.1,270.4h2.5V306h-2.5V270.4z M444.1,306c0-1.6,0.2-3.4,0.6-5.5c0.4-2.1,1-4,1.9-5.9c0.9-1.9,2.1-3.5,3.6-4.8
			c1.5-1.3,3.4-1.9,5.7-1.9c2.2,0,4.1,0.6,5.6,1.9c1.5,1.3,2.7,2.9,3.6,4.8c0.9,1.9,1.5,3.8,1.9,5.9c0.4,2.1,0.6,3.9,0.6,5.5h-2.5
			c0-2-0.3-3.9-0.8-5.7c-0.5-1.9-1.3-3.5-2.2-4.9c-0.9-1.4-1.9-2.6-3-3.4c-1.1-0.9-2.2-1.3-3.3-1.3c-1.1,0-2.2,0.4-3.3,1.3
			c-1.1,0.9-2.1,2-3,3.4c-0.9,1.4-1.6,3.1-2.2,4.9c-0.5,1.9-0.8,3.8-0.8,5.7H444.1z M446.7,306c0,2,0.3,3.9,0.8,5.8
			c0.5,1.8,1.3,3.5,2.2,4.9c0.9,1.4,1.9,2.6,3,3.4c1.1,0.9,2.2,1.3,3.3,1.3c1.1,0,2.2-0.4,3.3-1.3c1.1-0.9,2.1-2,3-3.4
			c0.9-1.4,1.6-3,2.2-4.9c0.5-1.8,0.8-3.8,0.8-5.8h2.5c0,1.6-0.2,3.4-0.6,5.5c-0.4,2.1-1,4-1.9,5.9c-0.9,1.9-2.1,3.5-3.6,4.8
			c-1.5,1.3-3.4,1.9-5.6,1.9c-2.3,0-4.2-0.6-5.7-1.9c-1.5-1.3-2.7-2.9-3.6-4.8c-0.9-1.9-1.5-3.8-1.9-5.9c-0.4-2.1-0.6-3.9-0.6-5.5
			H446.7z M465.3,310.5c0.7,1.4,1.4,2.9,2,4.4c0.8,2.1,1.7,3.6,2.8,4.8c1.1,1.1,2.3,1.7,3.6,1.7v2.7c-2.1,0-3.8-0.8-5.4-2.5
			c-1.5-1.6-2.8-3.9-3.9-6.7c-0.1-0.2-0.1-0.3-0.2-0.5c0-0.1-0.1-0.3-0.2-0.4L465.3,310.5z"/>
		<path d="M552.5,306.2c-1.7,0-3.1,0.8-4.2,2.4c-1.1,1.6-2.2,3.7-3.2,6.3c-1.1,2.8-2.4,5.1-3.9,6.7c-1.5,1.6-3.3,2.5-5.4,2.5v-2.7
			c1.3,0,2.5-0.6,3.6-1.7c1.1-1.1,2-2.7,2.8-4.8c0.6-1.7,1.3-3.2,2.1-4.6c0.7-1.4,1.5-2.6,2.4-3.6c0.8-1,1.8-1.8,2.7-2.3
			c1-0.5,2-0.8,3.2-0.8c1.1,0,2.2,0.3,3.2,0.8c1,0.5,1.9,1.3,2.7,2.3c0.8,1,1.6,2.2,2.4,3.6c0.7,1.4,1.4,2.9,2.1,4.6
			c0.8,2.1,1.7,3.6,2.8,4.8c1.1,1.1,2.3,1.7,3.6,1.7v2.7c-2.1,0-3.8-0.8-5.4-2.5c-1.5-1.6-2.8-3.9-3.9-6.7c-1-2.6-2.1-4.7-3.2-6.3
			S554.1,306.2,552.5,306.2z M564.2,254.9c-1.8,0-3.4,1-4.7,2.9c-1.3,2-2.4,4.5-3.4,7.8s-1.8,6.9-2.6,11s-1.5,8.3-2.3,12.6
			c-0.8,4.3-1.6,8.5-2.4,12.7c-0.9,4.1-1.9,7.8-3.1,11.1c-1.2,3.2-2.6,5.9-4.2,7.9c-1.6,2-3.5,3.1-5.8,3.2v-2.7c1.8,0,3.3-1,4.6-3
			c1.3-2,2.4-4.6,3.4-7.8c1-3.2,1.9-6.9,2.7-11c0.8-4.1,1.5-8.4,2.3-12.7c0.8-4.3,1.6-8.6,2.5-12.7c0.9-4.1,1.9-7.8,3.1-11
			c1.2-3.2,2.6-5.8,4.2-7.8c1.6-2,3.5-3,5.7-3V254.9z M535.8,254.8v-2.5h28.5v2.5H535.8z"/>
		<path d="M640.8,314.1c-0.1,0.1-0.1,0.3-0.2,0.4c0,0.1-0.1,0.3-0.2,0.5c-1.1,2.8-2.4,5.1-3.9,6.7c-1.5,1.6-3.3,2.5-5.4,2.5v-2.7
			c1.3,0,2.5-0.6,3.6-1.7c1.1-1.1,2-2.7,2.8-4.8c0.6-1.5,1.3-3,2-4.4L640.8,314.1z M637.3,270.3c0-1.6,0.2-3.4,0.6-5.5
			c0.4-2.1,1-4,1.9-5.9c0.9-1.9,2.1-3.5,3.6-4.8c1.5-1.3,3.4-1.9,5.7-1.9c2.2,0,4.1,0.6,5.6,1.9c1.5,1.3,2.7,2.9,3.6,4.8
			c0.9,1.9,1.5,3.8,1.9,5.9c0.4,2.1,0.6,3.9,0.6,5.5h-2.5c0-2-0.3-3.9-0.8-5.7c-0.5-1.9-1.3-3.5-2.2-4.9c-0.9-1.4-1.9-2.6-3-3.4
			c-1.1-0.9-2.2-1.3-3.3-1.3c-1.1,0-2.2,0.4-3.3,1.3c-1.1,0.9-2.1,2-3,3.4c-0.9,1.4-1.6,3.1-2.2,4.9c-0.5,1.9-0.8,3.8-0.8,5.7H637.3
			z M639.9,270.3c0,2,0.3,3.9,0.8,5.8c0.5,1.8,1.3,3.5,2.2,4.9c0.9,1.4,1.9,2.6,3,3.4c1.1,0.9,2.2,1.3,3.3,1.3
			c1.1,0,2.2-0.4,3.3-1.3c1.1-0.9,2.1-2,3-3.4c0.9-1.4,1.6-3,2.2-4.9c0.5-1.8,0.8-3.8,0.8-5.8h2.5c0,1.6-0.2,3.4-0.6,5.5
			c-0.4,2.1-1,4-1.9,5.9c-0.9,1.9-2.1,3.5-3.6,4.8c-1.5,1.3-3.4,1.9-5.6,1.9c-2.3,0-4.2-0.6-5.7-1.9c-1.5-1.3-2.7-2.9-3.6-4.8
			c-0.9-1.9-1.5-3.8-1.9-5.9c-0.4-2.1-0.6-3.9-0.6-5.5H639.9z M637.3,305.9c0-1.6,0.2-3.4,0.6-5.5c0.4-2.1,1-4,1.9-5.9
			c0.9-1.9,2.1-3.5,3.6-4.8c1.5-1.3,3.4-1.9,5.7-1.9c2.2,0,4.1,0.6,5.6,1.9c1.5,1.3,2.7,2.9,3.6,4.8c0.9,1.9,1.5,3.8,1.9,5.9
			c0.4,2.1,0.6,3.9,0.6,5.5h-2.5c0-2-0.3-3.9-0.8-5.7c-0.5-1.9-1.3-3.5-2.2-4.9c-0.9-1.4-1.9-2.6-3-3.4c-1.1-0.9-2.2-1.3-3.3-1.3
			c-1.1,0-2.2,0.4-3.3,1.3c-1.1,0.9-2.1,2-3,3.4c-0.9,1.4-1.6,3.1-2.2,4.9c-0.5,1.9-0.8,3.8-0.8,5.7H637.3z M639.9,305.9
			c0,2,0.3,3.9,0.8,5.8c0.5,1.8,1.3,3.5,2.2,4.9c0.9,1.4,1.9,2.6,3,3.4c1.1,0.9,2.2,1.3,3.3,1.3c1.1,0,2.2-0.4,3.3-1.3
			c1.1-0.9,2.1-2,3-3.4c0.9-1.4,1.6-3,2.2-4.9c0.5-1.8,0.8-3.8,0.8-5.8h2.5c0,1.6-0.2,3.4-0.6,5.5c-0.4,2.1-1,4-1.9,5.9
			c-0.9,1.9-2.1,3.5-3.6,4.8c-1.5,1.3-3.4,1.9-5.6,1.9c-2.3,0-4.2-0.6-5.7-1.9c-1.5-1.3-2.7-2.9-3.6-4.8c-0.9-1.9-1.5-3.8-1.9-5.9
			c-0.4-2.1-0.6-3.9-0.6-5.5H639.9z M658.5,310.5c0.7,1.4,1.4,2.9,2,4.4c0.8,2.1,1.7,3.6,2.8,4.8c1.1,1.1,2.3,1.7,3.6,1.7v2.7
			c-2.1,0-3.8-0.8-5.4-2.5c-1.5-1.6-2.8-3.9-3.9-6.7c-0.1-0.2-0.1-0.3-0.2-0.5c0-0.1-0.1-0.3-0.2-0.4L658.5,310.5z"/>
		<path d="M738.5,314.1c-0.1,0.1-0.1,0.3-0.2,0.4c0,0.1-0.1,0.3-0.2,0.5c-1.1,2.8-2.4,5.1-3.9,6.7c-1.5,1.6-3.3,2.5-5.4,2.5v-2.7
			c1.3,0,2.5-0.6,3.6-1.7c1.1-1.1,2-2.7,2.8-4.8c0.6-1.5,1.3-3,2-4.4L738.5,314.1z M735,270.3c0-1.6,0.2-3.4,0.6-5.5
			c0.4-2.1,1-4,1.9-5.9c0.9-1.9,2.1-3.5,3.6-4.8c1.5-1.3,3.4-1.9,5.7-1.9c2.2,0,4.1,0.6,5.6,1.9c1.5,1.3,2.7,2.9,3.6,4.8
			c0.9,1.9,1.5,3.8,1.9,5.9c0.4,2.1,0.6,3.9,0.6,5.5H756c0-2-0.3-3.9-0.8-5.7c-0.5-1.9-1.3-3.5-2.2-4.9c-0.9-1.4-1.9-2.6-3-3.4
			c-1.1-0.9-2.2-1.3-3.3-1.3c-1.1,0-2.2,0.4-3.3,1.3c-1.1,0.9-2.1,2-3,3.4c-0.9,1.4-1.6,3.1-2.2,4.9c-0.5,1.9-0.8,3.8-0.8,5.7H735z
			 M737.6,270.3c0,2,0.3,3.9,0.8,5.8c0.5,1.8,1.3,3.5,2.2,4.9c0.9,1.4,1.9,2.6,3,3.4c1.1,0.9,2.2,1.3,3.3,1.3c1.1,0,2.2-0.4,3.3-1.3
			c1.1-0.9,2.1-2,3-3.4c0.9-1.4,1.6-3,2.2-4.9c0.5-1.8,0.8-3.8,0.8-5.8h2.5c0,1.6-0.2,3.4-0.6,5.5c-0.4,2.1-1,4-1.9,5.9
			c-0.9,1.9-2.1,3.5-3.6,4.8c-1.5,1.3-3.4,1.9-5.6,1.9c-2.3,0-4.2-0.6-5.7-1.9c-1.5-1.3-2.7-2.9-3.6-4.8c-0.9-1.9-1.5-3.8-1.9-5.9
			c-0.4-2.1-0.6-3.9-0.6-5.5H737.6z M737.6,305.9c0,2,0.3,3.9,0.8,5.8c0.5,1.8,1.3,3.5,2.2,4.9c0.9,1.4,1.9,2.6,3,3.4
			c1.1,0.9,2.2,1.3,3.3,1.3c1.1,0,2.2-0.4,3.3-1.3c1.1-0.9,2.1-2,3-3.4c0.9-1.4,1.6-3,2.2-4.9c0.5-1.8,0.8-3.8,0.8-5.8h2.5
			c0,1.6-0.2,3.4-0.6,5.5c-0.4,2.1-1,4-1.9,5.9c-0.9,1.9-2.1,3.5-3.6,4.8c-1.5,1.3-3.4,1.9-5.6,1.9c-2.3,0-4.2-0.6-5.7-1.9
			c-1.5-1.3-2.7-2.9-3.6-4.8c-0.9-1.9-1.5-3.8-1.9-5.9c-0.4-2.1-0.6-3.9-0.6-5.5H737.6z M756.2,310.5c0.7,1.4,1.4,2.9,2,4.4
			c0.8,2.1,1.7,3.6,2.8,4.8c1.1,1.1,2.3,1.7,3.6,1.7v2.7c-2.1,0-3.8-0.8-5.4-2.5c-1.5-1.6-2.8-3.9-3.9-6.7c-0.1-0.2-0.1-0.3-0.2-0.5
			c0-0.1-0.1-0.3-0.2-0.4L756.2,310.5z M756,270.3h2.5v35.6H756V270.3z"/>
	</g>
</g>
<g>
	<path d="M106.1,425.5c-1.9,0-3.5-0.7-4.9-2.2c-1.4-1.4-2.7-3.4-3.8-5.8c-1.1-2.4-2.1-5.3-2.9-8.5c-0.8-3.2-1.6-6.6-2.3-10.2
		c-0.7-3.6-1.4-7.2-2-10.9c-0.6-3.7-1.3-7.3-2-10.6c-1.2,3.6-2.7,6.6-4.4,8.8c-1.7,2.2-3.7,3.4-6.1,3.4c-1.2,0-2.3-0.3-3.3-0.9
		c-1-0.6-2-1.5-2.8-2.6c-0.8-1.1-1.6-2.4-2.4-4c-0.7-1.5-1.4-3.3-2-5.1c-0.7,3.4-1.3,6.9-1.9,10.6c-0.6,3.7-1.3,7.3-1.9,10.9
		c-0.7,3.6-1.4,7-2.3,10.2c-0.8,3.2-1.8,6.1-2.9,8.5c-1.1,2.5-2.4,4.4-3.8,5.9c-1.4,1.5-3.1,2.3-5,2.4v-2.7c1.8,0,3.3-1,4.6-3
		c1.3-2,2.4-4.6,3.4-7.8c1-3.2,1.9-6.9,2.7-11c0.8-4.1,1.5-8.4,2.3-12.7c0.8-4.3,1.6-8.6,2.5-12.7c0.9-4.1,1.9-7.8,3.1-11
		c1.2-3.2,2.6-5.8,4.2-7.8c1.6-2,3.5-3,5.7-3c2.2,0,4.2,1,5.8,3c1.6,2,3,4.6,4.2,7.8c1.2,3.2,2.2,6.9,3.1,11
		c0.9,4.1,1.7,8.4,2.4,12.7c0.8,4.3,1.5,8.6,2.3,12.7c0.8,4.1,1.6,7.8,2.6,11c1,3.2,2.1,5.8,3.4,7.8s2.9,3,4.7,3V425.5z M77.6,356.5
		c-1.1,0-2.2,0.4-3.1,1.1c-0.9,0.8-1.7,1.8-2.5,3.1c-0.8,1.3-1.4,3-2,4.8c-0.6,1.9-1.2,3.9-1.7,6.1c0.5,2.2,1.1,4.3,1.7,6.1
		c0.6,1.8,1.3,3.4,2,4.8c0.8,1.3,1.6,2.4,2.5,3.1c0.9,0.8,1.9,1.1,3.1,1.1c1.1,0,2.1-0.4,2.9-1.1c0.9-0.8,1.7-1.8,2.4-3.1
		c0.8-1.3,1.4-2.9,2.1-4.8c0.6-1.9,1.2-3.9,1.7-6.1c-0.5-2.2-1.1-4.3-1.7-6.2c-0.6-1.9-1.3-3.5-2-4.8c-0.7-1.3-1.5-2.4-2.4-3.1
		C79.7,356.8,78.7,356.5,77.6,356.5z"/>
	<path d="M159.8,415.5c-0.1,0.1-0.1,0.3-0.2,0.4c0,0.1-0.1,0.3-0.2,0.5c-1.1,2.8-2.4,5.1-3.9,6.7c-1.5,1.6-3.3,2.5-5.4,2.5v-2.7
		c1.3,0,2.5-0.6,3.6-1.7c1.1-1.1,2-2.7,2.8-4.8c0.6-1.5,1.3-3,2-4.4L159.8,415.5z M156.8,371.5c0-1.6,0.2-3.4,0.6-5.5
		c0.4-2.1,1-4,1.9-5.9c0.9-1.9,2.1-3.5,3.6-4.8c1.5-1.3,3.4-1.9,5.7-1.9c2.2,0,4.1,0.6,5.6,1.9c1.5,1.3,2.7,2.9,3.6,4.8
		c0.9,1.9,1.5,3.8,1.9,5.9c0.4,2.1,0.6,3.9,0.6,5.5h-2.5c0-2-0.3-3.9-0.8-5.7c-0.5-1.9-1.3-3.5-2.2-4.9c-0.9-1.4-1.9-2.6-3-3.4
		c-1.1-0.9-2.2-1.3-3.3-1.3s-2.2,0.4-3.3,1.3c-1.1,0.9-2.1,2-3,3.4c-0.9,1.4-1.6,3.1-2.2,4.9c-0.5,1.9-0.8,3.8-0.8,5.7H156.8z
		 M156.8,371.4h2.5v36h-2.5V371.4z M168.6,425.5c-2.3,0-4.2-0.6-5.7-1.9c-1.5-1.3-2.7-2.9-3.6-4.8c-0.9-1.9-1.5-3.8-1.9-5.9
		c-0.4-2.1-0.6-3.9-0.6-5.5h2.5c0,2,0.3,3.9,0.8,5.8c0.5,1.8,1.3,3.5,2.2,4.9c0.9,1.4,1.9,2.6,3,3.4c1.1,0.9,2.2,1.3,3.3,1.3V425.5z
		 M164.4,389.2c4.1-0.4,7.4-2,9.6-5c2.3-2.9,3.5-7.2,3.7-12.8h2.5c0,1.3-0.1,2.9-0.4,4.6c-0.3,1.8-0.7,3.5-1.3,5.2
		c-0.6,1.7-1.4,3.3-2.4,4.8c-1,1.5-2.2,2.5-3.7,3.2c1.2,0.4,2.3,1.1,3.1,2.2c0.8,1.1,1.6,2.5,2.2,4c0.6,1.6,1.2,3.3,1.6,5.2
		c0.5,1.9,0.9,3.9,1.4,5.8c-0.6,2.7-1.4,5.2-2.2,7.5c-0.8,2.3-1.7,4.3-2.7,6c-1,1.7-2.1,3-3.4,4c-1.2,1-2.6,1.4-4.2,1.4v-2.7
		c1.1,0,2.1-0.4,3-1.2c0.9-0.8,1.8-1.9,2.5-3.4c0.8-1.4,1.5-3.1,2.1-5.1c0.6-2,1.2-4.1,1.8-6.5c-0.8-3.1-1.5-5.8-2.3-7.9
		c-0.7-2.1-1.6-3.9-2.6-5.2c-1-1.3-2.2-2.3-3.6-3C168.2,389.9,166.5,389.4,164.4,389.2z M180.9,406.7c0.5,2.3,1.1,4.5,1.8,6.5
		c0.6,2,1.4,3.7,2.2,5.1c0.8,1.4,1.7,2.6,2.6,3.4c0.9,0.8,1.9,1.2,3,1.2v2.7c-1.6,0-2.9-0.6-4.2-1.6c-1.2-1-2.3-2.3-3.4-4
		c-1-1.7-1.9-3.7-2.7-5.9c-0.8-2.3-1.5-4.7-2.2-7.4H180.9z"/>
	<path d="M234.5,422.4c1.3,0,2.4-0.6,3.1-1.9c0.8-1.3,1.4-3,1.7-5.2c0.4-2.2,0.6-4.8,0.8-7.7c0.1-2.9,0.2-6.1,0.2-9.4
		c0-3.3,0-6.7,0-10.2c0-3.5,0-6.9,0.2-10.2c0.1-3.3,0.4-6.4,0.8-9.4c0.4-2.9,1-5.5,1.8-7.7c0.8-2.2,1.9-3.9,3.2-5.2
		c1.3-1.3,3-1.9,5-1.9v2.9c-2.1,0-3.7,1.1-4.8,3c-1.1,2-1.9,4.6-2.5,7.8c-0.5,3.2-0.8,6.9-0.9,11c-0.1,4.1-0.1,8.3-0.1,12.6
		c0,4.3,0,8.5-0.1,12.6c-0.1,4.1-0.4,7.8-0.9,11c-0.5,3.2-1.3,5.8-2.5,7.8c-1.1,2-2.7,2.9-4.8,2.9V422.4z M241.3,402.4
		c0.6,2.9,1.2,5.5,1.9,8c0.7,2.5,1.4,4.6,2.2,6.4c0.8,1.8,1.7,3.3,2.8,4.3c1,1,2.2,1.6,3.5,1.6c1.2,0,2.3-0.4,3.2-1.3
		c1-0.9,1.8-2.1,2.6-3.7c0.8-1.6,1.5-3.5,2.2-5.6c0.7-2.2,1.3-4.5,1.8-7.1h3c-0.7,2.9-1.4,5.6-2.2,8.1c-0.8,2.5-1.7,4.7-2.7,6.5
		c-1,1.8-2.2,3.3-3.5,4.3c-1.3,1-2.7,1.6-4.4,1.6c-1.3,0-2.4-0.3-3.5-1c-1-0.7-2-1.7-2.9-2.9c-0.9-1.3-1.7-2.7-2.5-4.5
		c-0.8-1.7-1.4-3.6-2.1-5.7L241.3,402.4z M261.7,377.6c-0.6-3-1.2-5.7-1.9-8.3c-0.7-2.6-1.4-4.8-2.3-6.7c-0.8-1.9-1.8-3.4-2.8-4.5
		s-2.2-1.6-3.5-1.6v-2.7c1.8,0,3.4,0.6,4.8,1.9c1.4,1.3,2.6,3,3.7,5.2c1,2.2,2,4.7,2.8,7.6c0.8,2.9,1.6,6,2.3,9.3H261.7z M264.5,405
		c0.5,2.6,1.1,4.9,1.8,7c0.6,2.1,1.4,4,2.2,5.6c0.8,1.6,1.7,2.8,2.7,3.7c1,0.9,2.1,1.3,3.3,1.3v2.7c-1.6,0-3-0.5-4.3-1.6
		c-1.3-1-2.4-2.5-3.4-4.3c-1-1.8-1.9-4-2.7-6.5c-0.8-2.5-1.5-5.2-2.2-8.1L264.5,405z"/>
	<path d="M318.4,422.7c1.6,0,2.9-1,3.7-3c0.8-2,1.3-4.6,1.6-7.8c0.3-3.2,0.4-6.9,0.4-11.1c0-4.1,0-8.4,0-12.7
		c0-4.3,0.1-8.5,0.3-12.7c0.2-4.1,0.6-7.8,1.4-11.1c0.8-3.2,1.9-5.8,3.3-7.8c1.5-2,3.4-2.9,5.9-2.9v2.8c-2.1,0-3.7,1.1-4.8,3
		s-1.9,4.6-2.4,7.9c-0.5,3.3-0.7,7-0.8,11.1c0,4.1,0,8.3,0,12.7c0,4.3,0,8.5-0.1,12.7c-0.1,4.1-0.4,7.8-1,11
		c-0.5,3.2-1.4,5.8-2.6,7.8c-1.2,2-2.9,2.9-5.1,2.9V422.7z M327.1,396.2c0,3.6,0.1,6.9,0.3,10.1c0.2,3.2,0.5,6,1.1,8.4
		c0.5,2.4,1.3,4.3,2.4,5.8c1,1.4,2.4,2.2,4.2,2.2v2.8c-2.3,0-4.1-0.8-5.5-2.4c-1.4-1.6-2.5-3.8-3.2-6.5c-0.8-2.7-1.3-5.8-1.6-9.3
		c-0.3-3.5-0.5-7.2-0.5-11L327.1,396.2z M335,353.6h6.2v2.9H335V353.6z M335,422.7h6.2v2.9H335V422.7z M369.6,425.5
		c-2.2,0-4.1-1-5.7-3c-1.6-2-3-4.6-4.2-7.8c-1.2-3.2-2.2-6.9-3.1-11c-0.9-4.1-1.7-8.4-2.5-12.7c-0.8-4.3-1.6-8.6-2.3-12.7
		c-0.8-4.1-1.7-7.8-2.7-11c-1-3.2-2.1-5.8-3.4-7.8c-1.3-2-2.8-3-4.6-3v-2.7c2.2,0,4.2,1,5.8,3c1.6,2,3,4.6,4.2,7.8
		c1.2,3.2,2.2,6.9,3.1,11c0.9,4.1,1.7,8.4,2.4,12.7c0.8,4.3,1.5,8.6,2.3,12.7c0.8,4.1,1.6,7.8,2.6,11c1,3.2,2.1,5.8,3.4,7.8
		s2.9,3,4.7,3V425.5z M356.4,392.3c-0.7,4.2-1.5,8.3-2.4,12.3c-0.9,4-1.9,7.5-3,10.6c-1.2,3.1-2.5,5.6-4.1,7.5
		c-1.6,1.9-3.5,2.8-5.7,2.8v-2.9c1.9,0,3.5-1.1,4.8-3.2c1.3-2.1,2.5-5,3.5-8.4c1-3.5,1.9-7.4,2.7-11.8c0.8-4.4,1.6-8.8,2.4-13.3
		L356.4,392.3z"/>
	<path d="M426,406.7c-0.6,2.6-1.4,5.1-2.2,7.4c-0.8,2.3-1.7,4.2-2.7,5.9c-1,1.7-2.1,3-3.3,4c-1.2,1-2.6,1.5-4.2,1.6v-2.7
		c1.1,0,2.1-0.4,3-1.2c0.9-0.8,1.8-1.9,2.6-3.4c0.8-1.4,1.5-3.1,2.1-5.1c0.6-2,1.2-4.1,1.8-6.5H426z M439.7,389.2
		c-2.1,0.2-3.8,0.7-5.2,1.3c-1.4,0.7-2.6,1.7-3.6,3c-1,1.3-1.9,3.1-2.6,5.2c-0.8,2.1-1.5,4.8-2.2,7.9c0.5,2.3,1.1,4.5,1.8,6.5
		s1.3,3.7,2.1,5.1c0.8,1.4,1.6,2.6,2.5,3.4c0.9,0.8,1.9,1.2,3,1.2c1.1,0,2.2-0.4,3.1-1.2c1-0.8,1.8-1.9,2.6-3.4
		c0.8-1.4,1.4-3.1,2.1-5.1s1.2-4.1,1.8-6.5h2.7c-0.7,2.7-1.4,5.2-2.2,7.5c-0.8,2.3-1.7,4.3-2.7,6c-1,1.7-2.1,3-3.3,4
		c-1.2,1-2.6,1.4-4.1,1.4c-1.6,0-2.9-0.5-4.2-1.4s-2.3-2.3-3.3-4c-1-1.7-1.9-3.7-2.7-6c-0.8-2.3-1.5-4.8-2.2-7.5
		c0.5-2,0.9-3.9,1.4-5.8c0.5-1.9,1-3.7,1.6-5.2c0.6-1.6,1.3-2.9,2.2-4c0.8-1.1,1.9-1.9,3.1-2.2c-1.5-0.7-2.7-1.8-3.7-3.2
		c-1-1.5-1.8-3.1-2.4-4.8c-0.6-1.7-1-3.5-1.3-5.2c-0.3-1.8-0.4-3.3-0.4-4.6h2.5c0.2,5.6,1.5,9.8,3.7,12.8
		C432.3,387.2,435.5,388.9,439.7,389.2z M444.8,371.5c0-2-0.3-3.9-0.8-5.7c-0.5-1.9-1.3-3.5-2.2-4.9c-0.9-1.4-1.9-2.6-3-3.4
		c-1.1-0.9-2.2-1.3-3.3-1.3c-1.1,0-2.2,0.4-3.3,1.3c-1.1,0.9-2.1,2-3,3.4c-0.9,1.4-1.6,3.1-2.2,4.9c-0.5,1.9-0.8,3.8-0.8,5.7h-2.5
		c0-1.6,0.2-3.4,0.6-5.5c0.4-2.1,1-4,1.9-5.9c0.9-1.9,2.1-3.5,3.6-4.8c1.5-1.3,3.4-1.9,5.7-1.9c2.2,0,4.1,0.6,5.6,1.9
		c1.5,1.3,2.7,2.9,3.6,4.8c0.9,1.9,1.5,3.8,1.9,5.9c0.4,2.1,0.6,3.9,0.6,5.5H444.8z M445.6,412c0.7,1.4,1.4,2.9,2,4.4
		c0.8,2.1,1.7,3.6,2.8,4.8c1.1,1.1,2.3,1.7,3.6,1.7v2.7c-2.1,0-3.8-0.8-5.4-2.5c-1.5-1.6-2.8-3.9-3.9-6.7c-0.1-0.2-0.1-0.3-0.2-0.5
		c0-0.1-0.1-0.3-0.2-0.4L445.6,412z"/>
	<path d="M497.9,422.8c1.3,0,2.4-0.7,3.1-2c0.8-1.3,1.4-3.1,1.8-5.4s0.7-4.9,0.8-7.9c0.1-3,0.2-6.2,0.2-9.6c0-3.4,0-6.8,0-10.4
		c0-3.5,0-7,0.2-10.3c0.1-3.3,0.4-6.5,0.8-9.4c0.4-2.9,1-5.5,1.7-7.6c0.8-2.1,1.8-3.8,3.1-4.9c1.3-1.2,3-1.6,5-1.4
		c2.7,0.3,4.9,1.3,6.5,2.9c1.6,1.6,2.4,3.9,2.3,6.9h-2.7c0-2-0.6-3.6-1.7-4.9c-1.1-1.3-2.6-2.1-4.5-2.3c-2.1-0.3-3.6,0.5-4.7,2.3
		c-1.1,1.8-1.9,4.3-2.4,7.5c-0.5,3.2-0.8,6.9-0.9,11c-0.1,4.2-0.1,8.4-0.1,12.8c0,4.4-0.1,8.7-0.2,12.9c-0.1,4.2-0.4,8-1,11.4
		c-0.5,3.3-1.4,6-2.5,8c-1.1,2-2.8,3-4.9,3V422.8z M500.9,389.8v-2.5h14.4v2.5H500.9z M525.3,425.7L525.3,425.7
		c-1.2,0-2.3-0.3-3.4-0.8c-1.1-0.5-2.2-1.3-3.2-2.3c-1-1-2-2.2-2.8-3.6c-0.9-1.4-1.6-2.9-2.3-4.6c-0.4-1-0.9-1.9-1.5-2.7
		c-0.6-0.8-1.3-1.5-2-2c-0.7-0.5-1.5-1-2.2-1.3c-0.7-0.3-1.4-0.4-2.1-0.4v-2.7c2.1,0,4.1,0.8,6.1,2.5c2,1.6,3.5,3.9,4.6,6.7
		c1,2.6,2.4,4.7,3.9,6.3c1.6,1.6,3.2,2.4,4.8,2.4h0.1V425.7z"/>
	<path d="M598.6,396.7v-2.8h12.6c-0.4,2.1-0.7,4.1-1,5.9c-0.3,1.8-0.7,3.6-1,5.3c0.5,2.6,1.2,4.9,1.8,7c0.7,2.1,1.4,4,2.2,5.6
		c0.8,1.6,1.6,2.8,2.6,3.7c1,0.9,2,1.3,3.2,1.3v2.7c-1.3,0-2.5-0.4-3.6-1.1c-1.1-0.7-2.1-1.7-3-3c-0.9-1.3-1.7-2.8-2.5-4.5
		c-0.8-1.8-1.4-3.7-2-5.8c-1.2,4.9-2.5,8.5-4.1,10.9c-1.5,2.3-3.5,3.5-6.1,3.5c-1.9,0-3.6-0.8-5.1-2.3c-1.5-1.5-2.7-3.5-3.9-6.1
		c-1.1-2.6-2.1-5.5-2.9-8.9c-0.8-3.4-1.6-6.9-2.4-10.6c-0.7,3.6-1.4,7.1-2.3,10.5c-0.8,3.3-1.8,6.3-2.9,8.8
		c-1.1,2.5-2.4,4.6-3.9,6.1c-1.5,1.6-3.2,2.4-5.1,2.5v-2.7c1.7,0,3.2-0.9,4.5-2.8c1.3-1.9,2.4-4.4,3.4-7.5c1-3.1,1.8-6.6,2.6-10.6
		c0.8-4,1.5-8,2.3-12.2v-0.1c0.8-4.4,1.6-8.8,2.5-13.1c0.9-4.3,1.9-8.1,3.1-11.5c1.2-3.4,2.6-6.1,4.2-8.2c1.6-2.1,3.6-3.1,5.8-3.1
		c1.8,0,3.4,0.6,4.8,1.9c1.4,1.3,2.6,3,3.7,5.2c1.1,2.2,2,4.7,2.8,7.6c0.8,2.9,1.5,6,2.2,9.3h-2.9c-0.6-3-1.2-5.7-1.9-8.3
		c-0.7-2.6-1.4-4.8-2.3-6.7c-0.8-1.9-1.8-3.4-2.8-4.5c-1-1.1-2.2-1.6-3.5-1.6c-1.8,0-3.4,0.9-4.7,2.8c-1.3,1.9-2.4,4.4-3.4,7.5
		c-1,3.1-1.8,6.6-2.6,10.6c-0.8,4-1.5,8.1-2.2,12.3c0.7,4.2,1.5,8.3,2.2,12.2c0.8,4,1.6,7.5,2.6,10.6c1,3.1,2.1,5.6,3.4,7.5
		c1.3,1.9,2.8,2.8,4.6,2.8c1.5,0,2.7-0.7,3.7-2.1c1-1.4,1.8-3.3,2.5-5.7c0.7-2.4,1.3-5.2,1.9-8.3c0.5-3.1,1.1-6.5,1.7-10H598.6z"/>
	<path d="M662.9,422.7c1.3,0,2.4-0.6,3.1-1.9c0.8-1.3,1.4-3,1.7-5.2c0.4-2.2,0.6-4.8,0.8-7.7c0.1-2.9,0.2-6.1,0.2-9.4
		c0-3.3,0-6.7,0-10.2c0-3.5,0-6.9,0.2-10.2c0.1-3.3,0.4-6.4,0.8-9.4c0.4-2.9,1-5.5,1.8-7.7c0.8-2.2,1.9-3.9,3.2-5.2
		c1.3-1.3,3-1.9,5-1.9v2.9c-2.1,0-3.7,1.1-4.8,3c-1.1,2-1.9,4.6-2.5,7.8c-0.5,3.2-0.8,6.9-0.9,11c-0.1,4.1-0.1,8.3-0.1,12.6
		c0,4.3,0,8.5-0.1,12.6c-0.1,4.1-0.4,7.8-0.9,11c-0.5,3.2-1.3,5.8-2.5,7.8c-1.1,2-2.7,2.9-4.8,2.9V422.7z M693.7,389.8h-23.7
		l0.3-2.7h23.7L693.7,389.8z M687.3,422.7c1.3,0,2.4-0.6,3.1-1.9c0.8-1.3,1.4-3,1.7-5.2c0.4-2.2,0.6-4.8,0.8-7.7
		c0.1-2.9,0.2-6.1,0.2-9.4c0-3.3,0-6.7,0-10.2c0-3.5,0-6.9,0.2-10.2c0.1-3.3,0.4-6.4,0.8-9.4c0.4-2.9,1-5.5,1.8-7.7
		c0.8-2.2,1.9-3.9,3.2-5.2c1.3-1.3,3-1.9,5-1.9v2.9c-2.1,0-3.7,1.1-4.8,3c-1.1,2-1.9,4.6-2.5,7.8c-0.5,3.2-0.8,6.9-0.9,11
		c-0.1,4.1-0.1,8.3-0.1,12.6c0,4.3,0,8.5-0.1,12.6c-0.1,4.1-0.4,7.8-0.9,11s-1.3,5.8-2.5,7.8c-1.1,2-2.7,2.9-4.8,2.9V422.7z
		 M694.4,404.8L694.4,404.8c1.2,0,2.3,0.3,3.2,0.8c1,0.5,1.9,1.3,2.7,2.3c0.8,1,1.6,2.2,2.4,3.6c0.7,1.4,1.4,2.9,2.1,4.6
		c0.8,2.1,1.7,3.6,2.8,4.8c1.1,1.1,2.3,1.7,3.6,1.7v2.7c-2.1,0-3.8-0.8-5.4-2.5c-1.5-1.6-2.8-3.9-3.9-6.7c-1-2.6-2.1-4.7-3.2-6.3
		c-1.1-1.6-2.5-2.4-4.1-2.4h-0.1V404.8z"/>
</g>
<g>
	<path d="M67.4,463.2v43.4c1.7,0.4,3.3,1.5,4.6,3.2c1.3,1.8,2.5,4,3.6,6.6c0.9,2.3,1.9,4.2,3,5.6c1.1,1.4,2.4,2.1,3.9,2.1v2.7
		c-2,0-3.7-0.7-5.2-2.1c-1.5-1.4-2.7-3.5-3.8-6.2c-1.1-2.9-2.2-5.2-3.4-6.9c-1.2-1.7-2.6-2.6-4.2-2.6c-1.6,0-3,0.8-4.1,2.4
		c-1.1,1.6-2.2,3.7-3.2,6.3c-1.1,2.8-2.4,5.1-3.9,6.7c-1.5,1.6-3.3,2.5-5.4,2.5v-2.7c1.3,0,2.5-0.6,3.6-1.7c1.1-1.1,2-2.7,2.8-4.8
		c1.2-3.1,2.5-5.6,4-7.6c1.5-2,3.2-3.2,5.1-3.6v-43.3L67.4,463.2z M59.5,455.3c0.8,2.1,1.7,3.6,2.8,4.8c1.1,1.1,2.3,1.7,3.6,1.7
		c1.3,0,2.5-0.6,3.6-1.7c1.1-1.1,2-2.7,2.8-4.8h2.9c-1.1,2.8-2.4,5.1-3.9,6.7c-1.5,1.6-3.3,2.5-5.4,2.5s-3.8-0.8-5.4-2.5
		c-1.5-1.6-2.8-3.9-3.9-6.7H59.5z"/>
	<path d="M118.3,524.1c1.3-0.7,2.3-1.5,3-2.4c0.7-0.9,1.1-1.9,1.1-2.9h2.5c0,1.7-0.6,3.3-1.8,4.6c-1.2,1.3-2.8,2.5-4.9,3.6V524.1z
		 M132.1,455.1c2.2,0.3,4.2,1.5,6,3.6c1.8,2.1,3.4,4.9,4.7,8.2s2.3,7.1,3,11.3c0.7,4.2,1.1,8.5,1.1,12.9c0,4.5-0.4,8.8-1.2,13.1
		c-0.8,4.3-1.9,8.1-3.3,11.5c-1.4,3.4-3,6.1-5,8.1c-1.9,2.1-4,3.1-6.3,3.1v-0.1c-1.6,0-3-0.5-4.3-1.6c-1.3-1-2.4-2.5-3.5-4.3
		c-1-1.8-1.9-4-2.8-6.5c-0.8-2.5-1.6-5.2-2.3-8h2.7c0.5,2.6,1.2,4.9,1.8,7.1c0.7,2.2,1.4,4,2.2,5.6c0.8,1.6,1.7,2.8,2.7,3.7
		c1,0.9,2.1,1.3,3.4,1.3v0.1c1.8,0,3.4-0.9,5-2.8c1.5-1.8,2.9-4.3,4.1-7.4c1.2-3.1,2.1-6.6,2.7-10.6c0.7-4,1-8.1,1-12.3
		c0-4.1-0.3-8.1-0.9-12c-0.6-3.9-1.4-7.4-2.5-10.4c-1-3.1-2.3-5.6-3.8-7.6c-1.5-2-3-3.1-4.7-3.4V455.1z M142.9,506.4L142.9,506.4
		c1.2,0,2.3,0.3,3.2,0.8c1,0.5,1.9,1.3,2.7,2.3c0.8,1,1.6,2.2,2.4,3.6c0.7,1.4,1.4,2.9,2.1,4.6c0.8,2.1,1.7,3.6,2.8,4.8
		c1.1,1.1,2.3,1.7,3.6,1.7v2.7c-2.1,0-3.8-0.8-5.4-2.5c-1.5-1.6-2.8-3.9-3.9-6.7c-1-2.6-2.1-4.7-3.2-6.3c-1.1-1.6-2.5-2.4-4.1-2.4
		h-0.1V506.4z"/>
	<path d="M195.5,524.1c1.7-0.3,3.2-1.4,4.7-3.3c1.4-1.9,2.7-4.4,3.8-7.5c1.1-3,1.9-6.5,2.5-10.3c0.6-3.8,0.9-7.8,0.9-11.9h2.9
		c0,4.3-0.4,8.6-1.1,12.8c-0.8,4.2-1.8,7.9-3.1,11.2c-1.3,3.3-2.9,6-4.7,8.2c-1.8,2.1-3.8,3.4-5.9,3.6V524.1z M207.4,491.3
		c0-2.9,0-5.8,0-8.6c0-2.8-0.1-5.5-0.3-8c-0.2-2.5-0.4-4.9-0.7-7c-0.3-2.1-0.8-3.9-1.4-5.4c-0.6-1.5-1.4-2.6-2.3-3.4
		c-0.9-0.8-2.1-1.1-3.4-0.9v-2.5c1.7-0.2,3.2,0.1,4.4,1c1.2,0.8,2.2,2.1,3,3.7c0.8,1.6,1.5,3.6,1.9,6s0.8,4.8,1.1,7.6
		c0.3,2.7,0.4,5.6,0.4,8.6c0,3,0.1,6,0.1,9L207.4,491.3z M208.7,490.5c1-0.6,2.1-1,3.3-1c2,0,3.6,0.8,5,2.4c1.4,1.6,2.6,3.7,3.6,6.3
		s2,5.6,2.9,9c0.9,3.4,1.9,6.9,2.9,10.5c0.6,2.1,1.5,3.7,2.6,4.9c1.2,1.1,2.4,1.7,3.7,1.7v2.7c-2.1,0-3.9-0.8-5.6-2.5
		c-1.7-1.6-3-3.9-3.8-6.8c-1-3.3-1.8-6.5-2.5-9.6c-0.7-3.1-1.5-5.8-2.3-8.1c-0.8-2.3-1.7-4.2-2.7-5.6c-1-1.4-2.2-2.1-3.7-2.1
		c-1.2,0-2.3,0.5-3.3,1.5V490.5z M223.1,455.2c0,3,0,6-0.1,9.1c0,3.1-0.2,6-0.4,8.8c-0.3,2.8-0.6,5.4-1.1,7.8
		c-0.5,2.4-1.1,4.5-1.9,6.2c-0.8,1.7-1.8,3-3,3.9c-1.2,0.9-2.7,1.2-4.4,1.1v-2.5c2,0.3,3.6-0.5,4.7-2.5s1.9-4.5,2.4-7.8
		c0.5-3.3,0.8-7,0.9-11.3c0.1-4.2,0.1-8.5,0.1-12.9L223.1,455.2z"/>
	<path d="M268.5,524.2c1.6-0.3,3.2-1.5,4.7-3.4c1.5-2,2.7-4.5,3.8-7.5c1.1-3,1.9-6.5,2.5-10.3c0.6-3.8,0.9-7.8,0.9-11.8h2.9
		c0,2.9-0.2,5.7-0.5,8.5c-0.3,2.8-0.8,5.5-1.4,8.1c0.6-0.5,1.3-0.8,1.9-1.1c0.6-0.3,1.3-0.4,2.1-0.4c2.2,0,4,0.9,5.6,2.8
		c1.5,1.8,2.9,4.3,4.1,7.3c0.9,2.3,1.9,4.2,3,5.6c1.1,1.4,2.4,2.1,3.9,2.1v2.7c-2,0-3.7-0.7-5.2-2.1c-1.5-1.4-2.7-3.5-3.8-6.2
		c-1.1-2.9-2.2-5.2-3.4-6.9c-1.2-1.7-2.6-2.6-4.2-2.6c-1.3,0-2.5,0.5-3.5,1.5c-1,1-1.9,2.3-2.7,4c-1.3,3.5-2.9,6.3-4.7,8.5
		c-1.8,2.2-3.8,3.5-6,3.8V524.2z M280.4,491.3c0-2.9,0-5.8,0-8.6c0-2.8-0.1-5.5-0.3-8c-0.2-2.5-0.4-4.9-0.7-7
		c-0.3-2.1-0.8-3.9-1.4-5.4c-0.6-1.5-1.4-2.6-2.3-3.4c-0.9-0.8-2.1-1.1-3.4-0.9v-2.5c1.7-0.2,3.2,0.1,4.4,1c1.2,0.8,2.2,2.1,3,3.7
		c0.8,1.6,1.5,3.6,1.9,6s0.8,4.8,1.1,7.6c0.3,2.7,0.4,5.6,0.4,8.6c0,3,0.1,6,0.1,9L280.4,491.3z"/>
	<path d="M354.5,458.1c-1.3,0-2.4,0.6-3.1,1.9c-0.8,1.3-1.4,3-1.7,5.2c-0.4,2.2-0.6,4.8-0.8,7.7c-0.1,2.9-0.2,6.1-0.2,9.4
		c0,3.3,0,6.7,0,10.2c0,3.5,0,6.9-0.2,10.2c-0.1,3.3-0.4,6.4-0.8,9.4c-0.4,2.9-1,5.5-1.8,7.7c-0.8,2.2-1.9,3.9-3.2,5.2
		c-1.3,1.3-3,1.9-5,1.9V524c2.1,0,3.7-1.1,4.8-3c1.1-2,1.9-4.6,2.5-7.8c0.5-3.2,0.8-6.9,0.9-11c0.1-4.1,0.1-8.3,0.1-12.6
		c0-4.3,0-8.5,0.1-12.6c0.1-4.1,0.4-7.8,0.9-11c0.5-3.2,1.3-5.8,2.5-7.8c1.1-2,2.7-2.9,4.8-2.9V458.1z M363.5,489.7l-0.6-5.3
		c0-3.5-0.2-6.8-0.4-10c-0.2-3.1-0.6-5.9-1.2-8.3c-0.6-2.4-1.5-4.3-2.5-5.7c-1.1-1.4-2.5-2.1-4.2-2.2v-2.9c1.4,0,2.6,0.3,3.6,0.9
		c1,0.6,1.9,1.5,2.7,2.6s1.4,2.4,1.9,4c0.5,1.6,1,3.3,1.3,5.1c0.3-1.9,0.8-3.6,1.3-5.1c0.5-1.5,1.2-2.9,1.9-4
		c0.8-1.1,1.7-1.9,2.7-2.6c1-0.6,2.3-0.9,3.6-0.9v2.9c-1.7,0-3.1,0.8-4.2,2.2c-1.1,1.4-1.9,3.3-2.5,5.7c-0.6,2.4-1,5.2-1.2,8.3
		c-0.2,3.1-0.4,6.5-0.4,10c0,0.9,0.1,1.8,0.1,2.7c0,0.9,0,1.8,0,2.7h-0.1H363.5z M365.4,480c0,2.8,0,5.8,0,8.8c0,3.1,0,6.1,0,9.1
		c0,3-0.2,5.9-0.3,8.8c-0.2,2.8-0.5,5.4-0.9,7.9c-0.5-2.4-0.8-5-1-7.9c-0.2-2.8-0.3-5.7-0.3-8.8c0-3-0.1-6,0-9.1c0-3.1,0-6,0-8.8
		H365.4z M373.7,458.1c1.3,0,2.4,0.6,3.1,1.9c0.8,1.3,1.4,3,1.7,5.2c0.4,2.2,0.6,4.8,0.8,7.7c0.1,2.9,0.2,6.1,0.2,9.4
		c0,3.3,0,6.7,0,10.2c0,3.5,0,6.9,0.2,10.2c0.1,3.3,0.4,6.4,0.8,9.4c0.4,2.9,1,5.5,1.8,7.7c0.8,2.2,1.9,3.9,3.2,5.2
		c1.3,1.3,3,1.9,5,1.9V524c-2.1,0-3.7-1.1-4.8-3c-1.1-2-1.9-4.6-2.5-7.8c-0.5-3.2-0.8-6.9-0.9-11c-0.1-4.1-0.1-8.3-0.1-12.6
		c0-4.3,0-8.5-0.1-12.6c-0.1-4.1-0.4-7.8-0.9-11c-0.5-3.2-1.3-5.8-2.5-7.8c-1.1-2-2.7-2.9-4.8-2.9V458.1z"/>
	<path d="M443,458.1c-1.3,0-2.4,0.6-3.1,1.9c-0.8,1.3-1.4,3-1.7,5.2c-0.4,2.2-0.6,4.8-0.8,7.7c-0.1,2.9-0.2,6.1-0.2,9.4
		c0,3.3,0,6.7,0,10.2c0,3.5,0,6.9-0.2,10.2c-0.1,3.3-0.4,6.4-0.8,9.4c-0.4,2.9-1,5.5-1.8,7.7c-0.8,2.2-1.9,3.9-3.2,5.2
		c-1.3,1.3-3,1.9-5,1.9V524c2.1,0,3.7-1.1,4.8-3c1.1-2,1.9-4.6,2.5-7.8c0.5-3.2,0.8-6.9,0.9-11c0.1-4.1,0.1-8.3,0.1-12.6
		c0-4.3,0-8.5,0.1-12.6c0.1-4.1,0.4-7.8,0.9-11c0.5-3.2,1.3-5.8,2.5-7.8c1.1-2,2.7-2.9,4.8-2.9V458.1z M443,455.3
		c2.1,0,3.7,1,4.8,2.9c1.1,2,1.9,4.5,2.5,7.8c0.5,3.2,0.8,6.9,0.9,11c0.1,4.1,0.1,8.3,0.1,12.6c0,4.3,0,8.5,0.1,12.6
		c0.1,4.1,0.4,7.8,0.9,11c0.5,3.2,1.3,5.8,2.5,7.8c1.1,2,2.7,3,4.8,3v2.9c-2,0-3.7-0.6-5-1.9c-1.3-1.3-2.4-3-3.2-5.2
		c-0.8-2.2-1.4-4.8-1.8-7.7c-0.4-2.9-0.7-6.1-0.8-9.4c-0.1-3.3-0.2-6.7-0.2-10.2c0-3.5,0-6.9,0-10.2c0-3.3-0.1-6.4-0.2-9.4
		c-0.1-2.9-0.4-5.5-0.8-7.7c-0.4-2.2-1-4-1.7-5.2c-0.8-1.3-1.8-1.9-3.1-1.9V455.3z"/>
	<path d="M512,509.2c-1.5,0.1-2.9,0.9-4,2.5c-1.1,1.6-2.1,3.6-3.1,6.2c-1.1,2.8-2.4,5.1-3.9,6.7c-1.5,1.6-3.3,2.5-5.4,2.5v-2.7
		c1.3,0,2.5-0.6,3.6-1.7c1.1-1.1,2-2.7,2.8-4.8c1.2-3.1,2.5-5.7,4-7.7c1.5-2,3.2-3.2,5.1-3.6L512,509.2z M539.7,491
		c0,4.5-0.4,9-1.2,13.3s-1.8,8.3-3.2,11.7c-1.4,3.4-3,6.2-5,8.3c-1.9,2.1-4.1,3.2-6.4,3.2c-2.3,0-4.4-1.1-6.3-3.2s-3.6-4.9-5-8.4
		c-1.4-3.5-2.5-7.4-3.3-11.7c-0.8-4.4-1.2-8.8-1.2-13.3c0-4.5,0.4-8.9,1.2-13.3c0.8-4.4,1.9-8.3,3.3-11.7c1.4-3.5,3-6.3,5-8.4
		s4-3.2,6.3-3.2c2.3,0,4.5,1.1,6.4,3.2c1.9,2.1,3.6,4.9,5,8.3c1.4,3.4,2.4,7.4,3.2,11.7S539.7,486.5,539.7,491z M536.7,491
		c0-4.3-0.3-8.5-1-12.5c-0.7-4.1-1.6-7.7-2.7-10.8c-1.2-3.2-2.5-5.7-4.1-7.6c-1.6-1.9-3.2-2.9-4.9-2.9c-1.8,0-3.5,1-5.1,2.9
		c-1.6,1.9-2.9,4.5-4,7.6c-1.1,3.2-2,6.8-2.7,10.8c-0.7,4.1-1,8.2-1,12.5c0,4.3,0.3,8.5,1,12.5c0.7,4.1,1.6,7.7,2.7,10.8
		c1.1,3.2,2.5,5.7,4,7.6c1.5,1.9,3.2,2.9,5.1,2.9c1.7,0,3.4-1,4.9-2.9c1.5-1.9,2.9-4.5,4.1-7.6c1.2-3.2,2.1-6.8,2.7-10.8
		C536.4,499.5,536.7,495.3,536.7,491z M537,506.6c1.9,0.3,3.6,1.3,5,3.1c1.4,1.8,2.6,4.1,3.7,6.9c0.9,2.3,1.9,4.2,3,5.6
		c1.1,1.4,2.4,2.1,3.9,2.1v2.7c-2,0-3.7-0.7-5.2-2.1c-1.5-1.4-2.7-3.5-3.8-6.2c-1-2.8-2.1-5-3.3-6.8c-1.1-1.7-2.5-2.6-4.1-2.7
		L537,506.6z"/>
	<path d="M597,493.9c0,4.2-0.1,8.3-0.2,12.2c-0.1,4-0.5,7.5-1,10.6c-0.5,3.1-1.4,5.6-2.5,7.4c-1.1,1.9-2.7,2.8-4.8,2.8v-2.7
		c1.5,0,2.7-0.8,3.5-2.5c0.8-1.7,1.4-3.9,1.7-6.8c0.4-2.8,0.6-6.1,0.6-9.7c0-3.6,0.1-7.5,0.1-11.4v-20.7c0-2.6,0.4-5.1,1.1-7.3
		c0.7-2.2,1.6-4.1,2.8-5.7c1.1-1.6,2.4-2.8,3.9-3.7c1.4-0.9,2.9-1.3,4.3-1.3c1.5,0,3.1,0.5,4.5,1.5c1.5,1,2.7,2.3,3.8,4
		c1.1,1.7,2,3.6,2.6,5.8c0.7,2.2,1,4.5,0.9,6.8c0,2.1-0.4,4.1-1,6.3c-0.6,2.1-1.4,4-2.5,5.7c-1,1.7-2.3,3.1-3.7,4.2
		c-1.4,1.1-3,1.6-4.8,1.6c-1,0-1.9-0.1-2.8-0.3c-0.9-0.2-1.7-0.5-2.5-1c-0.8-0.5-1.5-1.2-2.2-2.2c-0.7-0.9-1.3-2.1-1.9-3.6V493.9z
		 M596.6,506.4h0.1c1.1,0,2.3,0.3,3.6,0.9c1.2,0.6,2.5,1.4,3.7,2.5c1.2,1,2.4,2.2,3.6,3.6c1.2,1.3,2.3,2.7,3.2,4.2
		c0.6,0.9,1.4,1.8,2.4,2.6s2,1.5,3.1,2.1c1,0.6,2.1,1.1,3.1,1.4c1,0.3,1.8,0.5,2.5,0.5v2.7c-1,0-2.2-0.2-3.4-0.7
		c-1.2-0.5-2.5-1.1-3.8-1.9c-1.3-0.8-2.5-1.8-3.7-2.9c-1.2-1.1-2.3-2.3-3.2-3.7c-0.8-1.1-1.7-2.2-2.6-3.2c-0.9-1-1.9-1.9-2.9-2.7
		c-1-0.8-1.9-1.4-2.9-1.9c-0.9-0.5-1.8-0.7-2.6-0.7h-0.1V506.4z M606.4,457.9c-1.1,0-2.3,0.4-3.4,1.1c-1.1,0.7-2.1,1.8-3,3.1
		c-0.9,1.3-1.6,3-2.2,4.8c-0.5,1.9-0.8,3.9-0.8,6.2c0,2.3,0.3,4.4,0.8,6.2c0.5,1.9,1.3,3.5,2.2,4.8c0.9,1.3,1.9,2.3,3,3
		c1.1,0.7,2.2,1.1,3.4,1.1c1.1,0,2.2-0.4,3.2-1.1c1.1-0.7,2-1.8,2.9-3.1c0.9-1.3,1.6-2.9,2.2-4.8c0.6-1.8,0.9-3.9,0.9-6.2
		c0-2.3-0.3-4.4-0.8-6.2c-0.5-1.9-1.3-3.5-2.1-4.8c-0.9-1.3-1.8-2.4-2.9-3.1C608.6,458.2,607.5,457.9,606.4,457.9z"/>
	<path d="M714.7,527c-1.9,0-3.6-0.8-5.1-2.3s-2.7-3.5-3.9-6.1c-1.1-2.6-2.1-5.5-2.9-8.8c-0.8-3.3-1.6-6.8-2.4-10.5
		c-0.7,3.7-1.4,7.2-2.3,10.5c-0.8,3.3-1.8,6.3-2.9,8.8c-1.1,2.6-2.4,4.6-3.9,6.1c-1.5,1.5-3.2,2.3-5.1,2.3c-1.9,0-3.6-0.8-5.1-2.3
		c-1.5-1.5-2.7-3.5-3.9-6.1c-1.1-2.6-2.1-5.5-2.9-8.9c-0.8-3.4-1.6-6.9-2.4-10.6c-0.7,3.6-1.4,7.1-2.3,10.5
		c-0.8,3.3-1.8,6.3-2.9,8.8c-1.1,2.5-2.4,4.6-3.9,6.1c-1.5,1.6-3.2,2.4-5.1,2.5v-2.7c1.7,0,3.2-0.9,4.5-2.8c1.3-1.9,2.4-4.4,3.4-7.5
		c1-3.1,1.8-6.6,2.6-10.6c0.8-4,1.5-8,2.3-12.2V491c0.8-4.4,1.6-8.8,2.5-13.1c0.9-4.3,1.9-8.1,3.1-11.5c1.2-3.4,2.6-6.1,4.2-8.2
		c1.6-2.1,3.6-3.1,5.8-3.1c2.2,0,4.2,1,5.8,3c1.6,2,3,4.6,4.2,7.8c1.2,3.2,2.2,6.9,3.1,11c0.9,4.1,1.7,8.4,2.4,12.7
		c0.8,4.3,1.5,8.6,2.3,12.7c0.8,4.1,1.6,7.8,2.6,11c1,3.2,2.1,5.8,3.4,7.8c1.3,2,2.9,3,4.7,3V527z M686.3,524.2
		c1.7,0,3.2-0.9,4.5-2.8c1.3-1.9,2.4-4.4,3.4-7.5c1-3.1,1.8-6.6,2.6-10.6c0.8-4,1.5-8.1,2.3-12.3c-0.8-4.2-1.5-8.3-2.3-12.3
		c-0.8-4-1.6-7.5-2.6-10.6c-1-3.1-2.1-5.6-3.4-7.5c-1.3-1.9-2.8-2.8-4.5-2.8c-1.8,0-3.4,0.9-4.7,2.8c-1.3,1.9-2.4,4.4-3.4,7.5
		c-1,3.1-1.8,6.6-2.6,10.6c-0.8,4-1.5,8.1-2.2,12.3c0.7,4.2,1.5,8.3,2.2,12.2c0.8,4,1.6,7.5,2.6,10.6c1,3.1,2.1,5.6,3.4,7.5
		C683,523.3,684.5,524.2,686.3,524.2z M686.2,506.4L686.2,506.4c1.2,0,2.3,0.3,3.2,0.8c1,0.5,1.9,1.3,2.7,2.3c0.8,1,1.6,2.2,2.4,3.6
		c0.7,1.4,1.4,2.9,2.1,4.6c0.8,2.1,1.7,3.6,2.8,4.8c1.1,1.1,2.3,1.7,3.6,1.7v2.7c-2.1,0-3.8-0.8-5.4-2.5c-1.5-1.6-2.8-3.9-3.9-6.7
		c-1-2.6-2.1-4.7-3.2-6.3c-1.1-1.6-2.5-2.4-4.1-2.4h-0.1V506.4z"/>
</g>
<g>
	<path d="M57.9,595.3c0,4.2-0.1,8.3-0.2,12.2c-0.1,4-0.5,7.5-1,10.6c-0.5,3.1-1.4,5.6-2.5,7.4c-1.1,1.9-2.7,2.8-4.8,2.8v-2.7
		c1.5,0,2.7-0.8,3.5-2.5c0.8-1.7,1.4-3.9,1.7-6.8c0.4-2.8,0.6-6.1,0.6-9.7c0-3.6,0.1-7.5,0.1-11.4v-20.7c0-2.6,0.4-5.1,1.1-7.3
		c0.7-2.2,1.6-4.1,2.8-5.7c1.1-1.6,2.4-2.8,3.9-3.7c1.4-0.9,2.9-1.3,4.3-1.3c1.5,0,3.1,0.5,4.5,1.5c1.5,1,2.7,2.3,3.8,4
		c1.1,1.7,2,3.6,2.6,5.8c0.7,2.2,1,4.5,0.9,6.8c0,2.1-0.4,4.1-1,6.3c-0.6,2.1-1.4,4-2.5,5.7c-1,1.7-2.3,3.1-3.7,4.2
		c-1.4,1.1-3,1.6-4.8,1.6c-1,0-1.9-0.1-2.8-0.3c-0.9-0.2-1.7-0.5-2.5-1c-0.8-0.5-1.5-1.2-2.2-2.2c-0.7-0.9-1.3-2.1-1.9-3.6V595.3z
		 M67.2,559.3c-1.1,0-2.3,0.4-3.4,1.1c-1.1,0.7-2.1,1.8-3,3.1c-0.9,1.3-1.6,3-2.2,4.8c-0.5,1.9-0.8,3.9-0.8,6.2
		c0,2.3,0.3,4.4,0.8,6.2c0.5,1.9,1.3,3.5,2.2,4.8c0.9,1.3,1.9,2.3,3,3c1.1,0.7,2.2,1.1,3.4,1.1c1.1,0,2.2-0.4,3.2-1.1
		c1.1-0.7,2-1.8,2.9-3.1c0.9-1.3,1.6-2.9,2.2-4.8c0.6-1.8,0.9-3.9,0.9-6.2c0-2.3-0.3-4.4-0.8-6.2c-0.5-1.9-1.3-3.5-2.1-4.8
		c-0.9-1.3-1.8-2.4-2.9-3.1C69.4,559.7,68.3,559.3,67.2,559.3z M74.8,601.6c-0.8-2.9-1.8-5.1-3.1-6.8c-1.3-1.6-2.7-2.5-4.4-2.5v-2.7
		c2.4,0,4.5,1.1,6.3,3.2c1.8,2.2,3.1,5.1,4.1,8.7c0.8,3.2,1.6,6.3,2.3,9.2c0.7,2.9,1.5,5.5,2.3,7.7c0.8,2.2,1.7,4,2.8,5.3
		c1,1.3,2.3,1.9,3.7,1.9v2.7c-1.9,0-3.5-0.7-4.8-2.2c-1.3-1.5-2.5-3.4-3.6-5.9c-1-2.5-2-5.3-2.9-8.5
		C76.6,608.6,75.7,605.2,74.8,601.6z"/>
	<path d="M133.2,618.4c-0.1,0.1-0.1,0.3-0.2,0.4c0,0.1-0.1,0.3-0.2,0.5c-1.1,2.8-2.4,5.1-3.9,6.7c-1.5,1.6-3.3,2.5-5.4,2.5v-2.7
		c1.3,0,2.5-0.6,3.6-1.7c1.1-1.1,2-2.7,2.8-4.8c0.6-1.5,1.3-3,2-4.4L133.2,618.4z M141.8,629.1c-1.6,0-3.2-0.6-4.8-1.7
		c-1.5-1.1-2.9-2.6-4.1-4.5c-1.2-1.9-2.1-4.1-2.8-6.7c-0.7-2.6-1-5.3-0.9-8.3h2.9c0,2.6,0.2,5,0.8,7.2c0.6,2.2,1.3,4.2,2.2,5.8
		c0.9,1.7,2,3,3.1,3.9c1.2,1,2.4,1.4,3.6,1.4c1.2,0,2.4-0.5,3.6-1.4c1.2-1,2.2-2.3,3.2-3.9c0.9-1.6,1.7-3.6,2.3-5.8
		c0.6-2.3,0.8-4.7,0.8-7.3c0-1.3-0.3-2.9-0.8-4.7c-0.5-1.8-1.1-3.5-1.9-5.1c-0.8-1.6-1.8-3-2.9-4.1c-1.1-1.1-2.4-1.7-3.7-1.7
		c-1.7,0-3.3-0.5-4.8-1.6c-1.4-1.1-2.7-2.5-3.7-4.2c-1-1.7-1.9-3.6-2.5-5.7c-0.6-2.1-0.9-4.2-1-6.3c0-2.4,0.3-4.7,0.9-6.9
		c0.7-2.3,1.5-4.3,2.6-6c1.1-1.7,2.4-3.1,3.8-4.2c1.4-1.1,3-1.6,4.5-1.6c1.5,0,3,0.5,4.5,1.6c1.4,1.1,2.7,2.5,3.8,4.2
		c1.1,1.7,2,3.7,2.6,6c0.7,2.3,1,4.6,1,6.9v2.6h-2.7v-2.7c0-2.3-0.3-4.4-0.8-6.4c-0.5-2-1.3-3.6-2.1-5.1c-0.9-1.4-1.8-2.5-2.9-3.3
		c-1.1-0.8-2.2-1.2-3.3-1.2s-2.2,0.4-3.3,1.2c-1.1,0.8-2.1,1.9-2.9,3.3c-0.9,1.4-1.6,3.1-2.1,5.1c-0.5,2-0.8,4.1-0.8,6.4
		c0,2.3,0.3,4.3,0.9,6.2c0.6,1.8,1.3,3.4,2.2,4.8c0.9,1.3,1.8,2.3,2.9,3.1c1.1,0.7,2.2,1.1,3.2,1.1c2.1,0,3.8,0.6,5.3,1.9
		c1.5,1.3,2.7,2.9,3.7,4.7c1,1.9,1.7,3.9,2.2,6c0.5,2.1,0.8,4,0.8,5.6c0,3-0.3,5.7-1,8.3c-0.7,2.6-1.6,4.8-2.8,6.7
		c-1.2,1.9-2.6,3.4-4.1,4.5C145.1,628.5,143.5,629.1,141.8,629.1z M152.6,613.9c0.7,1.2,1.3,2.6,1.8,4.1c0.9,2.3,1.9,4.2,3,5.6
		c1.1,1.4,2.4,2.1,3.9,2.1v2.7c-2,0-3.7-0.7-5.2-2.1c-1.5-1.4-2.7-3.5-3.8-6.2c-0.2-0.5-0.4-0.9-0.5-1.3c-0.2-0.4-0.3-0.8-0.5-1.2
		L152.6,613.9z"/>
	<path d="M196.3,625.6c1.8,0,3.4-1,4.7-3s2.4-4.6,3.4-7.8c1-3.2,1.8-6.9,2.6-11c0.8-4.1,1.5-8.4,2.3-12.7c0.8-4.3,1.6-8.6,2.4-12.7
		c0.9-4.1,1.9-7.8,3.1-11c1.2-3.2,2.6-5.8,4.2-7.8c1.6-2,3.5-3,5.8-3v2.7c-1.8,0-3.3,1-4.6,3c-1.3,2-2.4,4.6-3.4,7.8
		c-1,3.2-1.9,6.9-2.7,11c-0.8,4.1-1.6,8.4-2.3,12.7c-0.8,4.3-1.6,8.6-2.5,12.7c-0.9,4.1-1.9,7.8-3.1,11c-1.2,3.2-2.6,5.8-4.2,7.8
		c-1.6,2-3.5,3-5.7,3V625.6z M223.5,558.8l2.7,0.1l-1,69.5h-2.7L223.5,558.8z M253.2,628.3c-2.2,0-4.1-1-5.7-3c-1.6-2-3-4.6-4.2-7.8
		c-1.2-3.2-2.2-6.9-3.1-11c-0.9-4.1-1.7-8.4-2.5-12.7c-0.8-4.3-1.6-8.6-2.3-12.7c-0.8-4.1-1.7-7.8-2.7-11c-1-3.2-2.1-5.8-3.4-7.8
		c-1.3-2-2.8-3-4.6-3v-2.7c2.2,0,4.2,1,5.8,3c1.6,2,3,4.6,4.2,7.8c1.2,3.2,2.2,6.9,3.1,11c0.9,4.1,1.7,8.4,2.4,12.7
		c0.8,4.3,1.5,8.6,2.3,12.7c0.8,4.1,1.6,7.8,2.6,11c1,3.2,2.1,5.8,3.4,7.8s2.9,3,4.7,3V628.3z"/>
	<path d="M304.6,610.5L304.6,610.5c-1.7,0-3.1,0.8-4.2,2.4c-1.1,1.6-2.2,3.7-3.2,6.3c-1.1,2.8-2.4,5.1-3.9,6.7
		c-1.5,1.6-3.3,2.5-5.4,2.5v-2.7c1.3,0,2.5-0.6,3.6-1.7c1.1-1.1,2-2.7,2.8-4.8c0.6-1.7,1.3-3.2,2.1-4.6c0.7-1.4,1.5-2.6,2.4-3.6
		c0.8-1,1.7-1.8,2.7-2.3s2-0.8,3.1-0.8h0.1V610.5z M297.3,556.7c2.1,0,3.7,1,4.8,2.9c1.1,2,1.9,4.6,2.5,7.8c0.5,3.2,0.8,6.9,0.9,11
		c0.1,4.1,0.1,8.3,0.1,12.6s0,8.5,0.1,12.7c0.1,4.1,0.4,7.8,0.9,11c0.5,3.2,1.3,5.8,2.5,7.8c1.1,2,2.7,3,4.8,3v2.7
		c-2,0-3.7-0.6-5-1.9c-1.3-1.3-2.4-3-3.2-5.2c-0.8-2.2-1.4-4.8-1.8-7.7c-0.4-2.9-0.6-6.1-0.8-9.4c-0.1-3.3-0.2-6.7-0.2-10.2
		c0-3.5,0-6.9,0-10.2c0-3.3-0.1-6.4-0.2-9.4c-0.1-2.9-0.4-5.5-0.8-7.7c-0.4-2.2-1-4-1.7-5.2c-0.8-1.3-1.8-1.9-3.1-1.9V556.7z
		 M330.6,559.5c-1.3,0-2.4,0.6-3.1,1.9c-0.8,1.3-1.4,3-1.7,5.2c-0.4,2.2-0.6,4.8-0.8,7.7c-0.1,2.9-0.2,6.1-0.2,9.4
		c0,3.3,0,6.7,0,10.2c0,3.5,0,6.9-0.2,10.2c-0.1,3.3-0.4,6.4-0.8,9.4c-0.4,2.9-1,5.5-1.8,7.7c-0.8,2.2-1.9,3.9-3.2,5.2
		c-1.3,1.3-3,1.9-5,1.9v-2.7c2.1,0,3.7-1.1,4.8-3c1.1-2,1.9-4.6,2.5-7.8c0.5-3.2,0.8-6.9,0.9-11c0.1-4.1,0.1-8.3,0.1-12.7
		s0-8.5,0.1-12.6c0.1-4.1,0.4-7.8,0.9-11c0.5-3.2,1.3-5.8,2.5-7.8c1.1-2,2.7-2.9,4.8-2.9V559.5z M323.3,607.8L323.3,607.8
		c1.2,0,2.3,0.3,3.2,0.8s1.9,1.3,2.7,2.3c0.8,1,1.6,2.2,2.4,3.6c0.7,1.4,1.4,2.9,2.1,4.6c0.8,2.1,1.7,3.6,2.8,4.8
		c1.1,1.1,2.3,1.7,3.6,1.7v2.7c-2.1,0-3.8-0.8-5.4-2.5c-1.5-1.6-2.8-3.9-3.9-6.7c-1-2.6-2.1-4.7-3.2-6.3c-1.1-1.6-2.5-2.4-4.1-2.4
		h-0.1V607.8z"/>
	<path d="M391.5,610.6L391.5,610.6c-1.7,0-3.1,0.8-4.2,2.4c-1.1,1.6-2.2,3.7-3.2,6.3c-1.1,2.8-2.4,5.1-3.9,6.7
		c-1.5,1.6-3.3,2.5-5.4,2.5v-2.7c1.3,0,2.5-0.6,3.6-1.7c1.1-1.1,2-2.7,2.8-4.8c0.6-1.7,1.3-3.2,2.1-4.6c0.7-1.4,1.5-2.6,2.4-3.6
		c0.8-1,1.7-1.8,2.7-2.3s2-0.8,3.1-0.8h0.1V610.6z M390.4,607.9c-0.1-3.4-0.2-6.9-0.2-10.6c0-3.7,0-7.3,0-10.8c0-3.6-0.2-7-0.4-10.2
		c-0.2-3.2-0.6-6.1-1.2-8.5c-0.6-2.4-1.4-4.4-2.5-5.8c-1.1-1.5-2.5-2.2-4.3-2.3v-2.9c2.2,0,4,0.8,5.4,2.4c1.4,1.6,2.5,3.7,3.2,6.3
		c0.8,2.6,1.3,5.7,1.6,9.2c0.3,3.5,0.5,7.1,0.5,10.9c0,3.8,0,7.6,0,11.5c0,3.9,0,7.5,0.1,10.8L390.4,607.9z M392.8,607.8
		c0,2.6,0.3,4.7,0.8,6.3c0.5,1.6,1,3,1.6,4.2c0.6,1.2,1.2,2.2,1.8,3.1c0.6,0.9,1.1,1.8,1.5,2.8v4.2c-0.8-1.2-1.7-2.4-2.6-3.6
		c-0.9-1.2-1.8-2.6-2.5-4.1c-0.8-1.5-1.4-3.4-2-5.4c-0.5-2.1-0.9-4.5-1-7.4L392.8,607.8z M406.6,607.9c-0.1,2.9-0.5,5.3-1,7.4
		c-0.5,2.1-1.2,3.9-2,5.4c-0.8,1.6-1.6,2.9-2.5,4.1c-0.9,1.2-1.8,2.4-2.6,3.6v-4.2c0.4-1,0.9-1.9,1.5-2.8c0.6-0.9,1.2-1.9,1.8-3.1
		c0.6-1.2,1.1-2.6,1.6-4.2c0.4-1.6,0.7-3.7,0.8-6.3L406.6,607.9z M404.2,607.8c0.1-3.4,0.1-7,0.1-10.8c0-3.9,0-7.7,0-11.5
		c0-3.8,0.2-7.4,0.5-10.9c0.3-3.5,0.9-6.5,1.6-9.2c0.8-2.6,1.9-4.8,3.2-6.3c1.4-1.6,3.2-2.4,5.4-2.4v2.9c-1.8,0-3.2,0.8-4.3,2.3
		c-1.1,1.5-1.9,3.4-2.5,5.8c-0.6,2.4-1,5.3-1.2,8.5c-0.2,3.2-0.3,6.6-0.4,10.2c0,3.6-0.1,7.2,0,10.8c0,3.7,0,7.2-0.2,10.6
		L404.2,607.8z M422.6,628.4L422.6,628.4c-1.2,0-2.3-0.3-3.2-0.8c-1-0.5-1.9-1.3-2.7-2.3c-0.8-1-1.6-2.2-2.4-3.6
		c-0.7-1.4-1.4-2.9-2.1-4.6c-0.8-2.1-1.7-3.6-2.8-4.8c-1.1-1.1-2.3-1.7-3.6-1.7v-2.7c2.1,0,3.8,0.8,5.4,2.5c1.5,1.6,2.8,3.9,3.9,6.7
		c1,2.6,2.1,4.7,3.2,6.3c1.1,1.6,2.5,2.4,4.1,2.4h0.1V628.4z"/>
	<path d="M474.1,610.6L474.1,610.6c-1.7,0-3.1,0.8-4.2,2.4c-1.1,1.6-2.2,3.7-3.2,6.3c-1.1,2.8-2.4,5.1-3.9,6.7s-3.3,2.5-5.4,2.5
		v-2.7c1.3,0,2.5-0.6,3.6-1.7c1.1-1.1,2-2.7,2.8-4.8c0.6-1.7,1.3-3.2,2.1-4.6c0.7-1.4,1.5-2.6,2.4-3.6c0.8-1,1.7-1.8,2.7-2.3
		c1-0.5,2-0.8,3.1-0.8h0.1V610.6z M475.3,607.8c0,2.6,0.3,4.7,0.8,6.3c0.5,1.6,1,3,1.6,4.2c0.6,1.2,1.2,2.2,1.8,3.1
		c0.6,0.9,1.1,1.8,1.5,2.8v4.2c-0.8-1.2-1.7-2.4-2.6-3.6c-0.9-1.2-1.8-2.6-2.5-4.1c-0.8-1.5-1.4-3.3-2-5.4c-0.5-2-0.9-4.5-1-7.4
		h-0.1c-0.1-3.4-0.2-6.9-0.2-10.6c0-3.7,0-7.3,0-10.9c0-3.6-0.2-7-0.4-10.2s-0.6-6.1-1.2-8.5c-0.6-2.5-1.4-4.4-2.5-5.9
		c-1.1-1.5-2.5-2.2-4.3-2.3v-2.9c2.2,0,4,0.8,5.4,2.4c1.4,1.6,2.5,3.7,3.2,6.3c0.8,2.6,1.3,5.7,1.6,9.2c0.3,3.5,0.5,7.1,0.6,10.9
		s0.1,7.6,0,11.5C475.2,600.8,475.2,604.4,475.3,607.8z M486.8,607.8c0.1-3.4,0.1-7,0.1-10.8c0-3.9,0-7.7,0-11.5s0.3-7.4,0.6-10.9
		c0.3-3.5,0.9-6.5,1.6-9.2c0.8-2.6,1.9-4.8,3.2-6.3c1.4-1.6,3.2-2.4,5.4-2.4v2.9c-1.8,0-3.2,0.8-4.3,2.3c-1.1,1.5-1.9,3.4-2.5,5.9
		c-0.6,2.5-1,5.3-1.2,8.5s-0.3,6.6-0.4,10.2c0,3.6-0.1,7.2-0.1,10.9c0,3.7-0.1,7.2-0.2,10.6c-0.1,2.9-0.5,5.3-1,7.4
		c-0.5,2-1.2,3.8-2,5.4c-0.8,1.6-1.6,2.9-2.5,4.1c-0.9,1.2-1.8,2.4-2.6,3.6v-4.2c0.4-1,0.9-1.9,1.5-2.8c0.6-0.9,1.2-1.9,1.8-3.1
		c0.6-1.2,1.1-2.6,1.6-4.2C486.4,612.4,486.7,610.3,486.8,607.8z M489.3,603.7c0,0.7,0,1.4,0,2.1c0,0.7,0,1.3,0.1,2
		c0,2.6,0.3,4.7,0.8,6.3c0.5,1.6,1,3,1.6,4.2c0.6,1.2,1.2,2.2,1.8,3.1c0.6,0.9,1.1,1.8,1.5,2.8v4.2c-0.8-1.2-1.7-2.4-2.6-3.6
		c-0.9-1.2-1.8-2.6-2.6-4.1c-0.8-1.5-1.5-3.3-2-5.4c-0.5-2-0.9-4.5-1-7.4c0-0.6,0-1.3,0.3-2.1C487.4,605.1,488.1,604.4,489.3,603.7z
		 M500.8,607.8c0.1-3.4,0.1-7,0.1-10.8c0-3.9,0-7.7,0-11.5s0.3-7.4,0.6-10.9c0.3-3.5,0.9-6.5,1.6-9.2c0.8-2.6,1.9-4.8,3.2-6.3
		c1.4-1.6,3.2-2.4,5.4-2.4v2.9c-1.8,0-3.2,0.8-4.3,2.3c-1.1,1.5-1.9,3.4-2.5,5.9c-0.6,2.5-1,5.3-1.2,8.5s-0.3,6.6-0.4,10.2
		c0,3.6-0.1,7.2,0,10.9c0,3.7,0,7.2-0.2,10.6h-0.1c-0.1,2.9-0.5,5.3-1,7.4c-0.5,2-1.2,3.8-2,5.4c-0.8,1.6-1.6,2.9-2.5,4.1
		c-0.9,1.2-1.8,2.4-2.6,3.6v-4.2c0.4-1,0.9-1.9,1.5-2.8c0.6-0.9,1.2-1.9,1.8-3.1c0.6-1.2,1.1-2.6,1.6-4.2
		C500.5,612.4,500.7,610.3,500.8,607.8z M519.1,628.4L519.1,628.4c-1.2,0-2.3-0.3-3.2-0.8c-1-0.5-1.9-1.3-2.7-2.3s-1.6-2.2-2.4-3.6
		c-0.7-1.4-1.4-2.9-2.1-4.6c-0.8-2.1-1.7-3.6-2.8-4.8c-1.1-1.1-2.3-1.7-3.6-1.7v-2.7c2.1,0,3.8,0.8,5.4,2.5c1.5,1.6,2.8,3.9,3.9,6.7
		c1,2.6,2.1,4.7,3.2,6.3c1.1,1.6,2.5,2.4,4.1,2.4h0.1V628.4z"/>
	<path d="M589,619c0.6,2.1,1.5,3.7,2.6,4.9c1.2,1.2,2.4,1.7,3.7,1.7v2.7c-2.1,0-3.9-0.8-5.6-2.5c-1.7-1.7-3-4-3.8-6.9
		c-1-3.3-1.8-6.5-2.5-9.6c-0.7-3.1-1.5-5.8-2.3-8.1c-0.8-2.3-1.7-4.2-2.7-5.6c-1-1.4-2.2-2.1-3.7-2.1c-1.5,0-2.8,0.7-3.8,2.1
		c-1,1.4-1.9,3.2-2.8,5.5c-0.8,2.3-1.6,5-2.3,8.1c-0.7,3.1-1.6,6.3-2.5,9.7c-0.8,2.9-2.1,5.2-3.7,6.9c-1.7,1.7-3.5,2.5-5.6,2.5v-2.7
		c1.3,0,2.6-0.6,3.7-1.7c1.2-1.2,2.1-2.8,2.7-4.9c0.9-2.9,1.7-5.8,2.4-8.6c0.7-2.8,1.5-5.4,2.3-7.7c0.8-2.3,1.7-4.4,2.6-6.2
		s2-3.2,3.1-4.1c-1.6-1.1-3-2.9-4.2-5.4c-1.2-2.4-2.3-5.3-3.2-8.5c-0.9-3.2-1.8-6.7-2.5-10.5c-0.7-3.8-1.4-7.6-2.1-11.4h2.9
		c0.7,4.3,1.5,8.5,2.3,12.7c0.8,4.1,1.6,7.8,2.6,11c1,3.2,2.1,5.8,3.4,7.8c1.3,2,2.9,2.9,4.8,2.9c1.8,0,3.3-1,4.6-2.9
		c1.3-2,2.4-4.5,3.4-7.8c1-3.2,1.9-6.9,2.7-11c0.8-4.1,1.6-8.3,2.4-12.7h2.9c-0.7,3.8-1.4,7.6-2.1,11.4c-0.7,3.8-1.5,7.3-2.5,10.5
		c-0.9,3.2-2,6-3.2,8.5c-1.2,2.4-2.6,4.2-4.2,5.4c1.2,1,2.3,2.3,3.2,4.1c0.9,1.8,1.8,3.9,2.5,6.2c0.8,2.3,1.5,4.9,2.3,7.7
		C587.4,613.2,588.1,616.1,589,619z"/>
	<path d="M647,610.7c-1.7,0-3.1,0.8-4.2,2.4c-1.1,1.6-2.2,3.7-3.2,6.3c-1.1,2.8-2.4,5.1-3.9,6.7s-3.3,2.5-5.4,2.5v-2.7
		c1.3,0,2.5-0.6,3.6-1.7c1.1-1.1,2-2.7,2.8-4.8c0.6-1.7,1.3-3.2,2.1-4.6c0.7-1.4,1.5-2.6,2.4-3.6c0.8-1,1.8-1.8,2.7-2.3
		s2-0.8,3.2-0.8V610.7z M645.5,592.7c-0.7-4.2-1.5-8.4-2.2-12.3c-0.8-4-1.6-7.5-2.6-10.7c-1-3.1-2.1-5.6-3.4-7.5
		c-1.3-1.9-2.8-2.8-4.6-2.8v-2.7c1.5,0,2.9,0.5,4.1,1.4s2.3,2.3,3.3,4c1,1.7,1.9,3.7,2.7,6c0.8,2.3,1.5,4.8,2.2,7.5
		c0.7,2.7,1.3,5.5,1.8,8.5c0.6,3,1.1,5.9,1.7,8.9L645.5,592.7z M645.4,592.9c0.5-3,1.1-5.9,1.7-8.9c0.6-3,1.2-5.8,1.8-8.5
		c0.7-2.7,1.4-5.2,2.2-7.5c0.8-2.3,1.7-4.3,2.7-6c1-1.7,2.1-3,3.3-4c1.2-1,2.6-1.4,4.1-1.4v2.7c-1.8,0-3.3,0.9-4.6,2.8
		c-1.3,1.9-2.4,4.4-3.4,7.5c-1,3.1-1.8,6.7-2.6,10.7c-0.8,4-1.5,8.1-2.2,12.3L645.4,592.9z M645.4,592.1h3.1v16.5h-3.1V592.1z
		 M647,608c1.1,0,2.2,0.3,3.2,0.8c1,0.5,1.9,1.3,2.7,2.3c0.8,1,1.6,2.2,2.4,3.6c0.7,1.4,1.4,2.9,2.1,4.6c0.8,2.1,1.7,3.6,2.8,4.8
		c1.1,1.1,2.3,1.7,3.6,1.7v2.7c-2.1,0-3.8-0.8-5.4-2.5c-1.5-1.6-2.8-3.9-3.9-6.7c-1-2.6-2.1-4.7-3.2-6.3c-1.1-1.6-2.5-2.4-4.2-2.4
		V608z"/>
	<path d="M710.6,574.3c1.6,0,3-0.9,4.2-2.6c1.2-1.7,2.3-4,3.4-6.9c1-2.7,2.3-4.7,3.8-6.1c1.5-1.4,3.2-2.1,5.2-2.1v2.7
		c-1.5,0-2.7,0.7-3.9,2.1c-1.1,1.4-2.1,3.2-3,5.6l-0.6,1.4c-0.9,2.6-1.6,5.6-2.3,8.9c-0.7,3.3-1.3,6.8-2,10.4
		c-0.6,3.6-1.3,7.3-1.9,11c-0.6,3.7-1.4,7.2-2.2,10.5c1.3-0.9,2.6-1.4,4-1.4c2.2,0,4,0.9,5.6,2.8c1.5,1.8,2.9,4.3,4.1,7.3
		c0.9,2.3,1.9,4.2,3,5.6s2.4,2.1,3.9,2.1v2.7c-2,0-3.7-0.7-5.2-2.1c-1.5-1.4-2.7-3.5-3.8-6.2c-1.1-2.9-2.2-5.2-3.4-6.9
		c-1.2-1.7-2.6-2.6-4.2-2.6c-1.6,0-3,0.8-4.1,2.4c-1.1,1.6-2.2,3.7-3.2,6.3c-1.1,2.8-2.4,5.1-3.9,6.7c-1.5,1.7-3.3,2.5-5.3,2.5v-2.7
		c1.3,0,2.5-0.6,3.6-1.7c1.1-1.1,2-2.7,2.8-4.8c0.2-0.6,0.5-1.3,0.8-1.9s0.5-1.2,0.8-1.8c0.8-2.6,1.6-5.6,2.3-8.9
		c0.7-3.3,1.4-6.7,2-10.3c0.7-3.6,1.3-7.1,2-10.7s1.4-7,2.2-10.3c-1.4,1.1-2.8,1.7-4.4,1.7V574.3z M704.8,556.7
		c0,2.5,0.2,4.8,0.4,6.9s0.5,4,1,5.5c0.4,1.6,1,2.8,1.7,3.7s1.6,1.3,2.7,1.3v2.8c-1.5,0-2.7-0.5-3.7-1.6c-1-1-1.8-2.5-2.4-4.3
		c-0.6-1.8-1.1-4-1.4-6.4c-0.3-2.5-0.5-5.1-0.6-7.9L704.8,556.7z"/>
</g>
<g>
	<path d="M82.6,726c-2.2,0-3.8-0.7-5-2c-1.1-1.3-1.9-3.1-2.4-5.4c-0.7,2.2-1.8,4-3.2,5.4c-1.4,1.3-3.5,2-6.1,1.9c-2.6,0-4.6-0.6-6-2
		c-1.5-1.4-2.6-3.2-3.3-5.4c-0.5,2.2-1.3,4-2.4,5.4c-1.1,1.4-2.8,2.1-5,2.1v-2.5c1.4,0,2.4-0.5,3.2-1.4c0.8-0.9,1.3-2.2,1.7-3.7
		c0.4-1.6,0.6-3.4,0.7-5.5c0.1-2.1,0.1-4.3,0.1-6.5V702c0-2.9,0.1-5.8,0.3-8.7c0.2-2.8,0.6-5.4,1.4-7.6c0.7-2.2,1.8-4,3.3-5.4
		c1.5-1.4,3.5-2.1,6-2.1c2.5,0,4.4,0.7,5.8,1.9c1.4,1.3,2.5,3,3.3,5.1c0.8,2.1,1.2,4.5,1.4,7.2c0.2,2.7,0.3,5.5,0.3,8.3
		c0,2.8,0,5.6,0,8.3c0,2.7,0.2,5.2,0.5,7.3c0.3,2.1,0.9,3.8,1.7,5.1c0.8,1.3,2,1.9,3.6,1.9V726z M65.9,723.3c1.8,0,3.3-0.6,4.4-1.6
		c1.1-1,1.9-2.4,2.5-4.2c0.6-1.7,0.9-3.7,1.1-6c0.2-2.3,0.3-4.6,0.3-7.1c0-2.9,0-5.7-0.1-8.5c-0.1-2.8-0.4-5.3-0.9-7.6
		c-0.5-2.2-1.3-4-2.5-5.4c-1.1-1.4-2.8-2.1-4.9-2.2c-2,0-3.6,0.7-4.7,1.9c-1.1,1.2-1.9,2.8-2.5,4.8c-0.5,2-0.9,4.2-1,6.7
		c-0.1,2.5-0.2,5.1-0.2,7.8c0,2.7,0.1,5.3,0.2,7.9c0.1,2.6,0.4,4.8,1,6.8c0.5,2,1.4,3.6,2.5,4.8C62.4,722.6,63.9,723.3,65.9,723.3z"
		/>
	<path d="M150.4,726c-2.2,0-3.8-0.7-5-2c-1.1-1.3-1.9-3.1-2.4-5.4c-0.7,2.2-1.8,4-3.2,5.4c-1.4,1.3-3.5,2-6.1,1.9
		c-2.6,0-4.6-0.6-6-2c-1.5-1.4-2.6-3.2-3.3-5.4c-0.5,2.2-1.3,4-2.4,5.4c-1.1,1.4-2.8,2.1-5,2.1v-2.5c1.4,0,2.4-0.5,3.2-1.4
		c0.8-0.9,1.3-2.2,1.7-3.7c0.4-1.6,0.6-3.4,0.7-5.5c0.1-2.1,0.1-4.3,0.1-6.5V702v-64.9h2.6v46.4c0.8-1.6,1.8-2.9,3.1-3.8
		c1.3-1,3.1-1.4,5.2-1.4c2.5,0,4.4,0.7,5.8,1.9c1.4,1.3,2.5,3,3.3,5.1c0.8,2.1,1.2,4.5,1.4,7.2c0.2,2.7,0.3,5.5,0.3,8.3
		c0,2.8,0,5.6,0,8.3c0,2.7,0.2,5.2,0.5,7.3c0.3,2.1,0.9,3.8,1.7,5.1c0.8,1.3,2,1.9,3.6,1.9V726z M133.7,723.3c1.7,0,3.1-0.4,4.1-1.3
		c1-0.9,1.9-2,2.5-3.5c0.6-1.5,1-3.2,1.3-5.1c0.2-1.9,0.4-4,0.5-6.2c0-3.1-0.1-6.2-0.1-9.3c0-3.1-0.2-5.9-0.7-8.5
		c-0.5-2.5-1.3-4.6-2.4-6.2c-1.1-1.6-2.9-2.4-5.2-2.5c-2,0-3.6,0.7-4.7,1.9c-1.1,1.2-1.9,2.8-2.5,4.8c-0.5,2-0.9,4.2-1,6.7
		c-0.1,2.5-0.2,5.1-0.2,7.8c0,2.7,0.1,5.3,0.2,7.9c0.1,2.6,0.4,4.8,1,6.8c0.5,2,1.4,3.6,2.5,4.8
		C130.1,722.6,131.7,723.3,133.7,723.3z"/>
	<path d="M212.5,712c0,1.6,0.2,3.2,0.4,4.6c0.2,1.4,0.5,2.6,1,3.7c0.4,1,1,1.8,1.7,2.4c0.7,0.6,1.6,0.9,2.6,0.9v2.5
		c-2.2,0-3.8-0.7-5-2c-1.1-1.3-1.9-3.1-2.4-5.4c-0.7,2.2-1.8,4-3.2,5.4c-1.4,1.3-3.5,2-6.1,1.9c-2.6,0-4.6-0.6-6-2
		c-1.5-1.4-2.6-3.2-3.3-5.4c-0.5,2.2-1.3,4-2.4,5.4c-1.1,1.4-2.8,2.1-5,2.1v-2.5c1.4,0,2.4-0.5,3.2-1.4c0.8-0.9,1.3-2.2,1.7-3.7
		c0.4-1.6,0.6-3.4,0.7-5.5c0.1-2.1,0.1-4.3,0.1-6.5V702c0-2.9,0.1-5.8,0.3-8.7c0.2-2.8,0.6-5.4,1.4-7.6c0.7-2.2,1.8-4,3.3-5.4
		c1.5-1.4,3.5-2.1,6-2.1c1.7,0,3.1,0.3,4.3,0.9c1.2,0.6,2.2,1.5,3,2.6c0.8,1.1,1.4,2.4,1.9,3.9c0.5,1.5,0.8,3.1,1.1,4.9h-2.6
		c-0.2-1.4-0.5-2.6-0.9-3.8c-0.4-1.2-0.9-2.2-1.5-3s-1.4-1.5-2.2-2c-0.9-0.5-1.9-0.8-3.1-0.8c-2,0-3.6,0.7-4.7,1.9
		c-1.1,1.2-1.9,2.8-2.5,4.8c-0.5,2-0.9,4.2-1,6.7c-0.1,2.5-0.2,5.1-0.2,7.8c0,2.7,0.1,5.3,0.2,7.9c0.1,2.6,0.4,4.8,1,6.8
		c0.5,2,1.4,3.6,2.5,4.8c1.1,1.2,2.7,1.8,4.7,1.9c1.4,0,2.5-0.3,3.4-0.9c0.9-0.6,1.7-1.4,2.3-2.4c0.6-1,1.1-2.2,1.4-3.6
		c0.3-1.4,0.6-2.8,0.8-4.4H212.5z"/>
	<path d="M252.7,723.5c1.6,0,2.8-0.6,3.6-1.9c0.8-1.3,1.4-3,1.7-5.1c0.3-2.1,0.5-4.5,0.5-7.3c0-2.7,0-5.5,0-8.3
		c0-2.8,0.1-5.6,0.3-8.3c0.2-2.7,0.7-5.1,1.4-7.2s1.8-3.8,3.3-5.1c1.4-1.3,3.4-1.9,5.8-1.9c2.1,0,3.8,0.5,5.1,1.4
		c1.3,1,2.4,2.2,3.2,3.8v-46.4h2.6V702c0,0.8,0,1.5,0,2.2c0,0.7,0,1.4-0.1,2.2c0,2.3,0.1,4.5,0.2,6.5c0.1,2.1,0.4,3.9,0.8,5.5
		c0.4,1.6,1,2.8,1.7,3.7c0.8,0.9,1.8,1.4,3.2,1.4v2.5c-2.2,0-3.8-0.7-5-2.1c-1.1-1.4-1.9-3.2-2.4-5.4c-0.8,2.2-1.9,4-3.3,5.4
		c-1.4,1.4-3.4,2-6,2c-2.6,0-4.6-0.6-6.1-1.9c-1.4-1.3-2.5-3.1-3.2-5.3c-0.5,2.2-1.3,4-2.5,5.3c-1.1,1.3-2.8,2-4.9,2V723.5z
		 M269.4,723.3c2,0,3.6-0.7,4.7-1.9c1.1-1.2,1.9-2.8,2.5-4.8c0.5-2,0.9-4.3,1-6.8c0.1-2.6,0.2-5.2,0.2-7.9v-1.8
		c0-2.5-0.1-4.9-0.3-7.2c-0.2-2.3-0.6-4.4-1.1-6.2c-0.6-1.8-1.4-3.2-2.5-4.3c-1.1-1.1-2.6-1.6-4.4-1.7c-2.1,0-3.8,0.8-4.9,2.2
		c-1.1,1.4-2,3.2-2.5,5.4c-0.5,2.2-0.8,4.7-0.9,7.6c-0.1,2.8-0.1,5.7-0.1,8.5c0,2.5,0.1,4.8,0.3,7.1c0.2,2.3,0.6,4.3,1.2,6
		c0.6,1.7,1.4,3.1,2.5,4.2C266,722.7,267.5,723.3,269.4,723.3z"/>
	<path d="M326.4,698.3c0-2.6,0.2-5.1,0.5-7.6c0.3-2.4,0.8-4.6,1.6-6.4c0.8-1.8,1.9-3.3,3.3-4.4c1.4-1.1,3.3-1.7,5.5-1.7
		c2.4,0,4.3,0.6,5.7,1.8c1.4,1.2,2.5,2.8,3.3,4.8c0.8,2,1.3,4.3,1.5,6.8c0.3,2.6,0.4,5.2,0.4,7.9v2.5H329c0,2.7,0.1,5.3,0.2,7.9
		c0.1,2.6,0.4,4.8,1,6.8c0.5,2,1.4,3.6,2.5,4.8c1.1,1.2,2.7,1.8,4.7,1.9c1.4,0,2.5-0.3,3.4-0.9c0.9-0.6,1.7-1.4,2.3-2.4
		c0.6-1,1.1-2.2,1.4-3.6c0.3-1.4,0.6-2.8,0.8-4.4h3.1c0,1.6,0.2,3.2,0.4,4.6c0.2,1.4,0.5,2.6,1,3.7c0.4,1,1,1.8,1.7,2.4
		c0.7,0.6,1.6,0.9,2.6,0.9v2.5c-2.2,0-3.8-0.7-5-2c-1.1-1.3-1.9-3.1-2.4-5.4c-0.7,2.2-1.8,4-3.2,5.4c-1.4,1.3-3.5,2-6.1,1.9
		c-2.6,0-4.6-0.6-6-2c-1.5-1.4-2.6-3.2-3.3-5.4c-0.5,2.2-1.3,4-2.4,5.4c-1.1,1.4-2.8,2.1-5,2.1v-2.5c1.4,0,2.4-0.5,3.2-1.4
		c0.8-0.9,1.3-2.2,1.7-3.7c0.4-1.6,0.6-3.4,0.7-5.5c0.1-2.1,0.1-4.3,0.1-6.5V702c0-0.4,0-0.9,0-1.4S326.4,699.3,326.4,698.3z
		 M337.3,680.8c-1.8,0-3.2,0.5-4.3,1.5c-1.1,1-1.9,2.2-2.5,3.8c-0.6,1.6-1,3.4-1.2,5.5c-0.2,2.1-0.3,4.3-0.4,6.6v1.2h16.7
		c0-2.5-0.2-4.8-0.3-7c-0.2-2.2-0.6-4.2-1.1-5.9c-0.6-1.7-1.4-3.1-2.5-4.1C340.6,681.3,339.1,680.8,337.3,680.8z"/>
	<path d="M396.9,699.2v-34.9h-8.3v-2.5h8.3c0-3,0.1-6,0.2-8.9s0.6-5.6,1.3-8c0.7-2.4,1.8-4.3,3.2-5.7c1.5-1.4,3.5-2.2,6.2-2.2v2.6
		c-2.1,0-3.6,0.7-4.8,2c-1.1,1.3-1.9,2.9-2.5,5c-0.5,2.1-0.9,4.4-1,7c-0.1,2.6-0.1,5.4-0.1,8.1h8.3v2.5h-8.3v34.9
		c0,3.7,0.1,7,0.3,10c0.2,3,0.6,5.5,1.1,7.6c0.6,2.1,1.4,3.7,2.5,4.8c1.1,1.1,2.6,1.7,4.4,1.7v2.6c-1.4,0-2.6-0.2-3.7-0.6
		c-1-0.4-2-1-2.7-1.7c-0.8-0.8-1.4-1.7-1.9-2.7c-0.5-1.1-0.9-2.3-1.3-3.6c-0.6,2.6-1.7,4.7-3.2,6.3c-1.5,1.6-3.6,2.4-6.4,2.4v-2.6
		c2.2,0,3.9-0.8,5-2.2c1.1-1.4,2-3.2,2.5-5.5c0.5-2.3,0.8-4.8,0.8-7.7C396.8,705,396.9,702.1,396.9,699.2z"/>
	<path d="M451.4,731.5c0.5,2.6,1.3,4.7,2.4,6.4c1.1,1.6,2.9,2.5,5.3,2.5c1.9,0,3.4-0.6,4.5-1.7c1.1-1.1,1.9-2.6,2.5-4.4
		c0.6-1.8,0.9-3.9,1.1-6.3c0.2-2.4,0.2-4.8,0.2-7.4c-0.8,1.6-1.9,2.9-3.2,3.9c-1.3,1-3.1,1.4-5.2,1.4c-2.6,0-4.6-0.6-6.1-1.9
		c-1.4-1.3-2.5-3.1-3.2-5.3c-0.5,2.2-1.3,4-2.5,5.3c-1.1,1.3-2.8,2-4.9,2v-2.5c1.6,0,2.8-0.6,3.6-1.9c0.8-1.3,1.4-3,1.7-5.1
		c0.3-2.1,0.5-4.5,0.5-7.3c0-2.7,0-5.5,0-8.3c0-2.8,0.1-5.6,0.3-8.3c0.2-2.7,0.7-5.1,1.4-7.2c0.8-2.1,1.8-3.8,3.3-5.1
		c1.4-1.3,3.4-1.9,5.8-1.9c2.6,0,4.6,0.7,6,2.1c1.5,1.4,2.5,3.2,3.2,5.4c0.7,2.3,1.2,4.8,1.4,7.7c0.2,2.9,0.3,5.7,0.3,8.7
		c0,2.6-0.1,5-0.2,7.4c0.2,1.6,0.2,3.2,0.2,4.9c-0.1,1.7,0,3.2,0.2,4.6c0.2,1.4,0.7,2.5,1.5,3.4c0.8,0.9,2.1,1.3,4,1.3v2.5
		c-1.3,0-2.5-0.1-3.4-0.4c-0.9-0.3-1.7-0.7-2.4-1.2c-0.1,2.5-0.3,4.8-0.6,7.1c-0.3,2.3-0.9,4.2-1.7,6s-1.9,3.1-3.2,4.1
		c-1.4,1-3.1,1.5-5.3,1.5c-1.7,0-3.1-0.3-4.3-0.9c-1.2-0.6-2.2-1.4-3-2.4c-0.8-1-1.4-2.2-1.9-3.7c-0.5-1.4-0.8-2.9-1.1-4.6H451.4z
		 M450.6,702c0,2.7,0.1,5.3,0.2,7.9c0.1,2.6,0.4,4.8,1,6.8c0.5,2,1.4,3.6,2.5,4.8c1.1,1.2,2.7,1.8,4.7,1.9c2,0,3.6-0.7,4.7-1.9
		c1.1-1.2,1.9-2.8,2.5-4.8s0.9-4.3,1-6.8c0.1-2.6,0.2-5.2,0.2-7.9c0-2.7-0.1-5.3-0.2-7.8c-0.1-2.5-0.5-4.8-1-6.7s-1.4-3.5-2.5-4.8
		c-1.1-1.2-2.7-1.8-4.6-1.9c-2,0-3.6,0.7-4.7,1.9c-1.1,1.2-1.9,2.8-2.5,4.8c-0.5,2-0.9,4.2-1,6.7C450.7,696.7,450.6,699.3,450.6,702
		z"/>
	<path d="M515.9,637h2.5v46.5c0.8-1.6,1.8-2.9,3.2-3.9s3.1-1.4,5.2-1.4c2.5,0,4.4,0.7,5.8,1.9c1.4,1.3,2.5,3,3.3,5.1
		c0.8,2.1,1.2,4.5,1.4,7.2c0.2,2.7,0.3,5.5,0.3,8.3c0,2.8,0,5.6,0,8.3c0,2.7,0.2,5.2,0.5,7.3c0.3,2.1,0.9,3.8,1.7,5.1s2,1.9,3.6,1.9
		v2.5c-2.1,0-3.7-0.6-4.8-1.9c-1.1-1.3-1.9-3-2.5-5.1c-0.5-2.1-0.8-4.5-0.9-7.2c-0.1-2.7-0.1-5.4-0.1-8.3c0-2.8,0-5.6-0.1-8.3
		c-0.1-2.7-0.4-5.1-0.9-7.2c-0.5-2.1-1.3-3.9-2.5-5.2c-1.1-1.3-2.7-2-4.8-2c-2.1,0-3.7,0.7-4.8,2c-1.1,1.3-1.9,3-2.5,5.2
		c-0.5,2.1-0.8,4.6-0.9,7.2c-0.1,2.7-0.1,5.4-0.1,8.3c0,2.8,0,5.6-0.1,8.3c-0.1,2.7-0.4,5.1-0.9,7.2c-0.5,2.1-1.3,3.8-2.5,5.1
		c-1.1,1.3-2.7,1.9-4.8,1.9v-2.5c1.4,0,2.4-0.5,3.2-1.5c0.8-1,1.4-2.3,1.7-3.9c0.4-1.6,0.6-3.6,0.7-5.7s0.1-4.5,0.1-6.9V637z"/>
	<path d="M586.5,699.2v-21.1h2.5v21.1c0,3.7,0.1,7,0.3,10c0.2,3,0.6,5.5,1.1,7.6c0.6,2.1,1.4,3.7,2.5,4.8c1.1,1.1,2.6,1.7,4.4,1.7
		v2.6c-1.4,0-2.6-0.2-3.7-0.6c-1-0.4-2-1-2.7-1.7c-0.8-0.8-1.4-1.7-1.9-2.7c-0.5-1.1-0.9-2.3-1.3-3.6c-0.6,2.6-1.7,4.7-3.2,6.3
		c-1.5,1.6-3.6,2.4-6.4,2.4v-2.6c2.2,0,3.9-0.8,5-2.2s2-3.2,2.5-5.5s0.8-4.8,0.8-7.7C586.5,705,586.5,702.1,586.5,699.2z
		 M585.9,668.5c0-0.5,0.2-0.9,0.6-1.3c0.4-0.4,0.8-0.6,1.3-0.6s0.9,0.2,1.3,0.6c0.4,0.4,0.6,0.8,0.6,1.3c0,0.5-0.2,0.9-0.6,1.3
		c-0.4,0.4-0.8,0.6-1.3,0.6s-0.9-0.2-1.3-0.6C586.1,669.4,585.9,669,585.9,668.5z"/>
	<path d="M640.3,699.2v-21.1h2.5v21.1c0,3.7,0.1,7,0.3,10c0.2,3,0.6,5.5,1.1,7.6c0.6,2.1,1.4,3.7,2.5,4.8c1.1,1.1,2.6,1.7,4.4,1.7
		v2.6c-2.1,0-3.9-0.4-5.2-1.3c-1.3-0.9-2.4-2.2-3.1-3.8c0,2.8-0.2,5.5-0.4,8.2c-0.2,2.7-0.7,5-1.4,7.1c-0.8,2.1-1.8,3.7-3.2,5
		c-1.4,1.3-3.4,1.9-5.8,1.9v-2.6c1.9,0,3.4-0.6,4.5-1.7c1.1-1.1,1.9-2.5,2.5-4.3c0.6-1.8,0.9-3.9,1.1-6.2c0.2-2.3,0.2-4.8,0.2-7.4
		c-0.8,1.6-1.8,2.9-3.2,3.8c-1.3,1-3.1,1.4-5.2,1.4v-2.6c2.2,0,3.9-0.8,5-2.2s2-3.2,2.5-5.5s0.8-4.8,0.8-7.7
		C640.2,705,640.3,702.1,640.3,699.2z M639.6,668.5c0-0.5,0.2-0.9,0.6-1.3c0.4-0.4,0.8-0.6,1.3-0.6s0.9,0.2,1.3,0.6
		c0.4,0.4,0.6,0.8,0.6,1.3c0,0.5-0.2,0.9-0.6,1.3c-0.4,0.4-0.8,0.6-1.3,0.6s-0.9-0.2-1.3-0.6C639.8,669.4,639.6,669,639.6,668.5z"/>
	<path d="M694.2,712.8c0,1.9,0,3.6-0.1,5.2c-0.1,1.6-0.4,3-0.9,4.1c-0.5,1.2-1.4,2.1-2.5,2.7s-2.8,1-4.9,1v-2.5
		c1.5,0,2.6-0.3,3.4-0.8c0.8-0.5,1.4-1.3,1.7-2.4c0.4-1.1,0.6-2.5,0.7-4.2c0.1-1.7,0.1-3.7,0.1-6.1v-55.7h2.5V712.8z M694.2,700.7
		c2.1,0,3.7-0.7,4.8-2c1.1-1.3,1.9-3,2.5-5.1c0.5-2.1,0.8-4.5,0.9-7.2c0.1-2.7,0.1-5.4,0.1-8.2l2.6-0.1c0,3.1-0.1,6.1-0.2,9.1
		c-0.1,3-0.6,5.7-1.3,8.1c-0.7,2.4-1.8,4.3-3.3,5.8c-1.5,1.5-3.5,2.2-6.2,2.2V700.7z M694.2,700.7c2.4,0,4.3,0.3,5.7,1
		c1.4,0.7,2.5,1.5,3.3,2.6c0.8,1,1.3,2.3,1.6,3.6c0.3,1.4,0.5,2.8,0.5,4.2c0.1,1.4,0.2,2.8,0.2,4.2c0,1.4,0.2,2.6,0.5,3.6
		c0.3,1,0.8,1.9,1.6,2.6c0.7,0.7,1.8,1,3.3,1v2.5c-2.1,0-3.6-0.3-4.8-1s-1.9-1.5-2.4-2.5c-0.5-1-0.8-2.2-0.9-3.6
		c-0.1-1.3-0.1-2.7-0.2-4.1c0-1.4-0.1-2.8-0.2-4.1c-0.1-1.3-0.4-2.6-0.9-3.6c-0.5-1.1-1.4-1.9-2.5-2.6c-1.1-0.7-2.8-1-4.9-1.1V700.7
		z"/>
	<path d="M753.7,699.2V637h2.5v62.2c0,3.7,0.1,7,0.3,10c0.2,3,0.6,5.5,1.1,7.6c0.6,2.1,1.4,3.7,2.5,4.8c1.1,1.1,2.6,1.7,4.4,1.7v2.6
		c-1.4,0-2.6-0.2-3.7-0.6c-1-0.4-2-1-2.7-1.7c-0.8-0.8-1.4-1.7-1.9-2.7c-0.5-1.1-0.9-2.3-1.3-3.6c-0.6,2.6-1.7,4.7-3.2,6.3
		c-1.5,1.6-3.6,2.4-6.4,2.4v-2.6c2.2,0,3.9-0.8,5-2.2s2-3.2,2.5-5.5s0.8-4.8,0.8-7.7C753.7,705,753.7,702.1,753.7,699.2z"/>
</g>
<g>
	<path d="M74.3,799.6c0-2.7-0.1-5.3-0.2-7.9c-0.1-2.6-0.4-4.8-1-6.8c-0.5-2-1.4-3.5-2.5-4.8c-1.1-1.2-2.7-1.8-4.7-1.9
		c-2.1,0-3.7,0.7-4.8,2c-1.1,1.3-1.9,3-2.5,5.2c-0.5,2.1-0.8,4.6-0.9,7.2c-0.1,2.7-0.1,5.4-0.1,8.3c0,2.8,0,5.6-0.1,8.3
		c-0.1,2.7-0.4,5.1-0.9,7.2c-0.5,2.1-1.3,3.8-2.5,5.1c-1.1,1.3-2.7,1.9-4.8,1.9v-2.5c1.6,0,2.8-0.6,3.6-1.9c0.8-1.3,1.4-3,1.7-5.1
		c0.3-2.1,0.5-4.5,0.5-7.3c0-2.7,0-5.5,0-8.3c0-2.8,0.1-5.6,0.3-8.3c0.2-2.7,0.7-5.1,1.4-7.2s1.8-3.8,3.3-5.1
		c1.4-1.3,3.4-1.9,5.8-1.9c2.6,0,4.6,0.7,6,2.1c1.5,1.4,2.6,3.2,3.3,5.4c0.7,2.3,1.2,4.8,1.4,7.7c0.2,2.9,0.3,5.8,0.3,8.7H74.3z
		 M93.6,799.6c0-2.7-0.1-5.3-0.2-7.9c-0.1-2.6-0.4-4.8-1-6.8c-0.5-2-1.4-3.6-2.5-4.8c-1.1-1.2-2.7-1.8-4.7-1.9c-2,0-3.6,0.7-4.7,1.9
		c-1.1,1.2-1.9,2.8-2.5,4.8c-0.5,2-0.9,4.3-1,6.8c-0.1,2.6-0.2,5.2-0.2,7.9h-2.6c0-2,0-3.9,0.1-5.8s0.2-3.8,0.4-5.6
		c0.2-1.8,0.6-3.4,1.1-5c0.5-1.5,1.1-2.8,1.9-4c0.8-1.1,1.8-2,3-2.6c1.2-0.6,2.6-1,4.4-1c2.6,0,4.6,0.7,6.1,2.1
		c1.5,1.4,2.5,3.2,3.2,5.4c0.7,2.2,1.1,4.8,1.3,7.7c0.2,2.9,0.2,5.8,0.2,8.8H93.6z M74.3,799.6h2.6v23.9h-2.6V799.6z M96.1,799.6
		c0,2.7,0,5.4,0,8c0,2.6,0.2,4.9,0.5,6.9c0.3,2,0.9,3.6,1.7,4.8c0.8,1.2,2,1.8,3.5,1.8v2.5c-2.2,0-3.9-0.7-5-2.1
		c-1.1-1.4-2-3.2-2.5-5.5c-0.5-2.3-0.8-4.8-0.8-7.7c0-2.9-0.1-5.8-0.1-8.7H96.1z"/>
	<path d="M153.5,823.6c-2.1,0-3.7-0.6-4.8-1.9c-1.1-1.3-1.9-3-2.5-5.1c-0.5-2.1-0.8-4.5-0.9-7.2c-0.1-2.7-0.1-5.4-0.1-8.3
		c0-2.8,0-5.6-0.1-8.3c-0.1-2.7-0.4-5.1-0.9-7.2c-0.5-2.1-1.3-3.9-2.5-5.2c-1.1-1.3-2.7-2-4.8-2c-2.1,0-3.7,0.7-4.8,2
		c-1.1,1.3-1.9,3-2.5,5.2c-0.5,2.1-0.8,4.6-0.9,7.2c-0.1,2.7-0.1,5.4-0.1,8.3c0,2.8,0,5.6-0.1,8.3c-0.1,2.7-0.4,5.1-0.9,7.2
		c-0.5,2.1-1.3,3.8-2.5,5.1c-1.1,1.3-2.7,1.9-4.8,1.9v-2.5c1.6,0,2.8-0.6,3.6-1.9c0.8-1.3,1.4-3,1.7-5.1c0.3-2.1,0.5-4.5,0.5-7.3
		c0-2.7,0-5.5,0-8.3c0-2.8,0.1-5.6,0.3-8.3c0.2-2.7,0.7-5.1,1.4-7.2s1.8-3.8,3.3-5.1c1.4-1.3,3.4-1.9,5.8-1.9s4.4,0.7,5.8,1.9
		c1.4,1.3,2.5,3,3.3,5.1c0.8,2.1,1.2,4.5,1.4,7.2c0.2,2.7,0.3,5.5,0.3,8.3c0,2.8,0,5.6,0,8.3c0,2.7,0.2,5.2,0.5,7.3
		c0.3,2.1,0.9,3.8,1.7,5.1c0.8,1.3,2,1.9,3.6,1.9V823.6z"/>
	<path d="M205.2,823.6c-2.2,0-3.8-0.7-5-2c-1.1-1.3-1.9-3.1-2.4-5.4c-0.7,2.2-1.8,4-3.2,5.4c-1.4,1.3-3.5,2-6.1,1.9
		c-2.6,0-4.6-0.6-6-2c-1.5-1.4-2.6-3.2-3.3-5.5c-0.5,2.3-1.3,4.1-2.4,5.5c-1.1,1.4-2.8,2.1-5,2.1v-2.5c1.6,0,2.8-0.6,3.6-1.9
		c0.8-1.3,1.4-3,1.7-5.1c0.3-2.1,0.5-4.5,0.5-7.3c0-2.7,0-5.5,0-8.3c0-2.8,0.1-5.6,0.3-8.3c0.2-2.7,0.7-5.1,1.4-7.2s1.8-3.8,3.3-5.1
		c1.4-1.3,3.4-1.9,5.8-1.9c2.3,0,4.2,0.6,5.5,1.7c1.4,1.1,2.4,2.6,3.2,4.5c1-0.3,2-1,2.9-2.1c0.9-1.1,1.6-2.5,2.3-4.1h2.9
		c-0.9,2.3-1.9,4.3-3.1,5.8c-1.2,1.5-2.5,2.5-4,3c0.5,2.2,0.9,4.6,1.1,7.3c0.2,2.7,0.2,5.4,0.2,8.1c0,2.7,0,5.3,0,7.9
		c0,2.6,0.2,4.8,0.5,6.8c0.3,2,0.9,3.6,1.7,4.8c0.8,1.2,2,1.8,3.5,1.8V823.6z M188.6,820.9c1.7,0,3.1-0.4,4.1-1.3
		c1-0.9,1.9-2,2.5-3.5c0.6-1.5,1-3.2,1.3-5.1c0.2-1.9,0.4-4,0.5-6.2c0-3.1-0.1-6.2-0.1-9.3c0-3.1-0.2-5.9-0.7-8.5
		c-0.5-2.5-1.3-4.6-2.4-6.2c-1.1-1.6-2.9-2.4-5.2-2.5c-2.3,0-4.1,0.9-5.2,2.5s-2,3.7-2.4,6.2c-0.5,2.5-0.7,5.4-0.7,8.5
		c0,3.1,0,6.2,0,9.3c0,2.2,0.2,4.3,0.4,6.2c0.3,1.9,0.7,3.6,1.3,5.1c0.6,1.5,1.4,2.6,2.5,3.5C185.5,820.5,186.9,820.9,188.6,820.9z"
		/>
	<path d="M229.3,822c-0.6,0.5-1.4,0.9-2.4,1.2c-0.9,0.3-2.1,0.4-3.4,0.4v-2.5c1.2,0,2.2-0.2,3-0.6c0.8-0.4,1.3-1,1.7-1.6
		c0.4-0.7,0.7-1.5,0.8-2.4s0.2-1.9,0.2-3v-11.2v-2.7c0-2.9,0.1-5.8,0.3-8.7c0.2-2.8,0.7-5.4,1.4-7.7c0.7-2.3,1.8-4.1,3.2-5.4
		c1.5-1.4,3.5-2.1,6-2.1c2.5,0,4.4,0.7,5.8,1.9c1.4,1.3,2.5,3,3.3,5.1c0.8,2.1,1.2,4.5,1.4,7.2c0.2,2.7,0.3,5.5,0.3,8.3
		c0,2.8,0,5.6,0,8.3c0,2.7,0.2,5.2,0.5,7.3c0.3,2.1,0.9,3.8,1.7,5.1c0.8,1.3,2,1.9,3.6,1.9v2.5c-2.2,0-3.8-0.7-5-2
		c-1.1-1.3-1.9-3.1-2.4-5.4c-0.7,2.2-1.8,4-3.2,5.4c-1.4,1.3-3.5,2-6.1,1.9c-2.1,0-3.8-0.4-5.2-1.3c-1.3-0.9-2.4-2.2-3.2-3.8v22.3
		h-2.6V822z M248.6,799.6c0-2.7-0.1-5.3-0.2-7.8c-0.1-2.5-0.5-4.8-1-6.7c-0.5-2-1.4-3.5-2.5-4.8c-1.1-1.2-2.7-1.8-4.6-1.9
		c-2,0-3.6,0.7-4.7,1.9c-1.1,1.2-1.9,2.8-2.5,4.8c-0.5,2-0.9,4.2-1,6.7c-0.1,2.5-0.2,5.1-0.2,7.8c0,2.7,0.1,5.3,0.2,7.9
		c0.1,2.6,0.4,4.8,1,6.8c0.5,2,1.4,3.6,2.5,4.8c1.1,1.2,2.7,1.8,4.7,1.9c2,0,3.6-0.7,4.7-1.9c1.1-1.2,1.9-2.8,2.5-4.8
		c0.5-2,0.9-4.3,1-6.8C248.5,804.9,248.6,802.2,248.6,799.6z"/>
	<path d="M302.8,840.7h-2.5v-22.5c-0.8,1.6-1.9,2.9-3.2,3.9c-1.3,1-3.1,1.4-5.2,1.4c-2.6,0-4.6-0.6-6.1-1.9
		c-1.4-1.3-2.5-3.1-3.2-5.3c-0.5,2.2-1.3,4-2.5,5.3c-1.1,1.3-2.8,2-4.9,2v-2.5c1.6,0,2.8-0.6,3.6-1.9c0.8-1.3,1.4-3,1.7-5.1
		c0.3-2.1,0.5-4.5,0.5-7.3c0-2.7,0-5.5,0-8.3c0-2.8,0.1-5.6,0.3-8.3c0.2-2.7,0.7-5.1,1.4-7.2s1.8-3.8,3.3-5.1
		c1.4-1.3,3.4-1.9,5.8-1.9c2.6,0,4.6,0.7,6,2.1c1.5,1.4,2.5,3.2,3.2,5.4c0.7,2.3,1.2,4.8,1.4,7.7c0.2,2.9,0.3,5.7,0.3,8.7v0.1v13.7
		c0,1,0.1,2,0.2,3s0.4,1.7,0.8,2.4s1,1.2,1.7,1.6c0.8,0.4,1.7,0.6,3,0.6v2.5c-1.3,0-2.5-0.1-3.4-0.4c-0.9-0.3-1.7-0.7-2.4-1.2V840.7
		z M300.2,799.6c0-2.7-0.1-5.3-0.2-7.8c-0.1-2.5-0.5-4.8-1-6.7c-0.5-2-1.4-3.5-2.5-4.8c-1.1-1.2-2.7-1.8-4.6-1.9
		c-2.1,0-3.8,0.8-4.9,2.2c-1.1,1.4-2,3.2-2.5,5.4c-0.5,2.2-0.8,4.7-0.9,7.6c-0.1,2.8-0.1,5.7-0.1,8.5c0,2.5,0.1,4.8,0.3,7.1
		c0.2,2.3,0.6,4.3,1.2,6c0.6,1.7,1.4,3.1,2.5,4.2c1.1,1,2.5,1.6,4.4,1.6c2,0,3.6-0.7,4.7-1.9c1.1-1.2,1.9-2.8,2.5-4.8
		c0.5-2,0.9-4.3,1-6.8C300.1,804.9,300.2,802.2,300.2,799.6z"/>
	<path d="M335,796.8v-21.1h2.5v5.3c0.8-1.6,1.8-2.9,3.2-3.8c1.3-0.9,3.1-1.4,5.2-1.4v2.6c-1.7,0-3.1,0.5-4.2,1.5
		c-1.1,0.9-1.9,2.2-2.5,3.7c-0.6,1.6-1,3.4-1.2,5.4c-0.2,2.1-0.3,4.3-0.4,6.5v1.3c0,3.7,0.1,7,0.3,10c0.2,3,0.6,5.5,1.1,7.6
		c0.6,2.1,1.4,3.7,2.5,4.8c1.1,1.1,2.6,1.7,4.4,1.7v2.6c-1.4,0-2.6-0.2-3.7-0.6c-1-0.4-2-1-2.7-1.7c-0.8-0.8-1.4-1.7-1.9-2.7
		c-0.5-1.1-0.9-2.3-1.3-3.6c-0.6,2.6-1.7,4.7-3.2,6.3c-1.5,1.6-3.6,2.4-6.4,2.4v-2.6c2.2,0,3.9-0.8,5-2.2c1.1-1.4,2-3.2,2.5-5.5
		c0.5-2.3,0.8-4.8,0.8-7.7C335,802.6,335,799.7,335,796.8z"/>
	<path d="M374.5,787.9c0,1.4,0.2,2.7,0.5,4c0.4,1.3,0.9,2.3,1.5,3.3c0.7,0.9,1.5,1.7,2.4,2.3c1,0.6,2.1,0.9,3.3,0.9
		c1.7,0,3.2,0.4,4.5,1.1c1.3,0.7,2.4,1.7,3.2,2.8c0.9,1.2,1.5,2.6,1.9,4.2c0.4,1.6,0.6,3.3,0.6,5.1c1,2.9,2.1,5.2,3.4,6.9
		c1.3,1.7,2.8,2.6,4.5,2.6v2.7c-1.8-0.1-3.4-0.8-4.8-2.1c-1.4-1.3-2.6-3.1-3.7-5.3c-0.6,2.2-1.8,4-3.4,5.4c-1.6,1.3-3.7,2-6.3,2
		c-2.7,0-4.8-0.7-6.2-2.1c-1.5-1.4-2.5-3.3-3.2-5.7c-1.1,2.3-2.3,4.2-3.8,5.6c-1.4,1.4-3.1,2.1-4.9,2.2v-2.7c1.7,0,3.2-0.9,4.4-2.6
		c1.3-1.7,2.4-4,3.4-6.9h2.6c0.2,1.4,0.5,2.6,0.9,3.8c0.4,1.2,0.9,2.2,1.5,3c0.6,0.9,1.4,1.5,2.2,2c0.9,0.5,1.9,0.7,3.1,0.7
		c2.5,0,4.4-1,5.7-2.7c1.4-1.8,2.1-4.1,2.1-6.8c0-1.4-0.2-2.7-0.5-4c-0.4-1.3-0.9-2.4-1.5-3.3c-0.7-1-1.5-1.7-2.4-2.3
		c-1-0.6-2.1-0.9-3.3-0.9c-1.7,0-3.2-0.3-4.5-1c-1.3-0.7-2.3-1.6-3.2-2.8c-0.9-1.2-1.5-2.6-1.9-4.1c-0.4-1.6-0.6-3.2-0.6-5
		c0-1.7,0.2-3.3,0.7-4.8c0.5-1.5,1.1-2.8,2-3.9c0.9-1.1,1.9-1.9,3.2-2.6c1.3-0.6,2.8-0.9,4.4-0.9c1.7,0,3.1,0.3,4.3,0.9
		c1.2,0.6,2.2,1.5,3,2.5c0.8,1.1,1.4,2.3,1.9,3.8c0.5,1.5,0.8,3.1,1.1,4.9H390c-0.2-1.4-0.5-2.6-0.9-3.8c-0.4-1.2-0.9-2.2-1.5-3
		c-0.6-0.9-1.4-1.5-2.2-2c-0.9-0.5-1.9-0.7-3.1-0.7c-2.5,0-4.4,1-5.7,2.7S374.5,785.1,374.5,787.9z"/>
	<path d="M429.6,748.2v48.6c0,3.7,0.1,7,0.3,10c0.2,3,0.6,5.5,1.1,7.6c0.6,2.1,1.4,3.7,2.5,4.8c1.1,1.1,2.6,1.7,4.5,1.7v2.6
		c-1.4,0-2.7-0.2-3.7-0.6s-2-1-2.8-1.7s-1.4-1.7-2-2.7c-0.5-1.1-1-2.3-1.3-3.6c-0.6,2.6-1.7,4.7-3.2,6.3c-1.5,1.6-3.6,2.4-6.4,2.4
		v-2.6c2.2,0,3.9-0.8,5-2.2c1.1-1.4,2-3.2,2.5-5.5c0.5-2.3,0.8-4.8,0.8-7.7s0.1-5.8,0.1-8.7v-48.6H429.6z M437.9,761.9h-19.1v-2.5
		h19.1V761.9z"/>
	<path d="M464.6,795.3c0,2.1-0.1,4.3,0,6.6c0,2.2,0,4.4-0.1,6.5c-0.1,2.1-0.3,4.1-0.5,5.9c-0.3,1.8-0.7,3.4-1.3,4.8
		c-0.6,1.4-1.4,2.5-2.5,3.3c-1,0.8-2.4,1.2-4,1.2v-2.5c1.8,0,3.1-0.8,3.9-2.3c0.8-1.5,1.3-3.6,1.6-6s0.4-5.2,0.3-8.3
		c0-3.1,0-6.2,0.1-9.3L464.6,795.3z M464.5,775.7c0,3.3,0.1,6.7,0,10.2c0,3.5,0,6.9,0.1,10.3c0.1,3.4,0.2,6.5,0.4,9.5
		c0.2,3,0.6,5.6,1.2,7.8c0.6,2.3,1.4,4,2.5,5.4c1,1.3,2.4,2,4.1,2v2.7c-2.1,0-3.9-0.7-5.2-2.1c-1.3-1.4-2.4-3.3-3.2-5.7
		c-0.8-2.4-1.4-5.2-1.7-8.4c-0.4-3.2-0.6-6.6-0.7-10.2c-0.1-3.6-0.1-7.2-0.1-10.8c0-3.7,0-7.2,0-10.6L464.5,775.7z M483.9,775.6
		c0,3.4-0.1,6.9,0,10.6c0,3.7,0,7.3-0.1,10.8c-0.1,3.6-0.3,6.9-0.7,10.2c-0.3,3.2-0.9,6-1.7,8.4c-0.8,2.4-1.9,4.3-3.3,5.7
		c-1.4,1.4-3.1,2.1-5.2,2.1v-2.7c1.7,0,3.1-0.7,4.1-2.1s1.9-3.1,2.5-5.3c0.6-2.2,1-4.8,1.3-7.8c0.3-3,0.4-6.2,0.4-9.5
		c0-3.4,0.1-6.8,0-10.3c0-3.5,0-6.9,0.1-10.3L483.9,775.6z M483.8,795.2c0,2.1,0.1,4.1,0.1,6.2c0,2.1,0,4.1,0,6
		c0,1.9,0.1,3.7,0.3,5.4c0.2,1.7,0.4,3.1,0.9,4.3c0.4,1.2,1,2.2,1.7,2.9c0.7,0.7,1.7,1.1,2.9,1.1v2.5c-1.6,0-3-0.4-4-1.2
		c-1-0.8-1.8-1.9-2.5-3.3c-0.6-1.4-1-3-1.3-4.8c-0.3-1.8-0.4-3.8-0.5-5.9c-0.1-2.1-0.1-4.3-0.1-6.5c0-2.2,0-4.4,0-6.6L483.8,795.2z"
		/>
	<path d="M518.8,803c0,2.6-0.2,5.2-0.4,7.7c-0.3,2.5-0.8,4.7-1.5,6.6s-1.8,3.4-3.2,4.6c-1.4,1.1-3.3,1.7-5.7,1.7v-2.9
		c1.8,0,3.2-0.5,4.3-1.5c1.1-1,1.9-2.2,2.5-3.9c0.6-1.6,1-3.5,1.2-5.6s0.3-4.3,0.4-6.7H518.8z M518.8,775.6
		c0.2,4.5,0.3,9.2,0.2,13.9c-0.1,4.8-0.1,9.2,0,13.4l-2.8,0.1c-0.2-4.4-0.2-8.9-0.1-13.7c0.1-4.8,0.1-9.3-0.1-13.7H518.8z M519,803
		c0,2.6,0.3,4.7,0.8,6.3c0.5,1.6,1,3,1.6,4.2c0.6,1.2,1.2,2.2,1.8,3.1c0.6,0.9,1.1,1.8,1.5,2.8v4.2c-0.8-1.2-1.7-2.4-2.7-3.6
		c-1-1.2-1.8-2.6-2.7-4.1c-0.8-1.5-1.5-3.4-2.1-5.4c-0.6-2.1-1-4.5-1.1-7.4L519,803z M533.3,803c-0.1,2.9-0.5,5.3-1.1,7.4
		c-0.6,2.1-1.3,3.9-2.1,5.4c-0.8,1.6-1.7,2.9-2.7,4.1c-1,1.2-1.8,2.4-2.7,3.6v-4.2c0.4-1,0.9-1.9,1.5-2.8c0.6-0.9,1.2-1.9,1.8-3.1
		c0.6-1.2,1.1-2.6,1.6-4.2c0.4-1.6,0.7-3.7,0.8-6.3L533.3,803z M533.4,775.6c-0.2,4.4-0.2,8.9-0.1,13.7c0.1,4.8,0.1,9.3-0.1,13.7
		l-2.8-0.1c0.1-4.2,0.1-8.7,0-13.4c-0.1-4.8,0-9.4,0.2-13.9H533.4z M533.2,803c0,2.3,0.2,4.5,0.3,6.7c0.2,2.1,0.6,4,1.2,5.6
		c0.6,1.6,1.4,2.9,2.5,3.9s2.5,1.5,4.3,1.5v2.9c-2.4,0-4.3-0.6-5.7-1.7c-1.4-1.1-2.5-2.7-3.2-4.6c-0.8-1.9-1.3-4.1-1.5-6.6
		c-0.3-2.5-0.4-5-0.4-7.7H533.2z"/>
	<path d="M570.6,803c0,2.6-0.2,5.2-0.4,7.7c-0.3,2.5-0.8,4.7-1.5,6.6s-1.8,3.4-3.2,4.6c-1.4,1.1-3.3,1.7-5.7,1.7v-2.9
		c1.8,0,3.2-0.5,4.3-1.5c1.1-1,1.9-2.2,2.5-3.9c0.6-1.6,1-3.5,1.2-5.6s0.3-4.3,0.4-6.7H570.6z M570.6,775.6
		c0.2,4.5,0.3,9.2,0.2,13.9c-0.1,4.8-0.1,9.2,0,13.4L568,803c-0.2-4.4-0.2-8.9-0.1-13.7c0.1-4.8,0.1-9.3-0.1-13.7H570.6z M570.8,803
		c0,2.6,0.3,4.7,0.8,6.3c0.5,1.6,1,3,1.6,4.2c0.6,1.2,1.2,2.2,1.8,3.1c0.6,0.9,1.1,1.8,1.5,2.8v4.2c-0.8-1.2-1.7-2.4-2.7-3.6
		c-1-1.2-1.8-2.6-2.7-4.1c-0.8-1.5-1.5-3.4-2.1-5.4c-0.6-2.1-1-4.5-1.1-7.4L570.8,803z M585.1,803c-0.1,2.9-0.5,5.3-1.1,7.4
		c-0.6,2.1-1.3,3.9-2.1,5.4c-0.8,1.6-1.7,2.9-2.7,4.1c-1,1.2-1.8,2.4-2.7,3.6v-4.2c0.4-1,0.9-1.9,1.5-2.8c0.6-0.9,1.2-1.9,1.8-3.1
		c0.6-1.2,1.1-2.6,1.6-4.2c0.4-1.6,0.7-3.7,0.8-6.3L585.1,803z M583.3,805.6c0.2,2,0.5,3.7,1,5c0.5,1.3,1,2.5,1.5,3.5
		s1.1,1.9,1.7,2.7c0.6,0.8,1,1.7,1.4,2.6v4.2c-0.6-0.9-1.2-1.7-1.9-2.6c-0.7-0.8-1.3-1.8-2-2.7s-1.3-2-1.8-3.2
		c-0.6-1.1-1.1-2.4-1.5-3.9L583.3,805.6z M585.3,775.6c-0.2,4.4-0.2,8.9-0.1,13.7c0.1,4.8,0.1,9.3-0.1,13.7l-2.8-0.1
		c0.1-4.2,0.1-8.7,0-13.4c-0.1-4.8,0-9.4,0.2-13.9H585.3z M597.5,803c-0.1,2.9-0.5,5.3-1.1,7.4c-0.6,2.1-1.3,3.9-2.1,5.4
		c-0.8,1.6-1.7,2.9-2.7,4.1c-1,1.2-1.8,2.4-2.7,3.6v-4.2c0.4-1,0.9-1.9,1.5-2.8c0.6-0.9,1.2-1.9,1.8-3.1c0.6-1.2,1.1-2.6,1.6-4.2
		c0.4-1.6,0.7-3.7,0.8-6.3L597.5,803z M597.6,775.6c-0.2,4.4-0.2,8.9-0.1,13.7c0.1,4.8,0.1,9.3-0.1,13.7l-2.8-0.1
		c0.1-4.2,0.1-8.7,0-13.4c-0.1-4.8,0-9.4,0.2-13.9H597.6z M597.4,803c0,2.3,0.2,4.5,0.3,6.7c0.2,2.1,0.6,4,1.2,5.6
		c0.6,1.6,1.4,2.9,2.5,3.9c1.1,1,2.5,1.5,4.3,1.5v2.9c-2.4,0-4.3-0.6-5.7-1.7c-1.4-1.1-2.5-2.7-3.2-4.6c-0.8-1.9-1.3-4.1-1.5-6.6
		c-0.3-2.5-0.4-5-0.4-7.7H597.4z"/>
	<path d="M640.6,800.9c-2.1,0-3.7,0.4-4.9,1.1c-1.1,0.7-2,1.5-2.5,2.6c-0.5,1.1-0.8,2.3-0.9,3.6c-0.1,1.3-0.1,2.7-0.2,4.1
		c0,1.4-0.1,2.8-0.2,4.1c-0.1,1.3-0.4,2.5-0.9,3.6c-0.5,1-1.3,1.9-2.4,2.5s-2.7,1-4.8,1v-2.5c1.5,0,2.6-0.3,3.3-1
		c0.7-0.7,1.3-1.5,1.6-2.6c0.3-1,0.5-2.3,0.5-3.6c0-1.4,0.1-2.8,0.2-4.2c0.1-1.4,0.3-2.8,0.5-4.2c0.3-1.4,0.8-2.6,1.6-3.6
		c0.8-1,1.9-1.9,3.3-2.6c1.4-0.7,3.3-1,5.7-1V800.9z M632.3,775.6c0,2.8,0,5.6,0.1,8.3c0.1,2.7,0.4,5.1,0.9,7.2
		c0.5,2.1,1.3,3.8,2.5,5.1c1.1,1.3,2.7,2,4.8,2c2.1,0,3.7-0.7,4.8-2c1.1-1.3,1.9-3,2.5-5.1c0.5-2.1,0.8-4.5,0.9-7.2
		c0.1-2.7,0.1-5.4,0.1-8.2l2.6-0.1c0,3.1-0.1,6.1-0.2,9.1c-0.1,3-0.6,5.7-1.3,8.1c-0.7,2.4-1.8,4.3-3.3,5.8s-3.5,2.2-6.2,2.2
		c-2.6,0-4.7-0.7-6.2-2.2c-1.5-1.5-2.6-3.4-3.3-5.8s-1.1-5.1-1.3-8.1c-0.1-3-0.2-6.1-0.2-9.1H632.3z M640.6,798.3
		c2.4,0,4.3,0.3,5.7,1c1.4,0.7,2.5,1.5,3.3,2.6c0.8,1,1.3,2.3,1.6,3.6c0.3,1.4,0.5,2.8,0.5,4.2c0.1,1.4,0.2,2.8,0.2,4.2
		c0,1.4,0.2,2.6,0.5,3.6c0.3,1,0.8,1.9,1.6,2.6c0.7,0.7,1.8,1,3.3,1v2.5c-2.1,0-3.6-0.3-4.8-1c-1.1-0.6-1.9-1.5-2.4-2.5
		c-0.5-1-0.8-2.2-0.9-3.6c-0.1-1.3-0.1-2.7-0.2-4.1c0-1.4-0.1-2.8-0.2-4.1c-0.1-1.3-0.4-2.6-0.9-3.6c-0.5-1.1-1.4-1.9-2.5-2.6
		c-1.1-0.7-2.8-1-4.9-1.1V798.3z"/>
	<path d="M681.3,799.6v-23.9h2.6v23.9c0,2.7,0.1,5.3,0.2,7.9c0.1,2.6,0.4,4.8,1,6.8c0.5,2,1.4,3.6,2.5,4.8c1.1,1.2,2.7,1.8,4.7,1.9
		c2,0,3.6-0.7,4.7-1.9c1.1-1.2,1.9-2.8,2.5-4.8s0.9-4.3,1-6.8c0.1-2.6,0.2-5.2,0.2-7.9v-23.9h2.6v23.9c0,3.4,0,6.4-0.1,9.1
		c-0.1,2.7,0,4.9,0.2,6.8c0.3,1.8,0.8,3.3,1.6,4.2c0.8,1,2.2,1.5,4,1.5v2.5c-1.3,0-2.5-0.1-3.4-0.4c-0.9-0.3-1.7-0.7-2.4-1.2
		c-0.1,2.5-0.3,4.8-0.6,7.1c-0.3,2.3-0.9,4.2-1.7,6s-1.9,3.1-3.2,4.1c-1.4,1-3.1,1.5-5.3,1.5c-1.7,0-3.1-0.3-4.3-0.9
		c-1.2-0.6-2.2-1.4-3-2.4c-0.8-1-1.4-2.2-1.9-3.7c-0.5-1.4-0.8-2.9-1.1-4.6h2.6c0.5,2.6,1.3,4.7,2.4,6.4c1.1,1.6,2.9,2.5,5.3,2.5
		c1.9,0,3.4-0.6,4.5-1.7c1.1-1.1,1.9-2.6,2.5-4.4c0.6-1.8,0.9-3.9,1.1-6.3c0.2-2.4,0.2-4.8,0.2-7.4c-0.8,1.6-1.9,2.9-3.2,3.9
		c-1.3,1-3.1,1.4-5.2,1.4c-2.6,0-4.6-0.6-6.1-1.9c-1.4-1.3-2.5-3.1-3.2-5.3c-0.5,2.2-1.3,4-2.5,5.3c-1.1,1.3-2.8,2-4.9,2v-2.5
		c1.5,0,2.7-0.6,3.5-1.8c0.8-1.2,1.4-2.8,1.7-4.9c0.3-2,0.5-4.3,0.5-6.9C681.3,804.9,681.3,802.3,681.3,799.6z"/>
	<path d="M758.9,780.3c-1.8,2.2-3.4,4.5-5,7.1c-1.6,2.5-3.1,5.1-4.5,7.7c-1.5,2.6-3,5.3-4.5,7.9c-1.5,2.6-3.2,5.2-4.9,7.7
		c-1.8,2.5-3.7,4.8-5.7,7c-2.1,2.2-4.4,4.1-7.1,5.8v-2.7c2.8-1.9,5.4-4.4,7.8-7.6c2.4-3.1,4.7-6.6,6.9-10.3
		c2.2-3.7,4.4-7.5,6.7-11.4c2.2-3.9,4.6-7.6,7.1-11.1H758.9z M759.9,775.7c0.1,1.6-0.1,3.1-0.8,4.3c-0.7,1.3-1.7,2.3-2.9,3.2
		c-1.3,0.9-2.7,1.6-4.3,2.1c-1.6,0.5-3.4,0.8-5.1,0.9c-1.8,0.2-3.7,0.1-5.7-0.3c-2-0.4-3.8-1-5.5-1.8c-1.7-0.9-3-2-4-3.4
		c-1-1.4-1.4-3.1-1.1-5h2.7c0,1.5,0.3,2.7,0.9,3.7s1.5,1.9,2.5,2.5c1.1,0.6,2.3,1.1,3.8,1.4c1.5,0.3,3.1,0.5,4.8,0.5
		c1.7,0,3.3-0.2,4.8-0.5c1.5-0.3,2.7-0.8,3.8-1.4c1.1-0.6,1.9-1.5,2.6-2.5s0.9-2.3,1-3.7H759.9z M737.2,812.1h0.3
		c1,2.6,2.1,4.7,3.2,6.3c1.1,1.6,2.5,2.4,4.1,2.4h0.1v2.7H745c-2,0-3.8-0.8-5.3-2.5c-1.5-1.6-2.9-3.8-4-6.6L737.2,812.1z M745,820.8
		L745,820.8c1.7,0,3.1-0.8,4.2-2.4c1.1-1.6,2.2-3.7,3.2-6.3h2.9c-1.3,3.4-2.8,6.1-4.4,8.2c-1.6,2.1-3.6,3.1-5.8,3.1H745V820.8z
		 M762.9,823.5L762.9,823.5c-1.2,0-2.3-0.3-3.2-0.8c-1-0.5-1.9-1.3-2.7-2.3s-1.6-2.2-2.4-3.6c-0.7-1.4-1.4-2.9-2.1-4.6h2.9
		c1,2.6,2.1,4.7,3.2,6.3c1.1,1.6,2.5,2.4,4.1,2.4h0.1V823.5z"/>
</g>
<g>
	<path d="M50.2,926.7c-0.1,0.1-0.2,0.3-0.2,0.4c0,0.1-0.1,0.3-0.2,0.5c-1.2,2.8-2.7,5.1-4.3,6.7c-1.7,1.6-3.7,2.5-5.9,2.5V934
		c1.5,0,2.8-0.6,4-1.7c1.2-1.1,2.2-2.7,3.1-4.8c0.7-1.5,1.4-3,2.2-4.4L50.2,926.7z M59.8,937.4c-1.8,0-3.6-0.6-5.2-1.7
		c-1.7-1.1-3.2-2.6-4.5-4.5c-1.3-1.9-2.4-4.1-3.1-6.7c-0.8-2.6-1.1-5.3-1-8.3h3.2c-0.1,2.6,0.2,5,0.9,7.2c0.6,2.2,1.4,4.2,2.5,5.8
		c1,1.7,2.2,3,3.5,3.9c1.3,1,2.6,1.4,3.9,1.4c1.3,0,2.6-0.5,3.9-1.4c1.3-1,2.5-2.3,3.5-3.9c1-1.6,1.9-3.6,2.5-5.8
		c0.6-2.3,0.9-4.7,0.9-7.3c-0.1-1.3-0.3-2.9-0.8-4.7c-0.5-1.8-1.2-3.5-2.1-5.1c-0.9-1.6-1.9-3-3.2-4.1c-1.2-1.1-2.6-1.7-4.1-1.7
		c-1.9,0-3.7-0.5-5.2-1.6c-1.6-1.1-3-2.5-4.1-4.2c-1.2-1.7-2.1-3.6-2.7-5.7c-0.7-2.1-1-4.2-1.1-6.3c-0.1-2.4,0.3-4.7,1-6.9
		c0.7-2.3,1.7-4.3,2.9-6c1.2-1.7,2.6-3.1,4.2-4.2s3.3-1.6,5-1.6c1.7,0,3.4,0.5,4.9,1.6s3,2.5,4.2,4.2c1.2,1.7,2.2,3.7,2.9,6
		c0.7,2.3,1.1,4.6,1.1,6.9v2.6h-3v-2.7c0-2.3-0.3-4.4-0.9-6.4c-0.6-2-1.4-3.6-2.3-5.1c-1-1.4-2-2.5-3.2-3.3
		c-1.2-0.8-2.4-1.2-3.6-1.2c-1.2,0-2.4,0.4-3.6,1.2c-1.2,0.8-2.3,1.9-3.2,3.3c-1,1.4-1.7,3.1-2.3,5.1c-0.6,2-0.9,4.1-0.9,6.4
		c0,2.3,0.3,4.3,0.9,6.2c0.6,1.8,1.4,3.4,2.4,4.8c1,1.3,2,2.3,3.2,3.1c1.2,0.7,2.4,1.1,3.6,1.1c2.3,0,4.2,0.6,5.9,1.9
		c1.7,1.3,3,2.9,4.1,4.7c1.1,1.9,1.9,3.9,2.5,6c0.6,2.1,0.9,4,0.9,5.6c0,3-0.3,5.7-1.1,8.3c-0.8,2.6-1.8,4.8-3.1,6.7
		c-1.3,1.9-2.8,3.4-4.5,4.5C63.4,936.8,61.6,937.4,59.8,937.4z M69.3,852.6c-1.3,2.3-2.7,4.2-4.3,5.5c-1.5,1.3-3.3,2-5.3,2
		c-2,0-3.8-0.7-5.3-2c-1.5-1.3-3-3.2-4.3-5.5h3.2c0.9,1.5,1.8,2.7,2.8,3.5c1,0.8,2.2,1.3,3.6,1.3c1.3,0,2.5-0.4,3.5-1.3
		c1-0.9,2-2,2.8-3.5H69.3z M71.7,922.2c0.8,1.2,1.4,2.6,2,4.1c1,2.3,2.1,4.2,3.4,5.6c1.2,1.4,2.7,2.1,4.3,2.1v2.7
		c-2.2,0-4.1-0.7-5.7-2.1c-1.6-1.4-3-3.5-4.2-6.2c-0.2-0.5-0.4-0.9-0.6-1.3c-0.2-0.4-0.4-0.8-0.6-1.2L71.7,922.2z"/>
	<path d="M135.2,882.6c1.8,0,3.4-0.9,4.6-2.6c1.3-1.7,2.5-4,3.7-6.9c1.2-2.7,2.6-4.7,4.2-6.1c1.6-1.4,3.5-2.1,5.7-2.1v2.7
		c-1.6,0-3,0.7-4.3,2.1c-1.2,1.4-2.4,3.2-3.4,5.6l-0.7,1.4c-1,2.6-1.8,5.6-2.6,8.9s-1.5,6.8-2.2,10.4c-0.7,3.6-1.4,7.3-2.1,11
		c-0.7,3.7-1.5,7.2-2.4,10.5c1.4-0.9,2.9-1.4,4.5-1.4c2.4,0,4.5,0.9,6.1,2.8c1.7,1.8,3.2,4.3,4.5,7.3c1,2.3,2.1,4.2,3.4,5.6
		c1.2,1.4,2.7,2.1,4.3,2.1v2.7c-2.2,0-4.1-0.7-5.7-2.1c-1.6-1.4-3-3.5-4.2-6.2c-1.2-2.9-2.5-5.2-3.7-6.9c-1.3-1.7-2.8-2.6-4.6-2.6
		s-3.3,0.8-4.6,2.4c-1.2,1.6-2.4,3.7-3.6,6.3c-1.2,2.8-2.6,5.1-4.3,6.7c-1.7,1.7-3.6,2.5-5.9,2.5v-2.7c1.5,0,2.8-0.6,4-1.7
		c1.2-1.1,2.2-2.7,3.1-4.8c0.3-0.6,0.5-1.3,0.8-1.9s0.6-1.2,0.9-1.8c0.9-2.6,1.7-5.6,2.5-8.9c0.8-3.3,1.5-6.7,2.2-10.3
		c0.7-3.6,1.5-7.1,2.2-10.7c0.7-3.6,1.5-7,2.5-10.3c-1.5,1.1-3.1,1.7-4.9,1.7V882.6z M128.9,865c0,2.5,0.2,4.8,0.4,6.9
		c0.2,2.1,0.6,4,1.1,5.5c0.5,1.6,1.1,2.8,1.9,3.7c0.8,0.9,1.8,1.3,3,1.3v2.8c-1.7,0-3-0.5-4.1-1.6c-1.1-1-2-2.5-2.6-4.3
		c-0.7-1.8-1.2-4-1.5-6.4c-0.3-2.5-0.6-5.1-0.7-7.9L128.9,865z M146.3,857.3c-1.3,2.3-2.7,4.2-4.3,5.5c-1.5,1.3-3.3,2-5.3,2
		c-2,0-3.8-0.7-5.3-2c-1.5-1.3-3-3.2-4.3-5.5h3.2c0.9,1.5,1.8,2.7,2.8,3.5c1,0.8,2.2,1.3,3.6,1.3c1.3,0,2.5-0.4,3.5-1.3
		c1-0.9,2-2,2.8-3.5H146.3z"/>
	<path d="M210.4,901c0,1.4,0.2,2.7,0.6,4c0.4,1.3,1,2.3,1.7,3.3c0.7,0.9,1.6,1.7,2.7,2.3c1.1,0.6,2.3,0.9,3.6,0.9
		c1.9,0,3.5,0.4,4.9,1.1c1.4,0.7,2.6,1.7,3.6,2.8c1,1.2,1.7,2.6,2.2,4.2c0.5,1.6,0.7,3.3,0.7,5.1c1.1,2.9,2.3,5.2,3.7,6.9
		c1.4,1.7,3.1,2.6,4.9,2.6v2.7c-2-0.1-3.8-0.8-5.3-2.1c-1.5-1.3-2.9-3.1-4.1-5.3c-0.7,2.2-1.9,4-3.7,5.4c-1.8,1.3-4.1,2-6.9,2
		c-3,0-5.3-0.7-6.9-2.1c-1.6-1.4-2.8-3.3-3.5-5.7c-1.2,2.3-2.6,4.2-4.1,5.6c-1.6,1.4-3.4,2.1-5.4,2.2v-2.7c1.9,0,3.5-0.9,4.9-2.6
		c1.4-1.7,2.6-4,3.7-6.9h2.9c0.3,1.4,0.6,2.6,1,3.8c0.4,1.2,0.9,2.2,1.6,3s1.5,1.5,2.5,2c1,0.5,2.1,0.7,3.5,0.7c2.7,0,4.8-1,6.3-2.7
		c1.5-1.8,2.3-4.1,2.3-6.8c0-1.4-0.2-2.7-0.6-4c-0.4-1.3-1-2.4-1.7-3.3c-0.7-1-1.6-1.7-2.7-2.3c-1.1-0.6-2.3-0.9-3.6-0.9
		c-1.9,0-3.6-0.3-5-1c-1.4-0.7-2.6-1.6-3.5-2.8c-1-1.2-1.7-2.6-2.2-4.1c-0.5-1.6-0.7-3.2-0.7-5c0-1.7,0.3-3.3,0.8-4.8
		c0.5-1.5,1.2-2.8,2.2-3.9c1-1.1,2.1-1.9,3.5-2.6c1.4-0.6,3-0.9,4.9-0.9c1.9,0,3.5,0.3,4.8,0.9c1.3,0.6,2.4,1.5,3.3,2.5
		c0.9,1.1,1.6,2.3,2.1,3.8c0.5,1.5,0.9,3.1,1.2,4.9h-2.9c-0.3-1.4-0.6-2.6-1-3.8c-0.4-1.2-0.9-2.2-1.6-3c-0.7-0.9-1.5-1.5-2.5-2
		c-1-0.5-2.1-0.7-3.5-0.7c-2.7,0-4.8,1-6.3,2.7S210.4,898.2,210.4,901z M227.9,877.5c-1.3,2.3-2.7,4.2-4.3,5.5c-1.5,1.3-3.3,2-5.3,2
		c-2,0-3.8-0.7-5.3-2c-1.5-1.3-3-3.2-4.3-5.5h3.2c0.9,1.5,1.8,2.7,2.8,3.5c1,0.8,2.2,1.3,3.6,1.3c1.3,0,2.5-0.4,3.5-1.3
		c1-0.9,2-2,2.8-3.5H227.9z"/>
	<path d="M314.6,893.5c-2,2.2-3.8,4.5-5.5,7.1c-1.7,2.5-3.4,5.1-5,7.7c-1.6,2.6-3.3,5.3-4.9,7.9c-1.7,2.6-3.5,5.2-5.4,7.7
		c-1.9,2.5-4,4.8-6.3,7c-2.3,2.2-4.9,4.1-7.8,5.8v-2.7c3.1-1.9,6-4.4,8.6-7.6c2.6-3.1,5.2-6.6,7.6-10.3c2.4-3.7,4.9-7.5,7.4-11.4
		c2.5-3.9,5.1-7.6,7.8-11.1H314.6z M315.7,888.8c0.2,1.6-0.2,3.1-0.9,4.3c-0.8,1.3-1.8,2.3-3.2,3.2c-1.4,0.9-3,1.6-4.8,2.1
		c-1.8,0.5-3.7,0.8-5.7,0.9c-2,0.2-4.1,0.1-6.3-0.3c-2.2-0.4-4.2-1-6.1-1.8c-1.8-0.9-3.3-2-4.4-3.4c-1.1-1.4-1.5-3.1-1.2-5h2.9
		c0,1.5,0.3,2.7,1,3.7s1.6,1.9,2.8,2.5c1.2,0.6,2.6,1.1,4.2,1.4c1.6,0.3,3.4,0.5,5.3,0.5c1.9,0,3.7-0.2,5.3-0.5
		c1.6-0.3,3-0.8,4.2-1.4c1.2-0.6,2.2-1.5,2.8-2.5c0.7-1,1-2.3,1.1-3.7H315.7z M290.7,925.3h0.4c1.2,2.6,2.4,4.7,3.6,6.3
		c1.2,1.6,2.8,2.4,4.6,2.4h0.1v2.7h-0.1c-2.2,0-4.1-0.8-5.8-2.5c-1.7-1.6-3.1-3.8-4.5-6.6L290.7,925.3z M312.2,877.5
		c-1.3,2.3-2.7,4.2-4.3,5.5c-1.5,1.3-3.3,2-5.3,2c-2,0-3.8-0.7-5.3-2c-1.5-1.3-3-3.2-4.3-5.5h3.2c0.9,1.5,1.8,2.7,2.8,3.5
		c1,0.8,2.2,1.3,3.6,1.3c1.3,0,2.5-0.4,3.5-1.3c1-0.9,2-2,2.8-3.5H312.2z M299.3,933.9L299.3,933.9c1.9,0,3.4-0.8,4.6-2.4
		c1.2-1.6,2.4-3.7,3.6-6.3h3.2c-1.5,3.4-3.1,6.1-4.9,8.2c-1.8,2.1-3.9,3.1-6.4,3.1h-0.1V933.9z M319,936.6L319,936.6
		c-1.3,0-2.5-0.3-3.5-0.8c-1.1-0.5-2-1.3-3-2.3c-0.9-1-1.8-2.2-2.6-3.6c-0.8-1.4-1.6-2.9-2.3-4.6h3.2c1.2,2.6,2.4,4.7,3.6,6.3
		c1.2,1.6,2.8,2.4,4.6,2.4h0.1V936.6z"/>
	<path d="M422.9,936.7c-2.1,0-3.9-0.7-5.4-2.2s-3-3.4-4.2-5.8c-1.2-2.4-2.3-5.3-3.2-8.5c-0.9-3.2-1.8-6.6-2.6-10.2
		c-0.8-3.6-1.5-7.2-2.2-10.9c-0.7-3.7-1.4-7.3-2.2-10.6c-1.4,3.6-3,6.6-4.8,8.8c-1.9,2.2-4.1,3.4-6.7,3.4c-1.3,0-2.5-0.3-3.7-0.9
		c-1.1-0.6-2.2-1.5-3.1-2.6c-0.9-1.1-1.8-2.4-2.6-4c-0.8-1.5-1.5-3.3-2.2-5.1c-0.8,3.4-1.5,6.9-2.2,10.6c-0.7,3.7-1.4,7.3-2.2,10.9
		s-1.6,7-2.5,10.2c-0.9,3.2-2,6.1-3.2,8.5c-1.2,2.5-2.6,4.4-4.2,5.9c-1.6,1.5-3.4,2.3-5.5,2.4v-2.7c2,0,3.6-1,5.1-3
		c1.4-2,2.7-4.6,3.8-7.8c1.1-3.2,2.1-6.9,2.9-11c0.9-4.1,1.7-8.4,2.6-12.7c0.9-4.3,1.8-8.6,2.8-12.7c1-4.1,2.1-7.8,3.4-11
		c1.3-3.2,2.8-5.8,4.6-7.8c1.8-2,3.8-3,6.3-3c2.5,0,4.6,1,6.4,3c1.8,2,3.3,4.6,4.6,7.8c1.3,3.2,2.4,6.9,3.4,11
		c1,4.1,1.8,8.4,2.7,12.7c0.8,4.3,1.7,8.6,2.5,12.7c0.8,4.1,1.8,7.8,2.9,11c1.1,3.2,2.3,5.8,3.8,7.8c1.4,2,3.2,3,5.2,3V936.7z
		 M391.4,867.6c-1.3,0-2.4,0.4-3.4,1.1c-1,0.8-1.9,1.8-2.8,3.1s-1.6,3-2.2,4.8c-0.7,1.9-1.3,3.9-1.9,6.1c0.6,2.2,1.2,4.3,1.9,6.1
		c0.7,1.8,1.4,3.4,2.2,4.8s1.7,2.4,2.8,3.1c1,0.8,2.1,1.1,3.4,1.1c1.2,0,2.3-0.4,3.2-1.1c1-0.8,1.8-1.8,2.7-3.1s1.6-2.9,2.3-4.8
		c0.7-1.9,1.3-3.9,1.9-6.1c-0.6-2.2-1.2-4.3-1.9-6.2c-0.7-1.9-1.4-3.5-2.2-4.8c-0.8-1.3-1.7-2.4-2.7-3.1
		C393.7,868,392.6,867.6,391.4,867.6z M385.1,859.3c0-0.5,0.2-0.9,0.6-1.3c0.4-0.4,0.9-0.6,1.5-0.6c0.6,0,1,0.2,1.5,0.6
		c0.4,0.4,0.6,0.8,0.6,1.3c0,0.5-0.2,0.9-0.6,1.3c-0.4,0.4-0.9,0.6-1.5,0.6c-0.6,0-1-0.2-1.5-0.6
		C385.3,860.3,385.1,859.8,385.1,859.3z M394.9,859.3c0-0.5,0.2-0.9,0.6-1.3c0.4-0.4,0.9-0.6,1.5-0.6c0.6,0,1,0.2,1.5,0.6
		c0.4,0.4,0.6,0.8,0.6,1.3c0,0.5-0.2,0.9-0.6,1.3c-0.4,0.4-0.9,0.6-1.5,0.6c-0.6,0-1-0.2-1.5-0.6
		C395.1,860.3,394.9,859.8,394.9,859.3z"/>
	<path d="M463.4,933.5c1.5,0,2.6-0.6,3.5-1.9s1.5-3,1.9-5.2c0.4-2.2,0.7-4.8,0.8-7.7c0.1-2.9,0.2-6.1,0.2-9.4s0-6.7,0-10.2
		c0-3.5,0-6.9,0.2-10.2c0.2-3.3,0.4-6.4,0.9-9.4c0.4-2.9,1.1-5.5,2-7.7s2-3.9,3.5-5.2c1.5-1.3,3.3-1.9,5.5-1.9v2.9
		c-2.3,0-4.1,1.1-5.3,3s-2.1,4.6-2.7,7.8c-0.6,3.2-0.9,6.9-1,11c-0.1,4.1-0.2,8.3-0.2,12.6c0,4.3-0.1,8.5-0.2,12.6
		c-0.1,4.1-0.4,7.8-1,11c-0.6,3.2-1.5,5.8-2.7,7.8s-3,2.9-5.3,2.9V933.5z M471,913.6c0.7,2.9,1.3,5.5,2.1,8c0.7,2.5,1.5,4.6,2.5,6.4
		c0.9,1.8,1.9,3.3,3.1,4.3c1.1,1,2.4,1.6,3.9,1.6c1.3,0,2.5-0.4,3.5-1.3c1.1-0.9,2-2.1,2.9-3.7c0.9-1.6,1.6-3.5,2.4-5.6
		c0.7-2.2,1.4-4.5,2-7.1h3.3c-0.8,2.9-1.6,5.6-2.5,8.1c-0.9,2.5-1.9,4.7-3,6.5s-2.4,3.3-3.8,4.3c-1.4,1-3,1.6-4.8,1.6
		c-1.4,0-2.7-0.3-3.8-1c-1.2-0.7-2.2-1.7-3.2-2.9c-1-1.3-1.9-2.7-2.7-4.5c-0.8-1.7-1.6-3.6-2.3-5.7L471,913.6z M493.5,888.7
		c-0.7-3-1.4-5.7-2.1-8.3c-0.8-2.6-1.6-4.8-2.5-6.7c-0.9-1.9-2-3.4-3.1-4.5c-1.1-1.1-2.4-1.6-3.9-1.6v-2.7c2,0,3.7,0.6,5.2,1.9
		c1.5,1.3,2.9,3,4,5.2c1.2,2.2,2.2,4.7,3.1,7.6c0.9,2.9,1.7,6,2.5,9.3H493.5z M490.3,852.6c-1.3,2.3-2.7,4.2-4.3,5.5
		c-1.5,1.3-3.3,2-5.3,2c-2,0-3.8-0.7-5.3-2c-1.5-1.3-3-3.2-4.3-5.5h3.2c0.9,1.5,1.8,2.7,2.8,3.5c1,0.8,2.2,1.3,3.6,1.3
		c1.3,0,2.5-0.4,3.5-1.3c1-0.9,2-2,2.8-3.5H490.3z M496.5,916.2c0.6,2.6,1.3,4.9,2,7c0.7,2.1,1.5,4,2.4,5.6c0.9,1.6,1.9,2.8,2.9,3.7
		c1.1,0.9,2.3,1.3,3.7,1.3v2.7c-1.8,0-3.3-0.5-4.7-1.6c-1.4-1-2.6-2.5-3.8-4.3s-2.1-4-3-6.5c-0.9-2.5-1.7-5.2-2.5-8.1L496.5,916.2z"
		/>
	<path d="M566.9,917.8c-0.7,2.6-1.5,5.1-2.4,7.4s-1.9,4.2-2.9,5.9c-1.1,1.7-2.3,3-3.7,4c-1.4,1-2.9,1.5-4.6,1.6v-2.7
		c1.2,0,2.3-0.4,3.4-1.2c1-0.8,2-1.9,2.8-3.4c0.9-1.4,1.6-3.1,2.3-5.1c0.7-2,1.4-4.1,2-6.5H566.9z M581.9,900.4
		c-2.3,0.2-4.2,0.7-5.7,1.3c-1.5,0.7-2.9,1.7-4,3s-2.1,3.1-2.9,5.2c-0.8,2.1-1.6,4.8-2.5,7.9c0.6,2.3,1.3,4.5,2,6.5
		c0.7,2,1.5,3.7,2.3,5.1c0.9,1.4,1.8,2.6,2.8,3.4c1,0.8,2.1,1.2,3.3,1.2c1.3,0,2.4-0.4,3.5-1.2c1.1-0.8,2-1.9,2.8-3.4
		c0.8-1.4,1.6-3.1,2.3-5.1c0.7-2,1.4-4.1,2-6.5h2.9c-0.8,2.7-1.6,5.2-2.4,7.5c-0.9,2.3-1.8,4.3-2.9,6c-1.1,1.7-2.3,3-3.7,4
		c-1.3,1-2.8,1.4-4.5,1.4c-1.7,0-3.2-0.5-4.6-1.4c-1.4-1-2.6-2.3-3.7-4s-2.1-3.7-2.9-6c-0.9-2.3-1.7-4.8-2.4-7.5
		c0.5-2,1-3.9,1.5-5.8c0.5-1.9,1.1-3.7,1.8-5.2c0.7-1.6,1.5-2.9,2.4-4c0.9-1.1,2.1-1.9,3.4-2.2c-1.6-0.7-3-1.8-4-3.2
		c-1.1-1.5-2-3.1-2.6-4.8c-0.7-1.7-1.2-3.5-1.4-5.2c-0.3-1.8-0.4-3.3-0.4-4.6h2.8c0.3,5.6,1.6,9.8,4.1,12.8
		C573.8,898.3,577.4,900,581.9,900.4z M587.6,882.6c0-2-0.3-3.9-0.9-5.7c-0.6-1.9-1.4-3.5-2.4-4.9c-1-1.4-2.1-2.6-3.3-3.4
		c-1.2-0.9-2.4-1.3-3.6-1.3s-2.4,0.4-3.6,1.3c-1.2,0.9-2.3,2-3.3,3.4c-1,1.4-1.8,3.1-2.4,4.9c-0.6,1.9-0.9,3.8-0.9,5.7h-2.8
		c0-1.6,0.2-3.4,0.6-5.5c0.4-2.1,1.1-4,2.1-5.9c1-1.9,2.3-3.5,4-4.8c1.7-1.3,3.7-1.9,6.3-1.9c2.5,0,4.5,0.7,6.2,1.9
		c1.7,1.3,3,2.9,4,4.8c1,1.9,1.7,3.8,2.1,5.9c0.4,2.1,0.6,3.9,0.6,5.5H587.6z M580.3,859.3c0-0.5,0.2-0.9,0.6-1.3
		c0.4-0.4,0.9-0.6,1.5-0.6c0.6,0,1,0.2,1.5,0.6c0.4,0.4,0.6,0.8,0.6,1.3c0,0.5-0.2,0.9-0.6,1.3c-0.4,0.4-0.9,0.6-1.5,0.6
		c-0.6,0-1-0.2-1.5-0.6C580.5,860.3,580.3,859.8,580.3,859.3z M588.4,923.1c0.8,1.4,1.5,2.9,2.2,4.4c0.9,2.1,1.9,3.6,3.1,4.8
		c1.2,1.1,2.5,1.7,4,1.7v2.7c-2.3,0-4.2-0.8-5.9-2.5s-3.1-3.9-4.3-6.7c-0.1-0.2-0.2-0.3-0.2-0.5c0-0.1-0.1-0.3-0.2-0.4L588.4,923.1z
		 M590.1,859.3c0-0.5,0.2-0.9,0.6-1.3c0.4-0.4,0.9-0.6,1.5-0.6s1,0.2,1.5,0.6c0.4,0.4,0.6,0.8,0.6,1.3c0,0.5-0.2,0.9-0.6,1.3
		c-0.4,0.4-0.9,0.6-1.5,0.6s-1-0.2-1.5-0.6C590.3,860.3,590.1,859.8,590.1,859.3z"/>
	<path d="M658.1,919c-1.7,0.1-3.2,0.9-4.4,2.5c-1.2,1.6-2.4,3.6-3.5,6.2c-1.2,2.8-2.7,5.1-4.3,6.7c-1.7,1.6-3.7,2.5-5.9,2.5V934
		c1.5,0,2.8-0.6,4-1.7c1.2-1.1,2.2-2.7,3.1-4.8c1.3-3.1,2.8-5.7,4.4-7.7c1.6-2,3.5-3.2,5.7-3.6L658.1,919z M688.8,900.8
		c0,4.5-0.4,9-1.3,13.3c-0.9,4.4-2,8.3-3.5,11.7c-1.5,3.4-3.3,6.2-5.5,8.3c-2.1,2.1-4.5,3.2-7.1,3.2c-2.5,0-4.8-1.1-6.9-3.2
		s-3.9-4.9-5.5-8.4c-1.5-3.5-2.7-7.4-3.6-11.7c-0.9-4.4-1.3-8.8-1.3-13.3s0.4-8.9,1.3-13.3c0.9-4.4,2.1-8.3,3.6-11.7
		c1.5-3.5,3.4-6.3,5.5-8.4s4.4-3.2,6.9-3.2c2.6,0,4.9,1.1,7.1,3.2c2.1,2.1,4,4.9,5.5,8.3c1.5,3.4,2.7,7.4,3.5,11.7
		C688.3,891.8,688.8,896.3,688.8,900.8z M685.4,900.8c0-4.3-0.4-8.5-1.1-12.5c-0.7-4.1-1.7-7.7-3-10.8c-1.3-3.2-2.8-5.7-4.5-7.6
		c-1.7-1.9-3.5-2.9-5.4-2.9c-2,0-3.9,1-5.6,2.9c-1.7,1.9-3.2,4.5-4.5,7.6c-1.3,3.2-2.3,6.8-3,10.8c-0.7,4.1-1.1,8.2-1.1,12.5
		c0,4.3,0.4,8.5,1.1,12.5c0.7,4.1,1.7,7.7,3,10.8c1.3,3.2,2.7,5.7,4.5,7.6c1.7,1.9,3.6,2.9,5.6,2.9c1.9,0,3.7-1,5.4-2.9
		c1.7-1.9,3.2-4.5,4.5-7.6c1.3-3.2,2.3-6.8,3-10.8C685.1,909.2,685.4,905.1,685.4,900.8z M665,858.6c0-0.5,0.2-0.9,0.6-1.3
		c0.4-0.4,0.9-0.6,1.5-0.6c0.6,0,1,0.2,1.5,0.6c0.4,0.4,0.6,0.8,0.6,1.3s-0.2,0.9-0.6,1.3c-0.4,0.4-0.9,0.6-1.5,0.6
		c-0.6,0-1-0.2-1.5-0.6C665.2,859.6,665,859.1,665,858.6z M674.8,858.6c0-0.5,0.2-0.9,0.6-1.3c0.4-0.4,0.9-0.6,1.5-0.6
		s1,0.2,1.5,0.6c0.4,0.4,0.6,0.8,0.6,1.3s-0.2,0.9-0.6,1.3c-0.4,0.4-0.9,0.6-1.5,0.6s-1-0.2-1.5-0.6
		C675,859.6,674.8,859.1,674.8,858.6z M685.7,916.3c2.1,0.3,3.9,1.3,5.5,3.1c1.6,1.8,2.9,4.1,4.1,6.9c1,2.3,2.1,4.2,3.4,5.6
		c1.2,1.4,2.7,2.1,4.3,2.1v2.7c-2.2,0-4.1-0.7-5.7-2.1c-1.6-1.4-3-3.5-4.2-6.2c-1.2-2.8-2.4-5-3.6-6.8c-1.3-1.7-2.8-2.6-4.5-2.7
		L685.7,916.3z"/>
	<path d="M760.9,918.8L760.9,918.8c-1.9,0-3.4,0.8-4.6,2.4c-1.2,1.6-2.4,3.7-3.6,6.3c-1.2,2.8-2.7,5.1-4.3,6.7
		c-1.7,1.6-3.7,2.5-5.9,2.5v-2.7c1.5,0,2.8-0.6,4-1.7c1.2-1.1,2.2-2.7,3.1-4.8c0.7-1.7,1.5-3.2,2.3-4.6c0.8-1.4,1.7-2.6,2.6-3.6
		c0.9-1,1.9-1.8,3-2.3s2.2-0.8,3.5-0.8h0.1V918.8z M752.9,865c2.3,0,4.1,1,5.3,2.9c1.2,2,2.1,4.6,2.7,7.8c0.6,3.2,0.9,6.9,1,11
		c0.1,4.1,0.2,8.3,0.2,12.6s0,8.5,0.2,12.7c0.1,4.1,0.4,7.8,1,11c0.6,3.2,1.5,5.8,2.7,7.8s3,3,5.3,3v2.7c-2.2,0-4-0.6-5.5-1.9
		c-1.5-1.3-2.6-3-3.5-5.2c-0.9-2.2-1.5-4.8-2-7.7c-0.4-2.9-0.7-6.1-0.9-9.4c-0.2-3.3-0.2-6.7-0.2-10.2c0-3.5,0-6.9,0-10.2
		s-0.1-6.4-0.2-9.4c-0.1-2.9-0.4-5.5-0.8-7.7c-0.4-2.2-1.1-4-1.9-5.2s-2-1.9-3.5-1.9V865z M789.6,867.8c-1.5,0-2.6,0.6-3.5,1.9
		c-0.9,1.3-1.5,3-1.9,5.2c-0.4,2.2-0.7,4.8-0.8,7.7c-0.1,2.9-0.2,6.1-0.2,9.4s0,6.7,0,10.2c0,3.5,0,6.9-0.2,10.2
		c-0.2,3.3-0.4,6.4-0.9,9.4c-0.4,2.9-1.1,5.5-2,7.7c-0.9,2.2-2,3.9-3.5,5.2c-1.5,1.3-3.3,1.9-5.5,1.9v-2.7c2.3,0,4.1-1.1,5.3-3
		c1.2-2,2.1-4.6,2.7-7.8c0.6-3.2,0.9-6.9,1-11c0.1-4.1,0.2-8.3,0.2-12.7s0-8.5,0.2-12.6c0.1-4.1,0.4-7.8,1-11
		c0.6-3.2,1.5-5.8,2.7-7.8c1.2-2,3-2.9,5.3-2.9V867.8z M771.8,859.3c0-0.5,0.2-0.9,0.6-1.3c0.4-0.4,0.9-0.6,1.5-0.6
		c0.6,0,1,0.2,1.5,0.6c0.4,0.4,0.6,0.8,0.6,1.3c0,0.5-0.2,0.9-0.6,1.3c-0.4,0.4-0.9,0.6-1.5,0.6c-0.6,0-1-0.2-1.5-0.6
		C772,860.3,771.8,859.8,771.8,859.3z M781.5,916.1L781.5,916.1c1.3,0,2.5,0.3,3.5,0.8c1.1,0.5,2,1.3,3,2.3c0.9,1,1.8,2.2,2.6,3.6
		c0.8,1.4,1.6,2.9,2.3,4.6c0.9,2.1,1.9,3.6,3.1,4.8c1.2,1.1,2.5,1.7,4,1.7v2.7c-2.3,0-4.2-0.8-5.9-2.5c-1.7-1.6-3.1-3.9-4.3-6.7
		c-1.2-2.6-2.4-4.7-3.6-6.3c-1.2-1.6-2.8-2.4-4.6-2.4h-0.1V916.1z M781.6,859.3c0-0.5,0.2-0.9,0.6-1.3c0.4-0.4,0.9-0.6,1.5-0.6
		c0.6,0,1,0.2,1.5,0.6c0.4,0.4,0.6,0.8,0.6,1.3c0,0.5-0.2,0.9-0.6,1.3c-0.4,0.4-0.9,0.6-1.5,0.6c-0.6,0-1-0.2-1.5-0.6
		C781.8,860.3,781.6,859.8,781.6,859.3z"/>
</g>
<g>
	<defs>
		<rect id="SVGID_3_" width="814.2" height="1083.5"/>
	</defs>
	<clipPath id="SVGID_4_">
		<use xlink:href="#SVGID_3_"  style="overflow:visible;"/>
	</clipPath>
	<g class="st1">
		<path d="M82.6,1049.8c-2.2,0-3.8-0.7-5-2c-1.1-1.3-1.9-3.1-2.4-5.4c-0.7,2.2-1.8,4-3.2,5.4c-1.4,1.3-3.5,2-6.1,1.9
			c-2.6,0-4.6-0.6-6-2c-1.5-1.4-2.6-3.2-3.3-5.4c-0.5,2.2-1.3,4-2.4,5.4c-1.1,1.4-2.8,2.1-5,2.1v-2.5c1.4,0,2.4-0.5,3.2-1.4
			c0.8-0.9,1.3-2.2,1.7-3.7c0.4-1.6,0.6-3.4,0.7-5.5c0.1-2.1,0.1-4.3,0.1-6.5v-4.4c0-2.9,0.1-5.8,0.3-8.7c0.2-2.8,0.6-5.4,1.4-7.6
			c0.7-2.2,1.8-4,3.3-5.4c1.5-1.4,3.5-2.1,6-2.1c2.5,0,4.4,0.7,5.8,1.9c1.4,1.3,2.5,3,3.3,5.1c0.8,2.1,1.2,4.5,1.4,7.2
			c0.2,2.7,0.3,5.5,0.3,8.3c0,2.8,0,5.6,0,8.3c0,2.7,0.2,5.2,0.5,7.3c0.3,2.1,0.9,3.8,1.7,5.1c0.8,1.3,2,1.9,3.6,1.9V1049.8z
			 M70.3,1045.5c1.1-1,1.9-2.4,2.5-4.2c0.6-1.7,0.9-3.7,1.1-6c0.2-2.3,0.3-4.6,0.3-7.1c0-2.9,0-5.7-0.1-8.5
			c-0.1-2.8-0.4-5.3-0.9-7.6c-0.5-2.2-1.3-4-2.5-5.4c-1.1-1.4-2.8-2.1-4.9-2.2c-2,0-3.6,0.7-4.7,1.9c-1.1,1.2-1.9,2.8-2.5,4.8
			c-0.5,2-0.9,4.2-1,6.7c-0.1,2.5-0.2,5.1-0.2,7.8c0,2.7,0.1,5.3,0.2,7.9c0.1,2.6,0.4,4.8,1,6.8c0.5,2,1.4,3.6,2.5,4.8
			c1.1,1.2,2.7,1.8,4.7,1.9C67.8,1047,69.2,1046.5,70.3,1045.5z M75.4,998.1c-1.2-2.3-2.5-4.2-3.9-5.5c-1.4-1.3-3-2-4.8-2
			c-1.8,0-3.4,0.7-4.8,2c-1.4,1.3-2.7,3.2-3.9,5.5h2.9c0.8-1.5,1.6-2.7,2.6-3.5c0.9-0.8,2-1.3,3.2-1.3c1.2,0,2.2,0.4,3.2,1.3
			c0.9,0.9,1.8,2,2.6,3.5H75.4z"/>
		<path d="M252,1049.8c-2.2,0-3.8-0.7-5-2c-1.1-1.3-1.9-3.1-2.4-5.4c-0.7,2.2-1.8,4-3.2,5.4c-1.4,1.3-3.5,2-6.1,1.9
			c-2.6,0-4.6-0.6-6-2c-1.5-1.4-2.6-3.2-3.3-5.4c-0.5,2.2-1.3,4-2.4,5.4c-1.1,1.4-2.8,2.1-5,2.1v-2.5c1.4,0,2.4-0.5,3.2-1.4
			c0.8-0.9,1.3-2.2,1.7-3.7c0.4-1.6,0.6-3.4,0.7-5.5c0.1-2.1,0.1-4.3,0.1-6.5v-4.4c0-2.9,0.1-5.8,0.3-8.7c0.2-2.8,0.6-5.4,1.4-7.6
			c0.7-2.2,1.8-4,3.3-5.4c1.5-1.4,3.5-2.1,6-2.1c2.5,0,4.4,0.7,5.8,1.9c1.4,1.3,2.5,3,3.3,5.1c0.8,2.1,1.2,4.5,1.4,7.2
			c0.2,2.7,0.3,5.5,0.3,8.3c0,2.8,0,5.6,0,8.3c0,2.7,0.2,5.2,0.5,7.3c0.3,2.1,0.9,3.8,1.7,5.1c0.8,1.3,2,1.9,3.6,1.9V1049.8z
			 M235.3,1047.1c1.8,0,3.3-0.6,4.4-1.6c1.1-1,1.9-2.4,2.5-4.2c0.6-1.7,0.9-3.7,1.1-6c0.2-2.3,0.3-4.6,0.3-7.1c0-2.9,0-5.7-0.1-8.5
			c-0.1-2.8-0.4-5.3-0.9-7.6c-0.5-2.2-1.3-4-2.5-5.4c-1.1-1.4-2.8-2.1-4.9-2.2c-2,0-3.6,0.7-4.7,1.9c-1.1,1.2-1.9,2.8-2.5,4.8
			c-0.5,2-0.9,4.2-1,6.7c-0.1,2.5-0.2,5.1-0.2,7.8c0,2.7,0.1,5.3,0.2,7.9c0.1,2.6,0.4,4.8,1,6.8c0.5,2,1.4,3.6,2.5,4.8
			C231.7,1046.4,233.3,1047,235.3,1047.1z M229.6,995c0-0.5,0.2-0.9,0.6-1.3c0.4-0.4,0.8-0.6,1.3-0.6c0.5,0,0.9,0.2,1.3,0.6
			c0.4,0.4,0.6,0.8,0.6,1.3c0,0.5-0.2,0.9-0.6,1.3c-0.4,0.4-0.8,0.6-1.3,0.6c-0.5,0-0.9-0.2-1.3-0.6
			C229.8,995.9,229.6,995.5,229.6,995z M238.5,995c0-0.5,0.2-0.9,0.6-1.3c0.4-0.4,0.8-0.6,1.3-0.6c0.5,0,0.9,0.2,1.3,0.6
			c0.4,0.4,0.6,0.8,0.6,1.3c0,0.5-0.2,0.9-0.6,1.3c-0.4,0.4-0.8,0.6-1.3,0.6c-0.5,0-0.9-0.2-1.3-0.6
			C238.7,995.9,238.5,995.5,238.5,995z"/>
		<path d="M415.7,1035.8c0,1.6,0.2,3.2,0.4,4.6s0.5,2.6,1,3.7c0.4,1,1,1.8,1.7,2.4c0.7,0.6,1.6,0.9,2.6,0.9v2.5c-2.2,0-3.8-0.7-5-2
			c-1.1-1.3-1.9-3.1-2.4-5.4c-0.7,2.2-1.8,4-3.2,5.4c-1.4,1.3-3.5,2-6.1,1.9c-2.6,0-4.6-0.6-6-2c-1.5-1.4-2.6-3.2-3.3-5.4
			c-0.5,2.2-1.3,4-2.4,5.4c-1.1,1.4-2.8,2.1-5,2.1v-2.5c1.4,0,2.4-0.5,3.2-1.4c0.8-0.9,1.3-2.2,1.7-3.7c0.4-1.6,0.6-3.4,0.7-5.5
			c0.1-2.1,0.1-4.3,0.1-6.5v-4.4c0-2.9,0.1-5.8,0.3-8.7c0.2-2.8,0.6-5.4,1.4-7.6c0.7-2.2,1.8-4,3.3-5.4c1.5-1.4,3.5-2.1,6-2.1
			c1.7,0,3.1,0.3,4.3,0.9c1.2,0.6,2.2,1.5,3,2.6c0.8,1.1,1.4,2.4,1.9,3.9s0.8,3.1,1.1,4.9h-2.6c-0.2-1.4-0.5-2.6-0.9-3.8
			c-0.4-1.2-0.9-2.2-1.5-3s-1.4-1.5-2.2-2c-0.9-0.5-1.9-0.8-3.1-0.8c-2,0-3.6,0.7-4.7,1.9c-1.1,1.2-1.9,2.8-2.5,4.8
			c-0.5,2-0.9,4.2-1,6.7c-0.1,2.5-0.2,5.1-0.2,7.8c0,2.7,0.1,5.3,0.2,7.9c0.1,2.6,0.4,4.8,1,6.8c0.5,2,1.4,3.6,2.5,4.8
			c1.1,1.2,2.7,1.8,4.7,1.9c1.4,0,2.5-0.3,3.4-0.9c0.9-0.6,1.7-1.4,2.3-2.4c0.6-1,1.1-2.2,1.4-3.6c0.3-1.4,0.6-2.8,0.8-4.4H415.7z
			 M414.1,990.6c-1.2,2.3-2.5,4.2-3.9,5.5c-1.4,1.3-3,2-4.8,2c-1.8,0-3.4-0.7-4.8-2c-1.4-1.3-2.7-3.2-3.9-5.5h2.9
			c0.8,1.5,1.6,2.7,2.6,3.5c0.9,0.8,2,1.3,3.2,1.3c1.2,0,2.2-0.4,3.2-1.3s1.8-2,2.6-3.5H414.1z"/>
		<path d="M563.2,1022.1c0-2.6,0.2-5.1,0.5-7.6c0.3-2.4,0.8-4.6,1.6-6.4c0.8-1.8,1.9-3.3,3.3-4.4c1.4-1.1,3.3-1.7,5.5-1.7
			c2.4,0,4.3,0.6,5.7,1.8c1.4,1.2,2.5,2.8,3.3,4.8c0.8,2,1.3,4.3,1.5,6.8c0.3,2.6,0.4,5.2,0.4,7.9v2.5h-19.3c0,2.7,0.1,5.3,0.2,7.9
			c0.1,2.6,0.4,4.8,1,6.8c0.5,2,1.4,3.6,2.5,4.8c1.1,1.2,2.7,1.8,4.7,1.9c1.4,0,2.5-0.3,3.4-0.9c0.9-0.6,1.7-1.4,2.3-2.4
			c0.6-1,1.1-2.2,1.4-3.6c0.3-1.4,0.6-2.8,0.8-4.4h3.1c0,1.6,0.2,3.2,0.4,4.6s0.5,2.6,1,3.7c0.4,1,1,1.8,1.7,2.4
			c0.7,0.6,1.6,0.9,2.6,0.9v2.5c-2.2,0-3.8-0.7-5-2c-1.1-1.3-1.9-3.1-2.4-5.4c-0.7,2.2-1.8,4-3.2,5.4c-1.4,1.3-3.5,2-6.1,1.9
			c-2.6,0-4.6-0.6-6-2c-1.5-1.4-2.6-3.2-3.3-5.4c-0.5,2.2-1.3,4-2.4,5.4s-2.8,2.1-5,2.1v-2.5c1.4,0,2.4-0.5,3.2-1.4
			c0.8-0.9,1.3-2.2,1.7-3.7c0.4-1.6,0.6-3.4,0.7-5.5c0.1-2.1,0.1-4.3,0.1-6.5v-4.4c0-0.4,0-0.9,0-1.4S563.1,1023.1,563.2,1022.1z
			 M574.1,1004.6c-1.8,0-3.2,0.5-4.3,1.5c-1.1,1-1.9,2.2-2.5,3.8c-0.6,1.6-1,3.4-1.2,5.5c-0.2,2.1-0.3,4.3-0.4,6.6v1.2h16.7
			c0-2.5-0.2-4.8-0.3-7c-0.2-2.2-0.6-4.2-1.1-5.9c-0.6-1.7-1.4-3.1-2.5-4.1C577.3,1005.1,575.9,1004.6,574.1,1004.6z M568.4,995
			c0-0.5,0.2-0.9,0.6-1.3c0.4-0.4,0.8-0.6,1.3-0.6c0.5,0,0.9,0.2,1.3,0.6s0.6,0.8,0.6,1.3c0,0.5-0.2,0.9-0.6,1.3
			c-0.4,0.4-0.8,0.6-1.3,0.6c-0.5,0-0.9-0.2-1.3-0.6C568.6,995.9,568.4,995.5,568.4,995z M577.3,995c0-0.5,0.2-0.9,0.6-1.3
			c0.4-0.4,0.8-0.6,1.3-0.6c0.5,0,0.9,0.2,1.3,0.6s0.6,0.8,0.6,1.3c0,0.5-0.2,0.9-0.6,1.3c-0.4,0.4-0.8,0.6-1.3,0.6
			c-0.5,0-0.9-0.2-1.3-0.6C577.5,995.9,577.3,995.5,577.3,995z"/>
		<path d="M735.2,1021.5c0,2.1-0.1,4.3,0,6.6c0,2.2,0,4.4-0.1,6.5c-0.1,2.1-0.3,4.1-0.5,5.9c-0.3,1.8-0.7,3.4-1.3,4.8
			c-0.6,1.4-1.4,2.5-2.5,3.3c-1,0.8-2.4,1.2-4,1.2v-2.5c1.8,0,3.1-0.8,3.9-2.3c0.8-1.5,1.3-3.6,1.6-6s0.4-5.2,0.3-8.3
			c0-3.1,0-6.2,0.1-9.3L735.2,1021.5z M735.1,1001.9c0,3.3,0.1,6.7,0,10.2c0,3.5,0,6.9,0.1,10.3c0.1,3.4,0.2,6.5,0.4,9.5
			c0.2,3,0.6,5.6,1.2,7.8c0.6,2.3,1.4,4,2.5,5.4c1,1.3,2.4,2,4.1,2v2.7c-2.1,0-3.9-0.7-5.2-2.1c-1.3-1.4-2.4-3.3-3.2-5.7
			c-0.8-2.4-1.4-5.2-1.7-8.4c-0.4-3.2-0.6-6.6-0.7-10.2c-0.1-3.6-0.1-7.2-0.1-10.8c0-3.7,0-7.2,0-10.6L735.1,1001.9z M739.9,995
			c0-0.5,0.2-0.9,0.6-1.3c0.4-0.4,0.8-0.6,1.3-0.6c0.5,0,0.9,0.2,1.3,0.6s0.6,0.8,0.6,1.3c0,0.5-0.2,0.9-0.6,1.3
			c-0.4,0.4-0.8,0.6-1.3,0.6c-0.5,0-0.9-0.2-1.3-0.6C740.1,995.9,739.9,995.5,739.9,995z M754.6,1001.8c0,3.4-0.1,6.9,0,10.6
			c0,3.7,0,7.3-0.1,10.8c-0.1,3.6-0.3,6.9-0.7,10.2c-0.3,3.2-0.9,6-1.7,8.4c-0.8,2.4-1.9,4.3-3.3,5.7c-1.4,1.4-3.1,2.1-5.2,2.1v-2.7
			c1.7,0,3.1-0.7,4.1-2.1s1.9-3.1,2.5-5.3c0.6-2.2,1-4.8,1.3-7.8c0.3-3,0.4-6.2,0.4-9.5c0-3.4,0.1-6.8,0-10.3c0-3.5,0-6.9,0.1-10.3
			L754.6,1001.8z M748.8,995c0-0.5,0.2-0.9,0.6-1.3c0.4-0.4,0.8-0.6,1.3-0.6c0.5,0,0.9,0.2,1.3,0.6s0.6,0.8,0.6,1.3
			c0,0.5-0.2,0.9-0.6,1.3c-0.4,0.4-0.8,0.6-1.3,0.6c-0.5,0-0.9-0.2-1.3-0.6C748.9,995.9,748.8,995.5,748.8,995z M754.4,1021.4
			c0,2.1,0.1,4.1,0.1,6.2c0,2.1,0,4.1,0,6c0,1.9,0.1,3.7,0.3,5.4c0.2,1.7,0.4,3.1,0.9,4.3c0.4,1.2,1,2.2,1.7,2.9
			c0.7,0.7,1.7,1.1,2.9,1.1v2.5c-1.6,0-3-0.4-4-1.2c-1-0.8-1.8-1.9-2.5-3.3c-0.6-1.4-1-3-1.3-4.8c-0.3-1.8-0.4-3.8-0.5-5.9
			c-0.1-2.1-0.1-4.3-0.1-6.5c0-2.2,0-4.4,0-6.6L754.4,1021.4z"/>
	</g>
</g>
</svg>
