<?xml version="1.0" encoding="utf-8"?>
<!-- Generator: Adobe Illustrator 22.1.0, SVG Export Plug-In . SVG Version: 6.00 Build 0)  -->
<svg version="1.1" id="Layer_1" xmlns="http://www.w3.org/2000/svg" xmlns:xlink="http://www.w3.org/1999/xlink" x="0px" y="0px"
	 viewBox="0 0 720 540" style="enable-background:new 0 0 720 540;" xml:space="preserve">
<style type="text/css">
	.st0{fill:#FFDA00;}
	.st1{fill:#FFFFFF;}
</style>
<rect y="0" class="st0" width="720" height="540"/>
<g>
	<path class="st1" d="M223.8,197.3c1.5,0,2.7-0.9,3.8-2.6c1-1.7,2-4,2.7-6.8c0.8-2.8,1.5-6,2.1-9.6c0.6-3.6,1.2-7.3,1.8-11
		c0.6-3.8,1.3-7.4,1.9-11c0.7-3.6,1.5-6.8,2.5-9.6c1-2.8,2.1-5.1,3.3-6.8c1.3-1.7,2.8-2.6,4.7-2.6v2.4c-1.4,0-2.7,0.9-3.7,2.6
		c-1,1.7-1.9,4-2.7,6.8c-0.8,2.8-1.5,6-2.1,9.6c-0.6,3.6-1.2,7.3-1.9,11c-0.6,3.8-1.3,7.4-2,11c-0.7,3.6-1.5,6.8-2.5,9.6
		c-1,2.8-2.1,5.1-3.3,6.8c-1.3,1.7-2.8,2.6-4.6,2.6V197.3z M245.6,139.2l2.1,0.1l-0.8,60.5h-2.1L245.6,139.2z M269.5,199.7
		c-1.8,0-3.3-0.9-4.6-2.6c-1.3-1.7-2.4-4-3.3-6.8c-1-2.8-1.8-6-2.5-9.6c-0.7-3.6-1.4-7.3-2-11c-0.6-3.8-1.2-7.4-1.9-11
		c-0.6-3.6-1.3-6.8-2.1-9.6c-0.8-2.8-1.7-5.1-2.7-6.8c-1-1.7-2.3-2.6-3.7-2.6v-2.4c1.8,0,3.3,0.9,4.6,2.6c1.3,1.7,2.4,4,3.4,6.8
		c1,2.8,1.8,6,2.5,9.6c0.7,3.6,1.3,7.3,1.9,11c0.6,3.8,1.2,7.4,1.8,11c0.6,3.6,1.3,6.8,2.1,9.6c0.8,2.8,1.7,5.1,2.7,6.8
		c1,1.7,2.3,2.6,3.8,2.6V199.7z"/>
	<path class="st1" d="M273.2,176.4v-18.4h2v4.6c0.6-1.4,1.5-2.5,2.6-3.3c1.1-0.8,2.5-1.2,4.1-1.2v2.3c-1.4,0-2.5,0.5-3.4,1.3
		c-0.9,0.8-1.5,1.9-2,3.2c-0.5,1.3-0.8,2.9-1,4.7c-0.2,1.8-0.3,3.7-0.3,5.7v1.1c0,3.2,0.1,6.1,0.2,8.7c0.1,2.6,0.4,4.8,0.9,6.6
		c0.5,1.8,1.1,3.2,2,4.2c0.9,1,2.1,1.5,3.6,1.5v2.3c-1.1,0-2.1-0.2-3-0.5c-0.8-0.4-1.6-0.9-2.2-1.5c-0.6-0.7-1.1-1.4-1.6-2.4
		c-0.4-0.9-0.8-2-1-3.1c-0.5,2.3-1.4,4.1-2.6,5.5c-1.2,1.4-2.9,2.1-5.1,2.1v-2.3c1.8,0,3.1-0.7,4-1.9c0.9-1.2,1.6-2.8,2-4.8
		c0.4-2,0.6-4.2,0.7-6.7C273.2,181.5,273.2,179,273.2,176.4z"/>
	<path class="st1" d="M307.7,199.7c-1.8,0-3.1-0.6-4-1.8c-0.9-1.2-1.5-2.7-1.9-4.7c-0.6,1.9-1.5,3.5-2.6,4.7
		c-1.2,1.2-2.8,1.7-4.9,1.7c-2,0-3.7-0.5-4.8-1.7c-1.2-1.2-2-2.8-2.6-4.8c-0.4,2-1.1,3.6-1.9,4.8c-0.9,1.2-2.2,1.8-4,1.8v-2.1
		c1.3,0,2.2-0.6,2.9-1.7c0.6-1.1,1.1-2.6,1.3-4.5c0.3-1.8,0.4-4,0.4-6.3s0-4.8,0-7.3c0-2.5,0.1-4.9,0.3-7.2c0.2-2.4,0.5-4.5,1.2-6.3
		c0.6-1.8,1.5-3.3,2.6-4.5c1.2-1.1,2.7-1.7,4.7-1.7c1.9,0,3.3,0.5,4.4,1.5c1.1,1,2,2.3,2.6,3.9c0.8-0.3,1.6-0.9,2.3-1.8
		c0.7-0.9,1.3-2.1,1.8-3.6h2.3c-0.7,2-1.6,3.7-2.5,5c-0.9,1.3-2,2.2-3.2,2.6c0.4,1.9,0.7,4,0.9,6.3c0.1,2.3,0.2,4.7,0.2,7
		c0,2.4,0,4.7,0,6.9c0,2.2,0.2,4.2,0.4,5.9c0.3,1.7,0.7,3.1,1.3,4.1c0.6,1,1.6,1.5,2.8,1.5V199.7z M294.3,197.4
		c1.4,0,2.5-0.4,3.3-1.1c0.8-0.8,1.5-1.8,2-3c0.5-1.3,0.8-2.7,1-4.4c0.2-1.7,0.3-3.5,0.4-5.4c0-2.7-0.1-5.4-0.1-8.1
		c0-2.7-0.2-5.2-0.5-7.4c-0.4-2.2-1-4-1.9-5.4c-0.9-1.4-2.3-2.1-4.2-2.1c-1.9,0-3.3,0.8-4.2,2.1c-0.9,1.4-1.6,3.2-1.9,5.4
		c-0.4,2.2-0.5,4.7-0.5,7.4c0,2.7,0,5.4,0,8.1c0,1.9,0.2,3.7,0.4,5.4c0.2,1.7,0.5,3.2,1,4.4c0.5,1.3,1.2,2.3,2,3
		C291.9,197,293,197.4,294.3,197.4z"/>
	<path class="st1" d="M314.5,175.1c0,1.9,0,3.8,0,5.7c0,1.9,0,3.8-0.1,5.7c-0.1,1.8-0.2,3.5-0.4,5.1c-0.2,1.6-0.5,3-1,4.2
		c-0.5,1.2-1.2,2.2-2,2.9c-0.8,0.7-1.9,1-3.2,1v-2.1c1.4,0,2.5-0.7,3.1-2c0.6-1.3,1.1-3.1,1.3-5.2c0.2-2.1,0.3-4.6,0.2-7.2
		c0-2.7,0-5.4,0.1-8.1L314.5,175.1z M314.5,158.1c0,2.9,0,5.8,0,8.9c0,3.1,0,6,0.1,9c0.1,2.9,0.2,5.7,0.4,8.2c0.2,2.6,0.5,4.9,1,6.8
		c0.5,2,1.1,3.5,2,4.7c0.8,1.2,1.9,1.7,3.3,1.7v2.3c-1.7,0-3.1-0.6-4.2-1.8c-1.1-1.2-1.9-2.9-2.6-5c-0.6-2.1-1.1-4.6-1.4-7.3
		c-0.3-2.8-0.5-5.7-0.6-8.8c-0.1-3.1-0.1-6.2-0.1-9.4c0-3.2,0-6.3,0-9.2L314.5,158.1z M330,158c0,2.9,0,6,0,9.2c0,3.2,0,6.3-0.1,9.4
		c-0.1,3.1-0.3,6-0.5,8.8c-0.3,2.8-0.7,5.2-1.4,7.3c-0.7,2.1-1.5,3.8-2.6,5c-1.1,1.2-2.5,1.8-4.2,1.8v-2.3c1.4,0,2.5-0.6,3.3-1.8
		c0.8-1.2,1.5-2.7,2-4.6c0.5-1.9,0.8-4.2,1-6.8c0.2-2.6,0.3-5.4,0.4-8.3c0-2.9,0-5.9,0-9c0-3.1,0-6,0.1-8.9L330,158z M329.9,175.1
		c0,1.8,0.1,3.6,0.1,5.4c0,1.8,0,3.5,0,5.2c0,1.7,0.1,3.2,0.2,4.7c0.1,1.4,0.4,2.7,0.7,3.8c0.3,1.1,0.8,1.9,1.4,2.5
		c0.6,0.6,1.4,0.9,2.3,0.9v2.1c-1.3,0-2.4-0.3-3.2-1c-0.8-0.7-1.5-1.6-2-2.9c-0.5-1.2-0.8-2.6-1-4.2c-0.2-1.6-0.3-3.3-0.4-5.1
		c-0.1-1.8-0.1-3.7-0.1-5.7c0-1.9,0-3.8,0-5.7L329.9,175.1z"/>
	<path class="st1" d="M361.4,199.7c-1.8,0-3.1-0.6-4-1.8c-0.9-1.2-1.5-2.7-1.9-4.7c-0.6,1.9-1.5,3.5-2.6,4.7
		c-1.2,1.2-2.8,1.7-4.9,1.7c-2,0-3.7-0.5-4.8-1.7c-1.2-1.2-2-2.8-2.6-4.7c-0.4,1.9-1.1,3.5-1.9,4.7c-0.9,1.2-2.2,1.8-4,1.8v-2.1
		c1.1,0,1.9-0.4,2.6-1.2c0.6-0.8,1.1-1.9,1.4-3.2c0.3-1.4,0.5-3,0.6-4.8c0.1-1.8,0.1-3.7,0.1-5.7v-3.9v-56.5h2.1v40.3
		c0.6-1.4,1.5-2.5,2.5-3.3c1.1-0.8,2.5-1.2,4.2-1.2c2,0,3.5,0.6,4.7,1.7s2,2.6,2.6,4.5s1,3.9,1.2,6.3c0.2,2.4,0.3,4.8,0.3,7.2
		c0,2.5,0,4.9,0,7.3s0.1,4.5,0.4,6.3c0.3,1.8,0.7,3.3,1.3,4.5s1.6,1.7,2.9,1.7V199.7z M348,197.4c1.4,0,2.5-0.4,3.3-1.1
		c0.8-0.8,1.5-1.8,2-3c0.5-1.3,0.8-2.7,1-4.4c0.2-1.7,0.3-3.5,0.4-5.4c0-2.7-0.1-5.4-0.1-8.1c0-2.7-0.2-5.2-0.5-7.4
		c-0.4-2.2-1-4-1.9-5.4c-0.9-1.4-2.3-2.1-4.2-2.1c-1.6,0-2.9,0.6-3.8,1.6c-0.9,1.1-1.6,2.4-2,4.1c-0.4,1.7-0.7,3.7-0.8,5.9
		c-0.1,2.2-0.1,4.5-0.1,6.8c0,2.3,0,4.6,0.1,6.8c0.1,2.2,0.4,4.2,0.8,5.9c0.4,1.7,1.1,3.1,2,4.2C345.1,196.8,346.4,197.4,348,197.4z
		"/>
	<path class="st1" d="M368,176.4v-54.2h2v54.2c0,3.2,0.1,6.1,0.2,8.7c0.1,2.6,0.4,4.8,0.9,6.6c0.5,1.8,1.1,3.2,2,4.2
		c0.9,1,2.1,1.5,3.6,1.5v2.3c-1.1,0-2.1-0.2-3-0.5s-1.6-0.9-2.2-1.5c-0.6-0.7-1.1-1.4-1.6-2.4c-0.4-0.9-0.8-2-1-3.1
		c-0.5,2.3-1.4,4.1-2.6,5.5c-1.2,1.4-2.9,2.1-5.1,2.1v-2.3c1.8,0,3.1-0.7,4-1.9c0.9-1.2,1.6-2.8,2-4.8c0.4-2,0.6-4.2,0.7-6.7
		C368,181.5,368,179,368,176.4z"/>
	<path class="st1" d="M381.4,175.6c0-2.3,0.2-4.5,0.4-6.6c0.2-2.1,0.6-4,1.3-5.6c0.6-1.6,1.5-2.9,2.6-3.9c1.1-1,2.6-1.5,4.4-1.5
		c1.9,0,3.4,0.5,4.6,1.5c1.2,1,2,2.4,2.6,4.1c0.6,1.7,1,3.7,1.2,5.9c0.2,2.2,0.3,4.5,0.4,6.9v2.2h-15.5c0,2.3,0,4.6,0.1,6.8
		c0.1,2.2,0.4,4.2,0.8,5.9c0.4,1.7,1.1,3.1,2,4.2c0.9,1.1,2.1,1.6,3.8,1.6c1.1,0,2-0.3,2.7-0.8c0.7-0.5,1.3-1.2,1.8-2.1
		c0.5-0.9,0.9-1.9,1.2-3.1c0.3-1.2,0.5-2.5,0.6-3.9h2.5c0,1.4,0.1,2.8,0.3,4c0.2,1.2,0.4,2.3,0.8,3.2s0.8,1.6,1.4,2.1
		c0.6,0.5,1.3,0.7,2.1,0.7v2.1c-1.8,0-3.1-0.6-4-1.8c-0.9-1.2-1.5-2.7-1.9-4.7c-0.6,1.9-1.5,3.5-2.6,4.7c-1.2,1.2-2.8,1.7-4.9,1.7
		c-2,0-3.7-0.5-4.8-1.7c-1.2-1.2-2-2.8-2.6-4.7c-0.4,1.9-1.1,3.5-1.9,4.7c-0.9,1.2-2.2,1.8-4,1.8v-2.1c1.1,0,1.9-0.4,2.6-1.2
		c0.6-0.8,1.1-1.9,1.4-3.2c0.3-1.4,0.5-3,0.6-4.8c0.1-1.8,0.1-3.7,0.1-5.7v-3.9c0-0.4,0-0.8,0-1.2
		C381.4,177.2,381.4,176.5,381.4,175.6z M390.1,160.4c-1.4,0-2.6,0.5-3.4,1.3c-0.9,0.8-1.5,1.9-2,3.3c-0.5,1.4-0.8,3-1,4.8
		c-0.2,1.8-0.3,3.7-0.3,5.8v1h13.4c0-2.1-0.1-4.2-0.3-6.1c-0.1-1.9-0.4-3.7-0.9-5.1c-0.5-1.5-1.1-2.7-2-3.6
		C392.8,160.9,391.6,160.4,390.1,160.4z"/>
	<path class="st1" d="M437.7,176.4v-18.4h2v18.4c0,3.2,0.1,6.1,0.2,8.7c0.1,2.6,0.4,4.8,0.9,6.6c0.5,1.8,1.1,3.2,2,4.2
		c0.9,1,2.1,1.5,3.6,1.5v2.3c-1.1,0-2.1-0.2-3-0.5s-1.6-0.9-2.2-1.5c-0.6-0.7-1.1-1.4-1.6-2.4c-0.4-0.9-0.8-2-1-3.1
		c-0.5,2.3-1.4,4.1-2.6,5.5c-1.2,1.4-2.9,2.1-5.1,2.1v-2.3c1.8,0,3.1-0.7,4-1.9c0.9-1.2,1.6-2.8,2-4.8c0.4-2,0.6-4.2,0.7-6.7
		C437.7,181.5,437.7,179,437.7,176.4z M437.2,149.7c0-0.4,0.2-0.8,0.5-1.2c0.3-0.3,0.7-0.5,1.1-0.5c0.4,0,0.8,0.2,1.1,0.5
		c0.3,0.3,0.5,0.7,0.5,1.2c0,0.4-0.2,0.8-0.5,1.2c-0.3,0.3-0.7,0.5-1.1,0.5c-0.4,0-0.8-0.2-1.1-0.5
		C437.3,150.5,437.2,150.1,437.2,149.7z"/>
	<path class="st1" d="M473.2,199.7c-1.7,0-3-0.6-3.9-1.7c-0.9-1.1-1.6-2.6-2-4.4c-0.4-1.8-0.7-3.9-0.7-6.3c-0.1-2.3-0.1-4.7-0.1-7.2
		c0-2.5,0-4.9-0.1-7.2c-0.1-2.3-0.3-4.4-0.7-6.3c-0.4-1.9-1.1-3.4-2-4.5c-0.9-1.1-2.2-1.7-3.9-1.8c-1.7,0-3,0.6-3.9,1.8
		c-0.9,1.1-1.6,2.6-2,4.5c-0.4,1.9-0.7,4-0.7,6.3c-0.1,2.3-0.1,4.7-0.1,7.2c0,2.5,0,4.9-0.1,7.2c-0.1,2.3-0.3,4.4-0.7,6.3
		c-0.4,1.8-1.1,3.3-2,4.4c-0.9,1.1-2.2,1.7-3.9,1.7v-2.1c1.3,0,2.2-0.6,2.9-1.7c0.6-1.1,1.1-2.6,1.3-4.5c0.3-1.8,0.4-4,0.4-6.3
		s0-4.8,0-7.3c0-2.5,0.1-4.9,0.3-7.2c0.2-2.4,0.5-4.5,1.2-6.3c0.6-1.8,1.5-3.3,2.6-4.5s2.7-1.7,4.7-1.7c2,0,3.5,0.6,4.7,1.7
		s2,2.6,2.6,4.5c0.6,1.8,1,3.9,1.2,6.3c0.2,2.4,0.3,4.8,0.3,7.2c0,2.5,0,4.9,0,7.3s0.1,4.5,0.4,6.3c0.3,1.8,0.7,3.3,1.3,4.5
		s1.6,1.7,2.9,1.7V199.7z"/>
</g>
<g>
	<path class="st1" d="M133.5,287.5c1.1,0,1.9-0.6,2.5-1.7c0.6-1.1,1.1-2.6,1.4-4.6c0.3-1.9,0.5-4.2,0.6-6.7c0.1-2.6,0.1-5.3,0.1-8.2
		c0-2.9,0-5.8,0-8.9c0-3,0-6,0.1-8.9c0.1-2.9,0.3-5.6,0.6-8.2c0.3-2.6,0.8-4.8,1.4-6.7c0.6-1.9,1.5-3.4,2.6-4.5
		c1.1-1.1,2.4-1.7,4-1.7v2.5c-1.7,0-3,0.9-3.9,2.6c-0.9,1.7-1.6,4-2,6.8c-0.4,2.8-0.7,6-0.7,9.6c-0.1,3.6-0.1,7.2-0.1,11
		s0,7.4-0.1,10.9c-0.1,3.6-0.3,6.8-0.7,9.6c-0.4,2.8-1.1,5-2,6.8c-0.9,1.7-2.2,2.6-3.9,2.6V287.5z M139,270.1c0.5,2.5,1,4.8,1.5,7
		c0.5,2.1,1.1,4,1.8,5.6c0.7,1.6,1.4,2.8,2.2,3.7c0.8,0.9,1.8,1.4,2.8,1.4c1,0,1.8-0.4,2.6-1.2s1.5-1.9,2.1-3.2
		c0.6-1.4,1.2-3,1.7-4.9c0.5-1.9,1-3.9,1.5-6.2h2.4c-0.5,2.5-1.1,4.8-1.8,7c-0.6,2.2-1.4,4.1-2.2,5.7s-1.7,2.9-2.8,3.8
		c-1,0.9-2.2,1.4-3.5,1.4c-1,0-2-0.3-2.8-0.9c-0.8-0.6-1.6-1.4-2.3-2.5c-0.7-1.1-1.4-2.4-2-3.9c-0.6-1.5-1.2-3.2-1.7-4.9L139,270.1z
		 M155.3,248.5c-0.5-2.6-1-5-1.5-7.2c-0.5-2.2-1.2-4.2-1.8-5.9c-0.7-1.7-1.4-3-2.3-3.9c-0.8-1-1.8-1.4-2.8-1.4v-2.4
		c1.4,0,2.7,0.5,3.8,1.6c1.1,1.1,2.1,2.6,2.9,4.5c0.8,1.9,1.6,4.1,2.3,6.6c0.7,2.5,1.3,5.2,1.8,8.1H155.3z M157.5,272.4
		c0.4,2.2,0.9,4.3,1.4,6.1c0.5,1.9,1.1,3.5,1.7,4.9c0.6,1.4,1.4,2.5,2.1,3.2c0.8,0.8,1.7,1.2,2.7,1.2v2.4c-1.3,0-2.4-0.5-3.4-1.4
		c-1-0.9-1.9-2.2-2.7-3.8s-1.6-3.5-2.2-5.7c-0.6-2.2-1.2-4.5-1.8-7L157.5,272.4z"/>
	<path class="st1" d="M172.3,265.7c0,1.9,0,3.8,0,5.7c0,1.9,0,3.8-0.1,5.7c-0.1,1.8-0.2,3.5-0.4,5.1c-0.2,1.6-0.5,3-1,4.2
		c-0.5,1.2-1.2,2.2-2,2.9s-1.9,1-3.2,1v-2.1c1.4,0,2.5-0.7,3.1-2c0.6-1.3,1.1-3.1,1.3-5.2c0.2-2.1,0.3-4.6,0.2-7.2
		c0-2.7,0-5.4,0.1-8.1L172.3,265.7z M172.2,248.6c0,2.9,0,5.8,0,8.9c0,3.1,0,6,0.1,9c0.1,2.9,0.2,5.7,0.4,8.2c0.2,2.6,0.5,4.9,1,6.8
		c0.5,2,1.1,3.5,2,4.7c0.8,1.2,1.9,1.7,3.3,1.7v2.3c-1.7,0-3.1-0.6-4.2-1.8c-1.1-1.2-1.9-2.9-2.6-5c-0.6-2.1-1.1-4.6-1.4-7.3
		c-0.3-2.8-0.5-5.7-0.6-8.8c-0.1-3.1-0.1-6.2-0.1-9.4c0-3.2,0-6.3,0-9.2L172.2,248.6z M187.8,248.5c0,2.9,0,6,0,9.2
		c0,3.2,0,6.3-0.1,9.4c-0.1,3.1-0.3,6-0.5,8.8s-0.7,5.2-1.4,7.3c-0.7,2.1-1.5,3.8-2.6,5c-1.1,1.2-2.5,1.8-4.2,1.8v-2.3
		c1.4,0,2.5-0.6,3.3-1.8c0.8-1.1,1.5-2.7,2-4.6c0.5-1.9,0.8-4.2,1-6.8c0.2-2.6,0.3-5.4,0.4-8.3c0-2.9,0-5.9,0-9c0-3.1,0-6,0.1-8.9
		L187.8,248.5z M187.7,265.6c0,1.8,0.1,3.6,0.1,5.4s0,3.5,0,5.2c0,1.7,0.1,3.2,0.2,4.7c0.1,1.4,0.4,2.7,0.7,3.8
		c0.3,1.1,0.8,1.9,1.4,2.5c0.6,0.6,1.4,0.9,2.3,0.9v2.1c-1.3,0-2.4-0.3-3.2-1s-1.5-1.6-2-2.9c-0.5-1.2-0.8-2.6-1-4.2
		c-0.2-1.6-0.3-3.3-0.4-5.1c-0.1-1.8-0.1-3.7-0.1-5.7c0-1.9,0-3.8,0-5.7L187.7,265.6z"/>
	<path class="st1" d="M199.1,267v-54.2h2V267c0,3.2,0.1,6.1,0.2,8.7c0.1,2.6,0.4,4.8,0.9,6.6c0.5,1.8,1.1,3.2,2,4.2
		c0.9,1,2.1,1.5,3.6,1.5v2.3c-1.1,0-2.1-0.2-3-0.5c-0.8-0.4-1.6-0.9-2.2-1.5c-0.6-0.7-1.1-1.4-1.6-2.4c-0.4-0.9-0.8-2-1-3.1
		c-0.5,2.3-1.4,4.1-2.6,5.5c-1.2,1.4-2.9,2.1-5.1,2.1v-2.3c1.8,0,3.1-0.7,4-1.9c0.9-1.2,1.6-2.8,2-4.8c0.4-2,0.6-4.2,0.7-6.7
		C199.1,272,199.1,269.5,199.1,267z"/>
	<path class="st1" d="M216.5,224.7V267c0,3.2,0.1,6.1,0.2,8.7c0.1,2.6,0.5,4.8,0.9,6.6c0.5,1.8,1.1,3.2,2,4.2c0.9,1,2.1,1.5,3.6,1.5
		v2.3c-1.1,0-2.1-0.2-3-0.5c-0.8-0.4-1.6-0.9-2.2-1.5c-0.6-0.7-1.2-1.4-1.6-2.4c-0.4-0.9-0.8-2-1-3.1c-0.5,2.3-1.4,4.1-2.6,5.5
		c-1.2,1.4-2.9,2.1-5.1,2.1v-2.3c1.8,0,3.1-0.7,4-1.9c0.9-1.2,1.6-2.8,2-4.8c0.4-2,0.6-4.2,0.7-6.7c0-2.5,0.1-5,0.1-7.6v-42.3H216.5
		z M223.2,236.6h-15.3v-2.2h15.3V236.6z"/>
	<path class="st1" d="M229.9,265.7c0,1.9,0,3.8,0,5.7c0,1.9,0,3.8-0.1,5.7c-0.1,1.8-0.2,3.5-0.4,5.1c-0.2,1.6-0.5,3-1,4.2
		c-0.5,1.2-1.2,2.2-2,2.9s-1.9,1-3.2,1v-2.1c1.4,0,2.5-0.7,3.1-2c0.6-1.3,1.1-3.1,1.3-5.2c0.2-2.1,0.3-4.6,0.2-7.2
		c0-2.7,0-5.4,0.1-8.1L229.9,265.7z M229.9,248.6c0,2.9,0,5.8,0,8.9c0,3.1,0,6,0.1,9c0.1,2.9,0.2,5.7,0.4,8.2c0.2,2.6,0.5,4.9,1,6.8
		c0.5,2,1.1,3.5,2,4.7c0.8,1.2,1.9,1.7,3.3,1.7v2.3c-1.7,0-3.1-0.6-4.2-1.8c-1.1-1.2-1.9-2.9-2.6-5c-0.6-2.1-1.1-4.6-1.4-7.3
		c-0.3-2.8-0.5-5.7-0.6-8.8c-0.1-3.1-0.1-6.2-0.1-9.4c0-3.2,0-6.3,0-9.2L229.9,248.6z M245.5,248.5c0,2.9,0,6,0,9.2
		c0,3.2,0,6.3-0.1,9.4c-0.1,3.1-0.3,6-0.5,8.8s-0.7,5.2-1.4,7.3c-0.7,2.1-1.5,3.8-2.6,5c-1.1,1.2-2.5,1.8-4.2,1.8v-2.3
		c1.4,0,2.5-0.6,3.3-1.8c0.8-1.1,1.5-2.7,2-4.6c0.5-1.9,0.8-4.2,1-6.8c0.2-2.6,0.3-5.4,0.4-8.3c0-2.9,0-5.9,0-9c0-3.1,0-6,0.1-8.9
		L245.5,248.5z M245.4,265.6c0,1.8,0.1,3.6,0.1,5.4s0,3.5,0,5.2c0,1.7,0.1,3.2,0.2,4.7c0.1,1.4,0.4,2.7,0.7,3.8
		c0.3,1.1,0.8,1.9,1.4,2.5c0.6,0.6,1.4,0.9,2.3,0.9v2.1c-1.3,0-2.4-0.3-3.2-1s-1.5-1.6-2-2.9c-0.5-1.2-0.8-2.6-1-4.2
		c-0.2-1.6-0.3-3.3-0.4-5.1c-0.1-1.8-0.1-3.7-0.1-5.7c0-1.9,0-3.8,0-5.7L245.4,265.6z"/>
	<path class="st1" d="M256.7,267v-18.4h2v4.6c0.6-1.4,1.5-2.5,2.6-3.3c1.1-0.8,2.5-1.2,4.1-1.2v2.3c-1.4,0-2.5,0.5-3.4,1.3
		c-0.9,0.8-1.5,1.9-2,3.2c-0.5,1.3-0.8,2.9-1,4.7c-0.2,1.8-0.3,3.7-0.3,5.7v1.1c0,3.2,0.1,6.1,0.2,8.7c0.1,2.6,0.4,4.8,0.9,6.6
		c0.5,1.8,1.1,3.2,2,4.2c0.9,1,2.1,1.5,3.6,1.5v2.3c-1.1,0-2.1-0.2-3-0.5c-0.8-0.4-1.6-0.9-2.2-1.5c-0.6-0.7-1.1-1.4-1.6-2.4
		c-0.4-0.9-0.8-2-1-3.1c-0.5,2.3-1.4,4.1-2.6,5.5c-1.2,1.4-2.9,2.1-5.1,2.1v-2.3c1.8,0,3.1-0.7,4-1.9c0.9-1.2,1.6-2.8,2-4.8
		c0.4-2,0.6-4.2,0.7-6.7C256.7,272,256.7,269.5,256.7,267z"/>
	<path class="st1" d="M270.1,266.1c0-2.3,0.2-4.5,0.4-6.6c0.2-2.1,0.6-4,1.3-5.6c0.6-1.6,1.5-2.9,2.6-3.9c1.1-1,2.6-1.5,4.4-1.5
		c1.9,0,3.4,0.5,4.6,1.5c1.2,1,2,2.4,2.6,4.1c0.6,1.7,1,3.7,1.2,5.9c0.2,2.2,0.3,4.5,0.4,6.9v2.2h-15.5c0,2.3,0,4.6,0.1,6.8
		c0.1,2.2,0.4,4.2,0.8,5.9c0.4,1.7,1.1,3.1,2,4.2c0.9,1.1,2.1,1.6,3.8,1.6c1.1,0,2-0.3,2.7-0.8c0.7-0.5,1.3-1.2,1.8-2.1
		c0.5-0.9,0.9-1.9,1.2-3.1c0.3-1.2,0.5-2.5,0.6-3.9h2.5c0,1.4,0.1,2.8,0.3,4c0.2,1.2,0.4,2.3,0.8,3.2c0.3,0.9,0.8,1.6,1.4,2.1
		c0.6,0.5,1.3,0.7,2.1,0.7v2.1c-1.8,0-3.1-0.6-4-1.8c-0.9-1.2-1.5-2.7-1.9-4.7c-0.6,1.9-1.5,3.5-2.6,4.7c-1.2,1.2-2.8,1.7-4.9,1.7
		c-2,0-3.7-0.5-4.8-1.7c-1.2-1.2-2-2.8-2.6-4.7c-0.4,1.9-1.1,3.5-1.9,4.7c-0.9,1.2-2.2,1.8-4,1.8v-2.1c1.1,0,1.9-0.4,2.6-1.2
		c0.6-0.8,1.1-1.9,1.4-3.2c0.3-1.4,0.5-3,0.6-4.8c0.1-1.8,0.1-3.7,0.1-5.7v-3.9c0-0.4,0-0.8,0-1.2S270.1,267.1,270.1,266.1z
		 M278.8,250.9c-1.4,0-2.6,0.5-3.4,1.3c-0.9,0.8-1.5,1.9-2,3.3c-0.5,1.4-0.8,3-1,4.8c-0.2,1.8-0.3,3.7-0.3,5.8v1h13.4
		c0-2.1-0.1-4.2-0.3-6.1c-0.1-1.9-0.4-3.7-0.9-5.1c-0.5-1.5-1.1-2.7-2-3.6C281.5,251.4,280.3,250.9,278.8,250.9z"/>
	<path class="st1" d="M346.5,290.2c-1.8,0-3.1-0.6-4-1.8c-0.9-1.2-1.5-2.7-1.9-4.7c-0.6,1.9-1.5,3.5-2.6,4.7
		c-1.2,1.2-2.8,1.7-4.9,1.7c-2,0-3.7-0.5-4.8-1.7c-1.2-1.2-2-2.8-2.6-4.7c-0.4,1.9-1.1,3.5-1.9,4.7c-0.9,1.2-2.2,1.8-4,1.8v-2.1
		c1.1,0,1.9-0.4,2.6-1.2c0.6-0.8,1.1-1.9,1.4-3.2c0.3-1.4,0.5-3,0.6-4.8c0.1-1.8,0.1-3.7,0.1-5.7v-3.9c0-2.5,0.1-5,0.2-7.5
		c0.1-2.5,0.5-4.7,1.1-6.6c0.6-1.9,1.5-3.5,2.6-4.7c1.2-1.2,2.8-1.8,4.8-1.8c2,0,3.5,0.6,4.7,1.7c1.2,1.1,2,2.6,2.6,4.5
		c0.6,1.8,1,3.9,1.2,6.3s0.3,4.8,0.3,7.2c0,2.5,0,4.9,0,7.3c0,2.4,0.1,4.5,0.4,6.3c0.3,1.8,0.7,3.3,1.3,4.5c0.6,1.1,1.6,1.7,2.9,1.7
		V290.2z M333.1,287.9c1.5,0,2.6-0.5,3.5-1.4c0.9-0.9,1.5-2.1,2-3.6c0.5-1.5,0.8-3.2,0.9-5.2c0.1-2,0.2-4,0.3-6.2c0-2.5,0-5-0.1-7.4
		c-0.1-2.5-0.3-4.7-0.7-6.6c-0.4-1.9-1.1-3.5-2-4.7c-0.9-1.2-2.2-1.8-4-1.9c-1.6,0-2.9,0.6-3.8,1.6c-0.9,1.1-1.6,2.4-2,4.1
		c-0.4,1.7-0.7,3.7-0.8,5.9c-0.1,2.2-0.1,4.5-0.1,6.8s0,4.6,0.1,6.8c0.1,2.2,0.4,4.2,0.8,5.9c0.4,1.7,1.1,3.1,2,4.2
		C330.2,287.3,331.5,287.9,333.1,287.9z"/>
	<path class="st1" d="M373.2,290.2c-1.7,0-3-0.6-3.9-1.7c-0.9-1.1-1.6-2.6-2-4.4c-0.4-1.8-0.7-3.9-0.7-6.3c-0.1-2.3-0.1-4.7-0.1-7.2
		c0-2.5,0-4.9-0.1-7.2c-0.1-2.3-0.3-4.4-0.7-6.3c-0.4-1.9-1.1-3.4-2-4.5c-0.9-1.1-2.2-1.7-3.9-1.8c-1.7,0-3,0.6-3.9,1.8
		c-0.9,1.1-1.6,2.6-2,4.5c-0.4,1.9-0.7,4-0.7,6.3c-0.1,2.3-0.1,4.7-0.1,7.2c0,2.5,0,4.9-0.1,7.2c-0.1,2.3-0.3,4.4-0.7,6.3
		c-0.4,1.8-1.1,3.3-2,4.4c-0.9,1.1-2.2,1.7-3.9,1.7v-2.1c1.3,0,2.2-0.6,2.9-1.7c0.6-1.1,1.1-2.6,1.3-4.5c0.3-1.8,0.4-4,0.4-6.3
		c0-2.4,0-4.8,0-7.3c0-2.5,0.1-4.9,0.3-7.2c0.2-2.4,0.5-4.5,1.2-6.3c0.6-1.8,1.5-3.3,2.6-4.5s2.7-1.7,4.7-1.7s3.5,0.6,4.7,1.7
		s2,2.6,2.6,4.5c0.6,1.8,1,3.9,1.2,6.3c0.2,2.4,0.3,4.8,0.3,7.2s0,4.9,0,7.3c0,2.4,0.1,4.5,0.4,6.3s0.7,3.3,1.3,4.5
		c0.6,1.1,1.6,1.7,2.9,1.7V290.2z"/>
	<path class="st1" d="M373.2,288.1c1.3,0,2.2-0.6,2.9-1.7c0.6-1.1,1.1-2.6,1.3-4.5c0.3-1.8,0.4-4,0.4-6.3c0-2.4,0-4.8,0-7.3
		s0.1-4.9,0.3-7.2c0.2-2.4,0.5-4.5,1.2-6.3c0.6-1.8,1.5-3.3,2.6-4.5s2.7-1.7,4.7-1.7c1.7,0,3.1,0.4,4.1,1.2c1.1,0.8,1.9,1.9,2.6,3.3
		v-40.3h2.1v56.5c0,0.7,0,1.3,0,1.9c0,0.6,0,1.3-0.1,1.9c0,2,0,3.9,0.1,5.7c0.1,1.8,0.3,3.4,0.6,4.8c0.3,1.4,0.8,2.5,1.4,3.2
		c0.6,0.8,1.5,1.2,2.6,1.2v2.1c-1.8,0-3.1-0.6-4-1.8s-1.5-2.8-1.9-4.7c-0.6,1.9-1.5,3.5-2.7,4.7c-1.2,1.2-2.8,1.8-4.8,1.7
		c-2.1,0-3.7-0.5-4.9-1.7c-1.2-1.2-2-2.7-2.6-4.6c-0.4,1.9-1.1,3.4-2,4.6c-0.9,1.2-2.2,1.8-4,1.8V288.1z M386.6,287.9
		c1.6,0,2.9-0.6,3.8-1.6c0.9-1.1,1.6-2.4,2-4.2s0.7-3.7,0.8-5.9c0.1-2.2,0.1-4.5,0.1-6.8v-1.6c0-2.2-0.1-4.3-0.2-6.3
		c-0.1-2-0.4-3.8-0.9-5.4c-0.5-1.5-1.1-2.8-2-3.7c-0.9-0.9-2.1-1.4-3.6-1.5c-1.7,0-3,0.7-4,1.9c-0.9,1.2-1.6,2.8-2,4.7
		c-0.4,1.9-0.6,4.1-0.7,6.6c-0.1,2.5-0.1,4.9-0.1,7.4c0,2.1,0.1,4.2,0.2,6.2c0.1,2,0.5,3.7,0.9,5.2s1.1,2.7,2,3.6
		C383.9,287.4,385.1,287.9,386.6,287.9z"/>
	<path class="st1" d="M473.1,290.2c-1.5,0-2.8-0.6-4-1.9c-1.1-1.2-2.1-2.9-3-5.1s-1.7-4.6-2.4-7.4s-1.3-5.7-1.9-8.8
		s-1.1-6.3-1.6-9.5c-0.5-3.2-1-6.3-1.6-9.3c-1,3.2-2.2,5.7-3.5,7.7c-1.4,1.9-3,2.9-4.9,2.9c-1,0-1.8-0.3-2.7-0.8s-1.6-1.3-2.3-2.2
		c-0.7-1-1.3-2.1-1.9-3.5c-0.6-1.3-1.1-2.8-1.6-4.5c-0.5,2.9-1.1,6-1.6,9.2c-0.5,3.2-1,6.4-1.6,9.5c-0.5,3.1-1.2,6.1-1.8,8.9
		c-0.7,2.8-1.5,5.3-2.4,7.4c-0.9,2.1-1.9,3.9-3.1,5.1s-2.5,2-4,2.1v-2.4c1.4,0,2.7-0.9,3.7-2.6c1-1.7,1.9-4,2.7-6.8
		c0.8-2.8,1.5-6,2.1-9.6c0.6-3.6,1.2-7.3,1.9-11c0.6-3.8,1.3-7.4,2-11c0.7-3.6,1.5-6.8,2.5-9.6c1-2.8,2.1-5.1,3.3-6.8
		c1.3-1.7,2.8-2.6,4.6-2.6c1.8,0,3.3,0.9,4.6,2.6c1.3,1.7,2.4,4,3.4,6.8c1,2.8,1.8,6,2.5,9.6c0.7,3.6,1.3,7.3,1.9,11
		c0.6,3.8,1.2,7.4,1.8,11s1.3,6.8,2.1,9.6c0.8,2.8,1.7,5.1,2.7,6.8c1,1.7,2.3,2.6,3.8,2.6V290.2z M450.2,230.1c-0.9,0-1.7,0.3-2.5,1
		c-0.7,0.7-1.4,1.6-2,2.7c-0.6,1.2-1.1,2.6-1.6,4.2c-0.5,1.6-0.9,3.4-1.4,5.3c0.4,1.9,0.9,3.7,1.4,5.3c0.5,1.6,1,3,1.6,4.2
		c0.6,1.2,1.3,2.1,2,2.7c0.7,0.7,1.6,1,2.5,1c0.9,0,1.7-0.3,2.4-1c0.7-0.7,1.3-1.6,1.9-2.7c0.6-1.2,1.2-2.5,1.6-4.2
		c0.5-1.6,1-3.4,1.4-5.3c-0.4-1.9-0.9-3.7-1.4-5.4c-0.5-1.6-1-3-1.6-4.2c-0.6-1.2-1.2-2.1-1.9-2.7
		C451.9,230.5,451.1,230.1,450.2,230.1z"/>
	<path class="st1" d="M479.8,267v-18.4h2v4.6c0.6-1.4,1.5-2.5,2.6-3.3c1.1-0.8,2.5-1.2,4.1-1.2v2.3c-1.4,0-2.5,0.5-3.4,1.3
		c-0.9,0.8-1.5,1.9-2,3.2c-0.5,1.3-0.8,2.9-1,4.7c-0.2,1.8-0.3,3.7-0.3,5.7v1.1c0,3.2,0.1,6.1,0.2,8.7c0.1,2.6,0.4,4.8,0.9,6.6
		c0.5,1.8,1.1,3.2,2,4.2c0.9,1,2.1,1.5,3.6,1.5v2.3c-1.1,0-2.1-0.2-3-0.5c-0.8-0.4-1.6-0.9-2.2-1.5c-0.6-0.7-1.1-1.4-1.6-2.4
		c-0.4-0.9-0.8-2-1-3.1c-0.5,2.3-1.4,4.1-2.6,5.5c-1.2,1.4-2.9,2.1-5.1,2.1v-2.3c1.8,0,3.1-0.7,4-1.9c0.9-1.2,1.6-2.8,2-4.8
		c0.4-2,0.6-4.2,0.7-6.7C479.8,272,479.8,269.5,479.8,267z"/>
	<path class="st1" d="M498.2,224.7V267c0,3.2,0.1,6.1,0.2,8.7c0.1,2.6,0.5,4.8,0.9,6.6c0.5,1.8,1.1,3.2,2,4.2c0.9,1,2.1,1.5,3.6,1.5
		v2.3c-1.1,0-2.1-0.2-3-0.5c-0.8-0.4-1.6-0.9-2.2-1.5c-0.6-0.7-1.2-1.4-1.6-2.4c-0.4-0.9-0.8-2-1-3.1c-0.5,2.3-1.4,4.1-2.6,5.5
		c-1.2,1.4-2.9,2.1-5.1,2.1v-2.3c1.8,0,3.1-0.7,4-1.9c0.9-1.2,1.6-2.8,2-4.8s0.6-4.2,0.7-6.7c0-2.5,0.1-5,0.1-7.6v-42.3H498.2z
		 M504.9,236.6h-15.3v-2.2h15.3V236.6z"/>
	<path class="st1" d="M539,267v-18.4h2V267c0,3.2,0.1,6.1,0.2,8.7c0.1,2.6,0.4,4.8,0.9,6.6c0.5,1.8,1.1,3.2,2,4.2
		c0.9,1,2.1,1.5,3.6,1.5v2.3c-1.1,0-2.1-0.2-3-0.5c-0.8-0.4-1.6-0.9-2.2-1.5c-0.6-0.7-1.1-1.4-1.6-2.4c-0.4-0.9-0.8-2-1-3.1
		c-0.5,2.3-1.4,4.1-2.6,5.5c-1.2,1.4-2.9,2.1-5.1,2.1v-2.3c1.8,0,3.1-0.7,4-1.9c0.9-1.2,1.6-2.8,2-4.8c0.4-2,0.6-4.2,0.7-6.7
		C539,272,539,269.5,539,267z M538.5,240.2c0-0.4,0.2-0.8,0.5-1.2c0.3-0.3,0.7-0.5,1.1-0.5c0.4,0,0.8,0.2,1.1,0.5
		c0.3,0.3,0.5,0.7,0.5,1.2c0,0.4-0.2,0.8-0.5,1.2c-0.3,0.3-0.7,0.5-1.1,0.5c-0.4,0-0.8-0.2-1.1-0.5
		C538.7,241,538.5,240.6,538.5,240.2z"/>
	<path class="st1" d="M574.5,290.2c-1.7,0-3-0.6-3.9-1.7c-0.9-1.1-1.6-2.6-2-4.4c-0.4-1.8-0.7-3.9-0.7-6.3c-0.1-2.3-0.1-4.7-0.1-7.2
		c0-2.5,0-4.9-0.1-7.2c-0.1-2.3-0.3-4.4-0.7-6.3c-0.4-1.9-1.1-3.4-2-4.5c-0.9-1.1-2.2-1.7-3.9-1.8c-1.7,0-3,0.6-3.9,1.8
		c-0.9,1.1-1.6,2.6-2,4.5c-0.4,1.9-0.7,4-0.7,6.3c-0.1,2.3-0.1,4.7-0.1,7.2c0,2.5,0,4.9-0.1,7.2s-0.3,4.4-0.7,6.3
		c-0.4,1.8-1.1,3.3-2,4.4c-0.9,1.1-2.2,1.7-3.9,1.7v-2.1c1.3,0,2.2-0.6,2.9-1.7c0.6-1.1,1.1-2.6,1.3-4.5c0.3-1.8,0.4-4,0.4-6.3
		c0-2.4,0-4.8,0-7.3s0.1-4.9,0.3-7.2c0.2-2.4,0.5-4.5,1.2-6.3c0.6-1.8,1.5-3.3,2.6-4.5s2.7-1.7,4.7-1.7c2,0,3.5,0.6,4.7,1.7
		s2,2.6,2.6,4.5c0.6,1.8,1,3.9,1.2,6.3s0.3,4.8,0.3,7.2c0,2.5,0,4.9,0,7.3c0,2.4,0.1,4.5,0.4,6.3c0.3,1.8,0.7,3.3,1.3,4.5
		c0.6,1.1,1.6,1.7,2.9,1.7V290.2z"/>
</g>
<g>
	<path class="st1" d="M123.4,315.2v42.3c0,3.2,0.1,6.1,0.2,8.7c0.1,2.6,0.5,4.8,0.9,6.6c0.5,1.8,1.1,3.2,2,4.2
		c0.9,1,2.1,1.5,3.6,1.5v2.3c-1.1,0-2.1-0.2-3-0.5c-0.8-0.4-1.6-0.9-2.2-1.5c-0.6-0.7-1.2-1.4-1.6-2.4c-0.4-0.9-0.8-2-1-3.1
		c-0.5,2.3-1.4,4.1-2.6,5.5c-1.2,1.4-2.9,2.1-5.1,2.1v-2.3c1.8,0,3.1-0.7,4-1.9c0.9-1.2,1.6-2.8,2-4.8c0.4-2,0.6-4.2,0.7-6.7
		c0-2.5,0.1-5,0.1-7.6v-42.3H123.4z M130.1,327.1h-15.3v-2.2h15.3V327.1z"/>
	<path class="st1" d="M134.7,303.3h2v40.5c0.6-1.4,1.5-2.6,2.6-3.4c1.1-0.8,2.5-1.3,4.2-1.3c2,0,3.5,0.6,4.7,1.7
		c1.2,1.1,2,2.6,2.6,4.5c0.6,1.8,1,3.9,1.2,6.3s0.3,4.8,0.3,7.2c0,2.5,0,4.9,0,7.3c0,2.4,0.1,4.5,0.4,6.3c0.3,1.8,0.7,3.3,1.3,4.5
		c0.6,1.1,1.6,1.7,2.9,1.7v2.1c-1.7,0-3-0.6-3.9-1.7c-0.9-1.1-1.6-2.6-2-4.4c-0.4-1.8-0.7-3.9-0.7-6.3c-0.1-2.3-0.1-4.7-0.1-7.2
		c0-2.5,0-4.9-0.1-7.2c-0.1-2.3-0.3-4.4-0.7-6.3c-0.4-1.9-1.1-3.4-2-4.5c-0.9-1.1-2.2-1.7-3.9-1.8c-1.7,0-3,0.6-3.9,1.8
		c-0.9,1.1-1.6,2.6-2,4.5c-0.4,1.9-0.7,4-0.7,6.3c-0.1,2.3-0.1,4.7-0.1,7.2c0,2.5,0,4.9-0.1,7.2c-0.1,2.3-0.3,4.4-0.7,6.3
		c-0.4,1.8-1.1,3.3-2,4.4c-0.9,1.1-2.2,1.7-3.9,1.7v-2.1c1.1,0,2-0.4,2.6-1.3c0.6-0.9,1.1-2,1.4-3.4c0.3-1.4,0.5-3.1,0.5-5
		c0.1-1.9,0.1-3.9,0.1-6V303.3z"/>
	<path class="st1" d="M161.6,356.7c0-2.3,0.2-4.5,0.4-6.6c0.2-2.1,0.6-4,1.3-5.6c0.6-1.6,1.5-2.9,2.6-3.9c1.1-1,2.6-1.5,4.4-1.5
		c1.9,0,3.4,0.5,4.6,1.5c1.2,1,2,2.4,2.6,4.1c0.6,1.7,1,3.7,1.2,5.9c0.2,2.2,0.3,4.5,0.4,6.9v2.2h-15.5c0,2.3,0,4.6,0.1,6.8
		c0.1,2.2,0.4,4.2,0.8,5.9c0.4,1.7,1.1,3.1,2,4.2c0.9,1.1,2.1,1.6,3.8,1.6c1.1,0,2-0.3,2.7-0.8c0.7-0.5,1.3-1.2,1.8-2.1
		c0.5-0.9,0.9-1.9,1.2-3.1c0.3-1.2,0.5-2.5,0.6-3.9h2.5c0,1.4,0.1,2.8,0.3,4c0.2,1.2,0.4,2.3,0.8,3.2c0.3,0.9,0.8,1.6,1.4,2.1
		c0.6,0.5,1.3,0.7,2.1,0.7v2.1c-1.8,0-3.1-0.6-4-1.8c-0.9-1.2-1.5-2.7-1.9-4.7c-0.6,1.9-1.5,3.5-2.6,4.7c-1.2,1.2-2.8,1.7-4.9,1.7
		c-2,0-3.7-0.5-4.8-1.7c-1.2-1.2-2-2.8-2.6-4.7c-0.4,1.9-1.1,3.5-1.9,4.7c-0.9,1.2-2.2,1.8-4,1.8v-2.1c1.1,0,1.9-0.4,2.6-1.2
		c0.6-0.8,1.1-1.9,1.4-3.2c0.3-1.4,0.5-3,0.6-4.8c0.1-1.8,0.1-3.7,0.1-5.7v-3.9c0-0.4,0-0.8,0-1.2S161.5,357.6,161.6,356.7z
		 M170.3,341.4c-1.4,0-2.6,0.5-3.4,1.3c-0.9,0.8-1.5,1.9-2,3.3c-0.5,1.4-0.8,3-1,4.8c-0.2,1.8-0.3,3.7-0.3,5.8v1H177
		c0-2.1-0.1-4.2-0.3-6.1c-0.1-1.9-0.4-3.7-0.9-5.1c-0.5-1.5-1.1-2.7-2-3.6C172.9,341.9,171.8,341.5,170.3,341.4z"/>
	<path class="st1" d="M256.8,380.8c-1.5,0-2.8-0.6-4-1.9c-1.1-1.2-2.1-2.9-3-5.1c-0.9-2.1-1.7-4.6-2.4-7.4c-0.7-2.8-1.3-5.7-1.9-8.8
		c-0.6-3.1-1.1-6.3-1.6-9.5c-0.5-3.2-1-6.3-1.6-9.3c-1,3.2-2.2,5.7-3.5,7.7c-1.4,1.9-3,2.9-4.9,2.9c-1,0-1.8-0.3-2.7-0.8
		c-0.8-0.5-1.6-1.3-2.3-2.2c-0.7-1-1.3-2.1-1.9-3.5c-0.6-1.3-1.1-2.8-1.6-4.5c-0.5,2.9-1.1,6-1.6,9.2c-0.5,3.2-1,6.4-1.6,9.5
		c-0.5,3.1-1.2,6.1-1.8,8.9c-0.7,2.8-1.5,5.3-2.4,7.4c-0.9,2.1-1.9,3.9-3.1,5.1c-1.2,1.3-2.5,2-4,2.1v-2.4c1.4,0,2.7-0.9,3.7-2.6
		c1-1.7,1.9-4,2.7-6.8c0.8-2.8,1.5-6,2.1-9.6c0.6-3.6,1.2-7.3,1.9-11c0.6-3.8,1.3-7.4,2-11s1.5-6.8,2.5-9.6c1-2.8,2.1-5.1,3.3-6.8
		c1.3-1.7,2.8-2.6,4.6-2.6c1.8,0,3.3,0.9,4.6,2.6c1.3,1.7,2.4,4,3.4,6.8c1,2.8,1.8,6,2.5,9.6c0.7,3.6,1.3,7.3,1.9,11
		c0.6,3.8,1.2,7.4,1.8,11c0.6,3.6,1.3,6.8,2.1,9.6c0.8,2.8,1.7,5.1,2.7,6.8c1,1.7,2.3,2.6,3.8,2.6V380.8z M233.9,320.7
		c-0.9,0-1.7,0.3-2.5,1c-0.7,0.7-1.4,1.6-2,2.7c-0.6,1.2-1.1,2.6-1.6,4.2c-0.5,1.6-0.9,3.4-1.4,5.3c0.4,1.9,0.9,3.7,1.4,5.3
		c0.5,1.6,1,3,1.6,4.2c0.6,1.2,1.3,2.1,2,2.7c0.7,0.7,1.6,1,2.5,1c0.9,0,1.7-0.3,2.4-1c0.7-0.7,1.3-1.6,1.9-2.7
		c0.6-1.2,1.2-2.5,1.6-4.2c0.5-1.6,1-3.4,1.4-5.3c-0.4-1.9-0.9-3.7-1.4-5.4c-0.5-1.6-1-3-1.6-4.2c-0.6-1.2-1.2-2.1-1.9-2.7
		C235.6,321,234.8,320.7,233.9,320.7z"/>
	<path class="st1" d="M264.1,385.6c0.4,2.3,1,4.1,1.9,5.5c0.9,1.4,2.3,2.2,4.2,2.2c1.5,0,2.7-0.5,3.6-1.5c0.9-1,1.5-2.2,2-3.8
		c0.5-1.6,0.7-3.4,0.9-5.5c0.1-2.1,0.2-4.2,0.2-6.4c-0.7,1.4-1.5,2.6-2.6,3.4c-1.1,0.8-2.5,1.2-4.1,1.2c-2.1,0-3.7-0.5-4.9-1.7
		c-1.2-1.2-2-2.7-2.6-4.6c-0.4,1.9-1.1,3.4-2,4.6c-0.9,1.2-2.2,1.8-4,1.8v-2.1c1.3,0,2.2-0.6,2.9-1.7c0.6-1.1,1.1-2.6,1.3-4.5
		c0.3-1.8,0.4-4,0.4-6.3c0-2.4,0-4.8,0-7.3c0-2.5,0.1-4.9,0.3-7.2c0.2-2.4,0.5-4.5,1.2-6.3c0.6-1.8,1.5-3.3,2.6-4.5
		c1.2-1.1,2.7-1.7,4.7-1.7c2,0,3.7,0.6,4.8,1.8c1.2,1.2,2,2.8,2.6,4.7c0.6,2,0.9,4.2,1.1,6.7c0.2,2.5,0.2,5,0.2,7.5
		c0,2.2-0.1,4.4-0.2,6.4c0.1,1.4,0.2,2.8,0.1,4.3s0,2.8,0.2,4c0.2,1.2,0.6,2.2,1.2,2.9c0.6,0.8,1.7,1.1,3.2,1.1v2.1
		c-1.1,0-2-0.1-2.7-0.4c-0.8-0.2-1.4-0.6-1.9-1c-0.1,2.1-0.2,4.2-0.5,6.2c-0.3,2-0.7,3.7-1.3,5.2c-0.6,1.5-1.5,2.7-2.6,3.5
		c-1.1,0.9-2.5,1.3-4.3,1.3c-1.4,0-2.5-0.2-3.5-0.7c-1-0.5-1.7-1.2-2.4-2.1c-0.6-0.9-1.1-2-1.5-3.2c-0.4-1.2-0.7-2.6-0.9-4H264.1z
		 M263.5,359.9c0,2.3,0,4.6,0.1,6.8c0.1,2.2,0.4,4.2,0.8,5.9c0.4,1.7,1.1,3.1,2,4.2c0.9,1.1,2.1,1.6,3.8,1.6c1.6,0,2.9-0.6,3.8-1.6
		c0.9-1.1,1.6-2.4,2-4.2s0.7-3.7,0.8-5.9c0.1-2.2,0.1-4.5,0.1-6.8s-0.1-4.6-0.2-6.8c-0.1-2.2-0.4-4.2-0.8-5.9
		c-0.4-1.7-1.1-3.1-2-4.1c-0.9-1.1-2.1-1.6-3.7-1.6c-1.6,0-2.9,0.6-3.8,1.6c-0.9,1.1-1.6,2.4-2,4.1c-0.4,1.7-0.7,3.7-0.8,5.9
		C263.5,355.3,263.5,357.5,263.5,359.9z"/>
	<path class="st1" d="M288.2,356.7c0-2.3,0.2-4.5,0.4-6.6c0.2-2.1,0.6-4,1.3-5.6c0.6-1.6,1.5-2.9,2.6-3.9c1.1-1,2.6-1.5,4.4-1.5
		c1.9,0,3.4,0.5,4.6,1.5c1.2,1,2,2.4,2.6,4.1c0.6,1.7,1,3.7,1.2,5.9c0.2,2.2,0.3,4.5,0.4,6.9v2.2h-15.5c0,2.3,0,4.6,0.1,6.8
		c0.1,2.2,0.4,4.2,0.8,5.9c0.4,1.7,1.1,3.1,2,4.2c0.9,1.1,2.1,1.6,3.8,1.6c1.1,0,2-0.3,2.7-0.8c0.7-0.5,1.3-1.2,1.8-2.1
		c0.5-0.9,0.9-1.9,1.2-3.1c0.3-1.2,0.5-2.5,0.6-3.9h2.5c0,1.4,0.1,2.8,0.3,4c0.2,1.2,0.4,2.3,0.8,3.2c0.3,0.9,0.8,1.6,1.4,2.1
		c0.6,0.5,1.3,0.7,2.1,0.7v2.1c-1.8,0-3.1-0.6-4-1.8c-0.9-1.2-1.5-2.7-1.9-4.7c-0.6,1.9-1.5,3.5-2.6,4.7c-1.2,1.2-2.8,1.7-4.9,1.7
		c-2,0-3.7-0.5-4.8-1.7c-1.2-1.2-2-2.8-2.6-4.7c-0.4,1.9-1.1,3.5-1.9,4.7c-0.9,1.2-2.2,1.8-4,1.8v-2.1c1.1,0,1.9-0.4,2.6-1.2
		c0.6-0.8,1.1-1.9,1.4-3.2c0.3-1.4,0.5-3,0.6-4.8c0.1-1.8,0.1-3.7,0.1-5.7v-3.9c0-0.4,0-0.8,0-1.2S288.2,357.6,288.2,356.7z
		 M297,341.4c-1.4,0-2.6,0.5-3.4,1.3c-0.9,0.8-1.5,1.9-2,3.3c-0.5,1.4-0.8,3-1,4.8c-0.2,1.8-0.3,3.7-0.3,5.8v1h13.4
		c0-2.1-0.1-4.2-0.3-6.1c-0.1-1.9-0.4-3.7-0.9-5.1c-0.5-1.5-1.1-2.7-2-3.6C299.6,341.9,298.4,341.5,297,341.4z"/>
	<path class="st1" d="M364.6,380.8c-1.8,0-3.1-0.6-4-1.8c-0.9-1.2-1.5-2.7-1.9-4.7c-0.6,1.9-1.5,3.5-2.6,4.7
		c-1.2,1.2-2.8,1.7-4.9,1.7c-2,0-3.7-0.5-4.8-1.7c-1.2-1.2-2-2.8-2.6-4.8c-0.4,2-1.1,3.6-1.9,4.8c-0.9,1.2-2.2,1.8-4,1.8v-2.1
		c1.3,0,2.2-0.6,2.9-1.7c0.6-1.1,1.1-2.6,1.3-4.5c0.3-1.8,0.4-4,0.4-6.3c0-2.4,0-4.8,0-7.3c0-2.5,0.1-4.9,0.3-7.2
		c0.2-2.4,0.5-4.5,1.2-6.3c0.6-1.8,1.5-3.3,2.6-4.5c1.2-1.1,2.7-1.7,4.7-1.7c1.9,0,3.3,0.5,4.4,1.5c1.1,1,2,2.3,2.6,3.9
		c0.8-0.3,1.6-0.9,2.3-1.8c0.7-0.9,1.3-2.1,1.8-3.6h2.3c-0.7,2-1.6,3.7-2.5,5c-0.9,1.3-2,2.2-3.2,2.6c0.4,1.9,0.7,4,0.9,6.3
		c0.1,2.3,0.2,4.7,0.2,7s0,4.7,0,6.9c0,2.2,0.2,4.2,0.4,5.9c0.3,1.7,0.7,3.1,1.3,4.1c0.6,1,1.6,1.5,2.8,1.5V380.8z M351.2,378.4
		c1.4,0,2.5-0.4,3.3-1.1s1.5-1.8,2-3s0.8-2.7,1-4.4c0.2-1.7,0.3-3.5,0.4-5.4c0-2.7-0.1-5.4-0.1-8.1c0-2.7-0.2-5.2-0.5-7.4
		c-0.4-2.2-1-4-1.9-5.4c-0.9-1.4-2.3-2.1-4.2-2.1c-1.9,0-3.3,0.8-4.2,2.1s-1.6,3.2-1.9,5.4c-0.4,2.2-0.5,4.7-0.5,7.4
		c0,2.7,0,5.4,0,8.1c0,1.9,0.2,3.7,0.4,5.4c0.2,1.7,0.5,3.2,1,4.4s1.2,2.3,2,3C348.7,378.1,349.8,378.4,351.2,378.4z"/>
	<path class="st1" d="M371.3,357.5v-30.3h-6.7v-2.2h6.7c0-2.6,0.1-5.2,0.2-7.8c0.1-2.6,0.4-4.9,1-6.9c0.6-2.1,1.4-3.7,2.6-5
		c1.2-1.3,2.8-1.9,4.9-1.9v2.3c-1.6,0-2.9,0.6-3.8,1.7c-0.9,1.1-1.6,2.6-2,4.3c-0.4,1.8-0.7,3.8-0.8,6.1c-0.1,2.3-0.1,4.7-0.1,7.1
		h6.7v2.2h-6.7v30.3c0,3.2,0.1,6.1,0.2,8.7c0.1,2.6,0.4,4.8,0.9,6.6c0.5,1.8,1.1,3.2,2,4.2c0.9,1,2.1,1.5,3.6,1.5v2.3
		c-1.1,0-2.1-0.2-3-0.5c-0.8-0.4-1.6-0.9-2.2-1.5c-0.6-0.7-1.1-1.4-1.6-2.4c-0.4-0.9-0.8-2-1-3.1c-0.5,2.3-1.4,4.1-2.6,5.5
		c-1.2,1.4-2.9,2.1-5.1,2.1v-2.3c1.8,0,3.1-0.7,4-1.9c0.9-1.2,1.6-2.8,2-4.8c0.4-2,0.6-4.2,0.7-6.7
		C371.3,362.6,371.3,360,371.3,357.5z"/>
	<path class="st1" d="M422.1,325.3v37.8c1.4,0.4,2.6,1.3,3.7,2.8c1.1,1.5,2,3.4,2.9,5.7c0.7,2,1.5,3.7,2.4,4.9
		c0.9,1.2,1.9,1.8,3.1,1.8v2.4c-1.6,0-3-0.6-4.1-1.8c-1.2-1.2-2.2-3-3-5.4c-0.9-2.5-1.8-4.5-2.7-6c-0.9-1.5-2.1-2.3-3.4-2.3
		c-1.3,0-2.4,0.7-3.3,2.1c-0.9,1.4-1.8,3.2-2.6,5.4c-0.9,2.5-1.9,4.4-3.2,5.8c-1.2,1.4-2.7,2.1-4.3,2.1v-2.4c1.1,0,2-0.5,2.9-1.5
		c0.9-1,1.6-2.4,2.3-4.1c1-2.7,2-4.9,3.2-6.6c1.2-1.8,2.5-2.8,4.1-3.1v-37.7L422.1,325.3z M415.7,318.4c0.6,1.8,1.4,3.2,2.3,4.1
		c0.9,1,1.8,1.5,2.9,1.5c1.1,0,2-0.5,2.9-1.5c0.9-1,1.6-2.4,2.3-4.1h2.3c-0.9,2.5-1.9,4.4-3.2,5.8c-1.2,1.4-2.7,2.1-4.3,2.1
		c-1.6,0-3.1-0.7-4.3-2.1c-1.2-1.4-2.3-3.4-3.2-5.8H415.7z"/>
	<path class="st1" d="M434.2,378.6c1.3,0,2.2-0.6,2.9-1.7c0.6-1.1,1.1-2.6,1.3-4.5c0.3-1.8,0.4-4,0.4-6.3c0-2.4,0-4.8,0-7.3
		s0.1-4.9,0.3-7.2c0.2-2.4,0.5-4.5,1.2-6.3c0.6-1.8,1.5-3.3,2.6-4.5s2.7-1.7,4.7-1.7c1.7,0,3.1,0.4,4.1,1.3c1.1,0.8,1.9,1.9,2.6,3.3
		v-40.3h2.1v56.5c0,0.7,0,1.3,0,1.9c0,0.6,0,1.3-0.1,1.9c0,2,0,3.9,0.1,5.7c0.1,1.8,0.3,3.4,0.6,4.8c0.3,1.4,0.8,2.5,1.4,3.2
		c0.6,0.8,1.5,1.2,2.6,1.2v2.1c-1.8,0-3.1-0.6-4-1.8s-1.5-2.8-1.9-4.7c-0.6,1.9-1.5,3.5-2.7,4.7c-1.2,1.2-2.8,1.8-4.8,1.7
		c-2.1,0-3.7-0.5-4.9-1.7c-1.2-1.2-2-2.7-2.6-4.6c-0.4,1.9-1.1,3.4-2,4.6c-0.9,1.2-2.2,1.8-4,1.8V378.6z M447.6,378.4
		c1.6,0,2.9-0.6,3.8-1.6c0.9-1.1,1.6-2.4,2-4.2s0.7-3.7,0.8-5.9c0.1-2.2,0.1-4.5,0.1-6.8v-1.6c0-2.2-0.1-4.3-0.2-6.3
		c-0.1-2-0.4-3.8-0.9-5.4c-0.5-1.5-1.1-2.8-2-3.7c-0.9-0.9-2.1-1.4-3.6-1.5c-1.7,0-3,0.7-4,1.9c-0.9,1.2-1.6,2.8-2,4.7
		c-0.4,1.9-0.6,4.1-0.7,6.6c-0.1,2.5-0.1,4.9-0.1,7.4c0,2.1,0.1,4.2,0.2,6.2c0.1,2,0.5,3.7,0.9,5.2s1.1,2.7,2,3.6
		C444.9,377.9,446.1,378.4,447.6,378.4z"/>
	<path class="st1" d="M465.6,356.7c0-2.3,0.2-4.5,0.4-6.6c0.2-2.1,0.6-4,1.3-5.6c0.6-1.6,1.5-2.9,2.6-3.9c1.1-1,2.6-1.5,4.4-1.5
		c1.9,0,3.4,0.5,4.6,1.5c1.2,1,2,2.4,2.6,4.1c0.6,1.7,1,3.7,1.2,5.9c0.2,2.2,0.3,4.5,0.4,6.9v2.2h-15.5c0,2.3,0,4.6,0.1,6.8
		c0.1,2.2,0.4,4.2,0.8,5.9c0.4,1.7,1.1,3.1,2,4.2c0.9,1.1,2.1,1.6,3.8,1.6c1.1,0,2-0.3,2.7-0.8c0.7-0.5,1.3-1.2,1.8-2.1
		c0.5-0.9,0.9-1.9,1.2-3.1c0.3-1.2,0.5-2.5,0.6-3.9h2.5c0,1.4,0.1,2.8,0.3,4c0.2,1.2,0.4,2.3,0.8,3.2s0.8,1.6,1.4,2.1
		s1.3,0.7,2.1,0.7v2.1c-1.8,0-3.1-0.6-4-1.8c-0.9-1.2-1.5-2.7-1.9-4.7c-0.6,1.9-1.5,3.5-2.6,4.7c-1.2,1.2-2.8,1.7-4.9,1.7
		c-2,0-3.7-0.5-4.8-1.7c-1.2-1.2-2-2.8-2.6-4.7c-0.4,1.9-1.1,3.5-1.9,4.7c-0.9,1.2-2.2,1.8-4,1.8v-2.1c1.1,0,1.9-0.4,2.6-1.2
		c0.6-0.8,1.1-1.9,1.4-3.2c0.3-1.4,0.5-3,0.6-4.8c0.1-1.8,0.1-3.7,0.1-5.7v-3.9c0-0.4,0-0.8,0-1.2S465.6,357.6,465.6,356.7z
		 M474.4,341.4c-1.4,0-2.6,0.5-3.4,1.3c-0.9,0.8-1.5,1.9-2,3.3c-0.5,1.4-0.8,3-1,4.8c-0.2,1.8-0.3,3.7-0.3,5.8v1h13.4
		c0-2.1-0.1-4.2-0.3-6.1c-0.1-1.9-0.4-3.7-0.9-5.1c-0.5-1.5-1.1-2.7-2-3.6C477,341.9,475.8,341.5,474.4,341.4z"/>
	<path class="st1" d="M514.5,380.8c-1.7,0-3-0.6-3.9-1.7c-0.9-1.1-1.6-2.6-2-4.4c-0.4-1.8-0.7-3.9-0.7-6.3c-0.1-2.3-0.1-4.7-0.1-7.2
		c0-2.5,0-4.9-0.1-7.2c-0.1-2.3-0.3-4.4-0.7-6.3c-0.4-1.9-1.1-3.4-2-4.5c-0.9-1.1-2.2-1.7-3.9-1.8c-1.7,0-3,0.6-3.9,1.8
		c-0.9,1.1-1.6,2.6-2,4.5c-0.4,1.9-0.7,4-0.7,6.3s-0.1,4.7-0.1,7.2c0,2.5,0,4.9-0.1,7.2s-0.3,4.4-0.7,6.3c-0.4,1.8-1.1,3.3-2,4.4
		c-0.9,1.1-2.2,1.7-3.9,1.7v-2.1c1.3,0,2.2-0.6,2.9-1.7c0.6-1.1,1.1-2.6,1.3-4.5c0.3-1.8,0.4-4,0.4-6.3c0-2.4,0-4.8,0-7.3
		s0.1-4.9,0.3-7.2c0.2-2.4,0.5-4.5,1.2-6.3c0.6-1.8,1.5-3.3,2.6-4.5s2.7-1.7,4.7-1.7c2,0,3.5,0.6,4.7,1.7s2,2.6,2.6,4.5
		c0.6,1.8,1,3.9,1.2,6.3s0.3,4.8,0.3,7.2c0,2.5,0,4.9,0,7.3c0,2.4,0.1,4.5,0.4,6.3c0.3,1.8,0.7,3.3,1.3,4.5c0.6,1.1,1.6,1.7,2.9,1.7
		V380.8z"/>
	<path class="st1" d="M523.3,315.2v42.3c0,3.2,0.1,6.1,0.2,8.7c0.1,2.6,0.5,4.8,0.9,6.6c0.5,1.8,1.1,3.2,2,4.2
		c0.9,1,2.1,1.5,3.6,1.5v2.3c-1.1,0-2.1-0.2-3-0.5c-0.8-0.4-1.6-0.9-2.2-1.5c-0.6-0.7-1.2-1.4-1.6-2.4c-0.4-0.9-0.8-2-1-3.1
		c-0.5,2.3-1.4,4.1-2.6,5.5c-1.2,1.4-2.9,2.1-5.1,2.1v-2.3c1.8,0,3.1-0.7,4-1.9c0.9-1.2,1.6-2.8,2-4.8s0.6-4.2,0.7-6.7
		c0-2.5,0.1-5,0.1-7.6v-42.3H523.3z M530,327.1h-15.3v-2.2H530V327.1z"/>
	<path class="st1" d="M536.7,357.5v-18.4h2v18.4c0,3.2,0.1,6.1,0.2,8.7c0.1,2.6,0.4,4.8,0.9,6.6c0.5,1.8,1.1,3.2,2,4.2
		c0.9,1,2.1,1.5,3.6,1.5v2.3c-1.1,0-2.1-0.2-3-0.5c-0.8-0.4-1.6-0.9-2.2-1.5c-0.6-0.7-1.1-1.4-1.6-2.4c-0.4-0.9-0.8-2-1-3.1
		c-0.5,2.3-1.4,4.1-2.6,5.5c-1.2,1.4-2.9,2.1-5.1,2.1v-2.3c1.8,0,3.1-0.7,4-1.9c0.9-1.2,1.6-2.8,2-4.8c0.4-2,0.6-4.2,0.7-6.7
		C536.6,362.6,536.7,360,536.7,357.5z M536.2,330.7c0-0.4,0.2-0.8,0.5-1.2c0.3-0.3,0.7-0.5,1.1-0.5c0.4,0,0.8,0.2,1.1,0.5
		c0.3,0.3,0.5,0.7,0.5,1.2c0,0.4-0.2,0.8-0.5,1.2c-0.3,0.3-0.7,0.5-1.1,0.5c-0.4,0-0.8-0.2-1.1-0.5
		C536.3,331.5,536.2,331.2,536.2,330.7z"/>
	<path class="st1" d="M554.1,315.2v42.3c0,3.2,0.1,6.1,0.2,8.7c0.1,2.6,0.5,4.8,0.9,6.6c0.5,1.8,1.1,3.2,2,4.2
		c0.9,1,2.1,1.5,3.6,1.5v2.3c-1.1,0-2.1-0.2-3-0.5c-0.8-0.4-1.6-0.9-2.2-1.5c-0.6-0.7-1.2-1.4-1.6-2.4c-0.4-0.9-0.8-2-1-3.1
		c-0.5,2.3-1.4,4.1-2.6,5.5c-1.2,1.4-2.9,2.1-5.1,2.1v-2.3c1.8,0,3.1-0.7,4-1.9c0.9-1.2,1.6-2.8,2-4.8s0.6-4.2,0.7-6.7
		c0-2.5,0.1-5,0.1-7.6v-42.3H554.1z M560.8,327.1h-15.3v-2.2h15.3V327.1z"/>
	<path class="st1" d="M565.4,359.9v-20.8h2.1v20.8c0,2.3,0,4.6,0.1,6.8c0.1,2.2,0.4,4.2,0.8,5.9c0.4,1.7,1.1,3.1,2,4.2
		c0.9,1.1,2.1,1.6,3.8,1.6c1.6,0,2.9-0.6,3.8-1.6c0.9-1.1,1.6-2.4,2-4.2s0.7-3.7,0.8-5.9c0.1-2.2,0.1-4.5,0.1-6.8v-20.8h2.1v20.8
		c0,2.9,0,5.6-0.1,7.9c-0.1,2.3,0,4.3,0.2,5.9s0.6,2.8,1.3,3.7c0.7,0.9,1.7,1.3,3.2,1.3v2.1c-1.1,0-2-0.1-2.7-0.4
		c-0.8-0.2-1.4-0.6-1.9-1c-0.1,2.1-0.2,4.2-0.5,6.2c-0.3,2-0.7,3.7-1.3,5.2c-0.6,1.5-1.5,2.7-2.6,3.5c-1.1,0.9-2.5,1.3-4.3,1.3
		c-1.4,0-2.5-0.2-3.5-0.7c-1-0.5-1.7-1.2-2.4-2.1c-0.6-0.9-1.1-2-1.5-3.2c-0.4-1.2-0.7-2.6-0.9-4h2.1c0.4,2.3,1,4.1,1.9,5.5
		c0.9,1.4,2.3,2.2,4.2,2.2c1.5,0,2.7-0.5,3.6-1.5s1.5-2.2,2-3.8c0.5-1.6,0.7-3.4,0.9-5.5c0.1-2.1,0.2-4.2,0.2-6.4
		c-0.7,1.4-1.5,2.6-2.6,3.4c-1.1,0.8-2.5,1.2-4.1,1.2c-2.1,0-3.7-0.5-4.9-1.7c-1.2-1.2-2-2.7-2.6-4.6c-0.4,1.9-1.1,3.4-2,4.6
		c-0.9,1.2-2.2,1.8-4,1.8v-2.1c1.2,0,2.2-0.5,2.8-1.6c0.6-1.1,1.1-2.5,1.3-4.2c0.3-1.8,0.4-3.8,0.4-6
		C565.4,364.6,565.4,362.3,565.4,359.9z"/>
</g>
</svg>
