<?xml version="1.0" encoding="utf-8"?>
<!-- Generator: Adobe Illustrator 25.2.1, SVG Export Plug-In . SVG Version: 6.00 Build 0)  -->
<svg version="1.1" id="Layer_1" xmlns="http://www.w3.org/2000/svg" xmlns:xlink="http://www.w3.org/1999/xlink" x="0px" y="0px"
	 viewBox="0 0 841.9 595.3" style="enable-background:new 0 0 841.9 595.3;" xml:space="preserve">
<style type="text/css">
	.st0{fill:#FFFFFF;stroke:#1D1D1B;stroke-width:0.25;stroke-miterlimit:10;}
	.st1{fill:#FFFFFF;}
	.st2{fill-rule:evenodd;clip-rule:evenodd;}
	.st3{fill-rule:evenodd;clip-rule:evenodd;fill:#E10B17;}
	.st4{fill-rule:evenodd;clip-rule:evenodd;fill:#FFFFFF;}
	.st5{fill-rule:evenodd;clip-rule:evenodd;fill:#ECB308;}
	.st6{fill:#E10B17;}
	.st7{clip-path:url(#SVGID_2_);}
</style>
<rect y="0.6" width="841.9" height="594.7"/>
<path d="M676.7,218.5l-36-12v-25.9l-40-8l-30,8v20l-24,9v207.5h-4l-207,1V297.3l-3-3l-18-5v-8l-55-41.9l-68,57.9c-1,2-1,5-1,7v291.4
	l491,2V240.5h-5V218.5z"/>
<polygon class="st0" points="221,283.7 222.4,286.6 225.7,287.1 223.3,289.4 223.9,292.7 221,291.2 218,292.7 218.6,289.4 
	216.2,287.1 219.5,286.6 "/>
<polygon class="st0" points="234.2,281.2 235.7,284.2 239,284.7 236.6,287 237.1,290.3 234.2,288.7 231.3,290.3 231.8,287 
	229.4,284.7 232.7,284.2 "/>
<polygon class="st0" points="207.5,297.5 209,300.5 212.3,301 209.9,303.3 210.5,306.6 207.5,305 204.6,306.6 205.1,303.3 
	202.8,301 206,300.5 "/>
<polygon class="st0" points="219,295.1 220.4,298.1 223.7,298.6 221.3,300.9 221.9,304.2 219,302.6 216,304.2 216.6,300.9 
	214.2,298.6 217.5,298.1 "/>
<polygon class="st0" points="229.2,292.7 230.7,295.7 234,296.1 231.6,298.5 232.1,301.7 229.2,300.2 226.3,301.7 226.8,298.5 
	224.4,296.1 227.7,295.7 "/>
<polygon class="st0" points="196.1,312.6 197.5,315.6 200.8,316.1 198.4,318.4 199,321.7 196.1,320.1 193.1,321.7 193.7,318.4 
	191.3,316.1 194.6,315.6 "/>
<polygon class="st0" points="207.5,309 209,312 212.3,312.4 209.9,314.8 210.5,318 207.5,316.5 204.6,318 205.1,314.8 202.8,312.4 
	206,312 "/>
<polygon class="st0" points="217.8,306.6 219.2,309.5 222.5,310 220.1,312.3 220.7,315.6 217.8,314.1 214.8,315.6 215.4,312.3 
	213,310 216.3,309.5 "/>
<polygon class="st0" points="229.2,304.1 230.7,307.1 234,307.6 231.6,309.9 232.1,313.2 229.2,311.6 226.3,313.2 226.8,309.9 
	224.4,307.6 227.7,307.1 "/>
<polygon class="st0" points="196.1,324.1 197.5,327.1 200.8,327.5 198.4,329.9 199,333.1 196.1,331.6 193.1,333.1 193.7,329.9 
	191.3,327.5 194.6,327.1 "/>
<polygon class="st0" points="207.5,320.4 209,323.4 212.3,323.9 209.9,326.2 210.5,329.5 207.5,327.9 204.6,329.5 205.1,326.2 
	202.8,323.9 206,323.4 "/>
<polygon class="st0" points="217.8,318 219.2,321 222.5,321.5 220.1,323.8 220.7,327.1 217.8,325.5 214.8,327.1 215.4,323.8 
	213,321.5 216.3,321 "/>
<polygon class="st0" points="229.2,315.6 230.7,318.6 234,319 231.6,321.4 232.1,324.6 229.2,323.1 226.3,324.6 226.8,321.4 
	224.4,319 227.7,318.6 "/>
<polygon class="st0" points="207.5,333.1 209,336.1 212.3,336.6 209.9,338.9 210.5,342.2 207.5,340.6 204.6,342.2 205.1,338.9 
	202.8,336.6 206,336.1 "/>
<polygon class="st0" points="229.2,327 230.7,330 234,330.5 231.6,332.8 232.1,336.1 229.2,334.5 226.3,336.1 226.8,332.8 
	224.4,330.5 227.7,330 "/>
<polygon class="st0" points="196.1,347 197.5,350 200.8,350.4 198.4,352.8 199,356 196.1,354.5 193.1,356 193.7,352.8 191.3,350.4 
	194.6,350 "/>
<polygon class="st0" points="207.5,343.3 209,346.3 212.3,346.8 209.9,349.1 210.5,352.4 207.5,350.8 204.6,352.4 205.1,349.1 
	202.8,346.8 206,346.3 "/>
<polygon class="st0" points="219,340.9 220.4,343.9 223.7,344.4 221.3,346.7 221.9,350 219,348.4 216,350 216.6,346.7 214.2,344.4 
	217.5,343.9 "/>
<polygon class="st0" points="229.2,338.5 230.7,341.5 234,341.9 231.6,344.3 232.1,347.5 229.2,346 226.3,347.5 226.8,344.3 
	224.4,341.9 227.7,341.5 "/>
<polygon class="st0" points="207.5,356 209,359 212.3,359.5 209.9,361.8 210.5,365.1 207.5,363.5 204.6,365.1 205.1,361.8 
	202.8,359.5 206,359 "/>
<polygon class="st0" points="217.8,352.4 219.2,355.3 222.5,355.8 220.1,358.1 220.7,361.4 217.8,359.9 214.8,361.4 215.4,358.1 
	213,355.8 216.3,355.3 "/>
<polygon class="st0" points="229.2,349.9 230.7,352.9 234,353.4 231.6,355.7 232.1,359 229.2,357.4 226.3,359 226.8,355.7 
	224.4,353.4 227.7,352.9 "/>
<polygon class="st0" points="195.5,370.4 197,373.4 200.3,373.9 197.9,376.2 198.5,379.5 195.5,377.9 192.6,379.5 193.1,376.2 
	190.8,373.9 194,373.4 "/>
<polygon class="st0" points="218.4,364.3 219.9,367.3 223.2,367.8 220.8,370.1 221.4,373.4 218.4,371.9 215.5,373.4 216,370.1 
	213.7,367.8 216.9,367.3 "/>
<polygon class="st0" points="229.9,361.9 231.3,364.9 234.6,365.4 232.2,367.7 232.8,371 229.9,369.4 226.9,371 227.5,367.7 
	225.1,365.4 228.4,364.9 "/>
<polygon class="st0" points="195.5,381.9 197,384.8 200.3,385.3 197.9,387.6 198.5,390.9 195.5,389.4 192.6,390.9 193.1,387.6 
	190.8,385.3 194,384.8 "/>
<polygon class="st0" points="207,379.4 208.4,382.4 211.7,382.9 209.3,385.2 209.9,388.5 207,386.9 204,388.5 204.6,385.2 
	202.2,382.9 205.5,382.4 "/>
<polygon class="st0" points="218.4,375.8 219.9,378.8 223.2,379.3 220.8,381.6 221.4,384.9 218.4,383.3 215.5,384.9 216,381.6 
	213.7,379.3 216.9,378.8 "/>
<polygon class="st0" points="229.9,373.4 231.3,376.4 234.6,376.8 232.2,379.1 232.8,382.4 229.9,380.9 226.9,382.4 227.5,379.1 
	225.1,376.8 228.4,376.4 "/>
<polygon class="st0" points="195.5,395.7 197,398.7 200.3,399.2 197.9,401.5 198.5,404.8 195.5,403.3 192.6,404.8 193.1,401.5 
	190.8,399.2 194,398.7 "/>
<polygon class="st0" points="207,390.9 208.4,393.9 211.7,394.4 209.3,396.7 209.9,399.9 207,398.4 204,399.9 204.6,396.7 
	202.2,394.4 205.5,393.9 "/>
<polygon class="st0" points="218.4,387.2 219.9,390.2 223.2,390.7 220.8,393 221.4,396.3 218.4,394.8 215.5,396.3 216,393 
	213.7,390.7 216.9,390.2 "/>
<polygon class="st0" points="228.7,387.2 230.1,390.2 233.4,390.7 231,393 231.6,396.3 228.7,394.8 225.7,396.3 226.3,393 
	223.9,390.7 227.2,390.2 "/>
<polygon class="st0" points="196.7,404.8 198.2,407.8 201.5,408.2 199.1,410.5 199.7,413.8 196.7,412.3 193.8,413.8 194.3,410.5 
	192,408.2 195.3,407.8 "/>
<polygon class="st0" points="218.4,398.7 219.9,401.7 223.2,402.2 220.8,404.5 221.4,407.8 218.4,406.2 215.5,407.8 216,404.5 
	213.7,402.2 216.9,401.7 "/>
<polygon class="st0" points="229.9,396.3 231.3,399.3 234.6,399.7 232.2,402.1 232.8,405.3 229.9,403.8 226.9,405.3 227.5,402.1 
	225.1,399.7 228.4,399.3 "/>
<polygon class="st0" points="208.2,412.6 209.6,415.6 212.9,416 210.6,418.4 211.1,421.6 208.2,420.1 205.2,421.6 205.8,418.4 
	203.4,416 206.7,415.6 "/>
<polygon class="st0" points="218.4,410.2 219.9,413.1 223.2,413.6 220.8,415.9 221.4,419.2 218.4,417.7 215.5,419.2 216,415.9 
	213.7,413.6 216.9,413.1 "/>
<polygon class="st0" points="228.7,410.2 230.1,413.1 233.4,413.6 231,415.9 231.6,419.2 228.7,417.7 225.7,419.2 226.3,415.9 
	223.9,413.6 227.2,413.1 "/>
<polygon class="st0" points="196.7,428.9 198.2,431.9 201.5,432.3 199.1,434.7 199.7,437.9 196.7,436.4 193.8,437.9 194.3,434.7 
	192,432.3 195.3,431.9 "/>
<polygon class="st0" points="208.2,425.2 209.6,428.2 212.9,428.7 210.6,431 211.1,434.3 208.2,432.8 205.2,434.3 205.8,431 
	203.4,428.7 206.7,428.2 "/>
<polygon class="st0" points="218.4,421.6 219.9,424.6 223.2,425.1 220.8,427.4 221.4,430.7 218.4,429.1 215.5,430.7 216,427.4 
	213.7,425.1 216.9,424.6 "/>
<polygon class="st0" points="229.9,419.2 231.3,422.2 234.6,422.6 232.2,425 232.8,428.2 229.9,426.7 226.9,428.2 227.5,425 
	225.1,422.6 228.4,422.2 "/>
<polygon class="st0" points="195.5,439.1 197,442.1 200.3,442.6 197.9,444.9 198.5,448.2 195.5,446.6 192.6,448.2 193.1,444.9 
	190.8,442.6 194,442.1 "/>
<polygon class="st0" points="207,436.7 208.4,439.7 211.7,440.2 209.3,442.5 209.9,445.8 207,444.2 204,445.8 204.6,442.5 
	202.2,440.2 205.5,439.7 "/>
<polygon class="st0" points="218.4,433.1 219.9,436 223.2,436.5 220.8,438.8 221.4,442.1 218.4,440.6 215.5,442.1 216,438.8 
	213.7,436.5 216.9,436 "/>
<polygon class="st0" points="196.7,461.5 198.2,464.5 201.5,465 199.1,467.3 199.7,470.6 196.7,469 193.8,470.6 194.3,467.3 
	192,465 195.3,464.5 "/>
<polygon class="st0" points="218.4,444.5 219.9,447.5 223.2,448 220.8,450.3 221.4,453.6 218.4,452 215.5,453.6 216,450.3 
	213.7,448 216.9,447.5 "/>
<polygon class="st0" points="228.7,431.2 230.1,434.1 233.4,434.6 231,436.9 231.6,440.2 228.7,438.7 225.7,440.2 226.3,436.9 
	223.9,434.6 227.2,434.1 "/>
<polygon class="st0" points="196.7,473 198.2,475.9 201.5,476.4 199.1,478.7 199.7,482 196.7,480.5 193.8,482 194.3,478.7 
	192,476.4 195.3,475.9 "/>
<polygon class="st0" points="208.2,470.5 209.6,473.5 212.9,474 210.6,476.3 211.1,479.6 208.2,478 205.2,479.6 205.8,476.3 
	203.4,474 206.7,473.5 "/>
<polygon class="st0" points="229.9,465.7 231.3,468.6 234.6,469.1 232.2,471.4 232.8,474.7 229.9,473.2 226.9,474.7 227.5,471.4 
	225.1,469.1 228.4,468.6 "/>
<polygon class="st0" points="207,482 208.4,485 211.7,485.4 209.3,487.8 209.9,491 207,489.5 204,491 204.6,487.8 202.2,485.4 
	205.5,485 "/>
<polygon class="st0" points="218.4,479.5 219.9,482.5 223.2,483 220.8,485.3 221.4,488.6 218.4,487.1 215.5,488.6 216,485.3 
	213.7,483 216.9,482.5 "/>
<polygon class="st0" points="196.4,497.1 197.9,500 201.2,500.5 198.8,502.8 199.4,506.1 196.4,504.6 193.5,506.1 194,502.8 
	191.7,500.5 195,500 "/>
<polygon class="st0" points="207.9,493.4 209.3,496.4 212.6,496.9 210.3,499.2 210.8,502.5 207.9,500.9 204.9,502.5 205.5,499.2 
	203.1,496.9 206.4,496.4 "/>
<polygon class="st0" points="218.1,491 219.6,494 222.9,494.5 220.5,496.8 221.1,500.1 218.1,498.5 215.2,500.1 215.7,496.8 
	213.3,494.5 216.6,494 "/>
<polygon class="st0" points="229.6,488.6 231,491.5 234.3,492 231.9,494.3 232.5,497.6 229.6,496.1 226.6,497.6 227.2,494.3 
	224.8,492 228.1,491.5 "/>
<polygon class="st0" points="207.9,506.1 209.3,509.1 212.6,509.5 210.3,511.9 210.8,515.1 207.9,513.6 204.9,515.1 205.5,511.9 
	203.1,509.5 206.4,509.1 "/>
<polygon class="st0" points="196.4,520 197.9,522.9 201.2,523.4 198.8,525.7 199.4,529 196.4,527.5 193.5,529 194,525.7 
	191.7,523.4 195,522.9 "/>
<polygon class="st0" points="218.1,515.1 219.6,518.1 222.9,518.6 220.5,520.9 221.1,524.2 218.1,522.6 215.2,524.2 215.7,520.9 
	213.3,518.6 216.6,518.1 "/>
<polygon class="st0" points="196.4,531.4 197.9,534.4 201.2,534.9 198.8,537.2 199.4,540.5 196.4,538.9 193.5,540.5 194,537.2 
	191.7,534.9 195,534.4 "/>
<polygon class="st0" points="207.9,529 209.3,532 212.6,532.5 210.3,534.8 210.8,538 207.9,536.5 204.9,538 205.5,534.8 
	203.1,532.5 206.4,532 "/>
<polygon class="st0" points="218.1,525.3 219.6,528.3 222.9,528.8 220.5,531.1 221.1,534.4 218.1,532.9 215.2,534.4 215.7,531.1 
	213.3,528.8 216.6,528.3 "/>
<polygon class="st0" points="229.6,522.9 231,525.9 234.3,526.4 231.9,528.7 232.5,532 229.6,530.4 226.6,532 227.2,528.7 
	224.8,526.4 228.1,525.9 "/>
<polygon class="st0" points="196.4,555 197.9,558 201.2,558.5 198.8,560.8 199.4,564.1 196.4,562.5 193.5,564.1 194,560.8 
	191.7,558.5 195,558 "/>
<polygon class="st0" points="218.1,536.8 219.6,539.8 222.9,540.3 220.5,542.6 221.1,545.9 218.1,544.3 215.2,545.9 215.7,542.6 
	213.3,540.3 216.6,539.8 "/>
<polygon class="st0" points="219,456.2 220.5,459.2 223.8,459.7 221.4,462 222,465.3 219,463.7 216.1,465.3 216.7,462 214.3,459.7 
	217.6,459.2 "/>
<polygon class="st0" points="218.1,549.5 219.6,552.4 222.9,552.9 220.5,555.2 221.1,558.5 218.1,557 215.2,558.5 215.7,555.2 
	213.3,552.9 216.6,552.4 "/>
<polygon class="st0" points="218.1,559.7 219.6,562.7 222.9,563.2 220.5,565.5 221.1,568.8 218.1,567.2 215.2,568.8 215.7,565.5 
	213.3,563.2 216.6,562.7 "/>
<polygon class="st0" points="208.7,448.1 210.2,451.1 213.5,451.6 211.1,453.9 211.6,457.2 208.7,455.7 205.8,457.2 206.3,453.9 
	203.9,451.6 207.2,451.1 "/>
<polygon class="st0" points="230,453.8 231.4,456.8 234.7,457.3 232.3,459.6 232.9,462.8 230,461.3 227,462.8 227.6,459.6 
	225.2,457.3 228.5,456.8 "/>
<polygon class="st0" points="281.3,266.6 282.8,269.6 286.1,270.1 283.7,272.4 284.2,275.7 281.3,274.1 278.4,275.7 278.9,272.4 
	276.5,270.1 279.8,269.6 "/>
<polygon class="st0" points="259.6,248.9 261.1,251.9 264.4,252.4 262,254.7 262.6,258 259.6,256.4 256.7,258 257.2,254.7 
	254.8,252.4 258.1,251.9 "/>
<polyline class="st0" points="273.4,257.1 274,260.4 271.1,258.9 268.1,260.4 268.7,257.1 266.3,254.8 269.6,254.3 "/>
<polygon class="st0" points="281.3,278.1 282.8,281 286.1,281.5 283.7,283.8 284.2,287.1 281.3,285.6 278.4,287.1 278.9,283.8 
	276.5,281.5 279.8,281 "/>
<polygon class="st0" points="248.2,257.9 249.6,260.9 252.9,261.4 250.5,263.7 251.1,267 248.2,265.5 245.2,267 245.8,263.7 
	243.4,261.4 246.7,260.9 "/>
<polygon class="st0" points="259.6,260.4 261.1,263.4 264.4,263.8 262,266.2 262.6,269.4 259.6,267.9 256.7,269.4 257.2,266.2 
	254.8,263.8 258.1,263.4 "/>
<polygon class="st0" points="271.1,262.8 272.5,265.8 275.8,266.3 273.4,268.6 274,271.9 271.1,270.3 268.1,271.9 268.7,268.6 
	266.3,266.3 269.6,265.8 "/>
<polygon class="st0" points="281.3,289.5 282.8,292.5 286.1,293 283.7,295.3 284.2,298.6 281.3,297 278.4,298.6 278.9,295.3 
	276.5,293 279.8,292.5 "/>
<polygon class="st0" points="248.2,269.4 249.6,272.4 252.9,272.9 250.5,275.2 251.1,278.5 248.2,276.9 245.2,278.5 245.8,275.2 
	243.4,272.9 246.7,272.4 "/>
<polygon class="st0" points="259.6,271.8 261.1,274.8 264.4,275.3 262,277.6 262.6,280.9 259.6,279.3 256.7,280.9 257.2,277.6 
	254.8,275.3 258.1,274.8 "/>
<polygon class="st0" points="271.1,274.3 272.5,277.2 275.8,277.7 273.4,280 274,283.3 271.1,281.8 268.1,283.3 268.7,280 
	266.3,277.7 269.6,277.2 "/>
<polygon class="st0" points="281.3,301 282.8,303.9 286.1,304.4 283.7,306.7 284.2,310 281.3,308.5 278.4,310 278.9,306.7 
	276.5,304.4 279.8,303.9 "/>
<polygon class="st0" points="248.2,280.9 249.6,283.8 252.9,284.3 250.5,286.6 251.1,289.9 248.2,288.4 245.2,289.9 245.8,286.6 
	243.4,284.3 246.7,283.8 "/>
<polygon class="st0" points="259.6,283.3 261.1,286.3 264.4,286.7 262,289.1 262.6,292.3 259.6,290.8 256.7,292.3 257.2,289.1 
	254.8,286.7 258.1,286.3 "/>
<polygon class="st0" points="269.8,285.7 271.3,288.7 274.6,289.2 272.2,291.5 272.8,294.8 269.8,293.2 266.9,294.8 267.5,291.5 
	265.1,289.2 268.4,288.7 "/>
<polygon class="st0" points="281.3,312.4 282.8,315.4 286.1,315.9 283.7,318.2 284.2,321.5 281.3,319.9 278.4,321.5 278.9,318.2 
	276.5,315.9 279.8,315.4 "/>
<polygon class="st0" points="248.2,292.3 249.6,295.3 252.9,295.8 250.5,298.1 251.1,301.4 248.2,299.8 245.2,301.4 245.8,298.1 
	243.4,295.8 246.7,295.3 "/>
<polygon class="st0" points="259.6,294.7 261.1,297.7 264.4,298.2 262,300.5 262.6,303.8 259.6,302.2 256.7,303.8 257.2,300.5 
	254.8,298.2 258.1,297.7 "/>
<polygon class="st0" points="269.8,298.4 271.3,301.4 274.6,301.8 272.2,304.2 272.8,307.4 269.8,305.9 266.9,307.4 267.5,304.2 
	265.1,301.8 268.4,301.4 "/>
<polygon class="st0" points="281.3,323.9 282.8,326.8 286.1,327.3 283.7,329.6 284.2,332.9 281.3,331.4 278.4,332.9 278.9,329.6 
	276.5,327.3 279.8,326.8 "/>
<polygon class="st0" points="292.2,270.3 293.7,273.2 297,273.7 294.6,276 295.2,279.3 292.2,277.8 289.3,279.3 289.8,276 
	287.5,273.7 290.8,273.2 "/>
<polygon class="st0" points="292.2,281.7 293.7,284.7 297,285.2 294.6,287.5 295.2,290.8 292.2,289.2 289.3,290.8 289.8,287.5 
	287.5,285.2 290.8,284.7 "/>
<polygon class="st0" points="292.2,293.2 293.7,296.1 297,296.6 294.6,298.9 295.2,302.2 292.2,300.7 289.3,302.2 289.8,298.9 
	287.5,296.6 290.8,296.1 "/>
<polygon class="st0" points="292.2,304.6 293.7,307.6 297,308.1 294.6,310.4 295.2,313.7 292.2,312.1 289.3,313.7 289.8,310.4 
	287.5,308.1 290.8,307.6 "/>
<polygon class="st0" points="292.2,316.1 293.7,319 297,319.5 294.6,321.8 295.2,325.1 292.2,323.6 289.3,325.1 289.8,321.8 
	287.5,319.5 290.8,319 "/>
<polygon class="st0" points="292.2,327.5 293.7,330.5 297,331 294.6,333.3 295.2,336.6 292.2,335 289.3,336.6 289.8,333.3 
	287.5,331 290.8,330.5 "/>
<polygon class="st0" points="292.2,339 293.7,341.9 297,342.4 294.6,344.7 295.2,348 292.2,346.5 289.3,348 289.8,344.7 
	287.5,342.4 290.8,341.9 "/>
<polygon class="st0" points="303.1,284.1 304.6,287.1 307.9,287.6 305.5,289.9 306.1,293.2 303.1,291.6 300.2,293.2 300.8,289.9 
	298.4,287.6 301.7,287.1 "/>
<polygon class="st0" points="303.1,296.8 304.6,299.8 307.9,300.3 305.5,302.6 306.1,305.9 303.1,304.3 300.2,305.9 300.8,302.6 
	298.4,300.3 301.7,299.8 "/>
<polygon class="st0" points="303.1,307 304.6,310 307.9,310.5 305.5,312.8 306.1,316.1 303.1,314.5 300.2,316.1 300.8,312.8 
	298.4,310.5 301.7,310 "/>
<polygon class="st0" points="303.1,319.7 304.6,322.7 307.9,323.2 305.5,325.5 306.1,328.8 303.1,327.2 300.2,328.8 300.8,325.5 
	298.4,323.2 301.7,322.7 "/>
<polygon class="st0" points="303.1,331.1 304.6,334.1 307.9,334.6 305.5,336.9 306.1,340.2 303.1,338.7 300.2,340.2 300.8,336.9 
	298.4,334.6 301.7,334.1 "/>
<polygon class="st0" points="248.2,304.2 249.6,307.2 252.9,307.7 250.5,310 251.1,313.3 248.2,311.8 245.2,313.3 245.8,310 
	243.4,307.7 246.7,307.2 "/>
<polygon class="st0" points="259.6,306.7 261.1,309.7 264.4,310.1 262,312.5 262.6,315.7 259.6,314.2 256.7,315.7 257.2,312.5 
	254.8,310.1 258.1,309.7 "/>
<polygon class="st0" points="269.8,309.1 271.3,312.1 274.6,312.6 272.2,314.9 272.8,318.2 269.8,316.6 266.9,318.2 267.5,314.9 
	265.1,312.6 268.4,312.1 "/>
<polygon class="st0" points="248.2,315.7 249.6,318.7 252.9,319.2 250.5,321.5 251.1,324.8 248.2,323.2 245.2,324.8 245.8,321.5 
	243.4,319.2 246.7,318.7 "/>
<polygon class="st0" points="259.6,318.1 261.1,321.1 264.4,321.6 262,323.9 262.6,327.2 259.6,325.6 256.7,327.2 257.2,323.9 
	254.8,321.6 258.1,321.1 "/>
<polygon class="st0" points="271.1,320.6 272.5,323.5 275.8,324 273.4,326.3 274,329.6 271.1,328.1 268.1,329.6 268.7,326.3 
	266.3,324 269.6,323.5 "/>
<polygon class="st0" points="259.6,329.6 261.1,332.6 264.4,333 262,335.4 262.6,338.6 259.6,337.1 256.7,338.6 257.2,335.4 
	254.8,333 258.1,332.6 "/>
<polygon class="st0" points="271.1,332 272.5,335 275.8,335.5 273.4,337.8 274,341.1 271.1,339.5 268.1,341.1 268.7,337.8 
	266.3,335.5 269.6,335 "/>
<polygon class="st0" points="248.2,338.6 249.6,341.6 252.9,342.1 250.5,344.4 251.1,347.7 248.2,346.1 245.2,347.7 245.8,344.4 
	243.4,342.1 246.7,341.6 "/>
<polygon class="st0" points="259.6,341 261.1,344 264.4,344.5 262,346.8 262.6,350.1 259.6,348.5 256.7,350.1 257.2,346.8 
	254.8,344.5 258.1,344 "/>
<polygon class="st0" points="248.2,350 249.6,353 252.9,353.5 250.5,355.8 251.1,359.1 248.2,357.6 245.2,359.1 245.8,355.8 
	243.4,353.5 246.7,353 "/>
<polygon class="st0" points="259.6,352.5 261.1,355.5 264.4,355.9 262,358.3 262.6,361.5 259.6,360 256.7,361.5 257.2,358.3 
	254.8,355.9 258.1,355.5 "/>
<polygon class="st0" points="269.8,367.6 271.3,370.5 274.6,371 272.2,373.3 272.8,376.6 269.8,375.1 266.9,376.6 267.5,373.3 
	265.1,371 268.4,370.5 "/>
<polygon class="st0" points="315.3,298.2 316.8,301.2 320.1,301.6 317.7,304 318.2,307.2 315.3,305.7 312.3,307.2 312.9,304 
	310.5,301.6 313.8,301.2 "/>
<polygon class="st0" points="315.3,309.6 316.8,312.6 320.1,313.1 317.7,315.4 318.2,318.7 315.3,317.1 312.3,318.7 312.9,315.4 
	310.5,313.1 313.8,312.6 "/>
<polygon class="st0" points="315.3,321.1 316.8,324.1 320.1,324.5 317.7,326.9 318.2,330.1 315.3,328.6 312.3,330.1 312.9,326.9 
	310.5,324.5 313.8,324.1 "/>
<polygon class="st0" points="315.3,332.5 316.8,335.5 320.1,336 317.7,338.3 318.2,341.6 315.3,340 312.3,341.6 312.9,338.3 
	310.5,336 313.8,335.5 "/>
<polygon class="st0" points="315.3,344 316.8,347 320.1,347.4 317.7,349.8 318.2,353 315.3,351.5 312.3,353 312.9,349.8 
	310.5,347.4 313.8,347 "/>
<polygon class="st0" points="315.3,355.4 316.8,358.4 320.1,358.9 317.7,361.2 318.2,364.5 315.3,362.9 312.3,364.5 312.9,361.2 
	310.5,358.9 313.8,358.4 "/>
<polygon class="st0" points="326.2,300.6 327.7,303.6 331,304.1 328.6,306.4 329.2,309.7 326.2,308.1 323.3,309.7 323.8,306.4 
	321.5,304.1 324.7,303.6 "/>
<polygon class="st0" points="326.2,313.3 327.7,316.2 331,316.7 328.6,319 329.2,322.3 326.2,320.8 323.3,322.3 323.8,319 
	321.5,316.7 324.7,316.2 "/>
<polygon class="st0" points="326.2,324.7 327.7,327.7 331,328.2 328.6,330.5 329.2,333.8 326.2,332.2 323.3,333.8 323.8,330.5 
	321.5,328.2 324.7,327.7 "/>
<polygon class="st0" points="326.2,335 327.7,337.9 331,338.4 328.6,340.7 329.2,344 326.2,342.5 323.3,344 323.8,340.7 
	321.5,338.4 324.7,337.9 "/>
<polygon class="st0" points="326.2,347.6 327.7,350.6 331,351.1 328.6,353.4 329.2,356.7 326.2,355.1 323.3,356.7 323.8,353.4 
	321.5,351.1 324.7,350.6 "/>
<polygon class="st0" points="326.2,359.1 327.7,362.1 331,362.5 328.6,364.9 329.2,368.1 326.2,366.6 323.3,368.1 323.8,364.9 
	321.5,362.5 324.7,362.1 "/>
<polygon class="st0" points="281.3,347.5 282.8,350.4 286.1,350.9 283.7,353.2 284.2,356.5 281.3,355 278.4,356.5 278.9,353.2 
	276.5,350.9 279.8,350.4 "/>
<polygon class="st0" points="292.2,374.2 293.7,377.1 297,377.6 294.6,379.9 295.2,383.2 292.2,381.7 289.3,383.2 289.8,379.9 
	287.5,377.6 290.8,377.1 "/>
<polygon class="st0" points="282,370 283.5,373 286.7,373.5 284.4,375.8 284.9,379.1 282,377.5 279,379.1 279.6,375.8 277.2,373.5 
	280.5,373 "/>
<polygon class="st0" points="314.1,379 315.5,382 318.8,382.5 316.5,384.8 317,388.1 314.1,386.5 311.1,388.1 311.7,384.8 
	309.3,382.5 312.6,382 "/>
<polygon class="st0" points="304.4,353 305.8,356 309.1,356.5 306.7,358.8 307.3,362.1 304.4,360.5 301.4,362.1 302,358.8 
	299.6,356.5 302.9,356 "/>
<polygon class="st0" points="326.2,370 327.7,373 331,373.5 328.6,375.8 329.2,379.1 326.2,377.5 323.3,379.1 323.8,375.8 
	321.5,373.5 324.7,373 "/>
<polygon class="st0" points="314.1,366.9 315.5,369.9 318.8,370.3 316.5,372.7 317,375.9 314.1,374.4 311.1,375.9 311.7,372.7 
	309.3,370.3 312.6,369.9 "/>
<polygon class="st0" points="303.1,364.5 304.6,367.4 307.9,367.9 305.5,370.2 306.1,373.5 303.1,372 300.2,373.5 300.8,370.2 
	298.4,367.9 301.7,367.4 "/>
<polygon class="st0" points="292.2,362 293.7,365 297,365.5 294.6,367.8 295.2,371.1 292.2,369.5 289.3,371.1 289.8,367.8 
	287.5,365.5 290.8,365 "/>
<polygon class="st0" points="280.2,393.3 281.6,396.3 284.9,396.8 282.6,399.1 283.1,402.4 280.2,400.8 277.2,402.4 277.8,399.1 
	275.4,396.8 278.7,396.3 "/>
<polygon class="st0" points="281.4,404.8 282.9,407.8 286.1,408.2 283.8,410.5 284.3,413.8 281.4,412.3 278.4,413.8 279,410.5 
	276.6,408.2 279.9,407.8 "/>
<polygon class="st0" points="247,372.5 248.5,375.5 251.8,376 249.4,378.3 250,381.6 247,380 244.1,381.6 244.7,378.3 242.3,376 
	245.6,375.5 "/>
<polygon class="st0" points="258.5,387.1 260,390.1 263.2,390.5 260.9,392.9 261.4,396.1 258.5,394.6 255.5,396.1 256.1,392.9 
	253.7,390.5 257,390.1 "/>
<polygon class="st0" points="269.9,389.5 271.4,392.5 274.7,393 272.3,395.3 272.9,398.6 269.9,397 267,398.6 267.6,395.3 
	265.2,393 268.5,392.5 "/>
<polygon class="st0" points="281.4,416.2 282.9,419.2 286.1,419.7 283.8,422 284.3,425.3 281.4,423.7 278.4,425.3 279,422 
	276.6,419.7 279.9,419.2 "/>
<polygon class="st0" points="247,396.1 248.5,399.1 251.8,399.6 249.4,401.9 250,405.2 247,403.6 244.1,405.2 244.7,401.9 
	242.3,399.6 245.6,399.1 "/>
<polygon class="st0" points="258.5,398.5 260,401.5 263.2,402 260.9,404.3 261.4,407.6 258.5,406 255.5,407.6 256.1,404.3 
	253.7,402 257,401.5 "/>
<polygon class="st0" points="269.9,401 271.4,403.9 274.7,404.4 272.3,406.7 272.9,410 269.9,408.5 267,410 267.6,406.7 
	265.2,404.4 268.5,403.9 "/>
<polygon class="st0" points="280.2,427.7 281.6,430.7 284.9,431.1 282.6,433.5 283.1,436.7 280.2,435.2 277.2,436.7 277.8,433.5 
	275.4,431.1 278.7,430.7 "/>
<polygon class="st0" points="258.5,410 260,413 263.2,413.4 260.9,415.8 261.4,419 258.5,417.5 255.5,419 256.1,415.8 253.7,413.4 
	257,413 "/>
<polygon class="st0" points="269.9,412.4 271.4,415.4 274.7,415.9 272.3,418.2 272.9,421.5 269.9,419.9 267,421.5 267.6,418.2 
	265.2,415.9 268.5,415.4 "/>
<polygon class="st0" points="280.2,439.1 281.6,442.1 284.9,442.6 282.6,444.9 283.1,448.2 280.2,446.6 277.2,448.2 277.8,444.9 
	275.4,442.6 278.7,442.1 "/>
<polygon class="st0" points="247,419 248.5,422 251.8,422.5 249.4,424.8 250,428.1 247,426.5 244.1,428.1 244.7,424.8 242.3,422.5 
	245.6,422 "/>
<polygon class="st0" points="258.5,421.4 260,424.4 263.2,424.9 260.9,427.2 261.4,430.5 258.5,428.9 255.5,430.5 256.1,427.2 
	253.7,424.9 257,424.4 "/>
<polygon class="st0" points="280.2,450.6 281.6,453.6 284.9,454 282.6,456.4 283.1,459.6 280.2,458.1 277.2,459.6 277.8,456.4 
	275.4,454 278.7,453.6 "/>
<polygon class="st0" points="280.2,462 281.6,465 284.9,465.5 282.6,467.8 283.1,471.1 280.2,469.5 277.2,471.1 277.8,467.8 
	275.4,465.5 278.7,465 "/>
<polygon class="st0" points="292.3,397 293.8,399.9 297.1,400.4 294.7,402.7 295.3,406 292.3,404.5 289.4,406 289.9,402.7 
	287.5,400.4 290.8,399.9 "/>
<polygon class="st0" points="291.1,408.4 292.6,411.4 295.9,411.9 293.5,414.2 294,417.5 291.1,415.9 288.2,417.5 288.7,414.2 
	286.3,411.9 289.6,411.4 "/>
<polygon class="st0" points="291.1,431.3 292.6,434.3 295.9,434.8 293.5,437.1 294,440.4 291.1,438.8 288.2,440.4 288.7,437.1 
	286.3,434.8 289.6,434.3 "/>
<polygon class="st0" points="291.1,442.8 292.6,445.7 295.9,446.2 293.5,448.5 294,451.8 291.1,450.3 288.2,451.8 288.7,448.5 
	286.3,446.2 289.6,445.7 "/>
<polygon class="st0" points="292.3,454.2 293.8,457.2 297.1,457.7 294.7,460 295.3,463.3 292.3,461.7 289.4,463.3 289.9,460 
	287.5,457.7 290.8,457.2 "/>
<polygon class="st0" points="292.3,384.3 293.8,387.3 297.1,387.8 294.7,390.1 295.3,393.4 292.3,391.8 289.4,393.4 289.9,390.1 
	287.5,387.8 290.8,387.3 "/>
<polygon class="st0" points="303.2,399.4 304.7,402.4 308,402.8 305.6,405.2 306.2,408.4 303.2,406.9 300.3,408.4 300.9,405.2 
	298.5,402.8 301.8,402.4 "/>
<polygon class="st0" points="303.2,410.8 304.7,413.8 308,414.3 305.6,416.6 306.2,419.9 303.2,418.3 300.3,419.9 300.9,416.6 
	298.5,414.3 301.8,413.8 "/>
<polygon class="st0" points="303.2,387.9 304.7,390.9 308,391.4 305.6,393.7 306.2,397 303.2,395.4 300.3,397 300.9,393.7 
	298.5,391.4 301.8,390.9 "/>
<polygon class="st0" points="247,431 248.5,433.9 251.8,434.4 249.4,436.7 250,440 247,438.5 244.1,440 244.7,436.7 242.3,434.4 
	245.6,433.9 "/>
<polygon class="st0" points="258.5,433.4 260,436.4 263.2,436.8 260.9,439.2 261.4,442.4 258.5,440.9 255.5,442.4 256.1,439.2 
	253.7,436.8 257,436.4 "/>
<polygon class="st0" points="247,442.4 248.5,445.4 251.8,445.9 249.4,448.2 250,451.5 247,449.9 244.1,451.5 244.7,448.2 
	242.3,445.9 245.6,445.4 "/>
<polygon class="st0" points="258.5,444.8 260,447.8 263.2,448.3 260.9,450.6 261.4,453.9 258.5,452.3 255.5,453.9 256.1,450.6 
	253.7,448.3 257,447.8 "/>
<polygon class="st0" points="269.9,447.3 271.4,450.2 274.7,450.7 272.3,453 272.9,456.3 269.9,454.8 267,456.3 267.6,453 
	265.2,450.7 268.5,450.2 "/>
<polygon class="st0" points="247,453.9 248.5,456.8 251.8,457.3 249.4,459.6 250,462.9 247,461.4 244.1,462.9 244.7,459.6 
	242.3,457.3 245.6,456.8 "/>
<polygon class="st0" points="258.5,456.3 260,459.3 263.2,459.7 260.9,462.1 261.4,465.3 258.5,463.8 255.5,465.3 256.1,462.1 
	253.7,459.7 257,459.3 "/>
<polygon class="st0" points="314.2,401.3 315.6,404.3 318.9,404.8 316.5,407.1 317.1,410.3 314.2,408.8 311.2,410.3 311.8,407.1 
	309.4,404.8 312.7,404.3 "/>
<polygon class="st0" points="325.1,392.8 326.6,395.8 329.8,396.3 327.5,398.6 328,401.9 325.1,400.3 322.1,401.9 322.7,398.6 
	320.3,396.3 323.6,395.8 "/>
<polygon class="st0" points="280.3,485.6 281.7,488.6 285,489.1 282.6,491.4 283.2,494.7 280.3,493.1 277.3,494.7 277.9,491.4 
	275.5,489.1 278.8,488.6 "/>
<polygon class="st0" points="270,470.3 271.5,473.3 274.8,473.8 272.4,476.1 273,479.4 270,477.9 267.1,479.4 267.6,476.1 
	265.3,473.8 268.5,473.3 "/>
<polygon class="st0" points="280.3,497 281.7,500 285,500.5 282.6,502.8 283.2,506.1 280.3,504.6 277.3,506.1 277.9,502.8 
	275.5,500.5 278.8,500 "/>
<polygon class="st0" points="247.1,476.9 248.6,479.9 251.9,480.4 249.5,482.7 250.1,486 247.1,484.4 244.2,486 244.7,482.7 
	242.4,480.4 245.6,479.9 "/>
<polygon class="st0" points="258.6,479.4 260,482.3 263.3,482.8 260.9,485.1 261.5,488.4 258.6,486.9 255.6,488.4 256.2,485.1 
	253.8,482.8 257.1,482.3 "/>
<polygon class="st0" points="270,481.8 271.5,484.8 274.8,485.3 272.4,487.6 273,490.8 270,489.3 267.1,490.8 267.6,487.6 
	265.3,485.3 268.5,484.8 "/>
<polygon class="st0" points="280.3,508.5 281.7,511.5 285,512 282.6,514.3 283.2,517.6 280.3,516 277.3,517.6 277.9,514.3 
	275.5,512 278.8,511.5 "/>
<polygon class="st0" points="247.1,488.4 248.6,491.4 251.9,491.8 249.5,494.2 250.1,497.4 247.1,495.9 244.2,497.4 244.7,494.2 
	242.4,491.8 245.6,491.4 "/>
<polygon class="st0" points="258.6,490.8 260,493.8 263.3,494.3 260.9,496.6 261.5,499.9 258.6,498.3 255.6,499.9 256.2,496.6 
	253.8,494.3 257.1,493.8 "/>
<polygon class="st0" points="280.3,520 281.7,522.9 285,523.4 282.6,525.7 283.2,529 280.3,527.5 277.3,529 277.9,525.7 
	275.5,523.4 278.8,522.9 "/>
<polygon class="st0" points="247.1,499.8 248.6,502.8 251.9,503.3 249.5,505.6 250.1,508.9 247.1,507.3 244.2,508.9 244.7,505.6 
	242.4,503.3 245.6,502.8 "/>
<polygon class="st0" points="291.2,477.8 292.7,480.8 295.9,481.2 293.6,483.6 294.1,486.8 291.2,485.3 288.2,486.8 288.8,483.6 
	286.4,481.2 289.7,480.8 "/>
<polygon class="st0" points="292.4,465.5 293.9,468.5 297.2,468.9 294.8,471.3 295.3,474.5 292.4,473 289.5,474.5 290,471.3 
	287.6,468.9 290.9,468.5 "/>
<polygon class="st0" points="258.6,514.2 260,517.2 263.3,517.7 260.9,520 261.5,523.3 258.6,521.7 255.6,523.3 256.2,520 
	253.8,517.7 257.1,517.2 "/>
<polygon class="st0" points="268.8,516.6 270.3,519.6 273.6,520.1 271.2,522.4 271.7,525.7 268.8,524.1 265.9,525.7 266.4,522.4 
	264,520.1 267.3,519.6 "/>
<polygon class="st0" points="247.1,523.2 248.6,526.2 251.9,526.7 249.5,529 250.1,532.3 247.1,530.7 244.2,532.3 244.7,529 
	242.4,526.7 245.6,526.2 "/>
<polygon class="st0" points="258.6,537.1 260,540.1 263.3,540.6 260.9,542.9 261.5,546.2 258.6,544.6 255.6,546.2 256.2,542.9 
	253.8,540.6 257.1,540.1 "/>
<polygon class="st0" points="247.5,535.2 249,538.2 252.2,538.7 249.9,541 250.4,544.3 247.5,542.7 244.5,544.3 245.1,541 
	242.7,538.7 246,538.2 "/>
<polygon class="st0" points="248.7,546.3 250.2,549.3 253.5,549.8 251.1,552.1 251.6,555.4 248.7,553.8 245.8,555.4 246.3,552.1 
	243.9,549.8 247.2,549.3 "/>
<polygon class="st0" points="582.4,184.4 583.9,187.4 587.2,187.9 584.8,190.2 585.4,193.5 582.4,191.9 579.5,193.5 580,190.2 
	577.6,187.9 580.9,187.4 "/>
<polygon class="st0" points="593.9,182 595.3,185 598.6,185.5 596.2,187.8 596.8,191.1 593.9,189.5 590.9,191.1 591.5,187.8 
	589.1,185.5 592.4,185 "/>
<polygon class="st0" points="582.4,195.9 583.9,198.9 587.2,199.3 584.8,201.7 585.4,204.9 582.4,203.4 579.5,204.9 580,201.7 
	577.6,199.3 580.9,198.9 "/>
<polygon class="st0" points="593.9,194.7 595.3,197.6 598.6,198.1 596.2,200.4 596.8,203.7 593.9,202.2 590.9,203.7 591.5,200.4 
	589.1,198.1 592.4,197.6 "/>
<polygon class="st0" points="559.7,224.3 561.2,227.3 564.4,227.8 562.1,230.1 562.6,233.4 559.7,231.8 556.7,233.4 557.3,230.1 
	554.9,227.8 558.2,227.3 "/>
<polygon class="st0" points="571.1,211 572.6,214 575.9,214.4 573.5,216.8 574.1,220 571.1,218.5 568.2,220 568.7,216.8 
	566.4,214.4 569.7,214 "/>
<polygon class="st0" points="581.4,208.6 582.8,211.5 586.1,212 583.7,214.3 584.3,217.6 581.4,216.1 578.4,217.6 579,214.3 
	576.6,212 579.9,211.5 "/>
<polygon class="st0" points="592.8,204.9 594.3,207.9 597.6,208.4 595.2,210.7 595.8,214 592.8,212.4 589.9,214 590.4,210.7 
	588.1,208.4 591.3,207.9 "/>
<polygon class="st0" points="559.7,237 561.2,240 564.4,240.5 562.1,242.8 562.6,246.1 559.7,244.5 556.7,246.1 557.3,242.8 
	554.9,240.5 558.2,240 "/>
<polygon class="st0" points="571.1,233.4 572.6,236.3 575.9,236.8 573.5,239.1 574.1,242.4 571.1,240.9 568.2,242.4 568.7,239.1 
	566.4,236.8 569.7,236.3 "/>
<polygon class="st0" points="581.4,230.9 582.8,233.9 586.1,234.4 583.7,236.7 584.3,240 581.4,238.4 578.4,240 579,236.7 
	576.6,234.4 579.9,233.9 "/>
<polygon class="st0" points="592.8,228.5 594.3,231.5 597.6,232 595.2,234.3 595.8,237.6 592.8,236 589.9,237.6 590.4,234.3 
	588.1,232 591.3,231.5 "/>
<polygon class="st0" points="559.7,248.5 561.2,251.4 564.4,251.9 562.1,254.2 562.6,257.5 559.7,256 556.7,257.5 557.3,254.2 
	554.9,251.9 558.2,251.4 "/>
<polygon class="st0" points="571.1,244.8 572.6,247.8 575.9,248.3 573.5,250.6 574.1,253.9 571.1,252.3 568.2,253.9 568.7,250.6 
	566.4,248.3 569.7,247.8 "/>
<polygon class="st0" points="582.6,242.4 584.1,245.4 587.3,245.8 585,248.2 585.5,251.4 582.6,249.9 579.6,251.4 580.2,248.2 
	577.8,245.8 581.1,245.4 "/>
<polygon class="st0" points="592.8,240 594.3,242.9 597.6,243.4 595.2,245.7 595.8,249 592.8,247.5 589.9,249 590.4,245.7 
	588.1,243.4 591.3,242.9 "/>
<polygon class="st0" points="559.7,259.9 561.2,262.9 564.4,263.4 562.1,265.7 562.6,269 559.7,267.4 556.7,269 557.3,265.7 
	554.9,263.4 558.2,262.9 "/>
<polygon class="st0" points="571.1,256.3 572.6,259.2 575.9,259.7 573.5,262 574.1,265.3 571.1,263.8 568.2,265.3 568.7,262 
	566.4,259.7 569.7,259.2 "/>
<polygon class="st0" points="582.6,253.8 584.1,256.8 587.3,257.3 585,259.6 585.5,262.9 582.6,261.3 579.6,262.9 580.2,259.6 
	577.8,257.3 581.1,256.8 "/>
<polygon class="st0" points="592.8,251.4 594.3,254.4 597.6,254.9 595.2,257.2 595.8,260.5 592.8,258.9 589.9,260.5 590.4,257.2 
	588.1,254.9 591.3,254.4 "/>
<polygon class="st0" points="559.7,270.1 561.2,273.1 564.4,273.6 562.1,275.9 562.6,279.2 559.7,277.6 556.7,279.2 557.3,275.9 
	554.9,273.6 558.2,273.1 "/>
<polygon class="st0" points="571.1,267.7 572.6,270.7 575.9,271.2 573.5,273.5 574.1,276.8 571.1,275.2 568.2,276.8 568.7,273.5 
	566.4,271.2 569.7,270.7 "/>
<polygon class="st0" points="582.6,265.3 584.1,268.3 587.3,268.7 585,271.1 585.5,274.3 582.6,272.8 579.6,274.3 580.2,271.1 
	577.8,268.7 581.1,268.3 "/>
<polygon class="st0" points="592.8,262.9 594.3,265.8 597.6,266.3 595.2,268.6 595.8,271.9 592.8,270.4 589.9,271.9 590.4,268.6 
	588.1,266.3 591.3,265.8 "/>
<polygon class="st0" points="559.7,282.8 561.2,285.8 564.4,286.3 562.1,288.6 562.6,291.9 559.7,290.3 556.7,291.9 557.3,288.6 
	554.9,286.3 558.2,285.8 "/>
<polygon class="st0" points="571.1,279.2 572.6,282.1 575.9,282.6 573.5,284.9 574.1,288.2 571.1,286.7 568.2,288.2 568.7,284.9 
	566.4,282.6 569.7,282.1 "/>
<polygon class="st0" points="581.4,276.7 582.8,279.7 586.1,280.2 583.7,282.5 584.3,285.8 581.4,284.2 578.4,285.8 579,282.5 
	576.6,280.2 579.9,279.7 "/>
<polygon class="st0" points="592.8,274.3 594.3,277.3 597.6,277.8 595.2,280.1 595.8,283.4 592.8,281.8 589.9,283.4 590.4,280.1 
	588.1,277.8 591.3,277.3 "/>
<polygon class="st0" points="559.7,294.3 561.2,297.2 564.4,297.7 562.1,300 562.6,303.3 559.7,301.8 556.7,303.3 557.3,300 
	554.9,297.7 558.2,297.2 "/>
<polygon class="st0" points="571.1,290.6 572.6,293.6 575.9,294.1 573.5,296.4 574.1,299.7 571.1,298.1 568.2,299.7 568.7,296.4 
	566.4,294.1 569.7,293.6 "/>
<polygon class="st0" points="581.4,288.2 582.8,291.2 586.1,291.6 583.7,294 584.3,297.2 581.4,295.7 578.4,297.2 579,294 
	576.6,291.6 579.9,291.2 "/>
<polygon class="st0" points="592.8,285.8 594.3,288.7 597.6,289.2 595.2,291.5 595.8,294.8 592.8,293.3 589.9,294.8 590.4,291.5 
	588.1,289.2 591.3,288.7 "/>
<polygon class="st0" points="571.1,303.3 572.6,306.3 575.9,306.7 573.5,309.1 574.1,312.3 571.1,310.8 568.2,312.3 568.7,309.1 
	566.4,306.7 569.7,306.3 "/>
<polygon class="st0" points="592.8,297.2 594.3,300.2 597.6,300.7 595.2,303 595.8,306.3 592.8,304.7 589.9,306.3 590.4,303 
	588.1,300.7 591.3,300.2 "/>
<polygon class="st0" points="559.7,317.2 561.2,320.1 564.4,320.6 562.1,322.9 562.6,326.2 559.7,324.7 556.7,326.2 557.3,322.9 
	554.9,320.6 558.2,320.1 "/>
<polygon class="st0" points="571.1,313.5 572.6,316.5 575.9,317 573.5,319.3 574.1,322.6 571.1,321 568.2,322.6 568.7,319.3 
	566.4,317 569.7,316.5 "/>
<polygon class="st0" points="582.6,311.1 584.1,314.1 587.3,314.5 585,316.9 585.5,320.1 582.6,318.6 579.6,320.1 580.2,316.9 
	577.8,314.5 581.1,314.1 "/>
<polygon class="st0" points="571.1,326.2 572.6,329.2 575.9,329.6 573.5,332 574.1,335.2 571.1,333.7 568.2,335.2 568.7,332 
	566.4,329.6 569.7,329.2 "/>
<polygon class="st0" points="581.4,322.5 582.8,325.5 586.1,326 583.7,328.3 584.3,331.6 581.4,330 578.4,331.6 579,328.3 
	576.6,326 579.9,325.5 "/>
<polygon class="st0" points="592.8,320.1 594.3,323.1 597.6,323.6 595.2,325.9 595.8,329.2 592.8,327.6 589.9,329.2 590.4,325.9 
	588.1,323.6 591.3,323.1 "/>
<polygon class="st0" points="559.1,340.6 560.6,343.6 563.9,344.1 561.5,346.4 562.1,349.7 559.1,348.1 556.2,349.7 556.7,346.4 
	554.4,344.1 557.7,343.6 "/>
<polygon class="st0" points="582,334.5 583.5,337.5 586.8,338 584.4,340.3 585,343.6 582,342 579.1,343.6 579.6,340.3 577.3,338 
	580.6,337.5 "/>
<polygon class="st0" points="593.5,332.1 595,335.1 598.2,335.6 595.9,337.9 596.4,341.2 593.5,339.6 590.5,341.2 591.1,337.9 
	588.7,335.6 592,335.1 "/>
<polygon class="st0" points="559.1,352 560.6,355 563.9,355.5 561.5,357.8 562.1,361.1 559.1,359.6 556.2,361.1 556.7,357.8 
	554.4,355.5 557.7,355 "/>
<polygon class="st0" points="570.6,349.6 572,352.6 575.3,353.1 573,355.4 573.5,358.7 570.6,357.1 567.6,358.7 568.2,355.4 
	565.8,353.1 569.1,352.6 "/>
<polygon class="st0" points="582,346 583.5,349 586.8,349.4 584.4,351.8 585,355 582,353.5 579.1,355 579.6,351.8 577.3,349.4 
	580.6,349 "/>
<polygon class="st0" points="593.5,343.5 595,346.5 598.2,347 595.9,349.3 596.4,352.6 593.5,351.1 590.5,352.6 591.1,349.3 
	588.7,347 592,346.5 "/>
<polygon class="st0" points="559.1,365.9 560.6,368.9 563.9,369.4 561.5,371.7 562.1,375 559.1,373.4 556.2,375 556.7,371.7 
	554.4,369.4 557.7,368.9 "/>
<polygon class="st0" points="570.6,361.1 572,364 575.3,364.5 573,366.8 573.5,370.1 570.6,368.6 567.6,370.1 568.2,366.8 
	565.8,364.5 569.1,364 "/>
<polygon class="st0" points="592.3,357.4 593.7,360.4 597,360.9 594.6,363.2 595.2,366.5 592.3,364.9 589.3,366.5 589.9,363.2 
	587.5,360.9 590.8,360.4 "/>
<polygon class="st0" points="560.3,374.9 561.8,377.9 565.1,378.4 562.7,380.7 563.3,384 560.3,382.5 557.4,384 558,380.7 
	555.6,378.4 558.9,377.9 "/>
<polygon class="st0" points="593.5,366.4 595,369.4 598.2,369.9 595.9,372.2 596.4,375.5 593.5,374 590.5,375.5 591.1,372.2 
	588.7,369.9 592,369.4 "/>
<polygon class="st0" points="571.8,382.8 573.3,385.7 576.6,386.2 574.2,388.5 574.7,391.8 571.8,390.3 568.8,391.8 569.4,388.5 
	567,386.2 570.3,385.7 "/>
<polygon class="st0" points="582,380.3 583.5,383.3 586.8,383.8 584.4,386.1 585,389.4 582,387.8 579.1,389.4 579.6,386.1 
	577.3,383.8 580.6,383.3 "/>
<polygon class="st0" points="592.3,380.3 593.7,383.3 597,383.8 594.6,386.1 595.2,389.4 592.3,387.8 589.3,389.4 589.9,386.1 
	587.5,383.8 590.8,383.3 "/>
<polygon class="st0" points="560.3,399.1 561.8,402 565.1,402.5 562.7,404.8 563.3,408.1 560.3,406.6 557.4,408.1 558,404.8 
	555.6,402.5 558.9,402 "/>
<polygon class="st0" points="570.6,406.9 572,409.9 575.3,410.3 573,412.7 573.5,415.9 570.6,414.4 567.6,415.9 568.2,412.7 
	565.8,410.3 569.1,409.9 "/>
<polygon class="st0" points="571.1,221.9 572.6,224.9 575.9,225.4 573.5,227.7 574.1,231 571.1,229.4 568.2,231 568.7,227.7 
	566.4,225.4 569.7,224.9 "/>
<polygon class="st0" points="582.6,219.5 584.1,222.5 587.3,222.9 585,225.3 585.5,228.5 582.6,227 579.6,228.5 580.2,225.3 
	577.8,222.9 581.1,222.5 "/>
<polygon class="st0" points="594,215.8 595.5,218.8 598.8,219.3 596.4,221.6 597,224.9 594,223.3 591.1,224.9 591.7,221.6 
	589.3,219.3 592.6,218.8 "/>
<polygon class="st0" points="560.2,213.4 561.7,216.4 565,216.9 562.6,219.2 563.1,222.5 560.2,220.9 557.3,222.5 557.8,219.2 
	555.4,216.9 558.7,216.4 "/>
<polygon class="st0" points="611.8,192.6 613.2,195.5 616.5,196 614.2,198.3 614.7,201.6 611.8,200.1 608.8,201.6 609.4,198.3 
	607,196 610.3,195.5 "/>
<polygon class="st0" points="623.2,185.3 624.7,188.3 628,188.7 625.6,191.1 626.2,194.3 623.2,192.8 620.3,194.3 620.8,191.1 
	618.5,188.7 621.8,188.3 "/>
<polygon class="st0" points="633.5,187.7 634.9,190.7 638.2,191.2 635.8,193.5 636.4,196.8 633.5,195.2 630.5,196.8 631.1,193.5 
	628.7,191.2 632,190.7 "/>
<polygon class="st0" points="644.9,213.2 646.4,216.2 649.7,216.7 647.3,219 647.9,222.3 644.9,220.7 642,222.3 642.5,219 
	640.2,216.7 643.4,216.2 "/>
<polygon class="st0" points="611.8,205.2 613.2,208.2 616.5,208.7 614.2,211 614.7,214.3 611.8,212.7 608.8,214.3 609.4,211 
	607,208.7 610.3,208.2 "/>
<polygon class="st0" points="623.2,207.7 624.7,210.6 628,211.1 625.6,213.4 626.2,216.7 623.2,215.2 620.3,216.7 620.8,213.4 
	618.5,211.1 621.8,210.6 "/>
<polygon class="st0" points="633.5,210.1 634.9,213.1 638.2,213.5 635.8,215.9 636.4,219.1 633.5,217.6 630.5,219.1 631.1,215.9 
	628.7,213.5 632,213.1 "/>
<polygon class="st0" points="644.9,236.8 646.4,239.8 649.7,240.2 647.3,242.6 647.9,245.8 644.9,244.3 642,245.8 642.5,242.6 
	640.2,240.2 643.4,239.8 "/>
<polygon class="st0" points="611.8,216.7 613.2,219.7 616.5,220.1 614.2,222.5 614.7,225.7 611.8,224.2 608.8,225.7 609.4,222.5 
	607,220.1 610.3,219.7 "/>
<polygon class="st0" points="623.2,219.1 624.7,222.1 628,222.6 625.6,224.9 626.2,228.2 623.2,226.6 620.3,228.2 620.8,224.9 
	618.5,222.6 621.8,222.1 "/>
<polygon class="st0" points="634.7,221.5 636.1,224.5 639.4,225 637.1,227.3 637.6,230.6 634.7,229 631.7,230.6 632.3,227.3 
	629.9,225 633.2,224.5 "/>
<polygon class="st0" points="644.9,248.2 646.4,251.2 649.7,251.7 647.3,254 647.9,257.3 644.9,255.7 642,257.3 642.5,254 
	640.2,251.7 643.4,251.2 "/>
<polygon class="st0" points="611.8,228.1 613.2,231.1 616.5,231.6 614.2,233.9 614.7,237.2 611.8,235.6 608.8,237.2 609.4,233.9 
	607,231.6 610.3,231.1 "/>
<polygon class="st0" points="623.2,230.6 624.7,233.5 628,234 625.6,236.3 626.2,239.6 623.2,238.1 620.3,239.6 620.8,236.3 
	618.5,234 621.8,233.5 "/>
<polygon class="st0" points="634.7,233 636.1,236 639.4,236.4 637.1,238.8 637.6,242 634.7,240.5 631.7,242 632.3,238.8 
	629.9,236.4 633.2,236 "/>
<polygon class="st0" points="644.9,259.7 646.4,262.7 649.7,263.1 647.3,265.5 647.9,268.7 644.9,267.2 642,268.7 642.5,265.5 
	640.2,263.1 643.4,262.7 "/>
<polygon class="st0" points="611.8,239.6 613.2,242.6 616.5,243 614.2,245.4 614.7,248.6 611.8,247.1 608.8,248.6 609.4,245.4 
	607,243 610.3,242.6 "/>
<polygon class="st0" points="623.2,242 624.7,245 628,245.5 625.6,247.8 626.2,251.1 623.2,249.5 620.3,251.1 620.8,247.8 
	618.5,245.5 621.8,245 "/>
<polygon class="st0" points="634.7,244.4 636.1,247.4 639.4,247.9 637.1,250.2 637.6,253.5 634.7,251.9 631.7,253.5 632.3,250.2 
	629.9,247.9 633.2,247.4 "/>
<polygon class="st0" points="644.9,271.1 646.4,274.1 649.7,274.6 647.3,276.9 647.9,280.2 644.9,278.6 642,280.2 642.5,276.9 
	640.2,274.6 643.4,274.1 "/>
<polygon class="st0" points="611.8,251 613.2,254 616.5,254.5 614.2,256.8 614.7,260.1 611.8,258.5 608.8,260.1 609.4,256.8 
	607,254.5 610.3,254 "/>
<polygon class="st0" points="623.2,253.5 624.7,256.4 628,256.9 625.6,259.2 626.2,262.5 623.2,261 620.3,262.5 620.8,259.2 
	618.5,256.9 621.8,256.4 "/>
<polygon class="st0" points="633.5,255.9 634.9,258.9 638.2,259.3 635.8,261.7 636.4,264.9 633.5,263.4 630.5,264.9 631.1,261.7 
	628.7,259.3 632,258.9 "/>
<polygon class="st0" points="644.9,282.6 646.4,285.6 649.7,286.1 647.3,288.4 647.9,291.6 644.9,290.1 642,291.6 642.5,288.4 
	640.2,286.1 643.4,285.6 "/>
<polygon class="st0" points="611.8,262.5 613.2,265.5 616.5,265.9 614.2,268.3 614.7,271.5 611.8,270 608.8,271.5 609.4,268.3 
	607,265.9 610.3,265.5 "/>
<polygon class="st0" points="623.2,264.9 624.7,267.9 628,268.4 625.6,270.7 626.2,274 623.2,272.4 620.3,274 620.8,270.7 
	618.5,268.4 621.8,267.9 "/>
<polygon class="st0" points="633.5,268.5 634.9,271.5 638.2,272 635.8,274.3 636.4,277.6 633.5,276.1 630.5,277.6 631.1,274.3 
	628.7,272 632,271.5 "/>
<polygon class="st0" points="644.9,294 646.4,297 649.7,297.5 647.3,299.8 647.9,303.1 644.9,301.6 642,303.1 642.5,299.8 
	640.2,297.5 643.4,297 "/>
<polygon class="st0" points="623.2,196.2 624.7,199.2 628,199.7 625.6,202 626.2,205.3 623.2,203.7 620.3,205.3 620.8,202 
	618.5,199.7 621.8,199.2 "/>
<polygon class="st0" points="634.7,198.6 636.1,201.6 639.4,202.1 637.1,204.4 637.6,207.7 634.7,206.1 631.7,207.7 632.3,204.4 
	629.9,202.1 633.2,201.6 "/>
<polygon class="st0" points="646.1,224.1 647.6,227.1 650.9,227.6 648.5,229.9 649.1,233.2 646.1,231.6 643.2,233.2 643.7,229.9 
	641.4,227.6 644.7,227.1 "/>
<polygon class="st0" points="612.3,181.6 613.8,184.6 617.1,185.1 614.7,187.4 615.2,190.7 612.3,189.1 609.4,190.7 609.9,187.4 
	607.5,185.1 610.8,184.6 "/>
<polygon class="st0" points="655.8,216.8 657.3,219.8 660.6,220.3 658.2,222.6 658.8,225.9 655.8,224.3 652.9,225.9 653.5,222.6 
	651.1,220.3 654.4,219.8 "/>
<polygon class="st0" points="655.8,240.4 657.3,243.4 660.6,243.9 658.2,246.2 658.8,249.5 655.8,247.9 652.9,249.5 653.5,246.2 
	651.1,243.9 654.4,243.4 "/>
<polygon class="st0" points="655.8,251.9 657.3,254.9 660.6,255.3 658.2,257.7 658.8,260.9 655.8,259.4 652.9,260.9 653.5,257.7 
	651.1,255.3 654.4,254.9 "/>
<polygon class="st0" points="655.8,263.3 657.3,266.3 660.6,266.8 658.2,269.1 658.8,272.4 655.8,270.8 652.9,272.4 653.5,269.1 
	651.1,266.8 654.4,266.3 "/>
<polygon class="st0" points="655.8,274.8 657.3,277.8 660.6,278.2 658.2,280.6 658.8,283.8 655.8,282.3 652.9,283.8 653.5,280.6 
	651.1,278.2 654.4,277.8 "/>
<polygon class="st0" points="655.8,286.2 657.3,289.2 660.6,289.7 658.2,292 658.8,295.3 655.8,293.7 652.9,295.3 653.5,292 
	651.1,289.7 654.4,289.2 "/>
<polygon class="st0" points="655.8,297.7 657.3,300.7 660.6,301.1 658.2,303.5 658.8,306.7 655.8,305.2 652.9,306.7 653.5,303.5 
	651.1,301.1 654.4,300.7 "/>
<polygon class="st0" points="655.8,309.1 657.3,312.1 660.6,312.6 658.2,314.9 658.8,318.2 655.8,316.6 652.9,318.2 653.5,314.9 
	651.1,312.6 654.4,312.1 "/>
<polygon class="st0" points="657.1,227.8 658.5,230.7 661.8,231.2 659.4,233.5 660,236.8 657.1,235.3 654.1,236.8 654.7,233.5 
	652.3,231.2 655.6,230.7 "/>
<polygon class="st0" points="666.8,220.5 668.2,223.5 671.5,223.9 669.1,226.3 669.7,229.5 666.8,228 663.8,229.5 664.4,226.3 
	662,223.9 665.3,223.5 "/>
<polygon class="st0" points="666.8,242.9 668.2,245.8 671.5,246.3 669.1,248.6 669.7,251.9 666.8,250.4 663.8,251.9 664.4,248.6 
	662,246.3 665.3,245.8 "/>
<polygon class="st0" points="666.8,254.3 668.2,257.3 671.5,257.8 669.1,260.1 669.7,263.4 666.8,261.8 663.8,263.4 664.4,260.1 
	662,257.8 665.3,257.3 "/>
<polygon class="st0" points="666.8,267 668.2,270 671.5,270.4 669.1,272.8 669.7,276 666.8,274.5 663.8,276 664.4,272.8 662,270.4 
	665.3,270 "/>
<polygon class="st0" points="666.8,277.2 668.2,280.2 671.5,280.7 669.1,283 669.7,286.3 666.8,284.7 663.8,286.3 664.4,283 
	662,280.7 665.3,280.2 "/>
<polygon class="st0" points="666.8,289.9 668.2,292.9 671.5,293.3 669.1,295.7 669.7,298.9 666.8,297.4 663.8,298.9 664.4,295.7 
	662,293.3 665.3,292.9 "/>
<polygon class="st0" points="666.8,301.3 668.2,304.3 671.5,304.8 669.1,307.1 669.7,310.4 666.8,308.8 663.8,310.4 664.4,307.1 
	662,304.8 665.3,304.3 "/>
<polygon class="st0" points="668,231.4 669.4,234.4 672.7,234.9 670.4,237.2 670.9,240.5 668,238.9 665,240.5 665.6,237.2 
	663.2,234.9 666.5,234.4 "/>
<polygon class="st0" points="611.8,274.4 613.2,277.4 616.5,277.9 614.2,280.2 614.7,283.5 611.8,281.9 608.8,283.5 609.4,280.2 
	607,277.9 610.3,277.4 "/>
<polygon class="st0" points="623.2,276.8 624.7,279.8 628,280.3 625.6,282.6 626.2,285.9 623.2,284.4 620.3,285.9 620.8,282.6 
	618.5,280.3 621.8,279.8 "/>
<polygon class="st0" points="633.5,279.3 634.9,282.3 638.2,282.7 635.8,285.1 636.4,288.3 633.5,286.8 630.5,288.3 631.1,285.1 
	628.7,282.7 632,282.3 "/>
<polygon class="st0" points="611.8,285.9 613.2,288.9 616.5,289.3 614.2,291.7 614.7,294.9 611.8,293.4 608.8,294.9 609.4,291.7 
	607,289.3 610.3,288.9 "/>
<polygon class="st0" points="623.2,288.3 624.7,291.3 628,291.8 625.6,294.1 626.2,297.4 623.2,295.8 620.3,297.4 620.8,294.1 
	618.5,291.8 621.8,291.3 "/>
<polygon class="st0" points="634.7,290.7 636.1,293.7 639.4,294.2 637.1,296.5 637.6,299.8 634.7,298.2 631.7,299.8 632.3,296.5 
	629.9,294.2 633.2,293.7 "/>
<polygon class="st0" points="623.2,299.8 624.7,302.7 628,303.2 625.6,305.5 626.2,308.8 623.2,307.3 620.3,308.8 620.8,305.5 
	618.5,303.2 621.8,302.7 "/>
<polygon class="st0" points="634.7,302.2 636.1,305.2 639.4,305.6 637.1,308 637.6,311.2 634.7,309.7 631.7,311.2 632.3,308 
	629.9,305.6 633.2,305.2 "/>
<polygon class="st0" points="611.8,308.8 613.2,311.8 616.5,312.2 614.2,314.6 614.7,317.8 611.8,316.3 608.8,317.8 609.4,314.6 
	607,312.2 610.3,311.8 "/>
<polygon class="st0" points="623.2,311.2 624.7,314.2 628,314.7 625.6,317 626.2,320.3 623.2,318.7 620.3,320.3 620.8,317 
	618.5,314.7 621.8,314.2 "/>
<polygon class="st0" points="611.8,320.2 613.2,323.2 616.5,323.7 614.2,326 614.7,329.3 611.8,327.7 608.8,329.3 609.4,326 
	607,323.7 610.3,323.2 "/>
<polygon class="st0" points="623.2,322.7 624.7,325.6 628,326.1 625.6,328.4 626.2,331.7 623.2,330.2 620.3,331.7 620.8,328.4 
	618.5,326.1 621.8,325.6 "/>
<polygon class="st0" points="633.5,337.7 634.9,340.7 638.2,341.2 635.8,343.5 636.4,346.8 633.5,345.3 630.5,346.8 631.1,343.5 
	628.7,341.2 632,340.7 "/>
<polygon class="st0" points="678.9,244.8 680.4,247.7 683.7,248.2 681.3,250.5 681.8,253.8 678.9,252.3 676,253.8 676.5,250.5 
	674.1,248.2 677.4,247.7 "/>
<polygon class="st0" points="678.9,268.4 680.4,271.3 683.7,271.8 681.3,274.1 681.8,277.4 678.9,275.9 676,277.4 676.5,274.1 
	674.1,271.8 677.4,271.3 "/>
<polygon class="st0" points="678.9,279.8 680.4,282.8 683.7,283.3 681.3,285.6 681.8,288.9 678.9,287.3 676,288.9 676.5,285.6 
	674.1,283.3 677.4,282.8 "/>
<polygon class="st0" points="678.9,291.3 680.4,294.2 683.7,294.7 681.3,297 681.8,300.3 678.9,298.8 676,300.3 676.5,297 
	674.1,294.7 677.4,294.2 "/>
<polygon class="st0" points="678.9,302.7 680.4,305.7 683.7,306.2 681.3,308.5 681.8,311.8 678.9,310.2 676,311.8 676.5,308.5 
	674.1,306.2 677.4,305.7 "/>
<polygon class="st0" points="678.9,314.2 680.4,317.1 683.7,317.6 681.3,319.9 681.8,323.2 678.9,321.7 676,323.2 676.5,319.9 
	674.1,317.6 677.4,317.1 "/>
<polygon class="st0" points="678.9,325.6 680.4,328.6 683.7,329.1 681.3,331.4 681.8,334.7 678.9,333.1 676,334.7 676.5,331.4 
	674.1,329.1 677.4,328.6 "/>
<polygon class="st0" points="678.9,255.7 680.4,258.7 683.7,259.1 681.3,261.5 681.8,264.7 678.9,263.2 676,264.7 676.5,261.5 
	674.1,259.1 677.4,258.7 "/>
<polygon class="st0" points="644.9,317.6 646.4,320.6 649.7,321.1 647.3,323.4 647.9,326.7 644.9,325.1 642,326.7 642.5,323.4 
	640.2,321.1 643.4,320.6 "/>
<polygon class="st0" points="655.8,344.3 657.3,347.3 660.6,347.8 658.2,350.1 658.8,353.4 655.8,351.9 652.9,353.4 653.5,350.1 
	651.1,347.8 654.4,347.3 "/>
<polygon class="st0" points="645.6,340.2 647.1,343.2 650.4,343.6 648,346 648.5,349.2 645.6,347.7 642.7,349.2 643.2,346 
	640.8,343.6 644.1,343.2 "/>
<polygon class="st0" points="677.7,349.2 679.2,352.2 682.5,352.7 680.1,355 680.6,358.3 677.7,356.7 674.7,358.3 675.3,355 
	672.9,352.7 676.2,352.2 "/>
<polygon class="st0" points="668,323.2 669.4,326.2 672.7,326.6 670.4,329 670.9,332.2 668,330.7 665,332.2 665.6,329 663.2,326.6 
	666.5,326.2 "/>
<polygon class="st0" points="677.7,337.1 679.2,340 682.5,340.5 680.1,342.8 680.6,346.1 677.7,344.6 674.7,346.1 675.3,342.8 
	672.9,340.5 676.2,340 "/>
<polygon class="st0" points="666.8,334.6 668.2,337.6 671.5,338.1 669.1,340.4 669.7,343.7 666.8,342.1 663.8,343.7 664.4,340.4 
	662,338.1 665.3,337.6 "/>
<polygon class="st0" points="655.8,332.2 657.3,335.2 660.6,335.7 658.2,338 658.8,341.3 655.8,339.7 652.9,341.3 653.5,338 
	651.1,335.7 654.4,335.2 "/>
<polygon class="st0" points="610.6,342.7 612.1,345.7 615.4,346.2 613,348.5 613.6,351.8 610.6,350.2 607.7,351.8 608.3,348.5 
	605.9,346.2 609.2,345.7 "/>
<polygon class="st0" points="622.1,357.3 623.6,360.2 626.9,360.7 624.5,363 625,366.3 622.1,364.8 619.2,366.3 619.7,363 
	617.3,360.7 620.6,360.2 "/>
<polygon class="st0" points="610.6,366.3 612.1,369.3 615.4,369.7 613,372.1 613.6,375.3 610.6,373.8 607.7,375.3 608.3,372.1 
	605.9,369.7 609.2,369.3 "/>
<polygon class="st0" points="622.1,368.7 623.6,371.7 626.9,372.2 624.5,374.5 625,377.8 622.1,376.2 619.2,377.8 619.7,374.5 
	617.3,372.2 620.6,371.7 "/>
<polygon class="st0" points="633.5,371.1 635,374.1 638.3,374.6 635.9,376.9 636.5,380.2 633.5,378.7 630.6,380.2 631.2,376.9 
	628.8,374.6 632.1,374.1 "/>
<polygon class="st0" points="643.8,397.8 645.3,400.8 648.5,401.3 646.2,403.6 646.7,406.9 643.8,405.4 640.8,406.9 641.4,403.6 
	639,401.3 642.3,400.8 "/>
<polygon class="st0" points="622.1,380.2 623.6,383.1 626.9,383.6 624.5,385.9 625,389.2 622.1,387.7 619.2,389.2 619.7,385.9 
	617.3,383.6 620.6,383.1 "/>
<polygon class="st0" points="633.5,382.6 635,385.6 638.3,386.1 635.9,388.4 636.5,391.6 633.5,390.1 630.6,391.6 631.2,388.4 
	628.8,386.1 632.1,385.6 "/>
<polygon class="st0" points="643.8,409.3 645.3,412.3 648.5,412.8 646.2,415.1 646.7,418.4 643.8,416.8 640.8,418.4 641.4,415.1 
	639,412.8 642.3,412.3 "/>
<polygon class="st0" points="622.1,391.6 623.6,394.6 626.9,395.1 624.5,397.4 625,400.7 622.1,399.1 619.2,400.7 619.7,397.4 
	617.3,395.1 620.6,394.6 "/>
<polygon class="st0" points="643.8,420.8 645.3,423.7 648.5,424.2 646.2,426.5 646.7,429.8 643.8,428.3 640.8,429.8 641.4,426.5 
	639,424.2 642.3,423.7 "/>
<polygon class="st0" points="643.8,432.2 645.3,435.2 648.5,435.7 646.2,438 646.7,441.3 643.8,439.7 640.8,441.3 641.4,438 
	639,435.7 642.3,435.2 "/>
<polygon class="st0" points="655.9,367.1 657.4,370.1 660.7,370.6 658.3,372.9 658.9,376.2 655.9,374.6 653,376.2 653.5,372.9 
	651.2,370.6 654.5,370.1 "/>
<polygon class="st0" points="654.7,378.6 656.2,381.6 659.5,382 657.1,384.4 657.7,387.6 654.7,386.1 651.8,387.6 652.3,384.4 
	649.9,382 653.2,381.6 "/>
<polygon class="st0" points="654.7,401.5 656.2,404.5 659.5,405 657.1,407.3 657.7,410.5 654.7,409 651.8,410.5 652.3,407.3 
	649.9,405 653.2,404.5 "/>
<polygon class="st0" points="654.7,412.9 656.2,415.9 659.5,416.4 657.1,418.7 657.7,422 654.7,420.5 651.8,422 652.3,418.7 
	649.9,416.4 653.2,415.9 "/>
<polygon class="st0" points="655.9,424.4 657.4,427.4 660.7,427.9 658.3,430.2 658.9,433.4 655.9,431.9 653,433.4 653.5,430.2 
	651.2,427.9 654.5,427.4 "/>
<polygon class="st0" points="655.9,354.5 657.4,357.5 660.7,357.9 658.3,360.3 658.9,363.5 655.9,362 653,363.5 653.5,360.3 
	651.2,357.9 654.5,357.5 "/>
<polygon class="st0" points="666.9,369.6 668.3,372.5 671.6,373 669.2,375.3 669.8,378.6 666.9,377.1 663.9,378.6 664.5,375.3 
	662.1,373 665.4,372.5 "/>
<polygon class="st0" points="666.9,381 668.3,384 671.6,384.5 669.2,386.8 669.8,390.1 666.9,388.5 663.9,390.1 664.5,386.8 
	662.1,384.5 665.4,384 "/>
<polygon class="st0" points="665.6,392.5 667.1,395.4 670.4,395.9 668,398.2 668.6,401.5 665.6,400 662.7,401.5 663.3,398.2 
	660.9,395.9 664.2,395.4 "/>
<polygon class="st0" points="665.6,415.4 667.1,418.4 670.4,418.8 668,421.1 668.6,424.4 665.6,422.9 662.7,424.4 663.3,421.1 
	660.9,418.8 664.2,418.4 "/>
<polygon class="st0" points="665.6,426.8 667.1,429.8 670.4,430.3 668,432.6 668.6,435.9 665.6,434.3 662.7,435.9 663.3,432.6 
	660.9,430.3 664.2,429.8 "/>
<polygon class="st0" points="666.9,358.1 668.3,361.1 671.6,361.6 669.2,363.9 669.8,367.2 666.9,365.6 663.9,367.2 664.5,363.9 
	662.1,361.6 665.4,361.1 "/>
<polygon class="st0" points="610.6,401.1 612.1,404.1 615.4,404.6 613,406.9 613.6,410.2 610.6,408.6 607.7,410.2 608.3,406.9 
	605.9,404.6 609.2,404.1 "/>
<polygon class="st0" points="622.1,403.6 623.6,406.5 626.9,407 624.5,409.3 625,412.6 622.1,411.1 619.2,412.6 619.7,409.3 
	617.3,407 620.6,406.5 "/>
<polygon class="st0" points="610.6,412.6 612.1,415.6 615.4,416 613,418.4 613.6,421.6 610.6,420.1 607.7,421.6 608.3,418.4 
	605.9,416 609.2,415.6 "/>
<polygon class="st0" points="622.1,415 623.6,418 626.9,418.5 624.5,420.8 625,424.1 622.1,422.5 619.2,424.1 619.7,420.8 
	617.3,418.5 620.6,418 "/>
<polygon class="st0" points="633.5,417.4 635,420.4 638.3,420.9 635.9,423.2 636.5,426.5 633.5,424.9 630.6,426.5 631.2,423.2 
	628.8,420.9 632.1,420.4 "/>
<polygon class="st0" points="610.6,424 612.1,427 615.4,427.5 613,429.8 613.6,433.1 610.6,431.5 607.7,433.1 608.3,429.8 
	605.9,427.5 609.2,427 "/>
<polygon class="st0" points="622.1,426.5 623.6,429.4 626.9,429.9 624.5,432.2 625,435.5 622.1,434 619.2,435.5 619.7,432.2 
	617.3,429.9 620.6,429.4 "/>
<polygon class="st0" points="677.8,371.5 679.2,374.5 682.5,374.9 680.2,377.2 680.7,380.5 677.8,379 674.8,380.5 675.4,377.2 
	673,374.9 676.3,374.5 "/>
<polygon class="st0" points="677.8,395.1 679.2,398 682.5,398.5 680.2,400.8 680.7,404.1 677.8,402.6 674.8,404.1 675.4,400.8 
	673,398.5 676.3,398 "/>
<polygon class="st0" points="677.8,406.5 679.2,409.5 682.5,410 680.2,412.3 680.7,415.6 677.8,414 674.8,415.6 675.4,412.3 
	673,410 676.3,409.5 "/>
<polygon class="st0" points="677.8,429.4 679.2,432.4 682.5,432.9 680.2,435.2 680.7,438.5 677.8,436.9 674.8,438.5 675.4,435.2 
	673,432.9 676.3,432.4 "/>
<polygon class="st0" points="643.9,455.8 645.3,458.8 648.6,459.2 646.3,461.6 646.8,464.8 643.9,463.3 640.9,464.8 641.5,461.6 
	639.1,459.2 642.4,458.8 "/>
<polygon class="st0" points="633.6,440.5 635.1,443.5 638.4,444 636,446.3 636.6,449.6 633.6,448 630.7,449.6 631.3,446.3 
	628.9,444 632.2,443.5 "/>
<polygon class="st0" points="643.9,467.2 645.3,470.2 648.6,470.7 646.3,473 646.8,476.3 643.9,474.7 640.9,476.3 641.5,473 
	639.1,470.7 642.4,470.2 "/>
<polygon class="st0" points="610.7,447.1 612.2,450.1 615.5,450.6 613.1,452.9 613.7,456.2 610.7,454.6 607.8,456.2 608.4,452.9 
	606,450.6 609.3,450.1 "/>
<polygon class="st0" points="622.2,449.5 623.7,452.5 626.9,453 624.6,455.3 625.1,458.6 622.2,457.1 619.2,458.6 619.8,455.3 
	617.4,453 620.7,452.5 "/>
<polygon class="st0" points="633.6,452 635.1,455 638.4,455.4 636,457.8 636.6,461 633.6,459.5 630.7,461 631.3,457.8 628.9,455.4 
	632.2,455 "/>
<polygon class="st0" points="643.9,478.7 645.3,481.7 648.6,482.1 646.3,484.5 646.8,487.7 643.9,486.2 640.9,487.7 641.5,484.5 
	639.1,482.1 642.4,481.7 "/>
<polygon class="st0" points="610.7,458.6 612.2,461.5 615.5,462 613.1,464.3 613.7,467.6 610.7,466.1 607.8,467.6 608.4,464.3 
	606,462 609.3,461.5 "/>
<polygon class="st0" points="622.2,461 623.7,464 626.9,464.5 624.6,466.8 625.1,470 622.2,468.5 619.2,470 619.8,466.8 
	617.4,464.5 620.7,464 "/>
<polygon class="st0" points="643.9,490.1 645.3,493.1 648.6,493.6 646.3,495.9 646.8,499.2 643.9,497.6 640.9,499.2 641.5,495.9 
	639.1,493.6 642.4,493.1 "/>
<polygon class="st0" points="610.7,470 612.2,473 615.5,473.5 613.1,475.8 613.7,479.1 610.7,477.5 607.8,479.1 608.4,475.8 
	606,473.5 609.3,473 "/>
<polygon class="st0" points="654.8,448 656.3,450.9 659.6,451.4 657.2,453.7 657.7,457 654.8,455.5 651.9,457 652.4,453.7 
	650,451.4 653.3,450.9 "/>
<polygon class="st0" points="656,435.7 657.5,438.6 660.8,439.1 658.4,441.4 659,444.7 656,443.2 653.1,444.7 653.6,441.4 
	651.2,439.1 654.5,438.6 "/>
<polygon class="st0" points="665.7,450.4 667.2,453.4 670.5,453.9 668.1,456.2 668.7,459.5 665.7,457.9 662.8,459.5 663.3,456.2 
	661,453.9 664.3,453.4 "/>
<polygon class="st0" points="666.9,438.8 668.4,441.8 671.7,442.2 669.3,444.6 669.9,447.8 666.9,446.3 664,447.8 664.6,444.6 
	662.2,442.2 665.5,441.8 "/>
<polygon class="st0" points="622.2,484.4 623.7,487.4 626.9,487.8 624.6,490.2 625.1,493.4 622.2,491.9 619.2,493.4 619.8,490.2 
	617.4,487.8 620.7,487.4 "/>
<polygon class="st0" points="632.4,486.8 633.9,489.8 637.2,490.3 634.8,492.6 635.4,495.9 632.4,494.3 629.5,495.9 630,492.6 
	627.7,490.3 630.9,489.8 "/>
<polygon class="st0" points="610.7,493.4 612.2,496.4 615.5,496.9 613.1,499.2 613.7,502.5 610.7,500.9 607.8,502.5 608.4,499.2 
	606,496.9 609.3,496.4 "/>
<polygon class="st0" points="622.2,507.3 623.7,510.3 626.9,510.7 624.6,513.1 625.1,516.3 622.2,514.8 619.2,516.3 619.8,513.1 
	617.4,510.7 620.7,510.3 "/>
<polygon class="st0" points="666.9,463.1 668.4,466 671.7,466.5 669.3,468.8 669.9,472.1 666.9,470.6 664,472.1 664.6,468.8 
	662.2,466.5 665.5,466 "/>
<polygon class="st0" points="611.1,505.4 612.6,508.4 615.9,508.8 613.5,511.2 614,514.4 611.1,512.9 608.2,514.4 608.7,511.2 
	606.3,508.8 609.6,508.4 "/>
<polygon class="st0" points="612.3,516.5 613.8,519.5 617.1,519.9 614.7,522.3 615.3,525.5 612.3,524 609.4,525.5 609.9,522.3 
	607.5,519.9 610.8,519.5 "/>
<polygon class="st0" points="234.2,271.2 235.7,274.2 239,274.7 236.6,277 237.1,280.3 234.2,278.7 231.3,280.3 231.8,277 
	229.4,274.7 232.7,274.2 "/>
<polygon class="st0" points="196.1,300 197.5,302.9 200.8,303.4 198.4,305.7 199,309 196.1,307.5 193.1,309 193.7,305.7 
	191.3,303.4 194.6,302.9 "/>
<path class="st1" d="M677.9,220.5l-36-12v-26l-40-8l-30,8v20l-24,9v208h-4l-207,1v-121l-3-3l-18-5v-8l-55-42l-68,52c-1,2-1,5-1,7
	v-18c0-136,110-246,246-246s253,110,245,206h-5V220.5z"/>
<rect x="304.1" y="473.2" class="st2" width="292.9" height="60"/>
<rect x="304.1" y="425.1" class="st2" width="292.9" height="66.8"/>
<rect x="306.9" y="427.9" class="st3" width="229" height="61.2"/>
<rect x="364.3" y="427.3" class="st2" width="173.1" height="63"/>
<path class="st4" d="M343.4,444.2c-0.5,0.4-0.5,1.1,0,1.6c0.4,0.4,1.2,0.5,1.6,0c0.5-0.4,0.5-1.1,0-1.6
	C344.6,443.8,343.9,443.8,343.4,444.2"/>
<path class="st4" d="M327.8,450.1c0.7-1.3,0.2-2.3-1.1-2C327.5,448.2,328,449.2,327.8,450.1"/>
<path class="st3" d="M356.3,449.2c-0.5,0.3-1.9,1.6-1.3,1.8c1.5,2,0.8,7.1-2.5,7.4c-0.8,0.3-0.5,8.5,0.3,21.4c-0.6-0.1-1.4,0-2.7,0
	c-0.1,4.2,0,7.7,0.2,8c-0.3,0.7-1,1.6-1.5,1.3c-5.7,0-10,0-10.9,0c-0.6-1.3-0.2-3,0.7-2.7c2.3,0,7.9,0,7.9-5.7
	c-1.1,0-2.7,0.1-2.9-0.1c0.9-10.1,1.9-21.7,1.8-23c-0.1-3.2-0.2-0.4-1.7,0.6c-0.1-1.8-3.3-2.7-4.1-2.6c-4.4-1.4-8.1-2.1-8-5.7
	c-2.7,1.3-6.5,1.1-6.8-0.6c-1-1-1.2-3.1-0.4-4.2c-1-4.5,7.8-7.3,7.8-1.4c0,0.5,0.3,2.4,1,2.4c4.9-1.4,12.4-2.7,16.1-3.2
	c0.5,0.2,2.2-1,2-0.5c-0.4,2.3-1.8,6.1-1.3,6.7c8.6-2.4,2.2,3.6,3.1,1.3C354.6,450.6,360.3,445.2,356.3,449.2"/>
<path class="st4" d="M344.7,444.3c-0.5,0.4-0.5,1.1,0,1.6c0.4,0.4,1.2,0.5,1.6,0c0.5-0.4,0.5-1.1,0-1.6
	C345.9,443.8,345.2,443.8,344.7,444.3"/>
<path class="st3" d="M331.9,443.7c-2.7,0.7-5,1.9-6.4,2c-0.7,0.8-0.3,2.6,0.8,3.9c0.5,1.5,3.1,1.6,5.5,0.2c-0.1-2-0.7-2.9,0.8-5.4
	C332.1,444.5,331.8,444,331.9,443.7"/>
<path class="st4" d="M329.1,450.2c0.7-1.3,0.2-2.3-1.1-2C328.8,448.2,329.4,449.2,329.1,450.2"/>
<path class="st3" d="M324.1,448.7c-0.3,0.3-0.3,0.8,0,1.1c0.3,0.3,0.8,0.3,1.1,0c0.3-0.3,0.3-0.8,0-1.1
	C324.9,448.4,324.4,448.4,324.1,448.7"/>
<path class="st3" d="M324.4,448.8c-0.2,0.2-0.3,0.6-0.1,0.8c0.2,0.2,0.5,0.2,0.8,0c0.2-0.2,0.3-0.6,0.1-0.8
	C324.9,448.6,324.6,448.6,324.4,448.8"/>
<path class="st3" d="M324.8,448.1C324.9,448.1,324.9,448.2,324.8,448.1c0,0.1,0,0.1,0,0.1c0,0,0,0.1,0,0.2c0,0.1-0.1,0.2-0.2,0.2
	c0,0-0.2,0.1-0.1,0.2c0,0,0.1,0.1,0.1,0.2c0,0,0.1,0.1,0.1,0.1c0.1,0,0.2,0.1,0.2,0.1l0.1,0.1c0,0,0,0,0,0c0,0,0,0,0,0c0,0,0,0,0,0
	c0,0,0,0,0,0l0.1-0.1c0,0,0.3,0,0.4-0.1c0.1,0-0.2-0.2-0.2-0.3c0-0.1,0-0.2-0.1-0.2c-0.1-0.1-0.2-0.3-0.3-0.4c0,0,0-0.1-0.1-0.1
	C324.9,448.2,324.9,448.1,324.8,448.1C324.8,448.1,324.8,448.1,324.8,448.1L324.8,448.1C324.8,448.1,324.8,448.1,324.8,448.1"/>
<path class="st3" d="M335.8,454.9c-0.8,3.1-1.8,6.9-2.6,10c-3.3,0.3-5.2,1-7.1,1.3c0.1-0.7,0.1-1.8-0.2-1.8c-0.7-0.1-2.3,0-2.5-0.2
	c-0.2,0.2-0.4,0.1-0.6,0.1c-1,2.7-2,5.5-2.9,8.2c-4.3,0.1-6.7-0.8-7.2-2.7c1-2.5,2-4.4,3-6.9c0-0.5-0.3-0.5-1.7-0.2
	c-0.3-1.5,0-4,2.5-3.2c2.8,1.1,5.8,2.4,8.8,2.7c0.3,0,1.1-0.1,1.3-0.1c0.1,0,0-0.6,0-0.7c1.3,0,2.3,0.2,3.3-0.4
	c0.9-0.6,1-0.7,1.2-1.7c0.9-4.6,1.1-8.3,0.8-9C336.7,443.9,338.3,446.8,335.8,454.9"/>
<path class="st3" d="M319.6,461.8l2.5,0.6c0.6-0.2,1.2-0.2,1.8-0.4c0.2,0.3,0.3,0.5,0.5,0.7c0.1,0,2.3,0.3,2.4,0.3
	c-0.2-0.4-1.9-1.2-2.1-1.6c-0.1-0.3-1-0.3-1.2-0.3C322.6,461.4,320.5,461.5,319.6,461.8"/>
<path class="st5" d="M344.1,444.3c-0.5,0.4-0.5,1.1,0,1.6c0.4,0.4,1.2,0.5,1.6,0c0.5-0.4,0.5-1.1,0-1.6
	C345.3,443.9,344.5,443.9,344.1,444.3"/>
<path class="st5" d="M328.5,450.2c0.7-1.3,0.2-2.3-1.1-2C328.2,448.3,328.7,449.3,328.5,450.2"/>
<path class="st2" d="M357.8,449.3c-0.5,0.3-1.9,1.6-1.3,1.8c1.5,2,0.8,7.1-2.5,7.4c-0.8,0.3-0.5,8.5,0.3,21.4c-0.6-0.1-1.4,0-2.7,0
	c-0.1,4.2,0,7.7,0.2,8c-0.3,0.7-1,1.8-1.5,1.5c-5.7,0-11-0.2-10.8,0c-0.6-1.3-0.4-2.6,0.5-2.4c2.7,0,6.2-1.3,6.9-2.7
	c0.8-1.6,1.1-3.5,0.7-4.3c-1.1,0-2.4,0.1-2.6,0c0.9-10.1,1.9-22,1.7-23.2c-0.2-0.8-1.6-2.5-3.4-1.2c-0.6,0.4-1.1,0.5-1.9,0.5
	c-5.2,0.5-9.2-2.1-9-5.9c-2.7,1.3-5.7,0.9-6-0.8c-1-1-1.2-3.1-0.5-4.2c-1-4.5,7.3-7.2,7.3-1.3c0,0.5,0.5,0.7,1.1,0.4
	c4.9-1.3,13.5-3.1,17.1-3.6c0.5,0.2,0.8,1,0.7,1.6c-0.4,2.3-0.3,5.1,0.3,5.7c1.1-0.3,2.7-1,4.4-1.7c2.2-1,2.4-3.3,3-5.6
	C361.4,440.9,361.8,445.3,357.8,449.3"/>
<path class="st3" d="M347,444.2c-0.5,0.4-0.5,1.1,0,1.6c0.4,0.4,1.2,0.5,1.6,0c0.5-0.4,0.5-1.1,0-1.6
	C348.2,443.8,347.5,443.8,347,444.2"/>
<path class="st2" d="M332.6,443.8c-2.7,0.7-5,1.9-6.4,2c-0.7,0.8-0.3,2.6,0.8,3.9c0.5,1.5,3.1,1.6,5.5,0.2c-0.1-2-0.7-2.9,0.8-5.4
	C332.8,444.6,332.5,444.1,332.6,443.8"/>
<path class="st2" d="M325.5,448.5c-0.3,0.3-0.3,0.8,0,1.1c0.3,0.3,0.8,0.3,1.1,0c0.3-0.3,0.3-0.8,0-1.1
	C326.3,448.2,325.8,448.2,325.5,448.5"/>
<path class="st2" d="M326.3,447.9C326.3,447.9,326.3,447.9,326.3,447.9c0,0.1,0,0.1,0,0.1c0,0,0,0.1,0,0.2c0,0.1-0.1,0.2-0.2,0.2
	c0,0-0.2,0.1-0.1,0.2c0,0,0.1,0.1,0.1,0.2c0,0,0.1,0.1,0.1,0.1c0.1,0,0.2,0.1,0.2,0.1l0.1,0.1c0,0,0,0,0,0c0,0,0,0,0,0c0,0,0,0,0,0
	c0,0,0,0,0,0l0.1-0.1c0,0,0.3,0,0.4-0.1c0.1,0-0.2-0.2-0.2-0.3c0-0.1,0-0.2-0.1-0.2c-0.1-0.1-0.2-0.3-0.3-0.4c0,0,0-0.1-0.1-0.1
	C326.4,447.9,326.3,447.9,326.3,447.9C326.3,447.8,326.3,447.9,326.3,447.9L326.3,447.9C326.3,447.9,326.3,447.9,326.3,447.9"/>
<path class="st2" d="M336.5,455c-0.8,3.1-1.8,6.9-2.6,10c-3.3,0.3-5.5,0.8-7.3,1c0.1-0.7,0.2-1.5-0.2-1.5c-0.7-0.1-2.1-0.1-2.3-0.2
	c-0.2,0.2-0.4,0.1-0.6,0.1c-1,2.7-2,5.5-2.9,8.2c-4.3,0.1-6.5-0.8-6.7-2.7c1-2.5,1.9-5.1,2.9-7.6c0-0.5-0.8-0.6-2.3-0.5
	c-0.2-1.5,0.7-1.9,2.8-1.3c2.8,1.1,5.7,1.8,8.7,2c0.3,0,0.5,0,0.8,0c0.1,0,0-0.2,0.1-0.2c1.3,0,2.8-0.2,3.8-0.8c0.9-0.6,1-0.9,1.3-2
	c1-4.4,1-8.1,0.8-8.8C337.4,444.5,339,446.9,336.5,455"/>
<path class="st3" d="M329,451.4l-1.2-0.5c0.4-0.3,0.5-0.8,0.4-1.2C328.6,449.6,328.9,450.2,329,451.4"/>
<path class="st2" d="M320.7,462.2l1.4,0.2c0.5-0.2,1.1-0.2,1.7-0.4c0.2,0.3,0.3,0.4,0.5,0.7c0.1,0,1.5,0.2,1.7,0.3
	c-0.2-0.4-1.4-1-1.6-1.4c-0.1-0.3-0.5-0.2-0.7-0.1C322.7,461.8,321.5,462,320.7,462.2"/>
<path class="st2" d="M339.3,455.7c1.2,0.7,3.8-0.2,4.6,1.5c0.6-1,0.6-3,1.4-3.8C344,451.5,341.9,453.6,339.3,455.7"/>
<rect x="578.8" y="470.9" class="st4" width="9.7" height="10.8"/>
<path class="st2" d="M580.7,479.7h0.1c0.2,0,0.4,0,0.4,0.2c0,0.2-0.2,0.2-0.4,0.2h-0.1V479.7z M579.7,480.9h1.4
	c0.5,0,1.1-0.2,1.1-0.8c0-0.3-0.2-0.6-0.5-0.7v0c0.3-0.1,0.4-0.3,0.4-0.6c0-0.7-0.6-0.8-1.1-0.8h-1.2V480.9z M580.7,479.1v-0.4h0.1
	c0.2,0,0.3,0,0.3,0.2C581.1,479.1,580.9,479.1,580.7,479.1L580.7,479.1z"/>
<polygon class="st2" points="582.3,478 584.5,478 584.5,479 583.9,478.9 583.9,480.9 582.9,480.9 582.9,478.9 582.3,479 "/>
<path class="st2" d="M586.1,480c-0.3,0-0.6-0.3-0.6-0.6h0c0-0.2,0.1-0.4,0.3-0.5c0.3-0.1,0.6,0,0.7,0.3l0.8-0.3
	c-0.3-0.8-1.2-1.1-1.9-0.8c-0.6,0.2-0.9,0.8-0.9,1.4h0c0,0.8,0.7,1.5,1.5,1.5c0.6,0,1.1-0.4,1.4-0.9l-0.8-0.3
	C586.6,479.9,586.4,480,586.1,480z"/>
<path class="st1" d="M372,474c0-1.2,0.3-2.1,0.8-2.9c0.6-0.9,1.5-1.4,2.5-1.4c1.2,0,2.1,0.5,2.7,1.6c0.6,0.9,0.9,2,0.9,3.2
	c0,1-0.4,1.9-1.2,2.8c-0.8,0.9-1.2,1.4-1.2,1.5c0,0.6,0.6,1.3,1.7,1.9c1,0.6,1.9,0.9,2.5,0.9c2.2-0.1,3.8-0.8,5-2.2
	c1.1-1.3,1.6-3,1.6-5.1c0-2.6-1.3-4.8-3.8-6.6c-2.3-1.5-4.7-3.1-7.1-4.6c-2.6-2.2-3.8-5-3.8-8.6c0-3.1,0.7-5.6,2.1-7.5
	c1.5-2.1,3.8-3.1,6.7-3.1c2.3,0,4.3,0.7,6,2.2c1.7,1.5,2.5,3.3,2.5,5.6c0,2.5-1,3.8-3,3.8c-1.1,0-2-0.4-2.6-1.2
	c-0.7-0.8-1-1.8-1-2.9c0-0.7,0.2-1.4,0.5-2c0.3-0.6,0.6-1.2,0.9-1.9c-0.1-0.5-0.5-0.9-1.2-1.4c-0.7-0.4-1.3-0.6-1.9-0.6
	c-1.7,0-3,0.6-4.2,1.8c-1.1,1.2-1.7,2.7-1.7,4.4c0,2.7,1.1,4.8,3.4,6.4c2.3,1.3,4.5,2.7,6.8,4c2.7,1.9,4.3,4.4,5,7.5
	c0.2,0.8,0.3,1.6,0.3,2.4c0,3.2-0.9,5.8-2.6,7.9c-1.9,2.2-4.3,3.2-7.4,3.2c-2.6,0-4.8-0.9-6.6-2.6C372.9,478.8,372,476.6,372,474"/>
<path class="st1" d="M398.8,431c1.1,0,2,0.5,2.5,1.4c0.6,0.9,0.9,2.1,0.9,3.5c0,1.3-0.2,2.4-0.8,3.4c-0.6,1-1.4,1.5-2.6,1.5
	c-1.1,0-2-0.5-2.6-1.6c-0.6-0.9-0.9-2-0.9-3.3c0-1.3,0.3-2.4,0.9-3.3C396.9,431.5,397.7,431,398.8,431 M405.1,480v1.7h-11.6V480
	c1.4-0.1,2.4-0.4,2.9-0.9c0.5-0.5,0.7-1.4,0.7-2.8v-25.9c0-1.4-0.2-2.3-0.7-2.8c-0.5-0.5-1.4-0.7-2.9-0.9v-1.7h8v31.3
	c0,1.4,0.2,2.3,0.7,2.8C402.8,479.7,403.7,479.9,405.1,480z"/>
<path class="st6" d="M407.5,459h-1.5v-13.8H428V459h-1.5v-1.2c0-7.3-2.3-11-6.8-11h-0.4v29.6c0,1.3,0.3,2.2,1,2.8
	c0.5,0.4,1.5,0.7,3,0.9v1.7h-12.5V480c1.5-0.2,2.5-0.5,3-0.9c0.6-0.5,1-1.5,1-2.8v-29.6h-0.3c-4.6,0-6.9,3.7-6.9,11V459z"/>
<path class="st6" d="M435.2,431c1.1,0,2,0.5,2.5,1.4c0.6,0.9,0.9,2.1,0.9,3.5c0,1.3-0.2,2.4-0.8,3.4c-0.6,1-1.4,1.5-2.6,1.5
	c-1.1,0-2-0.5-2.6-1.6c-0.6-0.9-0.9-2-0.9-3.3c0-1.3,0.3-2.4,0.9-3.3C433.3,431.5,434.1,431,435.2,431 M441.5,480v1.7h-11.6V480
	c1.4-0.1,2.4-0.4,2.9-0.9c0.5-0.5,0.7-1.4,0.7-2.8v-25.9c0-1.4-0.2-2.3-0.7-2.8c-0.5-0.5-1.4-0.7-2.9-0.9v-1.7h8v31.3
	c0,1.4,0.2,2.3,0.7,2.8C439.2,479.7,440.1,479.9,441.5,480z"/>
<path class="st1" d="M444,458.9h-1.4v-13.8h21.6v13.8h-1.4v-1.2c0-7.3-2.3-11-6.8-11h-0.4v29.6c0,1.3,0.3,2.2,1,2.8
	c0.5,0.4,1.5,0.7,3,0.9v1.7h-12.4V480c1.5-0.2,2.4-0.5,2.9-0.9c0.6-0.5,1-1.5,1-2.8v-29.6h-0.3c-4.5,0-6.8,3.7-6.8,11V458.9z"/>
<path class="st1" d="M471.9,461.5h10.2c0-10.5-1.7-15.7-5-15.7c-2.3,0-3.8,2.1-4.6,6.4C472.1,454.3,471.9,457.4,471.9,461.5
	 M487.2,463.5h-15.3c0,11.3,2.1,17,6.3,17c4.2,0,6.4-4,6.7-11.9h1.9c0,3.8-0.7,6.9-2.1,9.4c-1.6,3-4,4.6-7.1,4.6
	c-3.8,0-6.7-2.2-8.7-6.5c-1.6-3.5-2.4-7.7-2.4-12.3c0-5,0.7-9.2,2.1-12.7c1.8-4.6,4.7-6.9,8.5-6.9c3.7,0,6.5,2.3,8.2,7
	C486.6,454.5,487.2,458.6,487.2,463.5z"/>
<path class="st1" d="M503.4,466.4v-5.2c-5.9,2.6-8.9,6.7-8.9,12.4c0,1.9,0.1,3.3,0.3,4c0.4,1.5,1.2,2.3,2.6,2.3c2.2,0,3.9-1.8,5-5.3
	C503,472.2,503.4,469.5,503.4,466.4 M511.5,471.1h1.4c0,3.5-0.2,5.9-0.5,7.2c-0.7,2.8-2.1,4.3-4.4,4.3c-1.6,0-2.7-0.6-3.4-1.8
	c-0.5-0.9-0.8-2.3-1-4.2h-0.2c-1.7,4-4.3,6-7.7,6c-4.4,0-6.6-2.9-6.6-8.6c0-3.7,1.6-6.9,4.8-9.5c1.8-1.5,4.9-3.2,9.3-5.3v-6.4
	c0-4.4-1.6-6.5-4.9-6.5c-2.1,0-3.9,1-5.3,3c0.8,0.2,1.5,0.7,1.9,1.5c0.5,0.8,0.7,1.7,0.7,2.7c0,1.4-0.3,2.5-1,3.3
	c-0.6,0.7-1.3,1.1-2.1,1.1c-0.8,0-1.5-0.4-2.1-1.1c-0.6-0.8-0.9-1.9-0.9-3.3c0-2.7,0.9-5,2.7-6.7c1.8-1.7,4-2.6,6.7-2.7
	c6,0,9,3,9,9.1v21.8c0,2.3,0.4,3.5,1.3,3.5c1,0,1.6-1.2,1.9-3.3C511.3,474.7,511.4,473.3,511.5,471.1z"/>
<path class="st1" d="M514.2,458.9h-1.4v-13.8h21.6v13.8H533v-1.2c0-7.3-2.3-11-6.8-11h-0.4v29.6c0,1.3,0.3,2.2,1,2.8
	c0.5,0.4,1.5,0.7,3,0.9v1.7h-12.4V480c1.5-0.2,2.4-0.5,2.9-0.9c0.6-0.5,1-1.5,1-2.8v-29.6H521c-4.5,0-6.8,3.7-6.8,11V458.9z"/>
<path class="st1" d="M542.2,461.5h10.2c0-10.5-1.7-15.7-5-15.7c-2.3,0-3.8,2.1-4.6,6.4C542.4,454.3,542.2,457.4,542.2,461.5
	 M557.5,463.5h-15.3c0,11.3,2.1,17,6.3,17c4.2,0,6.4-4,6.7-11.9h1.9c0,3.8-0.7,6.9-2.1,9.4c-1.6,3-4,4.6-7.1,4.6
	c-3.8,0-6.7-2.2-8.7-6.5c-1.6-3.5-2.4-7.7-2.4-12.3c0-5,0.7-9.2,2.1-12.7c1.8-4.6,4.7-6.9,8.5-6.9c3.7,0,6.5,2.3,8.2,7
	C556.8,454.5,557.5,458.6,557.5,463.5z"/>
<path class="st1" d="M572.5,481.7h-14.2V480c2.7-0.1,4-1.4,4-3.8v-22.4c0-2.3-0.2-3.8-0.5-4.7c-0.6-1.5-1.8-2.3-3.7-2.3v-1.6h8v7.6
	h0.1c0.5-1.9,1.3-3.8,2.6-5.5c1.6-2.1,3.2-3.1,5-3.1c1.7,0,2.9,0.7,3.8,2.1c0.8,1.2,1.2,2.6,1.2,4.2c0,3.3-1.1,5-3.2,5
	c-2.1,0-3.1-1.4-3.1-4.3c0-2.7,1-4,2.9-4c-0.4-0.6-0.9-0.9-1.8-0.9c-2.3,0-4.2,2.4-5.5,7.3c-1,3.5-1.4,6.9-1.4,10.2v12.5
	c0,2.4,1.9,3.7,5.8,3.8V481.7z"/>
<g>
	<path class="st1" d="M385.4,498.3c1.2,0.6,2.2,1.5,2.9,2.6c0.7,1.1,1,2.4,1,3.8s-0.3,2.7-1,3.9c-0.7,1.1-1.7,2-2.9,2.6
		s-2.6,0.9-4.2,0.9c-1.1,0-2.2-0.2-3.1-0.6c-1-0.4-1.8-1-2.4-1.7v7.5h-2.9v-19.7h2.8v2.3c0.6-0.8,1.5-1.4,2.4-1.8
		c1-0.4,2.1-0.6,3.3-0.6C382.8,497.4,384.2,497.7,385.4,498.3z M383.8,509.2c0.8-0.4,1.5-1,1.9-1.8c0.5-0.8,0.7-1.7,0.7-2.7
		c0-1-0.2-1.9-0.7-2.7s-1.1-1.4-1.9-1.8c-0.8-0.4-1.7-0.6-2.8-0.6c-1,0-1.9,0.2-2.7,0.6c-0.8,0.4-1.5,1-1.9,1.8
		c-0.5,0.8-0.7,1.6-0.7,2.6c0,1,0.2,1.9,0.7,2.7c0.5,0.8,1.1,1.4,1.9,1.8c0.8,0.4,1.7,0.6,2.7,0.6
		C382,509.8,382.9,509.6,383.8,509.2z"/>
	<path class="st1" d="M395.9,511.2c-1.3-0.6-2.3-1.5-3-2.6c-0.7-1.1-1.1-2.4-1.1-3.8s0.4-2.7,1.1-3.8c0.7-1.1,1.7-2,3-2.6
		c1.3-0.6,2.7-0.9,4.3-0.9c1.6,0,3,0.3,4.3,0.9s2.2,1.5,3,2.6s1.1,2.4,1.1,3.8s-0.4,2.7-1.1,3.8s-1.7,2-3,2.6c-1.3,0.6-2.7,1-4.3,1
		C398.6,512.1,397.1,511.8,395.9,511.2z M402.9,509.2c0.8-0.4,1.5-1,1.9-1.8c0.5-0.8,0.7-1.7,0.7-2.7c0-1-0.2-1.9-0.7-2.7
		s-1.1-1.4-1.9-1.8c-0.8-0.4-1.7-0.6-2.8-0.6s-1.9,0.2-2.8,0.6c-0.8,0.4-1.5,1-1.9,1.8c-0.5,0.8-0.7,1.7-0.7,2.7
		c0,1,0.2,1.9,0.7,2.7c0.5,0.8,1.1,1.4,1.9,1.8c0.8,0.4,1.7,0.6,2.8,0.6S402.1,509.6,402.9,509.2z"/>
	<path class="st1" d="M427.5,491.7V512h-2.8v-2.3c-0.6,0.8-1.5,1.4-2.4,1.8c-1,0.4-2.1,0.6-3.3,0.6c-1.5,0-2.9-0.3-4.2-0.9
		c-1.2-0.6-2.2-1.5-2.9-2.6s-1-2.4-1-3.9s0.3-2.7,1-3.8c0.7-1.1,1.7-2,2.9-2.6c1.2-0.6,2.6-0.9,4.2-0.9c1.1,0,2.2,0.2,3.2,0.6
		c1,0.4,1.8,1,2.4,1.7v-8H427.5z M422,509.2c0.8-0.4,1.5-1,1.9-1.8c0.5-0.8,0.7-1.7,0.7-2.7c0-1-0.2-1.9-0.7-2.7
		c-0.5-0.8-1.1-1.4-1.9-1.8c-0.8-0.4-1.7-0.6-2.7-0.6c-1,0-1.9,0.2-2.8,0.6c-0.8,0.4-1.5,1-1.9,1.8c-0.5,0.8-0.7,1.7-0.7,2.7
		c0,1,0.2,1.9,0.7,2.7c0.5,0.8,1.1,1.4,1.9,1.8c0.8,0.4,1.7,0.6,2.8,0.6C420.3,509.8,421.2,509.6,422,509.2z"/>
	<path class="st1" d="M452.9,509.8v2.2h-13.4v-1.7l9.4-10.6h-9.2v-2.2h13v1.7l-9.4,10.6H452.9z"/>
	<path class="st1" d="M470.6,497.5l-7,14.4h-3l-7-14.4h3l5.5,11.6l5.6-11.6H470.6z"/>
	<path class="st1" d="M487.2,505.6h-13c0.2,1.3,0.8,2.3,1.9,3.1c1.1,0.8,2.4,1.2,3.9,1.2c1.9,0,3.4-0.6,4.6-1.7l1.6,1.7
		c-0.7,0.8-1.6,1.3-2.7,1.7c-1.1,0.4-2.3,0.6-3.6,0.6c-1.7,0-3.2-0.3-4.5-0.9c-1.3-0.6-2.3-1.5-3-2.6c-0.7-1.1-1.1-2.4-1.1-3.8
		c0-1.4,0.3-2.7,1-3.8c0.7-1.1,1.6-2,2.9-2.6s2.6-0.9,4.1-0.9c1.5,0,2.9,0.3,4.1,0.9c1.2,0.6,2.1,1.5,2.8,2.6c0.7,1.1,1,2.4,1,3.9
		C487.3,505,487.3,505.3,487.2,505.6z M475.9,500.7c-0.9,0.8-1.5,1.8-1.6,3h10.2c-0.2-1.2-0.7-2.2-1.6-3c-0.9-0.8-2.1-1.2-3.5-1.2
		C478,499.6,476.9,500,475.9,500.7z"/>
	<path class="st1" d="M503,509.8v2.2h-13.4v-1.7l9.4-10.6h-9.2v-2.2h13v1.7l-9.4,10.6H503z"/>
	<path class="st1" d="M521.7,491.7V512h-2.8v-2.3c-0.6,0.8-1.5,1.4-2.4,1.8s-2.1,0.6-3.3,0.6c-1.5,0-2.9-0.3-4.2-0.9
		c-1.2-0.6-2.2-1.5-2.9-2.6c-0.7-1.1-1-2.4-1-3.9s0.3-2.7,1-3.8c0.7-1.1,1.7-2,2.9-2.6c1.2-0.6,2.6-0.9,4.2-0.9
		c1.1,0,2.2,0.2,3.2,0.6s1.8,1,2.4,1.7v-8H521.7z M516.2,509.2c0.8-0.4,1.5-1,1.9-1.8c0.5-0.8,0.7-1.7,0.7-2.7c0-1-0.2-1.9-0.7-2.7
		c-0.5-0.8-1.1-1.4-1.9-1.8c-0.8-0.4-1.7-0.6-2.7-0.6c-1,0-1.9,0.2-2.8,0.6c-0.8,0.4-1.5,1-1.9,1.8s-0.7,1.7-0.7,2.7
		c0,1,0.2,1.9,0.7,2.7c0.5,0.8,1.1,1.4,1.9,1.8c0.8,0.4,1.7,0.6,2.8,0.6C514.4,509.8,515.4,509.6,516.2,509.2z"/>
	<path class="st1" d="M538,498.9c1.2,1,1.8,2.4,1.8,4.4v8.7h-2.7v-1.9c-0.5,0.7-1.2,1.2-2.1,1.5c-0.9,0.4-2,0.5-3.2,0.5
		c-1.8,0-3.2-0.4-4.3-1.2s-1.6-1.8-1.6-3.1s0.5-2.3,1.5-3.1s2.7-1.2,4.9-1.2h4.6v-0.5c0-1.1-0.4-2-1.1-2.6c-0.7-0.6-1.8-0.9-3.2-0.9
		c-0.9,0-1.9,0.1-2.8,0.4c-0.9,0.3-1.7,0.7-2.3,1.1l-1.2-2c0.8-0.6,1.8-1.1,3-1.4s2.4-0.5,3.6-0.5
		C535.2,497.4,536.9,497.9,538,498.9z M535.2,509.4c0.8-0.4,1.4-1.1,1.7-1.9v-2h-4.5c-2.5,0-3.7,0.7-3.7,2.2c0,0.7,0.3,1.3,0.9,1.7
		c0.6,0.4,1.5,0.6,2.6,0.6C533.4,510.1,534.4,509.9,535.2,509.4z"/>
	<path class="st1" d="M569.9,499c1.2,1.1,1.8,2.6,1.8,4.7v8.3h-2.9v-8c0-1.4-0.4-2.5-1.1-3.2c-0.7-0.7-1.7-1.1-3.1-1.1
		c-1.5,0-2.6,0.4-3.5,1.2s-1.3,2-1.3,3.6v7.4H557v-8c0-1.4-0.4-2.5-1.1-3.2c-0.7-0.7-1.7-1.1-3.1-1.1c-1.5,0-2.6,0.4-3.5,1.2
		c-0.9,0.8-1.3,2-1.3,3.6v7.4h-2.9v-14.4h2.8v2.2c0.6-0.7,1.3-1.3,2.3-1.7c0.9-0.4,2-0.6,3.2-0.6c1.2,0,2.3,0.2,3.3,0.7
		c1,0.5,1.7,1.1,2.2,2c0.6-0.8,1.4-1.5,2.5-2c1.1-0.5,2.3-0.7,3.6-0.7C567.1,497.4,568.7,497.9,569.9,499z"/>
	<path class="st1" d="M577,494.2c-0.4-0.3-0.6-0.7-0.6-1.2s0.2-0.9,0.6-1.2c0.4-0.3,0.8-0.5,1.4-0.5s1,0.2,1.4,0.5
		c0.4,0.3,0.6,0.7,0.6,1.2c0,0.5-0.2,0.9-0.6,1.2c-0.4,0.3-0.8,0.5-1.4,0.5S577.4,494.6,577,494.2z M577,497.5h2.9V512H577V497.5z"
		/>
</g>
<g>
	<defs>
		<rect id="SVGID_1_" x="292.1" y="518.2" width="315.5" height="39.5"/>
	</defs>
	<clipPath id="SVGID_2_">
		<use xlink:href="#SVGID_1_"  style="overflow:visible;"/>
	</clipPath>
	<g class="st7">
		<path class="st6" d="M305.7,534.7l3.4-4.4c0.5-0.7,1-1.3,1.4-1.8c0.4-0.5,0.8-1,1-1.4c0.3-0.4,0.5-0.8,0.6-1.2
			c0.1-0.4,0.2-0.8,0.2-1.1c0-0.6-0.2-1.1-0.7-1.5c-0.5-0.4-1.1-0.5-1.9-0.5c-0.3,0-0.6,0-0.9,0c-0.3,0-0.5,0.1-0.7,0.1
			c-0.2,0.1-0.5,0.1-0.7,0.2c-0.2,0.1-0.5,0.2-0.7,0.3c-0.2-0.4-0.4-0.9-0.5-1.3c-0.1-0.4-0.2-0.9-0.3-1.4c0.4-0.1,0.7-0.3,1-0.4
			c0.3-0.1,0.6-0.2,1-0.3c0.3-0.1,0.7-0.1,1-0.2c0.3,0,0.7-0.1,1.2-0.1c0.8,0,1.6,0.1,2.3,0.3c0.7,0.2,1.3,0.5,1.8,0.8
			c0.5,0.4,0.9,0.8,1.2,1.4c0.3,0.6,0.4,1.2,0.4,2c0,0.6-0.1,1.1-0.2,1.6c-0.2,0.5-0.4,1-0.6,1.5s-0.6,1-1,1.5s-0.8,1.1-1.3,1.7
			l-1.2,1.6h4.9c0.1,0.5,0.1,0.9,0.1,1.4c0,0.5,0,1-0.1,1.5h-10.5L305.7,534.7z"/>
		<path class="st6" d="M321.2,520h8.3c0.1,0.5,0.1,0.9,0.1,1.4c0,0.5,0,1-0.1,1.4h-5.3l-0.1,3.3c0.3-0.1,0.5-0.1,0.7-0.1
			s0.4,0,0.7,0c0.8,0,1.4,0.1,2.1,0.3c0.6,0.2,1.1,0.5,1.6,0.9c0.4,0.4,0.8,0.9,1,1.5s0.4,1.3,0.4,2.1c0,1-0.2,1.8-0.5,2.5
			s-0.8,1.3-1.4,1.8s-1.3,0.9-2.2,1.1c-0.9,0.2-1.8,0.4-2.9,0.4c-0.2,0-0.4,0-0.7,0s-0.6-0.1-1-0.1c-0.3-0.1-0.7-0.1-1.1-0.2
			s-0.8-0.2-1.1-0.3c0-0.5,0.1-0.9,0.3-1.4c0.2-0.5,0.3-0.9,0.5-1.4c0.5,0.2,1,0.3,1.5,0.4c0.5,0.1,1,0.2,1.5,0.2
			c0.7,0,1.3-0.1,1.7-0.2c0.5-0.2,0.8-0.4,1.1-0.6c0.3-0.3,0.5-0.5,0.6-0.9s0.2-0.7,0.2-1c0-0.8-0.3-1.4-0.8-1.8
			c-0.5-0.4-1.3-0.6-2.5-0.6c-0.4,0-0.9,0-1.3,0.1c-0.4,0.1-0.9,0.2-1.3,0.4l-0.3-0.3L321.2,520z"/>
		<path class="st6" d="M333.7,535.1c-0.1-0.6-0.1-1.1-0.1-1.7c0-0.6,0-1.1,0.1-1.7c0.6-0.1,1.1-0.1,1.7-0.1c0.6,0,1.1,0,1.7,0.1
			c0.1,0.6,0.1,1.1,0.1,1.7c0,0.6,0,1.1-0.1,1.7c-0.6,0.1-1.1,0.1-1.7,0.1C334.9,535.2,334.3,535.2,333.7,535.1z"/>
		<path class="st6" d="M342.7,526.3c-0.6-0.4-1.1-0.8-1.5-1.5s-0.6-1.3-0.6-2.1c0-0.6,0.1-1.2,0.4-1.8c0.3-0.5,0.6-1,1.1-1.3
			c0.5-0.4,1-0.7,1.6-0.9s1.3-0.3,2-0.3s1.4,0.1,2,0.3s1.2,0.5,1.6,0.9s0.8,0.8,1.1,1.3c0.3,0.5,0.4,1.1,0.4,1.8
			c0,0.8-0.2,1.5-0.6,2.1c-0.4,0.6-0.9,1.1-1.5,1.5c0.3,0.2,0.7,0.4,1,0.6c0.3,0.3,0.6,0.6,0.9,0.9c0.3,0.4,0.5,0.8,0.6,1.2
			c0.2,0.5,0.3,1,0.3,1.6c0,0.8-0.2,1.5-0.5,2.1c-0.3,0.6-0.8,1.1-1.3,1.5c-0.5,0.4-1.2,0.7-1.9,0.8c-0.7,0.2-1.4,0.3-2.2,0.3
			c-0.7,0-1.5-0.1-2.2-0.3c-0.7-0.2-1.3-0.4-1.9-0.8c-0.5-0.4-1-0.9-1.3-1.5c-0.3-0.6-0.5-1.3-0.5-2.1c0-0.6,0.1-1.1,0.2-1.6
			s0.4-0.9,0.6-1.2s0.6-0.7,0.9-0.9C342,526.7,342.3,526.5,342.7,526.3z M345.7,527.6c-0.7,0.2-1.3,0.6-1.8,1.1
			c-0.5,0.5-0.7,1.1-0.7,1.8c0,0.7,0.2,1.3,0.7,1.7c0.4,0.4,1.1,0.6,1.9,0.6c0.8,0,1.5-0.2,1.9-0.6c0.4-0.4,0.6-1,0.6-1.7
			c0-0.7-0.2-1.3-0.7-1.8C347,528.2,346.4,527.8,345.7,527.6z M345.7,525.3c0.6-0.2,1.1-0.5,1.5-0.9c0.4-0.4,0.6-0.9,0.6-1.5
			c0-0.5-0.2-1-0.5-1.3c-0.3-0.3-0.9-0.5-1.5-0.5c-0.7,0-1.2,0.2-1.5,0.5c-0.3,0.3-0.5,0.8-0.5,1.3c0,0.6,0.2,1.2,0.6,1.5
			C344.6,524.8,345.1,525.1,345.7,525.3z"/>
		<path class="st6" d="M354.2,535.1c-0.1-0.6-0.1-1.1-0.1-1.7c0-0.6,0-1.1,0.1-1.7c0.6-0.1,1.1-0.1,1.7-0.1c0.6,0,1.1,0,1.7,0.1
			c0.1,0.6,0.1,1.1,0.1,1.7c0,0.6,0,1.1-0.1,1.7c-0.6,0.1-1.1,0.1-1.7,0.1C355.4,535.2,354.8,535.2,354.2,535.1z"/>
		<path class="st6" d="M366.5,527.3c0.1,0.5,0.1,0.9,0.1,1.4c0,0.5,0,1-0.1,1.4h-5.9c-0.1-0.5-0.1-0.9-0.1-1.4c0-0.5,0-1,0.1-1.4
			H366.5z"/>
		<path class="st6" d="M369.1,534.7l3.4-4.4c0.5-0.7,1-1.3,1.4-1.8c0.4-0.5,0.8-1,1-1.4c0.3-0.4,0.5-0.8,0.6-1.2
			c0.1-0.4,0.2-0.8,0.2-1.1c0-0.6-0.2-1.1-0.7-1.5c-0.5-0.4-1.1-0.5-1.9-0.5c-0.3,0-0.6,0-0.9,0c-0.3,0-0.5,0.1-0.7,0.1
			c-0.2,0.1-0.5,0.1-0.7,0.2c-0.2,0.1-0.5,0.2-0.7,0.3c-0.2-0.4-0.4-0.9-0.5-1.3c-0.1-0.4-0.2-0.9-0.3-1.4c0.4-0.1,0.7-0.3,1-0.4
			c0.3-0.1,0.6-0.2,1-0.3c0.3-0.1,0.7-0.1,1-0.2c0.3,0,0.7-0.1,1.2-0.1c0.8,0,1.6,0.1,2.3,0.3c0.7,0.2,1.3,0.5,1.8,0.8
			c0.5,0.4,0.9,0.8,1.2,1.4c0.3,0.6,0.4,1.2,0.4,2c0,0.6-0.1,1.1-0.2,1.6c-0.2,0.5-0.4,1-0.6,1.5s-0.6,1-1,1.5s-0.8,1.1-1.3,1.7
			l-1.2,1.6h4.9c0.1,0.5,0.1,0.9,0.1,1.4c0,0.5,0,1-0.1,1.5h-10.5L369.1,534.7z"/>
		<path class="st6" d="M384.6,520h8.3c0.1,0.5,0.1,0.9,0.1,1.4c0,0.5,0,1-0.1,1.4h-5.3l-0.1,3.3c0.3-0.1,0.5-0.1,0.7-0.1
			s0.4,0,0.7,0c0.8,0,1.4,0.1,2.1,0.3c0.6,0.2,1.1,0.5,1.6,0.9c0.4,0.4,0.8,0.9,1,1.5s0.4,1.3,0.4,2.1c0,1-0.2,1.8-0.5,2.5
			s-0.8,1.3-1.4,1.8s-1.3,0.9-2.2,1.1c-0.9,0.2-1.8,0.4-2.9,0.4c-0.2,0-0.4,0-0.7,0s-0.6-0.1-1-0.1c-0.3-0.1-0.7-0.1-1.1-0.2
			s-0.8-0.2-1.1-0.3c0-0.5,0.1-0.9,0.3-1.4c0.2-0.5,0.3-0.9,0.5-1.4c0.5,0.2,1,0.3,1.5,0.4c0.5,0.1,1,0.2,1.5,0.2
			c0.7,0,1.3-0.1,1.7-0.2c0.5-0.2,0.8-0.4,1.1-0.6c0.3-0.3,0.5-0.5,0.6-0.9s0.2-0.7,0.2-1c0-0.8-0.3-1.4-0.8-1.8
			c-0.5-0.4-1.3-0.6-2.5-0.6c-0.4,0-0.9,0-1.3,0.1c-0.4,0.1-0.9,0.2-1.3,0.4l-0.3-0.3L384.6,520z"/>
		<path class="st6" d="M397.1,535.1c-0.1-0.6-0.1-1.1-0.1-1.7c0-0.6,0-1.1,0.1-1.7c0.6-0.1,1.1-0.1,1.7-0.1c0.6,0,1.1,0,1.7,0.1
			c0.1,0.6,0.1,1.1,0.1,1.7c0,0.6,0,1.1-0.1,1.7c-0.6,0.1-1.1,0.1-1.7,0.1C398.3,535.2,397.7,535.2,397.1,535.1z"/>
		<path class="st6" d="M405.9,536.8c-0.1-0.2-0.1-0.5-0.2-0.7c-0.1-0.2-0.1-0.5-0.1-0.8c0-0.4,0.1-0.8,0.2-1.2
			c0.8,0,1.6-0.2,2.3-0.5s1.2-0.6,1.7-1.1c0.5-0.5,0.8-1,1.1-1.6c0.3-0.6,0.5-1.2,0.6-1.8c-0.1,0.2-0.3,0.4-0.5,0.6
			c-0.2,0.2-0.4,0.4-0.7,0.5s-0.6,0.3-0.9,0.4s-0.8,0.1-1.2,0.1c-0.7,0-1.3-0.1-1.9-0.3s-1.1-0.6-1.6-1c-0.5-0.4-0.8-1-1.1-1.7
			c-0.3-0.7-0.4-1.5-0.4-2.4c0-0.9,0.2-1.7,0.5-2.4s0.8-1.3,1.3-1.8c0.5-0.5,1.2-0.8,1.9-1.1c0.7-0.2,1.4-0.4,2.2-0.4
			c1.9,0,3.4,0.6,4.4,1.7c1,1.1,1.5,2.8,1.5,5.1c0,1.4-0.2,2.7-0.6,3.9c-0.4,1.2-0.9,2.3-1.7,3.2c-0.8,0.9-1.7,1.7-2.8,2.2
			C408.8,536.4,407.4,536.7,405.9,536.8z M409,528.2c0.8,0,1.4-0.2,1.8-0.7c0.5-0.5,0.7-1.1,0.7-2c0-1-0.2-1.7-0.7-2.2
			s-1-0.8-1.8-0.8c-0.7,0-1.3,0.2-1.8,0.7c-0.5,0.5-0.7,1.2-0.7,2.2c0,1,0.2,1.7,0.7,2.2C407.8,528,408.4,528.2,409,528.2z"/>
		<path class="st6" d="M417.6,535.1c-0.1-0.6-0.1-1.1-0.1-1.7c0-0.6,0-1.1,0.1-1.7c0.6-0.1,1.1-0.1,1.7-0.1c0.6,0,1.1,0,1.7,0.1
			c0.1,0.6,0.1,1.1,0.1,1.7c0,0.6,0,1.1-0.1,1.7c-0.6,0.1-1.1,0.1-1.7,0.1C418.8,535.2,418.2,535.2,417.6,535.1z"/>
		<path class="st6" d="M424,534.7l3.4-4.4c0.5-0.7,1-1.3,1.4-1.8c0.4-0.5,0.8-1,1-1.4c0.3-0.4,0.5-0.8,0.6-1.2
			c0.1-0.4,0.2-0.8,0.2-1.1c0-0.6-0.2-1.1-0.7-1.5c-0.5-0.4-1.1-0.5-1.9-0.5c-0.3,0-0.6,0-0.9,0c-0.3,0-0.5,0.1-0.7,0.1
			c-0.2,0.1-0.5,0.1-0.7,0.2c-0.2,0.1-0.5,0.2-0.7,0.3c-0.2-0.4-0.4-0.9-0.5-1.3c-0.1-0.4-0.2-0.9-0.3-1.4c0.4-0.1,0.7-0.3,1-0.4
			s0.6-0.2,1-0.3c0.3-0.1,0.7-0.1,1-0.2c0.3,0,0.7-0.1,1.2-0.1c0.8,0,1.6,0.1,2.3,0.3c0.7,0.2,1.3,0.5,1.8,0.8
			c0.5,0.4,0.9,0.8,1.2,1.4c0.3,0.6,0.4,1.2,0.4,2c0,0.6-0.1,1.1-0.2,1.6c-0.2,0.5-0.4,1-0.6,1.5c-0.3,0.5-0.6,1-1,1.5
			s-0.8,1.1-1.3,1.7l-1.2,1.6h4.9c0.1,0.5,0.1,0.9,0.1,1.4c0,0.5,0,1-0.1,1.5h-10.5L424,534.7z"/>
		<path class="st6" d="M443.5,535.4c-1,0-1.9-0.2-2.7-0.6c-0.8-0.4-1.4-0.9-1.9-1.6c-0.5-0.7-0.8-1.5-1.1-2.5s-0.4-2-0.4-3.1
			s0.1-2.2,0.4-3.1c0.2-1,0.6-1.8,1.1-2.5s1.1-1.2,1.9-1.6c0.8-0.4,1.7-0.6,2.7-0.6c1,0,1.9,0.2,2.7,0.6c0.8,0.4,1.4,0.9,1.9,1.6
			c0.5,0.7,0.9,1.5,1.1,2.5c0.2,1,0.3,2,0.3,3.1s-0.1,2.2-0.4,3.1s-0.6,1.8-1.1,2.5c-0.5,0.7-1.1,1.2-1.9,1.6
			C445.4,535.2,444.5,535.4,443.5,535.4z M443.5,532.6c0.8,0,1.4-0.4,1.8-1.2c0.4-0.8,0.7-2.1,0.7-3.8s-0.2-3-0.7-3.8
			c-0.4-0.8-1-1.2-1.8-1.2c-0.8,0-1.4,0.4-1.9,1.2s-0.7,2.1-0.7,3.8s0.2,3,0.7,3.8C442.1,532.2,442.7,532.6,443.5,532.6z"/>
		<path class="st6" d="M451.6,534.7l3.4-4.4c0.5-0.7,1-1.3,1.4-1.8c0.4-0.5,0.8-1,1-1.4c0.3-0.4,0.5-0.8,0.6-1.2
			c0.1-0.4,0.2-0.8,0.2-1.1c0-0.6-0.2-1.1-0.7-1.5c-0.5-0.4-1.1-0.5-1.9-0.5c-0.3,0-0.6,0-0.9,0c-0.3,0-0.5,0.1-0.7,0.1
			c-0.2,0.1-0.5,0.1-0.7,0.2c-0.2,0.1-0.5,0.2-0.7,0.3c-0.2-0.4-0.4-0.9-0.5-1.3c-0.1-0.4-0.2-0.9-0.3-1.4c0.4-0.1,0.7-0.3,1-0.4
			s0.6-0.2,1-0.3c0.3-0.1,0.7-0.1,1-0.2c0.3,0,0.7-0.1,1.2-0.1c0.8,0,1.6,0.1,2.3,0.3c0.7,0.2,1.3,0.5,1.8,0.8
			c0.5,0.4,0.9,0.8,1.2,1.4c0.3,0.6,0.4,1.2,0.4,2c0,0.6-0.1,1.1-0.2,1.6c-0.2,0.5-0.4,1-0.6,1.5s-0.6,1-1,1.5s-0.8,1.1-1.3,1.7
			l-1.2,1.6h4.9c0.1,0.5,0.1,0.9,0.1,1.4c0,0.5,0,1-0.1,1.5h-10.5L451.6,534.7z"/>
		<path class="st6" d="M470.2,532.3v-8.1l-2.8,1.1c-0.3-0.4-0.5-0.8-0.7-1.2c-0.2-0.4-0.4-0.8-0.5-1.3l6.6-2.9h0.6v12.3h3.3
			c0,0.3,0.1,0.5,0.1,0.7s0,0.4,0,0.6c0,0.2,0,0.5,0,0.7s0,0.5-0.1,0.7h-9.8c0-0.3-0.1-0.5-0.1-0.7c0-0.2,0-0.4,0-0.7
			c0-0.2,0-0.4,0-0.6c0-0.2,0-0.5,0.1-0.7H470.2z"/>
		<path class="st6" d="M480.3,531.8c0.3-0.1,0.5-0.1,0.8-0.1c0.3,0,0.5,0,0.8,0s0.5,0,0.8,0c0.3,0,0.6,0.1,0.8,0.1l-1.7,5.9
			c-0.3,0.1-0.5,0.1-0.8,0.1c-0.3,0-0.5,0-0.8,0s-0.5,0-0.7,0c-0.2,0-0.5-0.1-0.8-0.1L480.3,531.8z"/>
	</g>
	<g class="st7">
		<path class="st6" d="M491.5,518.5c0.5-0.1,1.1-0.1,1.7-0.2c0.6,0,1.5-0.1,2.4-0.1c0.8,0,1.6,0.1,2.4,0.2c0.8,0.1,1.4,0.4,2,0.7
			c0.6,0.3,1,0.8,1.3,1.3c0.3,0.6,0.5,1.2,0.5,2.1c0,0.5-0.1,0.9-0.2,1.4c-0.1,0.4-0.3,0.8-0.6,1.1c-0.2,0.3-0.5,0.6-0.8,0.8
			s-0.6,0.3-0.9,0.4c0.4,0,0.7,0.2,1.2,0.3c0.4,0.2,0.8,0.4,1.2,0.8c0.4,0.3,0.7,0.8,0.9,1.3c0.2,0.5,0.4,1.2,0.4,1.9
			c0,1-0.2,1.8-0.6,2.5c-0.4,0.6-0.9,1.1-1.5,1.5c-0.6,0.4-1.4,0.6-2.2,0.8c-0.8,0.1-1.7,0.2-2.6,0.2c-0.7,0-1.4,0-2.1-0.1
			c-0.7,0-1.5-0.1-2.4-0.2V518.5z M495.8,525.2c0.4,0,0.7,0,1.1-0.1c0.3-0.1,0.6-0.2,0.9-0.4c0.2-0.2,0.4-0.4,0.6-0.7
			c0.1-0.3,0.2-0.7,0.2-1.1c0-0.4-0.1-0.8-0.2-1.1c-0.2-0.3-0.4-0.5-0.6-0.7c-0.3-0.2-0.5-0.3-0.9-0.3c-0.3-0.1-0.6-0.1-0.9-0.1
			c-0.4,0-0.8,0-1.1,0.1v4.4H495.8z M494.8,532.5c0.2,0,0.5,0.1,0.7,0.1c0.3,0,0.5,0,0.8,0c0.3,0,0.7,0,1-0.1c0.4-0.1,0.7-0.2,1-0.4
			c0.3-0.2,0.6-0.4,0.8-0.7c0.2-0.3,0.3-0.7,0.3-1.2c0-0.5-0.1-0.9-0.2-1.2c-0.2-0.3-0.4-0.6-0.7-0.8c-0.3-0.2-0.6-0.3-1-0.4
			c-0.4-0.1-0.8-0.1-1.3-0.1h-1.4V532.5z"/>
		<path class="st6" d="M508.6,521.4h-4.1c-0.1-0.5-0.1-0.9-0.1-1.5c0-0.5,0-0.9,0.1-1.4h11.6c0.1,0.5,0.1,0.9,0.1,1.4
			c0,0.5,0,1-0.1,1.5H512v13.7c-0.3,0-0.6,0.1-0.8,0.1s-0.5,0-0.8,0c-0.3,0-0.5,0-0.8,0s-0.6,0-0.9-0.1V521.4z"/>
	</g>
	<g class="st7">
		<path class="st6" d="M527.9,531.9c0.2,0.4,0.4,0.9,0.5,1.3s0.2,0.9,0.3,1.4c-0.8,0.3-1.5,0.5-2.2,0.6c-0.6,0.1-1.3,0.1-2.1,0.1
			c-1.3,0-2.5-0.2-3.4-0.6c-1-0.4-1.8-1-2.5-1.8c-0.7-0.8-1.2-1.7-1.5-2.7c-0.3-1-0.5-2.2-0.5-3.4c0-1.2,0.2-2.4,0.5-3.4
			s0.9-2,1.5-2.7c0.7-0.8,1.5-1.4,2.5-1.8c1-0.4,2.1-0.6,3.3-0.6c0.7,0,1.4,0,2,0.1c0.6,0.1,1.3,0.3,2,0.6c0,0.5-0.1,0.9-0.3,1.3
			c-0.2,0.4-0.3,0.9-0.5,1.3c-0.5-0.2-1-0.3-1.4-0.4s-0.9-0.1-1.5-0.1c-1.5,0-2.6,0.5-3.4,1.4s-1.2,2.4-1.2,4.3
			c0,3.8,1.6,5.6,4.8,5.6c0.6,0,1.1,0,1.5-0.1C526.9,532.3,527.4,532.1,527.9,531.9z"/>
		<path class="st6" d="M547.3,531.9c0.2,0.4,0.4,0.9,0.5,1.3s0.2,0.9,0.3,1.4c-0.8,0.3-1.5,0.5-2.2,0.6c-0.6,0.1-1.3,0.1-2.1,0.1
			c-1.3,0-2.5-0.2-3.4-0.6c-1-0.4-1.8-1-2.5-1.8c-0.7-0.8-1.2-1.7-1.5-2.7c-0.3-1-0.5-2.2-0.5-3.4c0-1.2,0.2-2.4,0.5-3.4
			s0.9-2,1.5-2.7c0.7-0.8,1.5-1.4,2.5-1.8c1-0.4,2.1-0.6,3.3-0.6c0.7,0,1.4,0,2,0.1c0.6,0.1,1.3,0.3,2,0.6c0,0.5-0.1,0.9-0.3,1.3
			c-0.2,0.4-0.3,0.9-0.5,1.3c-0.5-0.2-1-0.3-1.4-0.4s-0.9-0.1-1.5-0.1c-1.5,0-2.6,0.5-3.4,1.4s-1.2,2.4-1.2,4.3
			c0,3.8,1.6,5.6,4.8,5.6c0.6,0,1.1,0,1.5-0.1C546.2,532.3,546.7,532.1,547.3,531.9z"/>
		<path class="st6" d="M550.6,518.5c0.6-0.1,1.1-0.1,1.7-0.1s1.1,0,1.7,0.1v16.6c-0.6,0.1-1.1,0.1-1.7,0.1c-0.6,0-1.1,0-1.7-0.1
			V518.5z"/>
		<path class="st6" d="M560.4,521.4h-4.1c-0.1-0.5-0.1-0.9-0.1-1.5c0-0.5,0-0.9,0.1-1.4h11.6c0.1,0.5,0.1,0.9,0.1,1.4
			c0,0.5,0,1-0.1,1.5h-4.1v13.7c-0.3,0-0.6,0.1-0.8,0.1s-0.5,0-0.8,0c-0.3,0-0.5,0-0.8,0s-0.6,0-0.9-0.1V521.4z"/>
		<path class="st6" d="M574,529.1l-5.2-10.7c0.6-0.1,1.3-0.1,1.9-0.1c0.6,0,1.2,0,1.8,0.1l3.3,7.5l3.2-7.5c0.6-0.1,1.2-0.1,1.8-0.1
			c0.6,0,1.1,0,1.8,0.1l-5.2,10.7v6c-0.3,0-0.6,0.1-0.9,0.1c-0.3,0-0.6,0-0.8,0c-0.3,0-0.5,0-0.8,0c-0.3,0-0.6,0-0.9-0.1V529.1z"/>
	</g>
</g>
<g>
	<path class="st1" d="M314.6,545.5l-3.1,7.3h-2.2l-3.1-7.3h2.2l2,4.9l2.1-4.9H314.6z"/>
	<path class="st1" d="M319.9,552.7c-0.6-0.1-1-0.3-1.4-0.6l0.7-1.5c0.3,0.2,0.7,0.4,1.2,0.5s0.9,0.2,1.4,0.2c0.9,0,1.3-0.2,1.3-0.7
		c0-0.2-0.1-0.4-0.4-0.4c-0.2-0.1-0.6-0.2-1.1-0.2c-0.6-0.1-1.1-0.2-1.5-0.3c-0.4-0.1-0.7-0.3-1-0.6c-0.3-0.3-0.4-0.7-0.4-1.3
		c0-0.5,0.1-0.9,0.4-1.2c0.3-0.4,0.7-0.6,1.2-0.8c0.5-0.2,1.1-0.3,1.8-0.3c0.5,0,1,0.1,1.5,0.2c0.5,0.1,0.9,0.3,1.3,0.5l-0.7,1.5
		c-0.6-0.4-1.3-0.5-2.1-0.5c-0.5,0-0.8,0.1-1,0.2s-0.3,0.3-0.3,0.5c0,0.2,0.1,0.4,0.4,0.5c0.2,0.1,0.6,0.2,1.2,0.3
		c0.6,0.1,1.1,0.2,1.5,0.3s0.7,0.3,1,0.6c0.3,0.3,0.4,0.7,0.4,1.2c0,0.5-0.1,0.9-0.4,1.2s-0.7,0.6-1.2,0.8s-1.1,0.3-1.8,0.3
		C321.1,552.9,320.5,552.8,319.9,552.7z"/>
	<path class="st1" d="M327.8,552.4c-0.6-0.3-1.1-0.8-1.4-1.3c-0.3-0.6-0.5-1.2-0.5-1.9c0-0.7,0.2-1.4,0.5-1.9c0.3-0.6,0.8-1,1.4-1.3
		s1.3-0.5,2.1-0.5c0.8,0,1.4,0.2,2.1,0.5s1.1,0.8,1.4,1.3c0.3,0.6,0.5,1.2,0.5,1.9c0,0.7-0.2,1.4-0.5,1.9c-0.3,0.6-0.8,1-1.4,1.3
		s-1.3,0.5-2.1,0.5C329.1,552.9,328.4,552.8,327.8,552.4z M331.2,550.6c0.3-0.4,0.5-0.9,0.5-1.5c0-0.6-0.2-1.1-0.5-1.5
		c-0.3-0.4-0.8-0.5-1.3-0.5c-0.5,0-1,0.2-1.3,0.5c-0.4,0.4-0.5,0.9-0.5,1.5c0,0.6,0.2,1.1,0.5,1.5c0.4,0.4,0.8,0.5,1.3,0.5
		C330.4,551.2,330.9,551,331.2,550.6z"/>
	<path class="st1" d="M342.7,542.8v10h-2V552c-0.5,0.6-1.3,0.9-2.3,0.9c-0.7,0-1.3-0.2-1.9-0.5c-0.6-0.3-1-0.7-1.3-1.3
		c-0.3-0.6-0.5-1.2-0.5-2s0.2-1.4,0.5-2c0.3-0.6,0.7-1,1.3-1.3c0.6-0.3,1.2-0.5,1.9-0.5c0.9,0,1.7,0.3,2.2,0.9v-3.5H342.7z
		 M340.1,550.6c0.4-0.4,0.5-0.9,0.5-1.5c0-0.6-0.2-1.1-0.5-1.5c-0.4-0.4-0.8-0.5-1.3-0.5c-0.5,0-1,0.2-1.3,0.5
		c-0.4,0.4-0.5,0.9-0.5,1.5c0,0.6,0.2,1.1,0.5,1.5s0.8,0.5,1.3,0.5C339.3,551.2,339.7,551,340.1,550.6z"/>
	<path class="st1" d="M351.7,549.8h-5.5c0.1,0.5,0.3,0.8,0.7,1.1s0.8,0.4,1.4,0.4c0.4,0,0.7-0.1,1-0.2s0.6-0.3,0.8-0.5l1.1,1.2
		c-0.7,0.8-1.7,1.2-3,1.2c-0.8,0-1.5-0.2-2.2-0.5s-1.1-0.8-1.5-1.3c-0.3-0.6-0.5-1.2-0.5-1.9c0-0.7,0.2-1.4,0.5-1.9
		c0.3-0.6,0.8-1,1.4-1.3s1.2-0.5,2-0.5c0.7,0,1.4,0.2,1.9,0.5c0.6,0.3,1,0.7,1.4,1.3s0.5,1.2,0.5,2
		C351.7,549.2,351.7,549.4,351.7,549.8z M346.7,547.4c-0.3,0.3-0.5,0.6-0.6,1.1h3.6c-0.1-0.5-0.3-0.8-0.6-1.1
		c-0.3-0.3-0.7-0.4-1.2-0.4C347.5,547,347.1,547.2,346.7,547.4z"/>
	<path class="st1" d="M353.1,542.8h2.1v10h-2.1V542.8z"/>
	<path class="st1" d="M358.6,552.4c-0.6-0.3-1.1-0.8-1.4-1.3c-0.3-0.6-0.5-1.2-0.5-1.9c0-0.7,0.2-1.4,0.5-1.9c0.3-0.6,0.8-1,1.4-1.3
		s1.3-0.5,2.1-0.5c0.8,0,1.4,0.2,2.1,0.5s1.1,0.8,1.4,1.3c0.3,0.6,0.5,1.2,0.5,1.9c0,0.7-0.2,1.4-0.5,1.9c-0.3,0.6-0.8,1-1.4,1.3
		s-1.3,0.5-2.1,0.5C359.9,552.9,359.2,552.8,358.6,552.4z M362,550.6c0.3-0.4,0.5-0.9,0.5-1.5c0-0.6-0.2-1.1-0.5-1.5
		c-0.3-0.4-0.8-0.5-1.3-0.5c-0.5,0-1,0.2-1.3,0.5c-0.4,0.4-0.5,0.9-0.5,1.5c0,0.6,0.2,1.1,0.5,1.5c0.4,0.4,0.8,0.5,1.3,0.5
		C361.2,551.2,361.6,551,362,550.6z"/>
	<path class="st1" d="M373.2,545.5l-3.1,7.3H368l-3.1-7.3h2.2l2,4.9l2.1-4.9H373.2z"/>
	<path class="st1" d="M379.6,546.2c0.6,0.5,0.9,1.3,0.9,2.4v4.1h-2v-0.9c-0.4,0.7-1.1,1-2.2,1c-0.6,0-1-0.1-1.5-0.3
		c-0.4-0.2-0.7-0.4-0.9-0.8c-0.2-0.3-0.3-0.7-0.3-1.1c0-0.7,0.3-1.2,0.8-1.6s1.3-0.6,2.4-0.6h1.7c0-0.5-0.1-0.8-0.4-1.1
		c-0.3-0.2-0.7-0.4-1.3-0.4c-0.4,0-0.8,0.1-1.1,0.2c-0.4,0.1-0.7,0.3-1,0.5l-0.8-1.5c0.4-0.3,0.9-0.5,1.4-0.6
		c0.6-0.2,1.1-0.2,1.7-0.2C378.1,545.4,379,545.7,379.6,546.2z M377.8,551.3c0.3-0.2,0.5-0.4,0.6-0.7v-0.7H377
		c-0.9,0-1.3,0.3-1.3,0.9c0,0.3,0.1,0.5,0.3,0.6c0.2,0.2,0.5,0.2,0.9,0.2C377.2,551.5,377.5,551.4,377.8,551.3z"/>
	<path class="st1" d="M389,546.2c0.6,0.5,0.8,1.3,0.8,2.4v4.2h-2.1V549c0-0.6-0.1-1-0.4-1.3c-0.3-0.3-0.6-0.4-1.1-0.4
		c-0.5,0-1,0.2-1.3,0.5s-0.5,0.8-0.5,1.5v3.6h-2.1v-7.3h2v0.9c0.3-0.3,0.6-0.5,1-0.7c0.4-0.2,0.9-0.2,1.4-0.2
		C387.7,545.4,388.5,545.7,389,546.2z"/>
	<path class="st1" d="M389.5,555.1l0.6-1.5c0.2,0.2,0.5,0.3,0.9,0.3c0.3,0,0.5-0.1,0.6-0.3c0.2-0.2,0.2-0.4,0.2-0.8v-7.3h2.1v7.2
		c0,0.8-0.2,1.5-0.7,2s-1.2,0.7-2,0.7C390.5,555.5,389.9,555.4,389.5,555.1z M392,544.2c-0.2-0.2-0.4-0.5-0.4-0.8s0.1-0.6,0.4-0.8
		c0.2-0.2,0.6-0.3,0.9-0.3c0.4,0,0.7,0.1,0.9,0.3s0.4,0.5,0.4,0.8c0,0.4-0.1,0.6-0.4,0.9s-0.6,0.3-0.9,0.3
		C392.5,544.5,392.2,544.4,392,544.2z"/>
	<path class="st1" d="M403.2,545.5v7.3h-2v-0.9c-0.3,0.3-0.6,0.6-1,0.7c-0.4,0.2-0.8,0.2-1.3,0.2c-1,0-1.7-0.3-2.3-0.8
		c-0.6-0.5-0.8-1.4-0.8-2.4v-4.1h2.1v3.8c0,1.2,0.5,1.8,1.5,1.8c0.5,0,0.9-0.2,1.2-0.5c0.3-0.3,0.5-0.8,0.5-1.5v-3.6H403.2z"/>
	<path class="st1" d="M415,551.2v1.6h-6.5v-1.3l3.7-4.4h-3.6v-1.6h6.3v1.3l-3.7,4.4H415z"/>
	<path class="st1" d="M427.9,551v1.8h-8.3v-1.4l5.2-6.2h-5.1v-1.8h8v1.4l-5.2,6.2H427.9z"/>
	<path class="st1" d="M434.7,546.2c0.6,0.5,0.9,1.3,0.9,2.4v4.1h-2v-0.9c-0.4,0.7-1.1,1-2.2,1c-0.6,0-1-0.1-1.5-0.3
		c-0.4-0.2-0.7-0.4-0.9-0.8c-0.2-0.3-0.3-0.7-0.3-1.1c0-0.7,0.3-1.2,0.8-1.6c0.5-0.4,1.3-0.6,2.4-0.6h1.7c0-0.5-0.1-0.8-0.4-1.1
		c-0.3-0.2-0.7-0.4-1.3-0.4c-0.4,0-0.8,0.1-1.1,0.2c-0.4,0.1-0.7,0.3-1,0.5l-0.8-1.5c0.4-0.3,0.9-0.5,1.4-0.6
		c0.6-0.2,1.1-0.2,1.7-0.2C433.3,545.4,434.1,545.7,434.7,546.2z M432.9,551.3c0.3-0.2,0.5-0.4,0.6-0.7v-0.7h-1.4
		c-0.9,0-1.3,0.3-1.3,0.9c0,0.3,0.1,0.5,0.3,0.6c0.2,0.2,0.5,0.2,0.9,0.2C432.3,551.5,432.6,551.4,432.9,551.3z"/>
	<path class="st1" d="M444.7,545.5l-3.1,7.3h-2.2l-3.1-7.3h2.2l2,4.9l2.1-4.9H444.7z"/>
	<path class="st1" d="M451.1,546.2c0.6,0.5,0.9,1.3,0.9,2.4v4.1h-2v-0.9c-0.4,0.7-1.1,1-2.2,1c-0.6,0-1-0.1-1.5-0.3
		c-0.4-0.2-0.7-0.4-0.9-0.8c-0.2-0.3-0.3-0.7-0.3-1.1c0-0.7,0.3-1.2,0.8-1.6c0.5-0.4,1.3-0.6,2.4-0.6h1.7c0-0.5-0.1-0.8-0.4-1.1
		c-0.3-0.2-0.7-0.4-1.3-0.4c-0.4,0-0.8,0.1-1.1,0.2c-0.4,0.1-0.7,0.3-1,0.5l-0.8-1.5c0.4-0.3,0.9-0.5,1.4-0.6
		c0.6-0.2,1.1-0.2,1.7-0.2C449.7,545.4,450.5,545.7,451.1,546.2z M449.3,551.3c0.3-0.2,0.5-0.4,0.6-0.7v-0.7h-1.4
		c-0.9,0-1.3,0.3-1.3,0.9c0,0.3,0.1,0.5,0.3,0.6c0.2,0.2,0.5,0.2,0.9,0.2C448.7,551.5,449,551.4,449.3,551.3z"/>
	<path class="st1" d="M457,545.7c0.4-0.2,0.9-0.3,1.5-0.3v1.9c-0.2,0-0.4,0-0.5,0c-0.6,0-1.1,0.2-1.4,0.5c-0.3,0.3-0.5,0.8-0.5,1.5
		v3.4h-2.1v-7.3h2v1C456.2,546.2,456.5,545.9,457,545.7z"/>
	<path class="st1" d="M461.1,552.4c-0.6-0.3-1.1-0.8-1.4-1.3c-0.3-0.6-0.5-1.2-0.5-1.9c0-0.7,0.2-1.4,0.5-1.9c0.3-0.6,0.8-1,1.4-1.3
		s1.3-0.5,2.1-0.5s1.4,0.2,2.1,0.5c0.6,0.3,1.1,0.8,1.4,1.3c0.3,0.6,0.5,1.2,0.5,1.9c0,0.7-0.2,1.4-0.5,1.9c-0.3,0.6-0.8,1-1.4,1.3
		c-0.6,0.3-1.3,0.5-2.1,0.5S461.8,552.8,461.1,552.4z M464.5,550.6c0.3-0.4,0.5-0.9,0.5-1.5c0-0.6-0.2-1.1-0.5-1.5
		c-0.3-0.4-0.8-0.5-1.3-0.5s-1,0.2-1.3,0.5c-0.4,0.4-0.5,0.9-0.5,1.5c0,0.6,0.2,1.1,0.5,1.5c0.4,0.4,0.8,0.5,1.3,0.5
		S464.2,551,464.5,550.6z"/>
	<path class="st1" d="M475.8,545.5l-3.1,7.3h-2.2l-3.1-7.3h2.2l2,4.9l2.1-4.9H475.8z"/>
	<path class="st1" d="M482.2,546.2c0.6,0.5,0.9,1.3,0.9,2.4v4.1h-2v-0.9c-0.4,0.7-1.1,1-2.2,1c-0.6,0-1-0.1-1.5-0.3
		c-0.4-0.2-0.7-0.4-0.9-0.8c-0.2-0.3-0.3-0.7-0.3-1.1c0-0.7,0.3-1.2,0.8-1.6c0.5-0.4,1.3-0.6,2.4-0.6h1.7c0-0.5-0.1-0.8-0.4-1.1
		c-0.3-0.2-0.7-0.4-1.3-0.4c-0.4,0-0.8,0.1-1.1,0.2c-0.4,0.1-0.7,0.3-1,0.5l-0.8-1.5c0.4-0.3,0.9-0.5,1.4-0.6
		c0.6-0.2,1.1-0.2,1.7-0.2C480.7,545.4,481.6,545.7,482.2,546.2z M480.4,551.3c0.3-0.2,0.5-0.4,0.6-0.7v-0.7h-1.4
		c-0.9,0-1.3,0.3-1.3,0.9c0,0.3,0.1,0.5,0.3,0.6c0.2,0.2,0.5,0.2,0.9,0.2C479.8,551.5,480.1,551.4,480.4,551.3z"/>
	<path class="st1" d="M485,542.8h2.1v10H485V542.8z"/>
	<path class="st1" d="M495.7,546.2c0.6,0.5,0.8,1.3,0.8,2.4v4.2h-2.1V549c0-0.6-0.1-1-0.4-1.3c-0.3-0.3-0.6-0.4-1.1-0.4
		c-0.5,0-1,0.2-1.3,0.5c-0.3,0.3-0.5,0.8-0.5,1.5v3.6h-2.1v-7.3h2v0.9c0.3-0.3,0.6-0.5,1-0.7c0.4-0.2,0.9-0.2,1.4-0.2
		C494.4,545.4,495.1,545.7,495.7,546.2z"/>
	<path class="st1" d="M498.5,544.2c-0.2-0.2-0.4-0.5-0.4-0.8s0.1-0.6,0.4-0.8c0.2-0.2,0.6-0.3,0.9-0.3c0.4,0,0.7,0.1,0.9,0.3
		s0.4,0.5,0.4,0.8c0,0.4-0.1,0.6-0.4,0.9s-0.6,0.3-0.9,0.3C499.1,544.5,498.7,544.4,498.5,544.2z M498.4,545.5h2.1v7.3h-2.1V545.5z"
		/>
	<path class="st1" d="M503.9,552.4c-0.6-0.3-1.1-0.8-1.4-1.3c-0.3-0.6-0.5-1.2-0.5-1.9c0-0.7,0.2-1.4,0.5-1.9c0.3-0.6,0.8-1,1.4-1.3
		c0.6-0.3,1.3-0.5,2.1-0.5c0.8,0,1.4,0.2,2,0.5c0.6,0.3,1,0.8,1.2,1.4l-1.6,0.9c-0.4-0.7-0.9-1-1.6-1c-0.5,0-1,0.2-1.4,0.5
		c-0.4,0.4-0.5,0.8-0.5,1.5s0.2,1.1,0.5,1.5c0.4,0.4,0.8,0.5,1.4,0.5c0.7,0,1.3-0.3,1.6-1l1.6,0.9c-0.3,0.6-0.7,1-1.2,1.3
		c-0.6,0.3-1.2,0.5-2,0.5C505.2,552.9,504.5,552.8,503.9,552.4z"/>
	<path class="st1" d="M511.8,552.4c-0.6-0.3-1.1-0.8-1.4-1.3c-0.3-0.6-0.5-1.2-0.5-1.9c0-0.7,0.2-1.4,0.5-1.9c0.3-0.6,0.8-1,1.4-1.3
		s1.3-0.5,2.1-0.5s1.4,0.2,2.1,0.5c0.6,0.3,1.1,0.8,1.4,1.3c0.3,0.6,0.5,1.2,0.5,1.9c0,0.7-0.2,1.4-0.5,1.9c-0.3,0.6-0.8,1-1.4,1.3
		c-0.6,0.3-1.3,0.5-2.1,0.5S512.4,552.8,511.8,552.4z M515.2,550.6c0.3-0.4,0.5-0.9,0.5-1.5c0-0.6-0.2-1.1-0.5-1.5
		c-0.3-0.4-0.8-0.5-1.3-0.5s-1,0.2-1.3,0.5c-0.4,0.4-0.5,0.9-0.5,1.5c0,0.6,0.2,1.1,0.5,1.5c0.4,0.4,0.8,0.5,1.3,0.5
		S514.9,551,515.2,550.6z"/>
	<path class="st1" d="M529.6,547.9h2v3.8c-0.5,0.4-1.1,0.7-1.8,0.9c-0.7,0.2-1.4,0.3-2,0.3c-1,0-1.9-0.2-2.6-0.6
		c-0.8-0.4-1.4-1-1.8-1.7c-0.4-0.7-0.7-1.6-0.7-2.5c0-0.9,0.2-1.8,0.7-2.5c0.4-0.7,1.1-1.3,1.9-1.7c0.8-0.4,1.7-0.6,2.7-0.6
		c0.8,0,1.6,0.1,2.3,0.4s1.2,0.7,1.7,1.2l-1.4,1.3c-0.7-0.7-1.5-1.1-2.4-1.1c-0.6,0-1.1,0.1-1.6,0.4s-0.8,0.6-1.1,1.1
		s-0.4,1-0.4,1.6c0,0.6,0.1,1.1,0.4,1.6s0.6,0.8,1.1,1.1c0.5,0.3,1,0.4,1.6,0.4c0.6,0,1.2-0.1,1.7-0.4V547.9z"/>
	<path class="st1" d="M540.6,549.8h-5.5c0.1,0.5,0.3,0.8,0.7,1.1c0.4,0.3,0.8,0.4,1.4,0.4c0.4,0,0.7-0.1,1-0.2
		c0.3-0.1,0.6-0.3,0.8-0.5l1.1,1.2c-0.7,0.8-1.7,1.2-3,1.2c-0.8,0-1.5-0.2-2.2-0.5c-0.6-0.3-1.1-0.8-1.5-1.3
		c-0.3-0.6-0.5-1.2-0.5-1.9c0-0.7,0.2-1.4,0.5-1.9c0.3-0.6,0.8-1,1.4-1.3c0.6-0.3,1.2-0.5,2-0.5c0.7,0,1.4,0.2,1.9,0.5
		c0.6,0.3,1,0.7,1.4,1.3c0.3,0.6,0.5,1.2,0.5,2C540.6,549.2,540.6,549.4,540.6,549.8z M535.6,547.4c-0.3,0.3-0.5,0.6-0.6,1.1h3.6
		c-0.1-0.5-0.3-0.8-0.6-1.1s-0.7-0.4-1.2-0.4C536.4,547,536,547.2,535.6,547.4z"/>
	<path class="st1" d="M548.6,546.2c0.6,0.5,0.8,1.3,0.8,2.4v4.2h-2.1V549c0-0.6-0.1-1-0.4-1.3c-0.3-0.3-0.6-0.4-1.1-0.4
		c-0.5,0-1,0.2-1.3,0.5c-0.3,0.3-0.5,0.8-0.5,1.5v3.6H542v-7.3h2v0.9c0.3-0.3,0.6-0.5,1-0.7c0.4-0.2,0.9-0.2,1.4-0.2
		C547.3,545.4,548.1,545.7,548.6,546.2z"/>
	<path class="st1" d="M558.4,549.8h-5.5c0.1,0.5,0.3,0.8,0.7,1.1c0.4,0.3,0.8,0.4,1.4,0.4c0.4,0,0.7-0.1,1-0.2
		c0.3-0.1,0.6-0.3,0.8-0.5l1.1,1.2c-0.7,0.8-1.7,1.2-3,1.2c-0.8,0-1.5-0.2-2.2-0.5c-0.6-0.3-1.1-0.8-1.5-1.3
		c-0.3-0.6-0.5-1.2-0.5-1.9c0-0.7,0.2-1.4,0.5-1.9c0.3-0.6,0.8-1,1.4-1.3c0.6-0.3,1.2-0.5,2-0.5c0.7,0,1.4,0.2,1.9,0.5
		c0.6,0.3,1,0.7,1.4,1.3c0.3,0.6,0.5,1.2,0.5,2C558.5,549.2,558.4,549.4,558.4,549.8z M553.5,547.4c-0.3,0.3-0.5,0.6-0.6,1.1h3.6
		c-0.1-0.5-0.3-0.8-0.6-1.1s-0.7-0.4-1.2-0.4C554.2,547,553.8,547.2,553.5,547.4z"/>
	<path class="st1" d="M562.9,545.7c0.4-0.2,0.9-0.3,1.5-0.3v1.9c-0.2,0-0.4,0-0.5,0c-0.6,0-1.1,0.2-1.4,0.5
		c-0.3,0.3-0.5,0.8-0.5,1.5v3.4h-2.1v-7.3h2v1C562.1,546.2,562.5,545.9,562.9,545.7z"/>
	<path class="st1" d="M571.2,546.2c0.6,0.5,0.9,1.3,0.9,2.4v4.1h-2v-0.9c-0.4,0.7-1.1,1-2.2,1c-0.6,0-1-0.1-1.5-0.3
		c-0.4-0.2-0.7-0.4-0.9-0.8c-0.2-0.3-0.3-0.7-0.3-1.1c0-0.7,0.3-1.2,0.8-1.6c0.5-0.4,1.3-0.6,2.4-0.6h1.7c0-0.5-0.1-0.8-0.4-1.1
		c-0.3-0.2-0.7-0.4-1.3-0.4c-0.4,0-0.8,0.1-1.1,0.2c-0.4,0.1-0.7,0.3-1,0.5l-0.8-1.5c0.4-0.3,0.9-0.5,1.4-0.6
		c0.6-0.2,1.1-0.2,1.7-0.2C569.7,545.4,570.6,545.7,571.2,546.2z M569.4,551.3c0.3-0.2,0.5-0.4,0.6-0.7v-0.7h-1.4
		c-0.9,0-1.3,0.3-1.3,0.9c0,0.3,0.1,0.5,0.3,0.6c0.2,0.2,0.5,0.2,0.9,0.2C568.8,551.5,569.1,551.4,569.4,551.3z"/>
	<path class="st1" d="M574,542.8h2.1v10H574V542.8z"/>
	<path class="st1" d="M578.2,544.2c-0.2-0.2-0.4-0.5-0.4-0.8s0.1-0.6,0.4-0.8c0.2-0.2,0.6-0.3,0.9-0.3c0.4,0,0.7,0.1,0.9,0.3
		s0.4,0.5,0.4,0.8c0,0.4-0.1,0.6-0.4,0.9s-0.6,0.3-0.9,0.3C578.7,544.5,578.4,544.4,578.2,544.2z M578.1,545.5h2.1v7.3h-2.1V545.5z"
		/>
</g>
</svg>
