<?xml version="1.0" encoding="utf-8"?>
<!-- Generator: Adobe Illustrator 22.1.0, SVG Export Plug-In . SVG Version: 6.00 Build 0)  -->
<svg version="1.1" id="Layer_1" xmlns="http://www.w3.org/2000/svg" xmlns:xlink="http://www.w3.org/1999/xlink" x="0px" y="0px"
	 viewBox="0 0 720 540" style="enable-background:new 0 0 720 540;" xml:space="preserve">
<style type="text/css">
	.st0{clip-path:url(#SVGID_2_);}
	.st1{fill:#FFFFFF;}
	.st2{font-family:'MaisonNeue-Mono';}
	.st3{font-size:8.5px;}
	.st4{clip-path:url(#SVGID_4_);}
	.st5{fill:#6D6E71;}
	.st6{fill:#ED1C24;}
	.st7{clip-path:url(#SVGID_6_);fill:#FFFFFF;}
	.st8{clip-path:url(#SVGID_8_);fill:#FFFFFF;}
</style>
<g>
	<defs>
		<rect id="SVGID_1_" width="720" height="540"/>
	</defs>
	<clipPath id="SVGID_2_">
		<use xlink:href="#SVGID_1_"  style="overflow:visible;"/>
	</clipPath>
	<path class="st0" d="M40.4,522.4c5.8,0,10.4-4.7,10.4-10.4c0-5.8-4.7-10.4-10.4-10.4S30,506.2,30,512
		C30,517.8,34.7,522.4,40.4,522.4"/>
</g>
<path class="st1" d="M40.4,506.8l-5.2,5.2h1.3v5.2h7.8V512h1.3L40.4,506.8z M43,515.9h-2v-2h-1.3v2h-2v-4.7l2.6-1.8l2.6,1.8V515.9z"
	/>
<text transform="matrix(1 0 0 1 657.4424 516)" class="st2 st3">7</text>
<g>
	<defs>
		<rect id="SVGID_3_" width="720" height="540"/>
	</defs>
	<clipPath id="SVGID_4_">
		<use xlink:href="#SVGID_3_"  style="overflow:visible;"/>
	</clipPath>
	<path class="st4" d="M40.4,522.4c5.8,0,10.4-4.7,10.4-10.4c0-5.8-4.7-10.4-10.4-10.4S30,506.2,30,512
		C30,517.8,34.7,522.4,40.4,522.4"/>
</g>
<path class="st1" d="M40.4,506.8l-5.2,5.2h1.3v5.2h7.8V512h1.3L40.4,506.8z M43,515.9h-2v-2h-1.3v2h-2v-4.7l2.6-1.8l2.6,1.8V515.9z"
	/>
<rect class="st5" width="720" height="540"/>
<text transform="matrix(1 0 0 1 356.1875 508)" class="st1 st2 st3"> </text>
<rect class="st6" width="720" height="540"/>
<text transform="matrix(1 0 0 1 319.1152 28)" class="st1 st2 st3">B</text>
<g>
	<path class="st1" d="M326.1,22.1h3.5v0.6h-2.8v1.9h2.5v0.6h-2.5v2.1h2.8V28h-3.5V22.1z"/>
</g>
<g>
	<path class="st1" d="M332.3,25c0,1.7,0.6,2.5,1.5,2.5c0.9,0,1.3-0.8,1.3-1.7l0.7,0.1c-0.1,1.4-0.9,2.2-2.1,2.2
		c-1.2,0-2.3-0.9-2.3-3.2c0-2,1.1-3.1,2.3-3.1c1.1,0,1.9,0.9,2.1,2.1l-0.7,0.1c-0.1-0.8-0.5-1.5-1.4-1.5
		C332.9,22.6,332.3,23.3,332.3,25z"/>
	<path class="st1" d="M337.2,25c0-2,1.1-3.1,2.3-3.1s2.3,1,2.3,3.1c0,2.3-1.1,3.1-2.3,3.1C338.3,28.1,337.2,27.3,337.2,25z M341,25
		c0-1.6-0.6-2.4-1.5-2.4S338,23.3,338,25c0,1.7,0.6,2.5,1.5,2.5C340.3,27.5,341,26.7,341,25z"/>
</g>
<g>
	<path class="st1" d="M343.3,22.1h1l1.1,3.4h0l1.1-3.4h1V28h-0.6v-5h0l-1.2,3.8h-0.2L344,23h0v5h-0.6V22.1z"/>
</g>
<g>
	<path class="st1" d="M349.4,22.1h3.6v0.6h-1.4v4.7h1.4V28h-3.6v-0.6h1.4v-4.7h-1.4V22.1z"/>
	<path class="st1" d="M355.2,22.1h0.7l2.4,4.7h0v-4.7h0.7V28h-0.7l-2.4-4.7h0V28h-0.7V22.1z"/>
	<path class="st1" d="M360.8,25c0-2,1.1-3,2.3-3c1,0,1.8,0.8,2,2l-0.7,0.1c-0.1-0.8-0.5-1.4-1.3-1.4c-0.9,0-1.6,0.7-1.6,2.4
		c0,1.7,0.7,2.5,1.6,2.5c0.8,0,1.4-0.7,1.4-1.7H363v-0.6h2.2v0.6c0,1.6-0.9,2.5-2.1,2.5C361.9,28.1,360.8,27.2,360.8,25z"/>
</g>
<g>
	<path class="st1" d="M372.7,22.1h1.6c1.3,0,2.6,0.9,2.6,3c0,2.3-1.3,3-2.6,3h-1.6V22.1z M374.2,27.4c1.2,0,1.9-0.7,1.9-2.3
		c0-1.5-0.7-2.3-1.9-2.3h-0.8v4.7H374.2z"/>
</g>
<g>
	<path class="st1" d="M378.4,22.1h0.7v4c0,1,0.5,1.5,1.4,1.5c0.9,0,1.4-0.5,1.4-1.4v-4h0.7v4c0,1.4-0.8,2.1-2.1,2.1
		s-2.1-0.7-2.1-2.1V22.1z"/>
	<path class="st1" d="M386,22.7h-2v-0.6h4.7v0.6h-2V28H386V22.7z"/>
	<path class="st1" d="M390.9,25c0,1.7,0.6,2.5,1.5,2.5c0.9,0,1.3-0.8,1.3-1.7l0.7,0.1c-0.1,1.4-0.9,2.2-2.1,2.2
		c-1.2,0-2.3-0.9-2.3-3.2c0-2,1.1-3.1,2.3-3.1c1.1,0,1.9,0.9,2.1,2.1l-0.7,0.1c-0.1-0.8-0.5-1.5-1.4-1.5
		C391.6,22.6,390.9,23.3,390.9,25z"/>
</g>
<g>
	<path class="st1" d="M396.1,22.1h0.7v2.6h2.5v-2.6h0.7V28h-0.7v-2.8h-2.5V28h-0.7V22.1z"/>
</g>
<g>
	<path class="st1" d="M204.9,256h-10v-38.3h10V256z"/>
	<path class="st1" d="M222,256h-9.4v-30.7h9.3v4c0,0,3-4.6,9-4.6c6.1,0,11.1,4.4,11.1,10.2V256h-9.6v-18c0-2.6-0.7-5-4.8-5
		c-3,0-5.5,2.4-5.5,5.4V256z"/>
	<path class="st1" d="M249,217.7h9.2v7.6h5v8.1h-5.1v12.3c0,2.2,0.9,2.9,3,2.9c1.1,0,3.1-0.5,3.1-0.5v7.9c-1.9,0.4-3.9,0.6-5.1,0.6
		c-5.9,0-10.2-2.6-10.2-9.5v-13.7h-3.1v-8.1h3.3V217.7z"/>
	<path class="st1" d="M283.5,233.7c-3.6,0-5.8,2.2-5.8,8.2V256h-9.4v-30.7h9.1v4.9c0.8-2.3,3.6-5.5,7.3-5.5h2.1v9.6
		C286.8,234.3,285.6,233.7,283.5,233.7z"/>
	<path class="st1" d="M286.6,240.8c0-9.2,7.4-16.1,16.8-16.1c9.3,0,16.6,6.7,16.6,16c0,9.4-6.8,16.4-16.8,16.4
		C293.8,257.1,286.6,249.3,286.6,240.8z M303.3,233.4c-4.5,0-7.5,3.3-7.5,7.5c0,4.1,3.1,7.3,7.4,7.3c4.6,0,7.4-3,7.4-7.8
		C310.7,236.5,307.7,233.4,303.3,233.4z"/>
	<path class="st1" d="M355.3,256h-9.1v-3.2c-2.9,2.8-5.8,4-9.9,4c-8.7,0-14-7.3-14-15.9c0-8.4,5.7-16.2,14.8-16.2
		c5.4,0,8.9,3.5,8.9,3.5V215h9.3V256z M331.9,240.7c0,4.3,2.9,7.7,7.1,7.7c4.9,0,7.6-3.4,7.6-7.6c0-4.3-2.9-7.5-7.3-7.5
		C334.6,233.3,331.9,236.8,331.9,240.7z"/>
	<path class="st1" d="M361.8,225.3h9.3v17.6c0,3.4,2.1,5.3,5.3,5.3c3.4,0,5.2-2,5.2-5.1v-17.9h9.1v18.2c0,8.6-5.5,13.3-14.4,13.3
		c-8.8,0-14.5-5.1-14.5-13.6V225.3z"/>
	<path class="st1" d="M419,246.1v8.9c0,0-4.5,1.8-7.5,1.8c-9.5,0-15.9-6.8-15.9-15.8c0-8.9,6.5-16.3,16-16.3c2.9,0,4.6,0.4,7.2,1.5
		v9.7c-1-1.1-4-2.5-6.8-2.5c-4.1,0-7.1,3.8-7.1,7.9c0,4.1,3.3,7,7.5,7C415,248.1,418,246.8,419,246.1z"/>
	<path class="st1" d="M425.2,217.7h9.2v7.6h5v8.1h-5.1v12.3c0,2.2,0.8,2.9,3,2.9c1.2,0,3.1-0.5,3.1-0.5v7.9
		c-1.9,0.4-3.9,0.6-5.1,0.6c-5.9,0-10.2-2.6-10.2-9.5v-13.7H422v-8.1h3.3V217.7z"/>
	<path class="st1" d="M444.5,216.8c0-3.1,2.5-5.7,5.6-5.7c3.1,0,5.7,2.5,5.7,5.6c0,3.2-2.6,5.7-5.8,5.7
		C446.9,222.4,444.5,220,444.5,216.8z M454.7,256h-9.3v-30.7h9.3V256z"/>
	<path class="st1" d="M459.6,240.8c0-9.2,7.4-16.1,16.8-16.1c9.3,0,16.6,6.7,16.6,16c0,9.4-6.8,16.4-16.8,16.4
		C466.8,257.1,459.6,249.3,459.6,240.8z M476.4,233.4c-4.5,0-7.5,3.3-7.5,7.5c0,4.1,3.2,7.3,7.4,7.3c4.6,0,7.4-3,7.4-7.8
		C483.7,236.5,480.7,233.4,476.4,233.4z"/>
	<path class="st1" d="M506.5,256h-9.4v-30.7h9.3v4c0,0,3-4.6,9-4.6c6.1,0,11.1,4.4,11.1,10.2V256h-9.6v-18c0-2.6-0.7-5-4.8-5
		c-3,0-5.5,2.4-5.5,5.4V256z"/>
</g>
<g>
	<defs>
		<rect id="SVGID_5_" width="720" height="540"/>
	</defs>
	<clipPath id="SVGID_6_">
		<use xlink:href="#SVGID_5_"  style="overflow:visible;"/>
	</clipPath>
	<path class="st7" d="M170.3,499.1v8.5h-1.4c-0.1-2.4,0-4.9,0-7.3c-0.9-0.1-2,0-2.9,0v7.3c-0.4,0.1-0.9,0-1.4,0
		c-0.1-2.4,0-4.9,0-7.3c-0.9-0.1-2,0-2.9,0v7.3h-1.4c-0.1-2.8,0-5.6,0-8.4c0,0,0-0.1,0.1-0.1H170.3z"/>
	<path class="st7" d="M158.7,499.1c0.1,2.8,0,5.7,0,8.5c-2.1,0.1-4.3,0-6.4,0v-8.4c0,0,0-0.1,0-0.1h1.4v7.3c1.1,0.1,2.4,0,3.6,0
		c0.1-2.4,0-4.9,0.1-7.3H158.7z"/>
	<path class="st7" d="M145.1,502.4h5c-0.1-1.5-1.1-2.4-2.7-2.3C146.1,500.3,145.3,501.2,145.1,502.4 M147.3,498.9
		c2.9-0.2,4.2,1.9,4.1,4.7h-6.4c0,1.9,1.1,3.3,3.1,3.1c1.2-0.1,1.8-0.9,2.3-1.7c0.4,0.2,0.7,0.4,1,0.7c-0.8,1.4-1.9,2.4-4.1,2.3
		c-2.4-0.2-3.6-2.1-3.7-4.4C143.6,501.1,144.9,499.1,147.3,498.9"/>
	<path class="st7" d="M140.7,502.8c1.3,0.4,2.6,1,2.5,2.8c-0.2,3-5.3,3-6.2,0.5c0.4-0.2,0.7-0.5,1.1-0.8c0.4,0.9,2,1.8,3.2,1
		c0.7-0.4,0.7-1.5,0.1-1.9c-0.5-0.4-1.3-0.5-1.9-0.8c-0.6-0.2-1.3-0.5-1.7-1c-0.7-0.8-0.5-2.1,0.1-2.8c0.5-0.6,1.3-1,2.4-1
		c1.5,0,2.4,0.6,2.9,1.6c-0.4,0.2-0.7,0.4-1.1,0.7c-0.4-0.7-1.7-1.4-2.7-0.8c-0.4,0.2-0.8,0.9-0.5,1.5
		C139,502.4,140.1,502.5,140.7,502.8"/>
	<path class="st7" d="M136.2,499.1c0.1,2.8,0,5.7,0,8.5c-2.1,0.1-4.3,0-6.4,0c-0.1-2.8,0-5.6,0-8.4c0,0,0-0.1,0.1-0.1h1.3v7.3
		c1.1,0.1,2.4,0,3.6,0c0.1-2.4,0-4.9,0-7.3H136.2z"/>
	<path class="st7" d="M128.3,499.1v8.5H127v-7.3H124c-0.1,2.4,0,4.9,0,7.3c-0.4,0.1-0.9,0-1.4,0v-7.3c-0.9-0.1-2,0-2.9,0
		c-0.1,2.4,0,4.9,0,7.3h-1.4v-8.4c0,0,0-0.1,0-0.1H128.3z"/>
	<path class="st7" d="M111,502.4h5c-0.1-1.5-1.1-2.4-2.7-2.3C112,500.3,111.1,501.2,111,502.4 M113.2,498.9c2.9-0.2,4.2,1.9,4.1,4.7
		h-6.4c0,1.9,1.1,3.3,3.1,3.1c1.2-0.1,1.8-0.9,2.3-1.7c0.4,0.2,0.7,0.4,1,0.7c-0.8,1.5-2,2.4-4.1,2.3c-2.4-0.2-3.6-2.1-3.7-4.4
		C109.5,501.1,110.8,499.1,113.2,498.9"/>
	<path class="st7" d="M104.8,506.7c2.1-0.2,3.2-3.1,2-5.2c-0.5-0.8-1.4-1.4-2.6-1.3c-1,0.1-1.8,0.6-2.2,1.3
		c-0.3,0.4-0.5,1.2-0.5,1.9c0,1.9,1.1,3.1,2.5,3.2C104.3,506.7,104.6,506.7,104.8,506.7 M108.3,501.3c1.3,3-0.3,6.3-3.2,6.6
		c-1.8,0.1-2.7-0.6-3.5-1.5v1.2h-1.4v-12.5c0,0,0-0.1,0-0.1h1.4v5.3c0.1,0,0.2-0.1,0.3-0.2c0.7-0.7,1.8-1.4,3.4-1.2
		C106.7,499.2,107.8,500.1,108.3,501.3"/>
	<path class="st7" d="M95.4,506.7c1.5-0.2,2.5-1.5,2.5-3.3c0-1.9-1.2-3.4-3.1-3.2c-1.1,0.1-1.9,0.7-2.3,1.4c-0.7,1.2-0.5,3,0.2,3.9
		C93.2,506.3,94.3,506.8,95.4,506.7 M94.9,498.9c3.2-0.3,5.1,2.9,4.2,6c-0.4,1.5-1.7,2.8-3.4,2.9c-1.8,0.1-2.7-0.6-3.5-1.4v1.2h-1.4
		v-12.5c0,0,0-0.1,0-0.1h1.4v5.3C92.9,499.7,93.6,499.1,94.9,498.9"/>
	<path class="st7" d="M87.5,505.9c0.4-0.6,0.5-1.4,0.5-2.4c-0.9-0.9-3-0.7-3.7,0.1c-0.7,0.8-0.6,2.3,0.3,2.9
		C85.6,507.1,87,506.6,87.5,505.9 M89.4,499.1v8.5H88v-1c-0.4,0.7-1.4,1.3-2.5,1.3c-1.6,0-2.9-1.1-3-2.6c-0.1-0.8,0.1-1.5,0.4-2
		c0.8-1.5,3.3-1.8,5.2-1v-2h-4v-1.1c0,0,0-0.1,0-0.1H89.4z"/>
	<path class="st7" d="M81.6,499.2v8.5h-1.4v-7.3c-1.1-0.1-2.3,0-3.4,0v7.3h-1.4v-8.4c0,0,0-0.1,0-0.1H81.6z"/>
	<path class="st7" d="M70.4,506.8c1.7,0,2.3-1.5,2.2-3.3c-0.5-0.4-1.2-0.6-2-0.5c-1.3,0.1-2.2,0.8-2.2,2
		C68.5,506,69.4,506.8,70.4,506.8 M74,499.1v8.5h-1.4v-1c-0.8,1.5-3.5,1.7-4.7,0.4c-1.1-1.1-1-3.4,0.1-4.4c1-0.9,3.3-1,4.7-0.3v-2
		c-1.2-0.1-2.5,0-3.7,0v-1.1c0,0,0-0.1,0-0.1H74z"/>
	<path class="st7" d="M66.7,499.1h1.5c-1.3,3-2.7,5.9-4.1,8.9c-1.4-2.9-2.8-5.9-4.1-8.8h1.6c0.8,1.9,1.7,3.8,2.5,5.8
		C65,503.1,65.8,501,66.7,499.1"/>
</g>
<g>
	<path class="st1" d="M328.2,506.8h-2.4l-0.4,1.2h-0.7l2-5.9h0.7l2,5.9h-0.7L328.2,506.8z M327,503L327,503l-1,3.2h2L327,503z"/>
	<path class="st1" d="M330.5,503.5h0.7v0.4h0c0.2-0.3,0.7-0.6,1.3-0.6c1,0,1.6,0.6,1.6,1.7v3h-0.7v-2.7c0-0.8-0.3-1.3-1-1.3
		c-0.7,0-1.1,0.4-1.1,1.1v2.9h-0.7V503.5z"/>
	<path class="st1" d="M335.8,503.5h0.7v0.4h0c0.2-0.3,0.7-0.6,1.3-0.6c1,0,1.6,0.6,1.6,1.7v3h-0.7v-2.7c0-0.8-0.3-1.3-1-1.3
		c-0.7,0-1.1,0.4-1.1,1.1v2.9h-0.7V503.5z"/>
	<path class="st1" d="M341.3,503.5h2.2v3.9h1.5v0.6h-3.7v-0.6h1.6v-3.3h-1.5V503.5z M342.7,501.8h0.8v0.8h-0.8V501.8z"/>
	<path class="st1" d="M350.2,507c-0.3,0.6-0.9,1.1-1.9,1.1c-1.2,0-2.1-0.9-2.1-2.4s0.9-2.4,2.1-2.4c1.2,0,2,0.9,2,2.4v0.2h-3.4
		c0,0.8,0.4,1.5,1.4,1.5c0.9,0,1.2-0.6,1.3-0.9L350.2,507z M349.6,505.4c0-0.7-0.4-1.4-1.3-1.4c-1,0-1.3,0.8-1.3,1.4H349.6z"/>
</g>
<text transform="matrix(1 0 0 1 356.0811 508)" class="st1 st2 st3">F</text>
<g>
	<path class="st1" d="M362.6,501.8h2.2v5.6h1.5v0.6h-3.7v-0.6h1.5v-5h-1.5V501.8z"/>
	<path class="st1" d="M371.4,507c-0.3,0.6-0.9,1.1-1.9,1.1c-1.2,0-2.1-0.9-2.1-2.4s0.9-2.4,2.1-2.4c1.2,0,2,0.9,2,2.4v0.2h-3.4
		c0,0.8,0.4,1.5,1.4,1.5c0.9,0,1.2-0.6,1.3-0.9L371.4,507z M370.8,505.4c0-0.7-0.4-1.4-1.3-1.4c-1,0-1.3,0.8-1.3,1.4H370.8z"/>
	<path class="st1" d="M374.3,504.1h-1.4v-0.6h1.4v-1.1h0.7v1.1h1.6v0.6H375v2.5c0,0.5,0.1,0.7,0.6,0.7h0.8v0.7h-0.8
		c-0.9,0-1.2-0.5-1.2-1.3V504.1z"/>
	<path class="st1" d="M382.2,506.4c-0.1,1-0.9,1.7-1.9,1.7c-1.2,0-2.1-0.9-2.1-2.4c0-1.5,0.9-2.4,2.1-2.4c1,0,1.7,0.7,1.8,1.6
		l-0.7,0.1c-0.1-0.6-0.5-1.2-1.2-1.2c-0.8,0-1.4,0.6-1.4,1.8c0,1.1,0.5,1.8,1.4,1.8c0.7,0,1.1-0.6,1.2-1.2L382.2,506.4z"/>
	<path class="st1" d="M383.7,501.8h0.7v2.2h0c0.2-0.3,0.8-0.6,1.3-0.6c0.9,0,1.6,0.6,1.6,1.7v2.9h-0.7v-2.8c0-0.8-0.3-1.2-1-1.2
		c-0.7,0-1.2,0.5-1.2,1.2v2.8h-0.7V501.8z"/>
	<path class="st1" d="M392.7,507c-0.3,0.6-0.9,1.1-1.9,1.1c-1.2,0-2.1-0.9-2.1-2.4s0.9-2.4,2.1-2.4c1.2,0,2,0.9,2,2.4v0.2h-3.4
		c0,0.8,0.4,1.5,1.4,1.5c0.9,0,1.2-0.6,1.3-0.9L392.7,507z M392.1,505.4c0-0.7-0.4-1.4-1.3-1.4c-1,0-1.3,0.8-1.3,1.4H392.1z"/>
	<path class="st1" d="M394.8,503.5h0.7v0.7h0c0.2-0.4,0.7-0.7,1.3-0.7c0.7,0,1.2,0.4,1.4,1.1l-0.7,0.3c-0.1-0.4-0.4-0.7-0.9-0.7
		c-0.7,0-1.2,0.5-1.2,1.4v2.5h-0.7V503.5z"/>
</g>
<g>
	<defs>
		<rect id="SVGID_7_" width="720" height="540"/>
	</defs>
	<clipPath id="SVGID_8_">
		<use xlink:href="#SVGID_7_"  style="overflow:visible;"/>
	</clipPath>
	<path class="st8" d="M170.3,499.1v8.5h-1.4c-0.1-2.4,0-4.9,0-7.3c-0.9-0.1-2,0-2.9,0v7.3c-0.4,0.1-0.9,0-1.4,0
		c-0.1-2.4,0-4.9,0-7.3c-0.9-0.1-2,0-2.9,0v7.3h-1.4c-0.1-2.8,0-5.6,0-8.4c0,0,0-0.1,0.1-0.1H170.3z"/>
	<path class="st8" d="M158.7,499.1c0.1,2.8,0,5.7,0,8.5c-2.1,0.1-4.3,0-6.4,0v-8.4c0,0,0-0.1,0-0.1h1.4v7.3c1.1,0.1,2.4,0,3.6,0
		c0.1-2.4,0-4.9,0.1-7.3H158.7z"/>
	<path class="st8" d="M145.1,502.4h5c-0.1-1.5-1.1-2.4-2.7-2.3C146.1,500.3,145.3,501.2,145.1,502.4 M147.3,498.9
		c2.9-0.2,4.2,1.9,4.1,4.7h-6.4c0,1.9,1.1,3.3,3.1,3.1c1.2-0.1,1.8-0.9,2.3-1.7c0.4,0.2,0.7,0.4,1,0.7c-0.8,1.4-1.9,2.4-4.1,2.3
		c-2.4-0.2-3.6-2.1-3.7-4.4C143.6,501.1,144.9,499.1,147.3,498.9"/>
	<path class="st8" d="M140.7,502.8c1.3,0.4,2.6,1,2.5,2.8c-0.2,3-5.3,3-6.2,0.5c0.4-0.2,0.7-0.5,1.1-0.8c0.4,0.9,2,1.8,3.2,1
		c0.7-0.4,0.7-1.5,0.1-1.9c-0.5-0.4-1.3-0.5-1.9-0.8c-0.6-0.2-1.3-0.5-1.7-1c-0.7-0.8-0.5-2.1,0.1-2.8c0.5-0.6,1.3-1,2.4-1
		c1.5,0,2.4,0.6,2.9,1.6c-0.4,0.2-0.7,0.4-1.1,0.7c-0.4-0.7-1.7-1.4-2.7-0.8c-0.4,0.2-0.8,0.9-0.5,1.5
		C139,502.4,140.1,502.5,140.7,502.8"/>
	<path class="st8" d="M136.2,499.1c0.1,2.8,0,5.7,0,8.5c-2.1,0.1-4.3,0-6.4,0c-0.1-2.8,0-5.6,0-8.4c0,0,0-0.1,0.1-0.1h1.3v7.3
		c1.1,0.1,2.4,0,3.6,0c0.1-2.4,0-4.9,0-7.3H136.2z"/>
	<path class="st8" d="M128.3,499.1v8.5H127v-7.3H124c-0.1,2.4,0,4.9,0,7.3c-0.4,0.1-0.9,0-1.4,0v-7.3c-0.9-0.1-2,0-2.9,0
		c-0.1,2.4,0,4.9,0,7.3h-1.4v-8.4c0,0,0-0.1,0-0.1H128.3z"/>
	<path class="st8" d="M111,502.4h5c-0.1-1.5-1.1-2.4-2.7-2.3C112,500.3,111.1,501.2,111,502.4 M113.2,498.9c2.9-0.2,4.2,1.9,4.1,4.7
		h-6.4c0,1.9,1.1,3.3,3.1,3.1c1.2-0.1,1.8-0.9,2.3-1.7c0.4,0.2,0.7,0.4,1,0.7c-0.8,1.5-2,2.4-4.1,2.3c-2.4-0.2-3.6-2.1-3.7-4.4
		C109.5,501.1,110.8,499.1,113.2,498.9"/>
	<path class="st8" d="M104.8,506.7c2.1-0.2,3.2-3.1,2-5.2c-0.5-0.8-1.4-1.4-2.6-1.3c-1,0.1-1.8,0.6-2.2,1.3
		c-0.3,0.4-0.5,1.2-0.5,1.9c0,1.9,1.1,3.1,2.5,3.2C104.3,506.7,104.6,506.7,104.8,506.7 M108.3,501.3c1.3,3-0.3,6.3-3.2,6.6
		c-1.8,0.1-2.7-0.6-3.5-1.5v1.2h-1.4v-12.5c0,0,0-0.1,0-0.1h1.4v5.3c0.1,0,0.2-0.1,0.3-0.2c0.7-0.7,1.8-1.4,3.4-1.2
		C106.7,499.2,107.8,500.1,108.3,501.3"/>
	<path class="st8" d="M95.4,506.7c1.5-0.2,2.5-1.5,2.5-3.3c0-1.9-1.2-3.4-3.1-3.2c-1.1,0.1-1.9,0.7-2.3,1.4c-0.7,1.2-0.5,3,0.2,3.9
		C93.2,506.3,94.3,506.8,95.4,506.7 M94.9,498.9c3.2-0.3,5.1,2.9,4.2,6c-0.4,1.5-1.7,2.8-3.4,2.9c-1.8,0.1-2.7-0.6-3.5-1.4v1.2h-1.4
		v-12.5c0,0,0-0.1,0-0.1h1.4v5.3C92.9,499.7,93.6,499.1,94.9,498.9"/>
	<path class="st8" d="M87.5,505.9c0.4-0.6,0.5-1.4,0.5-2.4c-0.9-0.9-3-0.7-3.7,0.1c-0.7,0.8-0.6,2.3,0.3,2.9
		C85.6,507.1,87,506.6,87.5,505.9 M89.4,499.1v8.5H88v-1c-0.4,0.7-1.4,1.3-2.5,1.3c-1.6,0-2.9-1.1-3-2.6c-0.1-0.8,0.1-1.5,0.4-2
		c0.8-1.5,3.3-1.8,5.2-1v-2h-4v-1.1c0,0,0-0.1,0-0.1H89.4z"/>
	<path class="st8" d="M81.6,499.2v8.5h-1.4v-7.3c-1.1-0.1-2.3,0-3.4,0v7.3h-1.4v-8.4c0,0,0-0.1,0-0.1H81.6z"/>
	<path class="st8" d="M70.4,506.8c1.7,0,2.3-1.5,2.2-3.3c-0.5-0.4-1.2-0.6-2-0.5c-1.3,0.1-2.2,0.8-2.2,2
		C68.5,506,69.4,506.8,70.4,506.8 M74,499.1v8.5h-1.4v-1c-0.8,1.5-3.5,1.7-4.7,0.4c-1.1-1.1-1-3.4,0.1-4.4c1-0.9,3.3-1,4.7-0.3v-2
		c-1.2-0.1-2.5,0-3.7,0v-1.1c0,0,0-0.1,0-0.1H74z"/>
	<path class="st8" d="M66.7,499.1h1.5c-1.3,3-2.7,5.9-4.1,8.9c-1.4-2.9-2.8-5.9-4.1-8.8h1.6c0.8,1.9,1.7,3.8,2.5,5.8
		C65,503.1,65.8,501,66.7,499.1"/>
</g>
</svg>
