<?xml version="1.0" encoding="utf-8"?>
<!-- Generator: Adobe Illustrator 22.1.0, SVG Export Plug-In . SVG Version: 6.00 Build 0)  -->
<svg version="1.1" id="Layer_1" xmlns="http://www.w3.org/2000/svg" xmlns:xlink="http://www.w3.org/1999/xlink" x="0px" y="0px"
	 viewBox="0 0 720 540" style="enable-background:new 0 0 720 540;" xml:space="preserve">
<style type="text/css">
	.st0{fill:#FFDA00;}
	.st1{fill:#FFFFFF;}
	.st2{clip-path:url(#SVGID_2_);fill:#FFFFFF;}
</style>
<rect class="st0" width="720" height="540"/>
<g>
	<path class="st1" d="M69.5,192v-29.2h-7.9v-9.1h26.2v9.1h-7.9V192H69.5z"/>
	<path class="st1" d="M104.1,169.7c-3.6,0-5.8,2.2-5.8,8.2V192h-9.4v-30.7H98v4.9c0.8-2.3,3.6-5.5,7.3-5.5h2.1v9.6
		C107.4,170.3,106.2,169.7,104.1,169.7z"/>
	<path class="st1" d="M107.2,176.8c0-9.2,7.4-16.1,16.8-16.1c9.3,0,16.6,6.7,16.6,16c0,9.4-6.8,16.4-16.8,16.4
		C114.4,193.1,107.2,185.3,107.2,176.8z M123.9,169.4c-4.5,0-7.5,3.3-7.5,7.5c0,4.1,3.1,7.3,7.4,7.3c4.6,0,7.4-3,7.4-7.8
		C131.3,172.5,128.3,169.4,123.9,169.4z"/>
	<path class="st1" d="M144.5,161.3h9.3v17.6c0,3.4,2.1,5.3,5.3,5.3c3.4,0,5.2-2,5.2-5.1v-17.9h9.1v18.2c0,8.6-5.6,13.3-14.4,13.3
		c-8.8,0-14.5-5.1-14.5-13.6V161.3z"/>
	<path class="st1" d="M179.9,151h9.3v13.2c0,0,4.1-3.5,9.5-3.5c9.1,0,14.4,7.7,14.4,16c0,8.6-5.5,16.1-14.1,16.1
		c-4.1,0-7.1-1.1-9.9-4v3.2h-9.1V151z M196.5,169.3c-4.4,0-7.6,3-7.6,7.4c0,4.8,3.1,7.8,8,7.8c4.5,0,6.9-3.7,6.9-8
		C203.7,172.6,200.7,169.3,196.5,169.3z"/>
	<path class="st1" d="M227.3,192H218v-41h9.3V192z"/>
	<path class="st1" d="M232.3,176.7c0-9.3,6.7-16,15.7-16c8.9,0,15.1,5.9,15.1,16.8c0,0.8,0.1,1.2,0,1.9h-21.6
		c0.8,3.7,3.7,5.4,7.2,5.4c3.1,0,5.1-2.1,6.7-4.3c0,0,5.6,3.2,7.3,4.3c-2.7,4.8-7.9,8-14.4,8C238.8,192.8,232.3,187,232.3,176.7z
		 M247.9,168.5c-3.2,0-4.9,1.5-6.1,4.4h11.7C252.4,169.9,250.8,168.5,247.9,168.5z"/>
	<path class="st1" d="M281.2,152.8c0-3.1,2.5-5.7,5.6-5.7s5.7,2.5,5.7,5.6c0,3.2-2.6,5.7-5.8,5.7C283.7,158.4,281.2,156,281.2,152.8
		z M291.4,192h-9.3v-30.7h9.3V192z"/>
	<path class="st1" d="M308.4,192H299v-30.7h9.3v4c0,0,3-4.6,9-4.6c6.1,0,11.1,4.4,11.1,10.2V192h-9.6v-18c0-2.6-0.7-5-4.8-5
		c-3,0-5.5,2.4-5.5,5.4V192z"/>
	<path class="st1" d="M348.6,153.7h9.2v7.6h5v8.1h-5.1v12.3c0,2.2,0.9,2.9,2.9,2.9c1.2,0,3.1-0.5,3.1-0.5v7.9
		c-1.9,0.4-3.9,0.6-5.1,0.6c-5.9,0-10.2-2.6-10.2-9.5v-13.7h-3.1v-8.1h3.3V153.7z"/>
	<path class="st1" d="M377.4,192H368v-41h9.3v14.3c0,0,3-4.6,9-4.6c6.1,0,11.1,4.4,11.1,10.2V192h-9.6v-18c0-2.6-0.7-5-4.8-5
		c-3,0-5.5,2.4-5.5,5.4V192z"/>
	<path class="st1" d="M402.3,176.7c0-9.3,6.7-16,15.7-16c8.9,0,15.1,5.9,15.1,16.8c0,0.8,0,1.2,0,1.9h-21.6c0.8,3.7,3.7,5.4,7.2,5.4
		c3,0,5-2.1,6.7-4.3c0,0,5.5,3.2,7.3,4.3c-2.7,4.8-7.9,8-14.4,8C408.8,192.8,402.3,187,402.3,176.7z M417.9,168.5
		c-3.1,0-4.9,1.5-6,4.4h11.7C422.4,169.9,420.8,168.5,417.9,168.5z"/>
	<path class="st1" d="M450.3,173.2c0-12.3,8.5-20.6,19.7-20.6c4,0,6.6,0.5,10.1,2.4v10.4c-2.3-1.9-4.9-3.4-9.6-3.4
		c-6.5,0-10.1,4.8-10.1,11.3c0,6.2,4.5,10.3,10.6,10.3c3.7,0,6.5-1.4,9-3.1v10.1c-3.2,1.4-5.7,2.6-9.7,2.6
		C459.3,193,450.3,185,450.3,173.2z"/>
	<path class="st1" d="M483.7,176.8c0-9.2,7.4-16.1,16.8-16.1c9.3,0,16.6,6.7,16.6,16c0,9.4-6.8,16.4-16.8,16.4
		C490.9,193.1,483.7,185.3,483.7,176.8z M500.4,169.4c-4.5,0-7.5,3.3-7.5,7.5c0,4.1,3.2,7.3,7.4,7.3c4.6,0,7.4-3,7.4-7.8
		C507.8,172.5,504.8,169.4,500.4,169.4z"/>
	<path class="st1" d="M530.6,192h-9.4v-30.7h9.3v4c0,0,3-4.6,9-4.6c6.1,0,11.1,4.4,11.1,10.2V192h-9.6v-18c0-2.6-0.7-5-4.8-5
		c-3,0-5.5,2.4-5.5,5.4V192z"/>
	<path class="st1" d="M557.5,153.7h9.2v7.6h5v8.1h-5.1v12.3c0,2.2,0.8,2.9,3,2.9c1.2,0,3.1-0.5,3.1-0.5v7.9
		c-1.9,0.4-3.9,0.6-5.1,0.6c-5.9,0-10.2-2.6-10.2-9.5v-13.7h-3.2v-8.1h3.3V153.7z"/>
	<path class="st1" d="M575.4,176.8c0-8.6,6.4-16.1,14.9-16.1c3.8,0,6.1,1.3,8.9,3.8v-3.1h9.2V192H599v-3c0,0-3.4,3.8-9.2,3.8
		C581.2,192.8,575.4,186.6,575.4,176.8z M592.1,169.3c-4.5,0-7.3,3.3-7.3,7.4c0,4.3,2.7,7.8,7,7.8c4.2,0,7.6-3.1,7.6-7.5
		C599.4,172.4,596.2,169.3,592.1,169.3z"/>
	<path class="st1" d="M636.6,182.1v8.9c0,0-4.5,1.8-7.5,1.8c-9.5,0-15.9-6.8-15.9-15.8c0-8.9,6.5-16.3,16-16.3
		c2.9,0,4.6,0.4,7.2,1.5v9.7c-1-1.1-4-2.5-6.8-2.5c-4.1,0-7.1,3.8-7.1,7.9c0,4.1,3.3,7,7.5,7C632.7,184.1,635.7,182.8,636.6,182.1z"
		/>
	<path class="st1" d="M642.9,153.7h9.2v7.6h5v8.1H652v12.3c0,2.2,0.8,2.9,3,2.9c1.2,0,3.1-0.5,3.1-0.5v7.9c-1.9,0.4-3.9,0.6-5.1,0.6
		c-5.9,0-10.2-2.6-10.2-9.5v-13.7h-3.2v-8.1h3.3V153.7z"/>
</g>
<g>
	<path class="st1" d="M42.8,209.7h31.7l-17.3,30h16.7v8.4l-32.6,0l17.2-29.7H42.8V209.7z"/>
	<path class="st1" d="M76.7,232.8c0-9.2,7.4-16.1,16.8-16.1c9.3,0,16.6,6.7,16.6,16c0,9.4-6.8,16.4-16.8,16.4
		C83.9,249.1,76.7,241.3,76.7,232.8z M93.5,225.4c-4.5,0-7.5,3.3-7.5,7.5c0,4.1,3.1,7.3,7.4,7.3c4.6,0,7.4-3,7.4-7.8
		C100.8,228.5,97.8,225.4,93.5,225.4z"/>
	<path class="st1" d="M123.6,248h-9.4v-30.7h9.3v4c0,0,3-4.6,9-4.6c6.1,0,11.1,4.4,11.1,10.2V248h-9.6v-18c0-2.6-0.7-5-4.8-5
		c-3,0-5.5,2.4-5.5,5.4V248z"/>
	<path class="st1" d="M148.4,232.7c0-9.3,6.7-16,15.7-16c8.9,0,15.1,5.9,15.1,16.8c0,0.8,0.1,1.2,0,1.9h-21.6
		c0.8,3.7,3.7,5.4,7.2,5.4c3.1,0,5.1-2.1,6.7-4.3c0,0,5.6,3.2,7.3,4.3c-2.7,4.8-7.9,8-14.4,8C154.9,248.8,148.4,243,148.4,232.7z
		 M164,224.5c-3.2,0-4.9,1.5-6.1,4.4h11.7C168.5,225.9,166.9,224.5,164,224.5z"/>
	<path class="st1" d="M196.4,229.2c0-12.3,8.5-20.6,19.7-20.6c4.1,0,6.6,0.5,10.1,2.4v10.4c-2.3-1.9-4.9-3.4-9.6-3.4
		c-6.5,0-10.1,4.8-10.1,11.3c0,6.2,4.6,10.3,10.6,10.3c3.7,0,6.5-1.4,9-3.1v10.1c-3.1,1.4-5.7,2.6-9.7,2.6
		C205.4,249,196.4,241,196.4,229.2z"/>
	<path class="st1" d="M232.3,217.3h9.3v17.6c0,3.4,2.1,5.3,5.3,5.3c3.4,0,5.2-2,5.2-5.1v-17.9h9.1v18.2c0,8.6-5.6,13.3-14.4,13.3
		c-8.8,0-14.5-5.1-14.5-13.6V217.3z"/>
	<path class="st1" d="M276.9,248h-9.3v-41h9.3V248z"/>
	<path class="st1" d="M284.1,209.7h9.2v7.6h5v8.1h-5.1v12.3c0,2.2,0.9,2.9,3,2.9c1.1,0,3.1-0.5,3.1-0.5v7.9
		c-1.9,0.4-3.9,0.6-5.1,0.6c-5.9,0-10.2-2.6-10.2-9.5v-13.7h-3.1v-8.1h3.3V209.7z"/>
	<path class="st1" d="M303.5,217.3h9.3v17.6c0,3.4,2.1,5.3,5.3,5.3c3.4,0,5.2-2,5.2-5.1v-17.9h9.1v18.2c0,8.6-5.6,13.3-14.4,13.3
		c-8.8,0-14.5-5.1-14.5-13.6V217.3z"/>
	<path class="st1" d="M354,225.7c-3.6,0-5.8,2.2-5.8,8.2V248h-9.4v-30.7h9.1v4.9c0.8-2.3,3.6-5.5,7.3-5.5h2.1v9.6
		C357.3,226.3,356.1,225.7,354,225.7z"/>
	<path class="st1" d="M359,232.7c0-9.3,6.7-16,15.7-16c8.9,0,15.1,5.9,15.1,16.8c0,0.8,0,1.2,0,1.9h-21.6c0.8,3.7,3.7,5.4,7.2,5.4
		c3,0,5-2.1,6.7-4.3c0,0,5.5,3.2,7.3,4.3c-2.7,4.8-7.9,8-14.4,8C365.5,248.8,359,243,359,232.7z M374.6,224.5c-3.1,0-4.9,1.5-6,4.4
		h11.7C379.1,225.9,377.5,224.5,374.6,224.5z"/>
	<path class="st1" d="M406.5,232.8c0-8.6,6.4-16.1,14.9-16.1c3.8,0,6.1,1.3,8.9,3.8v-3.1h9.2V248h-9.4v-3c0,0-3.4,3.8-9.2,3.8
		C412.4,248.8,406.5,242.6,406.5,232.8z M423.3,225.3c-4.5,0-7.3,3.3-7.3,7.4c0,4.3,2.7,7.8,7,7.8c4.2,0,7.6-3.1,7.6-7.5
		C430.6,228.4,427.4,225.3,423.3,225.3z"/>
	<path class="st1" d="M455.5,248h-9.4v-30.7h9.3v4c0,0,3-4.6,9-4.6c6.1,0,11.1,4.4,11.1,10.2V248h-9.6v-18c0-2.6-0.7-5-4.8-5
		c-3,0-5.5,2.4-5.5,5.4V248z"/>
	<path class="st1" d="M513.2,248h-9.1v-3.2c-2.9,2.8-5.8,4-9.9,4c-8.7,0-14-7.3-14-15.9c0-8.4,5.7-16.2,14.8-16.2
		c5.4,0,8.9,3.5,8.9,3.5V207h9.3V248z M489.7,232.7c0,4.3,2.9,7.7,7.1,7.7c4.9,0,7.6-3.4,7.6-7.6c0-4.3-2.9-7.5-7.3-7.5
		C492.4,225.3,489.7,228.8,489.7,232.7z"/>
	<path class="st1" d="M540.6,248h-10.7l14.2-38.3l11.5,0l14.2,38.3H559l-2.6-7.1h-13.3L540.6,248z M549.7,221.5l-4.1,11.7h8.2
		L549.7,221.5z"/>
	<path class="st1" d="M588.5,225.7c-3.6,0-5.8,2.2-5.8,8.2V248h-9.4v-30.7h9.1v4.9c0.8-2.3,3.6-5.5,7.3-5.5h2.1v9.6
		C591.7,226.3,590.6,225.7,588.5,225.7z"/>
	<path class="st1" d="M596.5,209.7h9.2v7.6h5v8.1h-5.1v12.3c0,2.2,0.8,2.9,3,2.9c1.2,0,3.1-0.5,3.1-0.5v7.9
		c-1.9,0.4-3.9,0.6-5.1,0.6c-5.9,0-10.2-2.6-10.2-9.5v-13.7h-3.2v-8.1h3.3V209.7z"/>
	<path class="st1" d="M629,208.8c0-3.1,2.5-5.7,5.6-5.7c3.1,0,5.7,2.5,5.7,5.6c0,3.2-2.6,5.7-5.8,5.7C631.4,214.4,629,212,629,208.8
		z M639.2,248h-9.3v-30.7h9.3V248z"/>
	<path class="st1" d="M656.2,248h-9.4v-30.7h9.3v4c0,0,3-4.6,9-4.6c6.1,0,11.1,4.4,11.1,10.2V248h-9.6v-18c0-2.6-0.7-5-4.8-5
		c-3,0-5.5,2.4-5.5,5.4V248z"/>
</g>
<g>
	<path class="st1" d="M107,265.7h9.2v7.6h5v8.1h-5.1v12.3c0,2.2,0.9,2.8,3,2.8c1.1,0,3.1-0.4,3.1-0.4v7.8c-1.9,0.5-3.9,0.7-5.1,0.7
		c-5.9,0-10.2-2.7-10.2-9.5v-13.7h-3.1v-8.1h3.3V265.7z"/>
	<path class="st1" d="M135.8,304h-9.4v-41h9.3v14.3c0,0,3-4.6,9-4.6c6.1,0,11.1,4.4,11.1,10.2V304h-9.6v-18c0-2.5-0.7-5-4.8-5
		c-3,0-5.5,2.5-5.5,5.4V304z"/>
	<path class="st1" d="M160.7,288.7c0-9.3,6.7-16,15.7-16c8.9,0,15.1,5.9,15.1,16.8c0,0.8,0.1,1.2,0,1.9h-21.6
		c0.8,3.6,3.7,5.4,7.2,5.4c3.1,0,5.1-2.2,6.7-4.3c0,0,5.6,3.2,7.3,4.3c-2.7,4.8-7.9,8-14.4,8C167.2,304.8,160.7,299,160.7,288.7z
		 M176.3,280.5c-3.2,0-4.9,1.5-6.1,4.3h11.7C180.8,281.9,179.2,280.5,176.3,280.5z"/>
	<path class="st1" d="M217.4,304h-10.7l14.2-38.3l11.5,0l14.2,38.3h-10.8l-2.6-7.1h-13.3L217.4,304z M226.5,277.5l-4.1,11.7h8.2
		L226.5,277.5z"/>
	<path class="st1" d="M248.6,288c0-8.3,5.3-15.4,13.4-15.4c3.9,0,6.6,1.3,9.2,4v-3.5h8.9v27.1c0,9.5-7.2,14.5-15.8,14.5
		c-7.6,0-14.2-3.8-15.2-10.7h10.5c1.3,2.1,2.6,2.5,4.9,2.5c3.3,0,6.3-1.5,6.3-4.9c0-0.8,0-1.5-0.1-2.3c-1.8,1.6-5.2,3.5-8.8,3.5
		C254,303,248.6,296.4,248.6,288z M264.1,280.6c-4.4,0-6.5,3.6-6.5,7.4c0,4,2.4,7.2,6.5,7.2c4.7,0,7.2-3.7,7.2-7.2
		C271.2,283.9,268.9,280.6,264.1,280.6z"/>
	<path class="st1" d="M285.1,288.7c0-9.3,6.7-16,15.7-16c8.9,0,15.1,5.9,15.1,16.8c0,0.8,0.1,1.2,0,1.9h-21.6
		c0.8,3.6,3.7,5.4,7.2,5.4c3.1,0,5.1-2.2,6.7-4.3c0,0,5.6,3.2,7.3,4.3c-2.7,4.8-7.9,8-14.4,8C291.6,304.8,285.1,299,285.1,288.7z
		 M300.7,280.5c-3.2,0-4.9,1.5-6.1,4.3h11.7C305.2,281.9,303.6,280.5,300.7,280.5z"/>
	<path class="st1" d="M331.6,288.8c0-9.2,7.4-16.1,16.8-16.1c9.3,0,16.6,6.7,16.6,16c0,9.4-6.8,16.4-16.8,16.4
		C338.8,305,331.6,297.3,331.6,288.8z M348.4,281.4c-4.5,0-7.5,3.3-7.5,7.5c0,4.1,3.1,7.3,7.4,7.3c4.6,0,7.4-3,7.4-7.8
		C355.7,284.5,352.7,281.4,348.4,281.4z"/>
	<path class="st1" d="M370.3,281.4h-3.3v-8.1h3.2v-1.5c0-6.8,4.3-9.5,10.2-9.5c1.1,0,3.2,0.2,5,0.6v7.9c0,0-2-0.4-3.1-0.4
		c-2.2,0-3,0.6-3,2.9h5v8.1h-5V304h-9.2V281.4z"/>
	<path class="st1" d="M413.5,304h-10v-38.3h10V304z"/>
	<path class="st1" d="M452.5,304h-9.1v-3.2c-2.9,2.8-5.8,4-9.9,4c-8.7,0-14-7.3-14-15.9c0-8.4,5.7-16.2,14.8-16.2
		c5.4,0,8.9,3.5,8.9,3.5V263h9.3V304z M429,288.7c0,4.3,2.8,7.7,7.1,7.7c4.9,0,7.6-3.3,7.6-7.6c0-4.3-2.9-7.5-7.3-7.5
		C431.7,281.3,429,284.8,429,288.7z"/>
	<path class="st1" d="M457.5,288.7c0-9.3,6.7-16,15.7-16c8.9,0,15.1,5.9,15.1,16.8c0,0.8,0,1.2,0,1.9h-21.6c0.8,3.6,3.7,5.4,7.2,5.4
		c3,0,5-2.2,6.7-4.3c0,0,5.5,3.2,7.3,4.3c-2.7,4.8-7.9,8-14.4,8C464,304.8,457.5,299,457.5,288.7z M473.1,280.5
		c-3.1,0-4.9,1.5-6,4.3h11.7C477.6,281.9,476,280.5,473.1,280.5z"/>
	<path class="st1" d="M502.8,304h-9.4v-30.7h9.3v4c0,0,3-4.6,9-4.6c6.1,0,11.1,4.4,11.1,10.2V304h-9.6v-18c0-2.5-0.7-5-4.8-5
		c-3,0-5.5,2.5-5.5,5.4V304z"/>
	<path class="st1" d="M529.8,265.7h9.2v7.6h5v8.1h-5.1v12.3c0,2.2,0.8,2.8,3,2.8c1.2,0,3.1-0.4,3.1-0.4v7.8
		c-1.9,0.5-3.9,0.7-5.1,0.7c-5.9,0-10.2-2.7-10.2-9.5v-13.7h-3.2v-8.1h3.3V265.7z"/>
	<path class="st1" d="M549,264.8c0-3.1,2.5-5.7,5.6-5.7c3.1,0,5.7,2.5,5.7,5.6c0,3.2-2.6,5.7-5.8,5.7C551.5,270.4,549,268,549,264.8
		z M559.2,304h-9.3v-30.7h9.3V304z"/>
	<path class="st1" d="M567.4,265.7h9.2v7.6h5v8.1h-5.1v12.3c0,2.2,0.8,2.8,3,2.8c1.2,0,3.1-0.4,3.1-0.4v7.8
		c-1.9,0.5-3.9,0.7-5.1,0.7c-5.9,0-10.2-2.7-10.2-9.5v-13.7h-3.2v-8.1h3.3V265.7z"/>
	<path class="st1" d="M583.7,273.3h10.4l6.7,15.9l6.5-15.9h9.7L599,314.9h-9.9l6.9-15L583.7,273.3z"/>
</g>
<g>
	<path class="st1" d="M319.9,22.1h2.1c1.1,0,1.8,0.7,1.8,1.5c0,0.6-0.4,1-0.8,1.2v0c0.5,0.2,1,0.6,1,1.4c0,1.1-0.7,1.8-2.1,1.8h-1.9
		V22.1z M321.9,24.6c0.8,0,1.2-0.3,1.2-0.9c0-0.6-0.4-0.9-1.2-0.9h-1.2v1.9H321.9z M321.8,27.4c1,0,1.5-0.3,1.5-1.1
		c0-0.8-0.5-1-1.5-1h-1.1v2.2H321.8z"/>
</g>
<g>
	<path class="st1" d="M326.1,22.1h3.5v0.6h-2.8v1.9h2.5v0.6h-2.5v2.1h2.8V28h-3.5V22.1z"/>
</g>
<g>
	<path class="st1" d="M332.3,25c0,1.7,0.6,2.5,1.5,2.5c0.9,0,1.3-0.8,1.3-1.7l0.7,0.1c-0.1,1.4-0.9,2.2-2.1,2.2
		c-1.2,0-2.3-0.9-2.3-3.2c0-2,1.1-3.1,2.3-3.1c1.1,0,1.9,0.9,2.1,2.1l-0.7,0.1c-0.1-0.8-0.5-1.5-1.4-1.5
		C332.9,22.6,332.3,23.3,332.3,25z"/>
	<path class="st1" d="M337.2,25c0-2,1.1-3.1,2.3-3.1s2.3,1,2.3,3.1c0,2.3-1.1,3.1-2.3,3.1C338.3,28.1,337.2,27.3,337.2,25z M341,25
		c0-1.6-0.6-2.4-1.5-2.4S338,23.3,338,25c0,1.7,0.6,2.5,1.5,2.5C340.3,27.5,341,26.7,341,25z"/>
</g>
<g>
	<path class="st1" d="M343.3,22.1h1l1.1,3.4h0l1.1-3.4h1V28h-0.6v-5h0l-1.2,3.8h-0.2L344,23h0v5h-0.6V22.1z"/>
</g>
<g>
	<path class="st1" d="M349.4,22.1h3.6v0.6h-1.4v4.7h1.4V28h-3.6v-0.6h1.4v-4.7h-1.4V22.1z"/>
	<path class="st1" d="M355.2,22.1h0.7l2.4,4.7h0v-4.7h0.7V28h-0.7l-2.4-4.7h0V28h-0.7V22.1z"/>
	<path class="st1" d="M360.8,25c0-2,1.1-3,2.3-3c1,0,1.8,0.8,2,2l-0.7,0.1c-0.1-0.8-0.5-1.4-1.3-1.4c-0.9,0-1.6,0.7-1.6,2.4
		c0,1.7,0.7,2.5,1.6,2.5c0.8,0,1.4-0.7,1.4-1.7H363v-0.6h2.2v0.6c0,1.6-0.9,2.5-2.1,2.5C361.9,28.1,360.8,27.2,360.8,25z"/>
</g>
<g>
	<path class="st1" d="M372.7,22.1h1.6c1.3,0,2.6,0.9,2.6,3c0,2.3-1.3,3-2.6,3h-1.6V22.1z M374.2,27.4c1.2,0,1.9-0.7,1.9-2.3
		c0-1.5-0.7-2.3-1.9-2.3h-0.8v4.7H374.2z"/>
</g>
<g>
	<path class="st1" d="M378.4,22.1h0.7v4c0,1,0.5,1.5,1.4,1.5c0.9,0,1.4-0.5,1.4-1.4v-4h0.7v4c0,1.4-0.8,2.1-2.1,2.1
		s-2.1-0.7-2.1-2.1V22.1z"/>
	<path class="st1" d="M386,22.7h-2v-0.6h4.7v0.6h-2V28H386V22.7z"/>
	<path class="st1" d="M390.9,25c0,1.7,0.6,2.5,1.5,2.5c0.9,0,1.3-0.8,1.3-1.7l0.7,0.1c-0.1,1.4-0.9,2.2-2.1,2.2
		c-1.2,0-2.3-0.9-2.3-3.2c0-2,1.1-3.1,2.3-3.1c1.1,0,1.9,0.9,2.1,2.1l-0.7,0.1c-0.1-0.8-0.5-1.5-1.4-1.5
		C391.6,22.6,390.9,23.3,390.9,25z"/>
</g>
<g>
	<path class="st1" d="M396.1,22.1h0.7v2.6h2.5v-2.6h0.7V28h-0.7v-2.8h-2.5V28h-0.7V22.1z"/>
</g>
<g>
	<defs>
		<rect id="SVGID_1_" width="720" height="540"/>
	</defs>
	<clipPath id="SVGID_2_">
		<use xlink:href="#SVGID_1_"  style="overflow:visible;"/>
	</clipPath>
	<path class="st2" d="M170.3,499.1v8.5h-1.4c-0.1-2.4,0-4.9,0-7.3c-0.9-0.1-2,0-2.9,0v7.3c-0.4,0.1-0.9,0-1.4,0
		c-0.1-2.4,0-4.9,0-7.3c-0.9-0.1-2,0-2.9,0v7.3h-1.4c-0.1-2.8,0-5.6,0-8.4c0,0,0-0.1,0.1-0.1H170.3z"/>
	<path class="st2" d="M158.7,499.1c0.1,2.8,0,5.7,0,8.5c-2.1,0.1-4.3,0-6.4,0v-8.4c0,0,0-0.1,0-0.1h1.4v7.3c1.1,0.1,2.4,0,3.6,0
		c0.1-2.4,0-4.9,0.1-7.3H158.7z"/>
	<path class="st2" d="M145.1,502.4h5c-0.1-1.5-1.1-2.4-2.7-2.3C146.1,500.3,145.3,501.2,145.1,502.4 M147.3,498.9
		c2.9-0.2,4.2,1.9,4.1,4.7h-6.4c0,1.9,1.1,3.3,3.1,3.1c1.2-0.1,1.8-0.9,2.3-1.7c0.4,0.2,0.7,0.4,1,0.7c-0.8,1.4-1.9,2.4-4.1,2.3
		c-2.4-0.2-3.6-2.1-3.7-4.4C143.6,501.1,144.9,499.1,147.3,498.9"/>
	<path class="st2" d="M140.7,502.8c1.3,0.4,2.6,1,2.5,2.8c-0.2,3-5.3,3-6.2,0.5c0.4-0.2,0.7-0.5,1.1-0.8c0.4,0.9,2,1.8,3.2,1
		c0.7-0.4,0.7-1.5,0.1-1.9c-0.5-0.4-1.3-0.5-1.9-0.8c-0.6-0.2-1.3-0.5-1.7-1c-0.7-0.8-0.5-2.1,0.1-2.8c0.5-0.6,1.3-1,2.4-1
		c1.5,0,2.4,0.6,2.9,1.6c-0.4,0.2-0.7,0.4-1.1,0.7c-0.4-0.7-1.7-1.4-2.7-0.8c-0.4,0.2-0.8,0.9-0.5,1.5
		C139,502.4,140.1,502.5,140.7,502.8"/>
	<path class="st2" d="M136.2,499.1c0.1,2.8,0,5.7,0,8.5c-2.1,0.1-4.3,0-6.4,0c-0.1-2.8,0-5.6,0-8.4c0,0,0-0.1,0.1-0.1h1.3v7.3
		c1.1,0.1,2.4,0,3.6,0c0.1-2.4,0-4.9,0-7.3H136.2z"/>
	<path class="st2" d="M128.3,499.1v8.5H127v-7.3H124c-0.1,2.4,0,4.9,0,7.3c-0.4,0.1-0.9,0-1.4,0v-7.3c-0.9-0.1-2,0-2.9,0
		c-0.1,2.4,0,4.9,0,7.3h-1.4v-8.4c0,0,0-0.1,0-0.1H128.3z"/>
	<path class="st2" d="M111,502.4h5c-0.1-1.5-1.1-2.4-2.7-2.3C112,500.3,111.1,501.2,111,502.4 M113.2,498.9c2.9-0.2,4.2,1.9,4.1,4.7
		h-6.4c0,1.9,1.1,3.3,3.1,3.1c1.2-0.1,1.8-0.9,2.3-1.7c0.4,0.2,0.7,0.4,1,0.7c-0.8,1.5-2,2.4-4.1,2.3c-2.4-0.2-3.6-2.1-3.7-4.4
		C109.5,501.1,110.8,499.1,113.2,498.9"/>
	<path class="st2" d="M104.8,506.7c2.1-0.2,3.2-3.1,2-5.2c-0.5-0.8-1.4-1.4-2.6-1.3c-1,0.1-1.8,0.6-2.2,1.3
		c-0.3,0.4-0.5,1.2-0.5,1.9c0,1.9,1.1,3.1,2.5,3.2C104.3,506.7,104.6,506.7,104.8,506.7 M108.3,501.3c1.3,3-0.3,6.3-3.2,6.6
		c-1.8,0.1-2.7-0.6-3.5-1.5v1.2h-1.4v-12.5c0,0,0-0.1,0-0.1h1.4v5.3c0.1,0,0.2-0.1,0.3-0.2c0.7-0.7,1.8-1.4,3.4-1.2
		C106.7,499.2,107.8,500.1,108.3,501.3"/>
	<path class="st2" d="M95.4,506.7c1.5-0.2,2.5-1.5,2.5-3.3c0-1.9-1.2-3.4-3.1-3.2c-1.1,0.1-1.9,0.7-2.3,1.4c-0.7,1.2-0.5,3,0.2,3.9
		C93.2,506.3,94.3,506.8,95.4,506.7 M94.9,498.9c3.2-0.3,5.1,2.9,4.2,6c-0.4,1.5-1.7,2.8-3.4,2.9c-1.8,0.1-2.7-0.6-3.5-1.4v1.2h-1.4
		v-12.5c0,0,0-0.1,0-0.1h1.4v5.3C92.9,499.7,93.6,499.1,94.9,498.9"/>
	<path class="st2" d="M87.5,505.9c0.4-0.6,0.5-1.4,0.5-2.4c-0.9-0.9-3-0.7-3.7,0.1c-0.7,0.8-0.6,2.3,0.3,2.9
		C85.6,507.1,87,506.6,87.5,505.9 M89.4,499.1v8.5H88v-1c-0.4,0.7-1.4,1.3-2.5,1.3c-1.6,0-2.9-1.1-3-2.6c-0.1-0.8,0.1-1.5,0.4-2
		c0.8-1.5,3.3-1.8,5.2-1v-2h-4v-1.1c0,0,0-0.1,0-0.1H89.4z"/>
	<path class="st2" d="M81.6,499.2v8.5h-1.4v-7.3c-1.1-0.1-2.3,0-3.4,0v7.3h-1.4v-8.4c0,0,0-0.1,0-0.1H81.6z"/>
	<path class="st2" d="M70.4,506.8c1.7,0,2.3-1.5,2.2-3.3c-0.5-0.4-1.2-0.6-2-0.5c-1.3,0.1-2.2,0.8-2.2,2
		C68.5,506,69.4,506.8,70.4,506.8 M74,499.1v8.5h-1.4v-1c-0.8,1.5-3.5,1.7-4.7,0.4c-1.1-1.1-1-3.4,0.1-4.4c1-0.9,3.3-1,4.7-0.3v-2
		c-1.2-0.1-2.5,0-3.7,0v-1.1c0,0,0-0.1,0-0.1H74z"/>
	<path class="st2" d="M66.7,499.1h1.5c-1.3,3-2.7,5.9-4.1,8.9c-1.4-2.9-2.8-5.9-4.1-8.8h1.6c0.8,1.9,1.7,3.8,2.5,5.8
		C65,503.1,65.8,501,66.7,499.1"/>
</g>
</svg>
