<svg id="Layer_1" data-name="Layer 1" xmlns="http://www.w3.org/2000/svg" xmlns:xlink="http://www.w3.org/1999/xlink" viewBox="0 0 720 540"><defs><style>.cls-1{fill:none;}.cls-2{fill:#005baa;}.cls-3{fill:#fff;}.cls-4{clip-path:url(#clip-path);}</style><clipPath id="clip-path"><rect class="cls-1" width="720" height="540"/></clipPath></defs><title>Pages from 3665VAM_vanabbemuseum_Ebooks Becoming Dutch ENGLISH 2017-5</title><rect class="cls-2" width="720" height="540"/><path class="cls-3" d="M165.13,234.5h-2V248h-10V209.7h15.25c6.8,0,13.1,3.85,13.1,12,0,5.25-2.3,8.8-6.6,10.45,1,1.45,10.25,15.85,10.25,15.85H173.18S166.23,236.25,165.13,234.5Zm-2.2-17.15V227h3.2c2.75,0,5.15-1.15,5.15-4.8,0-3.25-1.75-4.8-5.05-4.8Z"/><path class="cls-3" d="M187.08,232.7c0-9.3,6.65-16,15.7-16,8.85,0,15.1,5.85,15.1,16.8,0,.75.05,1.15,0,1.85h-21.6c.8,3.65,3.7,5.4,7.2,5.4,3.05,0,5.05-2.15,6.65-4.25,0,0,5.55,3.2,7.25,4.25a16.05,16.05,0,0,1-14.35,8C193.58,248.75,187.08,243,187.08,232.7Zm15.6-8.2c-3.15,0-4.9,1.5-6.05,4.35h11.65C207.18,225.9,205.58,224.5,202.68,224.5Z"/><path class="cls-3" d="M221.38,232.8c0-8.55,6.35-16.1,14.9-16.1,3.75,0,6.1,1.25,8.85,3.75V217.3h9.2V248H245v-3a13,13,0,0,1-9.2,3.75C227.23,248.75,221.38,242.65,221.38,232.8Zm16.75-7.5a7.08,7.08,0,0,0-7.3,7.35c0,4.25,2.7,7.75,7,7.75a7.39,7.39,0,0,0,7.6-7.5A7.23,7.23,0,0,0,238.13,225.3Z"/><path class="cls-3" d="M292.23,248h-9.1v-3.2a12.9,12.9,0,0,1-9.85,3.95c-8.65,0-13.95-7.3-13.95-15.85,0-8.35,5.7-16.2,14.75-16.2a13.69,13.69,0,0,1,8.9,3.5V207h9.25Zm-23.45-15.25c0,4.25,2.85,7.7,7.1,7.7,4.85,0,7.55-3.35,7.55-7.6s-2.9-7.5-7.25-7.5A7.14,7.14,0,0,0,268.78,232.75Z"/><path class="cls-3" d="M312.68,209.7h9.15v7.55h5v8.1h-5.05V237.6c.05,2.2.85,2.85,3,2.85a18.36,18.36,0,0,0,3.1-.45v7.85a24.37,24.37,0,0,1-5.05.65c-5.9,0-10.2-2.65-10.2-9.45v-13.7h-3.15v-8.1h3.25Z"/><path class="cls-3" d="M341.43,248H332V207h9.3v14.3a11.06,11.06,0,0,1,8.95-4.6c6.1,0,11.05,4.4,11.05,10.2V248h-9.6V230c0-2.55-.7-4.95-4.8-4.95a5.5,5.5,0,0,0-5.5,5.4Z"/><path class="cls-3" d="M366.32,232.7c0-9.3,6.65-16,15.71-16,8.85,0,15.1,5.85,15.1,16.8,0,.75.05,1.15,0,1.85H375.52c.81,3.65,3.71,5.4,7.21,5.4,3,0,5-2.15,6.65-4.25,0,0,5.55,3.2,7.25,4.25a16.05,16.05,0,0,1-14.35,8C372.83,248.75,366.32,243,366.32,232.7Zm15.6-8.2c-3.14,0-4.89,1.5-6,4.35h11.65C386.43,225.9,384.83,224.5,381.92,224.5Z"/><path class="cls-3" d="M423,248h-10.1l6-38.3h9.71l8.1,20.9,8-20.9h10.1l6.1,38.3h-10.2l-3-22L439,248h-4.7l-8.61-22.1Z"/><path class="cls-3" d="M463.67,232.8c0-8.55,6.35-16.1,14.91-16.1,3.75,0,6.09,1.25,8.85,3.75V217.3h9.2V248h-9.35v-3a13,13,0,0,1-9.2,3.75C469.52,248.75,463.67,242.65,463.67,232.8Zm16.75-7.5a7.07,7.07,0,0,0-7.29,7.35c0,4.25,2.69,7.75,7,7.75a7.39,7.39,0,0,0,7.6-7.5A7.23,7.23,0,0,0,480.42,225.3Z"/><path class="cls-3" d="M501.62,226.7c0-5.95,4.95-10,11.75-10a10.77,10.77,0,0,1,10,6.75l-7,3.1a4.35,4.35,0,0,0-3.8-2.4c-1.5,0-2.45.65-2.45,1.85,0,3.45,14.15,2.05,14.15,12.55,0,6.65-5.8,10.2-12.3,10.2-5.15,0-9-1.9-11.35-6.4l7.15-3.6s1.55,2.7,4.3,2.7c1.5,0,3.3-.7,3.3-2.15C515.37,235.5,501.62,237.5,501.62,226.7Z"/><path class="cls-3" d="M538.37,235.6V248h-9.3V207h9.3v21.35l8.75-11h11.25l-12.1,14.15,13,16.55H547.52S539,236.5,538.37,235.6Z"/><path class="cls-3" d="M560.17,226.7c0-5.95,5-10,11.75-10A10.77,10.77,0,0,1,582,223.45l-7.05,3.1a4.35,4.35,0,0,0-3.8-2.4c-1.5,0-2.45.65-2.45,1.85,0,3.45,14.15,2.05,14.15,12.55,0,6.65-5.8,10.2-12.3,10.2-5.15,0-8.95-1.9-11.35-6.4l7.15-3.6s1.55,2.7,4.3,2.7c1.5,0,3.3-.7,3.3-2.15C573.92,235.5,560.17,237.5,560.17,226.7Z"/><path class="cls-3" d="M319.94,22.05H322a1.59,1.59,0,0,1,1.76,1.54,1.23,1.23,0,0,1-.77,1.19v0a1.46,1.46,0,0,1,1,1.44c0,1.07-.66,1.76-2.13,1.76h-1.91Zm1.93,2.52c.8,0,1.16-.34,1.16-.94s-.44-.93-1.17-.93h-1.19v1.87Zm-.11,2.78c1,0,1.49-.3,1.49-1.11s-.49-1-1.47-1h-1.11v2.15Z"/><path class="cls-3" d="M326.1,22.05h3.52v.65h-2.79v1.93h2.55v.62h-2.55v2.1h2.79V28H326.1Z"/><path class="cls-3" d="M332.26,25c0,1.7.62,2.49,1.53,2.49s1.26-.76,1.34-1.67l.74.09a2.13,2.13,0,0,1-2.08,2.25c-1.2,0-2.29-.88-2.29-3.16,0-2,1.08-3,2.29-3A2.13,2.13,0,0,1,335.85,24l-.71.12c-.12-.8-.5-1.53-1.35-1.53S332.26,23.33,332.26,25Z"/><path class="cls-3" d="M337.22,25c0-2,1.12-3,2.25-3s2.25,1,2.25,3.09c0,2.28-1.12,3.12-2.25,3.12S337.22,27.25,337.22,25ZM341,25c0-1.65-.64-2.42-1.49-2.42S338,23.33,338,25s.64,2.49,1.49,2.49S341,26.71,341,25Z"/><path class="cls-3" d="M343.32,22.05h.95l1.06,3.37h0l1-3.37h1V28h-.64V23h0l-1.24,3.84h-.22L344,23h0v5h-.65Z"/><path class="cls-3" d="M349.42,22.05H353v.64h-1.43v4.67H353V28h-3.57v-.64h1.42V22.69h-1.42Z"/><path class="cls-3" d="M355.16,22.05h.74l2.37,4.74h0V22.05H359V28h-.72l-2.39-4.74h0V28h-.68Z"/><path class="cls-3" d="M360.78,25c0-2,1.11-3,2.32-3a2.12,2.12,0,0,1,2,2l-.71.12c-.13-.77-.52-1.42-1.32-1.42s-1.55.74-1.55,2.38.66,2.49,1.55,2.49,1.4-.65,1.37-1.73H363v-.65h2.21v.58c0,1.57-.9,2.47-2.08,2.47S360.78,27.23,360.78,25Z"/><path class="cls-3" d="M372.72,22.05h1.63c1.32,0,2.59.91,2.59,3,0,2.27-1.33,3-2.64,3h-1.58Zm1.52,5.3c1.19,0,1.94-.65,1.94-2.33,0-1.52-.74-2.32-1.89-2.32h-.84v4.65Z"/><path class="cls-3" d="M378.39,22.05h.73v4a1.41,1.41,0,1,0,2.82,0v-4h.71v4a2.13,2.13,0,0,1-4.26,0Z"/><path class="cls-3" d="M386,22.7h-2v-.65h4.72v.65h-2V28H386Z"/><path class="cls-3" d="M390.91,25c0,1.7.62,2.49,1.52,2.49s1.26-.76,1.34-1.67l.74.09a2.12,2.12,0,0,1-2.08,2.25c-1.2,0-2.29-.88-2.29-3.16,0-2,1.08-3,2.29-3A2.13,2.13,0,0,1,394.49,24l-.71.12c-.12-.8-.5-1.53-1.35-1.53S390.91,23.33,390.91,25Z"/><path class="cls-3" d="M396.15,22.05h.73v2.56h2.49V22.05h.72V28h-.72V25.24h-2.49V28h-.73Z"/><g class="cls-4"><path class="cls-3" d="M170.27,499.14v8.51h-1.39c-.07-2.38,0-4.88,0-7.31-.93-.06-2,0-2.94,0v7.31c-.41.06-.94,0-1.39,0-.07-2.38,0-4.88,0-7.31-.93-.06-2,0-3,0v7.34h-1.39c-.06-2.76,0-5.63,0-8.43a.08.08,0,0,1,.05-.08Z"/><path class="cls-3" d="M158.68,499.14c.07,2.77,0,5.66,0,8.48-2.08.06-4.28,0-6.41,0v-8.43s0-.07,0-.08h1.36v7.28c1.14.06,2.39,0,3.58,0,.08-2.38,0-4.94,0-7.31Z"/><path class="cls-3" d="M145.08,502.44h5a2.31,2.31,0,0,0-2.7-2.26,2.44,2.44,0,0,0-2.34,2.26m2.26-3.52c2.93-.21,4.2,1.86,4.15,4.69h-6.41c0,1.92,1.09,3.26,3.08,3.08a2.89,2.89,0,0,0,2.26-1.72,10.82,10.82,0,0,1,1,.66,4,4,0,0,1-4.15,2.26c-2.38-.16-3.61-2.12-3.65-4.44s1.22-4.35,3.68-4.53"/><path class="cls-3" d="M140.75,502.77c1.26.42,2.6,1,2.45,2.8-.25,3-5.28,3-6.24.55.38-.24.74-.49,1.09-.76a2.41,2.41,0,0,0,3.19,1,1.19,1.19,0,0,0,0-1.93,8.44,8.44,0,0,0-1.94-.77,4.34,4.34,0,0,1-1.71-1,2.34,2.34,0,0,1,.05-2.75,3.07,3.07,0,0,1,2.43-1A3,3,0,0,1,143,500.5c-.36.22-.72.43-1.07.66a2.12,2.12,0,0,0-2.72-.82,1.15,1.15,0,0,0-.46,1.47c.27.56,1.29.72,2,1"/><path class="cls-3" d="M136.19,499.14c.07,2.77,0,5.66,0,8.48-2.08.06-4.28,0-6.41,0-.06-2.76,0-5.63,0-8.43a.08.08,0,0,1,.05-.08h1.34v7.28c1.14.06,2.4,0,3.59,0,.07-2.38,0-4.88,0-7.31Z"/><path class="cls-3" d="M128.34,499.14v8.51H127v-7.34h-3c-.06,2.38,0,4.88,0,7.31-.41.06-.94,0-1.39,0v-7.31c-.93-.06-2,0-3,0-.06,2.39,0,4.9,0,7.34h-1.39v-8.43s0-.07,0-.08Z"/><path class="cls-3" d="M111,502.44h5a2.31,2.31,0,0,0-2.7-2.26,2.38,2.38,0,0,0-2.31,2.26m2.23-3.52c3-.21,4.2,1.86,4.15,4.69H111c0,1.92,1.08,3.26,3.08,3.08a3,3,0,0,0,2.29-1.72c.36.2.67.44,1,.66a4,4,0,0,1-4.15,2.26c-2.35-.16-3.59-2.05-3.65-4.44s1.26-4.35,3.68-4.53"/><path class="cls-3" d="M104.82,506.66c2.1-.22,3.24-3.12,2-5.15a2.87,2.87,0,0,0-4.85,0,4.29,4.29,0,0,0-.49,1.94,3,3,0,0,0,2.54,3.21,3.47,3.47,0,0,0,.79,0m3.49-5.34c1.27,3-.35,6.35-3.22,6.57a3.81,3.81,0,0,1-3.49-1.47v1.23h-1.39V495.19s0-.08,0-.08h1.36v5.28c.09,0,.21-.13.33-.24a3.73,3.73,0,0,1,3.38-1.17,3.78,3.78,0,0,1,3,2.34"/><path class="cls-3" d="M95.41,506.66a3,3,0,0,0,2.51-3.29,2.92,2.92,0,0,0-3.14-3.19,2.82,2.82,0,0,0-2.29,1.44,4.06,4.06,0,0,0,.22,3.93,3,3,0,0,0,2.7,1.11M95,499c3.2-.27,5.06,2.91,4.17,6a4,4,0,0,1-3.44,2.94,3.9,3.9,0,0,1-3.49-1.44v1.2H90.8V495.19s0-.08,0-.08h1.36v5.31A4.12,4.12,0,0,1,95,499"/><path class="cls-3" d="M87.51,505.87a4.36,4.36,0,0,0,.49-2.4,3.15,3.15,0,0,0-3.71.11,2,2,0,0,0,.33,2.87,2.23,2.23,0,0,0,2.89-.58m1.85-6.73v8.51H88v-1a3,3,0,0,1-2.51,1.31,2.89,2.89,0,0,1-3-2.62,4,4,0,0,1,.36-2c.77-1.54,3.3-1.82,5.18-1v-2H84v-1.09s0-.07,0-.08Z"/><path class="cls-3" d="M81.62,499.17v8.48H80.23v-7.28c-1.08-.07-2.28,0-3.41,0v7.31H75.43v-8.4s0-.08,0-.08Z"/><path class="cls-3" d="M70.41,506.77c1.68,0,2.26-1.46,2.21-3.32a3,3,0,0,0-2-.55c-1.31.09-2.17.84-2.15,2a1.89,1.89,0,0,0,2,1.85M74,499.14v8.51H72.62v-1c-.77,1.49-3.5,1.69-4.74.44a3.49,3.49,0,0,1,.05-4.45c1-.94,3.29-1,4.69-.3v-2c-1.17-.06-2.46,0-3.68,0v-1.09s0-.07,0-.08Z"/><path class="cls-3" d="M66.73,499.14h1.5c-1.34,3-2.75,5.88-4.09,8.86-1.42-2.9-2.76-5.88-4.14-8.83h1.55c.82,1.94,1.72,3.81,2.54,5.75.94-1.86,1.72-3.9,2.64-5.78"/></g></svg>