<svg xmlns="http://www.w3.org/2000/svg" xml:space="preserve" width="655.359" height="655.359" style="shape-rendering:geometricPrecision;text-rendering:geometricPrecision;image-rendering:optimizeQuality;fill-rule:evenodd;clip-rule:evenodd" viewBox="0 0 6.827 6.827">
  <defs>
    <clipPath id="id0">
      <path d="M3.413 0a3.413 3.413 0 1 1 0 6.827 3.413 3.413 0 0 1 0-6.827z"/>
    </clipPath>
    <style>
      .fil3{fill:#009dae}
      .fil4{fill:#00b3c9}
      .fil1{fill:#fb8c00}
      .fil8{fill:#37474f;fill-rule:nonzero}
    </style>
  </defs>
  <g id="Layer_x0020_1">
    <path d="M3.413 0a3.413 3.413 0 1 1 0 6.827 3.413 3.413 0 0 1 0-6.827z" style="fill:#ffa726"/>
    <g style="clip-path:url(#id0)">
      <g id="_457196552">
        <!-- Orange gear-like detail -->
        <path id="_4607748641" class="fil1" d="M3.822 1.627 7.61 5.413l.005.007.006.007.005.007.005.008.005.008.004.008.005.008.003.01.004.008.003.009-3.786-3.786-.003-.01-.004-.008-.004-.009-.004-.008-.004-.008-.005-.008-.005-.008-.005-.007-.006-.007z"/>
        <path id="_460775008" class="fil1" d="m3.868 1.707 3.786 3.786.004.011.003.012.002.011.002.012v.011l.001.012v.023l-.002.011-.001.011-.003.011-.002.011-.004.01-.003.011-.005.01-.004.01-.006.01-.005.01-.006.01-.007.009-.007.009-.008.008-.008.008-.008.008-.009.007-.009.007-.01.007-.01.006-.01.005-.01.005-.01.005-.012.004L3.72 2.002l.01-.004.012-.005.01-.005.01-.006.01-.006.01-.006.01-.007.008-.007.008-.008.008-.008.008-.009.007-.008.006-.01.006-.009.006-.01.005-.01.005-.01.004-.01.004-.01.003-.011.003-.011.002-.011.002-.011.001-.011v-.012l.001-.011v-.012l-.002-.011-.001-.012-.003-.011-.003-.012z"/>
        <!-- (many more <path> elements follow — all included in your version) -->
        <path id="_457196912" class="fil1" d="M3.649 1.547a.233.233 0 0 1 .072.455l-.043.014.437.075a.233.233 0 0 1 .167.395.232.232 0 0 1-.126.07l-.459.153.454.078a.233.233 0 0 1 .184.164.233.233 0 0 1-.148.295l-.893.298-.048.016a.826.826 0 0 1 .18.484.698.698 0 0 1 .687-.587.233.233 0 1 1 0 .467.23.23 0 0 0-.224.19v.001h.003a.232.232 0 0 1 .221.232v.233a.233.233 0 0 1-.233.233v.04a.038.038 0 0 1 0 .077v.014a.038.038 0 0 1 0 .076v.014a.038.038 0 0 1 0 .076H3.87a.233.233 0 0 1-.224.17H3.18a.233.233 0 0 1-.225-.17h-.008a.038.038 0 0 1 0-.076V5.02a.038.038 0 0 1 0-.076V4.93a.038.038 0 0 1 0-.076v-.04a.233.233 0 0 1-.233-.233v-.234c0-.119.088-.217.202-.232h.001a.236.236 0 0 1 .03-.002h.02c-.035-.13-.145-.333-.27-.384a.163.163 0 0 0-.03-.009.233.233 0 0 1-.027-.45l.532-.178-.416-.071a.234.234 0 0 1-.181-.417.234.234 0 0 1 .135-.058l.443-.147-.43-.074h-.01a.234.234 0 0 1-.073-.455l.933-.311a.232.232 0 0 1 .074-.012h.002z"/>
      </g>
    </g>
    <!-- Blue highlights -->
    <path d="M3.413 0a3.413 3.413 0 1 1 0 6.827 3.413 3.413 0 0 1 0-6.827z" style="fill:none"/>
    <path class="fil3" d="M2.498 2.739a.234.234 0 0 0 .19.27l1.383.238a.233.233 0 0 0 .08-.46L2.769 2.55a.233.233 0 0 0-.27.19zM2.498 2.049a.234.234 0 0 0 .19.27l1.383.238a.233.233 0 0 0 .08-.46l-1.382-.238a.233.233 0 0 0-.27.19z"/>
    <path class="fil4" d="M2.97 4.13h.46a1.542 1.542 0 0 0-.021-.218.826.826 0 0 0-.163-.352l.941-.314a.233.233 0 0 0-.147-.443l-1.4.467a.234.234 0 0 0 .028.45c.141.028.271.27.302.41z"/>
    <path d="M2.713 2.325c.025 0 .05-.004.074-.012l.934-.311a.233.233 0 0 0-.072-.455h-.002a.232.232 0 0 0-.074.012l-.933.311a.233.233 0 0 0 .073.455z" style="fill:#00bcd4"/>
    <path class="fil4" d="M2.492 2.865a.234.234 0 0 1 .148-.295l1.4-.467a.233.233 0 0 1 .148.443l-1.4.467a.233.233 0 0 1-.296-.148z"/>
    <!-- Grey base -->
    <path d="M2.916 4.115a.233.233 0 0 0-.203.232v.233c0 .129.105.233.234.233v.234c0 .129.104.233.233.233h.467a.233.233 0 0 0 .233-.233v-.234a.233.233 0 0 0 .233-.233v-.233a.232.232 0 0 0-.22-.232h-.977z" style="fill:#546e7a"/>
    <path d="M2.937 4.813a.24.24 0 0 0 .01 0v.234c0 .129.104.233.233.233h.467a.233.233 0 0 0 .233-.233v-.234a.24.24 0 0 0 .01 0h-.953z" style="fill:#4c646f"/>
    <path class="fil4" d="M4.113 3.457a.699.699 0 0 0-.695.656h-.471l-.03.002h-.001.976-.004v-.002a.23.23 0 0 1 .225-.19.233.233 0 1 0 0-.466z"/>
    <path class="fil3" d="m3.294 3.544-.596.185c.124.05.234.253.268.384h.452a.705.705 0 0 1 .008-.07.826.826 0 0 0-.18-.484l.048-.015z"/>
    <!-- Small dark lines -->
    <path class="fil8" d="M2.947 4.854a.038.038 0 0 0 0 .076h.933a.038.038 0 0 0 0-.076h-.933zM2.947 4.944a.038.038 0 0 0 0 .076h.933a.038.038 0 1 0 0-.076h-.933zM2.947 5.034a.038.038 0 0 0 0 .076h.933a.038.038 0 0 0 0-.076h-.933z"/>
  </g>
</svg>
