<?xml version="1.0" encoding="UTF-8" standalone="no"?>
<!-- Generator: Adobe Illustrator 25.2.1, SVG Export Plug-In . SVG Version: 6.00 Build 0)  -->

<svg
   version="1.1"
   x="0px"
   y="0px"
   viewBox="0 0 360 288"
   style="enable-background:new 0 0 360 288;"
   xml:space="preserve"
   id="svg109"
   sodipodi:docname="Ljubljanskemlekarne.svg"
   inkscape:version="1.1.2 (0a00cf5339, 2022-02-04)"
   xmlns:inkscape="http://www.inkscape.org/namespaces/inkscape"
   xmlns:sodipodi="http://sodipodi.sourceforge.net/DTD/sodipodi-0.dtd"
   xmlns:xlink="http://www.w3.org/1999/xlink"
   xmlns="http://www.w3.org/2000/svg"
   xmlns:svg="http://www.w3.org/2000/svg"><defs
   id="defs113" /><sodipodi:namedview
   id="namedview111"
   pagecolor="#ffffff"
   bordercolor="#666666"
   borderopacity="1.0"
   inkscape:pageshadow="2"
   inkscape:pageopacity="0.0"
   inkscape:pagecheckerboard="0"
   showgrid="false"
   inkscape:zoom="2.4965278"
   inkscape:cx="92.328234"
   inkscape:cy="144"
   inkscape:window-width="1846"
   inkscape:window-height="1136"
   inkscape:window-x="0"
   inkscape:window-y="0"
   inkscape:window-maximized="1"
   inkscape:current-layer="Layer_1" />
<style
   type="text/css"
   id="style2">
	.st0{fill-rule:evenodd;clip-rule:evenodd;fill:#026A3A;}
	.st1{fill:#FFFFFF;}
	.st2{clip-path:url(#SVGID_2_);}
	.st3{fill:url(#SVGID_3_);}
	.st4{fill:#026A3A;}
	.st5{fill:none;}
	.st6{font-family:'Asap-Bold';}
	.st7{font-size:24px;}
</style>
<g
   id="Layer_2">
	<path
   class="st0"
   d="M21.8,145.8C21.9,66.9,85.9,3,164.6,3.1c78.8,0.1,142.6,64.2,142.5,143.1C307,225.1,243,289,164.3,288.9   C85.5,288.8,21.7,224.7,21.8,145.8 M61.5,159.3c-1.1,6.1-1.7,12.4-1.7,18.9C59.8,236,106.5,282.9,164.3,283   c57.8,0.1,104.7-46.7,104.8-104.6c0-6.5-0.5-12.7-1.6-18.9L61.5,159.3z"
   id="path4" />
</g>
<g
   id="Layer_1">
	<g
   id="g70">
		<g
   id="g17">
			<g
   id="g15">
				<path
   class="st1"
   d="M176.6,96.8c2.8,0,5.2,1,7.3,3.1c2,2.1,3,4.6,3,7.4V125c0,2.7-0.9,5-2.6,7c1.8,2,2.6,4.4,2.6,7v21.1H180      v-21.1c0-1-0.3-1.8-1-2.5c-0.7-0.7-1.5-1.1-2.4-1.1h-5.1v24.7h-6.9V96.8H176.6z M176.6,128.5c1,0,1.8-0.3,2.4-1      c0.7-0.7,1-1.5,1-2.5v-17.6c0-1-0.3-1.8-1-2.5c-0.7-0.7-1.5-1-2.4-1h-5.1v24.6H176.6z"
   id="path7" />
				<path
   class="st1"
   d="M203.2,96.8c2.8,0,5.2,1,7.3,3.1c2,2.1,3,4.6,3,7.4v42.3c0,2.9-1,5.4-3,7.4c-2,2.1-4.4,3.1-7.3,3.1h-1.7      c-2.8,0-5.2-1-7.3-3.1c-2-2.1-3-4.6-3-7.4v-42.3c0-2.9,1-5.4,3-7.4c2-2.1,4.4-3.1,7.3-3.1H203.2z M206.7,107.4      c0-1-0.3-1.8-1-2.5c-0.7-0.7-1.5-1-2.4-1h-1.7c-1,0-1.8,0.3-2.4,1c-0.7,0.7-1,1.5-1,2.5v42.3c0,1,0.3,1.8,1,2.5      c0.7,0.7,1.5,1,2.4,1h1.7c1,0,1.8-0.3,2.4-1c0.7-0.7,1-1.5,1-2.5V107.4z"
   id="path9" />
				<path
   class="st1"
   d="M229.9,96.8c2.8,0,5.2,1,7.3,3.1c2,2.1,3,4.6,3,7.4v52.8h-6.9v-17.6h-8.6v17.6h-6.9v-52.8      c0-2.9,1-5.4,3-7.4c2-2.1,4.4-3.1,7.3-3.1H229.9z M233.3,135.5v-28.2c0-1-0.3-1.8-1-2.5c-0.7-0.7-1.5-1-2.4-1h-1.7      c-1,0-1.8,0.3-2.4,1c-0.7,0.7-1,1.5-1,2.5v28.2H233.3z"
   id="path11" />
				<path
   class="st1"
   d="M256.5,96.8c2.8,0,5.2,1,7.3,3.1c2,2.1,3,4.6,3,7.4v42.3c0,2.9-1,5.4-3,7.4c-2,2.1-4.4,3.1-7.3,3.1h-12      V96.8H256.5z M259.9,107.4c0-1-0.3-1.8-1-2.5c-0.7-0.7-1.5-1-2.4-1h-5.1v49.3h5.1c1,0,1.8-0.3,2.4-1c0.7-0.7,1-1.5,1-2.5V107.4z      "
   id="path13" />
			</g>
		</g>
		<g
   id="g68">
			<defs
   id="defs20">
				<rect
   id="SVGID_1_"
   x="9"
   y="0"
   width="351"
   height="288" />
			</defs>
			<clipPath
   id="SVGID_2_">
				<use
   xlink:href="#SVGID_1_"
   style="overflow:visible;"
   id="use22" />
			</clipPath>
			<g
   class="st2"
   clip-path="url(#SVGID_2_)"
   id="g66">
				<linearGradient
   id="SVGID_3_"
   gradientUnits="userSpaceOnUse"
   x1="139.9628"
   y1="187.3557"
   x2="139.9628"
   y2="121.9149">
					<stop
   offset="0"
   style="stop-color:#808080"
   id="stop25" />
					<stop
   offset="0.2074"
   style="stop-color:#838484"
   id="stop27" />
					<stop
   offset="0.4033"
   style="stop-color:#8C8F8F"
   id="stop29" />
					<stop
   offset="0.5945"
   style="stop-color:#9BA2A2"
   id="stop31" />
					<stop
   offset="0.7829"
   style="stop-color:#AFBCBD"
   id="stop33" />
					<stop
   offset="0.9675"
   style="stop-color:#CADDDF"
   id="stop35" />
					<stop
   offset="1"
   style="stop-color:#CFE4E6"
   id="stop37" />
				</linearGradient>
				<path
   class="st3"
   d="M30.4,138.2c13.1-13.4,65.5-22.5,67.9-22.8l38.6,2.2l-19.6-1.1l19.7,1.1c-0.5,0.1-64.7,11.7-35.9,32.3      c14,10,32,20.2,51,30.9c43.2,24.4,89.1,33.5,106.9,69.6c1.7,3.4,1.1,34.4,0.9,42.7c-0.5,26.7-17,58.4-58.6,97.5L19.9,330.7      c122-62.5,92.8-96.6,42.8-145.4c-12-11.7-23.2-22.7-30.3-33.5c-1.3-2-2-3.9-2.2-5.8C30,143.4,30.1,138.5,30.4,138.2z"
   id="path40" />
				<path
   class="st1"
   d="M32.6,134.4c11.5-12.1,63.3-18.7,65.6-19l38.6,1.8l-19.6-0.9l19.7,0.9c-0.5,0.1-64.7,9.5-35.9,26.3      c14,8.2,32,16.5,51,25.2c78.6,36.2,170.2,78.4,49.2,171.2L19.9,291.2c122-51,92.8-78.8,42.8-118.7c-12-9.6-23.2-18.5-30.3-27.3      C29.1,141,29.7,137.5,32.6,134.4z"
   id="path42" />
				<g
   id="g46">
					<path
   class="st4"
   d="M83,134.5c1.1-5.5,11.3-9.6,20.5-12.3c13-3.8,28.4-5.9,28.5-5.9l1.3,0.1c-0.6,0.1-69.7,9.9-41,28       c13.4,8.5,30.9,17.1,49.6,26.2c76.3,37.5,147.5,72.4,39.3,143.5l-6.5-1.6c108.7-69.7,39-104.4-35.8-141.7       c-18.4-9.2-35.7-17.8-48.9-26.3C84.2,140.6,82.4,137.3,83,134.5z"
   id="path44" />
				</g>
				<g
   id="g50">
					<path
   class="st4"
   d="M40.9,134.5c4.5-5.5,17.2-9.6,28.1-12.3c15.3-3.8,32-5.9,32.2-5.9l1.3,0.1c-0.6,0.1-75.8,9.9-58.3,28       c8.2,8.5,20.4,17.1,33.4,26.2C130.6,208,180.2,242.9,28.2,314l-5.5-1.6c151.7-69.7,103.5-104.4,51.7-141.7       c-12.7-9.2-24.7-17.8-32.7-26.3C38.3,140.6,38.5,137.3,40.9,134.5z"
   id="path48" />
				</g>
				<g
   id="g64">
					<g
   id="g54">
						<path
   class="st4"
   d="M113.4,116.7c1.9-0.3,3.1-0.5,3.1-0.5l1.3,0.1c0,0-1.2,0.2-3.1,0.4L113.4,116.7z"
   id="path52" />
					</g>
					<g
   id="g58">
						<path
   class="st4"
   d="M61.9,134.4l2,0c-0.3,0.6-0.5,1.3-0.6,2l-2.1,0C61.3,135.8,61.5,135.1,61.9,134.4z M63.2,132.6        c0.5-0.6,1.2-1.2,1.9-1.8l1.9,0c-0.7,0.6-1.4,1.2-1.9,1.8L63.2,132.6z M61.4,138.5l2.1,0c0.2,0.7,0.6,1.5,1.1,2.2l-2.2,0        C62,140,61.6,139.2,61.4,138.5z M67.6,129.1c0.9-0.5,1.9-1.1,3-1.6l1.8,0c-1.1,0.5-2.1,1-2.9,1.6L67.6,129.1z M64.5,143.1        l2.3,0c0.4,0.4,0.9,0.8,1.5,1.2c0.5,0.4,1,0.8,1.6,1.2l-2.3,0.1c-0.5-0.4-1-0.8-1.5-1.2C65.4,143.9,64.9,143.5,64.5,143.1z         M74.1,126.1c1.2-0.5,2.5-1,3.8-1.4l1.7,0c-1.3,0.5-2.6,0.9-3.8,1.4L74.1,126.1z M70.9,148.2l2.4-0.1c1.3,0.9,2.6,1.9,4,2.8        l-2.5,0.1C73.5,150,72.2,149.1,70.9,148.2z M82.1,123.3c1.4-0.4,3-0.9,4.5-1.3l1.6,0c-1.5,0.4-3,0.8-4.5,1.3L82.1,123.3z         M79.3,154l2.5-0.1c1.6,1.1,3.3,2.1,5.1,3.2l-2.6,0.1C82.6,156.1,80.9,155,79.3,154z M91.4,120.8c1.6-0.4,3.3-0.8,5.1-1.1        l1.5,0c-1.7,0.4-3.4,0.7-5,1.1L91.4,120.8z M89.9,160.6l2.7-0.1c2,1.2,4.1,2.5,6.2,3.7l-2.8,0.1        C93.9,163.1,91.9,161.8,89.9,160.6z M102.7,168.3l2.9-0.1l7.5,4.3l-3,0.1L102.7,168.3z M101.9,118.6c1.8-0.4,3.7-0.7,5.6-1        l1.4,0.1c-1.9,0.3-3.7,0.7-5.6,1L101.9,118.6z M118.1,177.4l3.2-0.1c2.9,1.7,5.8,3.4,8.7,5.2l-3.3,0.1        C123.8,180.8,120.9,179.1,118.1,177.4z M144.3,284.2c7.6-5.7,13.9-11.2,18.7-16.4l5.8,0.7c-4.7,5.3-10.9,10.9-18.5,16.7        L144.3,284.2z M135.6,188.2l3.5-0.2c3.4,2.2,6.5,4.3,9.4,6.3l-3.7,0.1C141.9,192.5,138.9,190.4,135.6,188.2z M173.5,253.1        c2.2-4.4,3.4-8.8,3.7-13.1l5.2,0.2c-0.1,4.3-1.2,8.7-3.3,13.3L173.5,253.1z M154.1,201.6l3.9-0.1c3.3,2.7,6.4,5.3,9,7.9        l-4.2,0.1C160.2,206.9,157.3,204.2,154.1,201.6z M170.3,218.4l4.5-0.1c2.4,3.4,4.3,6.8,5.6,10.2l-4.8,0        C174.4,225.1,172.6,221.7,170.3,218.4z"
   id="path56" />
					</g>
					<g
   id="g62">
						<path
   class="st4"
   d="M98.7,312.4c6.3-3.4,12.2-6.7,17.5-9.8l6,1.4c-5.4,3.2-11.3,6.6-17.6,10L98.7,312.4z"
   id="path60" />
					</g>
				</g>
			</g>
		</g>
	</g>
	<g
   id="g102">
		<g
   id="g84">
			<path
   class="st1"
   d="M135.1,102.4c0.1-1.3-0.1-2.7-0.4-4c-2.2-9.4-12.8-15.7-14.8-25.1c-2,9.4-12.6,15.8-14.8,25.1     c-0.3,1.3-0.4,2.7-0.4,4c0,0.2,0,0.4,0,0.6c0,8.4,6.8,15.1,15.1,15.1c8.4,0,15.1-6.8,15.1-15.1     C135.1,102.8,135.1,102.6,135.1,102.4z"
   id="path72" />
			<path
   class="st1"
   d="M112.1,91.1c0.1-0.1,0.1-0.2,0.2-0.3"
   id="path74" />
			<path
   class="st1"
   d="M109,101.8c0-1.8,0.3-3.7,1-5.3"
   id="path76" />
			<path
   class="st1"
   d="M111.9,109.8c-1.4-1.7-2.3-3.7-2.7-5.9"
   id="path78" />
			<path
   class="st1"
   d="M123.4,59.1c1.4-2.8,3.4-5.8,2.6-9.1c-1.3-5.5-9.8-5.4-11.1,0c-0.8,3.3,1.2,6.3,2.6,9.1     c3.4,6.7,3,17.5-1.9,22.8c1.6,0.9,3.2,0.9,4.3,1.7c0,0.9,0,1.3,0,1.3c0.2-0.3,0.3-0.6,0.6-0.9c0.2,0.2,0.4,0.5,0.6,0.9     c0,0,0-0.5,0-1.3c1.1-0.8,2.7-0.8,4.3-1.7C120.4,76.6,120,65.8,123.4,59.1z"
   id="path80" />
			<path
   class="st1"
   d="M135.1,102.4c0.1-1.3-0.1-2.7-0.4-4c-2.1-9-11.4-15.6-13.3-26c0,0.8-0.2,0.7-0.3,3c-0.1,1.2,0.2,3.4,0.5,4.8     c0.5,2.5,1.6,4.9,2.6,7.2c0.9,2.2,2,4.3,2.9,6.5c1.6,4,2.6,8.4,1.2,12.6c-0.7,2.1-2,4-3.5,5.6c-1.3,1.4-2.7,2.7-4.4,3.6     c-1.5,0.9-3.1,1.4-4.8,1.7c1.4,0.4,2.8,0.6,4.3,0.6c8.4,0,15.1-6.8,15.1-15.1C135.1,102.8,135.1,102.6,135.1,102.4z"
   id="path82" />
		</g>
		<path
   class="st1"
   d="M127.9,113.4c1.6-2.3,2.8-4.8,4.6-7c0.8-1,1.9-2,3.1-2.3c1.3-0.3,2.8,0.3,3.2,1.5c0.4,1.3-0.4,2.6-1.2,3.6    c-0.7,0.9-1.4,1.9-2.2,2.8c-0.7,0.9-1.5,2.2-0.9,3.2c0.6,1.2,2.5,1.1,3.6,0.3c1.1-0.8,1.8-2,3-2.8c1.6-1.1,4-0.9,5,0.7    c0.9,1.4,0.4,3.3-0.7,4.4c-1.1,1.1-2.8,1.6-4.4,1.7c-0.9,0.1-1.8,0-2.7-0.2c-2.7-0.7-4.8-3-7.5-3c-1.8,0-5.1,2.5-6.5,1.2    C125.1,116.2,126.8,114.9,127.9,113.4z"
   id="path86" />
		<path
   class="st1"
   d="M148.9,106.9c0,1.6-1.3,2.9-2.9,2.9c-1.6,0-2.9-1.3-2.9-2.9c0-1.6,1.3-2.9,2.9-2.9    C147.6,103.9,148.9,105.3,148.9,106.9z"
   id="path88" />
		<path
   class="st1"
   d="M142,100.5c0,0.7-0.6,1.3-1.3,1.3c-0.7,0-1.3-0.6-1.3-1.3c0-0.7,0.6-1.3,1.3-1.3    C141.4,99.2,142,99.7,142,100.5z"
   id="path90" />
		<path
   class="st1"
   d="M114.4,115.5c-1.9-1.7-3.3-3.8-5.1-5.6c-0.8-0.8-1.7-1.5-2.8-1.7c-1.1-0.2-2.3,0.2-2.8,1.2    c-0.1,0.3-0.2,0.8-0.5,1c-0.7,0.7-1.8-0.1-2.4-0.9c-1.1-1.6-2.1-3.3-3.7-4.2c-1.6-0.9-4.2-0.6-4.8,1.2c-0.7,1.9,1.2,3.7,2.9,4.8    c7.8,4.8,16.5,6.7,25.5,6.8C118.4,118.4,116.1,117.1,114.4,115.5z"
   id="path92" />
		<path
   class="st1"
   d="M101,100.7c0,0.9-0.7,1.6-1.6,1.6c-0.9,0-1.6-0.7-1.6-1.6c0-0.9,0.7-1.6,1.6-1.6    C100.3,99.2,101,99.9,101,100.7z"
   id="path94" />
		<path
   class="st1"
   d="M92.2,98.4c0,0.4-0.3,0.8-0.8,0.8c-0.4,0-0.8-0.3-0.8-0.8c0-0.4,0.3-0.8,0.8-0.8C91.8,97.6,92.2,98,92.2,98.4    z"
   id="path96" />
		<path
   class="st1"
   d="M93.4,114.7c0,0.8-0.6,1.4-1.4,1.4c-0.8,0-1.4-0.6-1.4-1.4c0-0.8,0.6-1.4,1.4-1.4    C92.8,113.3,93.4,114,93.4,114.7z"
   id="path98" />
		<path
   class="st1"
   d="M90,103.2c0,0.5-0.4,0.9-0.9,0.9c-0.5,0-0.9-0.4-0.9-0.9c0-0.5,0.4-0.9,0.9-0.9C89.6,102.3,90,102.7,90,103.2    z"
   id="path100" />
	</g>
	<rect
   x="164.4"
   y="80"
   class="st5"
   width="110.9"
   height="54.6"
   id="rect104" />
	<g
   aria-label="COOLING"
   transform="scale(0.90617813,1.1035358)"
   id="text106"
   style="font-size:25.2617px;font-family:Asap-Bold;fill:#ffffff;stroke-width:1.18414"
   class="st1 st6 st7"><path
     d="m 196.23459,71.823656 v 2.627315 q -1.25816,-1.171807 -2.68899,-1.751544 -1.41851,-0.579736 -3.02203,-0.579736 -3.15772,0 -4.83525,1.936566 -1.67754,1.924231 -1.67754,5.575336 0,3.63877 1.67754,5.575336 1.67753,1.924231 4.83525,1.924231 1.60352,0 3.02203,-0.579736 1.43083,-0.579736 2.68899,-1.751544 v 2.602646 q -1.30749,0.888107 -2.77534,1.33216 -1.45551,0.444053 -3.0837,0.444053 -4.1815,0 -6.58679,-2.553306 -2.40529,-2.565642 -2.40529,-6.99384 0,-4.440533 2.40529,-6.99384 2.40529,-2.565641 6.58679,-2.565641 1.65286,0 3.10837,0.444053 1.46785,0.431719 2.75067,1.307491 z"
     style="font-family:'Droid Sans Fallback';-inkscape-font-specification:'Droid Sans Fallback'"
     id="path16392" /><path
     d="m 207.55795,72.095021 q -2.71366,0 -4.31719,2.02291 -1.59119,2.02291 -1.59119,5.513662 0,3.478418 1.59119,5.501327 1.60353,2.02291 4.31719,2.02291 2.71365,0 4.29251,-2.02291 1.59119,-2.022909 1.59119,-5.501327 0,-3.490752 -1.59119,-5.513662 -1.57886,-2.02291 -4.29251,-2.02291 z m 0,-2.022909 q 3.87313,0 6.19207,2.602646 2.31895,2.590311 2.31895,6.956835 0,4.354189 -2.31895,6.956835 -2.31894,2.590311 -6.19207,2.590311 -3.88547,0 -6.21675,-2.590311 -2.31895,-2.590311 -2.31895,-6.956835 0,-4.366524 2.31895,-6.956835 2.33128,-2.602646 6.21675,-2.602646 z"
     style="font-family:'Droid Sans Fallback';-inkscape-font-specification:'Droid Sans Fallback'"
     id="path16394" /><path
     d="m 227.44167,72.095021 q -2.71366,0 -4.31719,2.02291 -1.59119,2.02291 -1.59119,5.513662 0,3.478418 1.59119,5.501327 1.60353,2.02291 4.31719,2.02291 2.71366,0 4.29251,-2.02291 1.59119,-2.022909 1.59119,-5.501327 0,-3.490752 -1.59119,-5.513662 -1.57885,-2.02291 -4.29251,-2.02291 z m 0,-2.022909 q 3.87313,0 6.19207,2.602646 2.31895,2.590311 2.31895,6.956835 0,4.354189 -2.31895,6.956835 -2.31894,2.590311 -6.19207,2.590311 -3.88547,0 -6.21675,-2.590311 -2.31894,-2.590311 -2.31894,-6.956835 0,-4.366524 2.31894,-6.956835 2.33128,-2.602646 6.21675,-2.602646 z"
     style="font-family:'Droid Sans Fallback';-inkscape-font-specification:'Droid Sans Fallback'"
     id="path16396" /><path
     d="m 239.85049,70.405152 h 2.49163 v 16.318959 h 8.96741 v 2.096919 h -11.45904 z"
     style="font-family:'Droid Sans Fallback';-inkscape-font-specification:'Droid Sans Fallback'"
     id="path16398" /><path
     d="m 253.92451,70.405152 h 2.49163 V 88.82103 h -2.49163 z"
     style="font-family:'Droid Sans Fallback';-inkscape-font-specification:'Droid Sans Fallback'"
     id="path16400" /><path
     d="m 261.37474,70.405152 h 3.35507 l 8.16564,15.406183 V 70.405152 h 2.41763 V 88.82103 h -3.35507 L 263.79236,73.414847 V 88.82103 h -2.41762 z"
     style="font-family:'Droid Sans Fallback';-inkscape-font-specification:'Droid Sans Fallback'"
     id="path16402" /><path
     d="m 292.82852,86.193714 v -4.94626 h -4.07049 v -2.047579 h 6.53745 v 7.906615 q -1.44317,1.02379 -3.18238,1.554187 -1.73921,0.518062 -3.71278,0.518062 -4.31718,0 -6.75948,-2.516302 -2.42996,-2.528637 -2.42996,-7.030844 0,-4.514542 2.42996,-7.030844 2.4423,-2.528637 6.75948,-2.528637 1.80088,0 3.41675,0.444053 1.62819,0.444054 2.99736,1.307491 v 2.651985 q -1.3815,-1.171808 -2.93569,-1.763879 -1.55419,-0.592071 -3.26873,-0.592071 -3.37974,0 -5.08194,1.887227 -1.68987,1.887226 -1.68987,5.624675 0,3.725114 1.68987,5.612341 1.7022,1.887226 5.08194,1.887226 1.31983,0 2.35595,-0.222027 1.03613,-0.234361 1.86256,-0.715419 z"
     style="font-family:'Droid Sans Fallback';-inkscape-font-specification:'Droid Sans Fallback'"
     id="path16404" /></g>
</g>
</svg>
